<svg width="204" height="177" viewBox="0 0 204 177" fill="none" xmlns="http://www.w3.org/2000/svg">
<g opacity="0.15">
<path d="M0 0.105904C23.0471 2.57143 46.3247 -1.86652 69.3389 1.40911C80.5662 3.38153 92.0897 7.74904 99.9916 16.9067C112.865 31.0306 113.392 55.4041 101.737 70.5495C94.1969 81.6092 81.8502 86.7163 69.9316 90.0624C90.6081 122.149 112.503 155.328 144.176 175.968C129.92 176.074 113.622 180.582 101.638 169.664C75.1995 147.756 58.3751 115.739 41.847 85.2722C53.5023 82.067 66.1452 79.038 74.8702 69.4928C85.1427 58.6445 86.2292 38.7794 76.286 27.4028C65.1904 16.5193 48.9258 18.2804 35.0975 19.8301C35.2292 64.914 34.7353 109.998 35.295 155.047C34.8999 163.535 40.2337 170.051 45.1065 175.968C30.093 175.722 14.9477 174.559 0 176.884V174.982C8.03357 170.333 11.6882 160.999 11.1614 151.56C11.2602 109.293 11.2931 66.9921 11.1614 24.7259C11.4577 15.5331 8.16527 5.77661 0 1.51478V0.105904Z" fill="#DABE83"/>
<path d="M91.2008 0C112.305 0.669214 135.583 -2.28942 153.922 11.3766C172.195 24.5848 175.059 55.2982 160.079 72.4512C152.21 82.102 140.917 87.1739 129.525 89.9917C150.333 121.938 171.997 155.61 204 175.722C194.221 175.827 184.41 177.87 174.664 176.567C163.536 173.573 155.041 164.732 147.271 156.244C128.669 135.216 114.808 110.103 101.407 85.1311C113.128 82.3133 125.673 79.1434 134.332 69.5983C144.934 58.9261 145.888 38.8849 135.945 27.4026C129.459 20.2525 119.648 19.4424 110.988 18.2097C105.128 11.271 98.6747 4.93105 91.2008 0Z" fill="#DABE83"/>
</g>
</svg>
