<svg width="392" height="336" viewBox="0 0 392 336" fill="none" xmlns="http://www.w3.org/2000/svg">
<g clip-path="url(#clip0_304_500)">
<path d="M32.5 163.735V161.47H40.6779C43.4039 161.47 45.827 161.092 47.9472 160.337C50.0674 159.431 51.9605 157.845 53.6263 155.58C55.4437 153.164 57.0338 149.842 58.3968 145.613L101.558 2H134.27L181.52 146.746C182.883 150.219 184.322 153.088 185.836 155.354C187.351 157.468 189.092 159.053 191.061 160.111C193.181 161.017 195.453 161.47 197.876 161.47H199.012V163.735H121.322V161.47H130.862C134.194 161.47 136.466 160.79 137.677 159.431C138.889 158.072 139.495 156.26 139.495 153.994C139.495 152.937 139.343 151.88 139.04 150.823C138.889 149.615 138.662 148.331 138.359 146.972C138.056 145.613 137.753 144.33 137.45 143.122L126.092 104.387H73.1625L62.7129 139.044C62.1072 141.158 61.5771 143.122 61.1228 144.934C60.6685 146.746 60.2899 148.407 59.987 149.917C59.6841 151.276 59.5326 152.635 59.5326 153.994C59.5326 156.562 60.1384 158.449 61.35 159.657C62.7129 160.866 64.9089 161.47 67.9377 161.47H83.1578V163.735H32.5ZM73.844 102.122H125.41L109.282 45.9448C108.525 43.2265 107.616 39.9797 106.556 36.2044C105.496 32.4291 104.436 28.5028 103.375 24.4254C102.315 20.3481 101.255 16.4217 100.195 12.6464C99.5894 15.3646 98.9079 18.0829 98.1507 20.8011C97.3935 23.5193 96.5605 26.3131 95.6519 29.1823C94.8947 31.9006 94.0617 34.6188 93.1531 37.337C92.3958 40.0552 91.5629 42.7735 90.6542 45.4917L73.844 102.122Z" fill="#D9D9D9"/>
<path d="M252.222 166C242.075 166 233.594 163.055 226.779 157.166C220.116 151.276 216.784 142.744 216.784 131.569C216.784 120.394 220.722 111.937 228.597 106.199C236.472 100.46 248.284 97.2891 264.034 96.6851L281.299 96.0055V65.8785C281.299 59.5359 280.92 54.628 280.163 51.1547C279.557 47.6814 278.497 45.1897 276.983 43.6796C275.468 42.0184 273.348 41.1879 270.622 41.1879C266.23 41.1879 263.201 43.9061 261.536 49.3426C260.021 54.628 259.264 64.3683 259.264 78.5635C247.906 78.5635 239.501 77.3554 234.049 74.9392C228.597 72.523 225.871 68.5212 225.871 62.9337C225.871 57.1952 228.067 52.5893 232.458 49.116C236.85 45.6427 242.681 43.0755 249.95 41.4144C257.219 39.7532 265.17 38.9227 273.802 38.9227C290.158 38.9227 302.425 41.7919 310.603 47.5304C318.781 53.2689 322.87 63.1602 322.87 77.2044V145.613C322.87 149.691 323.249 152.937 324.006 155.354C324.915 157.619 326.278 159.204 328.095 160.111C329.912 161.017 332.411 161.47 335.591 161.47H336.5V163.735H281.526V145.84H281.072C279.406 151.276 277.134 155.429 274.257 158.298C271.531 161.168 268.275 163.131 264.489 164.188C260.703 165.396 256.614 166 252.222 166ZM268.351 157.392C271.076 157.392 273.348 156.033 275.165 153.315C277.134 150.446 278.649 146.821 279.709 142.442C280.92 137.912 281.526 132.853 281.526 127.265V98.2707L274.711 98.7238C268.805 99.1768 264.716 101.744 262.444 106.425C260.324 110.956 259.264 118.657 259.264 129.53C259.264 136.326 259.567 141.762 260.173 145.84C260.93 149.917 261.914 152.862 263.126 154.674C264.489 156.486 266.23 157.392 268.351 157.392Z" fill="#D9D9D9"/>
<rect x="356.5" width="3" height="166" fill="#D9D9D9"/>
<path d="M14 331.293V331.094H14.7205C15.0274 331.094 15.2742 331.055 15.461 330.975C15.6612 330.882 15.8079 330.73 15.9013 330.518C15.9947 330.307 16.0414 330.022 16.0414 329.664V318.661C16.0414 318.317 15.9947 318.046 15.9013 317.847C15.8213 317.648 15.6812 317.509 15.481 317.43C15.2942 317.351 15.0541 317.311 14.7605 317.311H14V317.112H17.9628L24.8876 328.612V318.701C24.8876 318.344 24.8409 318.066 24.7475 317.867C24.6675 317.668 24.534 317.529 24.3472 317.45C24.1604 317.357 23.9136 317.311 23.6067 317.311H22.7261V317.112H27.2092V317.311H26.3687C26.0751 317.311 25.8349 317.357 25.6482 317.45C25.4614 317.529 25.3213 317.675 25.2279 317.887C25.1345 318.085 25.0878 318.37 25.0878 318.741V331.293H24.1671L16.2416 318.185V329.664C16.2416 330.022 16.2816 330.307 16.3617 330.518C16.4551 330.73 16.5951 330.882 16.7819 330.975C16.9821 331.055 17.2289 331.094 17.5225 331.094H18.4431V331.293H14Z" fill="white"/>
<path d="M33.8913 331.492C32.4903 331.492 31.3895 331.035 30.589 330.121C29.8017 329.208 29.4081 327.817 29.4081 325.95C29.4081 324.097 29.7884 322.72 30.5489 321.819C31.3095 320.906 32.4369 320.449 33.9313 320.449C35.3323 320.449 36.4264 320.906 37.2136 321.819C38.0008 322.72 38.3944 324.097 38.3944 325.95C38.3944 327.831 38.0142 329.227 37.2536 330.141C36.4931 331.041 35.3723 331.492 33.8913 331.492ZM33.9113 331.293C34.485 331.293 34.9387 331.121 35.2722 330.777C35.6191 330.419 35.866 329.85 36.0128 329.069C36.1595 328.287 36.2329 327.248 36.2329 325.95C36.2329 324.653 36.1595 323.613 36.0128 322.832C35.866 322.051 35.6191 321.495 35.2722 321.164C34.9387 320.82 34.4783 320.647 33.8913 320.647C33.3309 320.647 32.8772 320.82 32.5303 321.164C32.1967 321.495 31.9566 322.051 31.8098 322.832C31.663 323.613 31.5897 324.653 31.5897 325.95C31.5897 327.248 31.663 328.287 31.8098 329.069C31.9699 329.85 32.2168 330.419 32.5503 330.777C32.8972 331.121 33.3509 331.293 33.9113 331.293Z" fill="white"/>
<path d="M44.6568 331.492C43.7495 331.492 43.069 331.266 42.6153 330.816C42.1617 330.353 41.9349 329.552 41.9349 328.413V320.846H40.5339V320.647C41.0409 320.647 41.4745 320.601 41.8348 320.508C42.2084 320.416 42.5219 320.27 42.7755 320.072C43.069 319.86 43.3025 319.588 43.4759 319.257C43.6494 318.913 43.7762 318.516 43.8562 318.066H44.0563V320.647H46.5381V320.846H44.0563V329.128C44.0563 329.843 44.1698 330.359 44.3966 330.677C44.6368 330.995 44.997 331.154 45.4773 331.154C45.6508 331.154 45.8309 331.141 46.0177 331.114C46.2045 331.074 46.4113 331.015 46.6382 330.935V331.134C46.4514 331.214 46.1778 331.293 45.8176 331.372C45.4707 331.452 45.0837 331.492 44.6568 331.492Z" fill="white"/>
<path d="M53.2783 331.492C51.8773 331.492 50.7765 331.035 49.976 330.121C49.1887 329.208 48.7951 327.817 48.7951 325.95C48.7951 324.097 49.1754 322.72 49.9359 321.819C50.6965 320.906 51.8239 320.449 53.3183 320.449C54.7193 320.449 55.8134 320.906 56.6006 321.819C57.3878 322.72 57.7814 324.097 57.7814 325.95C57.7814 327.831 57.4012 329.227 56.6406 330.141C55.8801 331.041 54.7593 331.492 53.2783 331.492ZM53.2983 331.293C53.872 331.293 54.3257 331.121 54.6592 330.777C55.0061 330.419 55.253 329.85 55.3998 329.069C55.5465 328.287 55.6199 327.248 55.6199 325.95C55.6199 324.653 55.5465 323.613 55.3998 322.832C55.253 322.051 55.0061 321.495 54.6592 321.164C54.3257 320.82 53.8653 320.647 53.2783 320.647C52.7179 320.647 52.2642 320.82 51.9173 321.164C51.5838 321.495 51.3436 322.051 51.1968 322.832C51.05 323.613 50.9767 324.653 50.9767 325.95C50.9767 327.248 51.05 328.287 51.1968 329.069C51.3569 329.85 51.6038 330.419 51.9373 330.777C52.2842 331.121 52.7379 331.293 53.2983 331.293Z" fill="white"/>
<path d="M69.3281 331.492C68.6343 331.492 68.0272 331.419 67.5068 331.273C66.9998 331.114 66.5795 330.902 66.2459 330.638C65.9257 330.373 65.6856 330.081 65.5254 329.764C65.3787 329.433 65.3053 329.095 65.3053 328.751C65.3053 328.42 65.3653 328.148 65.4854 327.936C65.6188 327.711 65.8056 327.546 66.0458 327.44C66.286 327.321 66.5595 327.261 66.8664 327.261C66.8664 328.175 66.9664 328.929 67.1666 329.525C67.3667 330.121 67.6669 330.565 68.0672 330.856C68.4675 331.147 68.9745 331.293 69.5883 331.293C70.3755 331.293 71.0026 331.061 71.4696 330.598C71.9499 330.121 72.1901 329.419 72.1901 328.493C72.1901 327.857 72.07 327.341 71.8298 326.943C71.5897 326.546 71.2294 326.195 70.7491 325.891C70.2821 325.586 69.695 325.268 68.9879 324.937C68.4942 324.686 68.0339 324.428 67.6069 324.163C67.1933 323.898 66.833 323.6 66.5261 323.269C66.2326 322.938 65.9991 322.561 65.8256 322.137C65.6655 321.713 65.5855 321.223 65.5855 320.667C65.5855 319.873 65.7589 319.198 66.1058 318.642C66.4528 318.085 66.9398 317.662 67.5669 317.37C68.2073 317.066 68.9478 316.914 69.7884 316.914C70.5623 316.914 71.2161 317.026 71.7498 317.251C72.2968 317.463 72.7171 317.748 73.0107 318.105C73.3042 318.45 73.451 318.827 73.451 319.237C73.451 319.621 73.3042 319.932 73.0107 320.171C72.7171 320.409 72.2968 320.528 71.7498 320.528C71.7498 319.376 71.5763 318.522 71.2294 317.966C70.8959 317.397 70.3488 317.112 69.5883 317.112C69.148 317.112 68.7544 317.212 68.4075 317.41C68.0605 317.595 67.787 317.88 67.5869 318.264C67.3867 318.648 67.2867 319.145 67.2867 319.754C67.2867 320.363 67.4001 320.866 67.6269 321.263C67.8537 321.66 68.2006 322.011 68.6676 322.316C69.1346 322.607 69.7284 322.925 70.4489 323.269C71.1427 323.6 71.7498 323.944 72.2702 324.302C72.8039 324.659 73.2108 325.09 73.491 325.593C73.7845 326.083 73.9313 326.705 73.9313 327.46C73.9313 328.281 73.7512 328.996 73.3909 329.605C73.044 330.201 72.5237 330.664 71.8298 330.995C71.1494 331.326 70.3155 331.492 69.3281 331.492Z" fill="white"/>
<path d="M81.1093 331.492C79.655 331.492 78.5342 331.015 77.747 330.062C76.9597 329.108 76.5661 327.771 76.5661 326.05C76.5661 324.196 76.9397 322.799 77.6869 321.859C78.4341 320.919 79.4882 320.449 80.8491 320.449C82.1167 320.449 83.104 320.859 83.8112 321.68C84.5184 322.488 84.8719 323.68 84.8719 325.255V325.692H78.7276C78.7276 327.029 78.821 328.109 79.0078 328.929C79.1946 329.75 79.4815 330.346 79.8684 330.717C80.2554 331.088 80.7624 331.273 81.3895 331.273C81.8432 331.273 82.2434 331.187 82.5903 331.015C82.9506 330.83 83.2441 330.545 83.471 330.161C83.7111 329.777 83.8712 329.294 83.9513 328.711C84.1248 328.751 84.2582 328.837 84.3516 328.969C84.445 329.102 84.4917 329.254 84.4917 329.426C84.4917 329.717 84.3649 330.028 84.1114 330.359C83.8712 330.677 83.5043 330.949 83.0106 331.174C82.517 331.386 81.8832 331.492 81.1093 331.492ZM82.7104 325.494C82.7104 324.315 82.6504 323.375 82.5303 322.673C82.4102 321.958 82.2101 321.442 81.9299 321.124C81.663 320.806 81.2961 320.647 80.8291 320.647C80.3621 320.647 79.9752 320.806 79.6683 321.124C79.3614 321.442 79.1346 321.952 78.9878 322.653C78.8411 323.355 78.7543 324.302 78.7276 325.494H82.7104Z" fill="white"/>
<path d="M86.9902 331.293V331.094H87.1503C87.4972 331.094 87.7774 331.055 87.9908 330.975C88.2043 330.882 88.3578 330.737 88.4512 330.538C88.5579 330.326 88.6113 330.035 88.6113 329.664V322.276C88.6113 321.892 88.5646 321.601 88.4712 321.402C88.3778 321.204 88.2243 321.065 88.0109 320.985C87.7974 320.892 87.5172 320.846 87.1703 320.846H87.1102V320.647H90.7328V322.634H90.7728C90.8795 322.236 91.033 321.872 91.2331 321.541C91.4333 321.21 91.7068 320.945 92.0537 320.747C92.4006 320.548 92.8409 320.449 93.3746 320.449C94.0151 320.449 94.5021 320.588 94.8356 320.866C95.1692 321.131 95.336 321.501 95.336 321.978C95.336 322.415 95.1825 322.766 94.8757 323.031C94.5688 323.296 94.1018 323.428 93.4747 323.428C93.4747 322.567 93.3679 321.972 93.1545 321.641C92.9543 321.31 92.6808 321.144 92.3339 321.144C92.0403 321.144 91.7868 321.25 91.5733 321.462C91.3732 321.66 91.2064 321.945 91.073 322.316C90.9529 322.687 90.8662 323.11 90.8128 323.587C90.7595 324.05 90.7328 324.547 90.7328 325.076V329.605C90.7328 330.002 90.7861 330.307 90.8929 330.518C90.9996 330.73 91.1664 330.882 91.3932 330.975C91.62 331.055 91.9069 331.094 92.2538 331.094H92.554V331.293H86.9902Z" fill="white"/>
<path d="M96.7995 331.293V331.094H97.0597C97.3933 331.094 97.6601 331.055 97.8603 330.975C98.0737 330.882 98.2338 330.73 98.3406 330.518C98.4473 330.307 98.5007 330.009 98.5007 329.625V322.296C98.5007 321.912 98.4473 321.621 98.3406 321.422C98.2338 321.21 98.0737 321.065 97.8603 320.985C97.6601 320.892 97.3999 320.846 97.0797 320.846H96.9196V320.647H100.602V329.585C100.602 329.982 100.656 330.293 100.762 330.518C100.869 330.73 101.029 330.882 101.243 330.975C101.456 331.055 101.723 331.094 102.043 331.094H102.283V331.293H96.7995ZM99.4614 318.701C99.1678 318.701 98.921 318.608 98.7209 318.423C98.5341 318.238 98.4407 317.94 98.4407 317.529C98.4407 317.092 98.5341 316.788 98.7209 316.616C98.921 316.43 99.1678 316.338 99.4614 316.338C99.7416 316.338 99.9817 316.43 100.182 316.616C100.382 316.788 100.482 317.092 100.482 317.529C100.482 317.94 100.382 318.238 100.182 318.423C99.9817 318.608 99.7416 318.701 99.4614 318.701Z" fill="white"/>
<path d="M103.817 331.293V331.094H104.157C104.451 331.094 104.698 331.055 104.898 330.975C105.111 330.896 105.272 330.75 105.378 330.538C105.498 330.326 105.558 330.028 105.558 329.644V320.846H103.897V320.647H105.558V319.734C105.558 318.529 105.845 317.609 106.419 316.973C107.006 316.324 107.927 316 109.181 316C109.795 316 110.288 316.066 110.662 316.199C111.036 316.318 111.309 316.483 111.483 316.695C111.656 316.907 111.743 317.152 111.743 317.43C111.743 317.682 111.676 317.893 111.543 318.066C111.423 318.238 111.236 318.37 110.982 318.463C110.729 318.542 110.422 318.582 110.062 318.582C110.062 317.708 109.982 317.092 109.821 316.735C109.675 316.377 109.388 316.199 108.961 316.199C108.48 316.199 108.14 316.417 107.94 316.854C107.753 317.278 107.66 318.039 107.66 319.138V320.647H110.262V320.846H107.66V329.605C107.66 330.002 107.713 330.313 107.82 330.538C107.94 330.75 108.107 330.896 108.32 330.975C108.534 331.055 108.787 331.094 109.081 331.094H109.881V331.293H103.817Z" fill="white"/>
<path d="M116.817 331.293V331.094H117.298C117.591 331.094 117.831 331.055 118.018 330.975C118.205 330.882 118.338 330.73 118.418 330.518C118.512 330.307 118.558 330.028 118.558 329.684V318.661C118.558 318.317 118.512 318.046 118.418 317.847C118.325 317.648 118.185 317.509 117.998 317.43C117.811 317.351 117.571 317.311 117.278 317.311H116.817V317.112H122.601C123.922 317.112 125.05 317.384 125.984 317.927C126.918 318.469 127.632 319.264 128.125 320.31C128.619 321.343 128.866 322.62 128.866 324.143C128.866 325.586 128.632 326.844 128.165 327.917C127.698 328.989 126.998 329.823 126.064 330.419C125.143 331.002 123.982 331.293 122.581 331.293H116.817ZM122.221 331.094C123.222 331.094 124.036 330.856 124.663 330.379C125.29 329.903 125.75 329.155 126.044 328.135C126.337 327.102 126.484 325.765 126.484 324.123C126.484 322.548 126.337 321.257 126.044 320.25C125.75 319.244 125.29 318.502 124.663 318.026C124.036 317.549 123.228 317.311 122.241 317.311H120.78V331.094H122.221Z" fill="white"/>
<path d="M131.078 331.293V331.094H131.338C131.672 331.094 131.939 331.055 132.139 330.975C132.352 330.882 132.513 330.73 132.619 330.518C132.726 330.307 132.779 330.009 132.779 329.625V322.296C132.779 321.912 132.726 321.621 132.619 321.422C132.513 321.21 132.352 321.065 132.139 320.985C131.939 320.892 131.679 320.846 131.358 320.846H131.198V320.647H134.881V329.585C134.881 329.982 134.934 330.293 135.041 330.518C135.148 330.73 135.308 330.882 135.521 330.975C135.735 331.055 136.002 331.094 136.322 331.094H136.562V331.293H131.078ZM133.74 318.701C133.447 318.701 133.2 318.608 133 318.423C132.813 318.238 132.719 317.94 132.719 317.529C132.719 317.092 132.813 316.788 133 316.616C133.2 316.43 133.447 316.338 133.74 316.338C134.02 316.338 134.26 316.43 134.461 316.616C134.661 316.788 134.761 317.092 134.761 317.529C134.761 317.94 134.661 318.238 134.461 318.423C134.26 318.608 134.02 318.701 133.74 318.701Z" fill="white"/>
<path d="M141.658 331.492C140.938 331.492 140.331 331.399 139.837 331.214C139.357 331.028 138.99 330.777 138.736 330.459C138.496 330.128 138.376 329.75 138.376 329.327C138.376 328.982 138.443 328.711 138.576 328.512C138.723 328.314 138.896 328.175 139.097 328.095C139.31 328.016 139.51 327.976 139.697 327.976C139.697 328.744 139.764 329.373 139.897 329.863C140.031 330.34 140.244 330.697 140.538 330.935C140.845 331.174 141.251 331.293 141.758 331.293C142.399 331.293 142.913 331.121 143.3 330.777C143.686 330.419 143.88 329.889 143.88 329.188C143.88 328.724 143.793 328.36 143.62 328.095C143.46 327.831 143.206 327.599 142.859 327.4C142.512 327.188 142.052 326.95 141.478 326.685C140.824 326.381 140.277 326.083 139.837 325.791C139.41 325.5 139.09 325.169 138.876 324.798C138.663 324.414 138.556 323.938 138.556 323.368C138.556 322.415 138.87 321.693 139.497 321.204C140.137 320.714 141.005 320.469 142.099 320.469C142.753 320.469 143.3 320.555 143.74 320.727C144.194 320.886 144.527 321.111 144.741 321.402C144.967 321.68 145.081 321.991 145.081 322.336C145.081 322.693 144.961 322.978 144.721 323.19C144.48 323.402 144.113 323.507 143.62 323.507C143.62 322.475 143.486 321.746 143.219 321.323C142.953 320.886 142.532 320.667 141.959 320.667C141.585 320.667 141.258 320.734 140.978 320.866C140.711 320.998 140.498 321.204 140.337 321.482C140.177 321.76 140.097 322.111 140.097 322.534C140.097 322.984 140.184 323.349 140.357 323.627C140.544 323.891 140.818 324.13 141.178 324.342C141.552 324.54 142.025 324.772 142.599 325.037C143.226 325.302 143.747 325.58 144.16 325.871C144.587 326.149 144.907 326.487 145.121 326.884C145.334 327.268 145.441 327.744 145.441 328.314C145.441 329.333 145.114 330.121 144.46 330.677C143.807 331.22 142.873 331.492 141.658 331.492Z" fill="white"/>
<path d="M147.338 336V335.801H147.498C147.831 335.801 148.105 335.755 148.318 335.662C148.545 335.583 148.705 335.431 148.799 335.206C148.905 334.994 148.959 334.696 148.959 334.312V322.256C148.959 321.872 148.905 321.581 148.799 321.382C148.692 321.184 148.532 321.045 148.318 320.965C148.105 320.886 147.838 320.846 147.518 320.846H147.338V320.647H151.04V323.15H151.08C151.254 322.223 151.574 321.541 152.041 321.104C152.508 320.654 153.148 320.429 153.962 320.429C155.163 320.429 156.077 320.879 156.704 321.78C157.331 322.68 157.645 324.057 157.645 325.911C157.645 327.791 157.325 329.194 156.684 330.121C156.044 331.035 155.116 331.492 153.902 331.492C153.115 331.492 152.494 331.266 152.041 330.816C151.587 330.353 151.274 329.658 151.1 328.731H151.06C151.073 329.128 151.08 329.525 151.08 329.923C151.08 330.32 151.08 330.724 151.08 331.134V334.272C151.08 334.669 151.127 334.98 151.22 335.206C151.327 335.431 151.487 335.583 151.701 335.662C151.927 335.755 152.208 335.801 152.541 335.801H152.761V336H147.338ZM153.422 331.134C153.915 331.134 154.316 330.955 154.623 330.598C154.93 330.227 155.15 329.658 155.283 328.89C155.43 328.122 155.503 327.129 155.503 325.911C155.503 324.679 155.43 323.693 155.283 322.951C155.136 322.197 154.91 321.647 154.603 321.303C154.296 320.959 153.902 320.786 153.422 320.786C152.888 320.786 152.448 320.978 152.101 321.362C151.754 321.746 151.494 322.316 151.32 323.071C151.16 323.825 151.08 324.772 151.08 325.911C151.08 327.049 151.16 328.009 151.32 328.79C151.494 329.572 151.754 330.161 152.101 330.558C152.448 330.942 152.888 331.134 153.422 331.134Z" fill="white"/>
<path d="M159.609 331.293V331.094H159.829C160.162 331.094 160.436 331.055 160.649 330.975C160.876 330.882 161.036 330.73 161.13 330.518C161.236 330.307 161.29 330.015 161.29 329.644V317.807C161.29 317.423 161.23 317.132 161.11 316.933C161.003 316.735 160.843 316.596 160.629 316.516C160.416 316.437 160.162 316.397 159.869 316.397H159.609V316.199H163.411V329.585C163.411 329.995 163.458 330.307 163.551 330.518C163.658 330.73 163.818 330.882 164.032 330.975C164.259 331.055 164.545 331.094 164.892 331.094H165.092V331.293H159.609Z" fill="white"/>
<path d="M170.012 331.492C169.118 331.492 168.398 331.227 167.85 330.697C167.317 330.167 167.05 329.433 167.05 328.493C167.05 327.473 167.397 326.718 168.091 326.228C168.784 325.738 169.832 325.467 171.233 325.414L172.774 325.355V323.507C172.774 322.806 172.734 322.25 172.654 321.839C172.574 321.415 172.42 321.111 172.194 320.926C171.967 320.74 171.646 320.647 171.233 320.647C170.606 320.647 170.185 320.873 169.972 321.323C169.772 321.773 169.672 322.541 169.672 323.627C169.058 323.627 168.591 323.534 168.271 323.349C167.964 323.163 167.81 322.859 167.81 322.435C167.81 321.972 167.964 321.594 168.271 321.303C168.591 321.012 169.018 320.8 169.552 320.667C170.099 320.522 170.692 320.449 171.333 320.449C172.52 320.449 173.408 320.707 173.995 321.223C174.595 321.727 174.895 322.607 174.895 323.865V329.704C174.895 330.075 174.929 330.359 174.995 330.558C175.062 330.757 175.182 330.896 175.356 330.975C175.529 331.055 175.756 331.094 176.036 331.094H176.096V331.293H172.874V329.307H172.834C172.687 329.81 172.474 330.227 172.194 330.558C171.927 330.876 171.606 331.114 171.233 331.273C170.873 331.419 170.466 331.492 170.012 331.492ZM170.632 331.094C171.059 331.094 171.433 330.962 171.753 330.697C172.073 330.419 172.32 330.055 172.494 329.605C172.681 329.141 172.774 328.645 172.774 328.115V325.573L171.713 325.613C170.766 325.666 170.112 325.917 169.752 326.367C169.392 326.818 169.211 327.552 169.211 328.572C169.211 329.155 169.258 329.631 169.352 330.002C169.458 330.373 169.618 330.651 169.832 330.836C170.059 331.008 170.326 331.094 170.632 331.094Z" fill="white"/>
<path d="M177.891 335.801C178.705 335.801 179.372 335.735 179.892 335.603C180.413 335.484 180.84 335.278 181.173 334.987C181.507 334.696 181.794 334.305 182.034 333.815C182.287 333.339 182.541 332.743 182.794 332.028L178.591 321.919C178.485 321.627 178.378 321.409 178.271 321.263C178.178 321.104 178.071 320.998 177.951 320.945C177.844 320.879 177.704 320.846 177.531 320.846H177.291V320.647H182.014L182.034 320.846H181.874C181.487 320.846 181.2 320.899 181.013 321.005C180.826 321.098 180.733 321.263 180.733 321.501C180.733 321.621 180.753 321.766 180.793 321.938C180.846 322.111 180.913 322.303 180.993 322.514L182.634 326.705C182.741 326.983 182.841 327.241 182.934 327.48C183.028 327.718 183.115 327.95 183.195 328.175C183.275 328.387 183.348 328.598 183.415 328.81C183.495 329.022 183.568 329.247 183.635 329.486C183.768 329.075 183.902 328.665 184.035 328.254C184.169 327.831 184.289 327.447 184.396 327.102L185.837 322.594C185.903 322.356 185.95 322.157 185.977 321.998C186.017 321.826 186.037 321.687 186.037 321.581C186.037 321.329 185.95 321.144 185.776 321.025C185.603 320.906 185.303 320.846 184.876 320.846H184.135V320.647H187.798V320.846H187.678C187.384 320.846 187.144 320.886 186.957 320.965C186.784 321.045 186.63 321.197 186.497 321.422C186.377 321.634 186.25 321.945 186.117 322.356L183.195 331.571C182.901 332.471 182.608 333.206 182.314 333.776C182.034 334.358 181.707 334.808 181.333 335.126C180.973 335.457 180.533 335.682 180.012 335.801C179.492 335.934 178.865 336 178.131 336H177.891V335.801Z" fill="white"/>
<path d="M198.353 331.492C197.659 331.492 197.052 331.419 196.531 331.273C196.024 331.114 195.604 330.902 195.271 330.638C194.95 330.373 194.71 330.081 194.55 329.764C194.403 329.433 194.33 329.095 194.33 328.751C194.33 328.42 194.39 328.148 194.51 327.936C194.644 327.711 194.83 327.546 195.07 327.44C195.311 327.321 195.584 327.261 195.891 327.261C195.891 328.175 195.991 328.929 196.191 329.525C196.391 330.121 196.692 330.565 197.092 330.856C197.492 331.147 197.999 331.293 198.613 331.293C199.4 331.293 200.027 331.061 200.494 330.598C200.975 330.121 201.215 329.419 201.215 328.493C201.215 327.857 201.095 327.341 200.855 326.943C200.614 326.546 200.254 326.195 199.774 325.891C199.307 325.586 198.72 325.268 198.013 324.937C197.519 324.686 197.059 324.428 196.632 324.163C196.218 323.898 195.858 323.6 195.551 323.269C195.257 322.938 195.024 322.561 194.85 322.137C194.69 321.713 194.61 321.223 194.61 320.667C194.61 319.873 194.784 319.198 195.131 318.642C195.477 318.085 195.964 317.662 196.592 317.37C197.232 317.066 197.973 316.914 198.813 316.914C199.587 316.914 200.241 317.026 200.774 317.251C201.322 317.463 201.742 317.748 202.035 318.105C202.329 318.45 202.476 318.827 202.476 319.237C202.476 319.621 202.329 319.932 202.035 320.171C201.742 320.409 201.322 320.528 200.774 320.528C200.774 319.376 200.601 318.522 200.254 317.966C199.921 317.397 199.373 317.112 198.613 317.112C198.173 317.112 197.779 317.212 197.432 317.41C197.085 317.595 196.812 317.88 196.612 318.264C196.411 318.648 196.311 319.145 196.311 319.754C196.311 320.363 196.425 320.866 196.652 321.263C196.878 321.66 197.225 322.011 197.692 322.316C198.159 322.607 198.753 322.925 199.474 323.269C200.167 323.6 200.774 323.944 201.295 324.302C201.829 324.659 202.235 325.09 202.516 325.593C202.809 326.083 202.956 326.705 202.956 327.46C202.956 328.281 202.776 328.996 202.416 329.605C202.069 330.201 201.548 330.664 200.855 330.995C200.174 331.326 199.34 331.492 198.353 331.492Z" fill="white"/>
<path d="M210.134 331.492C208.68 331.492 207.559 331.015 206.772 330.062C205.984 329.108 205.591 327.771 205.591 326.05C205.591 324.196 205.964 322.799 206.712 321.859C207.459 320.919 208.513 320.449 209.874 320.449C211.141 320.449 212.129 320.859 212.836 321.68C213.543 322.488 213.897 323.68 213.897 325.255V325.692H207.752C207.752 327.029 207.846 328.109 208.033 328.929C208.219 329.75 208.506 330.346 208.893 330.717C209.28 331.088 209.787 331.273 210.414 331.273C210.868 331.273 211.268 331.187 211.615 331.015C211.975 330.83 212.269 330.545 212.496 330.161C212.736 329.777 212.896 329.294 212.976 328.711C213.149 328.751 213.283 328.837 213.376 328.969C213.47 329.102 213.516 329.254 213.516 329.426C213.516 329.717 213.39 330.028 213.136 330.359C212.896 330.677 212.529 330.949 212.035 331.174C211.542 331.386 210.908 331.492 210.134 331.492ZM211.735 325.494C211.735 324.315 211.675 323.375 211.555 322.673C211.435 321.958 211.235 321.442 210.955 321.124C210.688 320.806 210.321 320.647 209.854 320.647C209.387 320.647 209 320.806 208.693 321.124C208.386 321.442 208.159 321.952 208.013 322.653C207.866 323.355 207.779 324.302 207.752 325.494H211.735Z" fill="white"/>
<path d="M216.035 331.293V331.094H216.195C216.529 331.094 216.802 331.055 217.016 330.975C217.229 330.896 217.389 330.75 217.496 330.538C217.603 330.326 217.656 330.028 217.656 329.644V322.316C217.656 321.919 217.603 321.614 217.496 321.402C217.402 321.19 217.249 321.045 217.036 320.965C216.822 320.886 216.549 320.846 216.215 320.846H216.115V320.647H219.737V322.495H219.777C219.938 321.965 220.151 321.554 220.418 321.263C220.698 320.972 221.025 320.767 221.399 320.647C221.772 320.515 222.166 320.449 222.579 320.449C223.3 320.449 223.907 320.621 224.401 320.965C224.908 321.296 225.275 321.879 225.501 322.713H225.542C225.675 322.144 225.868 321.693 226.122 321.362C226.389 321.031 226.709 320.8 227.083 320.667C227.456 320.522 227.863 320.449 228.303 320.449C229.344 320.449 230.125 320.76 230.645 321.382C231.165 322.005 231.426 322.965 231.426 324.262V329.585C231.426 329.995 231.466 330.313 231.546 330.538C231.639 330.75 231.793 330.896 232.006 330.975C232.219 331.055 232.493 331.094 232.827 331.094H232.887V331.293H229.304V323.865C229.304 322.859 229.177 322.117 228.924 321.641C228.67 321.164 228.243 320.926 227.643 320.926C227.176 320.926 226.789 321.065 226.482 321.343C226.189 321.607 225.968 321.985 225.822 322.475C225.675 322.965 225.602 323.534 225.602 324.183V329.565C225.602 329.976 225.642 330.293 225.722 330.518C225.815 330.743 225.968 330.896 226.182 330.975C226.395 331.055 226.669 331.094 227.003 331.094H227.083V331.293H223.5V323.865C223.5 322.845 223.367 322.104 223.1 321.641C222.846 321.164 222.419 320.926 221.819 320.926C221.352 320.926 220.965 321.071 220.658 321.362C220.351 321.641 220.124 322.044 219.978 322.574C219.831 323.104 219.757 323.726 219.757 324.441V329.605C219.757 330.002 219.804 330.313 219.898 330.538C220.004 330.75 220.164 330.896 220.378 330.975C220.605 331.055 220.885 331.094 221.218 331.094H221.299V331.293H216.035Z" fill="white"/>
<path d="M234.522 331.293V331.094H234.782C235.115 331.094 235.382 331.055 235.582 330.975C235.796 330.882 235.956 330.73 236.063 330.518C236.17 330.307 236.223 330.009 236.223 329.625V322.296C236.223 321.912 236.17 321.621 236.063 321.422C235.956 321.21 235.796 321.065 235.582 320.985C235.382 320.892 235.122 320.846 234.802 320.846H234.642V320.647H238.324V329.585C238.324 329.982 238.378 330.293 238.484 330.518C238.591 330.73 238.751 330.882 238.965 330.975C239.178 331.055 239.445 331.094 239.765 331.094H240.006V331.293H234.522ZM237.184 318.701C236.89 318.701 236.643 318.608 236.443 318.423C236.256 318.238 236.163 317.94 236.163 317.529C236.163 317.092 236.256 316.788 236.443 316.616C236.643 316.43 236.89 316.338 237.184 316.338C237.464 316.338 237.704 316.43 237.904 316.616C238.104 316.788 238.204 317.092 238.204 317.529C238.204 317.94 238.104 318.238 237.904 318.423C237.704 318.608 237.464 318.701 237.184 318.701Z" fill="white"/>
<path d="M248.084 331.492C246.763 331.492 245.656 331.187 244.762 330.578C243.881 329.969 243.221 329.121 242.78 328.036C242.34 326.937 242.12 325.659 242.12 324.203C242.12 322.746 242.34 321.475 242.78 320.389C243.234 319.29 243.908 318.436 244.802 317.827C245.709 317.218 246.85 316.914 248.224 316.914C249.065 316.914 249.772 317.02 250.346 317.231C250.933 317.443 251.373 317.721 251.666 318.066C251.973 318.41 252.127 318.794 252.127 319.217C252.127 319.654 251.96 319.999 251.626 320.25C251.306 320.502 250.873 320.628 250.326 320.628C250.326 319.793 250.245 319.118 250.085 318.602C249.925 318.085 249.672 317.708 249.325 317.47C248.991 317.231 248.544 317.112 247.984 317.112C247.17 317.112 246.503 317.377 245.982 317.907C245.462 318.423 245.082 319.204 244.842 320.25C244.615 321.283 244.501 322.587 244.501 324.163C244.501 325.752 244.628 327.076 244.882 328.135C245.149 329.194 245.569 329.982 246.143 330.499C246.716 331.015 247.464 331.273 248.384 331.273C249.265 331.273 249.965 331.028 250.486 330.538C251.006 330.035 251.366 329.294 251.566 328.314C251.753 328.38 251.887 328.486 251.967 328.632C252.047 328.777 252.087 328.936 252.087 329.108C252.087 329.36 252.007 329.625 251.847 329.903C251.7 330.167 251.466 330.426 251.146 330.677C250.826 330.916 250.412 331.114 249.905 331.273C249.398 331.419 248.791 331.492 248.084 331.492Z" fill="white"/>
<path d="M259.05 331.492C257.649 331.492 256.549 331.035 255.748 330.121C254.961 329.208 254.567 327.817 254.567 325.95C254.567 324.097 254.948 322.72 255.708 321.819C256.469 320.906 257.596 320.449 259.09 320.449C260.491 320.449 261.586 320.906 262.373 321.819C263.16 322.72 263.554 324.097 263.554 325.95C263.554 327.831 263.173 329.227 262.413 330.141C261.652 331.041 260.531 331.492 259.05 331.492ZM259.07 331.293C259.644 331.293 260.098 331.121 260.431 330.777C260.778 330.419 261.025 329.85 261.172 329.069C261.319 328.287 261.392 327.248 261.392 325.95C261.392 324.653 261.319 323.613 261.172 322.832C261.025 322.051 260.778 321.495 260.431 321.164C260.098 320.82 259.637 320.647 259.05 320.647C258.49 320.647 258.036 320.82 257.689 321.164C257.356 321.495 257.116 322.051 256.969 322.832C256.822 323.613 256.749 324.653 256.749 325.95C256.749 327.248 256.822 328.287 256.969 329.069C257.129 329.85 257.376 330.419 257.709 330.777C258.056 331.121 258.51 331.293 259.07 331.293Z" fill="white"/>
<path d="M265.793 331.293V331.094H265.953C266.3 331.094 266.58 331.055 266.794 330.975C267.007 330.882 267.161 330.724 267.254 330.499C267.361 330.26 267.414 329.929 267.414 329.505V322.375C267.414 321.965 267.361 321.654 267.254 321.442C267.161 321.217 267.007 321.065 266.794 320.985C266.594 320.892 266.327 320.846 265.993 320.846H265.853V320.647H269.496V322.495H269.536C269.696 321.952 269.916 321.535 270.196 321.243C270.476 320.939 270.797 320.734 271.157 320.628C271.53 320.508 271.911 320.449 272.298 320.449C273.378 320.449 274.179 320.753 274.699 321.362C275.233 321.958 275.5 322.918 275.5 324.242V329.486C275.5 329.909 275.54 330.24 275.62 330.479C275.7 330.704 275.833 330.863 276.02 330.955C276.22 331.048 276.494 331.094 276.841 331.094H276.921V331.293H273.378V323.746C273.378 322.819 273.245 322.111 272.978 321.621C272.725 321.118 272.278 320.866 271.637 320.866C271.144 320.866 270.737 321.018 270.416 321.323C270.109 321.614 269.883 322.024 269.736 322.554C269.589 323.084 269.516 323.693 269.516 324.381V329.525C269.516 329.936 269.562 330.26 269.656 330.499C269.749 330.724 269.903 330.882 270.116 330.975C270.33 331.055 270.603 331.094 270.937 331.094H271.057V331.293H265.793Z" fill="white"/>
<path d="M282.915 331.492C282.115 331.492 281.434 331.293 280.874 330.896C280.314 330.499 279.887 329.896 279.593 329.088C279.313 328.267 279.173 327.228 279.173 325.97C279.173 324.699 279.313 323.66 279.593 322.852C279.887 322.031 280.307 321.429 280.854 321.045C281.414 320.647 282.088 320.449 282.875 320.449C283.689 320.449 284.33 320.667 284.797 321.104C285.264 321.528 285.577 322.197 285.737 323.11H285.777C285.764 322.647 285.751 322.216 285.737 321.819C285.737 321.409 285.737 321.038 285.737 320.707C285.737 320.376 285.737 320.098 285.737 319.873V317.847C285.737 317.45 285.684 317.152 285.577 316.953C285.47 316.741 285.304 316.596 285.077 316.516C284.863 316.437 284.597 316.397 284.276 316.397H284.156V316.199H287.859V329.644C287.859 330.015 287.912 330.307 288.019 330.518C288.126 330.73 288.286 330.882 288.499 330.975C288.713 331.055 288.98 331.094 289.3 331.094H289.48V331.293H285.757V328.771H285.717C285.557 329.697 285.244 330.386 284.777 330.836C284.323 331.273 283.703 331.492 282.915 331.492ZM283.416 331.134C284.203 331.134 284.783 330.704 285.157 329.843C285.544 328.982 285.737 327.678 285.737 325.93C285.737 324.805 285.657 323.865 285.497 323.11C285.35 322.342 285.104 321.766 284.757 321.382C284.423 320.998 283.983 320.806 283.436 320.806C282.942 320.806 282.542 320.978 282.235 321.323C281.928 321.654 281.701 322.197 281.554 322.951C281.408 323.693 281.334 324.679 281.334 325.911C281.334 327.168 281.408 328.181 281.554 328.949C281.701 329.717 281.928 330.273 282.235 330.618C282.542 330.962 282.935 331.134 283.416 331.134Z" fill="white"/>
<path d="M296.126 331.492C294.672 331.492 293.551 331.015 292.764 330.062C291.977 329.108 291.583 327.771 291.583 326.05C291.583 324.196 291.957 322.799 292.704 321.859C293.451 320.919 294.505 320.449 295.866 320.449C297.134 320.449 298.121 320.859 298.828 321.68C299.535 322.488 299.889 323.68 299.889 325.255V325.692H293.745C293.745 327.029 293.838 328.109 294.025 328.929C294.212 329.75 294.498 330.346 294.885 330.717C295.272 331.088 295.779 331.273 296.406 331.273C296.86 331.273 297.26 331.187 297.607 331.015C297.967 330.83 298.261 330.545 298.488 330.161C298.728 329.777 298.888 329.294 298.968 328.711C299.142 328.751 299.275 328.837 299.368 328.969C299.462 329.102 299.509 329.254 299.509 329.426C299.509 329.717 299.382 330.028 299.128 330.359C298.888 330.677 298.521 330.949 298.028 331.174C297.534 331.386 296.9 331.492 296.126 331.492ZM297.727 325.494C297.727 324.315 297.667 323.375 297.547 322.673C297.427 321.958 297.227 321.442 296.947 321.124C296.68 320.806 296.313 320.647 295.846 320.647C295.379 320.647 294.992 320.806 294.685 321.124C294.378 321.442 294.151 321.952 294.005 322.653C293.858 323.355 293.771 324.302 293.745 325.494H297.727Z" fill="white"/>
<path d="M302.027 331.293V331.094H302.187C302.534 331.094 302.814 331.055 303.028 330.975C303.241 330.882 303.395 330.724 303.488 330.499C303.595 330.26 303.648 329.929 303.648 329.505V322.375C303.648 321.965 303.595 321.654 303.488 321.442C303.395 321.217 303.241 321.065 303.028 320.985C302.828 320.892 302.561 320.846 302.227 320.846H302.087V320.647H305.73V322.495H305.77C305.93 321.952 306.15 321.535 306.43 321.243C306.71 320.939 307.031 320.734 307.391 320.628C307.764 320.508 308.145 320.449 308.532 320.449C309.612 320.449 310.413 320.753 310.933 321.362C311.467 321.958 311.734 322.918 311.734 324.242V329.486C311.734 329.909 311.774 330.24 311.854 330.479C311.934 330.704 312.067 330.863 312.254 330.955C312.454 331.048 312.728 331.094 313.075 331.094H313.155V331.293H309.612V323.746C309.612 322.819 309.479 322.111 309.212 321.621C308.959 321.118 308.512 320.866 307.871 320.866C307.377 320.866 306.971 321.018 306.65 321.323C306.343 321.614 306.117 322.024 305.97 322.554C305.823 323.084 305.75 323.693 305.75 324.381V329.525C305.75 329.936 305.796 330.26 305.89 330.499C305.983 330.724 306.137 330.882 306.35 330.975C306.564 331.055 306.837 331.094 307.171 331.094H307.291V331.293H302.027Z" fill="white"/>
<path d="M318.469 331.492C317.748 331.492 317.141 331.399 316.648 331.214C316.167 331.028 315.8 330.777 315.547 330.459C315.307 330.128 315.187 329.75 315.187 329.327C315.187 328.982 315.253 328.711 315.387 328.512C315.533 328.314 315.707 328.175 315.907 328.095C316.121 328.016 316.321 327.976 316.508 327.976C316.508 328.744 316.574 329.373 316.708 329.863C316.841 330.34 317.055 330.697 317.348 330.935C317.655 331.174 318.062 331.293 318.569 331.293C319.209 331.293 319.723 331.121 320.11 330.777C320.497 330.419 320.69 329.889 320.69 329.188C320.69 328.724 320.604 328.36 320.43 328.095C320.27 327.831 320.017 327.599 319.67 327.4C319.323 327.188 318.862 326.95 318.289 326.685C317.635 326.381 317.088 326.083 316.648 325.791C316.221 325.5 315.9 325.169 315.687 324.798C315.473 324.414 315.367 323.938 315.367 323.368C315.367 322.415 315.68 321.693 316.307 321.204C316.948 320.714 317.815 320.469 318.909 320.469C319.563 320.469 320.11 320.555 320.55 320.727C321.004 320.886 321.338 321.111 321.551 321.402C321.778 321.68 321.891 321.991 321.891 322.336C321.891 322.693 321.771 322.978 321.531 323.19C321.291 323.402 320.924 323.507 320.43 323.507C320.43 322.475 320.297 321.746 320.03 321.323C319.763 320.886 319.343 320.667 318.769 320.667C318.395 320.667 318.069 320.734 317.788 320.866C317.522 320.998 317.308 321.204 317.148 321.482C316.988 321.76 316.908 322.111 316.908 322.534C316.908 322.984 316.995 323.349 317.168 323.627C317.355 323.891 317.628 324.13 317.989 324.342C318.362 324.54 318.836 324.772 319.41 325.037C320.037 325.302 320.557 325.58 320.971 325.871C321.398 326.149 321.718 326.487 321.931 326.884C322.145 327.268 322.252 327.744 322.252 328.314C322.252 329.333 321.925 330.121 321.271 330.677C320.617 331.22 319.683 331.492 318.469 331.492Z" fill="white"/>
<path d="M329.292 331.492C327.837 331.492 326.716 331.015 325.929 330.062C325.142 329.108 324.748 327.771 324.748 326.05C324.748 324.196 325.122 322.799 325.869 321.859C326.616 320.919 327.67 320.449 329.031 320.449C330.299 320.449 331.286 320.859 331.993 321.68C332.701 322.488 333.054 323.68 333.054 325.255V325.692H326.91C326.91 327.029 327.003 328.109 327.19 328.929C327.377 329.75 327.664 330.346 328.051 330.717C328.438 331.088 328.945 331.273 329.572 331.273C330.025 331.273 330.426 331.187 330.773 331.015C331.133 330.83 331.426 330.545 331.653 330.161C331.893 329.777 332.054 329.294 332.134 328.711C332.307 328.751 332.44 328.837 332.534 328.969C332.627 329.102 332.674 329.254 332.674 329.426C332.674 329.717 332.547 330.028 332.294 330.359C332.054 330.677 331.687 330.949 331.193 331.174C330.699 331.386 330.065 331.492 329.292 331.492ZM330.893 325.494C330.893 324.315 330.833 323.375 330.713 322.673C330.592 321.958 330.392 321.442 330.112 321.124C329.845 320.806 329.478 320.647 329.011 320.647C328.544 320.647 328.157 320.806 327.851 321.124C327.544 321.442 327.317 321.952 327.17 322.653C327.023 323.355 326.937 324.302 326.91 325.494H330.893Z" fill="white"/>
<path d="M339.435 331.492C338.635 331.492 337.954 331.293 337.394 330.896C336.834 330.499 336.407 329.896 336.113 329.088C335.833 328.267 335.693 327.228 335.693 325.97C335.693 324.699 335.833 323.66 336.113 322.852C336.407 322.031 336.827 321.429 337.374 321.045C337.934 320.647 338.608 320.449 339.395 320.449C340.209 320.449 340.85 320.667 341.317 321.104C341.784 321.528 342.097 322.197 342.257 323.11H342.297C342.284 322.647 342.271 322.216 342.257 321.819C342.257 321.409 342.257 321.038 342.257 320.707C342.257 320.376 342.257 320.098 342.257 319.873V317.847C342.257 317.45 342.204 317.152 342.097 316.953C341.991 316.741 341.824 316.596 341.597 316.516C341.383 316.437 341.117 316.397 340.796 316.397H340.676V316.199H344.379V329.644C344.379 330.015 344.432 330.307 344.539 330.518C344.646 330.73 344.806 330.882 345.019 330.975C345.233 331.055 345.5 331.094 345.82 331.094H346V331.293H342.277V328.771H342.237C342.077 329.697 341.764 330.386 341.297 330.836C340.843 331.273 340.223 331.492 339.435 331.492ZM339.936 331.134C340.723 331.134 341.303 330.704 341.677 329.843C342.064 328.982 342.257 327.678 342.257 325.93C342.257 324.805 342.177 323.865 342.017 323.11C341.87 322.342 341.624 321.766 341.277 321.382C340.943 320.998 340.503 320.806 339.956 320.806C339.462 320.806 339.062 320.978 338.755 321.323C338.448 321.654 338.221 322.197 338.074 322.951C337.928 323.693 337.854 324.679 337.854 325.911C337.854 327.168 337.928 328.181 338.074 328.949C338.221 329.717 338.448 330.273 338.755 330.618C339.062 330.962 339.455 331.134 339.936 331.134Z" fill="white"/>
</g>
<defs>
<clipPath id="clip0_304_500">
<rect width="392" height="336" fill="white"/>
</clipPath>
</defs>
</svg>
