<svg width="285" height="50" viewBox="0 0 285 50" fill="none" xmlns="http://www.w3.org/2000/svg">
<path d="M0 0L3.99487 1.56322L11.1874 0L18.3789 1.56322L22.3737 0V4.68747H0V0ZM23.9715 28.9064V50L0 26.5616V7.81281H22.3737V15.6256H7.99086V23.3307L15.9817 31.1435V21.9313L12.7852 21.0936V18.7499H22.3737L26.1538 28.9064H23.9715Z" fill="#FF7B31"/>
<path d="M104.187 45.8382V40.5622H100.905C99.0839 40.5622 98.8985 40.3821 98.8985 38.5847V22.2997H104.19V17.1428H98.8985V9.24682L87.4643 17.1428V22.2997H91.5361V40.7394C91.5361 45.1125 92.5112 45.8354 97.0101 45.8354H104.187V45.8382ZM117.13 45.8409V23.3383C117.13 22.9173 117.372 22.6182 117.737 22.6182H122.056C122.908 22.6182 123.028 22.7429 123.028 23.6374V45.8409H130.264V23.3383C130.264 22.9173 130.509 22.6182 130.933 22.6182H135.193C136.104 22.6182 136.227 22.7429 136.227 23.6374V45.8409H143.404V20.9066C143.404 18.3891 139.45 16.8299 136.654 16.8299C134.342 16.8299 131.787 17.4281 130.146 19.2864C128.502 17.3671 126.313 16.8299 123.88 16.8299C121.508 16.8299 119.499 17.2481 117.13 19.1674V17.1456H109.953V45.8382H117.13V45.8409ZM158.851 40.5622C157.033 40.5622 156.906 40.5622 156.906 38.7647V33.4333C156.906 31.6359 156.968 31.5777 158.792 31.5777H162.867V40.5649H158.851V40.5622ZM170.102 45.8382V22.2416C170.102 17.8657 169.06 17.1456 164.628 17.1456H157.634L150.165 22.3025H161.284C162.867 22.3025 162.867 22.3136 162.867 23.859V26.4208H154.841C150.525 26.4208 149.732 27.3237 149.732 31.5168V40.7422C149.732 45.1153 150.766 45.8382 155.206 45.8382H170.102ZM183.872 45.8409V23.3383C183.872 22.9173 184.113 22.6182 184.479 22.6182H188.798C189.649 22.6182 189.77 22.7401 189.77 23.6374V45.8409H197.006V20.8485C197.006 18.331 193.238 16.8326 190.439 16.8326C188.067 16.8326 186.241 17.2508 183.869 19.1701V17.1484H176.692V45.8409H183.872ZM213.391 10.1414C213.391 9.1222 213.695 8.88401 214.667 8.88401H216.963C217.938 8.88401 218.241 9.13605 218.241 10.1414V20.314L224.932 15.6971V7.50478C224.932 4.44719 223.522 3.84896 220.675 3.84896H210.047C207.201 3.84896 205.852 4.45827 205.852 7.50478C205.852 10.6122 205.855 13.7224 205.855 16.8299C205.855 19.2283 206.951 21.3248 209.32 21.3858C206.951 21.4467 204.424 23.3051 204.436 25.7007L204.5 40.0886C204.52 44.4035 205.959 45.8437 210.278 45.8437C214.423 45.8437 218.551 45.8382 222.695 45.8382C225.865 45.8382 227.439 44.9768 228.079 42.8277L230.954 46.1539L236.782 42.1325L228.405 32.4446V27.3569L225.652 29.2568L213.414 15.1017L213.391 10.1414ZM213.796 40.1495C212.34 40.1495 212.04 39.9695 212.034 38.3521L211.894 24.111L221.642 35.3914L221.706 38.3465C221.743 39.9639 221.403 40.144 219.944 40.144C217.89 40.144 215.842 40.1495 213.796 40.1495ZM257.647 45.8382V40.324H248.523C247.615 40.324 247.185 40.0221 247.185 39.0666V23.5599C247.185 22.5407 247.489 22.3025 248.461 22.3025H251.319C252.294 22.3025 252.597 22.5462 252.597 23.5599V30.6001L259.285 25.9832V20.8042C259.285 17.7466 257.886 17.1456 255.028 17.1456H244.263C241.408 17.1456 240.067 17.7466 240.067 20.8042V42.2405C240.067 45.2372 241.405 45.8382 244.263 45.8382H257.647ZM70.1488 24.0639C70.1488 25.8115 70.1488 27.5591 70.1488 29.3095C70.1628 30.902 70.3848 31.0709 72.0962 31.0709H74.2262C75.9347 31.0709 76.1595 30.902 76.1707 29.3095C76.1707 27.5619 76.1707 25.8143 76.1707 24.0639C76.1567 22.4714 75.9347 22.3025 74.2262 22.3025H72.0962C70.3848 22.3025 70.16 22.4687 70.1488 24.0639ZM70.1488 36.225V38.7647C70.1488 40.504 70.3314 40.684 72.0962 40.684H82.3023V45.8409H68.3869C63.9554 45.8409 62.9747 45.1153 62.9747 40.745C62.9747 34.5772 62.9747 28.4121 62.9747 22.2443C62.9747 17.8934 63.9273 17.1484 68.3869 17.1484H77.9355C82.395 17.1484 83.3476 17.8934 83.3476 22.2443V31.1318C83.3476 35.4828 82.395 36.2278 77.9355 36.2278H70.1488V36.225ZM277.435 24.0639C277.424 22.4714 277.199 22.3025 275.488 22.3025C274.78 22.3025 274.069 22.3025 273.361 22.3025C271.649 22.3025 271.427 22.4714 271.413 24.0639V38.9226C271.427 40.5151 271.649 40.684 273.361 40.684C274.069 40.684 274.78 40.684 275.488 40.684C277.199 40.684 277.421 40.5151 277.435 38.9226V24.0639ZM264.236 22.2416C264.236 17.8906 265.189 17.1456 269.651 17.1456C272.835 17.1456 276.016 17.1456 279.2 17.1456C283.662 17.1456 284.615 17.8906 284.615 22.2416V40.7422C284.615 45.0932 283.662 45.8382 279.2 45.8382C276.016 45.8382 272.835 45.8382 269.651 45.8382C265.189 45.8382 264.236 45.0932 264.236 40.7422V22.2416ZM56.3767 45.8382V15.6971L46.2661 22.6819V27.8721H48.9582V40.1412H44.0631C41.6998 40.1412 41.3261 40.0803 41.3261 38.2828V11.6951C41.3261 9.89767 41.7532 9.47947 44.1839 9.47947H55.3848V3.84619H41.0226C36.5293 3.84619 33.8457 5.05095 33.8457 9.47947V40.2603C33.8457 44.6916 36.948 45.8354 41.4469 45.8354C46.3223 45.8382 51.5041 45.8382 56.3767 45.8382Z" fill="#FF7B31"/>
</svg>
