<svg width="350" height="330" viewBox="0 0 350 330" fill="none" xmlns="http://www.w3.org/2000/svg">
<g clip-path="url(#clip0_437_481)">
<g clip-path="url(#clip1_437_481)">
<path fill-rule="evenodd" clip-rule="evenodd" d="M157.095 148.158L149 145V154.469H194.34V145L186.244 148.158L171.671 145L157.095 148.158ZM197.577 246V203.391H202L194.34 182.875H174.909V187.609L181.386 189.301V207.91L165.193 192.128V176.564H194.34V160.782H149V198.654L197.577 246ZM130.661 284.506V288.744H124.88C121.256 288.744 120.471 288.163 120.471 284.649V269.83H117.191V265.686L126.401 259.34V265.686H130.664V269.83H126.401V282.917C126.401 284.362 126.551 284.506 128.018 284.506H130.661ZM141.087 270.665V288.746H135.306V265.688H141.087V267.313C142.996 265.77 144.614 265.434 146.524 265.434C148.485 265.434 150.248 265.866 151.572 267.408C152.894 265.915 154.952 265.434 156.815 265.434C159.067 265.434 162.252 266.687 162.252 268.71V288.748H156.471V270.905C156.471 270.186 156.371 270.086 155.638 270.086H152.206C151.864 270.086 151.667 270.326 151.667 270.665V288.748H145.839V270.905C145.839 270.186 145.741 270.086 145.055 270.086H141.576C141.282 270.086 141.087 270.326 141.087 270.665ZM173.128 283.062C173.128 284.506 173.23 284.506 174.694 284.506V284.509H177.929V277.286H174.647C173.178 277.286 173.128 277.333 173.128 278.777V283.062ZM183.758 269.783V288.746H171.759C168.182 288.746 167.349 288.165 167.349 284.651V277.237C167.349 273.867 167.987 273.142 171.464 273.142H177.929V271.083C177.929 269.841 177.929 269.832 176.655 269.832H167.698L173.714 265.688H179.348C182.918 265.688 183.758 266.267 183.758 269.783ZM194.849 270.665V288.748H189.066V265.69H194.847V267.315C196.757 265.772 198.229 265.436 200.139 265.436C202.394 265.436 205.429 266.64 205.429 268.664V288.748H199.6V270.905C199.6 270.184 199.503 270.086 198.817 270.086H195.338C195.044 270.086 194.849 270.326 194.849 270.665ZM219.656 259.049C218.872 259.049 218.628 259.24 218.628 260.059L218.646 264.045L228.504 275.421L230.722 273.894V277.983L237.47 285.768L232.775 289L230.459 286.327C229.943 288.054 228.676 288.746 226.122 288.746C224.453 288.746 222.787 288.747 221.121 288.748C219.455 288.75 217.789 288.751 216.12 288.751C212.641 288.751 211.482 287.593 211.466 284.126L211.414 272.563C211.405 270.638 213.44 269.144 215.348 269.095C213.44 269.046 212.557 267.362 212.557 265.434C212.557 264.186 212.556 262.936 212.556 261.687C212.555 260.438 212.555 259.189 212.555 257.94C212.555 255.492 213.641 255.002 215.934 255.002H224.495C226.788 255.002 227.924 255.483 227.924 257.94V264.524L222.535 268.234V260.059C222.535 259.251 222.29 259.049 221.505 259.049H219.656ZM217.535 282.73C217.539 284.03 217.781 284.175 218.954 284.175C219.777 284.175 220.601 284.174 221.425 284.172C222.251 284.171 223.078 284.17 223.906 284.17C225.081 284.17 225.355 284.026 225.326 282.726L225.274 280.351L217.421 271.286L217.535 282.73ZM254.277 284.315V288.746H243.495C241.193 288.746 240.116 288.263 240.116 285.855V268.628C240.116 266.171 241.196 265.688 243.495 265.688H252.167C254.469 265.688 255.596 266.171 255.596 268.628V272.79L250.209 276.5V270.843C250.209 270.028 249.965 269.832 249.179 269.832H246.877C246.094 269.832 245.849 270.024 245.849 270.843V283.304C245.849 284.072 246.196 284.315 246.927 284.315H254.277ZM103.243 275.463V271.248C103.252 269.966 103.433 269.832 104.812 269.832H106.527C107.904 269.832 108.082 269.968 108.094 271.248V275.463C108.085 276.743 107.904 276.879 106.527 276.879H104.812C103.433 276.879 103.254 276.743 103.243 275.463ZM103.243 283.062V281.023H109.515C113.108 281.023 113.875 280.424 113.875 276.928V269.785C113.875 266.289 113.108 265.69 109.515 265.69H101.824C98.2314 265.69 97.4641 266.289 97.4641 269.785V284.653C97.4641 288.165 98.254 288.748 101.824 288.748H113.033V284.604H104.812C103.39 284.604 103.243 284.46 103.243 283.062ZM268.648 269.832C270.026 269.832 270.208 269.968 270.217 271.248V283.189C270.205 284.468 270.026 284.604 268.648 284.604H266.934C265.556 284.604 265.377 284.468 265.366 283.189V271.248C265.377 269.968 265.556 269.832 266.934 269.832H268.648ZM263.947 265.688C260.352 265.688 259.585 266.287 259.585 269.783V284.651C259.585 288.148 260.352 288.746 263.947 288.746H271.638C275.233 288.746 276 288.148 276 284.651V269.783C276 266.287 275.233 265.688 271.638 265.688H263.947ZM92.1492 264.524V288.746H92.0697C88.1678 288.746 84.0237 288.746 80.1229 288.744C76.499 288.744 74 287.825 74 284.264V259.527C74 255.968 76.1617 255 79.7811 255H91.3502V259.527H82.3276C80.3697 259.527 80.0256 259.863 80.0256 261.308V282.675C80.0256 284.119 80.3266 284.168 82.2303 284.168H86.1734V274.308H84.0049V270.137L92.1492 264.524Z" fill="#FF7B31"/>
</g>
</g>
<defs>
<clipPath id="clip0_437_481">
<rect width="350" height="330" fill="white"/>
</clipPath>
<clipPath id="clip1_437_481">
<rect width="202" height="144" fill="white" transform="translate(74 145)"/>
</clipPath>
</defs>
</svg>
