<svg width="335" height="182" viewBox="0 0 335 182" fill="none" xmlns="http://www.w3.org/2000/svg">
<path opacity="0.05" d="M63.4692 37.6627V32.9307H60.5077C58.8647 32.9307 58.6974 32.7692 58.6974 31.1571V16.551H63.4718V11.9258H58.6974V4.84384L48.3803 11.9258V16.551H52.0543V33.0897C52.0543 37.0119 52.9341 37.6603 56.9935 37.6603H63.4692V37.6627ZM75.1478 37.6652V17.4825C75.1478 17.105 75.3659 16.8367 75.6955 16.8367H79.5926C80.3609 16.8367 80.4699 16.9485 80.4699 17.7508V37.6652H86.9989V17.4825C86.9989 17.105 87.2195 16.8367 87.6023 16.8367H91.4462C92.2677 16.8367 92.3793 16.9485 92.3793 17.7508V37.6652H98.855V15.3016C98.855 13.0436 95.2875 11.6451 92.7647 11.6451C90.6779 11.6451 88.3731 12.1816 86.8924 13.8484C85.4091 12.127 83.4339 11.6451 81.2382 11.6451C79.0982 11.6451 77.2853 12.0202 75.1478 13.7416V11.9283H68.6721V37.6627H75.1478V37.6652ZM112.793 32.9307C111.152 32.9307 111.038 32.9307 111.038 31.3186V26.5368C111.038 24.9247 111.094 24.8725 112.74 24.8725H116.416V32.9332H112.793V32.9307ZM122.945 37.6627V16.4989C122.945 12.5741 122.004 11.9283 118.006 11.9283H111.695L104.955 16.5535H114.989C116.416 16.5535 116.416 16.5635 116.416 17.9495V20.2473H109.175C105.28 20.2473 104.565 21.0571 104.565 24.8179V33.0921C104.565 37.0144 105.498 37.6627 109.504 37.6627H122.945ZM135.369 37.6652V17.4825C135.369 17.105 135.587 16.8367 135.917 16.8367H139.814C140.582 16.8367 140.691 16.946 140.691 17.7508V37.6652H147.22V15.2494C147.22 12.9914 143.82 11.6476 141.295 11.6476C139.155 11.6476 137.507 12.0227 135.367 13.7441V11.9308H128.891V37.6652H135.369ZM162.005 5.64619C162.005 4.73207 162.279 4.51844 163.156 4.51844H165.227C166.107 4.51844 166.381 4.74449 166.381 5.64619V14.77L172.418 10.6291V3.2814C172.418 0.539038 171.145 0.00248645 168.577 0.00248645H158.987C156.419 0.00248645 155.202 0.548974 155.202 3.2814C155.202 6.06847 155.204 8.85802 155.204 11.6451C155.204 13.7963 156.193 15.6767 158.331 15.7313C156.193 15.786 153.914 17.4527 153.924 19.6014L153.982 32.5059C154 36.376 155.298 37.6677 159.195 37.6677C162.935 37.6677 166.66 37.6627 170.4 37.6627C173.26 37.6627 174.68 36.8902 175.258 34.9626L177.852 37.9459L183.11 34.3391L175.552 25.65V21.0869L173.067 22.7909L162.025 10.0951L162.005 5.64619ZM162.37 32.5606C161.056 32.5606 160.785 32.3991 160.78 30.9484L160.653 18.1756L169.449 28.293L169.507 30.9435C169.54 32.3941 169.234 32.5556 167.918 32.5556C166.064 32.5556 164.216 32.5606 162.37 32.5606ZM201.937 37.6627V32.7171H193.704C192.885 32.7171 192.497 32.4463 192.497 31.5893V17.6813C192.497 16.7671 192.771 16.5535 193.648 16.5535H196.227C197.107 16.5535 197.38 16.7721 197.38 17.6813V23.9957L203.415 19.8548V15.2097C203.415 12.4673 202.152 11.9283 199.574 11.9283H189.86C187.284 11.9283 186.074 12.4673 186.074 15.2097V34.436C186.074 37.1237 187.281 37.6627 189.86 37.6627H201.937ZM32.7564 18.1334C32.7564 19.7008 32.7564 21.2682 32.7564 22.8381C32.7691 24.2664 32.9694 24.4179 34.5135 24.4179H36.4355C37.9771 24.4179 38.1799 24.2664 38.1901 22.8381C38.1901 21.2707 38.1901 19.7033 38.1901 18.1334C38.1774 16.705 37.9771 16.5535 36.4355 16.5535H34.5135C32.9694 16.5535 32.7666 16.7026 32.7564 18.1334ZM32.7564 29.0407V31.3186C32.7564 32.8785 32.9212 33.04 34.5135 33.04H43.7226V37.6652H31.1667C27.1681 37.6652 26.2832 37.0144 26.2832 33.0946C26.2832 27.5627 26.2832 22.0333 26.2832 16.5014C26.2832 12.599 27.1428 11.9308 31.1667 11.9308H39.7824C43.8062 11.9308 44.6658 12.599 44.6658 16.5014V24.4726C44.6658 28.375 43.8062 29.0432 39.7824 29.0432H32.7564V29.0407ZM219.792 18.1334C219.782 16.705 219.579 16.5535 218.035 16.5535C217.396 16.5535 216.754 16.5535 216.115 16.5535C214.571 16.5535 214.371 16.705 214.358 18.1334V31.4601C214.371 32.8885 214.571 33.04 216.115 33.04C216.754 33.04 217.396 33.04 218.035 33.04C219.579 33.04 219.779 32.8885 219.792 31.4601V18.1334ZM207.882 16.4989C207.882 12.5965 208.742 11.9283 212.768 11.9283C215.641 11.9283 218.511 11.9283 221.384 11.9283C225.411 11.9283 226.27 12.5965 226.27 16.4989V33.0921C226.27 36.9945 225.411 37.6627 221.384 37.6627C218.511 37.6627 215.641 37.6627 212.768 37.6627C208.742 37.6627 207.882 36.9945 207.882 33.0921V16.4989ZM20.3298 37.6627V10.6291L11.207 16.8938V21.5489H13.636V32.5531H9.21916C7.08679 32.5531 6.74956 32.4985 6.74956 30.8863V7.03972C6.74956 5.42759 7.13496 5.05251 9.32819 5.05251H19.4348V0H6.47573C2.42143 0 0 1.08056 0 5.05251V32.6599C0 36.6344 2.79922 37.6603 6.85859 37.6603C11.2577 37.6627 15.9332 37.6627 20.3298 37.6627Z" fill="white"/>
<path opacity="0.05" d="M237.819 111.798V107.066H236.067C235.095 107.066 234.996 106.904 234.996 105.292V90.6863H237.82V86.0611H234.996V78.9791L228.892 86.0611V90.6863H231.066V107.225C231.066 111.147 231.586 111.796 233.988 111.796H237.819V111.798ZM244.728 111.801V91.6178C244.728 91.2403 244.857 90.972 245.052 90.972H247.358C247.812 90.972 247.877 91.0838 247.877 91.8861V111.801H251.739V91.6178C251.739 91.2403 251.87 90.972 252.096 90.972H254.37C254.856 90.972 254.922 91.0838 254.922 91.8861V111.801H258.754V89.4369C258.754 87.1789 256.643 85.7804 255.15 85.7804C253.916 85.7804 252.552 86.3169 251.676 87.9837C250.799 86.2623 249.63 85.7804 248.331 85.7804C247.065 85.7804 245.993 86.1555 244.728 87.8769V86.0636H240.897V111.798H244.728V111.801ZM266.999 107.066C266.029 107.066 265.961 107.066 265.961 105.454V100.672C265.961 99.06 265.994 99.0078 266.968 99.0078H269.143V107.068H266.999V107.066ZM273.006 111.798V90.6342C273.006 86.7094 272.449 86.0636 270.084 86.0636H266.35L262.363 90.6888H268.298C269.143 90.6888 269.143 90.6987 269.143 92.0848V94.3825H264.859C262.555 94.3825 262.132 95.1923 262.132 98.9532V107.227C262.132 111.15 262.684 111.798 265.054 111.798H273.006ZM280.356 111.801V91.6178C280.356 91.2403 280.485 90.972 280.68 90.972H282.985C283.44 90.972 283.505 91.0813 283.505 91.8861V111.801H287.367V89.3847C287.367 87.1267 285.356 85.7829 283.862 85.7829C282.595 85.7829 281.62 86.158 280.354 87.8794V86.066H276.523V111.801H280.356ZM296.114 79.7815C296.114 78.8674 296.276 78.6537 296.795 78.6537H298.021C298.541 78.6537 298.703 78.8798 298.703 79.7815V88.9053L302.275 84.7644V77.4167C302.275 74.6743 301.522 74.1378 300.002 74.1378H294.329C292.809 74.1378 292.089 74.6843 292.089 77.4167C292.089 80.2038 292.091 82.9933 292.091 85.7804C292.091 87.9315 292.676 89.812 293.94 89.8666C292.676 89.9212 291.327 91.588 291.333 93.7367L291.368 106.641C291.378 110.511 292.146 111.803 294.452 111.803C296.664 111.803 298.868 111.798 301.081 111.798C302.773 111.798 303.613 111.025 303.955 109.098L305.489 112.081L308.6 108.474L304.129 99.7853V95.2221L302.659 96.9262L296.126 84.2304L296.114 79.7815ZM296.33 106.696C295.553 106.696 295.392 106.534 295.389 105.084L295.314 92.3109L300.518 102.428L300.553 105.079C300.572 106.529 300.391 106.691 299.612 106.691C298.516 106.691 297.422 106.696 296.33 106.696ZM319.738 111.798V106.852H314.868C314.383 106.852 314.154 106.582 314.154 105.725V91.8165C314.154 90.9024 314.316 90.6888 314.835 90.6888H316.36C316.881 90.6888 317.043 90.9074 317.043 91.8165V98.1309L320.613 93.9901V89.345C320.613 86.6026 319.866 86.0636 318.34 86.0636H312.594C311.069 86.0636 310.354 86.6026 310.354 89.345V108.571C310.354 111.259 311.068 111.798 312.594 111.798H319.738ZM219.649 92.2686C219.649 93.8361 219.649 95.4035 219.649 96.9734C219.656 98.4017 219.775 98.5532 220.688 98.5532H221.825C222.737 98.5532 222.857 98.4017 222.863 96.9734C222.863 95.406 222.863 93.8385 222.863 92.2686C222.856 90.8403 222.737 90.6888 221.825 90.6888H220.688C219.775 90.6888 219.655 90.8378 219.649 92.2686ZM219.649 103.176V105.454C219.649 107.014 219.746 107.175 220.688 107.175H226.136V111.801H218.708C216.343 111.801 215.819 111.15 215.819 107.23C215.819 101.698 215.819 96.1686 215.819 90.6366C215.819 86.7342 216.328 86.066 218.708 86.066H223.805C226.186 86.066 226.694 86.7342 226.694 90.6366V98.6079C226.694 102.51 226.186 103.178 223.805 103.178H219.649V103.176ZM330.302 92.2686C330.296 90.8403 330.176 90.6888 329.262 90.6888C328.884 90.6888 328.505 90.6888 328.127 90.6888C327.213 90.6888 327.095 90.8403 327.087 92.2686V105.595C327.095 107.024 327.213 107.175 328.127 107.175C328.505 107.175 328.884 107.175 329.262 107.175C330.176 107.175 330.294 107.024 330.302 105.595V92.2686ZM323.256 90.6342C323.256 86.7318 323.764 86.0636 326.147 86.0636C327.846 86.0636 329.544 86.0636 331.244 86.0636C333.626 86.0636 334.134 86.7318 334.134 90.6342V107.227C334.134 111.13 333.626 111.798 331.244 111.798C329.544 111.798 327.846 111.798 326.147 111.798C323.764 111.798 323.256 111.13 323.256 107.227V90.6342ZM212.297 111.798V84.7644L206.9 91.0291V95.6842H208.337V106.688H205.724C204.462 106.688 204.263 106.634 204.263 105.022V81.175C204.263 79.5629 204.491 79.1878 205.788 79.1878H211.767V74.1353H204.101C201.702 74.1353 200.27 75.2158 200.27 79.1878V106.795C200.27 110.77 201.926 111.796 204.327 111.796C206.93 111.798 209.696 111.798 212.297 111.798Z" fill="white"/>
<path opacity="0.05" d="M109.145 181.754V177.635H106.184C104.54 177.635 104.373 177.494 104.373 176.091V163.379H109.148V159.353H104.373V153.189L94.0561 159.353V163.379H97.7301V177.773C97.7301 181.187 98.6099 181.751 102.669 181.751H109.145V181.754ZM120.824 181.756V164.189C120.824 163.861 121.042 163.627 121.371 163.627H125.268C126.037 163.627 126.146 163.724 126.146 164.423V181.756H132.675V164.189C132.675 163.861 132.895 163.627 133.278 163.627H137.122C137.943 163.627 138.055 163.724 138.055 164.423V181.756H144.531V162.291C144.531 160.326 140.963 159.109 138.44 159.109C136.354 159.109 134.049 159.576 132.568 161.026C131.085 159.528 129.11 159.109 126.914 159.109C124.774 159.109 122.961 159.435 120.824 160.933V159.355H114.348V181.754H120.824V181.756ZM158.469 177.635C156.828 177.635 156.714 177.635 156.714 176.232V172.07C156.714 170.667 156.77 170.621 158.415 170.621H162.092V177.637H158.469V177.635ZM168.621 181.754V163.333C168.621 159.917 167.68 159.355 163.682 159.355H157.371L150.631 163.381H160.664C162.092 163.381 162.092 163.389 162.092 164.596V166.596H154.85C150.956 166.596 150.241 167.3 150.241 170.574V177.775C150.241 181.189 151.174 181.754 155.18 181.754H168.621ZM181.045 181.756V164.189C181.045 163.861 181.263 163.627 181.593 163.627H185.49C186.258 163.627 186.367 163.722 186.367 164.423V181.756H192.896V162.246C192.896 160.28 189.496 159.111 186.97 159.111C184.83 159.111 183.182 159.437 181.042 160.935V159.357H174.567V181.756H181.045ZM207.681 153.887C207.681 153.092 207.954 152.906 208.832 152.906H210.903C211.783 152.906 212.057 153.102 212.057 153.887V161.828L218.094 158.224V151.829C218.094 149.442 216.821 148.975 214.253 148.975H204.663C202.095 148.975 200.878 149.451 200.878 151.829C200.878 154.255 200.88 156.683 200.88 159.109C200.88 160.981 201.869 162.617 204.007 162.665C201.869 162.713 199.59 164.163 199.6 166.033L199.658 177.265C199.676 180.634 200.974 181.758 204.871 181.758C208.611 181.758 212.336 181.754 216.076 181.754C218.936 181.754 220.356 181.081 220.934 179.403L223.528 182L228.786 178.861L221.228 171.298V167.326L218.743 168.81L207.701 157.759L207.681 153.887ZM208.046 177.313C206.732 177.313 206.461 177.172 206.456 175.91L206.329 164.792L215.125 173.598L215.183 175.905C215.216 177.168 214.909 177.308 213.593 177.308C211.74 177.308 209.891 177.313 208.046 177.313ZM247.612 181.754V177.449H239.38C238.561 177.449 238.173 177.213 238.173 176.467V164.362C238.173 163.567 238.447 163.381 239.324 163.381H241.902C242.782 163.381 243.056 163.571 243.056 164.362V169.858L249.091 166.254V162.211C249.091 159.824 247.828 159.355 245.249 159.355H235.536C232.96 159.355 231.75 159.824 231.75 162.211V178.945C231.75 181.284 232.957 181.754 235.536 181.754H247.612ZM78.4322 164.756C78.4322 166.12 78.4322 167.484 78.4322 168.851C78.4449 170.094 78.6452 170.226 80.1893 170.226H82.1113C83.6529 170.226 83.8557 170.094 83.8658 168.851C83.8658 167.486 83.8658 166.122 83.8658 164.756C83.8532 163.513 83.6529 163.381 82.1113 163.381H80.1893C78.6452 163.381 78.4424 163.51 78.4322 164.756ZM78.4322 174.249V176.232C78.4322 177.589 78.597 177.73 80.1893 177.73H89.3983V181.756H76.8424C72.8439 181.756 71.959 181.189 71.959 177.778C71.959 172.963 71.959 168.15 71.959 163.335C71.959 159.939 72.8186 159.357 76.8424 159.357H85.4581C89.482 159.357 90.3416 159.939 90.3416 163.335V170.273C90.3416 173.67 89.482 174.251 85.4581 174.251H78.4322V174.249ZM265.468 164.756C265.458 163.513 265.255 163.381 263.711 163.381C263.072 163.381 262.43 163.381 261.791 163.381C260.247 163.381 260.047 163.513 260.034 164.756V176.355C260.047 177.598 260.247 177.73 261.791 177.73C262.43 177.73 263.072 177.73 263.711 177.73C265.255 177.73 265.455 177.598 265.468 176.355V164.756ZM253.558 163.333C253.558 159.937 254.418 159.355 258.444 159.355C261.317 159.355 264.187 159.355 267.06 159.355C271.086 159.355 271.946 159.937 271.946 163.333V177.775C271.946 181.172 271.086 181.754 267.06 181.754C264.187 181.754 261.317 181.754 258.444 181.754C254.418 181.754 253.558 181.172 253.558 177.775V163.333ZM66.0056 181.754V158.224L56.8828 163.677V167.729H59.3118V177.306H54.8949C52.7626 177.306 52.4253 177.259 52.4253 175.856V155.1C52.4253 153.697 52.8107 153.371 55.004 153.371H65.1106V148.973H52.1515C48.0972 148.973 45.6758 149.913 45.6758 153.371V177.399C45.6758 180.858 48.475 181.751 52.5344 181.751C56.9335 181.754 61.609 181.754 66.0056 181.754Z" fill="white"/>
</svg>
