<svg width="319" height="238" viewBox="0 0 319 238" fill="none" xmlns="http://www.w3.org/2000/svg">
<path d="M95.19 32.8094L42.907 191.849H0.790039L72.2172 0H99.0188L95.19 32.8094ZM138.627 191.849L86.2121 32.8094L81.9872 0H109.053L180.876 191.849H138.627ZM136.251 120.433V151.398H34.7212V120.433H136.251Z" fill="black"/>
<path d="M273.428 159.699V96.1882C273.428 91.6204 272.68 87.7114 271.183 84.4612C269.687 81.1231 267.354 78.5318 264.186 76.6871C261.105 74.8424 257.1 73.92 252.171 73.92C247.946 73.92 244.294 74.6667 241.213 76.16C238.132 77.5655 235.756 79.6298 234.083 82.353C232.411 84.9882 231.575 88.1067 231.575 91.7082H193.551C193.551 85.6471 194.959 79.8933 197.776 74.4471C200.592 69.0008 204.685 64.2133 210.054 60.0847C215.423 55.8682 221.805 52.5741 229.198 50.2024C236.68 47.8306 245.042 46.6447 254.284 46.6447C265.374 46.6447 275.232 48.4894 283.858 52.1788C292.484 55.8682 299.261 61.4024 304.19 68.7812C309.207 76.16 311.716 85.3835 311.716 96.4518V157.459C311.716 165.277 312.2 171.689 313.168 176.696C314.136 181.616 315.545 185.92 317.393 189.609V191.849H278.973C277.125 187.984 275.716 183.153 274.748 177.355C273.868 171.47 273.428 165.584 273.428 159.699ZM278.445 105.016L278.709 126.494H257.452C252.435 126.494 248.078 127.065 244.382 128.207C240.685 129.349 237.648 130.974 235.272 133.082C232.895 135.103 231.135 137.475 229.991 140.198C228.934 142.921 228.406 145.907 228.406 149.158C228.406 152.408 229.154 155.351 230.651 157.986C232.147 160.533 234.303 162.554 237.12 164.047C239.937 165.453 243.237 166.155 247.022 166.155C252.743 166.155 257.716 165.013 261.941 162.729C266.166 160.446 269.423 157.635 271.711 154.296C274.088 150.958 275.32 147.796 275.408 144.809L285.442 160.885C284.034 164.486 282.098 168.22 279.633 172.085C277.257 175.95 274.22 179.595 270.523 183.021C266.826 186.359 262.381 189.126 257.188 191.322C251.995 193.431 245.834 194.485 238.704 194.485C229.639 194.485 221.409 192.684 214.015 189.082C206.71 185.393 200.9 180.342 196.588 173.929C192.363 167.429 190.25 160.05 190.25 151.793C190.25 144.326 191.658 137.694 194.475 131.896C197.292 126.099 201.429 121.224 206.886 117.271C212.431 113.23 219.34 110.199 227.614 108.179C235.888 106.071 245.482 105.016 256.396 105.016H278.445Z" fill="black"/>
<path d="M3.83387 231.576H2.46614V220.211H6.60188C7.65481 220.211 8.45808 220.499 9.01168 221.074C9.56529 221.649 9.84209 222.453 9.84209 223.484C9.84209 224.407 9.60328 225.145 9.12566 225.698C8.64804 226.252 7.95332 226.572 7.04151 226.659L9.93978 231.576H8.40923L5.64122 226.724H3.83387V231.576ZM6.56932 225.568C7.14463 225.568 7.58968 225.427 7.90448 225.145C8.23013 224.852 8.39295 224.439 8.39295 223.907V223.061C8.39295 222.529 8.23013 222.122 7.90448 221.839C7.58968 221.546 7.14463 221.4 6.56932 221.4H3.83387V225.568H6.56932ZM15.6486 231.772C15.0624 231.772 14.5305 231.669 14.0529 231.462C13.5861 231.256 13.1845 230.963 12.848 230.583C12.5223 230.192 12.2727 229.731 12.099 229.199C11.9253 228.656 11.8385 228.048 11.8385 227.375C11.8385 226.713 11.9253 226.111 12.099 225.568C12.2727 225.025 12.5223 224.564 12.848 224.184C13.1845 223.793 13.5861 223.495 14.0529 223.289C14.5305 223.082 15.0624 222.979 15.6486 222.979C16.2347 222.979 16.7612 223.082 17.228 223.289C17.7056 223.495 18.1072 223.793 18.4329 224.184C18.7694 224.564 19.0245 225.025 19.1981 225.568C19.3718 226.111 19.4587 226.713 19.4587 227.375C19.4587 228.048 19.3718 228.656 19.1981 229.199C19.0245 229.731 18.7694 230.192 18.4329 230.583C18.1072 230.963 17.7056 231.256 17.228 231.462C16.7612 231.669 16.2347 231.772 15.6486 231.772ZM15.6486 230.648C16.3758 230.648 16.962 230.431 17.4071 229.997C17.8521 229.563 18.0746 228.89 18.0746 227.978V226.773C18.0746 225.861 17.8521 225.188 17.4071 224.754C16.962 224.32 16.3758 224.103 15.6486 224.103C14.9213 224.103 14.3351 224.32 13.8901 224.754C13.445 225.188 13.2225 225.861 13.2225 226.773V227.978C13.2225 228.89 13.445 229.563 13.8901 229.997C14.3351 230.431 14.9213 230.648 15.6486 230.648ZM22.0738 219.527H23.3764V224.542H23.4415C23.9842 223.5 24.8472 222.979 26.0304 222.979C27.0616 222.979 27.8649 223.365 28.4402 224.135C29.0264 224.906 29.3195 225.986 29.3195 227.375C29.3195 228.765 29.0264 229.845 28.4402 230.616C27.8649 231.386 27.0616 231.772 26.0304 231.772C24.8472 231.772 23.9842 231.251 23.4415 230.209H23.3764V231.576H22.0738V219.527ZM25.5256 230.616C26.2855 230.616 26.8717 230.388 27.2841 229.932C27.7075 229.465 27.9192 228.852 27.9192 228.092V226.659C27.9192 225.899 27.7075 225.291 27.2841 224.835C26.8717 224.369 26.2855 224.135 25.5256 224.135C25.2326 224.135 24.9558 224.173 24.6952 224.249C24.4347 224.325 24.2068 224.439 24.0114 224.591C23.816 224.732 23.6586 224.911 23.5392 225.129C23.4306 225.335 23.3764 225.579 23.3764 225.861V228.89C23.3764 229.172 23.4306 229.422 23.5392 229.639C23.6586 229.845 23.816 230.024 24.0114 230.176C24.2068 230.317 24.4347 230.426 24.6952 230.502C24.9558 230.578 25.2326 230.616 25.5256 230.616ZM35.1748 231.772C34.5886 231.772 34.0567 231.669 33.5791 231.462C33.1123 231.256 32.7107 230.963 32.3742 230.583C32.0485 230.192 31.7989 229.731 31.6252 229.199C31.4515 228.656 31.3647 228.048 31.3647 227.375C31.3647 226.713 31.4515 226.111 31.6252 225.568C31.7989 225.025 32.0485 224.564 32.3742 224.184C32.7107 223.793 33.1123 223.495 33.5791 223.289C34.0567 223.082 34.5886 222.979 35.1748 222.979C35.7609 222.979 36.2874 223.082 36.7542 223.289C37.2318 223.495 37.6334 223.793 37.9591 224.184C38.2956 224.564 38.5507 225.025 38.7243 225.568C38.898 226.111 38.9849 226.713 38.9849 227.375C38.9849 228.048 38.898 228.656 38.7243 229.199C38.5507 229.731 38.2956 230.192 37.9591 230.583C37.6334 230.963 37.2318 231.256 36.7542 231.462C36.2874 231.669 35.7609 231.772 35.1748 231.772ZM35.1748 230.648C35.9021 230.648 36.4882 230.431 36.9333 229.997C37.3783 229.563 37.6009 228.89 37.6009 227.978V226.773C37.6009 225.861 37.3783 225.188 36.9333 224.754C36.4882 224.32 35.9021 224.103 35.1748 224.103C34.4475 224.103 33.8613 224.32 33.4163 224.754C32.9712 225.188 32.7487 225.861 32.7487 226.773V227.978C32.7487 228.89 32.9712 229.563 33.4163 229.997C33.8613 230.431 34.4475 230.648 35.1748 230.648ZM45.3449 231.576C44.7045 231.576 44.2323 231.397 43.9284 231.039C43.6353 230.681 43.4887 230.219 43.4887 229.655V224.282H40.6882V223.175H42.7723C43.0545 223.175 43.2499 223.12 43.3585 223.012C43.4779 222.892 43.5376 222.692 43.5376 222.409V220.211H44.7913V223.175H48.6177V224.282H44.7913V230.469H48.6177V231.576H45.3449ZM54.701 231.772C54.1148 231.772 53.5829 231.669 53.1053 231.462C52.6385 231.256 52.2369 230.963 51.9004 230.583C51.5748 230.192 51.3251 229.731 51.1514 229.199C50.9777 228.656 50.8909 228.048 50.8909 227.375C50.8909 226.713 50.9777 226.111 51.1514 225.568C51.3251 225.025 51.5748 224.564 51.9004 224.184C52.2369 223.793 52.6385 223.495 53.1053 223.289C53.5829 223.082 54.1148 222.979 54.701 222.979C55.2872 222.979 55.8136 223.082 56.2804 223.289C56.758 223.495 57.1596 223.793 57.4853 224.184C57.8218 224.564 58.0769 225.025 58.2506 225.568C58.4242 226.111 58.5111 226.713 58.5111 227.375C58.5111 228.048 58.4242 228.656 58.2506 229.199C58.0769 229.731 57.8218 230.192 57.4853 230.583C57.1596 230.963 56.758 231.256 56.2804 231.462C55.8136 231.669 55.2872 231.772 54.701 231.772ZM54.701 230.648C55.4283 230.648 56.0144 230.431 56.4595 229.997C56.9045 229.563 57.1271 228.89 57.1271 227.978V226.773C57.1271 225.861 56.9045 225.188 56.4595 224.754C56.0144 224.32 55.4283 224.103 54.701 224.103C53.9737 224.103 53.3875 224.32 52.9425 224.754C52.4974 225.188 52.2749 225.861 52.2749 226.773V227.978C52.2749 228.89 52.4974 229.563 52.9425 229.997C53.3875 230.431 53.9737 230.648 54.701 230.648Z" fill="#262626"/>
<path d="M113.997 230.469H116.456V224.282H113.997V223.175H117.758V225.291H117.84C118.013 224.629 118.339 224.114 118.817 223.744C119.305 223.365 119.924 223.175 120.673 223.175H121.845V224.477H120.266C119.517 224.477 118.909 224.694 118.442 225.129C117.986 225.563 117.758 226.133 117.758 226.838V230.469H121.015V231.576H113.997V230.469ZM127.538 231.772C126.93 231.772 126.382 231.669 125.893 231.462C125.415 231.256 125.003 230.963 124.656 230.583C124.319 230.192 124.059 229.731 123.874 229.199C123.69 228.656 123.597 228.054 123.597 227.392C123.597 226.719 123.69 226.111 123.874 225.568C124.069 225.025 124.335 224.564 124.672 224.184C125.008 223.793 125.41 223.495 125.877 223.289C126.354 223.082 126.881 222.979 127.456 222.979C128.021 222.979 128.531 223.082 128.987 223.289C129.454 223.495 129.85 223.782 130.175 224.152C130.501 224.51 130.751 224.939 130.924 225.438C131.098 225.937 131.185 226.485 131.185 227.082V227.701H124.965V228.092C124.965 228.461 125.025 228.803 125.144 229.118C125.264 229.432 125.432 229.704 125.649 229.932C125.877 230.16 126.148 230.339 126.463 230.469C126.789 230.589 127.147 230.648 127.538 230.648C128.102 230.648 128.591 230.518 129.003 230.257C129.416 229.997 129.73 229.639 129.947 229.183L130.908 229.834C130.658 230.399 130.241 230.865 129.654 231.234C129.079 231.593 128.373 231.772 127.538 231.772ZM127.456 224.054C127.098 224.054 126.767 224.119 126.463 224.249C126.159 224.38 125.893 224.559 125.665 224.787C125.448 225.015 125.274 225.286 125.144 225.601C125.025 225.905 124.965 226.241 124.965 226.61V226.724H129.785V226.545C129.785 226.176 129.725 225.84 129.605 225.536C129.497 225.232 129.34 224.971 129.133 224.754C128.938 224.526 128.694 224.352 128.401 224.233C128.118 224.114 127.804 224.054 127.456 224.054ZM141.404 232.537C141.404 233.384 141.051 234.008 140.346 234.41C139.64 234.822 138.582 235.028 137.17 235.028C135.814 235.028 134.837 234.849 134.24 234.491C133.653 234.133 133.36 233.617 133.36 232.944C133.36 232.488 133.48 232.135 133.719 231.886C133.957 231.636 134.294 231.452 134.728 231.332V231.137C134.489 231.017 134.305 230.865 134.174 230.681C134.044 230.496 133.979 230.263 133.979 229.981C133.979 229.546 134.12 229.221 134.402 229.004C134.696 228.787 135.059 228.624 135.493 228.515V228.45C134.972 228.222 134.565 227.886 134.272 227.441C133.99 226.996 133.849 226.475 133.849 225.877C133.849 225.454 133.925 225.063 134.077 224.705C134.229 224.347 134.446 224.043 134.728 223.793C135.021 223.533 135.369 223.332 135.77 223.191C136.172 223.05 136.617 222.979 137.105 222.979C137.735 222.979 138.289 223.093 138.766 223.321V223.175C138.766 222.849 138.842 222.578 138.994 222.36C139.146 222.143 139.407 222.035 139.776 222.035H141.322V223.175H139.434V223.744C139.738 224.005 139.971 224.314 140.134 224.673C140.297 225.031 140.378 225.432 140.378 225.877C140.378 226.301 140.297 226.692 140.134 227.05C139.982 227.408 139.765 227.717 139.483 227.978C139.2 228.228 138.853 228.423 138.44 228.564C138.039 228.705 137.594 228.776 137.105 228.776C136.964 228.776 136.829 228.77 136.698 228.759C136.568 228.749 136.438 228.732 136.307 228.711C136.177 228.732 136.042 228.77 135.9 228.825C135.759 228.868 135.629 228.933 135.51 229.02C135.39 229.096 135.293 229.188 135.217 229.297C135.141 229.405 135.103 229.53 135.103 229.671C135.103 229.921 135.227 230.089 135.477 230.176C135.727 230.252 136.052 230.29 136.454 230.29H138.31C139.396 230.29 140.183 230.496 140.671 230.909C141.16 231.31 141.404 231.853 141.404 232.537ZM140.183 232.602C140.183 232.266 140.047 231.994 139.776 231.788C139.504 231.593 139.032 231.495 138.359 231.495H135.445C134.88 231.723 134.598 232.103 134.598 232.635C134.598 233.004 134.744 233.319 135.037 233.579C135.331 233.85 135.819 233.986 136.503 233.986H137.773C138.533 233.986 139.124 233.867 139.548 233.628C139.971 233.4 140.183 233.058 140.183 232.602ZM137.105 227.766C137.757 227.766 138.234 227.614 138.538 227.31C138.853 227.006 139.01 226.605 139.01 226.105V225.633C139.01 225.134 138.853 224.738 138.538 224.445C138.234 224.141 137.757 223.989 137.105 223.989C136.454 223.989 135.976 224.141 135.672 224.445C135.369 224.738 135.217 225.134 135.217 225.633V226.105C135.217 226.605 135.369 227.006 135.672 227.31C135.976 227.614 136.454 227.766 137.105 227.766ZM148.904 230.209H148.839C148.752 230.415 148.643 230.616 148.513 230.811C148.383 230.996 148.22 231.158 148.024 231.3C147.84 231.441 147.617 231.555 147.357 231.641C147.096 231.728 146.792 231.772 146.445 231.772C145.566 231.772 144.86 231.495 144.328 230.941C143.796 230.377 143.531 229.584 143.531 228.564V223.175H144.833V228.336C144.833 229.107 145.001 229.682 145.338 230.062C145.674 230.431 146.168 230.616 146.82 230.616C147.08 230.616 147.335 230.583 147.585 230.518C147.835 230.453 148.057 230.355 148.252 230.225C148.448 230.095 148.605 229.932 148.725 229.736C148.844 229.53 148.904 229.286 148.904 229.004V223.175H150.206V231.576H148.904V230.209ZM153.098 230.469H156.029V220.635H153.098V219.527H157.332V230.469H160.263V231.576H153.098V230.469ZM169.619 231.576C169.108 231.576 168.745 231.446 168.528 231.186C168.311 230.925 168.175 230.599 168.121 230.209H168.039C167.855 230.697 167.556 231.082 167.144 231.365C166.742 231.636 166.199 231.772 165.515 231.772C164.636 231.772 163.936 231.544 163.415 231.088C162.894 230.632 162.633 230.008 162.633 229.215C162.633 228.434 162.916 227.831 163.48 227.408C164.055 226.985 164.978 226.773 166.248 226.773H168.039V225.943C168.039 225.324 167.866 224.863 167.518 224.559C167.171 224.244 166.677 224.086 166.036 224.086C165.472 224.086 165.011 224.2 164.652 224.428C164.294 224.645 164.007 224.944 163.789 225.324L162.91 224.673C163.019 224.455 163.165 224.244 163.35 224.038C163.534 223.831 163.762 223.652 164.034 223.5C164.305 223.337 164.614 223.213 164.962 223.126C165.309 223.028 165.695 222.979 166.118 222.979C167.106 222.979 167.887 223.229 168.463 223.728C169.049 224.228 169.342 224.922 169.342 225.812V230.437H170.514V231.576H169.619ZM165.743 230.681C166.08 230.681 166.384 230.643 166.655 230.567C166.937 230.48 167.182 230.371 167.388 230.241C167.594 230.1 167.752 229.937 167.86 229.753C167.979 229.557 168.039 229.351 168.039 229.134V227.75H166.248C165.467 227.75 164.897 227.859 164.538 228.076C164.18 228.293 164.001 228.608 164.001 229.02V229.362C164.001 229.796 164.153 230.127 164.457 230.355C164.772 230.572 165.201 230.681 165.743 230.681ZM172.576 230.469H175.034V224.282H172.576V223.175H176.337V225.291H176.418C176.592 224.629 176.918 224.114 177.395 223.744C177.884 223.365 178.502 223.175 179.251 223.175H180.424V224.477H178.844C178.095 224.477 177.487 224.694 177.021 225.129C176.565 225.563 176.337 226.133 176.337 226.838V230.469H179.593V231.576H172.576V230.469ZM182.55 233.823L188.217 219.202H189.389L183.723 233.823H182.55ZM201.49 231.576V223.175H202.695V224.152H202.76C202.891 223.826 203.075 223.549 203.314 223.321C203.553 223.093 203.906 222.979 204.372 222.979C204.861 222.979 205.225 223.104 205.463 223.354C205.702 223.593 205.849 223.907 205.903 224.298H205.952C206.104 223.918 206.321 223.603 206.603 223.354C206.885 223.104 207.276 222.979 207.775 222.979C208.459 222.979 208.915 223.218 209.143 223.696C209.382 224.173 209.501 224.857 209.501 225.747V231.576H208.297V225.959C208.297 225.242 208.221 224.749 208.069 224.477C207.927 224.195 207.661 224.054 207.271 224.054C206.923 224.054 206.641 224.168 206.424 224.396C206.207 224.613 206.098 224.949 206.098 225.405V231.576H204.893V225.959C204.893 225.242 204.817 224.749 204.666 224.477C204.524 224.195 204.264 224.054 203.884 224.054C203.537 224.054 203.249 224.168 203.021 224.396C202.804 224.613 202.695 224.949 202.695 225.405V231.576H201.49ZM215.406 231.772C214.798 231.772 214.25 231.669 213.761 231.462C213.283 231.256 212.871 230.963 212.524 230.583C212.187 230.192 211.927 229.731 211.742 229.199C211.557 228.656 211.465 228.054 211.465 227.392C211.465 226.719 211.557 226.111 211.742 225.568C211.937 225.025 212.203 224.564 212.54 224.184C212.876 223.793 213.278 223.495 213.745 223.289C214.222 223.082 214.749 222.979 215.324 222.979C215.889 222.979 216.399 223.082 216.855 223.289C217.321 223.495 217.718 223.782 218.043 224.152C218.369 224.51 218.619 224.939 218.792 225.438C218.966 225.937 219.053 226.485 219.053 227.082V227.701H212.833V228.092C212.833 228.461 212.893 228.803 213.012 229.118C213.131 229.432 213.3 229.704 213.517 229.932C213.745 230.16 214.016 230.339 214.331 230.469C214.657 230.589 215.015 230.648 215.406 230.648C215.97 230.648 216.459 230.518 216.871 230.257C217.283 229.997 217.598 229.639 217.815 229.183L218.776 229.834C218.526 230.399 218.108 230.865 217.522 231.234C216.947 231.593 216.241 231.772 215.406 231.772ZM215.324 224.054C214.966 224.054 214.635 224.119 214.331 224.249C214.027 224.38 213.761 224.559 213.533 224.787C213.316 225.015 213.142 225.286 213.012 225.601C212.893 225.905 212.833 226.241 212.833 226.61V226.724H217.653V226.545C217.653 226.176 217.593 225.84 217.473 225.536C217.365 225.232 217.208 224.971 217.001 224.754C216.806 224.526 216.562 224.352 216.269 224.233C215.986 224.114 215.672 224.054 215.324 224.054ZM227.057 230.209H226.992C226.45 231.251 225.587 231.772 224.403 231.772C223.372 231.772 222.563 231.386 221.977 230.616C221.402 229.845 221.114 228.765 221.114 227.375C221.114 225.986 221.402 224.906 221.977 224.135C222.563 223.365 223.372 222.979 224.403 222.979C225.587 222.979 226.45 223.5 226.992 224.542H227.057V219.527H228.36V231.576H227.057V230.209ZM224.908 230.616C225.201 230.616 225.478 230.578 225.739 230.502C225.999 230.426 226.227 230.317 226.422 230.176C226.618 230.024 226.77 229.845 226.878 229.639C226.998 229.422 227.057 229.172 227.057 228.89V225.861C227.057 225.579 226.998 225.335 226.878 225.129C226.77 224.911 226.618 224.732 226.422 224.591C226.227 224.439 225.999 224.325 225.739 224.249C225.478 224.173 225.201 224.135 224.908 224.135C224.148 224.135 223.557 224.369 223.133 224.835C222.721 225.291 222.515 225.899 222.515 226.659V228.092C222.515 228.852 222.721 229.465 223.133 229.932C223.557 230.388 224.148 230.616 224.908 230.616ZM235.306 221.318C234.926 221.318 234.66 221.242 234.508 221.09C234.356 220.928 234.28 220.727 234.28 220.488V220.227C234.28 219.989 234.356 219.793 234.508 219.641C234.66 219.478 234.926 219.397 235.306 219.397C235.686 219.397 235.952 219.478 236.104 219.641C236.256 219.793 236.332 219.989 236.332 220.227V220.488C236.332 220.727 236.256 220.928 236.104 221.09C235.952 221.242 235.686 221.318 235.306 221.318ZM231.626 230.469H234.655V224.282H231.626V223.175H235.958V230.469H238.791V231.576H231.626V230.469ZM246.535 230.209H246.47C246.383 230.415 246.274 230.616 246.144 230.811C246.014 230.996 245.851 231.158 245.656 231.3C245.471 231.441 245.248 231.555 244.988 231.641C244.727 231.728 244.424 231.772 244.076 231.772C243.197 231.772 242.491 231.495 241.959 230.941C241.428 230.377 241.162 229.584 241.162 228.564V223.175H242.464V228.336C242.464 229.107 242.632 229.682 242.969 230.062C243.305 230.431 243.799 230.616 244.451 230.616C244.711 230.616 244.966 230.583 245.216 230.518C245.466 230.453 245.688 230.355 245.884 230.225C246.079 230.095 246.236 229.932 246.356 229.736C246.475 229.53 246.535 229.286 246.535 229.004V223.175H247.837V231.576H246.535V230.209ZM250.306 231.576V223.175H251.511V224.152H251.576C251.706 223.826 251.891 223.549 252.13 223.321C252.368 223.093 252.721 222.979 253.188 222.979C253.676 222.979 254.04 223.104 254.279 223.354C254.518 223.593 254.664 223.907 254.719 224.298H254.767C254.919 223.918 255.136 223.603 255.419 223.354C255.701 223.104 256.092 222.979 256.591 222.979C257.275 222.979 257.731 223.218 257.959 223.696C258.198 224.173 258.317 224.857 258.317 225.747V231.576H257.112V225.959C257.112 225.242 257.036 224.749 256.884 224.477C256.743 224.195 256.477 224.054 256.086 224.054C255.739 224.054 255.457 224.168 255.24 224.396C255.022 224.613 254.914 224.949 254.914 225.405V231.576H253.709V225.959C253.709 225.242 253.633 224.749 253.481 224.477C253.34 224.195 253.079 224.054 252.699 224.054C252.352 224.054 252.064 224.168 251.837 224.396C251.619 224.613 251.511 224.949 251.511 225.405V231.576H250.306ZM260.655 233.823L266.322 219.202H267.494L261.828 233.823H260.655ZM280.263 219.527H281.565V224.542H281.631C282.173 223.5 283.036 222.979 284.22 222.979C285.251 222.979 286.054 223.365 286.629 224.135C287.215 224.906 287.509 225.986 287.509 227.375C287.509 228.765 287.215 229.845 286.629 230.616C286.054 231.386 285.251 231.772 284.22 231.772C283.036 231.772 282.173 231.251 281.631 230.209H281.565V231.576H280.263V219.527ZM283.715 230.616C284.475 230.616 285.061 230.388 285.473 229.932C285.897 229.465 286.108 228.852 286.108 228.092V226.659C286.108 225.899 285.897 225.291 285.473 224.835C285.061 224.369 284.475 224.135 283.715 224.135C283.422 224.135 283.145 224.173 282.884 224.249C282.624 224.325 282.396 224.439 282.2 224.591C282.005 224.732 281.848 224.911 281.728 225.129C281.62 225.335 281.565 225.579 281.565 225.861V228.89C281.565 229.172 281.62 229.422 281.728 229.639C281.848 229.845 282.005 230.024 282.2 230.176C282.396 230.317 282.624 230.426 282.884 230.502C283.145 230.578 283.422 230.616 283.715 230.616ZM293.364 231.772C292.778 231.772 292.246 231.669 291.768 231.462C291.301 231.256 290.9 230.963 290.563 230.583C290.238 230.192 289.988 229.731 289.814 229.199C289.641 228.656 289.554 228.048 289.554 227.375C289.554 226.713 289.641 226.111 289.814 225.568C289.988 225.025 290.238 224.564 290.563 224.184C290.9 223.793 291.301 223.495 291.768 223.289C292.246 223.082 292.778 222.979 293.364 222.979C293.95 222.979 294.477 223.082 294.943 223.289C295.421 223.495 295.823 223.793 296.148 224.184C296.485 224.564 296.74 225.025 296.913 225.568C297.087 226.111 297.174 226.713 297.174 227.375C297.174 228.048 297.087 228.656 296.913 229.199C296.74 229.731 296.485 230.192 296.148 230.583C295.823 230.963 295.421 231.256 294.943 231.462C294.477 231.669 293.95 231.772 293.364 231.772ZM293.364 230.648C294.091 230.648 294.677 230.431 295.122 229.997C295.567 229.563 295.79 228.89 295.79 227.978V226.773C295.79 225.861 295.567 225.188 295.122 224.754C294.677 224.32 294.091 224.103 293.364 224.103C292.637 224.103 292.05 224.32 291.605 224.754C291.16 225.188 290.938 225.861 290.938 226.773V227.978C290.938 228.89 291.16 229.563 291.605 229.997C292.05 230.431 292.637 230.648 293.364 230.648ZM299.545 230.469H302.476V220.635H299.545V219.527H303.778V230.469H306.709V231.576H299.545V230.469ZM314.925 230.209H314.86C314.318 231.251 313.455 231.772 312.271 231.772C311.24 231.772 310.431 231.386 309.845 230.616C309.27 229.845 308.982 228.765 308.982 227.375C308.982 225.986 309.27 224.906 309.845 224.135C310.431 223.365 311.24 222.979 312.271 222.979C313.455 222.979 314.318 223.5 314.86 224.542H314.925V219.527H316.228V231.576H314.925V230.209ZM312.776 230.616C313.069 230.616 313.346 230.578 313.607 230.502C313.867 230.426 314.095 230.317 314.29 230.176C314.486 230.024 314.638 229.845 314.746 229.639C314.866 229.422 314.925 229.172 314.925 228.89V225.861C314.925 225.579 314.866 225.335 314.746 225.129C314.638 224.911 314.486 224.732 314.29 224.591C314.095 224.439 313.867 224.325 313.607 224.249C313.346 224.173 313.069 224.135 312.776 224.135C312.016 224.135 311.425 224.369 311.001 224.835C310.589 225.291 310.383 225.899 310.383 226.659V228.092C310.383 228.852 310.589 229.465 311.001 229.932C311.425 230.388 312.016 230.616 312.776 230.616Z" fill="#262626"/>
</svg>
