<svg width="278" height="308" viewBox="0 0 278 308" fill="none" xmlns="http://www.w3.org/2000/svg">
<path d="M94.3852 117.919H46.0881L37.6537 145.008H0L53.6189 0H86.7541L140.775 145.008H102.92L94.3852 117.919ZM54.5225 90.9289H85.9508L70.1865 40.6341L54.5225 90.9289Z" fill="#003399"/>
<path d="M211.162 145.008C209.957 142.817 208.886 139.597 207.949 135.348C201.723 143.116 193.021 147 181.842 147C171.6 147 162.898 143.946 155.736 137.837C148.573 131.663 144.992 123.928 144.992 114.632C144.992 102.946 149.343 94.1159 158.045 88.1402C166.747 82.1646 179.399 79.1768 196 79.1768H206.443V73.5C206.443 63.607 202.125 58.6606 193.49 58.6606C185.457 58.6606 181.441 62.5779 181.441 70.4126H147.602C147.602 59.9885 152.054 51.523 160.957 45.0163C169.927 38.5095 181.34 35.2561 195.197 35.2561C209.053 35.2561 219.998 38.6091 228.031 45.315C236.064 52.021 240.18 61.2168 240.381 72.9024V120.608C240.515 130.501 242.055 138.07 245 143.315V145.008H211.162ZM189.975 123.098C194.193 123.098 197.673 122.201 200.418 120.409C203.23 118.616 205.238 116.591 206.443 114.333V97.1037H196.602C184.821 97.1037 178.93 102.349 178.93 112.839C178.93 115.894 179.968 118.383 182.043 120.309C184.118 122.168 186.762 123.098 189.975 123.098Z" fill="#003399"/>
<path d="M11.3958 209C8.03076 209 5.28502 207.967 3.15863 205.901C1.05288 203.834 0 201.201 0 198C0 194.941 1.08384 192.348 3.25153 190.221C5.41921 188.074 8.12366 187 11.3649 187C13.2435 187 14.8332 187.243 16.1338 187.729C17.4344 188.195 18.6834 188.924 19.8808 189.917L16.877 193.472C15.9686 192.723 15.0912 192.176 14.2448 191.831C13.3984 191.487 12.3868 191.315 11.21 191.315C9.47588 191.315 7.99979 191.973 6.78176 193.29C5.58437 194.587 4.98568 196.157 4.98568 198C4.98568 199.945 5.59469 201.555 6.81273 202.831C8.0514 204.108 9.63072 204.746 11.5507 204.746C13.3261 204.746 14.8228 204.32 16.0409 203.47V200.431H11.241V196.39H20.6549V205.627C17.9505 207.876 14.8641 209 11.3958 209Z" fill="#262626"/>
<path d="M44.0096 205.809C41.8213 207.936 39.0755 209 35.7724 209C32.4692 209 29.7235 207.936 27.5352 205.809C25.3675 203.682 24.2836 201.079 24.2836 198C24.2836 194.941 25.3778 192.348 27.5661 190.221C29.7751 188.074 32.5312 187 35.8343 187C39.1374 187 41.8729 188.064 44.0405 190.191C46.2289 192.318 47.323 194.921 47.323 198C47.323 201.059 46.2186 203.662 44.0096 205.809ZM31.1273 202.74C32.366 204.037 33.935 204.685 35.8343 204.685C37.7336 204.685 39.2923 204.047 40.5103 202.771C41.7284 201.474 42.3374 199.884 42.3374 198C42.3374 196.136 41.718 194.556 40.4794 193.26C39.2407 191.963 37.6717 191.315 35.7724 191.315C33.8731 191.315 32.3144 191.963 31.0964 193.26C29.8783 194.536 29.2693 196.116 29.2693 198C29.2693 199.864 29.8887 201.444 31.1273 202.74Z" fill="#262626"/>
<path d="M55.6636 208.635V191.68H49.0676V187.365H67.0284V191.68H60.4325V208.635H55.6636Z" fill="#262626"/>
<path d="M70.6961 208.635V187.365H75.465V195.782H84.2596V187.365H89.0285V208.635H84.2596V200.097H75.465V208.635H70.6961Z" fill="#262626"/>
<path d="M92.3657 208.635L101.656 187.213H106.053L115.343 208.635H110.357L108.376 203.865H99.2094L97.2275 208.635H92.3657ZM100.913 199.732H106.672L103.792 192.834L100.913 199.732Z" fill="#262626"/>
<path d="M118.689 208.635V187.365H123.829L129.527 196.359L135.225 187.365H140.366V208.635H135.628V194.749L129.527 203.834H129.403L123.365 194.84V208.635H118.689Z" fill="#262626"/>
<path d="M154.857 208.635V187.365H163.714C166.274 187.365 168.297 188.043 169.783 189.401C171.27 190.758 172.013 192.551 172.013 194.779C172.013 197.149 171.187 198.993 169.536 200.309C167.884 201.606 165.789 202.254 163.249 202.254H159.626V208.635H154.857ZM159.626 198.091H163.404C164.581 198.091 165.499 197.787 166.16 197.18C166.841 196.572 167.182 195.782 167.182 194.809C167.182 193.776 166.841 192.986 166.16 192.439C165.479 191.872 164.529 191.588 163.311 191.588H159.626V198.091Z" fill="#262626"/>
<path d="M175.542 208.635V187.365H185.452C188.197 187.365 190.303 188.084 191.769 189.522C193.007 190.738 193.627 192.378 193.627 194.445C193.627 197.706 192.078 199.904 188.982 201.039L194.277 208.635H188.703L183.996 201.829H180.311V208.635H175.542ZM180.311 197.696H185.142C186.298 197.696 187.196 197.423 187.836 196.876C188.476 196.308 188.796 195.559 188.796 194.627C188.796 193.634 188.466 192.885 187.805 192.378C187.144 191.852 186.226 191.588 185.049 191.588H180.311V197.696Z" fill="#262626"/>
<path d="M216.687 205.809C214.498 207.936 211.752 209 208.449 209C205.146 209 202.4 207.936 200.212 205.809C198.044 203.682 196.961 201.079 196.961 198C196.961 194.941 198.055 192.348 200.243 190.221C202.452 188.074 205.208 187 208.511 187C211.814 187 214.55 188.064 216.718 190.191C218.906 192.318 220 194.921 220 198C220 201.059 218.896 203.662 216.687 205.809ZM203.804 202.74C205.043 204.037 206.612 204.685 208.511 204.685C210.411 204.685 211.969 204.047 213.187 202.771C214.405 201.474 215.014 199.884 215.014 198C215.014 196.136 214.395 194.556 213.156 193.26C211.918 191.963 210.349 191.315 208.449 191.315C206.55 191.315 204.991 191.963 203.773 193.26C202.555 194.536 201.946 196.116 201.946 198C201.946 199.864 202.566 201.444 203.804 202.74Z" fill="#262626"/>
<path d="M4.78749 242.28L0.969618 252.392H0L4.16633 241.637H4.84051L4.78749 242.28ZM8.2569 252.392L4.43146 242.28L4.37843 241.637H5.05262L9.22652 252.392H8.2569ZM7.57514 248.596V249.379H1.71956V248.596H7.57514Z" fill="#262626"/>
<path d="M21.2483 241.637V242.42H15.529V252.392H14.5973V241.637H21.2483ZM15.2033 246.298H18.2561C19.054 246.298 19.7231 246.426 20.2635 246.682C20.8089 246.934 21.2205 247.288 21.4982 247.746C21.776 248.199 21.9149 248.729 21.9149 249.334C21.9149 249.782 21.8366 250.194 21.68 250.568C21.5235 250.942 21.2912 251.267 20.9831 251.543C20.6751 251.814 20.2938 252.023 19.8393 252.171C19.3848 252.319 18.857 252.392 18.2561 252.392H14.5973V241.637H15.529V251.617H18.2561C18.9025 251.617 19.4252 251.511 19.8241 251.299C20.2231 251.082 20.516 250.799 20.7029 250.45C20.8897 250.1 20.9831 249.723 20.9831 249.319C20.9831 248.921 20.8897 248.551 20.7029 248.211C20.516 247.872 20.2231 247.598 19.8241 247.392C19.4252 247.18 18.9025 247.074 18.2561 247.074H15.2033V246.298Z" fill="#262626"/>
<path d="M31.9747 247.222H28.8689L28.8537 246.453H31.5277C32.0731 246.453 32.5377 246.377 32.9216 246.224C33.3054 246.072 33.5957 245.845 33.7927 245.545C33.9947 245.239 34.0957 244.865 34.0957 244.422C34.0957 243.969 33.9972 243.595 33.8003 243.299C33.6033 242.999 33.3079 242.777 32.914 242.634C32.5201 242.492 32.0252 242.42 31.4292 242.42H29.1113V252.392H28.1795V241.637H31.4292C31.9898 241.637 32.4923 241.691 32.9367 241.8C33.3811 241.908 33.7599 242.078 34.073 242.309C34.3861 242.541 34.6234 242.834 34.785 243.188C34.9517 243.538 35.035 243.957 35.035 244.444C35.035 244.887 34.934 245.289 34.732 245.648C34.53 246.003 34.2447 246.293 33.876 246.52C33.5124 246.741 33.0756 246.879 32.5655 246.934L31.9747 247.222ZM31.9065 252.392H28.5734L29.0507 251.617H31.9065C32.4519 251.617 32.9165 251.528 33.3003 251.351C33.6892 251.169 33.9871 250.91 34.1942 250.575C34.4012 250.24 34.5048 249.841 34.5048 249.379C34.5048 248.97 34.4139 248.603 34.232 248.278C34.0502 247.953 33.7725 247.697 33.3988 247.51C33.0251 247.318 32.5504 247.222 31.9747 247.222H30.043L30.0581 246.453H32.7928L32.9594 246.727C33.4543 246.776 33.8861 246.926 34.2548 247.177C34.6285 247.424 34.9163 247.736 35.1183 248.115C35.3254 248.495 35.4289 248.911 35.4289 249.364C35.4289 250.014 35.2799 250.565 34.982 251.018C34.6891 251.467 34.2775 251.809 33.7472 252.045C33.222 252.277 32.6084 252.392 31.9065 252.392Z" fill="#262626"/>
<path d="M48.1324 241.637V242.42H42.4132V252.392H41.489V241.637H48.1324Z" fill="#262626"/>
<path d="M62.3585 251.617V252.392H53.6926V251.617H62.3585ZM53.8971 251.617V255H52.9729V251.617H53.8971ZM63.1615 251.617L63.1539 255H62.2222V251.617H63.1615ZM61.2374 241.637V242.42H56.2227V241.637H61.2374ZM61.9798 241.637V252.392H61.0556V241.637H61.9798ZM55.8894 241.637H56.8211L56.6242 245.515C56.5888 246.21 56.5181 246.852 56.4121 247.443C56.3111 248.034 56.1848 248.576 56.0333 249.068C55.8818 249.561 55.7151 250.002 55.5333 250.391C55.3515 250.775 55.1622 251.107 54.9652 251.388C54.7682 251.664 54.5688 251.888 54.3668 252.06C54.1698 252.227 53.9804 252.338 53.7986 252.392H53.2229V251.617H53.7077C53.8289 251.494 53.988 251.292 54.185 251.011C54.3819 250.725 54.5839 250.344 54.791 249.866C55.0031 249.384 55.1899 248.785 55.3515 248.071C55.5182 247.352 55.6318 246.5 55.6924 245.515L55.8894 241.637Z" fill="#262626"/>
<path d="M75.6984 251.617V252.392H69.4943V251.617H75.6984ZM69.7746 241.637V252.392H68.8429V241.637H69.7746ZM74.9257 246.461V247.236H69.4943V246.461H74.9257ZM75.6605 241.637V242.42H69.4943V241.637H75.6605Z" fill="#262626"/>
<path d="M88.3185 251.617V252.392H82.1145V251.617H88.3185ZM82.3948 241.637V252.392H81.463V241.637H82.3948ZM87.5459 246.461V247.236H82.1145V246.461H87.5459ZM88.2807 241.637V242.42H82.1145V241.637H88.2807ZM82.4857 239.717C82.4857 239.549 82.5412 239.409 82.6523 239.295C82.7634 239.177 82.9149 239.118 83.1068 239.118C83.2987 239.118 83.4502 239.177 83.5613 239.295C83.6725 239.409 83.728 239.549 83.728 239.717C83.728 239.879 83.6725 240.017 83.5613 240.13C83.4502 240.243 83.2987 240.3 83.1068 240.3C82.9149 240.3 82.7634 240.243 82.6523 240.13C82.5412 240.017 82.4857 239.879 82.4857 239.717ZM85.8036 239.724C85.8036 239.556 85.8566 239.414 85.9627 239.295C86.0738 239.177 86.2278 239.118 86.4248 239.118C86.6167 239.118 86.7682 239.177 86.8793 239.295C86.9904 239.414 87.0459 239.556 87.0459 239.724C87.0459 239.886 86.9904 240.024 86.8793 240.138C86.7682 240.251 86.6167 240.307 86.4248 240.307C86.2278 240.307 86.0738 240.251 85.9627 240.138C85.8566 240.024 85.8036 239.886 85.8036 239.724Z" fill="#262626"/>
<path d="M97.2723 247.273L93.1363 241.637H94.2574L97.7269 246.49H99.5222L99.4313 247.273H97.2723ZM97.8329 247.207L94.0378 252.392H92.856L97.2496 246.424L97.8329 247.207ZM99.9918 241.637V252.392H99.0677V241.637H99.9918ZM105.893 241.637L101.749 247.273H99.6282L99.5373 246.49H101.295L104.772 241.637H105.893ZM104.991 252.392L101.189 247.207L101.78 246.424L106.173 252.392H104.991Z" fill="#262626"/>
<path d="M114.725 247.155H113.362V246.512H114.688C115.364 246.512 115.912 246.426 116.331 246.254C116.751 246.082 117.056 245.84 117.248 245.53C117.44 245.22 117.536 244.855 117.536 244.437C117.536 244.028 117.435 243.661 117.233 243.336C117.031 243.006 116.718 242.745 116.294 242.553C115.869 242.361 115.324 242.265 114.657 242.265C114.147 242.265 113.683 242.356 113.263 242.538C112.849 242.716 112.516 242.969 112.264 243.299C112.016 243.629 111.892 244.016 111.892 244.459H110.961C110.961 244.001 111.059 243.59 111.256 243.225C111.453 242.856 111.721 242.543 112.059 242.287C112.402 242.026 112.796 241.829 113.241 241.696C113.69 241.558 114.162 241.489 114.657 241.489C115.238 241.489 115.761 241.553 116.225 241.681C116.695 241.805 117.096 241.992 117.43 242.243C117.768 242.494 118.026 242.804 118.202 243.174C118.379 243.543 118.468 243.974 118.468 244.466C118.468 244.836 118.382 245.183 118.21 245.508C118.043 245.833 117.798 246.118 117.475 246.365C117.157 246.611 116.766 246.805 116.301 246.948C115.842 247.086 115.316 247.155 114.725 247.155ZM113.362 246.675H114.725C115.372 246.675 115.937 246.737 116.422 246.86C116.912 246.983 117.321 247.163 117.649 247.399C117.978 247.635 118.225 247.928 118.392 248.278C118.558 248.623 118.642 249.019 118.642 249.467C118.642 249.96 118.543 250.396 118.346 250.775C118.149 251.154 117.872 251.476 117.513 251.742C117.16 252.008 116.74 252.21 116.256 252.348C115.771 252.481 115.238 252.548 114.657 252.548C114.193 252.548 113.731 252.486 113.271 252.363C112.817 252.235 112.402 252.045 112.029 251.794C111.66 251.538 111.362 251.213 111.135 250.819C110.913 250.42 110.802 249.95 110.802 249.408H111.741C111.741 249.856 111.862 250.258 112.104 250.612C112.352 250.967 112.693 251.25 113.127 251.462C113.566 251.669 114.077 251.772 114.657 251.772C115.309 251.772 115.859 251.678 116.309 251.491C116.763 251.299 117.109 251.033 117.346 250.693C117.589 250.349 117.71 249.95 117.71 249.497C117.71 249.113 117.644 248.783 117.513 248.507C117.382 248.226 117.187 247.997 116.93 247.82C116.677 247.643 116.364 247.512 115.991 247.428C115.617 247.345 115.183 247.303 114.688 247.303H113.362V246.675Z" fill="#262626"/>
<path d="M125.512 250.812L131.792 241.637H132.724V252.392H131.792V243.203L125.512 252.392H124.581V241.637H125.512V250.812Z" fill="#262626"/>
<path d="M140.329 250.812L146.609 241.637H147.541V252.392H146.609V243.203L140.329 252.392H139.398V241.637H140.329V250.812ZM144.943 239H145.715C145.715 239.369 145.627 239.697 145.45 239.982C145.279 240.268 145.029 240.492 144.7 240.655C144.372 240.817 143.983 240.898 143.534 240.898C142.857 240.898 142.322 240.721 141.928 240.367C141.539 240.012 141.345 239.556 141.345 239H142.11C142.11 239.34 142.216 239.635 142.428 239.886C142.645 240.133 143.014 240.256 143.534 240.256C144.039 240.256 144.4 240.13 144.617 239.879C144.834 239.628 144.943 239.335 144.943 239Z" fill="#262626"/>
<path d="M155.146 241.637V252.392H154.215V241.637H155.146ZM162.055 241.637L157.161 247.347H154.775L154.692 246.564H156.616L160.888 241.637H162.055ZM161.229 252.392L156.571 247.244L157.108 246.446L162.388 252.392H161.229Z" fill="#262626"/>
<path d="M175.221 241.637V242.42H169.819V241.637H175.221ZM175.963 241.637V252.392H175.031V241.637H175.963ZM169.486 241.637H170.41L170.13 246.608C170.08 247.431 170.014 248.157 169.933 248.788C169.857 249.418 169.751 249.962 169.615 250.42C169.479 250.873 169.299 251.245 169.077 251.536C168.86 251.826 168.59 252.043 168.267 252.186C167.948 252.323 167.562 252.392 167.108 252.392H166.789V251.617L167.07 251.602C167.368 251.592 167.625 251.536 167.842 251.432C168.065 251.329 168.251 251.164 168.403 250.937C168.559 250.706 168.688 250.396 168.789 250.006C168.895 249.617 168.981 249.135 169.047 248.559C169.117 247.982 169.176 247.295 169.221 246.498L169.486 241.637Z" fill="#262626"/>
<path d="M182.864 241.637H183.803L187.879 251.107L191.962 241.637H192.893L188.235 252.392H187.523L182.864 241.637ZM182.576 241.637H183.402L183.5 247.694V252.392H182.576V241.637ZM192.371 241.637H193.196V252.392H192.265V247.694L192.371 241.637Z" fill="#262626"/>
<path d="M207.203 246.461V247.236H200.499V246.461H207.203ZM200.718 241.637V252.392H199.787V241.637H200.718ZM207.953 241.637V252.392H207.021V241.637H207.953Z" fill="#262626"/>
<path d="M222.701 246.439V247.591C222.701 248.344 222.6 249.026 222.398 249.637C222.202 250.243 221.914 250.762 221.535 251.196C221.161 251.629 220.712 251.962 220.187 252.193C219.661 252.424 219.07 252.54 218.414 252.54C217.773 252.54 217.187 252.424 216.657 252.193C216.131 251.962 215.679 251.629 215.301 251.196C214.922 250.762 214.629 250.243 214.422 249.637C214.215 249.026 214.111 248.344 214.111 247.591V246.439C214.111 245.685 214.212 245.006 214.414 244.4C214.621 243.789 214.914 243.267 215.293 242.834C215.672 242.4 216.124 242.068 216.649 241.837C217.174 241.605 217.757 241.489 218.399 241.489C219.055 241.489 219.646 241.605 220.171 241.837C220.697 242.068 221.149 242.4 221.527 242.834C221.906 243.267 222.196 243.789 222.398 244.4C222.6 245.006 222.701 245.685 222.701 246.439ZM221.777 247.591V246.424C221.777 245.789 221.702 245.217 221.55 244.71C221.404 244.203 221.184 243.769 220.891 243.41C220.603 243.05 220.25 242.775 219.831 242.583C219.411 242.391 218.934 242.295 218.399 242.295C217.879 242.295 217.412 242.391 216.997 242.583C216.583 242.775 216.23 243.05 215.937 243.41C215.649 243.769 215.427 244.203 215.27 244.71C215.119 245.217 215.043 245.789 215.043 246.424V247.591C215.043 248.231 215.119 248.807 215.27 249.319C215.427 249.827 215.652 250.263 215.944 250.627C216.237 250.986 216.591 251.262 217.005 251.454C217.424 251.646 217.894 251.742 218.414 251.742C218.954 251.742 219.432 251.646 219.846 251.454C220.26 251.262 220.611 250.986 220.899 250.627C221.186 250.263 221.404 249.827 221.55 249.319C221.702 248.807 221.777 248.231 221.777 247.591Z" fill="#262626"/>
<path d="M236.981 241.637V252.392H236.056V242.42H229.807V252.392H228.875V241.637H236.981Z" fill="#262626"/>
<path d="M247.366 248.012H244.222V247.236H247.366C248.023 247.236 248.555 247.133 248.964 246.926C249.379 246.714 249.679 246.429 249.866 246.069C250.058 245.71 250.154 245.306 250.154 244.858C250.154 244.42 250.058 244.016 249.866 243.646C249.679 243.277 249.379 242.982 248.964 242.76C248.555 242.533 248.023 242.42 247.366 242.42H244.548V252.392H243.616V241.637H247.366C248.174 241.637 248.853 241.773 249.404 242.043C249.959 242.314 250.379 242.691 250.661 243.174C250.944 243.656 251.086 244.213 251.086 244.843C251.086 245.503 250.944 246.072 250.661 246.549C250.379 247.022 249.962 247.384 249.411 247.635C248.861 247.886 248.179 248.012 247.366 248.012Z" fill="#262626"/>
<path d="M263.834 249.039H264.766C264.69 249.763 264.486 250.388 264.153 250.915C263.819 251.437 263.365 251.838 262.789 252.119C262.213 252.4 261.519 252.54 260.706 252.54C260.08 252.54 259.512 252.424 259.002 252.193C258.497 251.962 258.062 251.634 257.699 251.211C257.335 250.782 257.055 250.27 256.858 249.674C256.661 249.078 256.562 248.416 256.562 247.687V246.343C256.562 245.614 256.661 244.954 256.858 244.363C257.055 243.767 257.338 243.255 257.706 242.826C258.075 242.398 258.517 242.068 259.032 241.837C259.547 241.605 260.128 241.489 260.774 241.489C261.557 241.489 262.234 241.63 262.804 241.91C263.375 242.186 263.824 242.585 264.153 243.107C264.486 243.629 264.69 244.259 264.766 244.998H263.834C263.764 244.417 263.607 243.925 263.365 243.521C263.122 243.117 262.787 242.809 262.357 242.597C261.933 242.381 261.405 242.272 260.774 242.272C260.259 242.272 259.799 242.368 259.395 242.56C258.991 242.753 258.648 243.028 258.365 243.388C258.082 243.742 257.865 244.168 257.714 244.666C257.567 245.163 257.494 245.717 257.494 246.328V247.687C257.494 248.278 257.565 248.822 257.706 249.319C257.848 249.817 258.055 250.248 258.327 250.612C258.605 250.977 258.943 251.26 259.342 251.462C259.741 251.664 260.196 251.765 260.706 251.765C261.357 251.765 261.9 251.664 262.335 251.462C262.774 251.255 263.115 250.95 263.357 250.546C263.6 250.142 263.759 249.64 263.834 249.039Z" fill="#262626"/>
<path d="M274.22 241.637V252.392H273.296V241.637H274.22ZM278 241.637V242.42H269.523V241.637H278Z" fill="#262626"/>
<path d="M5.59306 286.759C5.50224 286.501 5.44421 286.12 5.41898 285.616C5.10111 286.029 4.69494 286.35 4.20047 286.577C3.71105 286.799 3.19135 286.91 2.64138 286.91C1.85426 286.91 1.21599 286.691 0.726568 286.252C0.242189 285.812 0 285.257 0 284.586C0 283.788 0.330487 283.157 0.991462 282.693C1.65748 282.228 2.58335 281.996 3.76907 281.996H5.41142V281.065C5.41142 280.479 5.22977 280.02 4.86649 279.687C4.50825 279.349 3.98351 279.18 3.29226 279.18C2.66156 279.18 2.13934 279.341 1.7256 279.664C1.31186 279.987 1.10499 280.376 1.10499 280.83L0.196779 280.823C0.196779 280.171 0.499515 279.609 1.10499 279.134C1.71046 278.655 2.45469 278.415 3.33767 278.415C4.25093 278.415 4.96992 278.645 5.49467 279.104C6.02446 279.558 6.29692 280.194 6.31206 281.012V284.889C6.31206 285.681 6.39531 286.274 6.56181 286.668V286.759H5.59306ZM2.74733 286.108C3.35281 286.108 3.89269 285.961 4.36697 285.669C4.84631 285.376 5.19445 284.985 5.41142 284.495V282.693H3.79177C2.88861 282.703 2.18223 282.87 1.67262 283.193C1.16301 283.511 0.90821 283.95 0.90821 284.51C0.90821 284.969 1.07724 285.351 1.41529 285.653C1.75839 285.956 2.20241 286.108 2.74733 286.108Z" fill="#262626"/>
<path d="M8.54474 288.818L8.00738 288.425C8.46653 287.809 8.70367 287.17 8.71881 286.509V285.335H9.60432V286.282C9.60432 287.332 9.25112 288.177 8.54474 288.818Z" fill="#262626"/>
<path d="M18.7697 279.111C19.8091 279.111 20.6517 279.452 21.2975 280.134C21.9434 280.81 22.2663 281.709 22.2663 282.829V283.026C22.2663 283.768 22.1174 284.437 21.8197 285.033C21.5271 285.623 21.1033 286.085 20.5482 286.418C19.9983 286.746 19.365 286.91 18.6486 286.91C17.5688 286.91 16.6934 286.552 16.0223 285.835C15.3563 285.113 15.0233 284.152 15.0233 282.95V282.223C15.0233 280.527 15.3462 279.172 15.9921 278.157C16.6379 277.143 17.5562 276.537 18.747 276.34C19.4988 276.219 20.026 276.055 20.3288 275.848C20.6365 275.641 20.7904 275.358 20.7904 275H21.57C21.57 275.424 21.4817 275.775 21.3051 276.052C21.1285 276.33 20.8636 276.555 20.5104 276.726C20.1572 276.893 19.6173 277.034 18.8908 277.15C18.0582 277.282 17.3872 277.637 16.8776 278.218C16.373 278.793 16.045 279.566 15.8937 280.535C16.2166 280.111 16.6202 279.768 17.1046 279.505C17.594 279.243 18.1491 279.111 18.7697 279.111ZM15.9315 282.837V283.026C15.9315 283.95 16.1813 284.702 16.6808 285.282C17.1803 285.858 17.8362 286.146 18.6486 286.146C19.466 286.146 20.1219 285.855 20.6164 285.275C21.1108 284.689 21.3581 283.922 21.3581 282.973V282.776C21.3581 281.923 21.1058 281.226 20.6012 280.686C20.1017 280.146 19.4458 279.876 18.6334 279.876C17.8211 279.876 17.1677 280.151 16.6732 280.701C16.1787 281.247 15.9315 281.958 15.9315 282.837Z" fill="#262626"/>
<path d="M23.8178 288.818L23.2804 288.425C23.7396 287.809 23.9767 287.17 23.9919 286.509V285.335H24.8774V286.282C24.8774 287.332 24.5242 288.177 23.8178 288.818Z" fill="#262626"/>
<path d="M30.8413 286.759V278.566H33.8459C34.8853 278.566 35.6825 278.753 36.2376 279.127C36.7926 279.495 37.0701 280.038 37.0701 280.754C37.0701 281.163 36.9465 281.529 36.6992 281.852C36.452 282.17 36.0912 282.403 35.617 282.549C36.1518 282.65 36.5807 282.88 36.9036 283.238C37.2315 283.596 37.3955 284.013 37.3955 284.487C37.3955 285.209 37.1281 285.769 36.5933 286.168C36.0635 286.562 35.3117 286.759 34.3379 286.759H30.8413ZM31.7419 282.988V286.002H34.3682C35.0493 286.002 35.5741 285.87 35.9424 285.608C36.3107 285.345 36.4949 284.967 36.4949 284.472C36.4949 284.018 36.3107 283.657 35.9424 283.389C35.5741 283.122 35.0493 282.988 34.3682 282.988H31.7419ZM31.7419 282.231H34.0352C35.458 282.211 36.1694 281.726 36.1694 280.777C36.1694 280.277 35.9727 279.914 35.5791 279.687C35.1906 279.455 34.6129 279.339 33.8459 279.339H31.7419V282.231Z" fill="#262626"/>
<path d="M39.2271 288.818L38.6897 288.425C39.1489 287.809 39.386 287.17 39.4012 286.509V285.335H40.2867V286.282C40.2867 287.332 39.9335 288.177 39.2271 288.818Z" fill="#262626"/>
<path d="M51.2533 279.346H47.1134V286.759H46.2052V278.566H51.2533V279.346Z" fill="#262626"/>
<path d="M52.5021 288.818L51.9647 288.425C52.4239 287.809 52.661 287.17 52.6762 286.509V285.335H53.5617V286.282C53.5617 287.332 53.2085 288.177 52.5021 288.818Z" fill="#262626"/>
<path d="M59.238 285.994L59.6391 285.472C60.2748 284.608 60.6406 283.347 60.7365 281.686L60.8803 278.566H65.7165V285.994H66.5642V289.167H65.6635V286.759H59.5104V289.167H58.6401L58.6476 285.994H59.238ZM60.2824 285.994H64.8083V279.414H61.7431L61.6447 281.542C61.5539 283.495 61.0998 284.98 60.2824 285.994Z" fill="#262626"/>
<path d="M68.1233 288.818L67.5859 288.425C68.0451 287.809 68.2822 287.17 68.2974 286.509V285.335H69.1829V286.282C69.1829 287.332 68.8297 288.177 68.1233 288.818Z" fill="#262626"/>
<path d="M78.2195 286.91C77.5233 286.91 76.8926 286.739 76.3274 286.395C75.7674 286.052 75.3309 285.575 75.0181 284.964C74.7053 284.349 74.5489 283.66 74.5489 282.897V282.572C74.5489 281.784 74.7002 281.075 75.003 280.444C75.3108 279.813 75.7371 279.318 76.282 278.96C76.827 278.597 77.4173 278.415 78.053 278.415C79.047 278.415 79.8341 278.756 80.4144 279.437C80.9997 280.113 81.2923 281.04 81.2923 282.216V282.723H75.4495V282.897C75.4495 283.826 75.7144 284.601 76.2442 285.222C76.779 285.838 77.4501 286.146 78.2574 286.146C78.7418 286.146 79.1681 286.057 79.5364 285.881C79.9098 285.704 80.2479 285.421 80.5506 285.033L81.1182 285.464C80.4522 286.428 79.486 286.91 78.2195 286.91ZM78.053 279.187C77.3719 279.187 76.7967 279.437 76.3274 279.937C75.8632 280.436 75.5807 281.108 75.4798 281.951H80.3917V281.852C80.3665 281.065 80.1419 280.424 79.7181 279.929C79.2943 279.434 78.7392 279.187 78.053 279.187Z" fill="#262626"/>
<path d="M82.8666 288.818L82.3292 288.425C82.7883 287.809 83.0255 287.17 83.0406 286.509V285.335H83.9261V286.282C83.9261 287.332 83.5729 288.177 82.8666 288.818Z" fill="#262626"/>
<path d="M92.9628 286.91C92.2665 286.91 91.6358 286.739 91.0707 286.395C90.5106 286.052 90.0742 285.575 89.7614 284.964C89.4485 284.349 89.2921 283.66 89.2921 282.897V282.572C89.2921 281.784 89.4435 281.075 89.7462 280.444C90.054 279.813 90.4804 279.318 91.0253 278.96C91.5702 278.597 92.1606 278.415 92.7963 278.415C93.7903 278.415 94.5774 278.756 95.1577 279.437C95.7429 280.113 96.0356 281.04 96.0356 282.216V282.723H90.1928V282.897C90.1928 283.826 90.4577 284.601 90.9875 285.222C91.5223 285.838 92.1934 286.146 93.0007 286.146C93.485 286.146 93.9114 286.057 94.2797 285.881C94.6531 285.704 94.9911 285.421 95.2939 285.033L95.8615 285.464C95.1955 286.428 94.2293 286.91 92.9628 286.91ZM92.7963 279.187C92.1152 279.187 91.54 279.437 91.0707 279.937C90.6065 280.436 90.324 281.108 90.223 281.951H95.1349V281.852C95.1097 281.065 94.8852 280.424 94.4614 279.929C94.0375 279.434 93.4825 279.187 92.7963 279.187ZM90.6317 276.189C90.6317 276.017 90.6872 275.873 90.7982 275.757C90.9093 275.636 91.0606 275.575 91.2524 275.575C91.4441 275.575 91.5955 275.636 91.7065 275.757C91.8225 275.873 91.8805 276.017 91.8805 276.189C91.8805 276.355 91.8225 276.497 91.7065 276.613C91.5955 276.729 91.4441 276.787 91.2524 276.787C91.0606 276.787 90.9093 276.729 90.7982 276.613C90.6872 276.497 90.6317 276.355 90.6317 276.189ZM93.9467 276.196C93.9467 276.025 94.0022 275.881 94.1132 275.765C94.2242 275.644 94.3756 275.583 94.5673 275.583C94.7591 275.583 94.9104 275.644 95.0214 275.765C95.1375 275.881 95.1955 276.025 95.1955 276.196C95.1955 276.363 95.1375 276.504 95.0214 276.62C94.9104 276.736 94.7591 276.794 94.5673 276.794C94.3756 276.794 94.2242 276.736 94.1132 276.62C94.0022 276.504 93.9467 276.363 93.9467 276.196Z" fill="#262626"/>
<path d="M97.6098 288.818L97.0725 288.425C97.5316 287.809 97.7688 287.17 97.7839 286.509V285.335H98.6694V286.282C98.6694 287.332 98.3162 288.177 97.6098 288.818Z" fill="#262626"/>
<path d="M110.794 282.973H109.704V286.759H108.796V282.973H107.714L104.686 286.759H103.536L106.927 282.557L103.914 278.566H105.012L107.699 282.163H108.796V278.566H109.704V282.163H110.809L113.496 278.566H114.608L111.581 282.557L114.979 286.759H113.821L110.794 282.973Z" fill="#262626"/>
<path d="M116.243 288.818L115.706 288.425C116.165 287.809 116.402 287.17 116.417 286.509V285.335H117.303V286.282C117.303 287.332 116.95 288.177 116.243 288.818Z" fill="#262626"/>
<path d="M127.967 280.732C127.967 280.237 127.783 279.856 127.414 279.588C127.046 279.321 126.539 279.187 125.893 279.187C125.308 279.187 124.806 279.339 124.387 279.641C123.973 279.939 123.766 280.318 123.766 280.777H122.866C122.866 280.096 123.156 279.533 123.736 279.089C124.321 278.645 125.04 278.422 125.893 278.422C126.831 278.422 127.563 278.624 128.088 279.028C128.613 279.432 128.875 280.005 128.875 280.747C128.875 281.141 128.754 281.497 128.512 281.815C128.269 282.133 127.916 282.38 127.452 282.557C128.502 282.844 129.026 283.495 129.026 284.51C129.026 285.247 128.741 285.83 128.171 286.259C127.601 286.688 126.844 286.903 125.901 286.903C124.987 286.903 124.23 286.673 123.63 286.214C123.03 285.754 122.729 285.154 122.729 284.412H123.638C123.638 284.906 123.855 285.32 124.288 285.653C124.727 285.981 125.265 286.146 125.901 286.146C126.592 286.146 127.132 286.002 127.52 285.714C127.914 285.421 128.111 285.025 128.111 284.525C128.111 283.975 127.931 283.579 127.573 283.336C127.215 283.094 126.667 282.973 125.931 282.973H124.682V282.186H126.082C127.339 282.155 127.967 281.671 127.967 280.732Z" fill="#262626"/>
<path d="M130.835 288.818L130.298 288.425C130.757 287.809 130.994 287.17 131.009 286.509V285.335H131.895V286.282C131.895 287.332 131.542 288.177 130.835 288.818Z" fill="#262626"/>
<path d="M143.141 278.566H144.05V286.759H143.141V280.028L138.721 286.759H137.821V278.566H138.721V285.305L143.141 278.566Z" fill="#262626"/>
<path d="M146.29 288.818L145.752 288.425C146.212 287.809 146.449 287.17 146.464 286.509V285.335H147.349V286.282C147.349 287.332 146.996 288.177 146.29 288.818Z" fill="#262626"/>
<path d="M158.596 278.566H159.504V286.759H158.596V280.028L154.176 286.759H153.275V278.566H154.176V285.305L158.596 278.566ZM158.551 275.613C158.551 276.194 158.351 276.663 157.953 277.022C157.559 277.38 157.029 277.559 156.363 277.559C155.707 277.559 155.178 277.383 154.774 277.029C154.375 276.671 154.176 276.199 154.176 275.613H154.948C154.948 276.032 155.072 276.353 155.319 276.575C155.571 276.797 155.919 276.908 156.363 276.908C156.807 276.908 157.153 276.792 157.4 276.56C157.653 276.328 157.779 276.012 157.779 275.613H158.551Z" fill="#262626"/>
<path d="M161.745 288.818L161.207 288.425C161.666 287.809 161.903 287.17 161.919 286.509V285.335H162.804V286.282C162.804 287.332 162.451 288.177 161.745 288.818Z" fill="#262626"/>
<path d="M170.895 283.003H169.638V286.759H168.723V278.566H169.638V282.201H170.88L173.884 278.566H175.027L171.667 282.541L175.398 286.759H174.202L170.895 283.003Z" fill="#262626"/>
<path d="M176.518 288.818L175.981 288.425C176.44 287.809 176.677 287.17 176.692 286.509V285.335H177.578V286.282C177.578 287.332 177.224 288.177 176.518 288.818Z" fill="#262626"/>
<path d="M189.74 278.566V286.759H188.832V279.346H185.479L185.335 282.413C185.275 283.548 185.161 284.417 184.995 285.017C184.828 285.613 184.581 286.052 184.253 286.335C183.925 286.618 183.489 286.759 182.944 286.759H182.596V285.956L182.876 285.941C183.395 285.931 183.769 285.679 183.996 285.184C184.223 284.689 184.372 283.806 184.442 282.534L184.609 278.566H189.74Z" fill="#262626"/>
<path d="M191.988 288.818L191.451 288.425C191.91 287.809 192.147 287.17 192.162 286.509V285.335H193.048V286.282C193.048 287.332 192.694 288.177 191.988 288.818Z" fill="#262626"/>
<path d="M203.447 285.532L206.701 278.566H207.821V286.759H206.913V280.035L203.764 286.759H203.121L199.912 279.884V286.759H199.011V278.566H200.2L203.447 285.532Z" fill="#262626"/>
<path d="M210.061 288.818L209.524 288.425C209.983 287.809 210.22 287.17 210.235 286.509V285.335H211.121V286.282C211.121 287.332 210.768 288.177 210.061 288.818Z" fill="#262626"/>
<path d="M223.276 286.759H222.368V283.003H217.955V286.759H217.047V278.566H217.955V282.239H222.368V278.566H223.276V286.759Z" fill="#262626"/>
<path d="M225.516 288.818L224.979 288.425C225.438 287.809 225.675 287.17 225.69 286.509V285.335H226.576V286.282C226.576 287.332 226.222 288.177 225.516 288.818Z" fill="#262626"/>
<path d="M231.942 282.541C231.942 281.754 232.093 281.045 232.396 280.414C232.703 279.783 233.135 279.293 233.69 278.945C234.25 278.592 234.883 278.415 235.59 278.415C236.679 278.415 237.562 278.798 238.238 279.566C238.915 280.328 239.253 281.34 239.253 282.602V282.791C239.253 283.584 239.099 284.298 238.791 284.934C238.488 285.565 238.059 286.052 237.504 286.395C236.949 286.739 236.316 286.91 235.605 286.91C234.52 286.91 233.637 286.529 232.956 285.767C232.28 285 231.942 283.985 231.942 282.723V282.541ZM232.85 282.791C232.85 283.771 233.102 284.576 233.607 285.207C234.116 285.833 234.782 286.146 235.605 286.146C236.422 286.146 237.083 285.833 237.588 285.207C238.097 284.576 238.352 283.745 238.352 282.716V282.541C238.352 281.915 238.236 281.343 238.004 280.823C237.772 280.303 237.446 279.901 237.028 279.619C236.609 279.331 236.129 279.187 235.59 279.187C234.782 279.187 234.124 279.505 233.614 280.141C233.105 280.772 232.85 281.6 232.85 282.625V282.791Z" fill="#262626"/>
<path d="M240.94 288.818L240.403 288.425C240.862 287.809 241.099 287.17 241.114 286.509V285.335H242V286.282C242 287.332 241.647 288.177 240.94 288.818Z" fill="#262626"/>
<path d="M6.71318 304.85H5.80497V297.437H1.39259V304.85H0.484378V296.658H6.71318V304.85Z" fill="#262626"/>
<path d="M8.95343 306.91L8.41607 306.516C8.87523 305.9 9.11237 305.262 9.12751 304.6V303.427H10.013V304.373C10.013 305.423 9.65982 306.269 8.95343 306.91Z" fill="#262626"/>
<path d="M22.463 300.837C22.463 302.114 22.1805 303.129 21.6154 303.881C21.0503 304.628 20.2934 305.002 19.3449 305.002C18.2247 305.002 17.367 304.608 16.7716 303.82V308H15.871V296.658H16.7111L16.7565 297.816C17.3468 296.943 18.202 296.506 19.3222 296.506C20.301 296.506 21.0679 296.877 21.623 297.619C22.183 298.361 22.463 299.391 22.463 300.708V300.837ZM21.5548 300.678C21.5548 299.633 21.3404 298.808 20.9115 298.202C20.4826 297.596 19.8847 297.294 19.1178 297.294C18.5628 297.294 18.086 297.427 17.6874 297.695C17.2888 297.962 16.9835 298.351 16.7716 298.861V302.791C16.9886 303.26 17.2989 303.619 17.7025 303.866C18.1062 304.113 18.583 304.237 19.1329 304.237C19.8948 304.237 20.4877 303.934 20.9115 303.328C21.3404 302.717 21.5548 301.834 21.5548 300.678Z" fill="#262626"/>
<path d="M24.287 306.91L23.7497 306.516C24.2088 305.9 24.446 305.262 24.4611 304.6V303.427H25.3466V304.373C25.3466 305.423 24.9934 306.269 24.287 306.91Z" fill="#262626"/>
<path d="M34.2395 304.237C34.8702 304.237 35.3975 304.06 35.8213 303.707C36.2502 303.348 36.4823 302.887 36.5176 302.321H37.388C37.3627 302.821 37.2063 303.278 36.9187 303.692C36.6311 304.101 36.2477 304.421 35.7683 304.653C35.294 304.886 34.7844 305.002 34.2395 305.002C33.1648 305.002 32.3121 304.628 31.6814 303.881C31.0557 303.134 30.7429 302.129 30.7429 300.867V300.595C30.7429 299.787 30.8842 299.073 31.1667 298.452C31.4493 297.831 31.8529 297.352 32.3777 297.013C32.9075 296.675 33.5255 296.506 34.2319 296.506C35.13 296.506 35.8692 296.774 36.4495 297.309C37.0348 297.844 37.3476 298.548 37.388 299.421H36.5176C36.4772 298.78 36.2451 298.263 35.8213 297.869C35.4025 297.475 34.8727 297.278 34.2319 297.278C33.4145 297.278 32.7788 297.574 32.3247 298.164C31.8756 298.755 31.6511 299.583 31.6511 300.648V300.913C31.6511 301.958 31.8756 302.773 32.3247 303.359C32.7788 303.944 33.4171 304.237 34.2395 304.237Z" fill="#262626"/>
<path d="M39.0152 306.91L38.4778 306.516C38.937 305.9 39.1741 305.262 39.1892 304.6V303.427H40.0747V304.373C40.0747 305.423 39.7216 306.269 39.0152 306.91Z" fill="#262626"/>
<path d="M51.8209 297.43H48.839V304.85H47.9308V297.43H45.0623V296.658H51.8209V297.43Z" fill="#262626"/>
</svg>
