<svg width="369" height="66" viewBox="0 0 369 66" fill="none" xmlns="http://www.w3.org/2000/svg">
<path d="M9.65475 0.384675L21.008 0.302734C26.3446 0.302734 29.757 1.06752 31.2451 2.5971C32.7589 4.09936 33.5158 7.62285 33.5158 13.1676V15.0112C33.5158 16.9778 33.4003 19.0537 33.1694 21.2388C32.9641 23.3966 32.2329 25.0627 30.9757 26.2372C29.7442 27.4117 27.8841 27.999 25.3953 27.999C24.6256 28.0809 23.6378 28.1355 22.4319 28.1629C21.2517 28.1902 20.1228 28.2038 19.0452 28.2038H12.6181C11.0531 28.2038 9.5393 28.1219 8.07685 27.958C6.64006 27.7941 5.42135 27.4937 4.42073 27.0567C3.44576 26.6196 2.63757 25.8685 1.99614 24.8033C1.38037 23.7107 0.982689 22.304 0.80309 20.5833C0.623491 18.8625 0.533691 16.8276 0.533691 14.4786C0.533691 12.2662 0.559348 10.682 0.610662 9.72601C0.661976 8.74271 0.867232 7.34971 1.22643 5.54699C1.61129 3.74428 2.52211 2.43321 3.9589 1.6138C5.39569 0.794383 7.29431 0.384675 9.65475 0.384675ZM10.309 25.172L16.9285 25.2949H20.1228C21.9445 25.2949 23.7789 25.1993 25.6262 25.0081C27.4735 24.8169 28.6922 24.175 29.2824 23.0825C29.8981 21.9626 30.206 20.2965 30.206 18.0841L30.283 12.4711C30.283 10.7503 30.2188 9.26168 30.0906 8.00524C29.9623 6.72149 29.68 5.75185 29.2439 5.09631C28.8077 4.41347 28.2304 3.97645 27.512 3.78525C26.8193 3.56674 26.1009 3.43017 25.3568 3.37554C24.6384 3.2936 23.8687 3.25263 23.0477 3.25263L17.0055 3.21166L11.0402 3.33457C8.11533 3.33457 6.19106 3.74428 5.26741 4.56369C4.34376 5.3558 3.88193 7.25411 3.88193 10.2586L3.76647 14.3557V16.3633C3.76647 19.8048 4.11284 22.1402 4.80558 23.3693C5.49832 24.5711 7.3328 25.172 10.309 25.172Z" fill="white"/>
<path d="M63.3008 27.917H39.9016V0.589529H43.019V25.172H63.3008V27.917Z" fill="white"/>
<path d="M96.0021 0.589529L81.1852 16.2813V27.917H78.0678V16.2813L63.2894 0.589529H67.7152L79.6072 13.4134L91.5762 0.589529H96.0021Z" fill="white"/>
<path d="M117.961 27.917L101.951 3.37554V27.917H98.8335V0.589529H103.914L119.231 24.0248L134.625 0.589529H139.628V27.917H136.511V3.37554L120.462 27.917H117.961Z" fill="white"/>
<path d="M175.692 8.37398C175.692 9.93087 175.589 11.3102 175.384 12.512C175.179 13.7138 174.768 14.6425 174.152 15.298C173.562 15.9536 172.818 16.4452 171.92 16.773C171.022 17.0734 169.675 17.2237 167.879 17.2237H149.906V27.917H146.789V0.589529H168.072C170.868 0.589529 172.831 1.14946 173.96 2.26933C175.114 3.36189 175.692 5.39677 175.692 8.37398ZM172.459 8.53786C172.459 6.62589 172.125 5.28751 171.458 4.52272C170.791 3.75794 169.56 3.37554 167.764 3.37554H149.906V14.4786H165.993C168.559 14.4786 170.278 14.1372 171.15 13.4544C172.023 12.7715 172.459 11.1327 172.459 8.53786Z" fill="white"/>
<path d="M184.183 27.917H181.065V0.589529H184.183V27.917Z" fill="white"/>
<path d="M190.633 27.917H186.977L202.14 0.589529H206.296L221.575 27.917H217.996L214.648 21.7714H193.904L190.633 27.917ZM195.367 19.0264H213.185L204.218 3.00681L195.367 19.0264Z" fill="white"/>
<path d="M262.923 8.37398C262.923 9.93087 262.82 11.3102 262.615 12.512C262.41 13.7138 261.999 14.6425 261.384 15.298C260.793 15.9536 260.049 16.4452 259.151 16.773C258.253 17.0734 256.906 17.2237 255.11 17.2237H237.138V27.917H234.02V0.589529H255.303C258.099 0.589529 260.062 1.14946 261.191 2.26933C262.346 3.36189 262.923 5.39677 262.923 8.37398ZM259.69 8.53786C259.69 6.62589 259.357 5.28751 258.69 4.52272C258.022 3.75794 256.791 3.37554 254.995 3.37554H237.138V14.4786H253.225C255.79 14.4786 257.509 14.1372 258.382 13.4544C259.254 12.7715 259.69 11.1327 259.69 8.53786Z" fill="white"/>
<path d="M267.604 27.917H263.948L279.111 0.589529H283.267L298.546 27.917H294.967L291.619 21.7714H270.875L267.604 27.917ZM272.337 19.0264H290.156L281.189 3.00681L272.337 19.0264Z" fill="white"/>
<path d="M330.965 8.70174C330.965 11.16 330.619 12.8534 329.926 13.7821C329.259 14.6835 327.784 15.3117 325.5 15.6668C327.219 15.9126 328.477 16.3633 329.272 17.0188C330.093 17.647 330.504 18.8079 330.504 20.5013V27.917H327.425V21.8534C327.425 19.8321 327.014 18.4938 326.193 17.8382C325.398 17.1827 323.999 16.8549 321.998 16.8549H304.487V27.917H301.37V0.589529H322.268C325.372 0.589529 327.591 1.14946 328.926 2.26933C330.285 3.36189 330.965 5.50602 330.965 8.70174ZM327.733 8.49689C327.733 6.36641 327.258 4.98706 326.309 4.35884C325.359 3.70331 323.794 3.37554 321.613 3.37554H304.487V14.1099H321.69C323.948 14.1099 325.513 13.7411 326.386 13.0037C327.284 12.2389 327.733 10.7366 327.733 8.49689Z" fill="white"/>
<path d="M361.627 0.589529H366.938L348.08 13.7821L368.208 27.917H362.589L344.77 15.1342H340.229V27.917H337.112V0.589529H340.229V12.3891H344.77L361.627 0.589529Z" fill="white"/>
<path d="M82.5658 51.5501C82.5658 52.9683 82.3522 53.932 81.9249 54.4411C81.4976 54.9502 80.5985 55.323 79.2276 55.5593C80.7409 55.5593 81.7736 55.8866 82.3255 56.5412C82.8952 57.1776 83.1801 58.2958 83.1801 59.8959C83.1801 61.8778 82.7261 63.2596 81.8181 64.0415C80.9101 64.8052 79.4234 65.187 77.3581 65.187H62.5361V46.9954H77.5985C79.2187 46.9954 80.4471 47.3499 81.2839 48.059C82.1385 48.7682 82.5658 49.9318 82.5658 51.5501ZM80.3225 51.741C80.3225 50.5955 80.0733 49.8318 79.5747 49.45C79.0762 49.05 78.2394 48.85 77.0644 48.85H64.6993V54.7957H76.7439C78.008 54.7957 78.916 54.5866 79.4679 54.1684C80.0377 53.7502 80.3225 52.941 80.3225 51.741ZM80.9368 60.2232C80.9368 59.4231 80.8744 58.7776 80.7498 58.2867C80.6252 57.7776 80.3581 57.4049 79.9486 57.1685C79.5391 56.9321 79.1029 56.7867 78.64 56.7321C78.1949 56.6594 77.7053 56.623 77.1712 56.623H64.6993V63.3596H76.9308C78.3017 63.3596 79.3077 63.1505 79.9486 62.7323C80.6074 62.296 80.9368 61.4596 80.9368 60.2232Z" fill="#CCCCCC"/>
<path d="M100.638 65.187L89.5285 48.85V65.187H87.3653V46.9954H90.8905L101.52 62.596L112.202 46.9954H115.674V65.187H113.511V48.85L102.374 65.187H100.638Z" fill="#CCCCCC"/>
<path d="M154.747 46.9954L146.254 65.187H143.263L136.293 49.1227L129.243 65.187H126.305L117.812 46.9954H120.243L127.747 63.1687L134.798 46.9954H137.762L144.786 63.1687L152.344 46.9954H154.747Z" fill="#CCCCCC"/>
<path d="M179.809 49.3682C179.435 49.1864 178.758 49.0409 177.779 48.9318C176.8 48.8045 175.536 48.7409 173.987 48.7409H173.239C172.064 48.7409 170.844 48.7954 169.58 48.9045C168.334 49.0136 167.426 49.1954 166.856 49.45C166.287 49.7046 165.922 50.05 165.761 50.4864C165.601 50.9228 165.521 51.4501 165.521 52.0683C165.521 53.1774 165.815 53.932 166.402 54.332C167.008 54.732 167.88 54.932 169.02 54.932L170.969 54.9866L175.162 54.9593C175.892 54.9593 176.542 54.9684 177.112 54.9866C177.681 55.0048 178.536 55.0775 179.675 55.2048C180.833 55.3321 181.758 55.7503 182.453 56.4594C183.165 57.1503 183.521 58.3413 183.521 60.0322C183.521 61.1414 183.352 62.0687 183.014 62.8142C182.675 63.5415 182.097 64.096 181.278 64.4779C180.477 64.8415 179.497 65.0779 178.34 65.187C177.201 65.2961 175.954 65.3506 174.601 65.3506H173.186C171.85 65.3506 170.844 65.3324 170.168 65.2961C169.509 65.2779 168.485 65.1779 167.097 64.9961C165.726 64.8142 164.747 64.3415 164.159 63.5778C163.571 62.796 163.278 61.4414 163.278 59.514H165.441V59.8959C165.441 60.8232 165.521 61.5141 165.681 61.9687C165.859 62.4051 166.295 62.7323 166.99 62.9505C167.702 63.1505 168.646 63.2869 169.821 63.3596C170.996 63.4142 172.153 63.4415 173.293 63.4415C175.144 63.4415 176.702 63.3596 177.966 63.196C179.248 63.0324 180.12 62.7233 180.583 62.2687C181.046 61.8141 181.278 61.0686 181.278 60.0322C181.278 58.7231 180.975 57.8958 180.37 57.5503C179.782 57.1867 178.776 57.0048 177.352 57.0048L173.266 56.9503L168.485 56.8139C166.812 56.8139 165.521 56.4866 164.613 55.8321C163.705 55.1775 163.251 54.0684 163.251 52.5047C163.251 51.2683 163.447 50.2409 163.838 49.4227C164.23 48.5863 164.889 47.9954 165.815 47.6499C166.758 47.2863 167.862 47.059 169.126 46.9681C170.39 46.859 171.806 46.8044 173.373 46.8044C174.672 46.8044 175.607 46.8226 176.177 46.859C176.764 46.8772 177.708 46.959 179.008 47.1045C180.325 47.2317 181.331 47.6863 182.025 48.4681C182.72 49.25 183.067 50.4409 183.067 52.041H180.904C180.904 51.2228 180.806 50.6137 180.61 50.2137C180.432 49.8137 180.165 49.5318 179.809 49.3682Z" fill="#CCCCCC"/>
<path d="M204.84 54.8502V56.6776H189.911V63.3596H205.588V65.187H187.748V46.9954H205.401V48.85H189.911V54.8502H204.84Z" fill="#CCCCCC"/>
<path d="M230.401 52.3956C230.401 54.032 230.161 55.1593 229.68 55.7775C229.217 56.3775 228.193 56.7957 226.609 57.0321C227.802 57.1958 228.674 57.4958 229.226 57.9322C229.796 58.3504 230.081 59.1231 230.081 60.2504V65.187H227.944V61.1505C227.944 59.805 227.659 58.914 227.09 58.4776C226.538 58.0413 225.567 57.8231 224.179 57.8231H212.027V65.187H209.864V46.9954H224.366C226.52 46.9954 228.06 47.3681 228.986 48.1136C229.929 48.8409 230.401 50.2682 230.401 52.3956ZM228.158 52.2592C228.158 50.841 227.828 49.9227 227.17 49.5045C226.511 49.0682 225.425 48.85 223.912 48.85H212.027V55.9957H223.965C225.532 55.9957 226.618 55.7503 227.223 55.2593C227.846 54.7502 228.158 53.7502 228.158 52.2592Z" fill="#CCCCCC"/>
<path d="M254.242 46.9954L244.361 65.187H241.396L231.649 46.9954H234.159L242.892 63.2233L251.758 46.9954H254.242Z" fill="#CCCCCC"/>
<path d="M258.346 65.187H256.183V46.9954H258.346V65.187Z" fill="#CCCCCC"/>
<path d="M278.151 65.2961L273.558 65.3779L271.582 65.4052L267.629 65.2143C264.46 64.887 262.875 63.1505 262.875 60.005L262.769 56.5412C262.769 55.1593 262.777 54.132 262.795 53.4593C262.831 52.7865 262.964 51.8501 263.196 50.65C263.427 49.45 263.988 48.5409 264.878 47.9227C265.769 47.3045 267.006 46.9954 268.591 46.9954C269.303 46.9226 269.97 46.8772 270.594 46.859C271.234 46.8408 271.982 46.8317 272.837 46.8317H273.478L276.042 46.8044C277.074 46.8044 277.911 46.8317 278.552 46.8863C279.193 46.9226 280.03 47.0499 281.062 47.2681C282.113 47.4863 282.843 48.0681 283.252 49.0136C283.662 49.9591 283.867 51.2228 283.867 52.8047H281.73V52.641C281.73 51.8228 281.677 51.1501 281.57 50.6228C281.481 50.0955 281.249 49.7136 280.875 49.4773C280.519 49.2409 279.852 49.0591 278.872 48.9318C277.893 48.8045 276.54 48.7409 274.813 48.7409C274.172 48.7409 273.202 48.7682 271.902 48.8227C270.602 48.8773 269.623 48.9045 268.964 48.9045C267.433 49.0318 266.454 49.3136 266.027 49.75C265.599 50.1682 265.332 50.9046 265.226 51.9592C265.119 53.0138 265.056 53.9775 265.039 54.8502C265.021 55.7048 265.012 56.523 265.012 57.3049C265.012 59.614 265.234 61.205 265.68 62.0778C266.142 62.9505 267.353 63.3869 269.312 63.3869L273.478 63.4415L277.457 63.3869C279.095 63.3869 280.235 63.1869 280.875 62.7869C281.516 62.3869 281.837 61.4232 281.837 59.8959V59.1595H284.08C284.08 61.5414 283.724 63.1596 283.012 64.0142C282.3 64.8688 280.68 65.2961 278.151 65.2961Z" fill="#CCCCCC"/>
<path d="M305.458 54.8502V56.6776H290.529V63.3596H306.206V65.187H288.366V46.9954H306.019V48.85H290.529V54.8502H305.458Z" fill="#CCCCCC"/>
</svg>
