<svg width="350" height="330" viewBox="0 0 350 330" fill="none" xmlns="http://www.w3.org/2000/svg">
<g clip-path="url(#clip0_403_497)">
<path d="M50.4251 154.059L58.4226 154C62.1819 154 64.5857 154.548 65.634 155.645C66.7003 156.721 67.2335 159.247 67.2335 163.222V164.543C67.2335 165.953 67.1521 167.441 66.9895 169.007C66.8449 170.554 66.3298 171.748 65.4442 172.59C64.5767 173.432 63.2663 173.853 61.5132 173.853C60.971 173.912 60.2752 173.951 59.4257 173.971C58.5943 173.99 57.7991 174 57.04 174H52.5126C51.4101 174 50.3438 173.941 49.3136 173.824C48.3015 173.706 47.443 173.491 46.7381 173.178C46.0513 172.864 45.482 172.326 45.0302 171.562C44.5964 170.779 44.3163 169.771 44.1898 168.537C44.0633 167.304 44 165.845 44 164.162C44 162.576 44.0181 161.44 44.0542 160.755C44.0904 160.05 44.235 159.051 44.488 157.759C44.7591 156.467 45.4007 155.527 46.4128 154.94C47.4249 154.352 48.7624 154.059 50.4251 154.059ZM50.886 171.827L55.549 171.915H57.7991C59.0823 171.915 60.3746 171.846 61.6759 171.709C62.9772 171.572 63.8357 171.112 64.2514 170.329C64.6851 169.526 64.902 168.332 64.902 166.746L64.9562 162.722C64.9562 161.489 64.911 160.422 64.8207 159.521C64.7303 158.601 64.5315 157.906 64.2242 157.436C63.917 156.947 63.5103 156.633 63.0043 156.496C62.5163 156.34 62.0102 156.242 61.4861 156.203C60.98 156.144 60.4378 156.115 59.8595 156.115L55.6032 156.085L51.4011 156.173C49.3407 156.173 47.9852 156.467 47.3346 157.054C46.6839 157.622 46.3586 158.983 46.3586 161.137L46.2773 164.073V165.512C46.2773 167.979 46.5213 169.653 47.0092 170.535C47.4972 171.396 48.7895 171.827 50.886 171.827Z" fill="white"/>
<path d="M88.2149 173.794H71.7319V154.206H73.9278V171.827H88.2149V173.794Z" fill="white"/>
<path d="M111.251 154.206L100.813 165.454V173.794H98.6172V165.454L88.2069 154.206H91.3245L99.7016 163.398L108.133 154.206H111.251Z" fill="white"/>
<path d="M126.719 173.794L115.441 156.203V173.794H113.245V154.206H116.824L127.613 171.004L138.458 154.206H141.982V173.794H139.786V156.203L128.481 173.794H126.719Z" fill="white"/>
<path d="M167.386 159.786C167.386 160.902 167.314 161.89 167.169 162.752C167.025 163.613 166.735 164.279 166.302 164.749C165.886 165.219 165.362 165.571 164.729 165.806C164.097 166.022 163.148 166.129 161.883 166.129H149.222V173.794H147.026V154.206H162.018C163.988 154.206 165.371 154.607 166.166 155.41C166.979 156.193 167.386 157.651 167.386 159.786ZM165.109 159.903C165.109 158.533 164.874 157.573 164.404 157.025C163.934 156.477 163.067 156.203 161.801 156.203H149.222V164.162H160.554C162.362 164.162 163.573 163.917 164.187 163.427C164.802 162.938 165.109 161.763 165.109 159.903Z" fill="white"/>
<path d="M173.367 173.794H171.171V154.206H173.367V173.794Z" fill="white"/>
<path d="M177.911 173.794H175.336L186.017 154.206H188.945L199.708 173.794H197.186L194.828 169.389H180.215L177.911 173.794ZM181.246 167.421H193.798L187.481 155.938L181.246 167.421Z" fill="white"/>
<path d="M228.834 159.786C228.834 160.902 228.762 161.89 228.617 162.752C228.473 163.613 228.184 164.279 227.75 164.749C227.334 165.219 226.81 165.571 226.177 165.806C225.545 166.022 224.596 166.129 223.331 166.129H210.67V173.794H208.474V154.206H223.466C225.436 154.206 226.819 154.607 227.614 155.41C228.428 156.193 228.834 157.651 228.834 159.786ZM226.557 159.903C226.557 158.533 226.322 157.573 225.852 157.025C225.382 156.477 224.515 156.203 223.25 156.203H210.67V164.162H222.002C223.81 164.162 225.021 163.917 225.635 163.427C226.25 162.938 226.557 161.763 226.557 159.903Z" fill="white"/>
<path d="M232.132 173.794H229.556L240.237 154.206H243.165L253.928 173.794H251.407L249.048 169.389H234.436L232.132 173.794ZM235.466 167.421H248.018L241.701 155.938L235.466 167.421Z" fill="white"/>
<path d="M276.765 160.021C276.765 161.783 276.521 162.997 276.033 163.662C275.563 164.308 274.524 164.759 272.915 165.013C274.126 165.189 275.012 165.512 275.572 165.982C276.151 166.433 276.44 167.265 276.44 168.479V173.794H274.271V169.448C274.271 167.999 273.982 167.04 273.403 166.57C272.843 166.1 271.858 165.865 270.448 165.865H258.113V173.794H255.917V154.206H270.638C272.825 154.206 274.388 154.607 275.328 155.41C276.286 156.193 276.765 157.73 276.765 160.021ZM274.488 159.874C274.488 158.347 274.154 157.358 273.485 156.907C272.816 156.438 271.714 156.203 270.177 156.203H258.113V163.897H270.232C271.822 163.897 272.925 163.633 273.539 163.104C274.172 162.556 274.488 161.479 274.488 159.874Z" fill="white"/>
<path d="M298.364 154.206H302.105L288.821 163.662L303 173.794H299.042L286.49 164.631H283.291V173.794H281.095V154.206H283.291V162.664H286.49L298.364 154.206Z" fill="white"/>
<path d="M102.056 207.572C102.056 208.639 101.906 209.365 101.606 209.748C101.307 210.131 100.676 210.412 99.7135 210.589C100.776 210.589 101.5 210.836 101.888 211.328C102.287 211.807 102.487 212.649 102.487 213.853C102.487 215.345 102.169 216.385 101.531 216.974C100.894 217.548 99.851 217.836 98.4016 217.836H88V204.144H98.5703C99.7073 204.144 100.569 204.411 101.157 204.944C101.756 205.478 102.056 206.354 102.056 207.572ZM100.482 207.716C100.482 206.853 100.307 206.279 99.9572 205.991C99.6073 205.69 99.0201 205.54 98.1955 205.54H89.5181V210.015H97.9706C98.8577 210.015 99.4949 209.857 99.8822 209.543C100.282 209.228 100.482 208.619 100.482 207.716ZM100.913 214.1C100.913 213.498 100.869 213.012 100.782 212.642C100.694 212.259 100.507 211.978 100.22 211.801C99.9322 211.623 99.6261 211.513 99.3012 211.472C98.9889 211.417 98.6453 211.39 98.2704 211.39H89.5181V216.46H98.1018C99.0638 216.46 99.7698 216.303 100.22 215.988C100.682 215.66 100.913 215.03 100.913 214.1Z" fill="#F9F9F9"/>
<path d="M114.739 217.836L106.942 205.54V217.836H105.424V204.144H107.898L115.357 215.886L122.854 204.144H125.291V217.836H123.772V205.54L115.957 217.836H114.739Z" fill="#F9F9F9"/>
<path d="M152.711 204.144L146.751 217.836H144.652L139.76 205.745L134.813 217.836H132.751L126.791 204.144H128.497L133.763 216.317L138.711 204.144H140.791L145.72 216.317L151.024 204.144H152.711Z" fill="#F9F9F9"/>
<path d="M170.298 205.93C170.036 205.793 169.561 205.683 168.874 205.601C168.187 205.505 167.3 205.457 166.213 205.457H165.688C164.863 205.457 164.008 205.499 163.12 205.581C162.246 205.663 161.609 205.8 161.209 205.991C160.809 206.183 160.553 206.443 160.44 206.771C160.328 207.1 160.272 207.497 160.272 207.962C160.272 208.797 160.478 209.365 160.89 209.666C161.315 209.967 161.927 210.117 162.727 210.117L164.095 210.158L167.037 210.138C167.55 210.138 168.006 210.145 168.406 210.158C168.805 210.172 169.405 210.227 170.205 210.323C171.017 210.418 171.667 210.733 172.154 211.267C172.654 211.787 172.904 212.683 172.904 213.956C172.904 214.791 172.785 215.489 172.547 216.05C172.31 216.597 171.904 217.015 171.329 217.302C170.767 217.576 170.08 217.754 169.268 217.836C168.468 217.918 167.593 217.959 166.644 217.959H165.651C164.713 217.959 164.008 217.945 163.533 217.918C163.07 217.904 162.352 217.829 161.377 217.692C160.415 217.555 159.728 217.199 159.316 216.625C158.904 216.036 158.697 215.017 158.697 213.566H160.215V213.853C160.215 214.551 160.272 215.071 160.384 215.413C160.509 215.742 160.815 215.988 161.302 216.152C161.802 216.303 162.464 216.406 163.289 216.46C164.114 216.501 164.926 216.522 165.726 216.522C167.025 216.522 168.118 216.46 169.005 216.337C169.905 216.214 170.517 215.981 170.842 215.639C171.167 215.297 171.329 214.736 171.329 213.956C171.329 212.971 171.117 212.348 170.692 212.088C170.28 211.814 169.574 211.677 168.574 211.677L165.707 211.636L162.352 211.534C161.178 211.534 160.272 211.287 159.634 210.795C158.997 210.302 158.679 209.467 158.679 208.29C158.679 207.36 158.816 206.587 159.091 205.971C159.366 205.341 159.828 204.896 160.478 204.636C161.14 204.363 161.915 204.192 162.802 204.123C163.689 204.041 164.682 204 165.782 204C166.694 204 167.35 204.014 167.75 204.041C168.162 204.055 168.824 204.116 169.736 204.226C170.661 204.322 171.367 204.664 171.854 205.252C172.341 205.841 172.585 206.737 172.585 207.941H171.067C171.067 207.326 170.998 206.867 170.861 206.566C170.736 206.265 170.548 206.053 170.298 205.93Z" fill="#F9F9F9"/>
<path d="M187.865 210.056V211.431H177.388V216.46H188.389V217.836H175.87V204.144H188.258V205.54H177.388V210.056H187.865Z" fill="#F9F9F9"/>
<path d="M205.803 208.208C205.803 209.44 205.634 210.288 205.297 210.754C204.972 211.205 204.253 211.52 203.141 211.698C203.978 211.821 204.591 212.047 204.978 212.375C205.378 212.69 205.578 213.272 205.578 214.12V217.836H204.078V214.798C204.078 213.785 203.879 213.114 203.479 212.786C203.091 212.457 202.41 212.293 201.436 212.293H192.908V217.836H191.39V204.144H201.567C203.079 204.144 204.16 204.424 204.809 204.985C205.472 205.533 205.803 206.607 205.803 208.208ZM204.228 208.106C204.228 207.038 203.997 206.347 203.535 206.032C203.073 205.704 202.31 205.54 201.248 205.54H192.908V210.918H201.286C202.385 210.918 203.148 210.733 203.572 210.364C204.01 209.98 204.228 209.228 204.228 208.106Z" fill="#F9F9F9"/>
<path d="M222.534 204.144L215.599 217.836H213.519L206.678 204.144H208.44L214.568 216.358L220.791 204.144H222.534Z" fill="#F9F9F9"/>
<path d="M225.413 217.836H223.895V204.144H225.413V217.836Z" fill="#F9F9F9"/>
<path d="M239.312 217.918L236.089 217.979L234.702 218L231.928 217.856C229.704 217.61 228.592 216.303 228.592 213.935L228.517 211.328C228.517 210.288 228.523 209.515 228.536 209.009C228.561 208.502 228.655 207.798 228.817 206.894C228.979 205.991 229.373 205.307 229.998 204.842C230.622 204.376 231.491 204.144 232.603 204.144C233.103 204.089 233.571 204.055 234.008 204.041C234.458 204.027 234.983 204.021 235.583 204.021H236.033L237.832 204C238.556 204 239.144 204.021 239.593 204.062C240.043 204.089 240.63 204.185 241.355 204.349C242.092 204.513 242.605 204.951 242.892 205.663C243.179 206.374 243.323 207.326 243.323 208.516H241.824V208.393C241.824 207.777 241.786 207.271 241.711 206.874C241.649 206.477 241.486 206.19 241.224 206.012C240.974 205.834 240.506 205.697 239.818 205.601C239.131 205.505 238.182 205.457 236.97 205.457C236.52 205.457 235.839 205.478 234.927 205.519C234.015 205.56 233.327 205.581 232.865 205.581C231.791 205.676 231.103 205.889 230.804 206.217C230.504 206.532 230.316 207.086 230.241 207.88C230.166 208.674 230.123 209.399 230.11 210.056C230.098 210.699 230.091 211.315 230.091 211.903C230.091 213.641 230.248 214.839 230.56 215.496C230.885 216.152 231.734 216.481 233.109 216.481L236.033 216.522L238.825 216.481C239.975 216.481 240.774 216.33 241.224 216.029C241.674 215.728 241.899 215.003 241.899 213.853V213.299H243.473C243.473 215.092 243.223 216.31 242.723 216.953C242.224 217.596 241.087 217.918 239.312 217.918Z" fill="#F9F9F9"/>
<path d="M258.475 210.056V211.431H247.999V216.46H259V217.836H246.481V204.144H258.869V205.54H247.999V210.056H258.475Z" fill="#F9F9F9"/>
</g>
<defs>
<clipPath id="clip0_403_497">
<rect width="350" height="330" fill="white"/>
</clipPath>
</defs>
</svg>
