<svg width="269" height="150" viewBox="0 0 269 150" fill="none" xmlns="http://www.w3.org/2000/svg">
<path d="M93.8659 117.099H45.8345L37.4465 144H0L53.3238 0H86.2767L140 144H102.354L93.8659 117.099ZM54.2225 90.2967H85.4779L69.8003 40.3517L54.2225 90.2967Z" fill="white"/>
<path d="M187.551 19.7808H182.724V27.7301H180V8.07969H186.803C189.117 8.07969 190.896 8.58355 192.138 9.59126C193.389 10.599 194.015 12.0656 194.015 13.991C194.015 15.2147 193.667 16.2808 192.97 17.1896C192.283 18.0983 191.324 18.7776 190.091 19.2275L194.918 27.5681V27.7301H192.011L187.551 19.7808ZM182.724 17.662H186.887C188.233 17.662 189.301 17.329 190.091 16.6632C190.891 15.9974 191.291 15.1067 191.291 13.991C191.291 12.7763 190.91 11.8451 190.148 11.1973C189.395 10.5495 188.303 10.2211 186.873 10.2121H182.724V17.662Z" fill="#CCCCCC"/>
<path d="M196.725 20.2937C196.725 18.8631 197.016 17.5765 197.6 16.4338C198.192 15.2911 199.011 14.4094 200.055 13.7886C201.109 13.1677 202.309 12.8573 203.654 12.8573C205.734 12.8573 207.413 13.5456 208.693 14.9222C209.982 16.2988 210.626 18.1298 210.626 20.4152V20.5906C210.626 22.0122 210.339 23.2898 209.765 24.4235C209.201 25.5482 208.387 26.4255 207.324 27.0553C206.27 27.6851 205.056 28 203.683 28C201.613 28 199.933 27.3117 198.644 25.9351C197.364 24.5585 196.725 22.7365 196.725 20.4692V20.2937ZM199.35 20.5906C199.35 22.2102 199.74 23.5103 200.521 24.491C201.311 25.4717 202.365 25.9621 203.683 25.9621C205.009 25.9621 206.063 25.4672 206.844 24.4775C207.625 23.4788 208.015 22.0842 208.015 20.2937C208.015 18.6922 207.615 17.3965 206.816 16.4068C206.025 15.4081 204.972 14.9087 203.654 14.9087C202.365 14.9087 201.326 15.3991 200.535 16.3798C199.745 17.3605 199.35 18.7641 199.35 20.5906Z" fill="#CCCCCC"/>
<path d="M226.829 20.5906C226.829 22.822 226.292 24.617 225.22 25.9756C224.147 27.3252 222.708 28 220.901 28C218.972 28 217.481 27.3477 216.427 26.0431L216.3 27.7301H213.901V7H216.512V14.7333C217.566 13.4826 219.019 12.8573 220.873 12.8573C222.726 12.8573 224.18 13.5276 225.234 14.8683C226.297 16.2089 226.829 18.0443 226.829 20.3747V20.5906ZM224.218 20.3072C224.218 18.6067 223.874 17.2931 223.187 16.3663C222.501 15.4396 221.513 14.9762 220.224 14.9762C218.502 14.9762 217.264 15.741 216.512 17.2706V23.5868C217.312 25.1163 218.558 25.8811 220.252 25.8811C221.503 25.8811 222.477 25.4177 223.173 24.491C223.87 23.5643 224.218 22.1697 224.218 20.3072Z" fill="#CCCCCC"/>
<path d="M229.44 20.2937C229.44 18.8631 229.731 17.5765 230.315 16.4338C230.908 15.2911 231.726 14.4094 232.771 13.7886C233.824 13.1677 235.024 12.8573 236.369 12.8573C238.449 12.8573 240.128 13.5456 241.408 14.9222C242.697 16.2988 243.342 18.1298 243.342 20.4152V20.5906C243.342 22.0122 243.055 23.2898 242.481 24.4235C241.916 25.5482 241.102 26.4255 240.039 27.0553C238.985 27.6851 237.771 28 236.398 28C234.328 28 232.648 27.3117 231.359 25.9351C230.08 24.5585 229.44 22.7365 229.44 20.4692V20.2937ZM232.065 20.5906C232.065 22.2102 232.455 23.5103 233.236 24.491C234.027 25.4717 235.08 25.9621 236.398 25.9621C237.724 25.9621 238.778 25.4672 239.559 24.4775C240.34 23.4788 240.731 22.0842 240.731 20.2937C240.731 18.6922 240.331 17.3965 239.531 16.4068C238.741 15.4081 237.687 14.9087 236.369 14.9087C235.08 14.9087 234.041 15.3991 233.25 16.3798C232.46 17.3605 232.065 18.7641 232.065 20.5906Z" fill="#CCCCCC"/>
<path d="M250.158 9.59126V13.1272H253.009V15.0572H250.158V24.1131C250.158 24.6979 250.285 25.1388 250.539 25.4357C250.794 25.7237 251.226 25.8676 251.838 25.8676C252.139 25.8676 252.553 25.8136 253.08 25.7057V27.7301C252.393 27.91 251.725 28 251.076 28C249.909 28 249.029 27.6626 248.437 26.9878C247.844 26.313 247.547 25.3548 247.547 24.1131V15.0572H244.767V13.1272H247.547V9.59126H250.158Z" fill="#CCCCCC"/>
<path d="M255.098 20.2937C255.098 18.8631 255.39 17.5765 255.973 16.4338C256.566 15.2911 257.385 14.4094 258.429 13.7886C259.483 13.1677 260.682 12.8573 262.028 12.8573C264.107 12.8573 265.787 13.5456 267.066 14.9222C268.355 16.2988 269 18.1298 269 20.4152V20.5906C269 22.0122 268.713 23.2898 268.139 24.4235C267.575 25.5482 266.761 26.4255 265.697 27.0553C264.644 27.6851 263.43 28 262.056 28C259.986 28 258.307 27.3117 257.018 25.9351C255.738 24.5585 255.098 22.7365 255.098 20.4692V20.2937ZM257.723 20.5906C257.723 22.2102 258.114 23.5103 258.895 24.491C259.685 25.4717 260.739 25.9621 262.056 25.9621C263.383 25.9621 264.437 25.4672 265.218 24.4775C265.999 23.4788 266.389 22.0842 266.389 20.2937C266.389 18.6922 265.989 17.3965 265.189 16.4068C264.399 15.4081 263.345 14.9087 262.028 14.9087C260.739 14.9087 259.699 15.3991 258.909 16.3798C258.118 17.3605 257.723 18.7641 257.723 20.5906Z" fill="#CCCCCC"/>
<path d="M184.379 62.8053C184.158 62.765 183.921 62.7448 183.67 62.7448C183.016 62.7448 182.461 62.9263 182.006 63.2893C181.556 63.6465 181.235 64.1679 181.042 64.8536V71.275H180V61.9237H181.025L181.042 63.4103C181.597 62.304 182.488 61.7509 183.714 61.7509C184.006 61.7509 184.236 61.7883 184.406 61.8632L184.379 62.8053Z" fill="#CCCCCC"/>
<path d="M189.538 71.4479C188.733 71.4479 188.003 71.252 187.349 70.8602C186.701 70.4684 186.195 69.9239 185.833 69.2267C185.471 68.5238 185.29 67.7373 185.29 66.8673V66.4957C185.29 65.5968 185.466 64.7873 185.816 64.0671C186.172 63.3469 186.666 62.7822 187.296 62.3732C187.927 61.9583 188.61 61.7509 189.346 61.7509C190.496 61.7509 191.407 62.1398 192.078 62.9176C192.756 63.6897 193.095 64.747 193.095 66.0895V66.6685H186.333V66.8673C186.333 67.9275 186.639 68.8119 187.252 69.5206C187.871 70.2235 188.648 70.575 189.582 70.575C190.143 70.575 190.636 70.4742 191.062 70.2725C191.495 70.0708 191.886 69.7482 192.236 69.3045L192.893 69.7972C192.122 70.8976 191.004 71.4479 189.538 71.4479ZM189.346 62.6324C188.557 62.6324 187.892 62.9176 187.349 63.4881C186.811 64.0585 186.484 64.8248 186.368 65.787H192.052V65.6746C192.023 64.7758 191.763 64.0441 191.273 63.4794C190.782 62.9148 190.14 62.6324 189.346 62.6324Z" fill="#CCCCCC"/>
<path d="M194.715 66.513C194.715 65.0495 195.042 63.8914 195.696 63.0386C196.356 62.1801 197.249 61.7509 198.376 61.7509C199.667 61.7509 200.648 62.2579 201.319 63.272L201.372 61.9237H202.353V71.0849C202.353 72.2891 202.011 73.2427 201.328 73.9456C200.645 74.6485 199.719 75 198.551 75C197.891 75 197.261 74.8531 196.659 74.5592C196.064 74.2711 195.594 73.8851 195.249 73.4011L195.836 72.7789C196.578 73.6777 197.459 74.1271 198.481 74.1271C199.357 74.1271 200.04 73.8707 200.531 73.3579C201.021 72.8509 201.275 72.1451 201.293 71.2405V70.0651C200.621 70.987 199.643 71.4479 198.359 71.4479C197.261 71.4479 196.379 71.0158 195.713 70.1515C195.048 69.2872 194.715 68.1205 194.715 66.6512V66.513ZM195.775 66.6945C195.775 67.8871 196.017 68.8292 196.502 69.5206C196.986 70.2062 197.67 70.5491 198.551 70.5491C199.842 70.5491 200.756 69.9786 201.293 68.8378V64.4906C201.048 63.8914 200.694 63.4362 200.233 63.1251C199.772 62.8082 199.217 62.6497 198.569 62.6497C197.687 62.6497 197.001 62.9925 196.51 63.6782C196.02 64.3581 195.775 65.3635 195.775 66.6945Z" fill="#CCCCCC"/>
<path d="M211.182 70.091C210.551 70.9956 209.544 71.4479 208.16 71.4479C207.15 71.4479 206.382 71.1598 205.856 70.5836C205.331 70.0017 205.062 69.1432 205.05 68.0081V61.9237H206.093V67.8785C206.093 69.6589 206.823 70.5491 208.282 70.5491C209.801 70.5491 210.761 69.9297 211.164 68.6909V61.9237H212.215V71.275H211.199L211.182 70.091Z" fill="#CCCCCC"/>
<path d="M216.122 71.275H215.071V58H216.122V71.275Z" fill="#CCCCCC"/>
<path d="M224.959 71.275C224.854 70.9812 224.787 70.5462 224.758 69.97C224.39 70.4425 223.92 70.8083 223.348 71.0676C222.781 71.3211 222.18 71.4479 221.543 71.4479C220.632 71.4479 219.894 71.1973 219.327 70.696C218.767 70.1947 218.487 69.5609 218.487 68.7946C218.487 67.8843 218.869 67.164 219.634 66.634C220.405 66.1039 221.476 65.8388 222.848 65.8388H224.749V64.7758C224.749 64.1074 224.539 63.5831 224.118 63.2028C223.704 62.8168 223.097 62.6238 222.297 62.6238C221.567 62.6238 220.962 62.8082 220.484 63.1769C220.005 63.5457 219.765 63.9893 219.765 64.5079L218.714 64.4992C218.714 63.756 219.065 63.1135 219.765 62.5719C220.466 62.0246 221.327 61.7509 222.349 61.7509C223.406 61.7509 224.238 62.013 224.845 62.5374C225.459 63.0559 225.774 63.7819 225.791 64.7153V69.1403C225.791 70.0449 225.888 70.7219 226.08 71.1713V71.275H224.959ZM221.666 70.5318C222.367 70.5318 222.992 70.3647 223.54 70.0305C224.095 69.6963 224.498 69.2498 224.749 68.6909V66.634H222.875C221.83 66.6455 221.012 66.8356 220.422 67.2044C219.832 67.5674 219.538 68.0686 219.538 68.7082C219.538 69.2325 219.733 69.6675 220.124 70.0132C220.522 70.3589 221.035 70.5318 221.666 70.5318Z" fill="#CCCCCC"/>
<path d="M232.974 62.8053C232.752 62.765 232.515 62.7448 232.264 62.7448C231.61 62.7448 231.056 62.9263 230.6 63.2893C230.15 63.6465 229.829 64.1679 229.637 64.8536V71.275H228.594V61.9237H229.619L229.637 63.4103C230.191 62.304 231.082 61.7509 232.308 61.7509C232.6 61.7509 232.831 61.7883 233 61.8632L232.974 62.8053Z" fill="#CCCCCC"/>
<path d="M181.018 99.0848L181.054 100.668C181.408 100.081 181.85 99.6397 182.382 99.3458C182.913 99.0518 183.503 98.9049 184.152 98.9049C185.663 98.9049 186.622 99.5347 187.03 100.794C187.372 100.189 187.829 99.7237 188.402 99.3997C188.974 99.0698 189.606 98.9049 190.296 98.9049C192.35 98.9049 193.398 100.045 193.439 102.324V108.82H192.377V102.405C192.371 101.535 192.185 100.89 191.819 100.47C191.459 100.051 190.869 99.8406 190.048 99.8406C189.287 99.8526 188.644 100.105 188.118 100.596C187.593 101.082 187.301 101.676 187.242 102.378V108.82H186.18V102.324C186.174 101.49 185.979 100.869 185.595 100.461C185.218 100.048 184.633 99.8406 183.842 99.8406C183.175 99.8406 182.603 100.036 182.125 100.425C181.647 100.809 181.293 101.382 181.062 102.144V108.82H180V99.0848H181.018Z" fill="#CCCCCC"/>
<path d="M199.84 109C199.026 109 198.288 108.796 197.627 108.388C196.972 107.98 196.461 107.413 196.095 106.688C195.729 105.956 195.546 105.137 195.546 104.231V103.844C195.546 102.909 195.723 102.066 196.078 101.316C196.438 100.566 196.936 99.9786 197.574 99.5527C198.211 99.1208 198.902 98.9049 199.645 98.9049C200.808 98.9049 201.729 99.3098 202.408 100.12C203.092 100.923 203.435 102.024 203.435 103.422V104.024H196.6V104.231C196.6 105.335 196.91 106.256 197.53 106.994C198.155 107.725 198.94 108.091 199.884 108.091C200.451 108.091 200.95 107.986 201.381 107.776C201.817 107.566 202.213 107.231 202.567 106.769L203.231 107.281C202.452 108.427 201.322 109 199.84 109ZM199.645 99.8226C198.849 99.8226 198.176 100.12 197.627 100.713C197.084 101.307 196.753 102.105 196.635 103.107H202.381V102.99C202.352 102.054 202.089 101.292 201.593 100.704C201.097 100.117 200.448 99.8226 199.645 99.8226Z" fill="#CCCCCC"/>
<path d="M205.073 103.862C205.073 102.351 205.403 101.148 206.064 100.254C206.731 99.3548 207.634 98.9049 208.773 98.9049C210.066 98.9049 211.051 99.4237 211.73 100.461V95H212.784V108.82H211.792L211.748 107.524C211.069 108.508 210.072 109 208.755 109C207.652 109 206.761 108.55 206.082 107.65C205.409 106.745 205.073 105.524 205.073 103.988V103.862ZM206.144 104.051C206.144 105.293 206.389 106.274 206.879 106.994C207.368 107.707 208.059 108.064 208.95 108.064C210.255 108.064 211.181 107.479 211.73 106.31V101.739C211.181 100.473 210.261 99.8406 208.968 99.8406C208.077 99.8406 207.383 100.198 206.887 100.911C206.392 101.619 206.144 102.666 206.144 104.051Z" fill="#CCCCCC"/>
<path d="M216.759 108.82H215.696V99.0848H216.759V108.82ZM215.511 96.2686C215.511 96.0647 215.575 95.8937 215.705 95.7558C215.835 95.6118 216.012 95.5398 216.237 95.5398C216.461 95.5398 216.638 95.6118 216.768 95.7558C216.903 95.8937 216.971 96.0647 216.971 96.2686C216.971 96.4726 216.903 96.6435 216.768 96.7815C216.638 96.9195 216.461 96.9884 216.237 96.9884C216.012 96.9884 215.835 96.9195 215.705 96.7815C215.575 96.6435 215.511 96.4726 215.511 96.2686Z" fill="#CCCCCC"/>
<path d="M225.807 107.587C225.169 108.529 224.151 109 222.753 109C221.731 109 220.955 108.7 220.424 108.1C219.893 107.494 219.621 106.601 219.61 105.419V99.0848H220.663V105.284C220.663 107.138 221.401 108.064 222.876 108.064C224.411 108.064 225.382 107.419 225.789 106.13V99.0848H226.852V108.82H225.825L225.807 107.587Z" fill="#CCCCCC"/>
<path d="M230.579 99.0848L230.614 100.668C230.968 100.081 231.411 99.6397 231.942 99.3458C232.473 99.0518 233.064 98.9049 233.713 98.9049C235.224 98.9049 236.183 99.5347 236.59 100.794C236.933 100.189 237.39 99.7237 237.962 99.3997C238.535 99.0698 239.167 98.9049 239.857 98.9049C241.911 98.9049 242.959 100.045 243 102.324V108.82H241.938V102.405C241.932 101.535 241.746 100.89 241.38 100.47C241.02 100.051 240.43 99.8406 239.609 99.8406C238.848 99.8526 238.204 100.105 237.679 100.596C237.154 101.082 236.862 101.676 236.803 102.378V108.82H235.74V102.324C235.734 101.49 235.54 100.869 235.156 100.461C234.778 100.048 234.194 99.8406 233.403 99.8406C232.736 99.8406 232.164 100.036 231.686 100.425C231.207 100.809 230.853 101.382 230.623 102.144V108.82H229.561V99.0848H230.579Z" fill="#CCCCCC"/>
<path d="M187.576 138.051C187.576 139.569 187.252 140.775 186.603 141.668C185.954 142.556 185.083 143 183.988 143C182.679 143 181.688 142.496 181.017 141.488L180.973 142.82H180V129H181.034V134.497C181.694 133.436 182.673 132.905 183.971 132.905C185.083 132.905 185.96 133.346 186.603 134.228C187.252 135.103 187.576 136.324 187.576 137.889V138.051ZM186.534 137.862C186.534 136.579 186.293 135.589 185.813 134.893C185.332 134.192 184.654 133.841 183.779 133.841C183.113 133.841 182.549 134.012 182.085 134.353C181.622 134.689 181.271 135.184 181.034 135.838V140.229C181.555 141.452 182.476 142.064 183.797 142.064C184.654 142.064 185.323 141.713 185.804 141.012C186.29 140.31 186.534 139.26 186.534 137.862Z" fill="#CCCCCC"/>
<path d="M189.305 137.808C189.305 136.873 189.479 136.03 189.827 135.28C190.18 134.53 190.675 133.949 191.312 133.535C191.955 133.115 192.682 132.905 193.493 132.905C194.744 132.905 195.758 133.361 196.534 134.272C197.31 135.178 197.698 136.381 197.698 137.88V138.105C197.698 139.047 197.521 139.896 197.168 140.652C196.821 141.401 196.328 141.98 195.691 142.388C195.054 142.796 194.327 143 193.51 143C192.265 143 191.251 142.547 190.469 141.641C189.693 140.73 189.305 139.524 189.305 138.024V137.808ZM190.348 138.105C190.348 139.269 190.637 140.226 191.217 140.976C191.802 141.719 192.566 142.091 193.51 142.091C194.449 142.091 195.207 141.719 195.787 140.976C196.372 140.226 196.664 139.239 196.664 138.015V137.808C196.664 137.065 196.531 136.384 196.265 135.766C195.998 135.148 195.625 134.671 195.144 134.335C194.663 133.994 194.113 133.823 193.493 133.823C192.566 133.823 191.81 134.201 191.225 134.956C190.64 135.706 190.348 136.69 190.348 137.907V138.105Z" fill="#CCCCCC"/>
<path d="M201.017 142.82H199.974V129H201.017V142.82Z" fill="#CCCCCC"/>
<path d="M203.432 137.862C203.432 136.351 203.757 135.148 204.406 134.254C205.06 133.355 205.946 132.905 207.064 132.905C208.333 132.905 209.3 133.424 209.966 134.461V129H211V142.82H210.027L209.983 141.524C209.317 142.508 208.338 143 207.047 143C205.964 143 205.089 142.55 204.423 141.65C203.763 140.745 203.432 139.524 203.432 137.988V137.862ZM204.484 138.051C204.484 139.293 204.724 140.274 205.205 140.994C205.686 141.707 206.363 142.064 207.238 142.064C208.518 142.064 209.427 141.479 209.966 140.31V135.739C209.427 134.473 208.524 133.841 207.255 133.841C206.381 133.841 205.7 134.198 205.214 134.911C204.727 135.619 204.484 136.666 204.484 138.051Z" fill="#CCCCCC"/>
</svg>
