<svg width="390" height="366" viewBox="0 0 390 366" fill="none" xmlns="http://www.w3.org/2000/svg">
<g clip-path="url(#clip0_468_415)">
<rect x="-1" y="49.5122" width="193.26" height="79.0611" rx="39.5305" transform="rotate(-31.6857 -1 49.5122)" fill="#2D87DB"/>
<path d="M85.2378 52.8134L88.476 58.4222L62.4157 73.4681L59.5604 69.3258L60.8418 36.7203L66.5309 33.4357L66.3161 47.2921L65.9348 63.958L85.2378 52.8134ZM68.0712 32.5464L88.9334 68.6808L81.7786 72.8116L60.9164 36.6772L68.0712 32.5464Z" fill="#0F69BD"/>
<path d="M109.498 28.4828L113.108 34.7369C114.675 37.4502 115.737 39.9587 116.294 42.2622C116.841 44.5492 116.932 46.637 116.565 48.5255C116.204 50.3879 115.451 52.0472 114.304 53.5034C113.158 54.9596 111.673 56.2137 109.852 57.2655C108.394 58.1069 106.931 58.709 105.462 59.0718C103.984 59.4179 102.51 59.4856 101.041 59.2747C99.589 59.0543 98.1499 58.5505 96.7238 57.7635C95.3048 56.9503 93.9176 55.8099 92.5624 54.3422C91.2071 52.8746 89.8991 51.0488 88.6381 48.8648L85.0274 42.6108C83.4608 39.8974 82.4085 37.4055 81.8706 35.135C81.3397 32.8385 81.2542 30.759 81.6144 28.8966C81.991 27.0246 82.7575 25.3688 83.9137 23.9291C85.0604 22.4729 86.5447 21.2189 88.3665 20.1671C89.824 19.3256 91.2836 18.7366 92.7455 18.4C94.2143 18.0372 95.6784 17.953 97.1376 18.1474C98.5969 18.3417 100.036 18.8455 101.455 19.6586C102.865 20.4552 104.247 21.5874 105.602 23.055C106.948 24.5062 108.246 26.3154 109.498 28.4828ZM106.473 39.8251L101.759 31.6601C101.005 30.353 100.271 29.2545 99.5584 28.3644C98.8623 27.4647 98.1777 26.757 97.5045 26.2412C96.8217 25.7088 96.1491 25.3471 95.4867 25.156C94.8243 24.9649 94.1708 24.923 93.5262 25.0305C92.8816 25.1379 92.2363 25.3781 91.5904 25.751C90.7789 26.2196 90.1492 26.7927 89.7013 27.4704C89.27 28.1386 89.0396 28.9444 89.0102 29.8879C88.9713 30.8149 89.1654 31.9161 89.5926 33.1916C90.0269 34.4409 90.7121 35.8763 91.6482 37.4977L96.3623 45.6627C97.1169 46.9698 97.847 48.0814 98.5526 48.9976C99.2748 49.9043 99.9821 50.632 100.674 51.1809C101.374 51.7037 102.051 52.0737 102.706 52.2909C103.369 52.482 104.022 52.5239 104.667 52.4164C105.328 52.2994 105.982 52.0544 106.628 51.6815C107.423 51.2225 108.036 50.659 108.467 49.9908C108.905 49.2966 109.139 48.4777 109.169 47.5342C109.205 46.5646 109.001 45.4468 108.558 44.1809C108.114 42.915 107.419 41.463 106.473 39.8251Z" fill="#0F69BD"/>
<path d="M144.686 18.4909L147.924 24.0997L121.864 39.1456L119.009 35.0034L120.29 2.39778L125.979 -0.886791L125.764 12.9696L125.383 29.6355L144.686 18.4909ZM127.519 -1.77606L148.382 34.3583L141.227 38.4891L120.365 2.35475L127.519 -1.77606Z" fill="#0F69BD"/>
<rect x="190.454" y="8.94482" width="193.26" height="79.0611" rx="39.5305" transform="rotate(22.3251 190.454 8.94482)" fill="white"/>
<path d="M209.759 72.78L224.937 78.9935L226.65 74.8104L216.277 70.5639L217.619 67.2853L227.427 71.3004L229.139 67.1173L219.331 63.1022L220.373 60.5584L230.689 64.7818L232.402 60.5987L217.28 54.4083L209.759 72.78ZM229.467 80.8479L234.272 82.8149L236.875 76.4555L240.154 77.7977L241.96 85.9622L247.245 88.1259L247.673 87.0801L245.679 79.1353L245.748 78.9657C248.345 79.0717 250.63 77.763 251.682 75.191C253.129 71.658 251.233 68.3078 247.446 66.7574L236.988 62.4762L229.467 80.8479ZM245.618 71.2231C246.692 71.6628 247.167 72.5173 246.773 73.4783C246.368 74.4676 245.43 74.7436 244.356 74.3039L238.704 71.9898L239.965 68.909L245.618 71.2231ZM250.858 89.6051L255.663 91.5721L258.267 85.2127L261.545 86.5549L263.351 94.7193L268.637 96.8831L269.065 95.8373L267.07 87.8925L267.139 87.7229C269.736 87.8289 272.021 86.5202 273.074 83.9481C274.52 80.4151 272.625 77.065 268.837 75.5145L258.379 71.2333L250.858 89.6051ZM267.009 79.9803C268.083 80.42 268.558 81.2745 268.165 82.2355C267.76 83.2247 266.822 83.5008 265.748 83.0611L260.095 80.7469L261.356 77.6661L267.009 79.9803ZM281.127 102.392C286.95 104.776 292.813 102.787 295.22 96.9083L290.33 94.9065C288.999 98.1569 286.121 99.2227 282.955 97.9267C279.79 96.6308 278.485 93.8526 279.816 90.6022C281.135 87.3801 284.013 86.3144 287.179 87.6103C290.344 88.9062 291.649 91.6844 290.33 94.9065L295.22 96.9083C297.626 91.0293 294.829 85.5281 289.007 83.1446C283.156 80.7494 277.333 82.7215 274.926 88.6005C272.519 94.4794 275.276 99.9973 281.127 102.392ZM295.076 107.707L299.881 109.674L302.485 103.315L305.763 104.657L307.569 112.821L312.855 114.985L313.283 113.939L311.288 105.994L311.357 105.825C313.954 105.931 316.239 104.622 317.292 102.05C318.738 98.517 316.843 95.1669 313.055 93.6164L302.597 89.3353L295.076 107.707ZM311.227 98.0822C312.301 98.5219 312.776 99.3764 312.383 100.337C311.978 101.327 311.04 101.603 309.966 101.163L304.313 98.8488L305.574 95.768L311.227 98.0822Z" fill="#D95B4F"/>
<rect x="160.422" y="309.949" width="192.459" height="78.7333" rx="39.3666" transform="rotate(-15 160.422 309.949)" fill="#F2B94B"/>
<rect x="57.2625" y="218.135" width="192.459" height="78.7333" rx="39.3666" transform="rotate(15 57.2625 218.135)" fill="#F08F3B"/>
<rect x="168.349" y="228.244" width="193.26" height="79.3132" rx="39.6566" transform="rotate(-30 168.349 228.244)" fill="#32808D"/>
<path d="M255.736 211.055C257.006 213.254 256.267 216.057 254.085 217.317C251.903 218.577 249.106 217.815 247.836 215.616C246.566 213.417 247.306 210.613 249.487 209.354C251.669 208.094 254.467 208.856 255.736 211.055Z" fill="#78C6D3"/>
<path d="M274.9 202.35C276.169 204.549 275.43 207.353 273.248 208.613C271.067 209.872 268.269 209.111 266.999 206.912C265.73 204.713 266.469 201.909 268.651 200.649C270.832 199.39 273.63 200.151 274.9 202.35Z" fill="#78C6D3"/>
<path d="M253.475 230.629C253.475 230.629 258.191 222.848 266.085 218.992C273.98 215.136 283.697 216.289 283.697 216.289L285.966 221.056C285.966 221.056 276.981 219.476 268.281 223.604C260.191 227.442 255.744 235.395 255.744 235.395L253.475 230.629Z" fill="#78C6D3"/>
<rect x="36.1782" y="121.822" width="193.26" height="79.0611" rx="39.5305" transform="rotate(-16.6857 36.1782 121.822)" fill="#4B4B4B"/>
<path d="M116.402 145.361L118.079 151.617L89.0121 159.406L87.3263 154.665L97.003 123.502L103.348 121.802L99.5545 135.131L94.8727 151.13L116.402 145.361ZM105.066 121.342L115.865 161.645L107.885 163.783L97.0861 123.48L105.066 121.342Z" fill="#0F69BD"/>
<path d="M146.133 128.139L148.002 135.114C148.813 138.141 149.189 140.838 149.131 143.208C149.068 145.558 148.615 147.598 147.771 149.328C146.942 151.033 145.784 152.441 144.3 153.551C142.815 154.661 141.057 155.488 139.025 156.032C137.4 156.468 135.83 156.671 134.318 156.641C132.8 156.593 131.359 156.277 129.995 155.693C128.649 155.104 127.39 154.245 126.216 153.116C125.056 151.963 124.011 150.502 123.082 148.734C122.153 146.965 121.362 144.863 120.709 142.427L118.84 135.452C118.029 132.426 117.657 129.746 117.725 127.414C117.807 125.058 118.263 123.027 119.093 121.322C119.941 119.611 121.11 118.21 122.599 117.119C124.084 116.009 125.842 115.182 127.874 114.637C129.5 114.202 131.062 114.01 132.561 114.064C134.074 114.093 135.51 114.391 136.869 114.956C138.228 115.522 139.488 116.381 140.648 117.534C141.803 118.668 142.846 120.119 143.775 121.888C144.699 123.638 145.485 125.721 146.133 128.139ZM140.276 138.312L137.836 129.205C137.445 127.747 137.021 126.496 136.563 125.452C136.123 124.403 135.645 123.542 135.129 122.869C134.607 122.179 134.051 121.655 133.46 121.299C132.87 120.943 132.25 120.733 131.599 120.67C130.949 120.607 130.263 120.672 129.543 120.865C128.638 121.108 127.881 121.498 127.273 122.037C126.684 122.571 126.252 123.29 125.98 124.193C125.702 125.079 125.605 126.193 125.687 127.535C125.783 128.854 126.074 130.418 126.558 132.227L128.999 141.334C129.389 142.791 129.807 144.054 130.251 145.122C130.714 146.184 131.209 147.07 131.736 147.78C132.276 148.466 132.834 148.998 133.411 149.378C134.001 149.734 134.622 149.944 135.272 150.007C135.941 150.065 136.636 149.997 137.356 149.804C138.243 149.567 138.981 149.181 139.571 148.647C140.174 148.09 140.612 147.36 140.884 146.456C141.17 145.529 141.263 144.396 141.162 143.059C141.061 141.721 140.766 140.139 140.276 138.312Z" fill="#0F69BD"/>
<path d="M182.708 127.595L184.385 133.851L155.318 141.639L153.632 136.899L163.309 105.736L169.654 104.036L165.86 117.364L161.179 133.364L182.708 127.595ZM171.372 103.575L182.171 143.878L174.191 146.016L163.392 105.714L171.372 103.575Z" fill="#0F69BD"/>
<path d="M123.792 140.01L125.468 146.266L96.4013 154.054L94.7154 149.314L104.392 118.151L110.737 116.451L106.944 129.779L102.262 145.779L123.792 140.01ZM112.455 115.99L123.254 156.293L115.274 158.431L104.475 118.129L112.455 115.99Z" fill="#4B4B4B"/>
<path d="M153.522 122.787L155.391 129.763C156.202 132.789 156.578 135.487 156.52 137.856C156.457 140.207 156.004 142.247 155.161 143.976C154.331 145.682 153.174 147.09 151.689 148.199C150.205 149.309 148.446 150.136 146.414 150.681C144.789 151.116 143.22 151.319 141.707 151.289C140.189 151.241 138.748 150.925 137.384 150.341C136.039 149.752 134.779 148.893 133.605 147.764C132.445 146.611 131.4 145.151 130.471 143.382C129.542 141.614 128.751 139.512 128.098 137.076L126.229 130.1C125.418 127.074 125.047 124.395 125.115 122.062C125.196 119.707 125.652 117.676 126.482 115.97C127.33 114.259 128.499 112.858 129.988 111.767C131.473 110.657 133.231 109.83 135.263 109.286C136.889 108.85 138.451 108.659 139.95 108.712C141.463 108.742 142.899 109.04 144.258 109.605C145.617 110.17 146.877 111.029 148.037 112.182C149.193 113.316 150.235 114.768 151.164 116.536C152.088 118.286 152.874 120.37 153.522 122.787ZM147.665 132.96L145.225 123.853C144.834 122.396 144.41 121.145 143.952 120.1C143.513 119.051 143.034 118.19 142.518 117.518C141.996 116.827 141.44 116.304 140.85 115.947C140.259 115.591 139.639 115.382 138.988 115.319C138.338 115.256 137.652 115.321 136.932 115.514C136.027 115.756 135.27 116.147 134.662 116.686C134.073 117.219 133.642 117.938 133.369 118.842C133.091 119.727 132.994 120.841 133.077 122.184C133.173 123.503 133.463 125.067 133.948 126.875L136.388 135.982C136.778 137.44 137.196 138.703 137.64 139.77C138.103 140.833 138.598 141.719 139.125 142.428C139.665 143.114 140.223 143.647 140.8 144.026C141.391 144.382 142.011 144.592 142.661 144.655C143.33 144.713 144.025 144.646 144.746 144.453C145.632 144.215 146.37 143.829 146.96 143.296C147.563 142.738 148.001 142.008 148.273 141.104C148.559 140.177 148.652 139.045 148.551 137.707C148.45 136.369 148.155 134.787 147.665 132.96Z" fill="#4B4B4B"/>
<path d="M190.098 122.243L191.774 128.499L162.707 136.287L161.021 131.547L170.698 100.384L177.043 98.6841L173.25 112.013L168.568 128.012L190.098 122.243ZM178.761 98.2237L189.56 138.526L181.58 140.665L170.781 100.362L178.761 98.2237Z" fill="#4B4B4B"/>
</g>
<defs>
<clipPath id="clip0_468_415">
<rect width="390" height="366" fill="white"/>
</clipPath>
</defs>
</svg>
