<svg width="40" height="9" viewBox="0 0 40 9" fill="none" xmlns="http://www.w3.org/2000/svg">
<path d="M4.88448 0L9.76897 9H0L4.88448 0Z" fill="#262626"/>
<path d="M20.1468 4.48C20.1468 6.95424 18.1603 8.96 15.7099 8.96C13.2595 8.96 11.273 6.95424 11.273 4.48C11.273 2.00576 13.2595 0 15.7099 0C18.1603 0 20.1468 2.00576 20.1468 4.48Z" fill="#262626"/>
<path d="M30.0734 4.48C30.0734 6.95424 28.1879 8.96 25.8621 8.96C23.5363 8.96 21.6508 6.95424 21.6508 4.48C21.6508 2.00576 23.5363 0 25.8621 0C28.1879 0 30.0734 2.00576 30.0734 4.48Z" fill="#262626"/>
<path d="M21.6508 0L26.3885 0V8.96H21.6508V0Z" fill="#262626"/>
<path d="M31.5774 0L35.7511 3.4L40 0V8.96L31.5774 8.96V0Z" fill="#262626"/>
</svg>
