<svg width="330" height="66" viewBox="0 0 330 66" fill="none" xmlns="http://www.w3.org/2000/svg">
<path fill-rule="evenodd" clip-rule="evenodd" d="M32.4102 0C29.9957 0 27.6474 0.276561 25.3847 0.788051V33.0228C25.3847 36.973 28.5479 40.1946 32.4287 40.1946C36.3076 40.1946 39.4698 36.973 39.4698 33.0248C39.4698 29.2302 36.5578 26.1157 32.897 25.8679V20.1275C39.6616 20.3773 45.105 26.0751 45.105 33.0248C45.105 40.1321 39.4104 45.933 32.4287 45.933C25.4441 45.933 19.7505 40.1321 19.7505 33.0228V2.61197C18.9502 2.95792 18.1684 3.34153 17.4022 3.7539V33.0228C17.4031 41.4475 24.1541 48.3179 32.4287 48.3179C40.7043 48.3179 47.4524 41.4475 47.4524 33.0248C47.4524 24.7587 40.9585 17.9894 32.897 17.7346V11.9962C44.0603 12.253 53.0847 21.6005 53.0847 33.0248C53.0847 44.6106 43.8053 54.0563 32.4287 54.0563C21.0493 54.0563 11.767 44.6106 11.767 33.0228V7.56033C4.58177 13.61 0 22.7583 0 32.998C0 51.2223 14.5106 66 32.4112 66C50.3148 66 64.8214 51.2223 64.8214 32.998C64.8214 14.7737 50.3148 0 32.4102 0Z" fill="#F6F6F6"/>
<path fill-rule="evenodd" clip-rule="evenodd" d="M125.25 28.2296C122.568 28.2296 120.391 30.4354 120.391 33.1531C120.391 35.8768 122.568 38.0806 125.25 38.0806C127.934 38.0806 130.108 35.8768 130.108 33.1531C130.108 30.4354 127.934 28.2296 125.25 28.2296ZM322.957 24.6142C326.143 24.6142 328.473 26.4224 330 28.2296V19.4989C327.497 17.7782 324.482 17.0893 321.86 17.0893C313.806 17.0893 306.808 22.9373 306.808 32.998C306.808 42.6313 313.168 48.9107 321.985 48.9107C324.529 48.9107 327.327 48.5201 330 46.6741V38.1114C328.473 39.7058 326.059 41.3848 322.957 41.3848C318.211 41.3848 315.369 37.8171 315.369 33.2565C315.369 28.3111 318.38 24.6142 322.957 24.6142ZM307.719 17.9511H297.966L289.017 30.5904V17.9511H280.708L280.711 48.0499H289.017V35.1044L297.622 48.0499H308.017L296.439 32.5258L307.719 17.9511ZM256.168 36.011V17.9511H248.155V48.0499H256.296L267.787 29.989V48.0499H275.801V17.9511H267.658L256.168 36.011ZM232.087 31.493H229.717V24.5735H232.087C235.649 24.5735 236.156 26.5059 236.156 28.0119C236.156 29.3012 235.776 31.493 232.087 31.493ZM233.908 17.9511H221.402V48.0499H229.717V38.1114H233.908C242.306 38.1114 244.724 32.1849 244.724 28.0119C244.724 23.8826 242.349 17.9511 233.908 17.9511ZM196.643 25.1719H203.168V48.0499H211.482V25.1719H218.01V17.9511H196.643V25.1719ZM173.615 36.011V17.9511H165.604V48.0499H173.747L185.232 29.989V48.0499H193.248V17.9511H185.109L173.615 36.011ZM148.855 42.0259H145.294V35.7078H148.855C151.485 35.7078 153.012 36.4831 153.012 38.85C153.012 41.2556 151.444 42.0259 148.855 42.0259ZM149.663 29.6878H145.294V25.1719H158.904V17.9511H136.985L136.984 48.0499L149.663 48.0499C151.822 48.0499 161.322 48.1334 161.322 38.7197C161.322 29.6451 151.909 29.6878 149.663 29.6878ZM90.4711 32.998C90.4711 42.6313 96.8311 48.9107 105.65 48.9107C108.196 48.9107 110.994 48.5201 113.666 46.6741V38.1114C112.135 39.7058 109.719 41.3848 106.625 41.3848C101.875 41.3848 99.0357 37.8171 99.0357 33.2565C99.0357 28.3111 102.045 24.6142 106.625 24.6142C109.804 24.6142 112.135 26.4224 113.666 28.2296V19.4989C111.159 17.7782 108.151 17.0893 105.522 17.0893C97.4653 17.0893 90.4711 22.9373 90.4711 32.998ZM73.0714 24.8727H77.611V48.0499H85.2865V17.9511H73.0714V24.8727Z" fill="#F6F6F6"/>
</svg>
