<svg width="269" height="37" viewBox="0 0 269 37" fill="none" xmlns="http://www.w3.org/2000/svg">
<path fill-rule="evenodd" clip-rule="evenodd" d="M264.474 31.0504L262.626 28.3402C262.505 28.1591 262.364 27.9922 262.207 27.8425C262.082 27.7279 261.941 27.6324 261.788 27.5591L262.688 27.526C263.119 27.5118 263.368 27.526 263.435 27.5701C263.592 27.7189 263.729 27.8877 263.843 28.0724L265.279 30.1827L266.507 28.5228C266.566 28.4359 266.618 28.3443 266.663 28.2488C266.702 28.1743 266.723 28.092 266.727 28.0079C266.726 27.9074 266.686 27.8113 266.616 27.7402C266.531 27.6563 266.428 27.5942 266.314 27.5591H268.337L265.743 30.8898L267.922 34.0913C268.061 34.3064 268.224 34.5041 268.409 34.6803C268.573 34.833 268.76 34.9594 268.962 35.0551H267.203C267.123 34.982 267.049 34.903 266.98 34.8189C266.884 34.6926 266.796 34.5606 266.716 34.4236L264.98 31.7669L263.359 33.9307C263.273 34.0405 263.199 34.1587 263.138 34.2835C263.1 34.3566 263.078 34.4372 263.074 34.5197C263.073 34.6387 263.114 34.754 263.189 34.8457C263.27 34.9448 263.378 35.0176 263.5 35.0551H261.265C261.399 34.9197 261.524 34.7843 261.64 34.6472C261.757 34.5102 261.889 34.348 262.037 34.1559L264.474 31.0504ZM256.744 27.5591H258.797C258.637 27.6679 258.507 27.8172 258.422 27.9921C258.34 28.1916 258.302 28.4064 258.31 28.622V33.9764C258.294 34.1975 258.331 34.4192 258.416 34.6236C258.504 34.7961 258.635 34.9422 258.797 35.0472H256.744C256.9 34.9409 257.027 34.7948 257.11 34.6236C257.192 34.418 257.233 34.1981 257.231 33.9764V28.622C257.232 28.4061 257.19 28.1921 257.11 27.9921C257.025 27.8192 256.9 27.6704 256.744 27.5591ZM252.098 31.2205V34.1449C252.283 34.1808 252.47 34.2055 252.659 34.2189C252.85 34.2346 253.029 34.2409 253.199 34.2409C253.806 34.2493 254.254 34.1029 254.543 33.8016C254.842 33.477 255.001 33.0462 254.987 32.6032C254.996 32.4017 254.959 32.2007 254.878 32.0165C254.797 31.8322 254.674 31.6696 254.52 31.5417C254.209 31.2845 253.702 31.1564 253.001 31.1575C252.873 31.1575 252.73 31.1575 252.571 31.178L252.098 31.2205ZM250.531 27.5591H252.585C252.425 27.6679 252.295 27.8171 252.209 27.9921C252.129 28.1919 252.091 28.4066 252.098 28.622V30.4205C252.344 30.4 252.595 30.3795 252.85 30.3622C253.105 30.3449 253.317 30.3354 253.485 30.3354C254.346 30.3354 255.014 30.5333 255.49 30.9291C255.965 31.3249 256.203 31.8835 256.204 32.6047C256.219 32.9416 256.157 33.2774 256.024 33.5866C255.891 33.8958 255.69 34.1702 255.437 34.389C254.925 34.8268 254.147 35.0462 253.102 35.0472H250.529C250.686 34.9409 250.812 34.7948 250.895 34.6236C250.979 34.4185 251.02 34.1982 251.017 33.9764V28.622C251.018 28.4059 250.977 28.1917 250.895 27.9921C250.811 27.8194 250.686 27.6706 250.531 27.5591ZM241.515 30.515H245.589V28.6252C245.6 28.4027 245.56 28.1807 245.473 27.9764C245.383 27.8088 245.256 27.6644 245.102 27.5543H247.155C246.997 27.6612 246.868 27.8063 246.78 27.9764C246.696 28.1816 246.658 28.4032 246.668 28.6252V33.9795C246.657 34.2046 246.695 34.4294 246.78 34.6378C246.867 34.8065 246.996 34.9489 247.155 35.0504H245.102C245.257 34.9456 245.384 34.8039 245.473 34.6378C245.561 34.4303 245.601 34.2051 245.589 33.9795V31.3717H241.515V33.9843C241.504 34.2092 241.542 34.4338 241.625 34.6425C241.713 34.8113 241.843 34.9537 242.002 35.0551H239.948C240.103 34.9503 240.23 34.8086 240.318 34.6425C240.406 34.4351 240.446 34.2098 240.435 33.9843V28.6299C240.446 28.4075 240.406 28.1854 240.318 27.9811C240.228 27.8136 240.101 27.6692 239.948 27.5591H242.002C241.844 27.6659 241.714 27.811 241.625 27.9811C241.542 28.1867 241.505 28.4081 241.515 28.6299V30.515ZM230.932 30.515H235.006V28.6252C235.017 28.4027 234.977 28.1807 234.889 27.9764C234.8 27.8088 234.673 27.6644 234.519 27.5543H236.572C236.414 27.6612 236.285 27.8063 236.197 27.9764C236.112 28.1816 236.074 28.4032 236.085 28.6252V33.9795C236.074 34.2046 236.112 34.4294 236.197 34.6378C236.283 34.8065 236.413 34.9489 236.572 35.0504H234.519C234.674 34.9456 234.801 34.8039 234.889 34.6378C234.978 34.4303 235.018 34.2051 235.006 33.9795V31.3717H230.932V33.9843C230.921 34.2092 230.958 34.4338 231.042 34.6425C231.129 34.8113 231.259 34.9537 231.419 35.0551H229.364C229.519 34.9503 229.646 34.8086 229.735 34.6425C229.823 34.4351 229.863 34.2098 229.851 33.9843V28.6299C229.862 28.4075 229.822 28.1854 229.735 27.9811C229.645 27.8136 229.518 27.6692 229.364 27.5591H231.419C231.26 27.6659 231.131 27.811 231.042 27.9811C230.959 28.1867 230.921 28.4081 230.932 28.6299V30.515ZM222.782 28.5339L221.632 31.4882H223.942L222.782 28.5339ZM221.785 27.5591H223.526L226.071 33.9512C226.162 34.2071 226.295 34.446 226.463 34.6583C226.606 34.8229 226.78 34.9577 226.974 35.0551H224.708C224.86 34.9999 224.985 34.887 225.056 34.7402C225.111 34.5707 225.1 34.3866 225.025 34.2252L224.225 32.2126H221.352L220.687 33.8945C220.578 34.112 220.543 34.3602 220.588 34.6C220.65 34.7904 220.774 34.9534 220.941 35.0614H218.951C219.152 34.9344 219.327 34.7685 219.466 34.5732C219.646 34.3009 219.794 34.0081 219.906 33.7008L222.029 28.2819C222.091 28.1442 222.1 27.9883 222.055 27.8441C222.031 27.7807 221.995 27.7228 221.949 27.6739C221.902 27.6249 221.846 27.5859 221.785 27.5591ZM213.765 35.0551H211.542C211.697 34.9503 211.824 34.8086 211.913 34.6425C212.001 34.4351 212.041 34.2098 212.029 33.9843V28.6299C212.03 28.414 211.989 28.2 211.908 28C211.824 27.8271 211.698 27.6783 211.542 27.5669H214.168C215.077 27.5732 215.743 27.7517 216.168 28.1024C216.378 28.2767 216.544 28.4981 216.654 28.7491C216.765 29.0001 216.815 29.2737 216.803 29.548C216.809 29.8369 216.753 30.1238 216.64 30.389C216.527 30.6542 216.358 30.8916 216.146 31.085C215.709 31.4945 215.131 31.6961 214.411 31.6898C214.265 31.6889 214.12 31.6779 213.976 31.6567C213.818 31.6353 213.662 31.5995 213.509 31.5496C214.043 31.5517 214.562 31.3793 214.991 31.0583C215.183 30.9043 215.337 30.7068 215.44 30.4817C215.543 30.2566 215.592 30.0101 215.584 29.7622C215.591 29.5682 215.557 29.3748 215.483 29.1956C215.409 29.0164 215.298 28.8556 215.156 28.7244C214.878 28.4745 214.492 28.3496 213.998 28.3496C213.843 28.3496 213.699 28.3701 213.548 28.3874C213.397 28.4047 213.25 28.4283 213.109 28.4567V33.811C213.093 34.0827 213.146 34.3542 213.265 34.5984C213.376 34.8036 213.552 34.9646 213.765 35.0551ZM204.356 31.2961V34.1654C204.54 34.2016 204.726 34.2268 204.912 34.2409C205.099 34.2551 205.281 34.263 205.457 34.263C206.008 34.263 206.442 34.127 206.76 33.8551C207.077 33.5832 207.239 33.1801 207.245 32.6457C207.25 32.4481 207.209 32.2521 207.126 32.0734C207.042 31.8948 206.918 31.7386 206.764 31.6173C206.453 31.3664 205.95 31.2415 205.256 31.2425C205.156 31.2425 205.035 31.2425 204.89 31.2583L204.356 31.2961ZM202.791 27.5591H207.304C207.368 27.5591 207.432 27.5591 207.496 27.5591C207.56 27.5562 207.623 27.5473 207.686 27.5323V28.7921C207.567 28.6643 207.421 28.5671 207.258 28.5087C207.036 28.4396 206.805 28.4087 206.574 28.4173H204.352V30.526L205.188 30.4724C205.427 30.4583 205.611 30.452 205.739 30.452C206.6 30.452 207.268 30.6462 207.743 31.0346C208.218 31.4231 208.459 31.9654 208.464 32.6614C208.478 32.9927 208.416 33.3228 208.283 33.6258C208.15 33.9288 207.949 34.1965 207.696 34.4079C207.186 34.8362 206.408 35.0504 205.362 35.0504H202.791C202.947 34.944 203.072 34.7979 203.155 34.6268C203.239 34.4216 203.28 34.2014 203.276 33.9795V28.6252C203.278 28.4091 203.237 28.1948 203.155 27.9953C203.072 27.8213 202.946 27.6713 202.791 27.5591ZM194.419 28.9181L194.575 27.5701C194.913 27.5584 195.25 27.5258 195.585 27.4724C195.93 27.4206 196.279 27.3958 196.628 27.3984C197.51 27.3984 198.167 27.5591 198.596 27.8803C198.804 28.0303 198.972 28.23 199.085 28.4617C199.197 28.6934 199.252 28.9498 199.242 29.2079C199.257 29.6038 199.118 29.9899 198.855 30.2835C198.577 30.5777 198.211 30.7718 197.813 30.8362V30.8677C198.054 30.8614 198.294 30.9058 198.517 30.9979C198.74 31.0901 198.942 31.2281 199.11 31.4032C199.44 31.7589 199.616 32.2323 199.602 32.7197C199.617 33.0751 199.545 33.4287 199.393 33.7493C199.24 34.0698 199.012 34.3474 198.729 34.5575C198.147 34.9953 197.333 35.2147 196.288 35.2157C195.914 35.2196 195.54 35.1874 195.172 35.1197C194.834 35.0491 194.508 34.9297 194.204 34.7654L193.918 33.3087C194.222 33.6465 194.593 33.915 195.007 34.0961C195.399 34.2549 195.818 34.3346 196.24 34.3307C196.903 34.3307 197.425 34.199 197.807 33.9354C197.99 33.8133 198.14 33.646 198.242 33.4493C198.344 33.2526 198.394 33.033 198.389 32.811C198.397 32.6081 198.357 32.4061 198.271 32.2224C198.186 32.0387 198.057 31.8786 197.897 31.7559C197.512 31.4845 197.048 31.3505 196.579 31.3748C196.379 31.3725 196.179 31.3889 195.982 31.4236C195.826 31.4519 195.675 31.5006 195.532 31.5685V30.4567C195.701 30.4913 195.843 30.515 195.94 30.526C196.061 30.5376 196.182 30.5429 196.304 30.5417C196.897 30.5491 197.332 30.4441 197.606 30.2268C197.74 30.1253 197.849 29.9936 197.924 29.8421C197.998 29.6906 198.037 29.5236 198.036 29.3543C198.043 29.2015 198.014 29.0491 197.95 28.9103C197.887 28.7715 197.79 28.6504 197.67 28.5575C197.37 28.351 197.011 28.2507 196.649 28.2724C196.27 28.2732 195.892 28.3262 195.527 28.4299C195.137 28.5406 194.765 28.7048 194.419 28.9181ZM185.359 33.6598L189.127 27.9764C189.182 27.8895 189.244 27.8073 189.313 27.7307C189.37 27.6684 189.431 27.611 189.498 27.5591H191C190.842 27.6664 190.713 27.8114 190.625 27.9811C190.541 28.1865 190.503 28.4081 190.514 28.6299V33.9843C190.503 34.2092 190.54 34.434 190.625 34.6425C190.712 34.8109 190.841 34.9532 191 35.0551H188.947C189.102 34.9503 189.229 34.8086 189.317 34.6425C189.406 34.4351 189.445 34.2098 189.434 33.9843V28.9543L185.666 34.6378C185.607 34.7279 185.541 34.8136 185.47 34.8945C185.416 34.9513 185.357 35.004 185.296 35.052H183.794C183.948 34.9467 184.075 34.8052 184.164 34.6394C184.251 34.4315 184.29 34.2065 184.279 33.9811V28.6268C184.29 28.4045 184.25 28.1827 184.164 27.978C184.074 27.8107 183.947 27.6664 183.794 27.5559H185.846C185.688 27.6628 185.559 27.8078 185.47 27.978C185.387 28.1836 185.349 28.405 185.359 28.6268V33.6598ZM173.912 33.9843V28.3732C173.8 28.3512 173.687 28.3354 173.574 28.3244C173.462 28.3134 173.338 28.3087 173.204 28.3087C172.717 28.3087 172.345 28.4283 172.087 28.6677C171.955 28.7966 171.853 28.9527 171.786 29.1252C171.719 29.2977 171.69 29.4828 171.701 29.6677C171.696 29.8778 171.745 30.0856 171.842 30.2713C171.94 30.457 172.082 30.6146 172.256 30.7291C172.652 30.9995 173.131 31.1169 173.606 31.0598C172.9 32.3522 172.233 33.3496 171.606 34.052C170.978 34.7543 170.45 35.1102 170.021 35.1197C169.929 35.1197 169.802 35.1197 169.64 35.1024L168.862 35.0551C169.328 34.8451 169.857 34.4294 170.449 33.8079C171.123 33.0772 171.735 32.2907 172.28 31.4567C171.776 31.391 171.307 31.1598 170.946 30.7984C170.794 30.6448 170.674 30.4617 170.594 30.2601C170.514 30.0584 170.475 29.8425 170.479 29.6252C170.479 28.948 170.703 28.4268 171.151 28.0614C171.599 27.6961 172.268 27.5144 173.156 27.5165H173.252C173.287 27.5165 173.564 27.526 174.077 27.5323C174.233 27.5323 174.388 27.5449 174.544 27.548C174.7 27.5512 175.011 27.548 175.478 27.548C175.317 27.6569 175.188 27.8061 175.101 27.9811C175.021 28.1809 174.984 28.3955 174.991 28.611V33.9654C174.975 34.1866 175.011 34.4085 175.097 34.6126C175.185 34.7853 175.316 34.9315 175.478 35.0362H173.423C173.58 34.9298 173.706 34.7838 173.789 34.6126C173.871 34.4134 173.913 34.1999 173.912 33.9843ZM166.286 28.6299V33.9843C166.271 34.2054 166.307 34.4271 166.392 34.6315C166.48 34.804 166.612 34.95 166.773 35.0551H164.73C164.886 34.9491 165.012 34.8029 165.094 34.6315C165.177 34.4263 165.219 34.2062 165.217 33.9843V28.4094H163.092V29.5874C163.092 31.6787 162.912 33.1386 162.552 33.9669C162.192 34.7953 161.659 35.2094 160.954 35.2094C160.865 35.2094 160.776 35.2005 160.689 35.1827C160.603 35.1647 160.519 35.1416 160.436 35.1134L160.299 33.8819C160.388 33.978 160.493 34.0574 160.61 34.1165C160.715 34.167 160.831 34.1929 160.948 34.1921C161.356 34.1921 161.664 33.7853 161.869 32.9716C162.074 32.158 162.178 31.0693 162.18 29.7055C162.18 28.9181 162.11 28.389 161.99 28.115C161.938 27.9853 161.858 27.8683 161.758 27.7715C161.658 27.6747 161.539 27.6002 161.408 27.5528H166.795C166.632 27.6585 166.497 27.8035 166.403 27.9748C166.316 28.1814 166.28 28.4062 166.298 28.6299H166.286ZM156.002 28.4094H153.799C153.812 29.4855 153.714 30.56 153.508 31.6157C153.327 32.5169 153.017 33.3868 152.59 34.1984H155.998L156.002 28.4094ZM152.181 27.5528H157.57C157.41 27.6616 157.281 27.8109 157.195 27.9858C157.114 28.1853 157.076 28.4001 157.083 28.6157V34.1842H158.089V36.7543L157.454 37C157.489 36.5231 157.42 36.0442 157.253 35.5969C157.097 35.2268 156.845 35.0409 156.493 35.0409H152.263C151.904 35.0409 151.648 35.2268 151.493 35.5969C151.326 36.0441 151.261 36.5238 151.303 37L150.668 36.7543V34.1984H151.535C151.988 33.4678 152.327 32.6711 152.54 31.8362C152.766 30.9351 152.877 30.0084 152.869 29.0787C152.879 28.7413 152.818 28.4056 152.688 28.0945C152.577 27.8674 152.4 27.6804 152.181 27.5591V27.5528ZM138.64 27.5528H142.746V28.7843C142.624 28.6445 142.467 28.5406 142.292 28.4835C142.078 28.4218 141.857 28.3931 141.635 28.3984L140.206 28.4299V30.5717H141.73H141.921C141.985 30.5681 142.049 30.5592 142.111 30.5449V31.7165C142.017 31.6194 141.901 31.546 141.773 31.5024C141.622 31.4561 141.464 31.4343 141.306 31.4378H140.206V34.126C140.432 34.1543 140.664 34.1748 140.9 34.1858C141.137 34.1968 141.367 34.2016 141.582 34.2016C142.011 34.216 142.441 34.171 142.858 34.0677C143.206 33.972 143.526 33.7938 143.792 33.548L143.253 35.0583H138.645C138.803 34.9501 138.93 34.8026 139.015 34.6299C139.101 34.4271 139.141 34.2077 139.132 33.9874V28.6331C139.133 28.4169 139.091 28.2029 139.009 28.0031C138.928 27.8255 138.803 27.6725 138.645 27.5591L138.64 27.5528ZM131.296 28.2693C130.441 28.2777 129.749 28.5491 129.221 29.0835C128.958 29.3519 128.751 29.6719 128.615 30.024C128.478 30.3761 128.415 30.7527 128.427 31.1307C128.42 32.0661 128.68 32.8336 129.206 33.4331C129.459 33.7261 129.774 33.9586 130.127 34.1141C130.48 34.2696 130.863 34.3441 131.248 34.3323C132.094 34.3323 132.784 34.0646 133.317 33.5291C133.582 33.261 133.789 32.9411 133.926 32.589C134.063 32.237 134.128 31.8602 134.116 31.4819C134.116 30.5528 133.851 29.7869 133.322 29.1843C133.072 28.8914 132.761 28.6581 132.412 28.501C132.062 28.3439 131.683 28.2669 131.3 28.2756L131.296 28.2693ZM131.274 27.3921C132.438 27.3921 133.407 27.7528 134.18 28.474C134.953 29.1953 135.339 30.1375 135.338 31.3008C135.345 31.8105 135.253 32.3167 135.066 32.79C134.879 33.2634 134.601 33.6944 134.248 34.0583C133.522 34.8247 132.529 35.2084 131.269 35.2094C130.097 35.2094 129.127 34.8504 128.359 34.1323C127.591 33.4142 127.207 32.4693 127.206 31.2976C127.191 30.2717 127.579 29.2817 128.284 28.5449C129.012 27.7816 130.01 27.3995 131.279 27.3984L131.274 27.3921ZM118.272 30.515H122.347V28.6252C122.357 28.4027 122.318 28.1807 122.23 27.9764C122.14 27.8088 122.013 27.6644 121.859 27.5543H123.912C123.754 27.6612 123.626 27.8063 123.537 27.9764C123.453 28.1816 123.415 28.4032 123.425 28.6252V33.9795C123.414 34.2046 123.452 34.4294 123.537 34.6378C123.624 34.8065 123.753 34.9489 123.912 35.0504H121.859C122.014 34.9456 122.142 34.8039 122.23 34.6378C122.318 34.4303 122.358 34.2051 122.347 33.9795V31.3717H118.272V33.9843C118.261 34.2092 118.299 34.4338 118.383 34.6425C118.47 34.8113 118.6 34.9537 118.759 35.0551H116.705C116.86 34.9503 116.987 34.8086 117.075 34.6425C117.163 34.4351 117.203 34.2098 117.192 33.9843V28.6299C117.203 28.4075 117.163 28.1854 117.075 27.9811C116.985 27.8136 116.859 27.6692 116.705 27.5591H118.759C118.601 27.6659 118.471 27.811 118.383 27.9811C118.3 28.1867 118.262 28.4081 118.272 28.6299V30.515ZM107.689 30.515H111.763V28.6252C111.774 28.4027 111.734 28.1807 111.647 27.9764C111.557 27.8088 111.43 27.6644 111.276 27.5543H113.329C113.171 27.6612 113.042 27.8063 112.954 27.9764C112.87 28.1816 112.831 28.4032 112.842 28.6252V33.9795C112.831 34.2046 112.869 34.4294 112.954 34.6378C113.041 34.8065 113.17 34.9489 113.329 35.0504H111.276C111.431 34.9456 111.558 34.8039 111.647 34.6378C111.735 34.4303 111.775 34.2051 111.763 33.9795V31.3717H107.689V33.9843C107.678 34.2092 107.716 34.4338 107.799 34.6425C107.887 34.8113 108.016 34.9537 108.176 35.0551H106.121C106.276 34.9503 106.404 34.8086 106.492 34.6425C106.58 34.4351 106.62 34.2098 106.609 33.9843V28.6299C106.619 28.4075 106.579 28.1854 106.492 27.9811C106.402 27.8136 106.275 27.6692 106.121 27.5591H108.176C108.018 27.6659 107.888 27.811 107.799 27.9811C107.716 28.1867 107.679 28.4081 107.689 28.6299V30.515ZM99.5395 28.5339L98.3893 31.4882H100.699L99.5395 28.5339ZM98.5419 27.5591H100.283L102.828 33.9512C102.919 34.2073 103.052 34.4463 103.22 34.6583C103.363 34.8229 103.537 34.9577 103.731 35.0551H101.465C101.617 34.9999 101.742 34.887 101.813 34.7402C101.868 34.5707 101.857 34.3866 101.782 34.2252L100.982 32.2126H98.117L97.4524 33.8945C97.3429 34.112 97.3079 34.3602 97.3528 34.6C97.4145 34.7904 97.5393 34.9534 97.7061 35.0614H95.7077C95.9094 34.9344 96.0844 34.7685 96.2229 34.5732C96.403 34.3009 96.5508 34.0081 96.6633 33.7008L98.7862 28.2819C98.848 28.1442 98.8574 27.9883 98.8127 27.8441C98.7886 27.7807 98.7523 27.7228 98.7058 27.6739C98.6592 27.6249 98.6035 27.5859 98.5419 27.5591ZM90.5219 35.0551H88.2994C88.4543 34.9503 88.5815 34.8086 88.6698 34.6425C88.7581 34.4351 88.798 34.2098 88.7865 33.9843V28.6299C88.7869 28.414 88.7457 28.2 88.6651 28C88.5807 27.8271 88.455 27.6783 88.2994 27.5669H90.925C91.8339 27.5732 92.5005 27.7517 92.9249 28.1024C93.1347 28.2767 93.3013 28.4981 93.4116 28.7491C93.5218 29.0001 93.5726 29.2737 93.5599 29.548C93.566 29.8369 93.5105 30.1238 93.3971 30.389C93.2838 30.6542 93.1153 30.8916 92.9031 31.085C92.4652 31.4945 91.8868 31.6961 91.1678 31.6898C91.0224 31.6889 90.8773 31.6779 90.7335 31.6567C90.575 31.6353 90.4187 31.5995 90.2666 31.5496C90.7999 31.5517 91.3196 31.3793 91.7483 31.0583C91.9405 30.9043 92.0943 30.7068 92.1973 30.4817C92.3003 30.2566 92.3496 30.0101 92.3413 29.7622C92.347 29.5696 92.3116 29.378 92.2375 29.2006C92.1634 29.0231 92.0522 28.8639 91.9117 28.7339C91.6336 28.484 91.2476 28.3591 90.7538 28.3591C90.6059 28.3591 90.4549 28.3795 90.304 28.3968C90.153 28.4142 90.0051 28.4378 89.8651 28.4661V33.8205C89.8483 34.0922 89.9019 34.3636 90.0207 34.6079C90.1333 34.8098 90.3098 34.9674 90.5219 35.0551ZM81.1136 31.2961V34.1654C81.2972 34.2016 81.4827 34.2268 81.6692 34.2409C81.856 34.2551 82.0381 34.263 82.2139 34.263C82.7649 34.263 83.1991 34.127 83.5166 33.8551C83.8341 33.5832 83.996 33.1801 84.0022 32.6457C84.0074 32.4481 83.9665 32.2521 83.883 32.0734C83.7994 31.8948 83.6755 31.7386 83.5213 31.6173C83.21 31.3664 82.7073 31.2415 82.0132 31.2425C81.9136 31.2425 81.7921 31.2425 81.6474 31.2583L81.1136 31.2961ZM79.5479 27.5591H84.0613C84.1252 27.5591 84.189 27.5591 84.2528 27.5591C84.3168 27.5562 84.3803 27.5473 84.4427 27.5323V28.7921C84.3245 28.6643 84.1777 28.5671 84.0147 28.5087C83.794 28.4369 83.563 28.4034 83.3314 28.4094H81.1136V30.5181L81.9493 30.4646C82.189 30.4504 82.3727 30.4441 82.5003 30.4441C83.3605 30.4441 84.0287 30.6383 84.5049 31.0268C84.9812 31.4152 85.2193 31.9601 85.2193 32.6614C85.2334 32.9927 85.1715 33.3228 85.0384 33.6258C84.9052 33.9288 84.7045 34.1965 84.452 34.4079C83.9415 34.8362 83.1633 35.0504 82.1174 35.0504H79.5479C79.7039 34.944 79.8295 34.7979 79.9121 34.6268C79.9956 34.4216 80.0369 34.2014 80.0334 33.9795V28.6252C80.0354 28.4091 79.9941 28.1948 79.9121 27.9953C79.8287 27.8213 79.7034 27.6713 79.5479 27.5591ZM71.1761 28.9181L71.3318 27.5701C71.6701 27.5584 72.0074 27.5258 72.3418 27.4724C72.687 27.4206 73.0357 27.3958 73.3846 27.3984C74.2666 27.3984 74.9228 27.5591 75.3534 27.8803C75.5612 28.0303 75.729 28.23 75.8418 28.4617C75.9545 28.6934 76.0086 28.9498 75.9993 29.2079C76.0138 29.6038 75.8747 29.9899 75.6118 30.2835C75.3336 30.5777 74.968 30.7718 74.5706 30.8362V30.8677C74.8115 30.8614 75.0511 30.9058 75.2743 30.9979C75.4974 31.0901 75.6993 31.2281 75.867 31.4032C76.1967 31.7589 76.3735 32.2323 76.3588 32.7197C76.3732 33.0737 76.3014 33.4259 76.1497 33.7453C75.998 34.0647 75.7711 34.3414 75.4888 34.5512C74.9068 34.989 74.0933 35.2084 73.0484 35.2094C72.6743 35.2133 72.3006 35.1811 71.9325 35.1134C71.5947 35.0428 71.2687 34.9234 70.9645 34.7591L70.6781 33.3024C70.9818 33.6402 71.3532 33.9087 71.7675 34.0898C72.1594 34.2486 72.5781 34.3283 73.0002 34.3244C73.6632 34.3244 74.1856 34.1926 74.5675 33.9291C74.7478 33.8077 74.8952 33.6425 74.996 33.4485C75.0969 33.2545 75.1481 33.0381 75.1449 32.8189C75.153 32.6159 75.1126 32.414 75.0269 32.2303C74.9413 32.0465 74.813 31.8865 74.6531 31.7638C74.2676 31.4924 73.8038 31.3583 73.3348 31.3827C73.1345 31.3804 72.9345 31.3967 72.7372 31.4315C72.5816 31.4598 72.4304 31.5085 72.2874 31.5764V30.4567C72.457 30.4913 72.5986 30.515 72.6951 30.526C72.8162 30.5376 72.9377 30.5429 73.0593 30.5417C73.6528 30.5491 74.0871 30.4441 74.362 30.2268C74.4948 30.1247 74.6021 29.9926 74.6756 29.8412C74.7491 29.6897 74.7867 29.523 74.7854 29.3543C74.7927 29.2015 74.7633 29.0491 74.6996 28.9103C74.6359 28.7715 74.5398 28.6504 74.4196 28.5575C74.1197 28.351 73.7607 28.2507 73.3986 28.2724C73.0192 28.2732 72.6417 28.3262 72.2765 28.4299C71.8894 28.5412 71.5192 28.7055 71.1761 28.9181ZM62.1165 33.6598L65.8844 27.9764C65.9394 27.8895 66.0013 27.8073 66.0697 27.7307C66.1266 27.6684 66.1886 27.611 66.2549 27.5591H67.7568C67.5993 27.6664 67.4705 27.8114 67.3817 27.9811C67.298 28.1865 67.2602 28.4081 67.2712 28.6299V33.9843C67.2596 34.2092 67.2974 34.434 67.3817 34.6425C67.4689 34.8109 67.5982 34.9532 67.7568 35.0551H65.7039C65.8589 34.9503 65.9861 34.8086 66.0743 34.6425C66.1626 34.4351 66.2025 34.2098 66.191 33.9843V28.9543L62.4231 34.6378C62.3636 34.7279 62.2981 34.8136 62.227 34.8945C62.1728 34.9513 62.1146 35.004 62.0526 35.052H60.5507C60.7053 34.9467 60.8324 34.8052 60.9212 34.6394C61.0081 34.4315 61.0474 34.2065 61.0363 33.9811V28.6268C61.0468 28.4045 61.0074 28.1827 60.9212 27.978C60.8308 27.8107 60.7042 27.6664 60.5507 27.5559H62.6036C62.4454 27.6628 62.3159 27.8078 62.227 27.978C62.144 28.1836 62.1063 28.405 62.1165 28.6268V33.6598ZM255.693 0.307089C255.923 0.298427 256.151 0.338112 256.364 0.423622L260.786 7.49764L263.98 2.48504C264.171 2.20588 264.283 1.87919 264.305 1.54016C264.305 1.00158 263.91 0.557482 263.517 0.346459H267.522L261.55 9.41102V14.4C261.55 15.0551 261.55 15.9921 262.615 16.7417H258.123C259.189 15.9921 259.189 15.0551 259.189 14.4V9.39528L254.419 1.95276C254.008 1.26054 253.404 0.706621 252.683 0.360636L255.693 0.307089ZM246.321 14.4079C246.321 15.063 246.321 16 247.385 16.7496H242.894C243.96 16 243.96 15.063 243.96 14.4079V2.22835L241.205 2.20472C240.758 2.19144 240.314 2.27206 239.899 2.44147C239.485 2.61088 239.11 2.86541 238.797 3.18898L239.723 0.259846C240.213 0.339827 240.709 0.371468 241.205 0.354331H250.164C250.636 0.34869 251.107 0.317151 251.575 0.259846L250.764 3.00157C250.324 2.20472 249.491 2.20472 248.914 2.20472L246.321 2.22835V14.4079ZM233.545 0.354331C232.409 1.08031 232.363 2.11024 232.363 2.69606V14.6646C233.246 14.781 234.135 14.8515 235.025 14.8756C236.53 14.8756 238.729 14.5937 240.187 13.3528L238.891 16.7559H228.93C229.993 16.0063 229.993 15.0693 229.993 14.4142V2.69606C229.993 2.04094 229.993 1.10394 228.93 0.354331H233.545ZM215.791 8.94961H220.814L218.291 2.49292L215.791 8.94961ZM219.911 0.354331L225.489 14.3386C225.859 15.2504 226.322 16.1417 227.456 16.7496H222.476C223.565 16.2583 223.378 15.4614 223.17 14.9228L221.41 10.5134H215.184L213.726 14.1906C213.404 15.011 213.195 15.9701 214.281 16.7433H209.907C211.111 15.948 211.575 14.8929 212.014 13.7685L216.644 1.91654C216.736 1.68347 217.06 0.792133 216.112 0.341739L219.911 0.354331ZM206.993 0.354331V3.05512C206.556 2.54016 205.93 2.18898 204.563 2.21261L201.44 2.28346V6.96694H204.772C205.052 6.96853 205.331 6.94534 205.606 6.89764V9.45039C205.166 9.00473 204.657 8.84095 203.846 8.84095H201.44V14.7087C202.851 14.8488 203.986 14.8661 204.448 14.8661C206.993 14.8661 208.268 14.3496 209.287 13.4362L208.106 16.7433H198.013C199.077 15.9937 199.077 15.011 199.077 14.4016V2.69606C199.077 2.08661 199.077 1.10394 198.013 0.354331H206.993ZM184.962 0.307089C185.635 0.283466 186.306 0.259846 186.976 0.259846C192.254 0.259846 192.788 3.23465 192.788 4.52284C192.788 6.4441 191.283 8.24725 188.782 8.6693C190.587 11.5496 193.944 15.7906 196.237 16.7496C194.617 16.8661 193.991 16.8898 193.736 16.8898C191.074 16.8898 187.462 10.9654 186.005 8.20158C187.671 8.0441 190.125 7.07717 190.125 4.73701C190.125 3.68347 189.731 1.99686 186.883 1.99686C186.36 1.97685 185.836 2.02984 185.327 2.15434V14.4047C185.327 15.0598 185.327 15.9969 186.39 16.7465H181.906C182.97 15.9969 182.97 15.0598 182.97 14.4047V2.69606C182.97 2.04094 182.97 1.10394 181.906 0.354331C182.925 0.354331 183.943 0.330711 184.962 0.307089ZM171.771 3.25827C170.149 1.90079 168.761 1.73544 167.811 1.73544C165.196 1.73544 164.641 3.2126 164.641 4.09764C164.641 5.50236 165.914 6.15906 168.714 7.42362C171.445 8.66457 173.09 9.53071 173.09 12.0614C173.09 15.5969 169.965 17.1008 166.585 17.1008C165.082 17.1213 163.587 16.8839 162.163 16.3984L161.492 13.3071C162.348 14.0567 163.992 15.2268 166.723 15.2268C169.016 15.2268 170.498 14.2913 170.498 12.7213C170.498 10.8315 168.63 10.1449 166.585 9.20788C163.947 7.99056 161.978 6.95906 161.978 4.38268C161.978 2.36851 163.223 0.00315268 168.048 0.00315268C169.311 -0.00868947 170.569 0.16477 171.783 0.518116L171.771 3.25827ZM157.815 3.25827C156.193 1.90079 154.805 1.73544 153.855 1.73544C151.239 1.73544 150.683 3.2126 150.683 4.09764C150.683 5.50236 151.958 6.15906 154.758 7.42362C157.489 8.66457 159.133 9.53071 159.133 12.0614C159.133 15.5969 156.008 17.1008 152.629 17.1008C151.126 17.1216 149.631 16.8841 148.207 16.3984L147.536 13.3071C148.393 14.0567 150.036 15.2268 152.767 15.2268C155.058 15.2268 156.54 14.2913 156.54 12.7213C156.54 10.8315 154.672 10.1449 152.629 9.20788C149.983 7.99056 148.022 6.95906 148.022 4.38268C148.022 2.36851 149.267 0.00315268 154.092 0.00315268C155.355 -0.00853431 156.613 0.164922 157.827 0.518116L157.815 3.25827ZM143.834 0.354331V3.05512C143.393 2.54016 142.769 2.18898 141.403 2.21261L138.278 2.28346V6.96694H141.611C141.89 6.9686 142.169 6.94541 142.444 6.89764V9.45039C142.005 9.00473 141.496 8.84095 140.687 8.84095H138.271V14.7087C139.683 14.8488 140.818 14.8661 141.281 14.8661C143.828 14.8661 145.101 14.3496 146.119 13.4362L144.939 16.7433H134.847C135.912 15.9937 135.912 15.011 135.912 14.4016V2.69606C135.912 2.08661 135.912 1.10394 134.847 0.354331H143.834ZM120.546 0.354331C120.637 0.570653 120.754 0.775232 120.893 0.963779L130.36 12.9087V2.69606C130.36 2.04094 130.36 1.10394 129.296 0.354331H133.232C132.166 1.10394 132.166 2.04094 132.166 2.69606V17.4047C130.269 16.8661 129.364 15.6488 128.555 14.6189L119.967 3.75276V14.4094C119.967 15.0646 119.967 16.0016 121.031 16.7512H117.095C118.16 16.0016 118.16 15.0646 118.16 14.4094V2.69606C118.16 2.04094 118.16 1.10394 117.095 0.354331H120.546ZM110.585 6.81102V2.69606C110.585 1.92283 110.563 1.10394 109.522 0.354331H114.012C112.971 1.10394 112.948 1.92913 112.948 2.69606V14.4079C112.948 15.1811 112.969 16 114.012 16.7512H109.528C110.57 16 110.591 15.1764 110.591 14.4079V8.69291H101.68V14.4079C101.68 15.1811 101.703 16 102.746 16.7512H98.2539C99.2951 16 99.3185 15.1764 99.3185 14.4079V2.69606C99.3185 1.92283 99.2951 1.10394 98.2539 0.354331H102.746C101.703 1.10394 101.68 1.92913 101.68 2.69606V6.8189L110.585 6.81102ZM95.2859 3.48504C93.9432 2.52759 92.345 2.00484 90.7024 1.98583C87.669 1.98583 84.6325 4.02363 84.6325 8.02993C84.6325 11.4488 86.578 15.1024 91.2534 15.1024C94.447 15.1024 95.9987 13.9543 96.6929 13.3701L95.1194 16.5071C93.7529 16.9528 92.5949 17.0929 91.0728 17.0929C84.1283 17.0929 81.9758 12.2913 81.9758 8.66142C81.9758 4.16378 85.1228 0 90.9794 0C91.9963 0.00158881 93.0092 0.128512 93.9957 0.377957C94.4217 0.490508 94.8541 0.576238 95.2906 0.63465L95.2859 3.48504ZM80.4521 0.354331C79.3875 1.10394 79.3876 2.04094 79.3876 2.69606V14.4079C79.3876 15.063 79.3875 16 80.4521 16.7496H75.962C77.025 16 77.025 15.063 77.025 14.4079V2.69606C77.025 2.04094 77.025 1.10394 75.962 0.354331H80.4521ZM63.3942 0.307089C64.0666 0.283466 64.7374 0.259846 65.4082 0.259846C70.6874 0.259846 71.2181 3.23465 71.2181 4.52284C71.2181 6.4441 69.7147 8.24725 67.2136 8.6693C69.0205 11.5496 72.3761 15.7906 74.6686 16.7496C73.0469 16.8661 72.4228 16.8898 72.1675 16.8898C69.5061 16.8898 65.8953 10.9654 64.437 8.20158C66.1023 8.0441 68.5567 7.07717 68.5567 4.73701C68.5567 3.68347 68.163 1.99686 65.3164 1.99686C64.7929 1.97693 64.2692 2.02992 63.76 2.15434V14.4047C63.76 15.0598 63.76 15.9969 64.8245 16.7465H60.3391C61.4036 15.9969 61.4036 15.0598 61.4036 14.4047V2.69606C61.4036 2.04094 61.4036 1.10394 60.3391 0.354331C61.3569 0.354331 62.3764 0.330711 63.3942 0.307089Z" fill="#DABE83"/>
<path d="M32.0473 9.76063C32.0473 13.4216 29.1858 16.859 24.4228 17.6627C27.8644 23.154 34.2597 31.2334 38.6277 33.0567C35.5398 33.2787 34.3476 33.3244 33.862 33.3244C28.7883 33.3244 21.906 22.0362 19.1201 16.7764C22.3044 16.4614 26.9735 14.6268 26.9735 10.1622C26.9735 8.16063 26.2265 4.96377 20.8492 4.94173C19.9237 3.56557 18.6607 2.45636 17.1839 1.72283C18.4477 1.68032 19.7099 1.63465 20.9721 1.63465C31.0325 1.63465 32.0473 7.30551 32.0473 9.76063Z" fill="#DABE83"/>
<path d="M9.66196 1.63149C8.38262 1.63149 7.10328 1.67716 5.82238 1.72126C3.88158 1.76693 1.94079 1.81102 -9.49936e-06 1.81102C2.02328 3.23937 2.02328 5.02519 2.02328 6.27559V28.6C2.02328 29.8504 2.02328 31.6346 -9.49936e-06 33.0646H8.56005C6.53676 31.6346 6.53676 29.8504 6.53676 28.6V5.24409C7.55152 4.9748 8.39041 4.92913 9.49388 4.92913C14.921 4.92913 15.6696 8.14488 15.6696 10.1528C15.6696 14.6236 10.9927 16.452 7.81766 16.7669C10.588 22.0362 17.4672 33.3244 22.5534 33.3307C23.039 33.3307 24.2312 33.285 27.319 33.063C22.9503 31.2331 16.5536 23.1512 13.1109 17.6598C17.8687 16.8567 20.7371 13.4189 20.7371 9.75748C20.7371 7.30079 19.7224 1.63149 9.66196 1.63149Z" fill="#DABE83"/>
</svg>
