<svg width="350" height="330" viewBox="0 0 350 330" fill="none" xmlns="http://www.w3.org/2000/svg">
<g clip-path="url(#clip0_304_547)">
<path fill-rule="evenodd" clip-rule="evenodd" d="M174.752 163.39C173.573 163.389 172.404 163.388 171.255 163.359C173.525 164.561 175.486 166.107 177.266 167.799C177.473 167.823 177.682 167.846 177.893 167.869L177.893 167.869C180.36 168.14 183.033 168.434 184.848 170.04C187.869 172.84 187.578 177.727 184.358 180.329C181.727 182.656 177.916 183.429 174.356 184.116C178.426 190.205 182.637 196.329 188.289 201.456C190.649 203.525 193.23 205.681 196.61 206.411C198.485 206.612 200.368 206.486 202.252 206.36C203.342 206.287 204.433 206.214 205.522 206.205C195.934 201.369 189.401 193.317 183.159 185.624L183.159 185.624L182.897 185.301C186.358 184.614 189.789 183.378 192.179 181.025C196.731 176.842 195.86 169.353 190.309 166.133C185.736 163.398 180.152 163.394 174.752 163.39ZM153.5 163.486C150.178 163.577 146.855 163.669 143.549 163.385V163.728C146.029 164.767 147.029 167.146 146.939 169.388C146.979 179.693 146.969 190.008 146.939 200.313C147.099 202.615 145.989 204.891 143.549 206.025V206.488C147.147 206.039 150.783 206.124 154.407 206.208C155.356 206.23 156.305 206.253 157.252 206.265C155.771 204.822 154.151 203.233 154.271 201.164C154.164 194.272 154.184 187.377 154.203 180.48C154.214 176.385 154.226 172.29 154.211 168.194C158.412 167.816 163.353 167.387 166.724 170.04C169.744 172.814 169.414 177.658 166.294 180.303C163.79 182.501 160.225 183.282 156.853 184.021C156.655 184.064 156.458 184.107 156.261 184.151C156.436 184.409 156.611 184.668 156.785 184.927C161.641 192.119 166.673 199.572 174.426 204.728C177.267 206.805 180.906 206.592 184.425 206.386H184.425C185.416 206.328 186.397 206.271 187.348 206.265C177.726 201.232 171.075 193.142 164.793 185.319C168.414 184.503 172.165 183.258 174.456 180.561C177.996 176.868 177.836 170.925 173.925 167.481C171.525 165.248 168.024 164.183 164.613 163.702C160.924 163.281 157.212 163.383 153.5 163.486ZM292.975 262.661L295.21 265.671L292.264 269.121C292.085 269.335 291.925 269.515 291.784 269.667C291.643 269.819 291.492 269.97 291.331 270.12H294.032C293.885 270.078 293.754 269.997 293.656 269.887C293.565 269.786 293.516 269.657 293.517 269.525C293.522 269.434 293.548 269.344 293.594 269.263C293.669 269.124 293.758 268.993 293.861 268.871L295.822 266.467L297.919 269.419C298.017 269.571 298.123 269.717 298.239 269.858C298.322 269.951 298.412 270.039 298.508 270.12H300.634C300.39 270.014 300.165 269.873 299.967 269.704C299.743 269.508 299.546 269.288 299.378 269.049L296.744 265.493L299.88 261.793H297.434C297.571 261.832 297.696 261.901 297.799 261.994C297.884 262.073 297.932 262.18 297.933 262.291C297.929 262.385 297.902 262.476 297.855 262.559C297.802 262.665 297.739 262.767 297.667 262.863L296.183 264.707L294.446 262.363C294.309 262.158 294.143 261.97 293.953 261.805C293.872 261.756 293.571 261.74 293.05 261.756L291.963 261.793C292.147 261.874 292.318 261.98 292.469 262.108C292.659 262.274 292.829 262.459 292.975 262.661ZM288.347 261.793H285.865C286.053 261.916 286.205 262.082 286.307 262.274C286.404 262.496 286.454 262.734 286.454 262.974V268.922C286.456 269.168 286.406 269.412 286.307 269.641C286.206 269.831 286.054 269.993 285.865 270.111H288.347C288.151 269.995 287.992 269.832 287.886 269.641C287.783 269.414 287.739 269.167 287.758 268.922V262.974C287.749 262.734 287.795 262.496 287.893 262.274C287.997 262.08 288.153 261.914 288.347 261.793ZM280.249 269.109V265.86L280.821 265.813C281.013 265.79 281.186 265.79 281.34 265.79C282.188 265.789 282.8 265.931 283.176 266.217C283.363 266.359 283.511 266.54 283.609 266.744C283.707 266.949 283.752 267.172 283.741 267.396C283.758 267.888 283.565 268.367 283.204 268.728C282.854 269.062 282.313 269.225 281.579 269.216C281.374 269.216 281.157 269.209 280.926 269.191C280.699 269.176 280.472 269.149 280.249 269.109ZM280.838 261.793H278.354C278.541 261.917 278.693 262.082 278.794 262.274C278.893 262.496 278.943 262.734 278.941 262.974V268.922C278.945 269.168 278.895 269.413 278.794 269.641C278.694 269.831 278.541 269.993 278.352 270.111H281.462C282.725 270.11 283.666 269.866 284.284 269.38C284.591 269.137 284.834 268.832 284.995 268.489C285.155 268.145 285.23 267.772 285.212 267.398C285.211 266.597 284.923 265.976 284.348 265.537C283.774 265.097 282.966 264.877 281.925 264.877C281.722 264.877 281.466 264.888 281.157 264.907C280.849 264.926 280.546 264.949 280.249 264.972V262.974C280.24 262.734 280.285 262.496 280.382 262.274C280.487 262.08 280.643 261.914 280.838 261.793ZM272.38 265.076H267.455V262.982C267.442 262.736 267.488 262.49 267.588 262.262C267.696 262.073 267.852 261.912 268.044 261.793H265.56C265.746 261.915 265.899 262.076 266.008 262.262C266.114 262.489 266.162 262.735 266.149 262.982V268.93C266.163 269.181 266.115 269.431 266.008 269.662C265.901 269.846 265.747 270.004 265.56 270.12H268.044C267.851 270.007 267.694 269.849 267.588 269.662C267.487 269.43 267.442 269.18 267.455 268.93V266.028H272.38V268.925C272.394 269.176 272.346 269.426 272.239 269.656C272.133 269.841 271.979 269.998 271.791 270.115H274.273C274.081 270.002 273.925 269.844 273.82 269.656C273.717 269.425 273.671 269.175 273.684 268.925V262.977C273.672 262.731 273.718 262.484 273.82 262.256C273.926 262.067 274.082 261.906 274.273 261.788H271.791C271.977 261.91 272.131 262.07 272.239 262.256C272.345 262.483 272.393 262.73 272.38 262.977V265.076ZM259.586 265.076H254.661V262.982C254.648 262.736 254.694 262.49 254.794 262.262C254.902 262.073 255.058 261.912 255.25 261.793H252.766C252.952 261.915 253.105 262.076 253.214 262.262C253.32 262.489 253.368 262.735 253.355 262.982V268.93C253.369 269.181 253.321 269.431 253.214 269.662C253.107 269.846 252.953 270.004 252.766 270.12H255.25C255.057 270.007 254.9 269.849 254.794 269.662C254.693 269.43 254.648 269.18 254.661 268.93V266.028H259.586V268.925C259.6 269.176 259.552 269.426 259.445 269.656C259.339 269.841 259.185 269.998 258.997 270.115H261.479C261.287 270.002 261.13 269.844 261.026 269.656C260.923 269.425 260.877 269.175 260.89 268.925V262.977C260.878 262.731 260.924 262.484 261.026 262.256C261.132 262.067 261.288 261.906 261.479 261.788H258.997C259.183 261.91 259.337 262.07 259.445 262.256C259.551 262.483 259.599 262.73 259.586 262.977V265.076ZM243.419 266.158L244.809 262.876L246.211 266.158H243.419ZM245.709 261.793H243.603C243.678 261.823 243.745 261.866 243.801 261.92C243.858 261.975 243.901 262.039 243.931 262.109C243.985 262.27 243.973 262.443 243.899 262.596L241.332 268.616C241.196 268.957 241.018 269.282 240.8 269.585C240.632 269.802 240.421 269.986 240.177 270.127H242.583C242.382 270.007 242.231 269.826 242.156 269.614C242.102 269.348 242.144 269.072 242.277 268.831L243.08 266.962H246.553L247.52 269.198C247.611 269.377 247.624 269.582 247.558 269.77C247.472 269.933 247.321 270.059 247.137 270.12H249.876C249.641 270.012 249.432 269.862 249.259 269.679C249.056 269.443 248.895 269.178 248.785 268.894L245.709 261.793ZM231.221 270.12H233.908C233.651 270.02 233.438 269.841 233.304 269.613C233.16 269.341 233.096 269.04 233.116 268.738V262.79C233.285 262.758 233.464 262.732 233.646 262.713C233.675 262.71 233.703 262.707 233.732 262.704C233.884 262.687 234.032 262.671 234.19 262.671C234.787 262.671 235.254 262.81 235.59 263.087C235.761 263.233 235.896 263.412 235.985 263.611C236.075 263.81 236.116 264.025 236.107 264.24C236.118 264.516 236.058 264.789 235.933 265.04C235.809 265.29 235.623 265.509 235.391 265.68C234.872 266.037 234.244 266.228 233.599 266.226C233.783 266.281 233.972 266.321 234.164 266.345C234.338 266.368 234.513 266.381 234.689 266.382C235.559 266.389 236.259 266.165 236.787 265.71C237.043 265.495 237.247 265.231 237.384 264.937C237.521 264.642 237.588 264.323 237.581 264.002C237.596 263.698 237.535 263.394 237.401 263.115C237.268 262.836 237.067 262.59 236.813 262.396C236.3 262.007 235.494 261.809 234.395 261.802H231.221C231.409 261.925 231.561 262.091 231.663 262.283C231.761 262.505 231.811 262.743 231.81 262.982V268.93C231.824 269.181 231.776 269.431 231.669 269.662C231.562 269.846 231.409 270.004 231.221 270.12ZM222.535 269.132V265.944L223.18 265.902C223.355 265.885 223.502 265.885 223.622 265.885C224.461 265.884 225.069 266.022 225.445 266.301C225.632 266.436 225.781 266.609 225.882 266.808C225.983 267.006 226.033 267.224 226.027 267.443C226.019 268.037 225.823 268.485 225.44 268.787C225.056 269.089 224.531 269.24 223.865 269.24C223.652 269.24 223.432 269.231 223.206 269.216C222.981 269.2 222.756 269.172 222.535 269.132ZM226.098 261.793H220.642C220.83 261.918 220.981 262.084 221.082 262.277C221.181 262.499 221.231 262.737 221.229 262.977V268.925C221.233 269.172 221.183 269.416 221.082 269.644C220.982 269.834 220.83 269.997 220.642 270.115H223.75C225.014 270.115 225.955 269.877 226.572 269.401C226.877 269.166 227.12 268.869 227.281 268.532C227.442 268.196 227.517 267.829 227.5 267.461C227.493 266.688 227.203 266.085 226.629 265.654C226.054 265.222 225.246 265.006 224.205 265.006C224.051 265.006 223.829 265.013 223.539 265.029L222.529 265.089V262.746H225.216C225.495 262.737 225.774 262.771 226.042 262.848C226.239 262.913 226.416 263.021 226.559 263.163V261.763C226.484 261.78 226.407 261.79 226.329 261.793H226.098ZM210.709 261.805L210.521 263.303C210.939 263.066 211.39 262.883 211.861 262.76C212.302 262.645 212.759 262.586 213.217 262.585C213.655 262.561 214.089 262.673 214.452 262.902C214.597 263.005 214.713 263.14 214.79 263.294C214.867 263.448 214.903 263.617 214.894 263.787C214.895 263.975 214.848 264.161 214.758 264.329C214.668 264.497 214.536 264.644 214.375 264.756C214.042 264.998 213.517 265.114 212.8 265.106C212.653 265.108 212.506 265.102 212.36 265.089C212.243 265.076 212.072 265.05 211.867 265.012V266.247C212.04 266.171 212.222 266.117 212.41 266.086C212.649 266.047 212.891 266.029 213.133 266.032C213.7 266.005 214.26 266.154 214.726 266.455C214.92 266.591 215.075 266.769 215.178 266.973C215.282 267.177 215.331 267.402 215.321 267.627C215.327 267.874 215.266 268.118 215.143 268.336C215.02 268.555 214.839 268.74 214.617 268.876C214.156 269.169 213.524 269.315 212.723 269.315C212.212 269.32 211.706 269.231 211.233 269.055C210.732 268.853 210.283 268.555 209.915 268.18L210.262 269.798C210.629 269.981 211.024 270.113 211.432 270.192C211.877 270.267 212.329 270.303 212.781 270.298C214.044 270.297 215.027 270.054 215.731 269.567C216.074 269.334 216.35 269.026 216.534 268.669C216.718 268.313 216.805 267.92 216.787 267.526C216.804 266.984 216.591 266.458 216.192 266.063C215.989 265.869 215.745 265.715 215.475 265.613C215.206 265.511 214.916 265.461 214.625 265.468V265.433C215.105 265.362 215.547 265.146 215.884 264.819C216.201 264.493 216.37 264.064 216.352 263.624C216.363 263.338 216.298 263.053 216.162 262.796C216.025 262.538 215.822 262.316 215.571 262.15C215.052 261.793 214.259 261.614 213.191 261.614C212.769 261.612 212.348 261.639 211.931 261.697C211.526 261.756 211.118 261.792 210.709 261.805ZM204.124 262.256L199.569 268.57V262.979C199.557 262.733 199.603 262.487 199.703 262.258C199.81 262.069 199.967 261.908 200.158 261.789H197.677C197.862 261.912 198.015 262.072 198.124 262.258C198.229 262.486 198.276 262.732 198.264 262.979V268.927C198.277 269.177 198.229 269.427 198.124 269.658C198.017 269.842 197.863 270 197.677 270.117H199.492C199.567 270.063 199.637 270.005 199.703 269.942C199.789 269.852 199.868 269.756 199.94 269.656L204.495 263.343V268.93C204.509 269.181 204.461 269.431 204.354 269.662C204.247 269.846 204.093 270.004 203.906 270.12H206.388C206.196 270.007 206.04 269.849 205.934 269.662C205.832 269.43 205.787 269.18 205.801 268.93V262.982C205.788 262.736 205.833 262.49 205.934 262.262C206.042 262.073 206.197 261.912 206.388 261.793H204.572C204.492 261.851 204.417 261.914 204.348 261.984C204.266 262.069 204.191 262.16 204.124 262.256ZM185.731 262.697V268.93C185.732 269.17 185.681 269.407 185.582 269.628C185.482 269.819 185.329 269.981 185.14 270.099H187.624C187.428 269.983 187.269 269.82 187.163 269.628C187.059 269.402 187.015 269.155 187.035 268.909V262.961C187.026 262.722 187.072 262.484 187.168 262.262C187.273 262.067 187.43 261.901 187.624 261.781C187.408 261.781 187.22 261.781 187.059 261.782C186.799 261.782 186.611 261.783 186.495 261.781C186.414 261.779 186.334 261.776 186.253 261.772C186.145 261.768 186.038 261.763 185.93 261.763C185.474 261.758 185.172 261.751 185.027 261.748C184.976 261.746 184.944 261.746 184.933 261.746H184.817C183.743 261.743 182.935 261.945 182.393 262.351C181.851 262.757 181.581 263.336 181.581 264.088C181.575 264.329 181.623 264.569 181.72 264.793C181.817 265.017 181.961 265.221 182.145 265.391C182.582 265.793 183.148 266.05 183.757 266.123C183.099 267.049 182.359 267.923 181.545 268.735C180.829 269.425 180.189 269.887 179.626 270.12L180.566 270.173C180.762 270.192 180.916 270.192 181.027 270.192C181.545 270.181 182.184 269.786 182.943 269.006C183.702 268.225 184.507 267.117 185.36 265.682C184.787 265.745 184.208 265.615 183.729 265.314C183.519 265.187 183.346 265.012 183.229 264.806C183.111 264.599 183.052 264.369 183.057 264.135C183.045 263.93 183.08 263.724 183.161 263.533C183.241 263.341 183.365 263.168 183.524 263.024C183.836 262.758 184.287 262.626 184.875 262.626C185.037 262.626 185.187 262.631 185.323 262.643C185.458 262.655 185.596 262.673 185.731 262.697ZM176.512 268.93V262.982H176.527C176.505 262.734 176.548 262.484 176.653 262.255C176.767 262.064 176.93 261.903 177.127 261.786H170.615C170.773 261.839 170.917 261.921 171.038 262.029C171.159 262.136 171.255 262.266 171.319 262.41C171.464 262.715 171.548 263.303 171.548 264.177C171.546 265.692 171.421 266.902 171.172 267.806C170.924 268.709 170.553 269.161 170.058 269.161C169.917 269.162 169.778 269.134 169.65 269.077C169.509 269.012 169.382 268.923 169.274 268.817L169.439 270.185C169.54 270.216 169.642 270.242 169.746 270.262C169.851 270.282 169.959 270.291 170.066 270.291C170.919 270.291 171.563 269.831 171.998 268.911C172.433 267.991 172.651 266.369 172.651 264.046V262.738H175.219V268.93C175.222 269.177 175.171 269.421 175.071 269.649C174.971 269.84 174.819 270.002 174.63 270.12H177.101C176.905 270.003 176.747 269.841 176.64 269.649C176.537 269.422 176.493 269.176 176.512 268.93ZM161.417 262.738H164.079L164.075 269.168H159.955C160.472 268.267 160.846 267.3 161.065 266.299C161.314 265.126 161.432 263.933 161.417 262.738ZM165.976 261.786H159.46V261.793C159.726 261.928 159.94 262.135 160.074 262.388C160.23 262.733 160.305 263.106 160.292 263.481C160.301 264.514 160.168 265.543 159.895 266.544C159.637 267.472 159.227 268.357 158.679 269.168H157.631V272.008L158.399 272.281C158.348 271.752 158.427 271.219 158.629 270.722C158.817 270.311 159.125 270.104 159.56 270.104H164.674C165.099 270.104 165.404 270.311 165.592 270.722C165.794 271.219 165.877 271.751 165.835 272.281L166.602 272.008V269.153H165.387V262.967C165.378 262.727 165.424 262.489 165.522 262.267C165.626 262.073 165.782 261.907 165.976 261.786ZM148.055 261.786H143.091L143.097 261.793C143.288 261.919 143.439 262.089 143.537 262.286C143.636 262.508 143.687 262.746 143.686 262.986V268.934C143.696 269.179 143.648 269.422 143.545 269.648C143.442 269.84 143.288 270.003 143.097 270.124H148.668L149.319 268.446C148.997 268.719 148.611 268.917 148.19 269.023C147.686 269.138 147.167 269.188 146.647 269.172C146.388 269.172 146.109 269.167 145.823 269.154C145.537 269.142 145.257 269.119 144.984 269.088V266.102H146.314C146.505 266.098 146.696 266.122 146.879 266.173C147.033 266.222 147.173 266.303 147.287 266.411V265.11C147.212 265.126 147.135 265.136 147.058 265.139H146.826H144.984V262.76L146.711 262.725C146.98 262.719 147.247 262.751 147.505 262.82C147.717 262.883 147.907 262.999 148.055 263.154V261.786ZM131.705 263.486C132.343 262.893 133.179 262.591 134.213 262.582L134.218 262.589C134.681 262.579 135.139 262.665 135.562 262.839C135.984 263.014 136.36 263.273 136.662 263.598C137.302 264.268 137.622 265.118 137.622 266.151C137.636 266.571 137.558 266.989 137.392 267.381C137.226 267.772 136.976 268.127 136.657 268.425C136.012 269.02 135.178 269.317 134.154 269.317C133.689 269.33 133.227 269.247 132.8 269.075C132.373 268.902 131.993 268.644 131.686 268.318C131.05 267.652 130.736 266.8 130.745 265.761C130.73 265.341 130.807 264.922 130.972 264.531C131.137 264.14 131.386 263.784 131.705 263.486ZM137.699 262.809C136.765 262.008 135.594 261.607 134.186 261.607L134.192 261.614C132.658 261.616 131.451 262.04 130.572 262.888C129.719 263.707 129.25 264.806 129.268 265.946C129.27 267.248 129.734 268.297 130.662 269.095C131.591 269.893 132.763 270.291 134.181 270.291C135.704 270.29 136.904 269.864 137.782 269.013C138.209 268.609 138.545 268.13 138.771 267.604C138.997 267.078 139.108 266.516 139.099 265.949C139.1 264.657 138.634 263.61 137.699 262.809ZM123.394 265.076H118.469V262.982C118.456 262.736 118.502 262.49 118.602 262.262C118.71 262.073 118.866 261.912 119.058 261.793H116.574C116.76 261.915 116.913 262.076 117.022 262.262C117.128 262.489 117.176 262.735 117.163 262.982V268.93C117.177 269.181 117.129 269.431 117.022 269.662C116.915 269.846 116.761 270.004 116.574 270.12H119.058C118.865 270.007 118.708 269.849 118.602 269.662C118.501 269.43 118.456 269.18 118.469 268.93V266.028H123.394V268.925C123.408 269.176 123.36 269.426 123.253 269.656C123.147 269.841 122.993 269.998 122.805 270.115H125.287C125.095 270.002 124.938 269.844 124.834 269.656C124.731 269.425 124.685 269.175 124.698 268.925V262.977C124.686 262.731 124.732 262.484 124.834 262.256C124.94 262.067 125.096 261.906 125.287 261.788H122.805C122.991 261.91 123.145 262.07 123.253 262.256C123.359 262.483 123.407 262.73 123.394 262.977V265.076ZM110.6 265.076H105.675V262.982C105.662 262.736 105.708 262.49 105.808 262.262C105.916 262.073 106.072 261.912 106.264 261.793H103.78C103.966 261.915 104.119 262.076 104.228 262.262C104.334 262.489 104.382 262.735 104.369 262.982V268.93C104.383 269.181 104.335 269.431 104.228 269.662C104.121 269.846 103.967 270.004 103.78 270.12H106.264C106.071 270.007 105.914 269.849 105.808 269.662C105.707 269.43 105.662 269.18 105.675 268.93V266.028H110.6V268.925C110.614 269.176 110.566 269.426 110.459 269.656C110.353 269.841 110.199 269.998 110.011 270.115H112.493C112.301 270.002 112.145 269.844 112.04 269.656C111.937 269.425 111.891 269.175 111.904 268.925V262.977C111.892 262.731 111.938 262.484 112.04 262.256C112.146 262.067 112.302 261.906 112.493 261.788H110.011C110.197 261.91 110.351 262.07 110.459 262.256C110.565 262.483 110.613 262.73 110.6 262.977V265.076ZM94.4328 266.158L95.8232 262.876L97.2249 266.158H94.4328ZM96.7226 261.793H94.6172C94.6918 261.823 94.7591 261.866 94.8153 261.92C94.8716 261.975 94.9155 262.039 94.9446 262.109C94.9987 262.27 94.9873 262.443 94.9126 262.596L92.3463 268.616C92.2103 268.957 92.0316 269.282 91.8138 269.585C91.6464 269.802 91.4348 269.986 91.191 270.127H93.6069C93.4052 270.007 93.2543 269.826 93.1798 269.614C93.1255 269.348 93.1678 269.072 93.3002 268.831L94.1036 266.962H97.5674L98.5344 269.198C98.6246 269.377 98.638 269.582 98.5721 269.77C98.4858 269.933 98.3347 270.059 98.1506 270.12H100.89C100.655 270.012 100.446 269.862 100.273 269.679C100.069 269.444 99.9087 269.178 99.7988 268.894L96.7226 261.793ZM82.2352 270.12H84.922C84.6657 270.023 84.4522 269.847 84.3161 269.623C84.1725 269.352 84.1077 269.05 84.128 268.749V262.8C84.2973 262.769 84.4761 262.743 84.6586 262.724C84.6833 262.721 84.708 262.718 84.7327 262.716C84.8904 262.699 85.0478 262.682 85.2023 262.682C85.7994 262.682 86.266 262.82 86.6021 263.098C86.772 263.242 86.9064 263.419 86.996 263.616C87.0856 263.813 87.1284 264.026 87.1214 264.24C87.1315 264.516 87.0719 264.789 86.9474 265.04C86.8229 265.29 86.637 265.509 86.4046 265.68C85.8864 266.037 85.2581 266.228 84.6134 266.226C84.7973 266.281 84.9862 266.321 85.1779 266.345C85.3517 266.368 85.5271 266.381 85.7028 266.382C86.572 266.389 87.2713 266.165 87.8006 265.71C88.0571 265.495 88.2608 265.231 88.3978 264.937C88.5349 264.642 88.602 264.323 88.5946 264.002C88.61 263.698 88.5486 263.394 88.4153 263.115C88.282 262.836 88.0806 262.59 87.827 262.396C87.314 262.007 86.5081 261.809 85.4093 261.802H82.2352C82.4234 261.925 82.5753 262.091 82.6774 262.283C82.7748 262.505 82.8246 262.743 82.8241 262.982V268.93C82.838 269.181 82.7898 269.431 82.683 269.662C82.5763 269.846 82.4226 270.004 82.2352 270.12ZM73.5485 269.132V265.944L74.1938 265.902C74.3688 265.885 74.5156 265.885 74.636 265.885C75.4751 265.884 76.0828 266.022 76.4591 266.301C76.6456 266.436 76.7954 266.609 76.8964 266.808C76.9974 267.006 77.0467 267.224 77.0405 267.443C77.033 268.037 76.8373 268.485 76.4535 268.787C76.0696 269.089 75.5447 269.24 74.8787 269.24C74.6661 269.24 74.4459 269.231 74.2202 269.216C73.9947 269.2 73.7704 269.172 73.5485 269.132ZM77.112 261.793H71.6557C71.8438 261.918 71.9952 262.084 72.096 262.277C72.1951 262.499 72.245 262.737 72.2427 262.977V268.925C72.247 269.172 72.197 269.416 72.096 269.644C71.9962 269.834 71.8443 269.997 71.6557 270.115H74.762C76.0264 270.115 76.9671 269.877 77.5842 269.401C77.8895 269.166 78.1321 268.869 78.2931 268.532C78.454 268.196 78.5289 267.829 78.5118 267.461C78.5118 266.682 78.2239 266.077 77.6482 265.645C77.0725 265.214 76.2647 264.998 75.2249 264.998C75.0706 264.998 74.8486 265.005 74.5588 265.02L73.5485 265.08V262.738H76.2296C76.5096 262.731 76.7889 262.768 77.0555 262.848C77.2527 262.913 77.4301 263.021 77.5729 263.163V261.763C77.4976 261.78 77.4208 261.79 77.3434 261.793H77.112ZM61.7234 261.805L61.5353 263.303C61.9501 263.066 62.3976 262.884 62.8655 262.76C63.307 262.645 63.7634 262.586 64.222 262.585C64.6597 262.561 65.0938 262.673 65.4563 262.902C65.6016 263.005 65.7177 263.14 65.7947 263.294C65.8717 263.448 65.9073 263.617 65.8984 263.787C65.9 263.975 65.8546 264.16 65.7658 264.328C65.6769 264.496 65.5471 264.643 65.3866 264.756C65.0543 264.998 64.5293 265.114 63.8118 265.106C63.6649 265.108 63.5179 265.102 63.3716 265.089C63.2549 265.076 63.0837 265.05 62.8786 265.012V266.256C63.0516 266.18 63.2344 266.126 63.4224 266.095C63.6609 266.056 63.9028 266.038 64.1449 266.04C64.7119 266.013 65.2725 266.162 65.7385 266.464C65.9319 266.6 66.0869 266.778 66.1905 266.982C66.294 267.186 66.3429 267.41 66.333 267.636C66.3369 267.879 66.275 268.12 66.1531 268.335C66.0311 268.551 65.853 268.734 65.635 268.869C65.1734 269.162 64.5419 269.308 63.7404 269.308C63.2301 269.313 62.7239 269.224 62.2502 269.048C61.7493 268.846 61.3003 268.548 60.9332 268.173L61.2794 269.791C61.6472 269.974 62.0413 270.106 62.4497 270.185C62.8947 270.26 63.3464 270.296 63.7987 270.291C65.0618 270.29 66.0452 270.047 66.7488 269.56C67.09 269.327 67.3644 269.02 67.5478 268.665C67.7312 268.31 67.818 267.919 67.8006 267.526C67.8183 266.984 67.6045 266.458 67.206 266.063C67.0032 265.869 66.7592 265.715 66.4895 265.613C66.2197 265.511 65.93 265.461 65.6388 265.468V265.433C66.1191 265.362 66.5612 265.146 66.8975 264.819C67.2153 264.493 67.3835 264.064 67.366 263.624C67.3772 263.338 67.3117 263.053 67.1755 262.796C67.0392 262.538 66.8364 262.316 66.5852 262.15C66.0646 261.793 65.2713 261.614 64.2051 261.614C63.7832 261.612 63.3618 261.639 62.9445 261.697C62.5402 261.756 62.1324 261.792 61.7234 261.805ZM55.1383 262.256L50.5832 268.57V262.979C50.571 262.733 50.6166 262.487 50.7168 262.258C50.8244 262.069 50.9808 261.908 51.1721 261.789H48.6905C48.8759 261.912 49.029 262.072 49.1382 262.258C49.2425 262.486 49.2901 262.732 49.2775 262.979V268.927C49.2909 269.177 49.2433 269.427 49.1382 269.658C49.031 269.842 48.8773 270 48.6905 270.117H50.5061C50.5809 270.063 50.6514 270.005 50.7168 269.942C50.8028 269.852 50.882 269.756 50.9539 269.656L55.5089 263.343V268.93C55.5228 269.181 55.4745 269.431 55.3678 269.662C55.2611 269.846 55.1073 270.004 54.92 270.12H57.4017C57.21 270.007 57.0537 269.849 56.9482 269.662C56.8463 269.43 56.8007 269.18 56.8146 268.93V262.982C56.8014 262.736 56.8471 262.49 56.9482 262.262C57.0557 262.073 57.2114 261.912 57.4017 261.793H55.5861C55.5059 261.851 55.431 261.914 55.3622 261.984C55.2796 262.069 55.2047 262.16 55.1383 262.256ZM285.406 231.649C285.148 231.554 284.872 231.51 284.595 231.519L280.956 231.579C281.828 231.963 282.558 232.578 283.054 233.347L288.821 241.615V247.175C288.821 247.902 288.821 248.943 287.532 249.776H292.962C291.675 248.943 291.675 247.902 291.675 247.175V241.633L298.894 231.563H294.053C294.527 231.797 295.005 232.291 295.005 232.889C294.979 233.266 294.843 233.629 294.612 233.939L290.751 239.507L285.406 231.649ZM274.552 249.785C273.265 248.952 273.265 247.911 273.265 247.183V233.653L276.399 233.627C277.097 233.627 278.104 233.627 278.636 234.512L279.616 231.467C279.05 231.53 278.48 231.565 277.91 231.572H267.08C266.481 231.591 265.881 231.556 265.289 231.467L264.17 234.721C264.547 234.361 265.001 234.078 265.502 233.89C266.003 233.702 266.54 233.612 267.08 233.627L270.41 233.653V247.183C270.41 247.911 270.41 248.952 269.122 249.785H274.552ZM256.392 234.173C256.392 233.522 256.446 232.378 257.82 231.572H252.241C253.526 232.404 253.526 233.445 253.526 234.173V247.19C253.526 247.918 253.526 248.959 252.241 249.792H264.283L265.85 246.011C264.087 247.39 261.428 247.703 259.609 247.703C258.533 247.676 257.459 247.598 256.392 247.469V234.173ZM242.429 241.12H236.358L239.379 233.947L242.429 241.12ZM248.081 247.106L241.338 231.572L236.745 231.558C237.891 232.058 237.5 233.048 237.389 233.307L231.791 246.473C231.261 247.722 230.7 248.894 229.244 249.778H234.533C233.219 248.919 233.471 247.853 233.861 246.942L235.624 242.857H243.15L245.278 247.756C245.53 248.354 245.756 249.239 244.439 249.785H250.459C249.088 249.11 248.529 248.119 248.081 247.106ZM225.722 234.572V231.572H214.866C216.153 232.404 216.153 233.496 216.153 234.173V247.176C216.153 247.853 216.153 248.945 214.866 249.778H227.067L228.495 246.104C227.263 247.119 225.722 247.693 222.646 247.693C222.087 247.693 220.715 247.673 219.009 247.518V240.999H221.917C222.898 240.999 223.513 241.181 224.045 241.676V238.84C223.712 238.893 223.375 238.919 223.037 238.917H219.009V233.715L222.785 233.636C224.437 233.61 225.193 234 225.722 234.572ZM199.095 231.519L199.09 231.519L199.084 231.519C197.853 231.545 196.625 231.572 195.394 231.572C196.681 232.404 196.681 233.445 196.681 234.173V247.18C196.681 247.908 196.681 248.949 195.394 249.781H200.815C199.53 248.949 199.53 247.908 199.53 247.18V233.571C200.145 233.433 200.778 233.374 201.411 233.396C204.854 233.396 205.33 235.27 205.33 236.44C205.33 239.04 202.363 240.114 200.35 240.289C202.111 243.359 206.478 249.941 209.695 249.941C210.004 249.941 210.76 249.914 212.719 249.785C209.947 248.719 205.889 244.008 203.707 240.809C206.73 240.34 208.55 238.337 208.55 236.202C208.55 234.771 207.904 231.467 201.524 231.467C200.715 231.467 199.906 231.493 199.095 231.519ZM178.356 233.106C179.503 233.106 181.182 233.29 183.142 234.798L183.157 231.754C181.69 231.361 180.169 231.168 178.642 231.182C172.809 231.182 171.304 233.809 171.304 236.047C171.304 238.909 173.684 240.055 176.873 241.407C177.063 241.487 177.251 241.565 177.438 241.642C179.679 242.573 181.603 243.372 181.603 245.31C181.603 247.054 179.812 248.093 177.041 248.093C173.739 248.093 171.752 246.793 170.717 245.961L171.528 249.395C173.249 249.934 175.057 250.198 176.873 250.175C180.96 250.175 184.738 248.504 184.738 244.577C184.738 241.766 182.749 240.803 179.447 239.425C176.062 238.02 174.523 237.291 174.523 235.73C174.523 234.747 175.195 233.106 178.356 233.106ZM161.485 233.106C162.632 233.106 164.311 233.29 166.271 234.798L166.286 231.754C164.819 231.361 163.298 231.169 161.771 231.182C155.938 231.182 154.433 233.809 154.433 236.047C154.433 238.909 156.804 240.055 160.002 241.407C160.192 241.487 160.381 241.566 160.568 241.643C162.807 242.573 164.73 243.372 164.73 245.31C164.73 247.054 162.939 248.093 160.17 248.093C156.868 248.093 154.881 246.793 153.846 245.961L154.657 249.395C156.378 249.934 158.186 250.198 160.002 250.175C164.087 250.175 167.865 248.504 167.865 244.577C167.865 241.766 165.878 240.803 162.576 239.425C159.191 238.02 157.65 237.291 157.65 235.73C157.65 234.747 158.322 233.106 161.485 233.106ZM149.37 234.572V231.572H138.506C139.793 232.404 139.793 233.496 139.793 234.173V247.176C139.793 247.853 139.793 248.945 138.506 249.778H150.706L152.132 246.104C150.901 247.119 149.362 247.693 146.284 247.693C145.724 247.693 144.352 247.673 142.646 247.518V240.999H145.566C146.544 240.999 147.159 241.181 147.69 241.676V238.84C147.357 238.894 147.021 238.919 146.683 238.917H142.653V233.715L146.431 233.636C148.083 233.61 148.837 234 149.37 234.572ZM121.637 232.249C121.469 232.039 121.328 231.812 121.217 231.572H117.046C118.333 232.404 118.333 233.445 118.333 234.173V247.185C118.333 247.913 118.333 248.954 117.046 249.787H121.804C120.518 248.954 120.518 247.913 120.518 247.185V235.347L130.9 247.418C130.932 247.456 130.964 247.494 130.997 247.532C131.951 248.65 133.047 249.934 135.265 250.513V234.173C135.265 233.445 135.265 232.404 136.553 231.572H131.795C133.082 232.404 133.082 233.445 133.082 234.173V245.518L121.637 232.249ZM109.176 234.173V238.744L98.4103 238.753V234.173C98.4103 233.321 98.4385 232.404 99.6991 231.572H94.2691C95.5278 232.404 95.5561 233.314 95.5561 234.173V247.183C95.5561 248.037 95.5278 248.952 94.2691 249.787H99.6991C98.4385 248.952 98.4103 248.042 98.4103 247.183V240.835H109.184V247.183C109.184 248.037 109.157 248.952 107.899 249.787H113.319C112.058 248.952 112.032 248.042 112.032 247.183V234.173C112.032 233.321 112.06 232.404 113.319 231.572H107.891C109.15 232.404 109.176 233.314 109.176 234.173ZM85.1402 233.384C87.1259 233.405 89.0579 233.986 90.6812 235.049L90.6868 231.883C90.1592 231.818 89.6364 231.723 89.1214 231.598C87.9288 231.321 86.7044 231.18 85.4751 231.178C78.3951 231.178 74.5908 235.803 74.5908 240.8C74.5908 244.832 77.1929 250.166 85.588 250.166C87.4281 250.166 88.8279 250.01 90.4799 249.515L92.382 246.031C91.5429 246.68 89.6671 247.955 85.8063 247.955C80.1543 247.955 77.8025 243.896 77.8025 240.098C77.8025 235.648 81.4732 233.384 85.1402 233.384ZM71.4619 234.173C71.4619 233.445 71.4619 232.404 72.7488 231.572H67.3208C68.6058 232.404 68.6059 233.445 68.6059 234.173V247.183C68.6059 247.911 68.6058 248.952 67.3208 249.785H72.7488C71.4619 248.952 71.4619 247.911 71.4619 247.183V234.173ZM52.1335 231.519L52.1279 231.519C50.8974 231.545 49.6651 231.572 48.4346 231.572C49.7215 232.404 49.7215 233.445 49.7215 234.173V247.18C49.7215 247.908 49.7215 248.949 48.4346 249.781H53.857C52.5701 248.949 52.57 247.908 52.57 247.18V233.571C53.1856 233.433 53.8187 233.374 54.4515 233.396C57.8927 233.396 58.3688 235.27 58.3688 236.44C58.3688 239.04 55.4017 240.114 53.3885 240.289C55.1514 243.359 59.5165 249.941 62.7338 249.941C63.0423 249.941 63.7968 249.914 65.7573 249.785C62.9859 248.719 58.9294 244.008 56.745 240.809C59.7686 240.34 61.5861 238.337 61.5861 236.202C61.5861 234.771 60.9445 231.467 54.5625 231.467C53.7535 231.467 52.9444 231.493 52.1335 231.519Z" fill="url(#paint0_linear_304_547)"/>
</g>
<defs>
<linearGradient id="paint0_linear_304_547" x1="-51.5694" y1="118.299" x2="448.858" y2="361.015" gradientUnits="userSpaceOnUse">
<stop stop-color="#DABE83"/>
<stop offset="1" stop-color="#C9792F"/>
</linearGradient>
<clipPath id="clip0_304_547">
<rect width="350" height="330" fill="white"/>
</clipPath>
</defs>
</svg>
