<svg width="30" height="25" viewBox="0 0 30 25" fill="none" xmlns="http://www.w3.org/2000/svg">
<g clip-path="url(#clip0_345_2311)">
<path d="M14.9638 12.2729L22.4598 24.7183L29.9518 12.2729L14.9638 12.2729Z" fill="#8C8C8C"/>
<path d="M14.964 12.2729L7.46796 24.7183L-0.0320435 12.2729L14.964 12.2729Z" fill="#D9D9D9"/>
<path d="M14.9638 12.2728L22.4598 -0.180176L29.9518 12.2728L14.9638 12.2728Z" fill="#D9D9D9"/>
<path d="M22.464 -0.180176L14.964 12.2728L7.46796 -0.180176L22.464 -0.180176Z" fill="#BFBFBF"/>
<path d="M7.46796 24.7183L14.964 12.2729L22.464 24.7183L7.46796 24.7183Z" fill="#BFBFBF"/>
<path d="M14.964 12.2728L7.46796 -0.180176L-0.0320435 12.2728L14.964 12.2728Z" fill="#F0F0F0"/>
<path opacity="0.36" d="M10.2084 20.158L5.46838 12.2728L10.2084 4.37988L19.7124 4.37988L24.4684 12.2728L19.7124 20.158L10.2084 20.158Z" fill="#F0F0F0"/>
<path d="M17.7074 7.7168L12.2194 7.7168L9.47943 12.273L12.2194 16.8331L17.7074 16.8331L20.4394 12.273L17.7074 7.7168Z" fill="#D9D9D9"/>
<path d="M6.59514 11.8975L6.59514 13.7485C6.51621 13.8362 6.39432 13.9314 6.22949 14.034C6.06465 14.1346 5.85222 14.2212 5.5922 14.2939C5.33218 14.3666 5.0176 14.403 4.64846 14.403C4.32111 14.403 4.02279 14.3538 3.75348 14.2554C3.48417 14.1549 3.25201 14.0084 3.05699 13.8159C2.8643 13.6234 2.71571 13.3882 2.61124 13.1101C2.50677 12.83 2.45453 12.5102 2.45453 12.1509L2.45453 11.859C2.45453 11.4997 2.50444 11.18 2.60427 10.8998C2.70642 10.6197 2.85153 10.3833 3.03958 10.1909C3.22763 9.99838 3.45167 9.85188 3.71169 9.75136C3.97171 9.65084 4.26075 9.60059 4.57881 9.60059C5.01992 9.60059 5.3821 9.66688 5.66533 9.79948C5.94857 9.92994 6.16448 10.1117 6.31307 10.3448C6.46397 10.5758 6.55684 10.841 6.59166 11.1404L5.57827 11.1404C5.55274 10.9822 5.50398 10.8442 5.43201 10.7266C5.36004 10.609 5.25673 10.517 5.12207 10.4507C4.98974 10.3844 4.81794 10.3513 4.60667 10.3513C4.43255 10.3513 4.277 10.3844 4.14003 10.4507C4.00537 10.5149 3.89161 10.61 3.79875 10.7362C3.70588 10.8624 3.63507 11.0185 3.58632 11.2046C3.53757 11.3906 3.51319 11.6067 3.51319 11.8526L3.51319 12.1509C3.51319 12.3948 3.53873 12.6108 3.5898 12.799C3.64088 12.985 3.71633 13.1422 3.81616 13.2705C3.91831 13.3967 4.04368 13.4919 4.19226 13.556C4.34085 13.6202 4.51381 13.6523 4.71115 13.6523C4.87598 13.6523 5.01296 13.6395 5.12207 13.6138C5.23351 13.5881 5.32289 13.5571 5.39022 13.5208C5.45987 13.4823 5.51327 13.4459 5.55041 13.4117L5.55041 12.584L4.59623 12.584L4.59623 11.8975L6.59514 11.8975Z" fill="white"/>
<path d="M7.22393 9.66795L9.11489 9.66795C9.50261 9.66795 9.83576 9.72142 10.1144 9.82835C10.3953 9.93529 10.6112 10.0935 10.7621 10.3031C10.913 10.5127 10.9884 10.7704 10.9884 11.0763C10.9884 11.3265 10.942 11.5414 10.8491 11.7211C10.7586 11.8986 10.6298 12.0472 10.4626 12.167C10.2978 12.2846 10.1039 12.3787 9.88103 12.4493L9.5502 12.6097L7.90649 12.6097L7.89952 11.859L9.12186 11.859C9.30527 11.859 9.45733 11.8291 9.57806 11.7692C9.69878 11.7093 9.78933 11.6259 9.84969 11.519C9.91237 11.412 9.94371 11.288 9.94371 11.1468C9.94371 10.9971 9.91353 10.8677 9.85317 10.7587C9.79281 10.6496 9.7011 10.5662 9.57806 10.5084C9.45501 10.4507 9.30062 10.4218 9.11489 10.4218L8.26866 10.4218L8.26866 14.3388L7.22393 14.3388L7.22393 9.66795ZM10.0586 14.3388L8.90247 12.2568L10.0064 12.2504L11.1765 14.2939L11.1765 14.3388L10.0586 14.3388Z" fill="white"/>
<path d="M12.6898 9.66795L12.6898 14.3388L11.6486 14.3388L11.6486 9.66795L12.6898 9.66795Z" fill="white"/>
<path d="M15.4394 12.2889L14.137 12.2889L14.13 11.628L15.2235 11.628C15.4162 11.628 15.5741 11.6056 15.6971 11.5607C15.8202 11.5136 15.9119 11.4463 15.9722 11.3586C16.0349 11.2687 16.0663 11.1597 16.0663 11.0314C16.0663 10.8859 16.0361 10.7683 15.9757 10.6785C15.9177 10.5886 15.826 10.5234 15.7006 10.4828C15.5776 10.4422 15.4185 10.4218 15.2235 10.4218L14.4992 10.4218L14.4992 14.3388L13.4544 14.3388L13.4544 9.66795L15.2235 9.66795C15.5183 9.66795 15.7819 9.69362 16.014 9.74495C16.2485 9.79627 16.447 9.87434 16.6095 9.97913C16.772 10.0839 16.8962 10.2165 16.9821 10.3769C17.068 10.5352 17.111 10.7234 17.111 10.9415C17.111 11.134 17.0634 11.3115 16.9682 11.4741C16.8753 11.6366 16.7279 11.7692 16.5259 11.8718C16.3263 11.9745 16.0651 12.0312 15.7424 12.0419L15.4394 12.2889ZM15.3941 14.3388L13.8514 14.3388L14.2589 13.5881L15.3941 13.5881C15.5776 13.5881 15.7273 13.5614 15.8434 13.5079C15.9595 13.4523 16.0454 13.3775 16.1011 13.2834C16.1568 13.1893 16.1847 13.0813 16.1847 12.9594C16.1847 12.8225 16.1591 12.7038 16.108 12.6033C16.0593 12.5028 15.9804 12.4258 15.8712 12.3723C15.7621 12.3167 15.6182 12.2889 15.4394 12.2889L14.433 12.2889L14.44 11.628L15.6936 11.628L15.9339 11.8879C16.2427 11.8836 16.4911 11.9339 16.6792 12.0387C16.8695 12.1413 17.0077 12.275 17.0936 12.4397C17.1818 12.6043 17.2259 12.7808 17.2259 12.969C17.2259 13.2684 17.1551 13.5208 17.0135 13.7261C16.8719 13.9292 16.6641 14.0822 16.3901 14.1848C16.1185 14.2875 15.7865 14.3388 15.3941 14.3388Z" fill="white"/>
<path d="M18.9064 9.66795L18.9064 14.3388L17.8651 14.3388L17.8651 9.66795L18.9064 9.66795Z" fill="white"/>
<path d="M23.035 13.617L23.035 14.3388L19.5665 14.3388L19.5665 13.7229L21.2067 12.1028C21.3716 11.9339 21.5016 11.7852 21.5968 11.6569C21.692 11.5265 21.7605 11.4099 21.8022 11.3072C21.8464 11.2024 21.8684 11.103 21.8684 11.0089C21.8684 10.8677 21.8429 10.7469 21.7918 10.6464C21.7407 10.5437 21.6653 10.4646 21.5654 10.409C21.4679 10.3534 21.3472 10.3256 21.2033 10.3256C21.05 10.3256 20.9177 10.3598 20.8063 10.4282C20.6971 10.4967 20.6136 10.5919 20.5555 10.7138C20.4998 10.8357 20.4719 10.9736 20.4719 11.1276L19.4655 11.1276C19.4655 10.8496 19.5375 10.5951 19.6814 10.3641C19.8254 10.131 20.0285 9.94598 20.2909 9.80911C20.5532 9.67009 20.8643 9.60059 21.2242 9.60059C21.5794 9.60059 21.8789 9.65405 22.1226 9.76099C22.3687 9.86578 22.5544 10.0176 22.6798 10.2165C22.8075 10.4133 22.8713 10.6485 22.8713 10.9223C22.8713 11.0763 22.8446 11.227 22.7913 11.3746C22.7379 11.52 22.6612 11.6655 22.5614 11.8109C22.4639 11.9542 22.3455 12.0996 22.2062 12.2472C22.0669 12.3948 21.9125 12.5477 21.743 12.7059L20.862 13.617L23.035 13.617Z" fill="white"/>
<path d="M27 12.5936L27 13.3187L23.3469 13.3187L23.2982 12.7573L25.412 9.66795L26.2095 9.66795L25.3458 10.9993L24.2941 12.5936L27 12.5936ZM26.4254 9.66795L26.4254 14.3388L25.4224 14.3388L25.4224 9.66795L26.4254 9.66795Z" fill="white"/>
</g>
<defs>
<clipPath id="clip0_345_2311">
<rect width="30" height="24.5455" fill="white"/>
</clipPath>
</defs>
</svg>
