<svg width="86" height="42" viewBox="0 0 86 42" fill="none" xmlns="http://www.w3.org/2000/svg">
<g clip-path="url(#clip0_16_55)">
<path d="M80.6914 0H5.30864C2.37676 0 0 2.3505 0 5.25V36.75C0 39.6495 2.37676 42 5.30864 42H80.6914C83.6232 42 86 39.6495 86 36.75V5.25C86 2.3505 83.6232 0 80.6914 0Z" fill="#2E2D2B"/>
<path d="M42.4691 0H4.77777V21.525H42.4691V0Z" fill="#32808D"/>
<path d="M31.1413 11.9603C31.1452 11.8539 31.125 11.748 31.0823 11.6503C31.0397 11.5527 30.9756 11.4657 30.8948 11.3957C30.6344 11.2068 30.3394 11.07 30.0263 10.9929C29.4461 10.8416 28.8986 10.5865 28.4107 10.2401C28.2311 10.1013 28.0876 9.92203 27.992 9.71712C27.8963 9.51216 27.8513 9.28756 27.8607 9.06192C27.8567 8.82268 27.9112 8.58606 28.0195 8.37233C28.1278 8.1586 28.2868 7.97417 28.4827 7.83478C28.941 7.5044 29.4983 7.33729 30.0642 7.3605C30.6567 7.33189 31.2401 7.51333 31.7102 7.87243C31.9111 8.03182 32.0708 8.23667 32.1757 8.46977C32.2806 8.70292 32.3278 8.95755 32.3132 9.21249V9.23884H31.1186C31.1268 9.10912 31.1063 8.97923 31.0585 8.85822C31.0106 8.73726 30.9366 8.62816 30.8417 8.5387C30.6209 8.36367 30.3424 8.27647 30.0604 8.294C29.8062 8.27783 29.5549 8.35559 29.355 8.51235C29.2741 8.58081 29.2096 8.66633 29.1662 8.76277C29.1229 8.85916 29.1019 8.96395 29.1047 9.06943C29.1041 9.1696 29.1283 9.2683 29.1753 9.35697C29.2223 9.44559 29.2905 9.52135 29.374 9.57763C29.6631 9.76148 29.9773 9.90344 30.3069 9.9992C30.8702 10.1366 31.3968 10.3934 31.8505 10.7521C32.0255 10.9003 32.1643 11.0861 32.2563 11.2954C32.3483 11.5048 32.3911 11.7321 32.3815 11.9603C32.3892 12.2008 32.3367 12.4394 32.2289 12.6549C32.121 12.8703 31.961 13.0559 31.7633 13.195C31.2833 13.5169 30.711 13.6754 30.1325 13.6467C29.5274 13.6631 28.9322 13.4921 28.4296 13.1573C28.1954 12.9947 28.0083 12.7738 27.8871 12.5168C27.766 12.2599 27.715 11.9758 27.7394 11.6931V11.6667H28.934C28.9216 11.8154 28.9442 11.965 29.0001 12.1036C29.0561 12.2421 29.1438 12.3657 29.2564 12.4647C29.5077 12.6465 29.8144 12.7369 30.1249 12.7207C30.3937 12.7403 30.6612 12.6687 30.8834 12.5174C30.9682 12.4518 31.0359 12.367 31.0808 12.2701C31.1256 12.1731 31.1464 12.0669 31.1413 11.9603Z" fill="#4AC6D7"/>
<path d="M24.8187 11.0042H24.3674V13.5526H23.1348V7.4508H24.3674V9.94271H24.7126L26.3965 7.4508H27.9135L25.7858 10.289L28.0614 13.5526H26.5254L24.8187 11.0042Z" fill="#4AC6D7"/>
<path d="M22.6231 13.5526H21.3905V7.4508H22.6231V13.5526Z" fill="#4AC6D7"/>
<path d="M17.7382 11.3393V13.5526H16.5056V7.45085H18.857C19.4615 7.41673 20.0569 7.60877 20.5257 7.98913C20.7255 8.16543 20.8835 8.38346 20.9884 8.62748C21.0933 8.8715 21.1425 9.13558 21.1326 9.4007C21.143 9.66535 21.094 9.92896 20.989 10.1725C20.8841 10.416 20.7258 10.6332 20.5257 10.8085C20.0553 11.1851 19.4604 11.3744 18.857 11.3393H17.7192H17.7382ZM17.7382 10.3982H18.876C19.0186 10.4085 19.1617 10.389 19.2963 10.341C19.4309 10.293 19.5538 10.2177 19.6573 10.1196C19.7464 10.0242 19.8158 9.91226 19.8614 9.79015C19.9069 9.66808 19.9278 9.5383 19.9227 9.40821C19.9317 9.14119 19.8366 8.881 19.6573 8.68171C19.5551 8.5816 19.4325 8.50426 19.2977 8.45497C19.163 8.40562 19.0192 8.3854 18.876 8.39564H17.7382V10.3982Z" fill="#4AC6D7"/>
<path d="M15.0756 11.9603C15.0795 11.8539 15.0593 11.748 15.0167 11.6503C14.974 11.5526 14.9099 11.4656 14.8291 11.3956C14.5686 11.2068 14.2737 11.07 13.9606 10.9929C13.3804 10.8416 12.8328 10.5865 12.3449 10.2401C12.1654 10.1013 12.0219 9.92197 11.9262 9.71707C11.8306 9.51216 11.7856 9.28751 11.795 9.06187C11.791 8.82268 11.8455 8.58606 11.9538 8.37233C12.0621 8.1586 12.2211 7.97412 12.417 7.83473C12.8774 7.49926 13.4392 7.32931 14.0099 7.35294C14.6024 7.32433 15.1858 7.50577 15.6559 7.86487C15.8568 8.02426 16.0164 8.22906 16.1213 8.46221C16.2262 8.69531 16.2734 8.94999 16.2589 9.20493V9.23123H15.0642C15.0725 9.10156 15.052 8.97167 15.0041 8.85066C14.9563 8.7297 14.8823 8.6206 14.7874 8.53114C14.5666 8.35611 14.2881 8.26891 14.0061 8.28644C13.7519 8.27027 13.5006 8.34802 13.3007 8.50479C13.2197 8.57325 13.1552 8.65877 13.1119 8.75516C13.0686 8.8516 13.0476 8.95634 13.0504 9.06187C13.0497 9.16204 13.074 9.26074 13.121 9.34936C13.1679 9.43803 13.2362 9.51379 13.3196 9.57007C13.6088 9.75392 13.923 9.89588 14.2526 9.99164C14.8159 10.129 15.3424 10.3859 15.7962 10.7444C15.9712 10.8927 16.11 11.0785 16.202 11.2879C16.294 11.4972 16.3368 11.7246 16.3271 11.9528C16.3348 12.1932 16.2824 12.4318 16.1745 12.6472C16.0666 12.8627 15.9067 13.0483 15.709 13.1874C15.229 13.5094 14.6567 13.6678 14.0781 13.6391C13.4731 13.6556 12.8779 13.4845 12.3753 13.1498C12.141 12.9871 11.9539 12.7663 11.8328 12.5093C11.7116 12.2523 11.6607 11.9682 11.6851 11.6855V11.6591H12.8721C12.8596 11.8079 12.8823 11.9575 12.9383 12.096C12.9942 12.2345 13.0819 12.3582 13.1945 12.4571C13.4458 12.639 13.7524 12.7293 14.063 12.7131C14.3317 12.7328 14.5992 12.6611 14.8215 12.5099C14.9045 12.4447 14.9708 12.3609 15.015 12.2653C15.0591 12.1698 15.0799 12.0653 15.0756 11.9603Z" fill="#4AC6D7"/>
<path d="M93.7759 -2.12365L61.5803 -20.4751L49.6205 -0.0239994L81.8162 18.3275L93.7759 -2.12365Z" fill="#2D87DB"/>
<path d="M89.716 24.2805L39.8018 11.0249L31.321 42.3943L81.2352 55.6499L89.716 24.2805Z" fill="#F08F3B"/>
<path d="M73.9462 39.4885C73.9914 39.3417 74.003 39.1869 73.9807 39.0351C73.9585 38.8833 73.9022 38.7385 73.8162 38.6112C73.5258 38.2521 73.1675 37.9528 72.7619 37.73C72.0134 37.3053 71.3493 36.7481 70.8019 36.0856C70.605 35.8262 70.4733 35.5235 70.4176 35.2028C70.3619 34.8821 70.3841 34.5527 70.4818 34.2418C70.5662 33.9071 70.7313 33.5977 70.9623 33.34C71.1932 33.0822 71.483 32.8839 71.8079 32.762C72.5687 32.4709 73.4053 32.4436 74.1825 32.6846C75.0159 32.8633 75.7576 33.3312 76.2751 34.0046C76.4944 34.3008 76.6388 34.6449 76.6967 35.0083C76.7545 35.3717 76.7243 35.7438 76.608 36.0934L76.5979 36.1302L74.939 35.6896C74.9995 35.512 75.0196 35.3235 74.9989 35.1374C74.9782 34.9512 74.9167 34.772 74.8185 34.6123C74.5774 34.2872 74.2239 34.063 73.8257 33.9835C73.4786 33.8672 73.1006 33.8828 72.764 34.0274C72.6255 34.0929 72.5039 34.1883 72.4073 34.3066C72.3112 34.4249 72.2422 34.5631 72.2066 34.711C72.1678 34.8503 72.1647 34.9968 72.1965 35.1375C72.2284 35.2783 72.2942 35.409 72.3892 35.5181C72.7215 35.8809 73.1043 36.1945 73.5258 36.4494C74.2563 36.8484 74.8907 37.4003 75.3859 38.0672C75.5728 38.3382 75.6954 38.6481 75.7448 38.9737C75.7937 39.2991 75.7671 39.6316 75.6678 39.9459C75.5882 40.2836 75.4258 40.5966 75.1948 40.8569C74.9639 41.1172 74.6719 41.3167 74.3449 41.4375C73.5571 41.7089 72.7024 41.7187 71.9104 41.4653C71.0636 41.2651 70.3019 40.8074 69.7296 40.1558C69.4657 39.8429 69.289 39.4663 69.2178 39.0636C69.1462 38.661 69.1823 38.2466 69.3229 37.8618L69.3325 37.8251L70.9915 38.2656C70.9182 38.4682 70.8932 38.6849 70.9187 38.8985C70.9442 39.112 71.0196 39.3166 71.1385 39.496C71.4193 39.8418 71.8111 40.0808 72.2485 40.1728C72.6143 40.2993 73.0125 40.2981 73.3782 40.1694C73.5205 40.1093 73.6463 40.0161 73.745 39.8976C73.8443 39.7791 73.9128 39.6389 73.9462 39.4885Z" fill="#D75F4A"/>
<path d="M65.5267 35.8253L64.8998 35.6589L63.9405 39.2083L62.2285 38.7537L64.5266 30.2552L66.2381 30.7097L65.2995 34.1804L65.7789 34.3077L69.0554 31.4579L71.1619 32.0173L67.139 35.1858L69.0697 40.5705L66.9367 40.0041L65.5267 35.8253Z" fill="#D75F4A"/>
<path d="M61.5182 38.565L59.8067 38.1105L62.1043 29.6119L63.8158 30.0664L61.5182 38.565Z" fill="#D75F4A"/>
<path d="M55.5683 33.6809L54.7348 36.7637L53.0235 36.3092L55.3209 27.8106L58.5862 28.6777C59.4383 28.8531 60.1931 29.3402 60.7006 30.0428C60.9119 30.362 61.0489 30.7239 61.1025 31.1025C61.1567 31.4811 61.1253 31.867 61.0117 32.2326C60.9268 32.605 60.7596 32.9542 60.5217 33.2546C60.2844 33.5551 59.9829 33.7993 59.6389 33.9696C58.8442 34.3207 57.9465 34.3649 57.1221 34.0935L55.5422 33.6739L55.5683 33.6809ZM55.9229 32.3702L57.5027 32.7898C57.697 32.8567 57.903 32.8824 58.1079 32.8652C58.3128 32.848 58.5119 32.7883 58.6924 32.6899C58.8522 32.5899 58.9907 32.4595 59.1001 32.3063C59.2095 32.1531 59.287 31.98 59.3289 31.7969C59.442 31.4283 59.408 31.0309 59.2339 30.6872C59.1298 30.51 58.9886 30.3571 58.8203 30.2388C58.6515 30.1203 58.4593 30.0391 58.2565 30.0006L56.6767 29.581L55.9229 32.3702Z" fill="#D75F4A"/>
<path d="M51.6374 33.564C51.6827 33.4173 51.6947 33.2624 51.6722 33.1106C51.6498 32.9588 51.5936 32.814 51.5077 32.6867C51.2171 32.3276 50.859 32.0283 50.4533 31.8055C49.7046 31.3808 49.0404 30.8236 48.4934 30.1612C48.2964 29.9017 48.1646 29.599 48.1089 29.2783C48.0533 28.9576 48.0754 28.6282 48.1734 28.3173C48.2579 27.9827 48.4227 27.6732 48.6535 27.4155C48.8845 27.1578 49.1746 26.9595 49.4991 26.8376C50.2648 26.5401 51.1089 26.5106 51.8924 26.7539C52.726 26.9325 53.4676 27.4004 53.9852 28.0739C54.2045 28.37 54.3489 28.7141 54.4067 29.0775C54.4646 29.4409 54.4343 29.813 54.3181 30.1627L54.308 30.1994L52.6492 29.7588C52.7095 29.5812 52.7299 29.3927 52.7091 29.2066C52.6882 29.0205 52.6265 28.8413 52.5284 28.6816C52.2877 28.3564 51.9338 28.1322 51.5356 28.0527C51.1887 27.9364 50.8105 27.9521 50.4739 28.0967C50.3357 28.1621 50.214 28.2576 50.1175 28.3758C50.0211 28.4941 49.9524 28.6323 49.9166 28.7803C49.878 28.9195 49.8745 29.066 49.9063 29.2068C49.9382 29.3475 50.0044 29.4782 50.0991 29.5873C50.4314 29.9501 50.8142 30.2637 51.2359 30.5186C51.9663 30.9176 52.6008 31.4696 53.096 32.1364C53.2829 32.4074 53.4055 32.7174 53.4549 33.0429C53.5037 33.3684 53.4772 33.7008 53.3779 34.0151C53.2983 34.3528 53.1358 34.6658 52.9046 34.9261C52.6738 35.1864 52.3817 35.3859 52.0548 35.5068C51.2671 35.7782 50.4127 35.7879 49.6202 35.5345C48.7738 35.3343 48.0117 34.8766 47.4399 34.225C47.1758 33.9121 46.9992 33.5355 46.9277 33.1329C46.8563 32.7303 46.8925 32.3158 47.0327 31.931L47.0427 31.8943L48.691 32.3321C48.6177 32.5346 48.5928 32.7513 48.6184 32.9649C48.6439 33.1784 48.7192 33.3831 48.8382 33.5624C49.1187 33.9083 49.5105 34.1472 49.9478 34.2392C50.3136 34.3657 50.712 34.3645 51.0776 34.2358C51.2174 34.1756 51.341 34.0833 51.4383 33.9666C51.5356 33.8499 51.6038 33.7119 51.6374 33.564Z" fill="#D75F4A"/>
<path d="M35.8545 42.2389L9.55557 16.2749L-7.35085 32.966L18.948 58.93L35.8545 42.2389Z" fill="#D95B4F"/>
</g>
<defs>
<clipPath id="clip0_16_55">
<rect width="86" height="42" rx="5" fill="white"/>
</clipPath>
</defs>
</svg>
