<svg width="55" height="48" viewBox="0 0 55 48" fill="none" xmlns="http://www.w3.org/2000/svg">
<path d="M9.28337 27.8289C9.29343 27.55 9.24068 27.2723 9.12898 27.0162C9.01728 26.76 8.84944 26.5319 8.63771 26.3485C7.95554 25.8533 7.18295 25.4946 6.36298 25.2924C4.84333 24.8957 3.4093 24.2268 2.13139 23.3185C1.66123 22.9546 1.28529 22.4845 1.03478 21.9472C0.784266 21.4099 0.666437 20.8209 0.691078 20.2293C0.680517 19.602 0.823223 18.9816 1.10696 18.4212C1.39069 17.8608 1.80696 17.3772 2.32012 17.0117C3.52601 16.132 4.99741 15.6865 6.49212 15.7484C8.04391 15.6734 9.57199 16.1491 10.8032 17.0907C11.3295 17.5086 11.7475 18.0457 12.0223 18.6569C12.2971 19.2682 12.4206 19.9359 12.3825 20.6043V20.6734H9.25357C9.2752 20.3333 9.22147 19.9927 9.09618 19.6755C8.97089 19.3583 8.77708 19.0723 8.52843 18.8376C7.95018 18.3788 7.22077 18.1501 6.48217 18.1961C5.8163 18.1537 5.15819 18.3576 4.6346 18.7685C4.4226 18.948 4.2537 19.1724 4.14027 19.4251C4.02683 19.6779 3.97173 19.9526 3.97899 20.2293C3.97741 20.4918 4.04091 20.7507 4.16391 20.9831C4.28691 21.2155 4.46563 21.4142 4.68425 21.5617C5.44166 22.0439 6.26452 22.4161 7.12786 22.6671C8.60312 23.0273 9.98233 23.7007 11.1707 24.641C11.6291 25.0297 11.9926 25.517 12.2335 26.0658C12.4745 26.6147 12.5865 27.2109 12.5613 27.8092C12.5815 28.4397 12.4442 29.0653 12.1617 29.6302C11.8791 30.1951 11.4602 30.6816 10.9422 31.0464C9.68518 31.8905 8.18621 32.3062 6.67091 32.2308C5.08616 32.274 3.52726 31.8255 2.21087 30.9477C1.59729 30.5214 1.10729 29.9422 0.789992 29.2684C0.472692 28.5946 0.339231 27.8497 0.403004 27.1084V27.0393H3.51213C3.47946 27.4293 3.53877 27.8215 3.68534 28.1847C3.83191 28.5479 4.0617 28.8722 4.35646 29.1317C5.01464 29.6083 5.81789 29.8453 6.6312 29.8028C7.3351 29.8544 8.03572 29.6665 8.61785 29.2699C8.8353 29.0989 9.00895 28.8792 9.12461 28.6287C9.24028 28.3783 9.29467 28.1042 9.28337 27.8289Z" fill="white"/>
<path d="M16.2565 26.2005V32.0039H13.0282V16.0051H19.1868C20.7701 15.9156 22.3296 16.4192 23.5575 17.4165C24.0806 17.8788 24.4944 18.4504 24.7692 19.0902C25.044 19.7301 25.1729 20.4224 25.1468 21.1176C25.1742 21.8115 25.0458 22.5028 24.7709 23.1412C24.496 23.7797 24.0815 24.3493 23.5575 24.8088C22.3254 25.7964 20.7672 26.2926 19.1868 26.2005H16.2068H16.2565ZM16.2565 23.7331H19.2365C19.61 23.76 19.985 23.7089 20.3375 23.5831C20.6899 23.4574 21.0119 23.2596 21.2828 23.0027C21.5164 22.7525 21.6981 22.4589 21.8174 22.1388C21.9367 21.8187 21.9913 21.4784 21.9781 21.1373C22.0014 20.4372 21.7524 19.755 21.2828 19.2325C21.0151 18.9699 20.694 18.7672 20.3412 18.6378C19.9883 18.5085 19.6116 18.4555 19.2365 18.4824H16.2565V23.7331Z" fill="white"/>
<path d="M29.0505 32.0038H25.8221V16.0051H29.0505V32.0038Z" fill="white"/>
<path d="M34.8014 25.322H33.6194V32.0038H30.3911V16.0051H33.6194V22.5388H34.5233L38.9337 16.0051H42.907L37.3344 23.4468L43.2944 32.0038H39.2714L34.8014 25.322Z" fill="white"/>
<path d="M51.3609 27.8289C51.3709 27.55 51.3182 27.2723 51.2065 27.0162C51.0948 26.7601 50.9269 26.532 50.7152 26.3485C50.033 25.8533 49.2605 25.4946 48.4405 25.2925C46.9208 24.8957 45.4868 24.2268 44.2089 23.3185C43.7387 22.9546 43.3628 22.4845 43.1122 21.9472C42.8617 21.4099 42.7439 20.8209 42.7685 20.2293C42.758 19.6021 42.9007 18.9817 43.1844 18.4213C43.4682 17.8609 43.8845 17.3772 44.3976 17.0118C45.598 16.1455 47.0575 15.7073 48.5398 15.7682C50.0916 15.6931 51.6197 16.1689 52.8509 17.1105C53.3772 17.5284 53.7952 18.0654 54.07 18.6767C54.3448 19.288 54.4683 19.9557 54.4303 20.6241V20.6932H51.3012C51.3229 20.3531 51.2692 20.0125 51.1439 19.6953C51.0186 19.3781 50.8248 19.0921 50.5761 18.8574C49.9979 18.3985 49.2685 18.1698 48.5299 18.2159C47.864 18.1735 47.2059 18.3774 46.6823 18.7883C46.4703 18.9678 46.3014 19.1921 46.1879 19.4449C46.0745 19.6976 46.0194 19.9724 46.0267 20.249C46.0251 20.5116 46.0886 20.7705 46.2116 21.0029C46.3346 21.2352 46.5133 21.434 46.732 21.5814C47.4894 22.0636 48.3122 22.4359 49.1755 22.6868C50.6508 23.047 52.03 23.7205 53.2184 24.6608C53.6768 25.0495 54.0403 25.5367 54.2812 26.0856C54.5221 26.6345 54.6342 27.2306 54.609 27.8289C54.6292 28.4594 54.4919 29.0851 54.2093 29.65C53.9268 30.2149 53.5078 30.7014 52.9899 31.0662C51.7329 31.9103 50.2339 32.3259 48.7186 32.2506C47.1339 32.2937 45.5749 31.8453 44.2585 30.9675C43.645 30.5412 43.155 29.962 42.8377 29.2882C42.5204 28.6143 42.3869 27.8694 42.4507 27.1282V27.0591H45.5797C45.547 27.4491 45.6063 27.8413 45.7529 28.2045C45.8994 28.5677 46.1293 28.8919 46.424 29.1515C47.0822 29.6281 47.8854 29.8651 48.6987 29.8226C49.4026 29.8742 50.1032 29.6862 50.6854 29.2897C50.9075 29.1177 51.0847 28.8953 51.2023 28.6411C51.3198 28.3869 51.3742 28.1084 51.3609 27.8289Z" fill="white"/>
</svg>
