<svg width="55" height="47" viewBox="0 0 55 47" fill="none" xmlns="http://www.w3.org/2000/svg">
<path d="M26.9388 23.5L40.4118 47L53.8776 23.5H26.9388Z" fill="url(#paint0_linear_306_499)"/>
<path d="M26.9388 23.5L13.473 47L0 23.5H26.9388Z" fill="url(#paint1_linear_306_499)"/>
<path d="M26.9388 23.5L40.4118 0L53.8776 23.5H26.9388Z" fill="url(#paint2_linear_306_499)"/>
<path d="M40.4082 0L26.9352 23.5L13.4694 0H40.4082Z" fill="url(#paint3_linear_306_499)"/>
<path d="M13.4694 47L26.9352 23.5L40.4082 47H13.4694Z" fill="url(#paint4_linear_306_499)"/>
<path d="M26.9388 23.5L13.473 0L0 23.5H26.9388Z" fill="url(#paint5_linear_306_499)"/>
<path opacity="0.36" d="M18.7827 38.0478L10.1021 22.948L18.7827 7.8335H36.188L44.898 22.948L36.188 38.0478H18.7827Z" fill="#777777"/>
<path d="M32.0045 14.5479H21.8878L16.8367 23.4965L21.8878 32.4526H32.0045L37.0408 23.4965L32.0045 14.5479Z" fill="#4D5666"/>
<path d="M14.4863 26.9128C14.4938 26.705 14.4545 26.498 14.3713 26.3072C14.288 26.1163 14.1629 25.9463 14.0052 25.8096C13.4968 25.4406 12.9211 25.1733 12.3101 25.0227C11.1776 24.727 10.109 24.2285 9.15669 23.5517C8.80634 23.2805 8.52619 22.9302 8.33951 22.5298C8.15283 22.1294 8.06502 21.6905 8.08339 21.2496C8.07552 20.7822 8.18186 20.3199 8.39329 19.9023C8.60473 19.4847 8.91494 19.1243 9.29734 18.8519C10.196 18.1964 11.2924 17.8644 12.4063 17.9105C13.5627 17.8546 14.7014 18.2091 15.6188 18.9108C16.0111 19.2222 16.3226 19.6224 16.5273 20.0779C16.7321 20.5334 16.8241 21.031 16.7958 21.5291V21.5806H14.4641C14.4802 21.3272 14.4402 21.0733 14.3468 20.837C14.2534 20.6006 14.109 20.3875 13.9237 20.2126C13.4928 19.8706 12.9493 19.7002 12.3989 19.7345C11.9027 19.7029 11.4123 19.8549 11.0221 20.1611C10.8641 20.2949 10.7382 20.462 10.6537 20.6504C10.5692 20.8387 10.5281 21.0435 10.5335 21.2496C10.5323 21.4453 10.5797 21.6382 10.6713 21.8114C10.763 21.9845 10.8962 22.1326 11.0591 22.2425C11.6235 22.6019 12.2367 22.8792 12.88 23.0663C13.9794 23.3347 15.0072 23.8365 15.8927 24.5372C16.2344 24.8269 16.5052 25.19 16.6847 25.599C16.8643 26.008 16.9478 26.4523 16.929 26.8981C16.944 27.368 16.8417 27.8342 16.6312 28.2551C16.4206 28.6761 16.1084 29.0387 15.7225 29.3105C14.7857 29.9395 13.6687 30.2493 12.5395 30.1931C11.3586 30.2253 10.1969 29.8911 9.21592 29.237C8.75869 28.9192 8.39355 28.4877 8.1571 27.9855C7.92065 27.4834 7.82119 26.9283 7.86871 26.3759V26.3245H10.1856C10.1613 26.6151 10.2055 26.9073 10.3147 27.178C10.4239 27.4486 10.5952 27.6903 10.8148 27.8837C11.3053 28.2388 11.9039 28.4154 12.5099 28.3838C13.0345 28.4222 13.5566 28.2822 13.9904 27.9866C14.1524 27.8592 14.2818 27.6955 14.368 27.5089C14.4542 27.3222 14.4947 27.118 14.4863 26.9128Z" fill="white"/>
<path d="M19.6826 25.6993V30.024H17.2769V18.1018H21.8663C23.0462 18.0351 24.2083 18.4104 25.1233 19.1535C25.5131 19.4981 25.8215 19.924 26.0263 20.4008C26.231 20.8776 26.3271 21.3935 26.3076 21.9116C26.3281 22.4287 26.2324 22.9438 26.0275 23.4196C25.8227 23.8954 25.5138 24.3199 25.1233 24.6623C24.2051 25.3982 23.044 25.768 21.8663 25.6993H19.6456H19.6826ZM19.6826 23.8606H21.9033C22.1816 23.8807 22.4611 23.8426 22.7237 23.7489C22.9864 23.6552 23.2263 23.5078 23.4282 23.3164C23.6023 23.1299 23.7377 22.9111 23.8266 22.6726C23.9155 22.4341 23.9562 22.1805 23.9463 21.9263C23.9637 21.4045 23.7782 20.8962 23.4282 20.5068C23.2287 20.3112 22.9895 20.1601 22.7265 20.0637C22.4635 19.9673 22.1829 19.9278 21.9033 19.9478H19.6826V23.8606Z" fill="white"/>
<path d="M29.2166 30.0239H26.8109V18.1018H29.2166V30.0239Z" fill="white"/>
<path d="M33.5022 25.0447H32.6214V30.0239H30.2156V18.1018H32.6214V22.9707H33.295L36.5815 18.1018H39.5424L35.3898 23.6473L39.8311 30.0239H36.8332L33.5022 25.0447Z" fill="white"/>
<path d="M45.8422 26.9129C45.8497 26.705 45.8104 26.4981 45.7271 26.3072C45.6439 26.1163 45.5188 25.9463 45.361 25.8096C44.8527 25.4406 44.277 25.1733 43.6659 25.0227C42.5335 24.7271 41.4649 24.2286 40.5126 23.5517C40.1622 23.2805 39.8821 22.9302 39.6954 22.5298C39.5087 22.1294 39.4209 21.6905 39.4393 21.2496C39.4314 20.7822 39.5377 20.3199 39.7492 19.9023C39.9606 19.4847 40.2708 19.1243 40.6532 18.852C41.5477 18.2064 42.6354 17.8799 43.7399 17.9252C44.8963 17.8693 46.0351 18.2239 46.9525 18.9255C47.3448 19.237 47.6563 19.6372 47.861 20.0927C48.0658 20.5482 48.1578 21.0458 48.1295 21.5438V21.5953H45.7978C45.8139 21.3419 45.7739 21.0881 45.6805 20.8517C45.5871 20.6153 45.4427 20.4022 45.2574 20.2273C44.8265 19.8854 44.283 19.715 43.7326 19.7493C43.2364 19.7176 42.7459 19.8696 42.3557 20.1758C42.1978 20.3096 42.0719 20.4768 41.9874 20.6651C41.9028 20.8534 41.8618 21.0582 41.8672 21.2643C41.866 21.46 41.9133 21.6529 42.005 21.8261C42.0967 21.9993 42.2298 22.1473 42.3928 22.2573C42.9572 22.6166 43.5703 22.894 44.2137 23.081C45.3131 23.3494 46.3409 23.8512 47.2264 24.552C47.568 24.8416 47.8389 25.2047 48.0184 25.6137C48.198 26.0228 48.2815 26.467 48.2627 26.9129C48.2777 27.3827 48.1754 27.8489 47.9648 28.2699C47.7543 28.6908 47.4421 29.0534 47.0562 29.3252C46.1194 29.9542 45.0024 30.264 43.8732 30.2078C42.6923 30.24 41.5306 29.9058 40.5496 29.2517C40.0924 28.934 39.7272 28.5024 39.4908 28.0003C39.2543 27.4981 39.1549 26.943 39.2024 26.3907V26.3392H41.5341C41.5098 26.6298 41.5539 26.922 41.6632 27.1927C41.7724 27.4634 41.9436 27.705 42.1633 27.8984C42.6538 28.2536 43.2523 28.4302 43.8584 28.3985C44.3829 28.437 44.905 28.2969 45.3388 28.0014C45.5043 27.8732 45.6364 27.7075 45.724 27.5181C45.8116 27.3286 45.8521 27.1211 45.8422 26.9129Z" fill="white"/>
<defs>
<linearGradient id="paint0_linear_306_499" x1="53.8776" y1="35.2464" x2="26.9388" y2="35.2464" gradientUnits="userSpaceOnUse">
<stop stop-color="#FE9622"/>
<stop offset="1" stop-color="#D95B4F"/>
</linearGradient>
<linearGradient id="paint1_linear_306_499" x1="3.37723" y1="41.1268" x2="16.9941" y2="17.7116" gradientUnits="userSpaceOnUse">
<stop stop-color="#34313B"/>
<stop offset="0.24" stop-color="#303741"/>
<stop offset="0.57" stop-color="#264854"/>
<stop offset="0.96" stop-color="#166371"/>
<stop offset="1" stop-color="#146675"/>
</linearGradient>
<linearGradient id="paint2_linear_306_499" x1="50.5129" y1="5.86957" x2="36.9049" y2="29.2911" gradientUnits="userSpaceOnUse">
<stop stop-color="#FED349"/>
<stop offset="1" stop-color="#D79D9F"/>
</linearGradient>
<linearGradient id="paint3_linear_306_499" x1="26.9352" y1="23.5" x2="26.9352" y2="0" gradientUnits="userSpaceOnUse">
<stop stop-color="#727183"/>
<stop offset="1" stop-color="#A3FFB5"/>
</linearGradient>
<linearGradient id="paint4_linear_306_499" x1="26.9352" y1="47" x2="26.9352" y2="23.5" gradientUnits="userSpaceOnUse">
<stop stop-color="#D14732"/>
<stop offset="1" stop-color="#6D6EE0"/>
</linearGradient>
<linearGradient id="paint5_linear_306_499" x1="4.26824" y1="9.26394" x2="22.8029" y2="27.6658" gradientUnits="userSpaceOnUse">
<stop stop-color="#1DA186"/>
<stop offset="1" stop-color="#7C32A5"/>
</linearGradient>
</defs>
</svg>
