<svg width="106" height="92" viewBox="0 0 106 92" fill="none" xmlns="http://www.w3.org/2000/svg">
<g clip-path="url(#clip0_421_535)">
<path d="M51.47 45.5674L77.2118 91.1349L102.94 45.5674H51.47Z" fill="#BFBFBF"/>
<path d="M51.4699 45.5674L25.7418 91.1349L0 45.5674H51.4699Z" fill="#D9D9D9"/>
<path d="M51.47 45.5676L77.2118 0L102.94 45.5676H51.47Z" fill="#D9D9D9"/>
<path d="M77.2048 0L51.4629 45.5676L25.7349 0H77.2048Z" fill="#BFBFBF"/>
<path d="M25.7349 91.1349L51.4629 45.5674L77.2048 91.1349H25.7349Z" fill="#BFBFBF"/>
<path d="M51.4699 45.5676L25.7418 0L0 45.5676H51.4699Z" fill="#D9D9D9"/>
<path opacity="0.36" d="M35.8868 73.7758L19.3013 44.4966L35.8868 15.189H69.1417L85.7832 44.4966L69.1417 73.7758H35.8868Z" fill="#F0F0F0"/>
<path d="M61.1487 28.2085H41.8193L32.1687 45.5603L41.8193 62.9266H61.1487L70.7711 45.5603L61.1487 28.2085Z" fill="#D9D9D9"/>
</g>
<defs>
<clipPath id="clip0_421_535">
<rect width="105.084" height="91.1351" fill="white"/>
</clipPath>
</defs>
</svg>
