<svg width="20" height="20" viewBox="0 0 20 20" fill="none" xmlns="http://www.w3.org/2000/svg">
<path d="M19.5 10C19.5 15.5228 15.2467 20 10 20C4.75329 20 0.5 15.5228 0.5 10C0.5 4.47715 4.75329 0 10 0C15.2467 0 19.5 4.47715 19.5 10Z" fill="#D95B4F"/>
<path d="M8.03002 7.2971C7.86546 6.70462 7.41878 6.76956 7.11338 7.04551C6.36105 7.78405 5.38147 9.33422 6.00841 11.5663C6.53347 13.4574 8.71823 14.6667 8.71823 14.6667H6.17138C6.17138 14.6667 4.85633 13.1003 4.73877 11.258C4.58988 8.9287 5.46766 7.45968 6.48643 6.50203C7.4425 5.60115 8.35156 5.33333 8.35156 5.33333L10.2111 11.8083L12.0707 5.33333C12.0707 5.33333 12.9797 5.60115 13.9358 6.50203C14.9546 7.45968 15.8323 8.9287 15.6835 11.258C15.5659 13.1003 14.2508 14.6667 14.2508 14.6667H11.704C11.704 14.6667 13.8886 13.4574 14.4138 11.5663C15.0408 9.33447 14.0612 7.78431 13.3088 7.04551C13.0032 6.76956 12.5565 6.70462 12.3922 7.2971C11.828 9.18812 10.2113 14.6063 10.2113 14.6063C10.2113 14.6063 8.59427 9.18631 8.03002 7.2971Z" fill="white"/>
</svg>
