<svg width="100" height="100" viewBox="0 0 100 100" fill="none" xmlns="http://www.w3.org/2000/svg">
<g clip-path="url(#clip0_364_507)">
<g clip-path="url(#clip1_364_507)">
<g opacity="0.8">
<rect x="-154.462" y="90.0581" width="0.628112" height="531" transform="rotate(-45 -154.462 90.0581)" fill="#595959"/>
<rect x="-137.754" y="73.3506" width="0.628112" height="531" transform="rotate(-45 -137.754 73.3506)" fill="#595959"/>
<rect x="-121.047" y="56.6428" width="0.628112" height="531" transform="rotate(-45 -121.047 56.6428)" fill="#595959"/>
<rect x="-104.339" y="39.9353" width="0.628112" height="531" transform="rotate(-45 -104.339 39.9353)" fill="#595959"/>
<rect x="-87.6316" y="23.2278" width="0.628112" height="531" transform="rotate(-45 -87.6316 23.2278)" fill="#595959"/>
<rect x="-70.9238" y="6.52002" width="0.628112" height="531" transform="rotate(-45 -70.9238 6.52002)" fill="#595959"/>
<rect x="-54.2163" y="-10.1875" width="0.628112" height="531" transform="rotate(-45 -54.2163 -10.1875)" fill="#595959"/>
<rect x="-37.5088" y="-26.895" width="0.628112" height="531" transform="rotate(-45 -37.5088 -26.895)" fill="#595959"/>
<rect x="-20.801" y="-43.6028" width="0.628112" height="531" transform="rotate(-45 -20.801 -43.6028)" fill="#595959"/>
<rect x="-4.09351" y="-60.3103" width="0.628112" height="531" transform="rotate(-45 -4.09351 -60.3103)" fill="#595959"/>
<rect x="12.614" y="-77.0178" width="0.628112" height="531" transform="rotate(-45 12.614 -77.0178)" fill="#595959"/>
<rect x="29.3218" y="-93.7256" width="0.628112" height="531" transform="rotate(-45 29.3218 -93.7256)" fill="#595959"/>
<rect x="46.0293" y="-110.433" width="0.628112" height="531" transform="rotate(-45 46.0293 -110.433)" fill="#595959"/>
<rect x="62.7368" y="-127.141" width="0.628112" height="531" transform="rotate(-45 62.7368 -127.141)" fill="#595959"/>
<rect x="79.4443" y="-143.848" width="0.628112" height="531" transform="rotate(-45 79.4443 -143.848)" fill="#595959"/>
<rect x="96.1521" y="-160.556" width="0.628112" height="531" transform="rotate(-45 96.1521 -160.556)" fill="#595959"/>
</g>
</g>
</g>
</svg>
