<svg width="227" height="226" viewBox="0 0 227 226" fill="none" xmlns="http://www.w3.org/2000/svg">
<path d="M211.198 124.972C211.576 125.021 211.922 125.007 212.234 124.929C212.554 124.862 212.856 124.695 213.138 124.43C213.428 124.175 213.725 123.798 214.029 123.297C214.341 122.807 214.682 122.165 215.052 121.371C215.462 120.491 215.898 119.678 216.363 118.933C216.828 118.188 217.338 117.546 217.895 117.005C218.45 116.474 219.061 116.083 219.726 115.831C220.4 115.581 221.151 115.511 221.98 115.62C222.79 115.727 223.506 115.995 224.127 116.425C224.747 116.864 225.253 117.434 225.646 118.137C226.048 118.84 226.323 119.641 226.47 120.54C226.616 121.447 226.62 122.428 226.481 123.481C226.289 124.94 225.857 126.166 225.186 127.158C224.513 128.159 223.684 128.893 222.698 129.358C221.711 129.824 220.651 129.982 219.516 129.832L220.004 126.132C220.616 126.212 221.173 126.153 221.676 125.954C222.177 125.763 222.598 125.425 222.936 124.938C223.274 124.46 223.495 123.83 223.598 123.047C223.698 122.29 223.668 121.645 223.509 121.111C223.349 120.587 223.093 120.173 222.739 119.869C222.384 119.575 221.967 119.397 221.49 119.334C221.13 119.286 220.795 119.329 220.484 119.462C220.182 119.597 219.883 119.818 219.586 120.127C219.298 120.437 219.012 120.83 218.73 121.306C218.455 121.792 218.17 122.359 217.873 123.007C217.407 124.045 216.922 124.943 216.419 125.701C215.915 126.468 215.376 127.088 214.8 127.562C214.224 128.045 213.602 128.38 212.936 128.567C212.269 128.763 211.535 128.808 210.734 128.703C209.888 128.591 209.153 128.325 208.531 127.904C207.908 127.483 207.404 126.931 207.018 126.248C206.631 125.565 206.374 124.771 206.246 123.866C206.117 122.969 206.123 121.985 206.264 120.914C206.39 119.96 206.64 119.031 207.016 118.128C207.399 117.235 207.897 116.444 208.51 115.755C209.132 115.068 209.869 114.551 210.72 114.205C211.581 113.861 212.547 113.759 213.619 113.9L213.127 117.628C212.506 117.546 211.962 117.575 211.495 117.715C211.035 117.865 210.642 118.106 210.314 118.438C209.994 118.781 209.738 119.196 209.545 119.684C209.353 120.171 209.218 120.708 209.141 121.293C209.041 122.049 209.063 122.684 209.206 123.198C209.357 123.721 209.605 124.13 209.951 124.423C210.296 124.725 210.712 124.908 211.198 124.972Z" fill="#595959"/>
<path d="M207.702 148.598L209.727 143.908L212.428 145.075L210.403 149.765C210.072 150.532 209.929 151.207 209.974 151.79C210.024 152.385 210.221 152.891 210.565 153.307C210.918 153.726 211.383 154.06 211.958 154.309C212.516 154.55 213.086 154.662 213.667 154.646C214.248 154.63 214.793 154.444 215.302 154.09C215.807 153.745 216.225 153.188 216.556 152.421L218.095 148.857L202.6 142.166L204.085 138.727L222.294 146.59L219.27 153.593C218.658 155.011 217.882 156.11 216.941 156.891C216.005 157.683 214.978 158.15 213.859 158.29C212.745 158.442 211.621 158.273 210.487 157.784C209.311 157.276 208.414 156.572 207.794 155.671C207.17 154.778 206.847 153.729 206.824 152.522C206.797 151.323 207.09 150.016 207.702 148.598Z" fill="#595959"/>
<path d="M206.5 177.548L190.25 166.175L192.398 163.106L208.648 174.479L206.5 177.548Z" fill="#595959"/>
<path d="M197.445 189.425L183.833 174.999L186.558 172.428L200.17 186.855L197.445 189.425ZM188.785 197.596L187.934 185.102L187.906 178.442L190.887 180.629L191.403 185.781L192.124 194.445L188.785 197.596ZM178.206 180.309L189.07 182.831L188.782 186.437L174.966 183.366L178.206 180.309Z" fill="#595959"/>
<path d="M160.353 199.647C160.53 199.985 160.74 200.259 160.983 200.47C161.223 200.693 161.532 200.844 161.912 200.922C162.287 201.013 162.767 201.039 163.351 200.999C163.931 200.973 164.653 200.882 165.515 200.728C166.471 200.557 167.387 200.446 168.263 200.398C169.14 200.349 169.959 200.397 170.721 200.542C171.476 200.691 172.147 200.965 172.735 201.364C173.327 201.772 173.817 202.346 174.204 203.086C174.583 203.81 174.775 204.55 174.781 205.306C174.779 206.065 174.603 206.808 174.255 207.533C173.911 208.266 173.414 208.952 172.763 209.589C172.105 210.231 171.305 210.798 170.363 211.291C169.06 211.972 167.809 212.324 166.611 212.346C165.405 212.372 164.328 212.116 163.38 211.577C162.432 211.037 161.692 210.261 161.162 209.247L164.469 207.517C164.756 208.064 165.125 208.486 165.577 208.782C166.021 209.083 166.54 209.232 167.133 209.229C167.718 209.231 168.36 209.048 169.061 208.682C169.736 208.329 170.247 207.933 170.593 207.496C170.93 207.064 171.121 206.615 171.165 206.152C171.201 205.692 171.108 205.249 170.885 204.822C170.717 204.5 170.489 204.251 170.201 204.073C169.918 203.904 169.564 203.786 169.14 203.721C168.721 203.664 168.235 203.656 167.684 203.699C167.128 203.754 166.5 203.846 165.8 203.977C164.683 204.192 163.67 204.312 162.76 204.337C161.843 204.366 161.025 204.281 160.306 204.083C159.579 203.889 158.948 203.574 158.412 203.137C157.868 202.704 157.409 202.13 157.034 201.413C156.638 200.657 156.434 199.903 156.42 199.152C156.406 198.401 156.567 197.671 156.904 196.962C157.24 196.253 157.742 195.586 158.409 194.96C159.068 194.339 159.876 193.778 160.834 193.277C161.687 192.831 162.59 192.501 163.545 192.289C164.496 192.089 165.43 192.041 166.345 192.146C167.266 192.259 168.112 192.565 168.885 193.063C169.662 193.568 170.301 194.3 170.802 195.258L167.47 197C167.18 196.445 166.843 196.016 166.459 195.715C166.072 195.425 165.649 195.242 165.188 195.165C164.724 195.101 164.237 195.13 163.727 195.253C163.218 195.376 162.701 195.574 162.178 195.848C161.502 196.201 160.996 196.584 160.658 196.997C160.316 197.421 160.125 197.86 160.085 198.311C160.036 198.767 160.126 199.212 160.353 199.647Z" fill="#595959"/>
<path d="M128.159 214.124L133.205 213.655L133.476 216.284L129.15 216.686C128.408 216.755 127.798 216.916 127.32 217.17C126.842 217.424 126.495 217.762 126.279 218.183C126.053 218.606 125.967 219.102 126.02 219.671C126.079 220.304 126.249 220.808 126.53 221.184C126.802 221.56 127.2 221.815 127.723 221.948C128.247 222.091 128.898 222.127 129.675 222.055L132.741 221.77L131.181 204.964L134.911 204.618L136.744 224.367L129.948 224.998C128.827 225.102 127.818 225.086 126.921 224.951C126.015 224.825 125.234 224.569 124.578 224.183C123.922 223.797 123.405 223.284 123.026 222.644C122.639 222.005 122.402 221.225 122.316 220.302C122.241 219.489 122.361 218.72 122.677 217.998C122.985 217.285 123.508 216.68 124.246 216.183C124.975 215.687 125.929 215.352 127.108 215.179L128.159 214.124ZM127.505 205.305L133.487 204.75L132.199 207.825L127.777 208.235C127.035 208.304 126.436 208.483 125.98 208.771C125.514 209.061 125.183 209.429 124.988 209.876C124.784 210.333 124.708 210.841 124.76 211.402C124.817 212.017 124.975 212.54 125.234 212.972C125.484 213.405 125.851 213.722 126.335 213.924C126.81 214.126 127.418 214.192 128.159 214.124L132.039 213.764L132.256 216.397L127.318 216.856L126.369 215.918C125.229 216.014 124.281 215.874 123.526 215.498C122.761 215.122 122.175 214.601 121.767 213.937C121.358 213.273 121.117 212.538 121.042 211.733C120.925 210.467 121.102 209.379 121.574 208.469C122.037 207.56 122.772 206.839 123.781 206.308C124.781 205.777 126.022 205.443 127.505 205.305Z" fill="#595959"/>
<path d="M101.545 225.315L103.758 205.604L107.481 206.022L105.268 225.732L101.545 225.315Z" fill="#595959"/>
<path d="M82.4778 221.552L88.3863 202.618L91.9494 203.73L86.0408 222.663L82.4778 221.552ZM76.6 219.717L77.4806 216.895L92.7341 221.656L91.8535 224.477L76.6 219.717Z" fill="#595959"/>
<path d="M63.3247 214.755L57.2733 210.842C56.0074 210.024 55.044 209.13 54.383 208.162C53.7221 207.194 53.3892 206.179 53.3844 205.116C53.3796 204.053 53.7298 202.976 54.4349 201.885C54.9922 201.024 55.6279 200.375 56.3423 199.939C57.0566 199.503 57.8302 199.252 58.6631 199.185C59.4883 199.113 60.3535 199.197 61.2586 199.436L62.5679 199.569L67.91 203.023L66.3277 205.52L62.3354 202.938C61.6872 202.519 61.0756 202.286 60.5006 202.239C59.9256 202.191 59.4007 202.301 58.9258 202.567C58.4433 202.828 58.0344 203.218 57.699 203.736C57.3391 204.293 57.1352 204.843 57.0873 205.385C57.0346 205.935 57.154 206.461 57.4457 206.963C57.7374 207.465 58.215 207.931 58.8785 208.36L61.784 210.239L70.9487 196.066L74.0945 198.1L63.3247 214.755ZM64.6915 192.02L63.7237 201.971L60.3875 199.83L61.2134 189.998L61.3169 189.837L64.6915 192.02Z" fill="#595959"/>
<path d="M35.4534 194.112L49.3246 179.935L52.0022 182.555L38.1311 196.732L35.4534 194.112Z" fill="#595959"/>
<path d="M25.6959 183.933L29.3483 176.697L21.262 177.344L18.8588 173.773L30.3041 173.164L35.2304 162.575L37.6565 166.181L33.9594 173.594L42.212 172.95L44.6457 176.567L32.9811 177.143L28.1067 187.516L25.6959 183.933Z" fill="#595959"/>
<path d="M18.3389 134.598C17.9653 134.675 17.6438 134.802 17.3742 134.978C17.0938 135.147 16.8639 135.403 16.6844 135.746C16.4942 136.082 16.3377 136.537 16.2149 137.109C16.0813 137.675 15.9701 138.393 15.8813 139.265C15.7841 140.231 15.6385 141.142 15.4445 141.998C15.2504 142.854 14.9793 143.629 14.6311 144.322C14.281 145.006 13.8331 145.576 13.2874 146.032C12.7328 146.49 12.0465 146.803 11.2282 146.972C10.4278 147.138 9.66361 147.119 8.93565 146.917C8.20585 146.707 7.54003 146.334 6.9382 145.8C6.32747 145.268 5.80494 144.602 5.37061 143.801C4.93445 142.992 4.60886 142.067 4.39387 141.026C4.09617 139.585 4.10127 138.286 4.40916 137.128C4.71522 135.961 5.25765 134.996 6.03647 134.232C6.81529 133.469 7.765 132.971 8.8856 132.74L9.64086 136.395C9.03609 136.52 8.52911 136.759 8.11993 137.113C7.70891 137.457 7.42329 137.915 7.26306 138.486C7.10099 139.048 7.09989 139.716 7.25976 140.49C7.41412 141.237 7.65393 141.836 7.97917 142.288C8.30258 142.732 8.68123 143.038 9.11511 143.208C9.54716 143.369 9.99886 143.401 10.4702 143.304C10.826 143.23 11.1287 143.08 11.3784 142.852C11.6192 142.626 11.8292 142.318 12.0083 141.929C12.1786 141.541 12.3191 141.076 12.4296 140.534C12.5294 139.985 12.6127 139.356 12.6794 138.646C12.7791 137.513 12.9419 136.506 13.1678 135.624C13.3919 134.734 13.6979 133.971 14.0857 133.334C14.4716 132.689 14.9483 132.168 15.5157 131.773C16.0813 131.369 16.7599 131.085 17.5514 130.921C18.3874 130.748 19.1685 130.759 19.8946 130.952C20.6208 131.145 21.2784 131.5 21.8677 132.019C22.457 132.537 22.9608 133.202 23.3792 134.015C23.7957 134.819 24.1133 135.751 24.332 136.809C24.5268 137.752 24.5952 138.711 24.5373 139.688C24.4687 140.657 24.2581 141.568 23.9055 142.42C23.544 143.273 23.0179 144.003 22.3271 144.61C21.6275 145.218 20.7485 145.631 19.6901 145.85L18.9293 142.168C19.543 142.041 20.0475 141.835 20.4429 141.549C20.8275 141.256 21.12 140.899 21.3204 140.478C21.51 140.049 21.6156 139.573 21.6372 139.049C21.6588 138.525 21.6099 137.974 21.4905 137.396C21.3361 136.649 21.107 136.057 20.8033 135.619C20.4887 135.174 20.1199 134.87 19.6968 134.707C19.2718 134.535 18.8191 134.498 18.3389 134.598Z" fill="#595959"/>
<path d="M13.8784 110.823L13.5043 115.918L10.5698 115.703L10.9438 110.608C11.005 109.775 10.9187 109.09 10.6849 108.554C10.4427 108.008 10.0906 107.595 9.62849 107.315C9.15736 107.035 8.60932 106.872 7.98438 106.826C7.37755 106.781 6.8025 106.862 6.25923 107.068C5.71595 107.274 5.262 107.627 4.89737 108.129C4.53341 108.621 4.32084 109.284 4.25966 110.117L3.97536 113.989L20.8081 115.225L20.5338 118.961L0.75293 117.509L1.31155 109.901C1.4246 108.361 1.79727 107.068 2.42956 106.022C3.05346 104.966 3.87092 104.188 4.88193 103.689C5.88455 103.179 7.00175 102.97 8.23352 103.06C9.51058 103.154 10.5897 103.525 11.471 104.172C12.3529 104.811 13.0028 105.696 13.4204 106.829C13.8388 107.952 13.9914 109.284 13.8784 110.823Z" fill="#595959"/>
<path d="M5.56082 82.8359L24.6236 88.3134L23.589 91.9138L4.52628 86.4364L5.56082 82.8359Z" fill="#595959"/>
<path d="M10.2305 68.6625L27.7715 77.9202L26.0229 81.2333L8.48194 71.9756L10.2305 68.6625ZM15.7876 58.1331L20.628 69.6832L22.8053 75.9769L19.2771 74.8696L17.1259 70.1607L13.6449 62.1931L15.7876 58.1331ZM31.383 71.0773L20.2864 72.1984L19.3945 68.6933L33.4622 67.1378L31.383 71.0773Z" fill="#595959"/>
<path d="M42.0111 46.9745C41.7346 46.7117 41.4471 46.5199 41.1485 46.399C40.8496 46.2653 40.5081 46.2226 40.1239 46.2709C39.7394 46.3064 39.277 46.437 38.7367 46.6627C38.1961 46.8756 37.5426 47.1941 36.7761 47.6183C35.9273 48.0896 35.096 48.4897 34.2821 48.8188C33.4683 49.1478 32.6773 49.3671 31.9092 49.4765C31.1474 49.5794 30.4237 49.5368 29.738 49.3487C29.0457 49.1543 28.3967 48.7693 27.7911 48.1938C27.1987 47.6307 26.7777 46.9926 26.5284 46.2795C26.2852 45.5598 26.2113 44.8005 26.3066 44.0015C26.3953 43.1963 26.6445 42.387 27.0542 41.5736C27.4702 40.7537 28.0441 39.9586 28.7761 39.1884C29.7896 38.122 30.8597 37.3849 31.9863 36.9773C33.1192 36.563 34.2214 36.4579 35.2929 36.6619C36.3644 36.8659 37.3149 37.362 38.1444 38.1503L35.5731 40.8559C35.1254 40.4304 34.6397 40.1505 34.116 40.0161C33.5985 39.8751 33.0596 39.9016 32.4993 40.0958C31.9452 40.2833 31.396 40.6634 30.8517 41.2361C30.3262 41.7891 29.9705 42.3281 29.7847 42.8531C29.6052 43.3716 29.5694 43.8575 29.6773 44.3108C29.7914 44.7576 30.0229 45.1468 30.3718 45.4783C30.6351 45.7286 30.9316 45.8913 31.2611 45.9664C31.584 46.0353 31.9565 46.0322 32.3786 45.9572C32.794 45.876 33.2559 45.7262 33.7643 45.5077C34.2723 45.2763 34.8366 44.9858 35.4572 44.6359C36.445 44.0712 37.3652 43.6303 38.2179 43.3131C39.0769 42.9893 39.8783 42.8051 40.6224 42.7605C41.3726 42.7093 42.072 42.8039 42.7205 43.0444C43.3752 43.2782 43.9955 43.6736 44.5814 44.2304C45.2002 44.8185 45.6374 45.4658 45.8931 46.1723C46.1487 46.8788 46.2319 47.6219 46.1425 48.4014C46.0531 49.181 45.7939 49.9745 45.3648 50.7819C44.9419 51.5828 44.3582 52.3749 43.6137 53.1583C42.9506 53.856 42.2015 54.4596 41.3665 54.9691C40.5312 55.4657 39.6632 55.8122 38.7625 56.0085C37.8551 56.1986 36.9554 56.183 36.0633 55.9616C35.1646 55.7339 34.3236 55.2478 33.5403 54.5033L36.1303 51.778C36.5846 52.2097 37.0418 52.5064 37.502 52.6682C37.9618 52.817 38.4221 52.8535 38.8826 52.7776C39.3429 52.6888 39.7942 52.5038 40.2368 52.2228C40.6793 51.9417 41.1039 51.5873 41.5105 51.1594C42.036 50.6064 42.392 50.0803 42.5784 49.5809C42.7645 49.0687 42.8038 48.5923 42.6963 48.1518C42.5949 47.7048 42.3666 47.3123 42.0111 46.9745Z" fill="#595959"/>
<path d="M67.3652 22.9418L62.7511 25.037L61.6337 22.642L65.5904 20.8453C66.2684 20.5374 66.7917 20.1851 67.1601 19.7884C67.5285 19.3917 67.7459 18.9589 67.8122 18.4899C67.8868 18.0172 67.8058 17.5204 67.5693 16.9994C67.3064 16.4206 66.9808 15.9999 66.5923 15.7375C66.2121 15.4713 65.7529 15.3606 65.2148 15.4055C64.6728 15.4421 64.0463 15.6219 63.3352 15.9448L60.532 17.2177L67.5104 32.5856L64.0994 34.1344L55.8989 16.075L62.113 13.2533C63.1384 12.7877 64.0971 12.472 64.9893 12.3062C65.886 12.1284 66.7076 12.1145 67.4538 12.2643C68.2001 12.4142 68.8569 12.7293 69.4241 13.2098C69.9997 13.6866 70.4789 14.3466 70.8619 15.1901C71.1999 15.9343 71.3379 16.6995 71.276 17.4856C71.2185 18.2597 70.9225 19.0026 70.3878 19.7141C69.8615 20.4219 69.0698 21.0507 68.0128 21.6005L67.3652 22.9418ZM70.8717 31.0592L65.4018 33.543L65.6116 30.2162L69.6551 28.3801C70.3332 28.0722 70.8406 27.7071 71.1775 27.2848C71.5227 26.8588 71.7145 26.4027 71.753 25.9164C71.796 25.4181 71.7012 24.9126 71.4684 24.4C71.213 23.8377 70.8923 23.3949 70.5061 23.0715C70.1281 22.7444 69.6776 22.565 69.1545 22.5332C68.6397 22.4977 68.0433 22.6339 67.3652 22.9418L63.8178 24.5526L62.75 22.1351L67.2648 20.085L68.4687 20.6604C69.5143 20.1956 70.4557 20.0174 71.293 20.126C72.1385 20.2307 72.8629 20.5302 73.4662 21.0242C74.0696 21.5182 74.5384 22.1332 74.8725 22.8691C75.3982 24.0268 75.5872 25.1129 75.4395 26.1275C75.3001 27.1383 74.8409 28.06 74.0619 28.8925C73.2912 29.7212 72.2278 30.4434 70.8717 31.0592Z" fill="#595959"/>
<path d="M88.7583 3.6352L93.0675 22.9955L89.4109 23.8094L85.1017 4.4491L88.7583 3.6352Z" fill="#595959"/>
<path d="M107.66 0.943505L108.272 20.7681L104.541 20.8834L103.929 1.05873L107.66 0.943505ZM113.814 0.753418L113.905 3.70805L97.9338 4.20135L97.8426 1.24672L113.814 0.753418Z" fill="#595959"/>
<path d="M128.125 0.950138L135.128 2.6494C136.593 3.00488 137.797 3.53068 138.74 4.22679C139.683 4.9229 140.332 5.77192 140.687 6.77387C141.042 7.77582 141.066 8.90781 140.76 10.1699C140.518 11.1671 140.132 11.9892 139.601 12.636C139.07 13.2829 138.423 13.7753 137.659 14.1132C136.903 14.4532 136.059 14.6595 135.125 14.7321L133.846 15.0383L127.663 13.5382L128.334 10.6591L132.954 11.7801C133.704 11.9622 134.359 11.9808 134.917 11.8359C135.476 11.6911 135.935 11.4148 136.296 11.007C136.665 10.6013 136.923 10.0984 137.068 9.4983C137.225 8.85405 137.236 8.26806 137.102 7.74035C136.971 7.20382 136.685 6.74655 136.244 6.36855C135.803 5.99054 135.198 5.70839 134.431 5.52208L131.068 4.70618L127.088 21.1083L123.448 20.2249L128.125 0.950138ZM134.329 22.8654L131.963 13.1516L135.818 14.0731L138.28 23.6276L138.235 23.813L134.329 22.8654Z" fill="#595959"/>
<path d="M161.626 11.363L153.091 29.2668L149.709 27.6548L158.244 9.75096L161.626 11.363Z" fill="#595959"/>
<path d="M174.511 17.981L173.382 26.0075L180.829 22.7923L184.254 25.4001L173.614 29.66L172.358 41.271L168.9 38.6384L170.015 30.4293L162.408 33.6951L158.94 31.0543L169.799 26.7551L171.075 15.3649L174.511 17.981Z" fill="#595959"/>
<path d="M197.333 62.0192C197.66 61.8239 197.923 61.5989 198.12 61.3441C198.329 61.0925 198.463 60.7752 198.52 60.3922C198.59 60.0124 198.589 59.5319 198.517 58.9508C198.459 58.3728 198.328 57.6575 198.127 56.8049C197.903 55.8603 197.742 54.9518 197.645 54.0793C197.548 53.2068 197.551 52.3861 197.653 51.617C197.76 50.8557 197.996 50.1704 198.363 49.561C198.737 48.947 199.283 48.4262 200 47.9986C200.703 47.5803 201.431 47.3474 202.185 47.2999C202.943 47.2603 203.694 47.3942 204.438 47.7019C205.189 48.0048 205.901 48.4634 206.574 49.0776C207.251 49.6996 207.861 50.4671 208.405 51.3799C209.158 52.6438 209.578 53.8732 209.666 55.0681C209.759 56.2708 209.563 57.3604 209.077 58.3369C208.591 59.3135 207.856 60.0946 206.873 60.6802L204.963 57.4736C205.494 57.1575 205.894 56.7655 206.165 56.2976C206.441 55.8374 206.561 55.3114 206.525 54.7194C206.495 54.1353 206.277 53.5038 205.873 52.825C205.482 52.1697 205.059 51.6816 204.604 51.3609C204.153 51.048 203.695 50.8822 203.229 50.8636C202.768 50.8528 202.331 50.9706 201.918 51.2169C201.606 51.4028 201.369 51.6443 201.208 51.9412C201.054 52.2336 200.956 52.593 200.914 53.0197C200.88 53.4416 200.9 53.9268 200.973 54.4753C201.058 55.0269 201.186 55.6488 201.355 56.3408C201.632 57.4444 201.808 58.4495 201.883 59.3562C201.962 60.2707 201.923 61.0921 201.765 61.8205C201.612 62.5567 201.332 63.2045 200.925 63.764C200.523 64.3312 199.975 64.8216 199.28 65.2353C198.547 65.6722 197.806 65.9182 197.056 65.9735C196.307 66.0288 195.569 65.9081 194.843 65.6114C194.116 65.3148 193.422 64.8508 192.761 64.2195C192.104 63.596 191.499 62.82 190.946 61.8915C190.453 61.0645 190.074 60.1802 189.809 59.2387C189.557 58.3003 189.458 57.3709 189.512 56.4506C189.574 55.5257 189.832 54.6637 190.287 53.8645C190.749 53.0608 191.444 52.3824 192.372 51.8293L194.297 55.0593C193.758 55.38 193.349 55.7401 193.069 56.1395C192.801 56.542 192.642 56.9753 192.591 57.4392C192.552 57.9063 192.608 58.3909 192.759 58.8929C192.91 59.3949 193.137 59.8994 193.439 60.4066C193.829 61.0619 194.239 61.5468 194.67 61.8612C195.113 62.1788 195.561 62.3453 196.014 62.3608C196.472 62.384 196.911 62.2701 197.333 62.0192Z" fill="#595959"/>
<path d="M209.302 82.7727L207.984 77.8371L210.827 77.0782L212.145 82.0138C212.36 82.8211 212.666 83.4396 213.063 83.8695C213.471 84.3058 213.939 84.5803 214.467 84.6931C215.004 84.8035 215.576 84.778 216.181 84.6164C216.769 84.4594 217.286 84.1946 217.731 83.8219C218.177 83.4491 218.49 82.9661 218.67 82.3729C218.852 81.7884 218.836 81.0926 218.62 80.2854L217.619 76.5343L201.312 80.8871L200.346 77.2677L219.509 72.1526L221.476 79.523C221.874 81.0146 221.946 82.3584 221.692 83.5541C221.449 84.7564 220.932 85.7592 220.141 86.5626C219.361 87.3724 218.374 87.9365 217.18 88.2551C215.943 88.5853 214.802 88.5891 213.757 88.2664C212.715 87.9525 211.811 87.3291 211.045 86.3963C210.281 85.4722 209.7 84.2643 209.302 82.7727Z" fill="#595959"/>
<path d="M226.352 106.644L206.547 107.715L206.344 103.974L226.15 102.903L226.352 106.644Z" fill="#595959"/>
</svg>
