<svg width="319" height="319" viewBox="0 0 319 319" fill="none" xmlns="http://www.w3.org/2000/svg">
<path d="M291.618 248.37C294.298 244.793 294.41 240.191 291.434 237.96C287.88 235.298 283.964 238.773 281.349 241.162C279.927 242.459 278.584 243.552 277.792 242.958C276.903 242.292 277.443 240.822 278.54 239.358C279.655 237.869 281.209 237.046 282.529 237.286L285.695 233.06L284.687 232.305C281.045 231.412 277.403 233.07 274.867 236.455C271.971 240.32 271.66 244.736 274.829 247.111C278.263 249.684 282.179 246.208 284.878 243.807C286.21 242.63 287.655 241.502 288.471 242.113C289.264 242.707 288.97 244.099 287.909 245.516C286.955 246.788 285.366 247.659 284.124 247.365L280.957 251.59L281.966 252.346C285.284 253.071 289.045 251.803 291.618 248.37Z" fill="#D9D9D9"/>
<path d="M254.702 269.082C251.559 271.588 250.865 275.481 253.39 278.647C255.915 281.813 259.846 281.979 262.989 279.472L271.245 272.888L259.086 257.642L255.099 260.822L258.971 265.677L254.702 269.082ZM260.033 275.766C259.142 276.477 258.125 276.405 257.377 275.467C256.61 274.505 256.766 273.498 257.658 272.788L261.926 269.383L264.302 272.362L260.033 275.766Z" fill="#D9D9D9"/>
<path d="M229.539 279.484L225.008 281.825L233.958 299.149L238.489 296.808L229.539 279.484Z" fill="#D9D9D9"/>
<path d="M201.821 310.774L202.128 311.841L207.202 310.382L212.563 300.475L214.785 308.202L219.686 306.793L214.298 288.052L209.396 289.461L210.855 294.536L209.122 297.625L201.237 291.807L195.788 293.374L196.095 294.441L206.384 301.783L206.533 302.302L201.821 310.774Z" fill="#D9D9D9"/>
<path d="M170.393 318.123C174.862 318.029 178.555 315.28 178.477 311.561C178.383 307.122 173.232 306.18 169.739 305.594C167.842 305.273 166.154 304.889 166.133 303.899C166.109 302.789 167.6 302.308 169.429 302.269C171.289 302.23 172.894 302.947 173.519 304.134L178.798 304.023L178.772 302.763C177.229 299.345 173.68 297.499 169.451 297.588C164.622 297.689 160.953 300.167 161.036 304.126C161.127 308.415 166.277 309.357 169.832 310.003C171.579 310.326 173.359 310.769 173.38 311.788C173.401 312.778 172.124 313.405 170.354 313.442C168.765 313.476 167.099 312.761 166.565 311.602L161.286 311.713L161.312 312.972C162.787 316.032 166.104 318.213 170.393 318.123Z" fill="#D9D9D9"/>
<path d="M130.123 296.153L119.471 292.444C115.674 291.121 112.102 292.165 110.968 295.423C110.386 297.094 110.837 298.808 111.928 300.236L111.829 300.52C110.295 301.002 109.096 301.982 108.563 303.512C107.458 306.685 109.611 309.627 113.407 310.949L113.397 310.977L123.71 314.569L130.123 296.153ZM116.964 299.64C115.888 299.265 115.367 298.48 115.693 297.545C116.028 296.582 116.934 296.262 118.01 296.637L123.847 298.669L122.801 301.672L116.964 299.64ZM114.857 306.784C113.781 306.409 113.25 305.653 113.556 304.774C113.872 303.868 114.768 303.576 115.844 303.951L121.34 305.865L120.354 308.698L114.857 306.784Z" fill="#D9D9D9"/>
<path d="M93.9863 281.929L89.5994 279.328L79.6545 296.102L84.0414 298.703L93.9863 281.929Z" fill="#D9D9D9"/>
<path d="M70.3348 285.946L65.3717 281.595L75.2988 270.27L71.4636 266.908L61.5365 278.233L56.5733 273.883L53.6466 277.222L67.4081 289.285L70.3348 285.946Z" fill="#D9D9D9"/>
<path d="M54.1559 251.547L51.2819 247.334L45.7057 251.138L43.7447 248.263L46.6836 240.593L43.5222 235.959L42.6053 236.584L39.9401 244.176L39.7914 244.278C37.7203 242.785 35.139 242.621 32.8838 244.16C29.7859 246.273 29.5264 250.045 31.7918 253.366L38.0468 262.536L54.1559 251.547ZM35.7075 250.695C35.0651 249.753 35.1381 248.796 35.9807 248.221C36.8482 247.629 37.7665 247.911 38.4089 248.852L41.79 253.809L39.0886 255.652L35.7075 250.695Z" fill="#D9D9D9"/>
<path d="M33.8218 219.127L31.8527 214.422L13.8648 221.952L15.834 226.656L33.8218 219.127Z" fill="#D9D9D9"/>
<path d="M23.9468 190.577L22.8546 185.288L21.7676 185.513L14.8597 193.893L14.5659 193.954L4.87502 189.155L3.78796 189.379L4.84977 194.521L11.3948 197.733L11.4373 197.939L6.67608 203.364L7.76822 208.652L8.85528 208.428L15.6172 200.231L15.911 200.17L25.8085 205.08L26.8956 204.856L25.8338 199.714L19.0234 196.403L18.993 196.256L23.9468 190.577ZM11.5366 197.827L11.5305 197.797L11.5599 197.791L11.5366 197.827Z" fill="#D9D9D9"/>
<path d="M0.701036 144.149C0.0677789 148.574 2.17959 152.664 5.86207 153.191C10.2573 153.82 12.0235 148.891 13.1698 145.539C13.7939 143.719 14.4477 142.116 15.4277 142.256C16.5265 142.413 16.7595 143.962 16.5002 145.774C16.2367 147.615 15.269 149.082 13.9961 149.506L13.2481 154.733L14.4954 154.912C18.1189 153.945 20.5168 150.743 21.116 146.555C21.8003 141.774 19.9515 137.752 16.0314 137.191C11.7847 136.583 10.0185 141.512 8.80429 144.915C8.20142 146.586 7.4755 148.27 6.46579 148.126C5.48578 147.985 5.07458 146.623 5.32533 144.871C5.55059 143.297 6.52678 141.77 7.75723 141.431L8.50523 136.204L7.25794 136.026C3.99935 136.984 1.30879 139.902 0.701036 144.149Z" fill="#D9D9D9"/>
<path d="M23.0844 108.445C24.6366 104.737 23.3759 100.99 19.64 99.4257C15.9041 97.8618 12.3774 99.6052 10.8251 103.313L6.74751 113.054L24.7351 120.584L26.7044 115.88L20.9761 113.482L23.0844 108.445ZM15.1975 105.144C15.6377 104.092 16.5638 103.667 17.6707 104.13C18.8053 104.605 19.1522 105.563 18.712 106.615L16.6037 111.651L13.0892 110.18L15.1975 105.144Z" fill="#D9D9D9"/>
<path d="M40.3636 86.8149L43.214 82.5858L27.0437 71.6875L24.1933 75.9167L40.3636 86.8149Z" fill="#D9D9D9"/>
<path d="M49.4989 46.194L48.7192 45.4039L44.961 49.1126L44.9924 60.3772L39.3451 54.6545L35.715 58.2368L49.4118 72.1165L53.0419 68.5342L49.3332 64.776L49.3779 61.2337L59.0849 62.5708L63.1207 58.5882L62.3411 57.7981L49.7927 56.2724L49.4134 55.888L49.4989 46.194Z" fill="#D9D9D9"/>
<path d="M73.6202 24.5984C69.7351 26.8089 67.7961 30.9841 69.6358 34.2174C71.8315 38.0764 76.8096 36.4521 80.1606 35.3048C81.9814 34.683 83.6493 34.2173 84.1388 35.0777C84.6878 36.0425 83.6066 37.1754 82.016 38.0804C80.3994 39.0002 78.6465 39.1347 77.5316 38.3884L72.9424 40.9995L73.5655 42.0947C76.5493 44.3663 80.5496 44.2993 84.2261 42.2074C88.4242 39.8188 90.4706 35.8932 88.5122 32.4513C86.3907 28.7226 81.4126 30.3469 77.9797 31.4718C76.2894 32.0194 74.5136 32.4775 74.0092 31.591C73.5196 30.7305 74.3441 29.571 75.8825 28.6957C77.2645 27.9094 79.0695 27.7453 80.0913 28.51L84.6805 25.8989L84.0574 24.8038C81.3038 22.8153 77.3489 22.4768 73.6202 24.5984Z" fill="#D9D9D9"/>
<path d="M119.032 24.7216L130.154 22.8435C134.118 22.1742 136.746 19.5399 136.172 16.138C135.877 14.3927 134.656 13.1081 133.012 12.3816L132.962 12.0858C134.075 10.9244 134.653 9.48799 134.384 7.8906C133.824 4.5775 130.522 3.03588 126.558 3.70519L126.553 3.67561L115.785 5.49373L119.032 24.7216ZM128.886 15.3299C130.01 15.14 130.844 15.5772 131.009 16.5534C131.179 17.5592 130.539 18.2757 129.415 18.4655L123.321 19.4944L122.792 16.3588L128.886 15.3299ZM127.292 8.05364C128.416 7.86383 129.245 8.27142 129.4 9.18844C129.56 10.135 128.915 10.822 127.791 11.0118L122.053 11.9808L121.553 9.02264L127.292 8.05364Z" fill="#D9D9D9"/>
<path d="M157.426 19.6765L162.523 19.8513L163.191 0.362789L158.094 0.187988L157.426 19.6765Z" fill="#D9D9D9"/>
<path d="M176.119 4.70944L182.564 6.13256L179.316 20.8383L184.296 21.938L187.544 7.23224L193.988 8.65536L194.946 4.31981L177.076 0.373889L176.119 4.70944Z" fill="#D9D9D9"/>
<path d="M206.584 26.8469L211.131 29.1547L214.186 23.1353L217.289 24.7101L218.408 32.8472L223.411 35.3858L223.913 34.3959L222.592 26.4588L222.673 26.2983C225.207 26.6085 227.548 25.5088 228.784 23.0743C230.481 19.7302 228.891 16.2995 225.306 14.4804L215.407 9.45759L206.584 26.8469ZM223.161 18.7074C224.178 19.2232 224.575 20.0977 224.113 21.0073C223.638 21.9436 222.698 22.1393 221.681 21.6234L216.331 18.9084L217.811 15.9923L223.161 18.7074Z" fill="#D9D9D9"/>
<path d="M241.104 46.0601L245.09 49.2422L257.257 34.0036L253.271 30.8215L241.104 46.0601Z" fill="#D9D9D9"/>
<path d="M263.18 66.038L266.672 70.1568L267.518 69.4389L269.567 58.7736L269.796 58.5796L280.602 58.1495L281.448 57.4317L278.053 53.4273L270.769 53.7428L270.633 53.5826L272.213 46.5397L268.721 42.4209L267.874 43.1387L265.866 53.5733L265.637 53.7673L254.597 54.1994L253.751 54.9172L257.146 58.9216L264.71 58.5653L264.807 58.6797L263.18 66.038ZM270.6 53.7289L270.619 53.7518L270.596 53.7712L270.6 53.7289Z" fill="#D9D9D9"/>
<path d="M305.905 95.6691C304.346 91.4799 300.535 88.8968 297.049 90.1945C292.888 91.7433 293.693 96.9173 294.289 100.409C294.611 102.306 294.803 104.027 293.875 104.372C292.835 104.759 291.89 103.511 291.252 101.796C290.603 100.052 290.751 98.3006 291.666 97.3197L289.825 92.3714L288.644 92.8109C285.923 95.392 285.348 99.3513 286.824 103.316C288.509 107.842 292.056 110.491 295.767 109.11C299.787 107.613 298.982 102.439 298.422 98.8706C298.152 97.1143 297.985 95.2881 298.941 94.9323C299.868 94.5869 300.881 95.5866 301.498 97.2454C302.053 98.7355 301.925 100.544 301.007 101.43L302.849 106.378L304.03 105.938C306.434 103.539 307.402 99.6896 305.905 95.6691Z" fill="#D9D9D9"/>
<path d="M303.453 137.736C303.876 141.734 306.784 144.413 310.811 143.988C314.839 143.562 317.092 140.337 316.67 136.339L315.56 125.838L296.168 127.887L296.704 132.959L302.88 132.306L303.453 137.736ZM311.956 136.838C312.076 137.971 311.469 138.79 310.275 138.916C309.052 139.045 308.287 138.372 308.167 137.238L307.593 131.808L311.382 131.408L311.956 136.838Z" fill="#D9D9D9"/>
<path d="M298.764 164.643L298.306 169.722L317.727 171.473L318.185 166.393L298.764 164.643Z" fill="#D9D9D9"/>
<path d="M310.135 205.333L311.198 205.654L312.723 200.599L307.306 190.722L315.003 193.046L316.477 188.163L297.809 182.528L296.335 187.41L301.39 188.936L303.046 192.068L293.882 195.538L292.243 200.966L293.306 201.287L305.055 196.623L305.572 196.779L310.135 205.333Z" fill="#D9D9D9"/>
</svg>
