<svg width="436" height="436" viewBox="0 0 436 436" fill="none" xmlns="http://www.w3.org/2000/svg">
<path d="M399.365 340.314C403.036 335.42 403.19 329.123 399.112 326.071C394.246 322.428 388.881 327.184 385.3 330.453C383.353 332.227 381.513 333.722 380.428 332.909C379.211 331.999 379.95 329.987 381.453 327.983C382.98 325.947 385.108 324.821 386.917 325.149L391.253 319.368L389.872 318.334C384.883 317.113 379.896 319.381 376.422 324.012C372.455 329.301 372.03 335.343 376.37 338.592C381.073 342.111 386.437 337.356 390.134 334.071C391.957 332.461 393.937 330.917 395.055 331.754C396.14 332.566 395.738 334.471 394.285 336.409C392.979 338.15 390.801 339.341 389.1 338.939L384.764 344.72L386.145 345.754C390.69 346.746 395.842 345.011 399.365 340.314Z" fill="#595959"/>
<path d="M348.803 368.652C344.498 372.081 343.547 377.407 347.005 381.739C350.464 386.071 355.848 386.297 360.152 382.868L371.46 373.859L354.807 353.001L349.346 357.351L354.649 363.994L348.803 368.652ZM356.104 377.797C354.884 378.77 353.491 378.672 352.467 377.388C351.416 376.072 351.63 374.695 352.851 373.722L358.697 369.064L361.951 373.14L356.104 377.797Z" fill="#595959"/>
<path d="M314.337 382.884L308.131 386.087L320.39 409.79L326.596 406.587L314.337 382.884Z" fill="#595959"/>
<path d="M276.373 425.695L276.793 427.155L283.743 425.159L291.086 411.604L294.129 422.176L300.842 420.248L293.462 394.607L286.749 396.535L288.747 403.478L286.373 407.705L275.573 399.745L268.11 401.888L268.53 403.348L282.623 413.394L282.827 414.104L276.373 425.695Z" fill="#595959"/>
<path d="M233.327 435.749C239.448 435.621 244.506 431.861 244.399 426.772C244.271 420.699 237.216 419.41 232.432 418.607C229.833 418.169 227.521 417.643 227.492 416.289C227.46 414.77 229.501 414.112 232.007 414.059C234.554 414.005 236.753 414.986 237.609 416.61L244.839 416.458L244.803 414.734C242.691 410.057 237.829 407.532 232.037 407.654C225.423 407.793 220.398 411.183 220.512 416.599C220.635 422.468 227.69 423.756 232.559 424.639C234.952 425.082 237.389 425.688 237.419 427.083C237.447 428.437 235.698 429.295 233.274 429.346C231.097 429.392 228.816 428.413 228.084 426.827L220.854 426.979L220.89 428.703C222.91 432.889 227.452 435.873 233.327 435.749Z" fill="#595959"/>
<path d="M178.171 405.691L163.58 400.615C158.381 398.806 153.489 400.234 151.934 404.692C151.137 406.979 151.755 409.323 153.25 411.278L153.115 411.665C151.014 412.325 149.371 413.666 148.641 415.759C147.128 420.101 150.076 424.125 155.276 425.934L155.262 425.973L169.387 430.887L178.171 405.691ZM160.148 410.461C158.673 409.948 157.96 408.874 158.406 407.595C158.865 406.277 160.106 405.839 161.58 406.352L169.574 409.133L168.142 413.242L160.148 410.461ZM157.262 420.236C155.788 419.723 155.061 418.688 155.48 417.486C155.912 416.246 157.139 415.847 158.614 416.36L166.142 418.979L164.79 422.855L157.262 420.236Z" fill="#595959"/>
<path d="M128.676 386.23L122.667 382.671L109.046 405.621L115.054 409.179L128.676 386.23Z" fill="#595959"/>
<path d="M96.2809 391.725L89.483 385.773L103.08 370.278L97.8269 365.678L84.2301 381.173L77.4322 375.221L73.4236 379.789L92.2723 396.293L96.2809 391.725Z" fill="#595959"/>
<path d="M74.1211 344.661L70.1847 338.897L62.5472 344.101L59.8612 340.168L63.8866 329.674L59.5566 323.333L58.3006 324.189L54.6503 334.576L54.4466 334.715C51.6098 332.673 48.0744 332.449 44.9854 334.554C40.7423 337.445 40.387 342.606 43.4898 347.15L52.0571 359.696L74.1211 344.661ZM48.853 343.495C47.9731 342.207 48.0731 340.897 49.2273 340.11C50.4153 339.301 51.6731 339.686 52.553 340.974L57.184 347.756L53.484 350.277L48.853 343.495Z" fill="#595959"/>
<path d="M46.2702 300.304L43.5732 293.867L18.9358 304.169L21.6329 310.605L46.2702 300.304Z" fill="#595959"/>
<path d="M32.7447 261.242L31.2489 254.006L29.76 254.313L20.2985 265.779L19.8961 265.862L6.62278 259.296L5.13387 259.603L6.58819 266.638L15.5527 271.033L15.6108 271.315L9.08962 278.737L10.5855 285.973L12.0744 285.666L21.336 274.451L21.7384 274.368L35.2947 281.085L36.7836 280.778L35.3293 273.743L26.0013 269.213L25.9597 269.012L32.7447 261.242ZM15.7469 271.161L15.7386 271.121L15.7788 271.112L15.7469 271.161Z" fill="#595959"/>
<path d="M0.905805 197.719C0.0384533 203.774 2.93094 209.37 7.97471 210.091C13.9947 210.952 16.4138 204.207 17.9839 199.622C18.8387 197.132 19.7342 194.938 21.0764 195.13C22.5814 195.345 22.9005 197.464 22.5454 199.942C22.1845 202.461 20.8591 204.469 19.1157 205.05L18.0911 212.201L19.7995 212.445C24.7624 211.123 28.0468 206.741 28.8675 201.012C29.8047 194.47 27.2725 188.967 21.9033 188.199C16.0867 187.367 13.6677 194.112 12.0046 198.767C11.1788 201.054 10.1846 203.358 8.8016 203.16C7.45931 202.969 6.8961 201.105 7.23955 198.708C7.54807 196.554 8.88513 194.465 10.5704 194.001L11.595 186.85L9.88658 186.606C5.4234 187.916 1.73823 191.909 0.905805 197.719Z" fill="#595959"/>
<path d="M31.5635 148.87C33.6896 143.796 31.9628 138.669 26.8459 136.529C21.729 134.39 16.8985 136.775 14.7724 141.849L9.18746 155.176L33.8245 165.478L36.5218 159.042L28.6758 155.761L31.5635 148.87ZM20.7611 144.353C21.364 142.914 22.6325 142.332 24.1486 142.966C25.7026 143.616 26.1777 144.927 25.5748 146.366L22.6871 153.257L17.8734 151.244L20.7611 144.353Z" fill="#595959"/>
<path d="M55.2304 119.275L59.1343 113.489L36.9864 98.5782L33.0824 104.365L55.2304 119.275Z" fill="#595959"/>
<path d="M67.7426 63.698L66.6747 62.6171L61.5272 67.6913L61.5702 83.1035L53.8353 75.2737L48.8632 80.175L67.6234 99.1651L72.5954 94.2639L67.5157 89.1219L67.5769 84.2753L80.8723 86.1048L86.4 80.6558L85.3321 79.5748L68.145 77.4873L67.6255 76.9614L67.7426 63.698Z" fill="#595959"/>
<path d="M100.781 34.1511C95.4594 37.1756 92.8037 42.888 95.3234 47.3117C98.3308 52.5917 105.149 50.3693 109.739 48.7995C112.233 47.9488 114.517 47.3116 115.188 48.4889C115.94 49.8088 114.459 51.3589 112.28 52.5971C110.066 53.8556 107.665 54.0395 106.138 53.0185L99.8524 56.591L100.706 58.0894C104.793 61.1974 110.272 61.1057 115.307 58.2437C121.057 54.9756 123.86 49.6046 121.178 44.8954C118.272 39.7938 111.454 42.0162 106.752 43.5552C104.437 44.3044 102.004 44.9312 101.314 43.7183C100.643 42.541 101.772 40.9547 103.879 39.757C105.772 38.6812 108.244 38.4567 109.644 39.503L115.93 35.9304L115.076 34.4321C111.305 31.7115 105.888 31.2484 100.781 34.1511Z" fill="#595959"/>
<path d="M162.979 34.3196L178.214 31.7501C183.643 30.8343 187.242 27.23 186.456 22.5757C186.052 20.1878 184.38 18.4301 182.128 17.4362L182.06 17.0315C183.583 15.4425 184.376 13.4771 184.007 11.2916C183.24 6.75864 178.717 4.6494 173.287 5.56514L173.281 5.52467L158.533 8.01222L162.979 34.3196ZM176.476 21.4699C178.016 21.2103 179.158 21.8084 179.384 23.144C179.617 24.5201 178.741 25.5004 177.201 25.7601L168.855 27.1679L168.13 22.8777L176.476 21.4699ZM174.293 11.5147C175.833 11.255 176.969 11.8126 177.181 13.0673C177.4 14.3624 176.517 15.3023 174.977 15.562L167.117 16.8877L166.433 12.8404L174.293 11.5147Z" fill="#595959"/>
<path d="M215.567 27.417L222.548 27.6562L223.463 0.992091L216.482 0.75293L215.567 27.417Z" fill="#595959"/>
<path d="M241.17 6.93916L249.997 8.88626L245.549 29.0066L252.37 30.5111L256.818 10.3908L265.645 12.3379L266.956 6.40606L242.481 1.00728L241.17 6.93916Z" fill="#595959"/>
<path d="M282.896 37.2275L289.125 40.385L293.309 32.1493L297.559 34.3039L299.092 45.437L305.944 48.9103L306.632 47.556L304.822 36.6965L304.934 36.4769C308.404 36.9013 311.611 35.3967 313.303 32.0659C315.627 27.4905 313.45 22.7967 308.54 20.3078L294.982 13.4355L282.896 37.2275ZM305.602 26.0911C306.994 26.7969 307.539 27.9933 306.906 29.2378C306.256 30.5189 304.968 30.7866 303.575 30.0808L296.247 26.3661L298.273 22.3763L305.602 26.0911Z" fill="#595959"/>
<path d="M330.178 63.5148L335.637 67.8686L352.301 47.0193L346.843 42.6655L330.178 63.5148Z" fill="#595959"/>
<path d="M360.414 90.8485L365.197 96.4838L366.357 95.5017L369.163 80.9094L369.476 80.6439L384.276 80.0555L385.436 79.0734L380.786 73.5946L370.809 74.0263L370.623 73.8072L372.787 64.1711L368.004 58.5358L366.844 59.5179L364.093 73.7944L363.78 74.0599L348.659 74.651L347.499 75.6331L352.15 81.1119L362.51 80.6244L362.643 80.7809L360.414 90.8485ZM370.577 74.0073L370.604 74.0386L370.572 74.0651L370.577 74.0073Z" fill="#595959"/>
<path d="M418.934 131.39C416.798 125.658 411.579 122.124 406.804 123.899C401.105 126.018 402.208 133.097 403.023 137.875C403.464 140.47 403.728 142.825 402.457 143.297C401.032 143.827 399.738 142.118 398.863 139.772C397.975 137.387 398.178 134.99 399.431 133.648L396.909 126.878L395.291 127.479C391.565 131.011 390.778 136.428 392.799 141.852C395.106 148.045 399.964 151.669 405.048 149.779C410.554 147.732 409.451 140.653 408.684 135.77C408.315 133.367 408.085 130.868 409.395 130.382C410.665 129.909 412.052 131.277 412.898 133.546C413.657 135.585 413.483 138.059 412.225 139.271L414.747 146.041L416.365 145.44C419.658 142.157 420.983 136.891 418.934 131.39Z" fill="#595959"/>
<path d="M415.576 188.946C416.154 194.415 420.137 198.081 425.653 197.499C431.17 196.916 434.256 192.504 433.678 187.035L432.158 172.666L405.597 175.47L406.331 182.41L414.79 181.517L415.576 188.946ZM427.222 187.716C427.386 189.267 426.554 190.387 424.919 190.559C423.244 190.736 422.196 189.815 422.032 188.264L421.246 180.835L426.436 180.287L427.222 187.716Z" fill="#595959"/>
<path d="M409.153 225.759L408.525 232.708L435.126 235.104L435.753 228.154L409.153 225.759Z" fill="#595959"/>
<path d="M424.727 281.431L426.182 281.87L428.272 274.954L420.853 261.441L431.395 264.62L433.414 257.94L407.845 250.23L405.826 256.91L412.75 258.997L415.017 263.283L402.466 268.03L400.222 275.457L401.677 275.896L417.769 269.515L418.477 269.728L424.727 281.431Z" fill="#595959"/>
</svg>
