<svg width="200" height="108" viewBox="0 0 200 108" fill="none" xmlns="http://www.w3.org/2000/svg">
<g clip-path="url(#clip0_337_532)">
<rect width="200" height="108" fill="#7C4DC2"/>
<path d="M61.5646 55.5608L61.6386 56.8042C62.0058 56.6855 62.1585 56.3434 62.136 55.9638C62.1163 55.641 61.9936 55.4056 61.8184 55.1812L62.2596 54.8564C62.5397 55.1051 62.6867 55.5568 62.7083 55.911C62.7654 56.8682 62.2727 57.5086 61.4475 57.5655C60.6963 57.6182 60.0612 57.1128 60.005 56.1678C59.9732 55.6268 60.094 55.2503 60.3207 54.9782L60.7769 55.2838C60.6598 55.4482 60.5567 55.7425 60.5764 56.0846C60.6017 56.5078 60.8143 56.792 61.1974 56.8408L61.1234 55.5913L61.5646 55.5608Z" fill="#F2B94B"/>
<path d="M62.8526 57.5691L63.1649 60.1823L62.5228 60.2819L62.4107 59.3448L60.5394 59.6362L60.4521 58.9035L62.3234 58.6121L62.2104 57.6687L62.8526 57.5691Z" fill="#F2B94B"/>
<path d="M63.5772 61.9942C63.7576 62.933 63.3102 63.6754 62.5569 63.8592C61.8036 64.044 61.1246 63.5767 60.9442 62.639C60.7638 61.7012 61.2111 60.9578 61.9645 60.774C62.7178 60.5892 63.3977 61.0554 63.5772 61.9942ZM61.5413 62.492C61.6269 62.9393 61.9747 63.1966 62.41 63.0905C62.8341 62.9866 63.0601 62.5823 62.9754 62.1412C62.8936 61.7128 62.5495 61.4408 62.1142 61.5479C61.6957 61.6508 61.4567 62.052 61.5413 62.492Z" fill="#F2B94B"/>
<path d="M63.5045 67.471L63.0889 66.4042L62.0513 66.7305L61.8085 66.1078L64.5244 65.2551L64.7672 65.8778L63.741 66.2004L64.1567 67.2672L65.1828 66.9446L65.4256 67.5673L62.7097 68.42L62.4669 67.7973L63.5045 67.471Z" fill="#F2B94B"/>
<path d="M64.458 71.5851C64.1546 71.4398 63.9108 71.1484 63.7637 70.8198C63.424 70.0638 63.6865 69.3386 64.4263 69.0053C65.1085 68.6981 65.867 68.9215 66.2132 69.6933C66.4849 70.2984 66.2793 70.9986 65.6232 71.2927C65.477 71.3579 65.384 71.3877 65.2835 71.4017L64.5222 69.7073C64.1909 69.9186 64.1248 70.2863 64.2914 70.6569C64.4198 70.9436 64.632 71.1363 64.8023 71.2229L64.458 71.5851ZM64.9149 69.5071L65.4324 70.6587C65.7209 70.5349 65.8568 70.2361 65.7013 69.8925C65.5403 69.5322 65.25 69.4307 64.9149 69.5071Z" fill="#F2B94B"/>
<path d="M67.8471 72.4893L68.1879 73.0339L67.6777 74.4349L69.1641 74.5948L69.4947 75.1234L67.0741 76.5584L66.6974 75.9558L68.1766 75.0784L66.837 74.9176L66.8267 74.9016L67.2815 73.6484L65.8023 74.5258L65.4255 73.9233L67.8471 72.4893Z" fill="#F2B94B"/>
<path d="M69.4208 76.1064C69.6531 76.2144 69.9454 76.4412 70.1413 76.7303C70.5812 77.3819 70.4309 77.8562 69.8944 78.285L68.6603 79.2713L68.3297 78.7821L68.5638 78.595C68.3315 78.5999 68.0647 78.4514 67.8625 78.1523C67.5911 77.7503 67.6257 77.2779 68.0173 76.965C68.4627 76.6085 68.9163 76.7967 69.2177 77.2423C69.3498 77.4384 69.4236 77.681 69.4245 77.8463C69.7724 77.5909 69.8908 77.3453 69.6686 77.0175C69.4964 76.763 69.3152 76.659 69.1385 76.5511L69.4208 76.1064ZM68.8971 78.2672L69.1048 78.1018C69.1066 77.9503 69.052 77.7978 68.9427 77.6354C68.817 77.4493 68.623 77.3473 68.4518 77.4839C68.2987 77.6067 68.306 77.8117 68.4253 77.9879C68.5838 78.2236 68.7605 78.2702 68.8971 78.2672Z" fill="#F2B94B"/>
<path d="M71.5159 77.9148L72.6596 79.2961L72.1744 79.7124L71.4662 78.8565L69.9301 80.1754L69.4947 79.649L71.5159 77.9148Z" fill="#F2B94B"/>
<path d="M70.8511 81.5328L72.6999 79.7234L73.1625 80.1957L71.9918 81.3417L74.0064 81.0587L74.4681 81.531L72.6193 83.3404L72.1576 82.8681L73.3283 81.7221L71.3137 82.0051L70.8511 81.5328Z" fill="#F2B94B"/>
<path d="M77.1809 83.9575L75.4067 86.0533L74.8822 85.5898L75.4146 84.9608L75.1228 84.7029L74.166 84.9568L73.5638 84.425L74.7417 84.1632C74.6189 83.9405 74.5658 83.5522 74.8576 83.2071C75.2004 82.8018 75.7712 82.7115 76.5099 83.3636L77.1809 83.9575ZM75.4765 84.3237L75.7506 84.5655L76.2633 83.9605L76.0305 83.7549C75.7751 83.5291 75.5227 83.5833 75.3881 83.7408C75.2417 83.9134 75.3124 84.1782 75.4765 84.3237Z" fill="#F2B94B"/>
<path d="M76.5448 86.1635C76.7931 86.3556 76.7836 86.6931 76.5552 86.9946C76.2559 87.3882 75.816 87.5052 75.3724 87.3312L75.4196 86.9708C75.5659 87.0174 75.7132 87.0355 75.8868 86.9413C75.9954 86.8852 76.0738 86.8206 76.0907 86.7607C76.035 86.7768 75.9794 86.734 75.9425 86.7055C75.8227 86.6133 75.8028 86.3993 75.9331 86.2282C76.0813 86.0342 76.3145 85.9857 76.5448 86.1635Z" fill="#F2B94B"/>
<path d="M79.8424 87.1497L80.9265 87.8458C81.07 87.4387 80.8856 87.0907 80.5557 86.8787C80.2739 86.6973 79.9963 86.6657 79.6936 86.6868L79.7156 86.0867C80.1074 85.9855 80.5819 86.1278 80.8898 86.3261C81.7246 86.8618 81.9331 87.7013 81.4356 88.487C80.9831 89.202 80.143 89.4688 79.3197 88.9405C78.8483 88.6378 78.6147 88.2961 78.5372 87.9249L79.0924 87.6981C79.1521 87.9048 79.3291 88.1801 79.6266 88.371C79.9953 88.6072 80.3724 88.5893 80.6657 88.2708L79.5763 87.5716L79.8424 87.1497Z" fill="#F2B94B"/>
<path d="M82.2151 87.4097L84.4149 88.594L84.0809 89.209L83.2916 88.7842L82.3195 90.5746L81.7021 90.2418L82.6743 88.4514L81.8801 88.0236L82.2151 87.4097Z" fill="#F2B94B"/>
<path d="M86.1598 88.9065C87.0351 89.2473 87.3356 89.9866 86.9838 90.6819C86.632 91.3771 85.8059 91.6784 84.9306 91.3385C84.0553 90.9978 83.7548 90.2585 84.1066 89.5632C84.4574 88.867 85.2845 88.5658 86.1598 88.9065ZM85.2091 90.7866C85.6258 90.9491 86.0645 90.8049 86.2676 90.4027C86.4655 90.0114 86.2896 89.622 85.8782 89.4622C85.4793 89.307 85.0311 89.4411 84.828 89.8433C84.6333 90.23 84.7976 90.6268 85.2091 90.7866Z" fill="#F2B94B"/>
<path d="M89.2447 90.5745L89.8355 90.7612L90.3877 92.1696L91.5277 91.2946L92.1011 91.4751L91.3424 94.1915L90.6888 93.9853L91.1522 92.3255L90.1135 93.101L90.0961 93.0959L89.6009 91.8362L89.1376 93.496L88.4841 93.2898L89.2447 90.5745Z" fill="#F2B94B"/>
<path d="M92.6299 91.5824C92.8688 91.4883 93.2241 91.4402 93.5466 91.5165C94.2734 91.6869 94.4542 92.175 94.3216 92.9223L94.0163 94.6437L93.4703 94.5151L93.5284 94.188C93.3594 94.3709 93.0705 94.4597 92.7371 94.3813C92.2892 94.2758 92.0239 93.8796 92.1211 93.333C92.2319 92.7112 92.6826 92.5094 93.1795 92.6265C93.3985 92.6777 93.602 92.8104 93.7047 92.94C93.8046 92.4729 93.741 92.1896 93.3749 92.1039C93.0905 92.037 92.8924 92.0956 92.6962 92.1468L92.6299 91.5824ZM93.572 93.6748L93.6229 93.3853C93.5302 93.2651 93.3958 93.1877 93.2159 93.1459C93.0087 93.0968 92.8025 93.1668 92.7607 93.4051C92.7225 93.6183 92.8543 93.7741 93.0514 93.8201C93.3131 93.8828 93.4739 93.7824 93.572 93.6748Z" fill="#F2B94B"/>
<path d="M95.7506 91.9309L96.4612 92.0154L96.4288 92.2791C96.6244 92.1161 96.9691 92.0074 97.327 92.0507C98.0924 92.1422 98.5151 92.7902 98.4168 93.6053C98.3144 94.4454 97.6555 95.025 96.7664 94.9194C96.519 94.8902 96.2838 94.8178 96.1338 94.7071L95.9767 96.0001L95.266 95.9155L95.7506 91.9309ZM96.3517 92.911L96.2159 94.0269C96.3923 94.1728 96.5484 94.2281 96.7836 94.2563C97.2773 94.3156 97.6048 93.9937 97.6605 93.5338C97.7143 93.0921 97.4933 92.7429 97.0239 92.6866C96.7836 92.6584 96.5474 92.7419 96.3517 92.911Z" fill="#F2B94B"/>
<path d="M98.981 92.3828L99.6787 92.4065L99.5807 95.0253L98.883 95.0016L98.981 92.3828ZM100.469 93.6813L101.596 95.0956L100.685 95.0642L99.654 93.706L100.685 92.4417L101.565 92.472L100.469 93.6813Z" fill="#F2B94B"/>
<path d="M104.586 94.7315C104.325 94.9601 103.944 95.079 103.564 95.094C102.691 95.1277 102.084 94.6107 102.049 93.7957C102.017 93.0435 102.532 92.4186 103.424 92.384C104.122 92.3568 104.727 92.8102 104.758 93.5343C104.765 93.6954 104.757 93.7929 104.732 93.8922L102.775 93.969C102.852 94.3568 103.186 94.5573 103.613 94.5404C103.944 94.5273 104.216 94.4018 104.368 94.2753L104.586 94.7315ZM102.732 93.5268L104.062 93.4744C104.054 93.1577 103.815 92.9198 103.418 92.9357C103.003 92.9526 102.79 93.1849 102.732 93.5268Z" fill="#F2B94B"/>
<path d="M104.761 92.2005L107.388 91.9309L107.473 92.5804L106.531 92.6767L106.781 94.5686L106.043 94.6437L105.794 92.7518L104.846 92.8491L104.761 92.2005Z" fill="#F2B94B"/>
<path d="M108.461 94.6437L107.926 91.9952L108.613 91.8602L108.951 93.5375L109.868 91.6137L110.555 91.4788L111.09 94.1273L110.403 94.2622L110.065 92.5849L109.148 94.5087L108.461 94.6437Z" fill="#F2B94B"/>
<path d="M113.77 92.2886L112.656 92.6072L112.942 93.5535L112.291 93.7394L111.543 91.2648L112.193 91.0789L112.476 92.014L113.591 91.6954L113.308 90.7604L113.959 90.5745L114.707 93.049L114.057 93.2349L113.77 92.2886Z" fill="#F2B94B"/>
<path d="M114.707 90.3088L116.301 89.6702L116.516 90.2765L115.529 90.6717L116.208 92.5915L115.602 92.8351L114.707 90.3088Z" fill="#F2B94B"/>
<path d="M77.069 27.7C76.9283 27.1808 76.7523 26.7915 76.5411 26.5309C76.33 26.2713 76.1012 26.0884 75.8539 25.9823C75.6075 25.8761 75.3308 25.823 75.0258 25.823H74.9202V25.468H85.241V25.823H84.3249C83.6201 25.823 83.0922 25.9233 82.7402 26.1238C82.3883 26.3244 82.2123 26.7207 82.2123 27.3106C82.2123 27.5004 82.2416 27.7354 82.3003 28.0195C82.3589 28.3027 82.4235 28.5751 82.4939 28.8346L84.2555 34.9632C84.4432 35.5777 84.6544 36.3152 84.889 37.1775C85.1237 38.0398 85.3583 38.8844 85.5939 39.7103C85.8285 40.5372 86.0162 41.2225 86.158 41.7653H86.2284C86.2988 41.4821 86.3633 41.2333 86.4219 41.0209C86.4806 40.8086 86.5393 40.5962 86.5979 40.3838C86.6566 40.1714 86.7211 39.9472 86.7915 39.7103L90.701 25.646H92.9554L96.4074 36.0969C96.5481 36.5216 96.6889 36.9533 96.8297 37.3898C96.9705 37.8274 97.1112 38.2757 97.252 38.7359C97.3928 39.196 97.5277 39.6513 97.6568 40.0996C97.7858 40.548 97.909 40.9856 98.0263 41.4103H98.1319C98.2257 41.0091 98.3548 40.5018 98.519 39.8873C98.6833 39.2737 98.8651 38.6179 99.0645 37.9218C99.264 37.2256 99.4458 36.5816 99.61 35.9907L101.477 29.3302C101.571 29.0234 101.647 28.699 101.706 28.3558C101.765 28.0136 101.794 27.7482 101.794 27.5584C101.794 26.9439 101.6 26.5014 101.213 26.23C100.826 25.9587 100.245 25.823 99.4693 25.823H98.2736V25.468H105.213V25.823H104.613C104.191 25.823 103.827 25.8938 103.521 26.0354C103.216 26.1769 102.946 26.4483 102.711 26.8505C102.476 27.2526 102.254 27.8425 102.041 28.6223L97.603 44.4574H94.2918L89.7488 30.4275L85.8393 44.4564H82.0354L77.069 27.7Z" fill="#F2B94B"/>
<path d="M87.1818 74.75C85.5941 74.75 84.26 74.4028 83.1825 73.7106C82.104 73.0183 81.2859 71.9436 80.7294 70.4867C80.1719 69.0307 79.8936 67.1631 79.8936 64.8847C79.8936 62.6074 80.1719 60.7515 80.7294 59.318C81.2859 57.8855 82.0921 56.8226 83.147 56.1293C84.2018 55.4371 85.4875 55.0899 87.0042 55.0899C88.4261 55.0899 89.5994 55.484 90.5239 56.2702C91.4485 57.0573 92.0406 58.2727 92.3011 59.9164H92.3721C92.3721 58.9777 92.3662 58.1016 92.3544 57.292C92.3425 56.4814 92.3366 55.7656 92.3366 55.1427C92.3366 54.5208 92.3366 54.0212 92.3366 53.6457V50.1236C92.3366 49.489 92.1945 49.0196 91.9103 48.7145C91.6262 48.4095 91.2877 48.21 90.8969 48.1151C90.5062 48.0213 90.144 47.9743 89.8125 47.9743H89.3862V47.6223H97.7411V71.7559C97.7411 72.414 97.8773 72.9068 98.1496 73.2353C98.4219 73.5649 98.7594 73.7819 99.163 73.8875C99.5656 73.9931 99.9327 74.0459 100.265 74.0459H100.691V74.398H92.3721V69.5714H92.3011C92.0643 71.3569 91.4831 72.6662 90.5595 73.4993C89.6349 74.3334 88.509 74.75 87.1818 74.75ZM88.6748 73.8699C89.8835 73.8699 90.7963 73.072 91.412 71.4743C92.0278 69.8775 92.3366 67.517 92.3366 64.3929C92.3366 62.538 92.1945 60.9872 91.9103 59.7424C91.6262 58.4976 91.2107 57.5579 90.666 56.9233C90.1204 56.2887 89.4336 55.9719 88.6037 55.9719C87.8923 55.9719 87.2933 56.2887 86.8078 56.9233C86.3213 57.5579 85.9602 58.4976 85.7234 59.7424C85.4866 60.9872 85.3681 62.538 85.3681 64.3929C85.3681 66.4835 85.4925 68.2328 85.7411 69.6418C85.9898 71.0509 86.3638 72.1079 86.8611 72.8129C87.3594 73.5169 87.9643 73.8699 88.6748 73.8699Z" fill="#F2B94B"/>
<path d="M109.739 75.2022C107.672 75.2022 106.133 74.6568 105.124 73.5648C104.114 72.4729 103.61 70.7287 103.61 68.3304V58.6462C103.61 57.911 103.522 57.3646 103.346 57.0078C103.17 56.6521 102.91 56.4149 102.57 56.2963C102.229 56.1778 101.789 56.1185 101.249 56.1185H101.144V55.7617H108.965V69.5054C108.965 70.5262 109.053 71.3809 109.229 72.0687C109.405 72.7575 109.687 73.2733 110.075 73.6172C110.462 73.9621 110.973 74.133 111.607 74.133C112.453 74.133 113.11 73.8484 113.58 73.2782C114.05 72.7081 114.378 71.9136 114.567 70.8928C114.755 69.872 114.848 68.698 114.848 67.3679V58.4308C114.848 57.743 114.713 57.2381 114.444 56.9179C114.174 56.5977 113.845 56.3833 113.457 56.2776C113.069 56.1708 112.699 56.1175 112.347 56.1175H112.206V55.7607H120.204V72.3167C120.204 72.9344 120.345 73.4028 120.626 73.7229C120.908 74.0431 121.243 74.2516 121.63 74.3465C122.018 74.4413 122.375 74.4888 122.705 74.4888H122.846V74.8445H114.848V71.4975H114.778C114.567 72.2812 114.284 72.9215 113.932 73.4205C113.58 73.9186 113.18 74.2931 112.734 74.5421C112.289 74.7911 111.806 74.9631 111.29 75.058C110.773 75.1548 110.256 75.2022 109.739 75.2022Z" fill="#F2B94B"/>
<path d="M111.006 52.1436C107.916 52.1436 105.576 51.2843 103.984 49.5636C102.392 47.8439 101.596 45.4416 101.596 42.3568C101.596 39.0113 102.367 36.4905 103.913 34.7945C105.457 33.0985 107.631 32.25 110.436 32.25C113.026 32.25 115.064 32.974 116.549 34.4211C118.034 35.8682 118.777 38.1578 118.777 40.9601C118.777 41.3582 118.453 41.6812 118.054 41.6812H107.949C107.471 41.6812 107.084 42.0733 107.092 42.5504C107.127 44.5516 107.285 46.2012 107.566 47.5001C107.887 48.9838 108.398 50.0624 109.098 50.739C109.799 51.4156 110.708 51.7534 111.825 51.7534C112.657 51.7534 113.431 51.6112 114.088 51.2191C115.767 50.2175 114.805 48.5007 114.805 47.4428C114.805 46.4857 115.422 45.3932 116.76 45.3932C118.107 45.3932 118.775 46.301 118.775 47.4428C118.775 49.9686 115.941 51.1361 114.907 51.5391C113.876 51.9421 112.575 52.1436 111.006 52.1436ZM112.498 41.3256C112.973 41.3256 113.359 40.9354 113.353 40.4603C113.334 38.7041 113.251 37.2777 113.109 36.1833C112.943 34.914 112.646 34.0003 112.218 33.4432C111.79 32.8861 111.196 32.6066 110.435 32.6066C109.674 32.6066 109.045 32.8861 108.545 33.4432C108.046 34.0013 107.684 34.915 107.458 36.1833C107.263 37.2758 107.144 38.6981 107.1 40.4494C107.088 40.9295 107.475 41.3256 107.956 41.3256H112.498V41.3256Z" fill="#F2B94B"/>
<path d="M131.888 19.8346H128.477C125.482 19.8346 123.053 17.4063 123.053 14.4111V11H122.638V14.4111C122.638 17.4063 120.21 19.8346 117.214 19.8346H113.803V20.2495H117.214C120.21 20.2495 122.638 22.6778 122.638 25.673V29.0851H123.053V25.673C123.053 22.6778 125.482 20.2495 128.477 20.2495H131.888V19.8346Z" fill="#F2B94B"/>
<path d="M125.028 85.6009L124.654 85.0917C129.403 81.5469 133.339 76.8797 136.039 71.5953C138.868 66.0558 140.303 60.0651 140.303 53.7888C140.303 42.6206 135.539 31.9773 127.231 24.5874L127.646 24.1116C136.089 31.6211 140.931 42.4381 140.931 53.7888C140.931 60.1671 139.473 66.256 136.597 71.8857C133.853 77.2564 129.853 81.9992 125.028 85.6009Z" fill="#F2B94B"/>
</g>
<defs>
<clipPath id="clip0_337_532">
<rect width="200" height="108" fill="white"/>
</clipPath>
</defs>
</svg>
