<svg width="200" height="108" viewBox="0 0 200 108" fill="none" xmlns="http://www.w3.org/2000/svg">
<g clip-path="url(#clip0_337_569)">
<rect width="200" height="108" fill="#B84236"/>
<path d="M22.0684 38.0382L27.1325 38C29.5129 38 31.035 38.3563 31.6987 39.069C32.3739 39.769 32.7115 41.4107 32.7115 43.9941V44.8532C32.7115 45.7695 32.66 46.7367 32.557 47.7548C32.4655 48.7602 32.1393 49.5365 31.5786 50.0837C31.0292 50.6309 30.1995 50.9046 29.0894 50.9046C28.7461 50.9427 28.3055 50.9682 27.7676 50.9809C27.2412 50.9936 26.7377 51 26.257 51H23.3902C22.6921 51 22.0169 50.9618 21.3646 50.8855C20.7237 50.8091 20.1801 50.6691 19.7338 50.4655C19.2989 50.2619 18.9384 49.9119 18.6523 49.4156C18.3777 48.9065 18.2003 48.2511 18.1202 47.4493C18.0401 46.6476 18 45.6995 18 44.605C18 43.5742 18.0114 42.836 18.0343 42.3906C18.0572 41.9325 18.1488 41.2834 18.309 40.4435C18.4807 39.6035 18.8869 38.9927 19.5278 38.6109C20.1687 38.2291 21.0156 38.0382 22.0684 38.0382ZM22.3602 49.5874L25.3129 49.6446H26.7377C27.5502 49.6446 28.3685 49.6001 29.1924 49.511C30.0164 49.4219 30.56 49.1229 30.8232 48.6138C31.0979 48.092 31.2352 47.3157 31.2352 46.2849L31.2696 43.6696C31.2696 42.8678 31.241 42.1743 31.1837 41.5888C31.1265 40.9907 31.0006 40.5389 30.8061 40.2335C30.6115 39.9153 30.354 39.7117 30.0336 39.6226C29.7246 39.5208 29.4042 39.4572 29.0723 39.4317C28.7518 39.3935 28.4085 39.3744 28.0423 39.3744L25.3472 39.3554L22.6864 39.4126C21.3818 39.4126 20.5235 39.6035 20.1115 39.9853C19.6995 40.3544 19.4935 41.2389 19.4935 42.6388L19.442 44.5477V45.4831C19.442 47.0866 19.5965 48.1747 19.9055 48.7474C20.2145 49.3074 21.0327 49.5874 22.3602 49.5874Z" fill="white"/>
<path d="M45.9971 50.8664H35.5599V38.1336H36.9504V49.5874H45.9971V50.8664Z" fill="white"/>
<path d="M60.5834 38.1336L53.9743 45.4449V50.8664H52.5839V45.4449L45.992 38.1336H47.9661L53.2705 44.1087L58.6092 38.1336H60.5834Z" fill="white"/>
<path d="M70.378 50.8664L63.2368 39.4317V50.8664H61.8463V38.1336H64.1122L70.9444 49.0529L77.811 38.1336H80.0426V50.8664H78.6521V39.4317L71.4938 50.8664H70.378Z" fill="white"/>
<path d="M96.1287 41.7606C96.1287 42.486 96.0829 43.1287 95.9913 43.6887C95.8998 44.2487 95.7167 44.6814 95.442 44.9868C95.1788 45.2922 94.8469 45.5213 94.4464 45.674C94.0458 45.814 93.445 45.884 92.6439 45.884H84.6272V50.8664H83.2367V38.1336H92.7297C93.9771 38.1336 94.8526 38.3945 95.3562 38.9163C95.8712 39.4254 96.1287 40.3735 96.1287 41.7606ZM94.6867 41.837C94.6867 40.9462 94.5379 40.3226 94.2404 39.9662C93.9428 39.6099 93.3935 39.4317 92.5924 39.4317H84.6272V44.605H91.8027C92.9472 44.605 93.7139 44.4459 94.103 44.1278C94.4921 43.8096 94.6867 43.046 94.6867 41.837Z" fill="white"/>
<path d="M99.916 50.8664H98.5255V38.1336H99.916V50.8664Z" fill="white"/>
<path d="M102.793 50.8664H101.162L107.926 38.1336H109.78L116.595 50.8664H114.998L113.505 48.0029H104.252L102.793 50.8664ZM104.905 46.7239H112.853L108.853 39.2599L104.905 46.7239Z" fill="white"/>
<path d="M135.038 41.7606C135.038 42.486 134.992 43.1287 134.901 43.6887C134.809 44.2487 134.626 44.6814 134.351 44.9868C134.088 45.2922 133.756 45.5213 133.356 45.674C132.955 45.814 132.354 45.884 131.553 45.884H123.536V50.8664H122.146V38.1336H131.639C132.886 38.1336 133.762 38.3945 134.265 38.9163C134.78 39.4254 135.038 40.3735 135.038 41.7606ZM133.596 41.837C133.596 40.9462 133.447 40.3226 133.15 39.9662C132.852 39.6099 132.303 39.4317 131.502 39.4317H123.536V44.605H130.712C131.856 44.605 132.623 44.4459 133.012 44.1278C133.401 43.8096 133.596 43.046 133.596 41.837Z" fill="white"/>
<path d="M137.126 50.8664H135.495L142.258 38.1336H144.112L150.927 50.8664H149.331L147.838 48.0029H138.585L137.126 50.8664ZM139.237 46.7239H147.185L143.185 39.2599L139.237 46.7239Z" fill="white"/>
<path d="M165.388 41.9134C165.388 43.0587 165.233 43.8478 164.924 44.2805C164.627 44.7004 163.969 44.9931 162.95 45.1586C163.717 45.2731 164.278 45.4831 164.633 45.7885C164.999 46.0813 165.182 46.6221 165.182 47.4112V50.8664H163.809V48.0411C163.809 47.0994 163.626 46.4758 163.259 46.1703C162.905 45.8649 162.281 45.7122 161.388 45.7122H153.578V50.8664H152.187V38.1336H161.508C162.893 38.1336 163.883 38.3945 164.478 38.9163C165.085 39.4254 165.388 40.4244 165.388 41.9134ZM163.946 41.8179C163.946 40.8253 163.734 40.1826 163.311 39.8899C162.887 39.5844 162.189 39.4317 161.217 39.4317H153.578V44.4332H161.251C162.258 44.4332 162.956 44.2614 163.345 43.9178C163.746 43.5614 163.946 42.8615 163.946 41.8179Z" fill="white"/>
<path d="M179.065 38.1336H181.434L173.022 44.2805L182 50.8664H179.494L171.546 44.9104H169.52V50.8664H168.13V38.1336H169.52V43.6314H171.546L179.065 38.1336Z" fill="white"/>
<path d="M54.8776 63.2962C54.8776 63.9824 54.7829 64.4487 54.5935 64.695C54.4042 64.9413 54.0057 65.1217 53.398 65.2361C54.0688 65.2361 54.5265 65.3944 54.7711 65.7111C55.0236 66.0191 55.1499 66.5601 55.1499 67.3343C55.1499 68.2933 54.9487 68.9619 54.5462 69.3402C54.1437 69.7097 53.4848 69.8944 52.5694 69.8944H46V61.0924H52.676C53.3941 61.0924 53.9386 61.2639 54.3095 61.607C54.6882 61.9501 54.8776 62.5132 54.8776 63.2962ZM53.8833 63.3886C53.8833 62.8343 53.7729 62.4648 53.5519 62.2801C53.331 62.0865 52.9601 61.9897 52.4392 61.9897H46.9588V64.8666H52.2972C52.8575 64.8666 53.2599 64.7654 53.5046 64.5631C53.7571 64.3607 53.8833 63.9692 53.8833 63.3886ZM54.1556 67.4927C54.1556 67.1056 54.128 66.7933 54.0727 66.5557C54.0175 66.3094 53.8991 66.129 53.7176 66.0147C53.5361 65.9003 53.3428 65.8299 53.1376 65.8035C52.9403 65.7683 52.7233 65.7507 52.4866 65.7507H46.9588V69.0103H52.3801C52.9877 69.0103 53.4335 68.9091 53.7176 68.7067C54.0096 68.4956 54.1556 68.0909 54.1556 67.4927Z" fill="#F9F9F9"/>
<path d="M62.8878 69.8944L57.9636 61.9897V69.8944H57.0048V61.0924H58.5673L63.2784 68.6408L68.0131 61.0924H69.5519V69.8944H68.5931V61.9897L63.6571 69.8944H62.8878Z" fill="#F9F9F9"/>
<path d="M86.87 61.0924L83.1059 69.8944H81.7802L78.6908 62.1217L75.5658 69.8944H74.2638L70.4997 61.0924H71.5768L74.903 68.9179L78.0279 61.0924H79.3418L82.4549 68.9179L85.8047 61.0924H86.87Z" fill="#F9F9F9"/>
<path d="M97.978 62.2405C97.8123 62.1525 97.5124 62.0821 97.0784 62.0293C96.6444 61.9677 96.0841 61.9369 95.3976 61.9369H95.0661C94.5453 61.9369 94.0047 61.9633 93.4445 62.0161C92.8921 62.0689 92.4896 62.1569 92.2371 62.2801C91.9846 62.4032 91.8228 62.5704 91.7518 62.7815C91.6808 62.9927 91.6453 63.2478 91.6453 63.5469C91.6453 64.0836 91.7755 64.4487 92.0359 64.6422C92.3042 64.8358 92.6909 64.9326 93.1959 64.9326L94.06 64.9589L95.9184 64.9457C96.2419 64.9457 96.5299 64.9501 96.7825 64.9589C97.035 64.9677 97.4138 65.0029 97.9188 65.0645C98.4317 65.1261 98.8421 65.3284 99.1498 65.6716C99.4655 66.0059 99.6233 66.5821 99.6233 67.4003C99.6233 67.937 99.5483 68.3856 99.3984 68.7463C99.2485 69.0982 98.992 69.3666 98.629 69.5513C98.2739 69.7273 97.8399 69.8416 97.327 69.8944C96.8219 69.9472 96.2695 69.9736 95.6698 69.9736H95.0424C94.4506 69.9736 94.0047 69.9648 93.7049 69.9472C93.4129 69.9384 92.9592 69.89 92.3436 69.8021C91.736 69.7141 91.302 69.4853 91.0416 69.1158C90.7812 68.7375 90.651 68.0821 90.651 67.1496H91.6098V67.3343C91.6098 67.783 91.6453 68.1173 91.7163 68.3372C91.7952 68.5484 91.9885 68.7067 92.2963 68.8123C92.6119 68.9091 93.0302 68.9751 93.551 69.0103C94.0718 69.0367 94.5848 69.0499 95.0898 69.0499C95.9105 69.0499 96.601 69.0103 97.1612 68.9311C97.7294 68.8519 98.1161 68.7023 98.3213 68.4824C98.5264 68.2625 98.629 67.9018 98.629 67.4003C98.629 66.7669 98.4949 66.3666 98.2266 66.1994C97.9661 66.0235 97.5203 65.9355 96.889 65.9355L95.078 65.9091L92.9592 65.8431C92.2174 65.8431 91.6453 65.6848 91.2428 65.368C90.8404 65.0513 90.6391 64.5147 90.6391 63.7581C90.6391 63.1598 90.7259 62.6628 90.8995 62.2669C91.0732 61.8622 91.3651 61.5762 91.7755 61.4091C92.1937 61.2331 92.683 61.1232 93.2432 61.0792C93.8035 61.0264 94.4309 61 95.1253 61C95.7014 61 96.1157 61.0088 96.3682 61.0264C96.6286 61.0352 97.0468 61.0748 97.6229 61.1452C98.2068 61.2067 98.6527 61.4267 98.9604 61.805C99.2682 62.1833 99.4221 62.7595 99.4221 63.5337H98.4633C98.4633 63.1378 98.4199 62.8431 98.3331 62.6496C98.2542 62.456 98.1358 62.3196 97.978 62.2405Z" fill="#F9F9F9"/>
<path d="M109.072 64.893V65.7771H102.456V69.0103H109.404V69.8944H101.497V61.0924H109.321V61.9897H102.456V64.893H109.072Z" fill="#F9F9F9"/>
<path d="M120.402 63.7053C120.402 64.4971 120.295 65.0425 120.082 65.3416C119.877 65.632 119.423 65.8343 118.721 65.9487C119.25 66.0279 119.636 66.173 119.881 66.3842C120.133 66.5865 120.26 66.9604 120.26 67.5059V69.8944H119.313V67.9413C119.313 67.2903 119.186 66.8592 118.934 66.6481C118.689 66.437 118.259 66.3314 117.644 66.3314H112.258V69.8944H111.299V61.0924H117.727C118.681 61.0924 119.364 61.2727 119.774 61.6334C120.193 61.9853 120.402 62.676 120.402 63.7053ZM119.407 63.6393C119.407 62.9531 119.261 62.5088 118.969 62.3065C118.677 62.0953 118.196 61.9897 117.525 61.9897H112.258V65.4472H117.549C118.243 65.4472 118.725 65.3284 118.993 65.0909C119.269 64.8446 119.407 64.3607 119.407 63.6393Z" fill="#F9F9F9"/>
<path d="M130.969 61.0924L126.589 69.8944H125.275L120.955 61.0924H122.067L125.938 68.9443L129.868 61.0924H130.969Z" fill="#F9F9F9"/>
<path d="M132.787 69.8944H131.829V61.0924H132.787V69.8944Z" fill="#F9F9F9"/>
<path d="M141.566 69.9472L139.53 69.9868L138.654 70L136.902 69.9076C135.497 69.7493 134.795 68.9091 134.795 67.3871L134.748 65.7111C134.748 65.0425 134.752 64.5455 134.759 64.2199C134.775 63.8944 134.834 63.4413 134.937 62.8607C135.04 62.2801 135.288 61.8402 135.683 61.5411C136.077 61.2419 136.626 61.0924 137.328 61.0924C137.644 61.0572 137.94 61.0352 138.216 61.0264C138.5 61.0176 138.831 61.0132 139.21 61.0132H139.494L140.631 61C141.088 61 141.459 61.0132 141.743 61.0396C142.027 61.0572 142.398 61.1188 142.856 61.2243C143.321 61.3299 143.645 61.6114 143.827 62.0689C144.008 62.5264 144.099 63.1378 144.099 63.9032H143.152V63.824C143.152 63.4282 143.128 63.1026 143.081 62.8475C143.041 62.5924 142.939 62.4076 142.773 62.2933C142.615 62.1789 142.319 62.0909 141.885 62.0293C141.451 61.9677 140.852 61.9369 140.086 61.9369C139.802 61.9369 139.372 61.9501 138.796 61.9765C138.22 62.0029 137.786 62.0161 137.494 62.0161C136.815 62.0777 136.381 62.2141 136.192 62.4252C136.002 62.6276 135.884 62.9839 135.837 63.4941C135.789 64.0044 135.762 64.4707 135.754 64.893C135.746 65.3065 135.742 65.7023 135.742 66.0806C135.742 67.1979 135.841 67.9677 136.038 68.39C136.243 68.8123 136.78 69.0235 137.648 69.0235L139.494 69.0499L141.258 69.0235C141.984 69.0235 142.489 68.9267 142.773 68.7331C143.057 68.5396 143.199 68.0733 143.199 67.3343V66.978H144.193C144.193 68.1305 144.036 68.9135 143.72 69.327C143.404 69.7405 142.686 69.9472 141.566 69.9472Z" fill="#F9F9F9"/>
<path d="M153.669 64.893V65.7771H147.052V69.0103H154V69.8944H146.093V61.0924H153.917V61.9897H147.052V64.893H153.669Z" fill="#F9F9F9"/>
</g>
<defs>
<clipPath id="clip0_337_569">
<rect width="200" height="108" fill="white"/>
</clipPath>
</defs>
</svg>
