<svg width="330" height="150" viewBox="0 0 330 150" fill="none" xmlns="http://www.w3.org/2000/svg">
<g clip-path="url(#clip0_346_2373)">
<rect width="162.376" height="64.334" transform="translate(165 72.026) rotate(-15)" fill="#F08F3B"/>
<path d="M189.929 101.29L188.929 97.5576L198.892 88.2209L199.892 91.9532L192.997 98.3518L193.055 98.5682L202.225 100.662L203.226 104.394L189.929 101.29Z" fill="#D95B4F"/>
<path d="M211.261 95.3712L207.893 88.9687L206.422 83.4783L210.803 82.3043L212.275 87.7947L212.559 95.0233L211.261 95.3712ZM213.758 102.094C212.784 102.355 212.044 102.331 211.536 102.023C211.028 101.714 210.697 101.272 210.542 100.695L210.31 99.8291C210.161 99.2701 210.229 98.7302 210.514 98.2092C210.818 97.6834 211.447 97.2924 212.403 97.0364C213.359 96.7803 214.09 96.8065 214.598 97.1149C215.124 97.4185 215.462 97.8497 215.611 98.4087L215.843 99.2742C215.998 99.8511 215.932 100.4 215.647 100.921C215.361 101.442 214.732 101.833 213.758 102.094Z" fill="#D95B4F"/>
<path d="M230.354 97.6472C228.01 98.2752 226.06 98.102 224.504 97.1275C222.948 96.153 221.87 94.5478 221.271 92.312C220.967 91.1761 220.847 90.1163 220.912 89.1327C220.99 88.1261 221.233 87.23 221.641 86.4444C222.062 85.6358 222.644 84.9582 223.387 84.4114C224.142 83.8417 225.043 83.4168 226.089 83.1366C227.135 82.8564 228.118 82.7764 229.039 82.8968C229.956 82.9991 230.784 83.2795 231.526 83.7379C232.267 84.1963 232.909 84.8262 233.452 85.6276C234.009 86.4061 234.432 87.3363 234.722 88.4181L235.041 89.6081L225.494 92.1663L225.559 92.4097C225.8 93.3113 226.275 93.9666 226.984 94.3758C227.688 94.7669 228.581 94.8176 229.663 94.5277C230.492 94.3055 231.163 93.9614 231.676 93.4954C232.184 93.0114 232.585 92.45 232.877 91.8112L235.671 93.5844C235.309 94.3965 234.707 95.1764 233.863 95.9241C233.02 96.6718 231.85 97.2462 230.354 97.6472ZM226.884 85.9962C226.019 86.2281 225.397 86.6846 225.019 87.3656C224.654 88.0238 224.593 88.8036 224.834 89.7051L224.892 89.9215L230.518 88.4141L230.46 88.1978C230.213 87.2782 229.768 86.6246 229.123 86.237C228.496 85.8446 227.749 85.7643 226.884 85.9962Z" fill="#D95B4F"/>
<path d="M239.159 91.6063L242.378 90.7439L240.305 83.0087L237.087 83.8711L236.253 80.7608L243.475 78.8259L244.533 82.7746L244.722 82.7239C244.713 82.1852 244.754 81.6525 244.844 81.1257C244.948 80.5761 245.123 80.0751 245.369 79.6227C245.628 79.1474 245.982 78.7339 246.428 78.3823C246.875 78.0307 247.441 77.763 248.126 77.5794L249.452 77.2243L250.437 80.9026L247.462 81.6998C246.471 81.9655 245.802 82.4635 245.457 83.1938C245.106 83.906 245.045 84.6859 245.272 85.5333L246.381 89.6713L250.978 88.4394L251.812 91.5496L239.993 94.7165L239.159 91.6063Z" fill="#D95B4F"/>
<path d="M255.376 87.2609L258.595 86.3986L256.522 78.6634L253.304 79.5258L252.47 76.4155L259.692 74.4806L260.75 78.4293L260.939 78.3786C260.93 77.8399 260.971 77.3072 261.061 76.7804C261.165 76.2308 261.34 75.7297 261.586 75.2773C261.845 74.8021 262.199 74.3886 262.645 74.037C263.092 73.6853 263.658 73.4177 264.343 73.2341L265.669 72.879L266.654 76.5573L263.679 77.3544C262.688 77.6201 262.019 78.1181 261.674 78.8484C261.323 79.5607 261.262 80.3405 261.489 81.188L262.598 85.326L267.195 84.094L268.029 87.2043L256.21 90.3712L255.376 87.2609Z" fill="#D95B4F"/>
<path d="M278.626 84.7126C277.544 85.0025 276.527 85.1011 275.575 85.0085C274.617 84.8978 273.748 84.609 272.966 84.1422C272.201 83.6706 271.536 83.0275 270.97 82.2129C270.404 81.3984 269.969 80.4231 269.664 79.2872C269.36 78.1513 269.249 77.089 269.332 76.1006C269.415 75.1121 269.67 74.2226 270.096 73.4321C270.54 72.6367 271.151 71.9608 271.929 71.4044C272.703 70.8299 273.631 70.3977 274.713 70.1078C275.795 69.818 276.814 69.7284 277.771 69.839C278.724 69.9317 279.582 70.2138 280.346 70.6855C281.128 71.1523 281.802 71.793 282.369 72.6075C282.935 73.4221 283.37 74.3973 283.674 75.5333C283.979 76.6692 284.089 77.7314 284.006 78.7199C283.923 79.7084 283.66 80.6003 283.216 81.3957C282.79 82.1862 282.19 82.8687 281.417 83.4431C280.638 83.9996 279.708 84.4228 278.626 84.7126ZM277.829 81.7376C278.73 81.496 279.359 81.0281 279.714 80.3339C280.069 79.6397 280.109 78.7787 279.833 77.7509L279.239 75.5332C278.964 74.5054 278.499 73.7797 277.844 73.356C277.189 72.9324 276.411 72.8413 275.51 73.0829C274.608 73.3244 273.98 73.7923 273.625 74.4866C273.27 75.1808 273.23 76.0418 273.505 77.0695L274.1 79.2873C274.375 80.315 274.84 81.0407 275.495 81.4644C276.149 81.8881 276.927 81.9791 277.829 81.7376Z" fill="#D95B4F"/>
<path d="M287.81 78.5703L291.029 77.7079L288.956 69.9728L285.738 70.8351L284.904 67.7249L292.126 65.7899L293.184 69.7386L293.373 69.6879C293.364 69.1492 293.405 68.6165 293.495 68.0897C293.599 67.5401 293.774 67.0391 294.02 66.5867C294.279 66.1114 294.632 65.6979 295.079 65.3463C295.526 64.9947 296.092 64.727 296.777 64.5435L298.103 64.1884L299.088 67.8666L296.113 68.6638C295.122 68.9295 294.453 69.4275 294.108 70.1578C293.757 70.87 293.696 71.6499 293.923 72.4973L295.032 76.6353L299.629 75.4034L300.463 78.5136L288.644 81.6806L287.81 78.5703Z" fill="#D95B4F"/>
<path d="M304.115 73.3609L311.009 66.9623L310.952 66.746L301.781 64.6521L300.781 60.9198L314.078 64.0242L315.078 67.7565L305.115 77.0932L304.115 73.3609Z" fill="#D95B4F"/>
<rect width="124.855" height="83.7853" transform="translate(30.6851 11) rotate(15)" fill="#32808D"/>
<path d="M77.3687 33L131.136 47.4069L124.036 73.9024L118.809 72.5018L114.089 75.1812L111.341 70.5008L105.367 68.9001L70.2692 59.4956L77.3687 33Z" fill="#4AC6D7"/>
<path d="M69.6895 63.6049L12.0817 48.1689L4.46591 76.5914L10.0667 78.0921L13.0095 83.1116L18.0677 80.236L24.4686 81.9511L62.0737 92.0274L69.6895 63.6049Z" fill="#4AC6D7"/>
<path d="M152.716 19.0535L214.486 80.8231L130.107 103.432L152.716 19.0535Z" fill="#F2B94B"/>
<path d="M163.318 70.2125L157.941 60.1733L155.629 51.5449L162.756 49.6353L165.068 58.2637L165.43 69.6467L163.318 70.2125ZM167.278 80.7682C165.695 81.1926 164.493 81.1653 163.673 80.6865C162.853 80.2076 162.322 79.5148 162.079 78.6081L161.715 77.2479C161.479 76.3695 161.597 75.518 162.067 74.6934C162.567 73.8609 163.594 73.2364 165.149 72.8199C166.703 72.4034 167.89 72.4346 168.71 72.9134C169.559 73.3844 170.101 74.0591 170.337 74.9376L170.701 76.2977C170.944 77.2045 170.83 78.0702 170.36 78.8948C169.889 79.7194 168.862 80.3439 167.278 80.7682Z" fill="#2E2D2B"/>
</g>
<defs>
<clipPath id="clip0_346_2373">
<rect width="330" height="150" fill="white"/>
</clipPath>
</defs>
</svg>
