<svg width="36" height="26" viewBox="0 0 36 26" fill="none" xmlns="http://www.w3.org/2000/svg">
<path d="M0.752391 9.85885C0.703099 9.68259 0.641484 9.5504 0.567545 9.46193C0.493607 9.3738 0.413507 9.31172 0.326903 9.27566C0.240642 9.23961 0.143769 9.22158 0.0369687 9.22158H0L0 9.10107H3.61374V9.22158H3.293C3.04619 9.22158 2.86135 9.25563 2.73812 9.32373C2.61489 9.39183 2.55327 9.52636 2.55327 9.72665C2.55327 9.79108 2.56354 9.87086 2.58408 9.96734C2.60462 10.0635 2.62721 10.1559 2.65186 10.2441L3.26869 12.3248C3.33442 12.5334 3.40835 12.7838 3.49051 13.0765C3.57266 13.3693 3.65482 13.656 3.73731 13.9365C3.81947 14.2172 3.88519 14.4499 3.93482 14.6341H3.95947C3.98412 14.538 4.00671 14.4535 4.02725 14.3814C4.04778 14.3093 4.06832 14.2372 4.08886 14.1651C4.1094 14.093 4.13199 14.0169 4.15664 13.9365L5.52553 9.1615H6.31489L7.52357 12.7097C7.57287 12.8539 7.62216 13.0004 7.67145 13.1486C7.72074 13.2972 7.77004 13.4494 7.81933 13.6056C7.86862 13.7619 7.91586 13.9164 7.96104 14.0686C8.00623 14.2209 8.04936 14.3694 8.09044 14.5136H8.12741C8.16027 14.3774 8.20545 14.2052 8.26296 13.9965C8.32047 13.7882 8.38414 13.5656 8.45397 13.3292C8.5238 13.0929 8.58747 12.8742 8.64497 12.6736L9.29878 10.4123C9.33164 10.3082 9.35834 10.198 9.37888 10.0815C9.39942 9.96533 9.40969 9.8752 9.40969 9.81078C9.40969 9.60214 9.34191 9.45192 9.20636 9.35978C9.07081 9.26765 8.86713 9.22158 8.59568 9.22158H8.17636V9.10107H10.6061V9.22158H10.3962C10.2483 9.22158 10.1207 9.24562 10.0139 9.29369C9.90672 9.34176 9.81224 9.43389 9.73009 9.57042C9.64794 9.70696 9.56989 9.90725 9.49561 10.172L7.94153 15.5481H6.78214L5.19109 10.7852L3.8222 15.5481H2.49029L0.752391 9.85885Z" fill="white"/>
<path d="M18.4306 15.9278C17.8812 15.9278 17.4195 15.8064 17.0467 15.5645C16.6734 15.3225 16.3904 14.9469 16.1978 14.4378C16.0049 13.9289 15.9086 13.2762 15.9086 12.4799C15.9086 11.684 16.0049 11.0354 16.1978 10.5344C16.3904 10.0337 16.6693 9.66224 17.0344 9.41994C17.3994 9.17799 17.8443 9.05667 18.3691 9.05667C18.8612 9.05667 19.2672 9.19439 19.5871 9.46915C19.9071 9.74426 20.1119 10.169 20.2021 10.7435H20.2267C20.2267 10.4154 20.2246 10.1092 20.2205 9.82627C20.2164 9.54297 20.2144 9.29281 20.2144 9.07512C20.2144 8.85777 20.2144 8.68314 20.2144 8.55191V7.32095C20.2144 7.0995 20.1652 6.93513 20.0669 6.8285C19.9685 6.72188 19.8514 6.65216 19.7162 6.61902C19.581 6.58621 19.4557 6.5698 19.3409 6.5698H19.1934V6.44678L22.0846 6.44678V14.8813C22.0846 15.1113 22.1317 15.2836 22.2259 15.3984C22.3202 15.5136 22.437 15.5894 22.5766 15.6263C22.7159 15.6632 22.8429 15.6817 22.958 15.6817H23.1055V15.8047H20.2267V14.1179H20.2021C20.1201 14.7419 19.919 15.1995 19.5994 15.4907C19.2795 15.7822 18.8899 15.9278 18.4306 15.9278ZM18.9472 15.6202C19.3655 15.6202 19.6814 15.3413 19.8944 14.7829C20.1075 14.2248 20.2144 13.3999 20.2144 12.308C20.2144 11.6597 20.1652 11.1177 20.0669 10.6827C19.9685 10.2476 19.8248 9.91923 19.6363 9.69744C19.4475 9.47599 19.2098 9.36492 18.9226 9.36492C18.6764 9.36492 18.4692 9.47565 18.3012 9.69744C18.1328 9.91923 18.0079 10.2476 17.9259 10.6827C17.844 11.1177 17.803 11.6597 17.803 12.308C17.803 13.0387 17.846 13.65 17.9321 14.1425C18.0181 14.6349 18.1475 15.0044 18.3196 15.2508C18.4921 15.4968 18.7014 15.6202 18.9472 15.6202Z" fill="white"/>
<path d="M26.4853 15.9274C25.7638 15.9274 25.2265 15.7358 24.8743 15.3524C24.5217 14.969 24.3456 14.3566 24.3456 13.5145V10.1142C24.3456 9.85608 24.3148 9.66421 24.2534 9.53895C24.192 9.41404 24.1015 9.33077 23.9827 9.28913C23.8636 9.2475 23.71 9.22668 23.5216 9.22668H23.4847V9.10142H26.215V13.9271C26.215 14.2855 26.2457 14.5856 26.3072 14.8271C26.3686 15.069 26.4669 15.2501 26.6024 15.3708C26.7376 15.4919 26.9161 15.552 27.1373 15.552C27.4325 15.552 27.6619 15.452 27.8261 15.2518C27.9899 15.0516 28.1046 14.7727 28.1705 14.4142C28.236 14.0558 28.2688 13.6436 28.2688 13.1766V10.0386C28.2688 9.7971 28.2217 9.61979 28.1275 9.50738C28.0333 9.39496 27.9186 9.31967 27.7831 9.28254C27.6476 9.24507 27.5185 9.22633 27.3957 9.22633H27.3465V9.10107H30.1382V14.9142C30.1382 15.1311 30.1874 15.2955 30.2857 15.408C30.384 15.5204 30.5011 15.5936 30.6362 15.6269C30.7717 15.6602 30.8963 15.6769 31.0113 15.6769H31.0605V15.8018H28.2688V14.6266H28.2442C28.1705 14.9017 28.0718 15.1266 27.949 15.3018C27.8261 15.4767 27.6865 15.6082 27.5308 15.6956C27.3752 15.783 27.2069 15.8434 27.0267 15.8767C26.8461 15.9107 26.6656 15.9274 26.4853 15.9274Z" fill="white"/>
<path d="M12.7893 18.5822C11.6994 18.5822 10.8738 18.2873 10.3123 17.6968C9.75077 17.1067 9.46985 16.2824 9.46985 15.2239C9.46985 14.0759 9.74205 13.2109 10.2871 12.629C10.8319 12.047 11.5989 11.7559 12.5883 11.7559C13.5019 11.7559 14.2208 12.0043 14.7446 12.5009C15.2684 12.9974 15.5305 13.7831 15.5305 14.7447C15.5305 14.8812 15.4163 14.9921 15.2757 14.9921H11.711C11.5424 14.9921 11.4059 15.1266 11.4087 15.2904C11.421 15.977 11.4768 16.5431 11.5759 16.9888C11.689 17.4979 11.8694 17.868 12.1165 18.1002C12.3635 18.3324 12.6842 18.4483 13.0782 18.4483C13.3717 18.4483 13.645 18.3995 13.8767 18.2649C14.4689 17.9212 14.1293 17.3321 14.1293 16.9691C14.1293 16.6407 14.3471 16.2658 14.8192 16.2658C15.2942 16.2658 15.5298 16.5773 15.5298 16.9691C15.5298 17.8358 14.5303 18.2364 14.1656 18.3747C13.8016 18.5127 13.3427 18.5822 12.7893 18.5822ZM13.3159 14.8697C13.4837 14.8697 13.6198 14.7358 13.6177 14.5728C13.6108 13.9702 13.5818 13.4807 13.5315 13.1052C13.4729 12.6696 13.3682 12.3561 13.2171 12.165C13.0664 11.9738 12.8566 11.8779 12.5883 11.8779C12.3199 11.8779 12.098 11.9738 11.9217 12.165C11.7455 12.3565 11.6178 12.67 11.5382 13.1052C11.4695 13.4801 11.4272 13.9681 11.4119 14.5691C11.4077 14.7338 11.5441 14.8701 11.7137 14.8701H13.3159V14.8697Z" fill="white"/>
<path d="M33.3333 3.1494L32.1186 3.1494C31.0521 3.1494 30.1874 2.28375 30.1874 1.21601V0L30.0397 0V1.21601C30.0397 2.28375 29.175 3.1494 28.1085 3.1494H26.8939V3.29732H28.1085C29.175 3.29732 30.0397 4.16297 30.0397 5.23071V6.44706H30.1874V5.23071C30.1874 4.16297 31.0521 3.29732 32.1186 3.29732L33.3333 3.29732V3.1494Z" fill="white"/>
<path d="M31.5818 19.3411L31.4393 19.1463C34.2562 17.0349 35.7453 14.4983 35.7453 11.8099C35.7453 9.24392 34.3763 6.79961 31.7867 4.74136L31.9344 4.55078C34.584 6.65659 35.9847 9.16664 35.9847 11.8099C35.9844 14.578 34.4619 17.1821 31.5818 19.3411Z" fill="white"/>
<path d="M1.96586 20.8797L2.37509 21.1021C2.41632 20.9518 2.34119 20.8312 2.21608 20.7631C2.10984 20.7055 2.00884 20.7009 1.90016 20.7164L1.89247 20.4996C2.03156 20.4529 2.20594 20.4919 2.32267 20.5551C2.63789 20.7262 2.73434 21.0234 2.57533 21.3196C2.4303 21.5891 2.1343 21.7072 1.82293 21.5382C1.64505 21.4415 1.55174 21.3245 1.51434 21.1924L1.709 21.0962C1.73591 21.1692 1.8065 21.2638 1.91938 21.3249C2.05847 21.4004 2.19441 21.3839 2.29191 21.2613L1.88059 21.0378L1.96586 20.8797Z" fill="white"/>
<path d="M2.80681 20.8579L3.78736 21.2425L3.65699 21.4702L3.30563 21.3323L2.92605 21.9956L2.651 21.8877L3.03058 21.2244L2.67684 21.0856L2.80681 20.8579Z" fill="white"/>
<path d="M4.56209 21.6688C4.87981 21.8029 4.99635 22.1105 4.87773 22.4062C4.75945 22.7016 4.46566 22.8365 4.14794 22.7023C3.82987 22.5682 3.71367 22.2606 3.83229 21.9652C3.95057 21.6691 4.24402 21.5346 4.56209 21.6688ZM4.24159 22.4678C4.39317 22.5319 4.5489 22.4667 4.61724 22.2959C4.68383 22.1297 4.61654 21.9681 4.46705 21.9047C4.32206 21.8435 4.16285 21.9044 4.09452 22.0752C4.02862 22.2396 4.09209 22.4048 4.24159 22.4678Z" fill="white"/>
<path d="M6.03105 22.7295L5.64109 22.6052L5.5299 22.9371L5.30219 22.8648L5.59317 21.9961L5.82088 22.0685L5.71094 22.3967L6.1009 22.521L6.21084 22.1927L6.43855 22.2651L6.14757 23.1337L5.91985 23.0614L6.03105 22.7295Z" fill="white"/>
<path d="M7.70973 23.8448C7.57768 23.9034 7.41373 23.9045 7.26387 23.8645C6.9189 23.7729 6.74976 23.4957 6.84286 23.1698C6.92892 22.8693 7.21194 22.6854 7.56396 22.7788C7.83993 22.8521 8.01612 23.104 7.93341 23.393C7.91486 23.4574 7.89891 23.4949 7.87591 23.5307L7.10289 23.325C7.08211 23.4874 7.18635 23.6065 7.35512 23.6513C7.48606 23.686 7.60847 23.6691 7.68414 23.6377L7.70973 23.8448ZM7.14406 23.1465L7.67004 23.2864C7.70825 23.1608 7.6463 23.0381 7.4894 22.9963C7.32508 22.9523 7.2112 23.0185 7.14406 23.1465Z" fill="white"/>
<path d="M8.57003 23.1338L8.83399 23.1782L9.1233 23.6291L9.59118 23.3051L9.84773 23.3482L9.61028 24.2714L9.31786 24.2223L9.46329 23.6581L9.03674 23.9459L9.02933 23.9446L8.77005 23.5416L8.62501 24.1058L8.33258 24.0567L8.57003 23.1338Z" fill="white"/>
<path d="M10.0053 23.1815C10.0854 23.1433 10.2057 23.1202 10.3161 23.1426C10.5653 23.1927 10.6323 23.367 10.5958 23.6408L10.5117 24.2714L10.3246 24.2339L10.3406 24.1144C10.2853 24.1838 10.1881 24.221 10.0737 24.1978C9.92033 24.167 9.82538 24.0274 9.8519 23.8269C9.88241 23.599 10.0332 23.5184 10.2037 23.5524C10.2787 23.5675 10.3494 23.6124 10.3857 23.6576C10.4142 23.4862 10.3894 23.3841 10.2639 23.3589C10.1667 23.3393 10.1 23.3638 10.0335 23.3859L10.0053 23.1815ZM10.3503 23.9272L10.3643 23.8213C10.3315 23.7792 10.285 23.7533 10.2231 23.741C10.1519 23.7267 10.0829 23.7554 10.0712 23.8427C10.0609 23.9209 10.1074 23.9752 10.1747 23.9889C10.2645 24.0068 10.3178 23.9678 10.3503 23.9272Z" fill="white"/>
<path d="M11.1083 23.5127L11.7413 23.6102L11.7115 23.8744L11.3195 23.814L11.2249 24.6503L10.9838 24.6133L11.1083 23.5127Z" fill="white"/>
<path d="M11.7416 24.5517L11.8441 23.5127L12.1144 23.5385L12.0495 24.1963L12.6081 23.5855L12.878 23.6113L12.7755 24.6503L12.5052 24.6246L12.5705 23.9667L12.0119 24.5775L11.7416 24.5517Z" fill="white"/>
<path d="M14.393 23.5361L14.3234 24.6503L14.0197 24.6336L14.0407 24.2992L13.8718 24.2899L13.6054 24.6108L13.2567 24.5918L13.5982 24.2131C13.4976 24.1728 13.3771 24.0617 13.3887 23.8787C13.4022 23.6632 13.5771 23.4914 14.005 23.5148L14.393 23.5361ZM13.8948 24.0804L14.0535 24.0889L14.0737 23.7668L13.9389 23.7594C13.791 23.7512 13.7171 23.8317 13.7119 23.916C13.7059 24.0077 13.8002 24.0748 13.8948 24.0804Z" fill="white"/>
<path d="M14.5765 24.2717C14.7015 24.2765 14.7767 24.4063 14.7718 24.5816C14.7652 24.8108 14.6496 24.9739 14.4647 25.0291L14.3972 24.8806C14.4557 24.8587 14.5076 24.8254 14.5427 24.7431C14.565 24.6923 14.5755 24.6469 14.5671 24.6197C14.5525 24.6408 14.525 24.6396 14.5065 24.6392C14.4463 24.6368 14.3902 24.5617 14.3934 24.4619C14.3958 24.3487 14.4606 24.2672 14.5765 24.2717Z" fill="white"/>
<path d="M15.4331 23.9842L15.9663 23.9799C15.9246 23.8237 15.7828 23.7523 15.6202 23.7537C15.4816 23.7548 15.3783 23.8016 15.2777 23.8697L15.1508 23.678C15.2641 23.566 15.4608 23.5138 15.6126 23.5127C16.0231 23.5095 16.2835 23.7291 16.2871 24.0763C16.2903 24.3919 16.0584 24.647 15.6534 24.6503C15.4219 24.6521 15.2637 24.5931 15.1536 24.4927L15.2958 24.3082C15.3626 24.3608 15.486 24.4104 15.6322 24.409C15.8132 24.4075 15.9406 24.3245 15.9707 24.1651L15.4351 24.1694L15.4331 23.9842Z" fill="white"/>
<path d="M16.287 23.5499L17.4119 23.5127L17.4234 23.7974L17.02 23.8108L17.0538 24.6399L16.7383 24.6503L16.7045 23.8212L16.2982 23.8346L16.287 23.5499Z" fill="white"/>
<path d="M17.9527 23.5146C18.2972 23.4893 18.5356 23.716 18.5576 24.0401C18.5796 24.3646 18.3739 24.6231 18.0294 24.6485C17.6846 24.6735 17.4464 24.4471 17.4245 24.1227C17.4025 23.7985 17.6082 23.5396 17.9527 23.5146ZM18.0123 24.3914C18.1765 24.3794 18.2884 24.2479 18.2759 24.0607C18.2633 23.8782 18.1322 23.762 17.9705 23.7739C17.8132 23.7851 17.6964 23.9144 17.709 24.102C17.7212 24.2824 17.8502 24.4029 18.0123 24.3914Z" fill="white"/>
<path d="M19.3174 23.6566L19.5278 23.6268L19.887 23.9982L20.1311 23.5415L20.3357 23.5127L20.4538 24.5065L20.221 24.5393L20.1489 23.932L19.9238 24.3412L19.9177 24.3422L19.5966 24.0103L19.6686 24.6176L19.4358 24.6503L19.3174 23.6566Z" fill="white"/>
<path d="M20.8323 23.3103C20.897 23.2404 21.0033 23.1686 21.1119 23.145C21.3571 23.0915 21.4653 23.2321 21.503 23.5122L21.5899 24.1568L21.4054 24.1973L21.3891 24.075C21.3557 24.1646 21.2747 24.2403 21.1622 24.2651C21.0109 24.2981 20.886 24.2019 20.8585 23.9975C20.827 23.7647 20.9468 23.6245 21.1147 23.5879C21.1883 23.5718 21.2662 23.5861 21.3118 23.6152C21.2938 23.4376 21.2437 23.3491 21.1203 23.3763C21.0244 23.3971 20.9687 23.4484 20.9125 23.4968L20.8323 23.3103ZM21.3489 23.8899L21.3343 23.7816C21.2927 23.7543 21.2423 23.7482 21.1816 23.7619C21.1116 23.7773 21.0545 23.8332 21.0666 23.9226C21.0773 24.0025 21.1349 24.0359 21.2013 24.0215C21.2901 24.0018 21.3295 23.9426 21.3489 23.8899Z" fill="white"/>
<path d="M21.9686 23.2814L22.2243 23.23L22.2448 23.3206C22.2926 23.2448 22.3993 23.1704 22.5285 23.1445C22.8043 23.0888 23.0278 23.2549 23.0907 23.5352C23.1556 23.8239 22.9967 24.0894 22.6768 24.1541C22.5879 24.1722 22.4977 24.1748 22.4328 24.1548L22.5326 24.5992L22.2769 24.6507L21.9686 23.2814ZM22.2937 23.5375L22.3798 23.9207C22.4584 23.9489 22.5189 23.9499 22.6033 23.9327C22.7814 23.8968 22.8562 23.754 22.8203 23.5961C22.7861 23.4446 22.6682 23.3536 22.4991 23.3879C22.4126 23.4054 22.3412 23.4595 22.2937 23.5375Z" fill="white"/>
<path d="M23.1052 22.9785L23.337 22.918L23.5719 23.8315L23.3401 23.892L23.1052 22.9785ZM23.727 23.2799L24.2416 23.6569L23.939 23.7357L23.4614 23.3685L23.6718 22.8307L23.9644 22.7544L23.727 23.2799Z" fill="white"/>
<path d="M25.3779 23.232C25.2992 23.3508 25.1607 23.4371 25.0118 23.4811C24.6692 23.5825 24.3726 23.4345 24.2705 23.1082C24.1762 22.8071 24.3132 22.5032 24.6629 22.3996C24.9369 22.3183 25.2257 22.4411 25.3166 22.7306C25.3367 22.7948 25.3441 22.8353 25.3445 22.8779L24.5768 23.1053C24.6495 23.2544 24.8036 23.3017 24.9714 23.2519C25.1013 23.2136 25.1956 23.1353 25.242 23.0688L25.3779 23.232ZM24.5118 22.9309L25.0337 22.7764C24.9966 22.6494 24.8756 22.5772 24.7201 22.6234C24.5571 22.6718 24.4981 22.7873 24.5118 22.9309Z" fill="white"/>
<path d="M25.3781 22.2986L26.4124 21.9961L26.5145 22.2374L26.1436 22.346L26.4409 23.0489L26.1508 23.1337L25.8535 22.4309L25.4802 22.5402L25.3781 22.2986Z" fill="white"/>
<path d="M26.8485 22.7544L26.5139 21.9409L26.7234 21.8561L26.9352 22.3714L27.1062 21.7015L27.3157 21.6167L27.6503 22.4301L27.4408 22.5149L27.229 21.9996L27.0583 22.6696L26.8485 22.7544Z" fill="white"/>
<path d="M28.7006 21.4367L28.2361 21.6009L28.4306 21.8997L28.1595 21.9956L27.6506 21.2138L27.9218 21.1179L28.1139 21.4133L28.5784 21.2491L28.3862 20.9538L28.6573 20.8579L29.1658 21.6397L28.8947 21.7355L28.7006 21.4367Z" fill="white"/>
<path d="M28.7868 20.7851L29.4188 20.479L29.5429 20.6786L29.1518 20.8682L29.5444 21.5L29.3039 21.6167L28.7868 20.7851Z" fill="white"/>
</svg>
