<svg width="215" height="214" viewBox="0 0 215 214" fill="none" xmlns="http://www.w3.org/2000/svg">
<path d="M210.209 118.376C210.742 113.937 208.538 109.896 204.844 109.453C200.436 108.923 198.782 113.892 197.712 117.268C197.129 119.102 196.512 120.72 195.529 120.602C194.427 120.469 194.159 118.926 194.377 117.11C194.599 115.263 195.533 113.773 196.796 113.321L197.425 108.078L196.174 107.928C192.574 108.977 190.249 112.233 189.745 116.433C189.169 121.228 191.109 125.208 195.04 125.68C199.3 126.191 200.954 121.223 202.09 117.794C202.655 116.109 203.343 114.409 204.356 114.53C205.338 114.648 205.78 116.001 205.569 117.758C205.38 119.337 204.439 120.886 203.216 121.253L202.587 126.495L203.838 126.645C207.074 125.613 209.698 122.635 210.209 118.376Z" fill="#D9D9D9"/>
<path d="M190.252 141.003C188.783 144.745 190.128 148.463 193.898 149.943C197.668 151.422 201.155 149.6 202.623 145.858L206.481 136.028L188.329 128.904L186.465 133.652L192.246 135.92L190.252 141.003ZM198.211 144.126C197.794 145.188 196.878 145.634 195.761 145.195C194.616 144.746 194.248 143.796 194.664 142.735L196.659 137.652L200.205 139.044L198.211 144.126Z" fill="#D9D9D9"/>
<path d="M179.282 149.311L176.528 153.603L192.942 164.132L195.695 159.839L179.282 149.311Z" fill="#D9D9D9"/>
<path d="M174.566 183.944L175.365 184.715L179.03 180.914L178.719 169.654L184.506 175.234L188.047 171.563L174.01 158.027L170.47 161.699L174.27 165.364L174.314 168.906L164.576 167.81L160.641 171.891L161.44 172.662L174.022 173.876L174.411 174.251L174.566 183.944Z" fill="#D9D9D9"/>
<path d="M161.643 195.223C165.466 192.907 167.291 188.681 165.363 185.499C163.063 181.701 158.131 183.461 154.813 184.7C153.01 185.371 151.355 185.882 150.842 185.035C150.267 184.086 151.317 182.924 152.882 181.976C154.473 181.012 156.222 180.83 157.356 181.545L161.873 178.81L161.22 177.732C158.175 175.543 154.178 175.719 150.56 177.911C146.429 180.413 144.49 184.393 146.542 187.78C148.765 191.45 153.697 189.69 157.097 188.472C158.772 187.878 160.535 187.372 161.063 188.244C161.576 189.091 160.784 190.272 159.27 191.189C157.91 192.013 156.11 192.226 155.068 191.49L150.551 194.226L151.204 195.303C154.011 197.216 157.974 197.446 161.643 195.223Z" fill="#D9D9D9"/>
<path d="M132.548 187.225L121.468 189.338C117.519 190.092 114.947 192.781 115.594 196.17C115.925 197.909 117.173 199.167 118.832 199.858L118.888 200.153C117.801 201.338 117.253 202.786 117.556 204.378C118.186 207.678 121.52 209.149 125.469 208.396L125.475 208.426L136.201 206.38L132.548 187.225ZM122.895 196.823C121.776 197.037 120.932 196.618 120.747 195.645C120.555 194.643 121.18 193.913 122.3 193.7L128.37 192.542L128.966 195.665L122.895 196.823ZM124.643 204.064C123.523 204.278 122.685 203.888 122.511 202.974C122.331 202.031 122.961 201.331 124.081 201.117L129.798 200.027L130.36 202.974L124.643 204.064Z" fill="#D9D9D9"/>
<path d="M109.168 190.571L104.068 190.512L103.843 210.011L108.942 210.07L109.168 190.571Z" fill="#D9D9D9"/>
<path d="M97.9856 205.723L91.5122 204.437L94.4468 189.666L89.4445 188.672L86.5099 203.443L80.0364 202.157L79.1713 206.512L97.1205 210.078L97.9856 205.723Z" fill="#D9D9D9"/>
<path d="M79.7081 186.52L75.1126 184.308L72.1854 190.391L69.0496 188.881L67.7598 180.77L62.7048 178.337L62.2235 179.337L63.7114 187.244L63.6334 187.407C61.0935 187.15 58.7761 188.298 57.5922 190.758C55.9659 194.137 57.6274 197.534 61.2497 199.277L71.2516 204.091L79.7081 186.52ZM63.3053 195.006C62.278 194.512 61.8624 193.646 62.3048 192.727C62.7601 191.781 63.6961 191.565 64.7233 192.06L70.1298 194.662L68.7117 197.608L63.3053 195.006Z" fill="#D9D9D9"/>
<path d="M59.2281 175.502L55.1705 172.412L43.3571 187.927L47.4147 191.016L59.2281 175.502Z" fill="#D9D9D9"/>
<path d="M42.4041 159.883L38.8141 155.849L37.9849 156.587L36.1927 167.299L35.9686 167.498L25.1764 168.187L24.3472 168.925L27.8375 172.847L35.112 172.357L35.2516 172.514L33.8408 179.593L37.4309 183.626L38.2601 182.888L40.0175 172.409L40.2416 172.209L51.268 171.512L52.0972 170.774L48.6069 166.853L41.0534 167.39L40.9537 167.278L42.4041 159.883ZM35.2814 172.367L35.2615 172.344L35.2839 172.324L35.2814 172.367Z" fill="#D9D9D9"/>
<path d="M11.3387 146.601C13.0027 150.75 16.8768 153.236 20.3295 151.851C24.4503 150.198 23.5151 145.046 22.8322 141.571C22.4627 139.683 22.2271 137.967 23.146 137.598C24.1762 137.185 25.1522 138.41 25.8335 140.108C26.5259 141.835 26.4217 143.59 25.5313 144.593L27.4969 149.494L28.6664 149.025C31.3212 146.376 31.7965 142.403 30.2218 138.477C28.4237 133.995 24.8114 131.435 21.136 132.91C17.1544 134.507 18.0896 139.659 18.7392 143.212C19.0528 144.961 19.2662 146.783 18.3195 147.163C17.4007 147.531 16.3636 146.557 15.7046 144.914C15.1127 143.439 15.1946 141.628 16.0906 140.719L14.1251 135.819L12.9556 136.288C10.6126 138.747 9.74165 142.619 11.3387 146.601Z" fill="#D9D9D9"/>
<path d="M18.009 117.288C17.4992 113.301 14.5337 110.686 10.5164 111.2C6.49906 111.713 4.31654 114.986 4.82634 118.974L6.16551 129.449L25.5081 126.976L24.8613 121.917L18.7015 122.704L18.009 117.288ZM9.52807 118.373C9.3835 117.242 9.97281 116.411 11.1631 116.258C12.3832 116.102 13.1627 116.759 13.3073 117.89L13.9997 123.306L10.2205 123.789L9.52807 118.373Z" fill="#D9D9D9"/>
<path d="M23.6207 104.441L23.9746 99.3535L4.52158 98.0005L4.16772 103.088L23.6207 104.441Z" fill="#D9D9D9"/>
<path d="M11.104 71.9163L10.0337 71.6219L8.63336 76.7128L14.2929 86.4526L6.54079 84.3203L5.18817 89.2377L23.9898 94.4094L25.3425 89.492L20.2515 88.0917L18.5191 85.0015L27.5942 81.3061L29.098 75.8391L28.0277 75.5447L16.3976 80.4976L15.877 80.3544L11.104 71.9163Z" fill="#D9D9D9"/>
<path d="M17.0562 55.7555C14.7968 59.6124 15.2052 64.1977 18.415 66.078C22.2461 68.3222 25.7451 64.4264 28.0735 61.7573C29.3394 60.3084 30.551 59.0711 31.4052 59.5715C32.363 60.1326 31.9931 61.6543 31.0681 63.2333C30.128 64.8383 28.6772 65.8311 27.3385 65.7423L24.6697 70.2982L25.7569 70.935C29.4768 71.4104 32.9076 69.3523 35.0457 65.7024C37.487 61.5348 37.2964 57.1119 33.8795 55.1103C30.1778 52.9419 26.6789 56.8377 24.2683 59.5283C23.0782 60.8477 21.7694 62.1323 20.8893 61.6167C20.0351 61.1163 20.1694 59.7 21.064 58.1727C21.8677 56.8008 23.3488 55.7562 24.6161 55.9075L27.2849 51.3516L26.1977 50.7147C22.8188 50.3695 19.2246 52.0538 17.0562 55.7555Z" fill="#D9D9D9"/>
<path d="M46.2067 49.0497L54.9001 41.862C57.9983 39.3004 58.9571 35.705 56.7587 33.0461C55.6309 31.682 53.9312 31.1799 52.1443 31.3727L51.9531 31.1415C52.3356 29.5796 52.1188 28.0462 51.0865 26.7977C48.9455 24.2082 45.3144 24.5245 42.2162 27.086L42.1971 27.0629L33.7811 34.0213L46.2067 49.0497ZM50.0446 35.9893C50.9232 35.2629 51.8644 35.2243 52.4952 35.9873C53.1452 36.7734 52.9495 37.7137 52.0709 38.4401L47.308 42.3781L45.2817 39.9273L50.0446 35.9893ZM45.0263 30.4848C45.9049 29.7584 46.827 29.6966 47.4196 30.4134C48.0313 31.1532 47.8165 32.0704 46.9379 32.7969L42.4525 36.5054L40.5409 34.1934L45.0263 30.4848Z" fill="#D9D9D9"/>
<path d="M64.9791 34.8424L69.4807 32.4453L60.3152 15.2335L55.8137 17.6307L64.9791 34.8424Z" fill="#D9D9D9"/>
<path d="M67.4141 16.1746L73.707 14.1847L78.2476 28.5439L83.1103 27.0062L78.5697 12.647L84.8625 10.6571L83.5239 6.4237L66.0754 11.9412L67.4141 16.1746Z" fill="#D9D9D9"/>
<path d="M92.4607 24.1715L97.5532 23.8962L97.1888 17.156L100.664 16.9681L105.701 23.4556L111.303 23.1527L111.243 22.0443L106.13 15.8313L106.121 15.6515C108.47 14.6532 109.948 12.5304 109.8 9.80433C109.598 6.0598 106.506 3.88358 102.492 4.10064L91.4078 4.69998L92.4607 24.1715ZM102.748 8.83373C103.886 8.77217 104.667 9.3308 104.722 10.3493C104.779 11.3978 104.062 12.0374 102.924 12.099L96.9328 12.4229L96.7563 9.15769L102.748 8.83373Z" fill="#D9D9D9"/>
<path d="M116.483 23.9471L121.525 24.7102L124.443 5.42971L119.4 4.66664L116.483 23.9471Z" fill="#D9D9D9"/>
<path d="M138.473 29.4914L143.556 31.3123L143.931 30.2673L140.372 20.0064L140.473 19.724L149.616 13.9488L149.991 12.9038L145.048 11.1335L138.898 15.0488L138.7 14.978L136.547 8.08854L131.463 6.26765L131.089 7.31264L134.567 17.3535L134.466 17.6359L125.121 23.53L124.747 24.575L129.689 26.3453L136.062 22.2546L136.203 22.3052L138.473 29.4914ZM138.744 15.1213L138.772 15.1315L138.762 15.1597L138.744 15.1213Z" fill="#D9D9D9"/>
<path d="M172.152 26.2568C168.707 23.4085 164.116 23.0767 161.745 25.9437C158.916 29.3655 162.201 33.4437 164.462 36.1698C165.689 37.6516 166.716 39.0458 166.086 39.8088C165.378 40.6642 163.935 40.0552 162.525 38.8891C161.092 37.7039 160.344 36.1127 160.646 34.8056L156.577 31.4411L155.774 32.4122C154.709 36.0078 156.19 39.7241 159.451 42.4195C163.173 45.4972 167.569 46.018 170.093 42.9661C172.826 39.6598 169.542 35.5817 167.272 32.7711C166.161 31.3849 165.102 29.8871 165.752 29.101C166.383 28.338 167.76 28.6976 169.124 29.8254C170.349 30.8386 171.143 32.468 170.79 33.6947L174.86 37.0592L175.663 36.0881C176.545 32.8082 175.458 28.9905 172.152 26.2568Z" fill="#D9D9D9"/>
<path d="M180.4 55.1455C182.765 58.3964 186.622 59.2628 189.898 56.8804C193.173 54.498 193.512 50.5785 191.147 47.3277L184.935 38.788L169.166 50.2589L172.166 54.3831L177.188 50.7301L180.4 55.1455ZM187.314 50.116C187.985 51.0379 187.868 52.0503 186.897 52.7562C185.903 53.4797 184.904 53.2791 184.233 52.3572L181.021 47.9418L184.102 45.7006L187.314 50.116Z" fill="#D9D9D9"/>
<path d="M181.578 68.8947L183.721 73.5225L201.415 65.3282L199.272 60.7004L181.578 68.8947Z" fill="#D9D9D9"/>
<path d="M208.3 91.8202L209.381 91.5666L208.175 86.4262L198.546 80.5811L206.373 78.7448L205.208 73.7796L186.224 78.2334L187.388 83.1986L192.529 81.9926L195.529 83.8773L189.328 91.4642L190.623 96.9843L191.703 96.7308L199.546 86.8174L200.072 86.694L208.3 91.8202Z" fill="#D9D9D9"/>
</svg>
