<svg width="224" height="159" viewBox="0 0 224 159" fill="none" xmlns="http://www.w3.org/2000/svg">
<path d="M15.4637 112.075C16.5544 112.92 17.3989 113.95 17.9969 115.165C18.595 116.38 18.8942 117.727 18.8942 119.206V121.424C18.8942 124.452 18.0321 126.873 16.3082 128.687C14.5841 130.5 12.3146 131.407 9.49982 131.407H2.7972C1.98786 131.407 1.31949 131.143 0.79176 130.615C0.263703 130.086 0 129.417 0 128.607V103.466C0 100.508 0.83571 98.1311 2.50681 96.3352C4.17823 94.5393 6.36826 93.6414 9.07757 93.6414C11.822 93.6414 14.0388 94.5393 15.7274 96.3352C17.4164 98.1311 18.2609 100.508 18.2609 103.466V105.579C18.2961 106.917 18.0672 108.149 17.5747 109.276C17.0821 110.403 16.3786 111.336 15.4637 112.075V112.075ZM6.59713 109.593H9.13031C9.93965 109.593 10.5641 109.302 11.0039 108.721C11.4437 108.14 11.6638 107.339 11.6638 106.318V102.885C11.6638 101.934 11.4262 101.177 10.9512 100.614C10.4762 100.05 9.83417 99.7683 9.02483 99.7683C8.25065 99.7683 7.65259 100.05 7.23034 100.614C6.80809 101.177 6.59713 101.934 6.59713 102.885V109.593ZM12.1915 118.994C12.1915 117.868 11.9363 116.996 11.4262 116.38C10.916 115.764 10.2213 115.456 9.3416 115.456H6.59713V125.386H9.3416C10.2564 125.386 10.96 125.086 11.4525 124.488C11.9451 123.889 12.1915 123.044 12.1915 121.952V118.994V118.994ZM30.9802 131.776C28.0951 131.776 25.7553 130.852 23.9608 129.003C22.1663 127.155 21.2691 124.716 21.2691 121.688V103.73C21.2691 100.701 22.1663 98.2631 23.9608 96.4144C25.7553 94.5657 28.0951 93.6414 30.9802 93.6414C33.8653 93.6414 36.1963 94.5569 37.9732 96.388C39.7498 98.2191 40.6383 100.614 40.6383 103.571V121.847C40.6383 124.804 39.7498 127.199 37.9732 129.03C36.1963 130.861 33.8653 131.776 30.9802 131.776V131.776ZM30.9802 125.597C31.895 125.597 32.6249 125.306 33.1702 124.725C33.7159 124.144 33.9884 123.343 33.9884 122.322V103.096C33.9884 102.075 33.7159 101.265 33.1702 100.666C32.6249 100.068 31.895 99.7683 30.9802 99.7683C30.0654 99.7683 29.3264 100.077 28.7635 100.693C28.2006 101.309 27.919 102.163 27.919 103.255V122.164C27.919 123.22 28.1918 124.056 28.7371 124.672C29.2824 125.288 30.0302 125.597 30.9802 125.597V125.597ZM45.8632 131.195C45.2299 131.195 44.9132 130.878 44.9132 130.245V103.571C44.9132 100.614 45.7753 98.2103 47.4991 96.3616C49.2232 94.513 51.5103 93.5886 54.3602 93.5886C57.2102 93.5886 59.506 94.513 61.2478 96.3616C62.9892 98.2103 63.8601 100.614 63.8601 103.571V130.245C63.8601 130.878 63.5433 131.195 62.9101 131.195H58.1602C57.527 131.195 57.2102 130.878 57.2102 130.245V103.096C57.2102 102.075 56.955 101.265 56.4448 100.666C55.9347 100.068 55.2399 99.7683 54.3602 99.7683C53.4806 99.7683 52.7858 100.068 52.2757 100.666C51.7652 101.265 51.5103 102.075 51.5103 103.096V130.245C51.5103 130.878 51.2111 131.195 50.6131 131.195H45.8632V131.195ZM69.4545 131.195C68.8213 131.195 68.5045 130.878 68.5045 130.245V103.624C68.5045 100.631 69.3754 98.2191 71.1168 96.388C72.8585 94.5569 75.1368 93.6414 77.9516 93.6414C80.8015 93.6414 83.0974 94.5569 84.8391 96.388C86.5805 98.2191 87.4514 100.631 87.4514 103.624V130.245C87.4514 130.878 87.1346 131.195 86.5014 131.195H81.7515C81.1183 131.195 80.8015 130.878 80.8015 130.245V119.84H75.1016V130.245C75.1016 130.878 74.8024 131.195 74.2044 131.195H69.4545ZM80.8015 113.765V103.149C80.8015 102.128 80.5463 101.318 80.0361 100.719C79.526 100.121 78.8312 99.8211 77.9516 99.8211C77.0719 99.8211 76.3772 100.121 75.867 100.719C75.3565 101.318 75.1016 102.128 75.1016 103.149V113.765H80.8015V113.765ZM101.279 131.829C98.4289 131.829 96.1243 130.914 94.3653 129.083C92.606 127.252 91.7263 124.84 91.7263 121.847V103.518C91.7263 100.561 92.5884 98.1663 94.3125 96.3352C96.0364 94.5042 98.3059 93.5886 101.121 93.5886C103.83 93.5886 106.064 94.5306 107.823 96.4144C109.583 98.2983 110.497 100.79 110.568 103.888C110.568 104.522 110.269 104.839 109.67 104.839H104.921C104.323 104.839 103.988 104.54 103.918 103.941C103.883 102.533 103.61 101.485 103.1 100.799C102.59 100.112 101.93 99.7683 101.121 99.7683C100.241 99.7683 99.5638 100.059 99.0888 100.64C98.6138 101.221 98.3762 102.022 98.3762 103.043V122.322C98.3762 123.343 98.6578 124.153 99.2207 124.751C99.7836 125.35 100.523 125.649 101.437 125.649C102.317 125.649 103.029 125.359 103.575 124.778C104.12 124.197 104.393 123.431 104.393 122.481V116.512H102.282C101.648 116.512 101.332 116.195 101.332 115.561V111.758C101.332 111.124 101.648 110.808 102.282 110.808H108.193C109.072 110.808 109.75 111.045 110.225 111.52C110.7 111.996 110.937 112.691 110.937 113.607V122.005C110.937 124.928 110.049 127.296 108.272 129.109C106.495 130.922 104.164 131.829 101.279 131.829V131.829ZM115.634 131.195C115.001 131.195 114.684 130.878 114.684 130.245V103.624C114.684 100.631 115.555 98.2191 117.297 96.388C119.038 94.5569 121.317 93.6414 124.131 93.6414C126.981 93.6414 129.277 94.5569 131.019 96.388C132.76 98.2191 133.631 100.631 133.631 103.624V130.245C133.631 130.878 133.315 131.195 132.681 131.195H127.931C127.298 131.195 126.981 130.878 126.981 130.245V119.84H121.282V130.245C121.282 130.878 120.982 131.195 120.384 131.195H115.634V131.195ZM126.981 113.765V103.149C126.981 102.128 126.726 101.318 126.216 100.719C125.706 100.121 125.011 99.8211 124.131 99.8211C123.252 99.8211 122.557 100.121 122.047 100.719C121.536 101.318 121.282 102.128 121.282 103.149V113.765H126.981V113.765ZM139.226 131.195C138.592 131.195 138.276 130.878 138.276 130.245V103.624C138.276 100.631 139.147 98.2103 140.888 96.3616C142.63 94.513 144.89 93.5886 147.67 93.5886C150.555 93.5886 152.877 94.513 154.637 96.3616C156.396 98.2103 157.275 100.631 157.275 103.624V108.219C157.275 110.05 156.933 111.679 156.246 113.105C155.56 114.531 154.602 115.667 153.37 116.512L158.489 130.245L158.542 130.456C158.542 130.702 158.454 130.887 158.278 131.011C158.102 131.134 157.874 131.195 157.592 131.195H152.473C152.227 131.195 152.042 131.125 151.919 130.984C151.796 130.843 151.663 130.615 151.523 130.298L147.406 118.202H144.926V130.245C144.926 130.878 144.626 131.195 144.028 131.195H139.226V131.195ZM147.353 112.128C148.444 112.128 149.262 111.811 149.807 111.177C150.353 110.543 150.625 109.628 150.625 108.431V103.149C150.625 102.128 150.371 101.318 149.86 100.719C149.35 100.121 148.638 99.8211 147.723 99.8211C146.878 99.8211 146.201 100.121 145.691 100.719C145.181 101.318 144.926 102.128 144.926 103.149V112.128H147.353ZM165.086 131.407C164.171 131.407 163.477 131.169 163.002 130.694C162.527 130.218 162.289 129.54 162.289 128.66V96.7578C162.289 95.8775 162.527 95.1998 163.002 94.7244C163.477 94.249 164.171 94.0112 165.086 94.0112H171.578C174.428 94.0112 176.724 94.9267 178.465 96.7578C180.207 98.5889 181.078 100.983 181.078 103.941V121.477C181.078 124.435 180.207 126.829 178.465 128.66C176.724 130.491 174.428 131.407 171.578 131.407H165.086V131.407ZM171.208 125.333C172.264 125.333 173.064 125.016 173.61 124.382C174.155 123.748 174.428 122.85 174.428 121.688V103.73C174.428 101.3 173.355 100.085 171.208 100.085H168.886V125.333H171.208V125.333ZM194.483 131.407C191.633 131.407 189.337 130.491 187.596 128.66C185.854 126.829 184.983 124.435 184.983 121.477V103.888C184.983 100.966 185.854 98.5889 187.596 96.7578C189.337 94.9267 191.633 94.0112 194.483 94.0112H200.025C200.658 94.0112 200.975 94.3106 200.975 94.9092V99.1346C200.975 99.7683 200.658 100.085 200.025 100.085H195.275C194.149 100.085 193.261 100.446 192.61 101.168C191.959 101.89 191.633 102.867 191.633 104.1V109.593H198.705C199.339 109.593 199.655 109.91 199.655 110.543V114.558C199.655 115.191 199.339 115.508 198.705 115.508H191.633V121.318C191.633 122.551 191.959 123.528 192.61 124.25C193.261 124.972 194.149 125.333 195.275 125.333H200.025C200.658 125.333 200.975 125.632 200.975 126.23V130.509C200.975 131.107 200.658 131.407 200.025 131.407H194.483ZM205.408 131.195C204.775 131.195 204.458 130.878 204.458 130.245V103.571C204.458 100.614 205.32 98.2103 207.044 96.3616C208.768 94.513 211.055 93.5886 213.905 93.5886C216.755 93.5886 219.051 94.513 220.793 96.3616C222.534 98.2103 223.405 100.614 223.405 103.571V130.245C223.405 130.878 223.088 131.195 222.455 131.195H217.705C217.072 131.195 216.755 130.878 216.755 130.245V103.096C216.755 102.075 216.5 101.265 215.99 100.666C215.48 100.068 214.785 99.7683 213.905 99.7683C213.026 99.7683 212.331 100.068 211.821 100.666C211.31 101.265 211.055 102.075 211.055 103.096V130.245C211.055 130.878 210.756 131.195 210.158 131.195H205.408Z" fill="#F6F6F6"/>
<path d="M30.8078 144.602V142.899H23.1455V155.4H25.0348V144.602H30.8078V144.602ZM39.2572 155.4V149.448C39.2572 147.429 38.0152 146.393 35.5488 146.393C34.7089 146.393 34.0793 146.498 33.5718 146.744C33.1345 146.937 32.9073 147.148 32.4175 147.675L33.5894 148.781C33.8518 148.447 34.0444 148.272 34.3068 148.149C34.6216 147.991 34.9889 147.921 35.4963 147.921C36.8957 147.921 37.4905 148.412 37.4905 149.571V150.221H35.1114C33.2221 150.221 32.0675 151.186 32.0675 152.802C32.0675 154.522 33.1697 155.488 35.1463 155.488C36.196 155.488 36.7732 155.33 37.5081 154.593V155.4H39.2572V155.4ZM37.4905 152.187C37.4905 153.486 36.9306 154.013 35.5488 154.013C34.3416 154.013 33.7993 153.609 33.7993 152.749C33.7993 151.906 34.3416 151.485 35.3914 151.485H37.4905V152.187V152.187ZM49.2462 150.975C49.2462 149.922 49.1937 149.325 49.0539 148.693C48.7039 147.148 47.6193 146.393 46.0448 146.393C44.9778 146.393 44.4704 146.691 43.7534 147.429V146.498H42.004V159H43.7883V154.487C44.4531 155.225 45.0479 155.506 46.0624 155.506C46.972 155.506 47.7418 155.225 48.2665 154.698C48.9663 153.996 49.2462 152.907 49.2462 150.975V150.975ZM47.4795 150.94C47.4795 153.065 46.9544 153.908 45.6427 153.908C44.3306 153.908 43.7883 153.065 43.7883 151.011C43.7883 149.992 43.8932 149.325 44.1207 148.851C44.4007 148.272 44.8905 147.991 45.6251 147.991C46.9544 147.991 47.4795 148.816 47.4795 150.94V150.94ZM60.4945 155.4V146.498H58.745L56.1036 151.801L53.4445 146.498H51.6778V155.4H53.4621V149.694L55.5437 153.767H56.6635L58.7101 149.694V155.4H60.4945V155.4ZM70.3084 150.905C70.3084 149.202 70.0112 148.219 69.2763 147.446C68.6118 146.762 67.6846 146.393 66.6172 146.393C65.5502 146.393 64.6406 146.762 63.9758 147.446C63.2236 148.237 62.9264 149.202 62.9264 150.94C62.9264 152.696 63.2236 153.662 63.9758 154.452C64.6406 155.137 65.5502 155.506 66.6172 155.506C67.6846 155.506 68.6118 155.137 69.2763 154.452C70.0285 153.662 70.3084 152.696 70.3084 150.905ZM68.5417 150.975C68.5417 152.011 68.4192 152.802 67.9994 153.311C67.6846 153.68 67.212 153.908 66.6172 153.908C66.0577 153.908 65.6027 153.715 65.2879 153.346C64.8854 152.889 64.7107 152.187 64.7107 151.011C64.7107 149.957 64.8156 149.132 65.253 148.588C65.5678 148.219 66.0225 147.991 66.6172 147.991C67.212 147.991 67.667 148.219 67.9818 148.57C68.4368 149.079 68.5417 149.87 68.5417 150.975ZM79.8428 155.4V146.498H78.0584V150.045H74.5246V146.498H72.7403V155.4H74.5246V151.608H78.0584V155.4H79.8428ZM90.0416 155.4V146.498H88.2573L84.4611 152.538V146.498H82.6768V155.4H84.4611L88.2573 149.273V155.4H90.0416ZM99.4182 155.4V146.498H95.2372C93.5405 146.498 92.351 147.64 92.351 149.255C92.351 150.537 93.0855 151.485 94.2226 151.801L92.2284 155.4H94.3276L96.007 152.134C96.007 152.134 97.599 152.134 97.6339 152.134V155.4H99.4182ZM97.6515 150.66H95.5347C94.6424 150.66 94.1177 150.151 94.1177 149.325C94.1177 148.5 94.6424 147.991 95.5347 147.991H97.6515V150.66ZM112.538 148.061V146.498H105.226V148.061H108.042V155.4H109.827V148.061H112.538ZM121.198 151.485V150.677C121.198 148.061 119.745 146.393 117.454 146.393C115.127 146.393 113.693 148.114 113.693 150.905C113.693 153.925 115.057 155.506 117.716 155.506C119.133 155.506 119.991 155.102 120.988 154.119L119.868 153.047C119.238 153.662 118.678 153.978 117.786 153.978C116.124 153.978 115.495 152.977 115.46 151.485H121.198V151.485ZM119.448 150.221H115.46C115.495 148.992 116.019 147.885 117.454 147.885C118.906 147.885 119.361 149.009 119.448 150.221ZM130.697 155.4V146.498H124.591L124.452 151.45C124.399 153.469 123.542 153.838 122.825 153.838H122.457V155.4H123.419C125.064 155.4 126.148 154.347 126.218 151.836L126.323 148.061H128.912V155.4H130.697ZM140.073 155.4V149.448C140.073 147.429 138.831 146.393 136.365 146.393C135.525 146.393 134.895 146.498 134.388 146.744C133.95 146.937 133.723 147.148 133.233 147.675L134.405 148.781C134.668 148.447 134.86 148.272 135.123 148.149C135.437 147.991 135.805 147.921 136.312 147.921C137.712 147.921 138.306 148.412 138.306 149.571V150.221H135.927C134.038 150.221 132.883 151.186 132.883 152.802C132.883 154.522 133.986 155.488 135.962 155.488C137.012 155.488 137.589 155.33 138.324 154.593V155.4H140.073V155.4ZM138.306 152.187C138.306 153.486 137.746 154.013 136.365 154.013C135.158 154.013 134.615 153.609 134.615 152.749C134.615 151.906 135.158 151.485 136.207 151.485H138.306V152.187V152.187ZM154.383 155.4V146.498H152.599L148.802 152.538V146.498H147.018V155.4H148.802L152.599 149.273V155.4H154.383ZM169.602 157.859V153.838H168.378V146.498H162.377V147.745C162.377 150.958 161.975 152.292 161.345 153.838H160.331V157.859H162.028V155.4H167.888V157.859H169.602ZM166.593 153.838H163.182C163.654 152.661 164.004 151.502 164.057 149.518C164.057 149.36 164.074 148.254 164.074 148.061H166.593V153.838ZM178.157 146.498H176.25L174.186 152.784L172.069 146.498H170.162L173.276 154.979L172.786 156.384C172.524 157.139 172.244 157.314 171.509 157.314H171.054V158.93H171.772C173.048 158.93 173.801 158.385 174.238 157.174L178.157 146.498V146.498ZM191.049 155.4V146.498H189.265V153.838H186.274V146.498H184.489V153.838H181.481V146.498H179.696V155.4H191.049ZM201.266 155.4V146.498H199.482L195.685 152.538V146.498H193.901V155.4H195.685L199.482 149.273V155.4H201.266Z" fill="#F6F6F6"/>
<path d="M111.199 70.4855C114.914 70.4855 118.431 67.0765 121.112 61.5665C124.054 55.5207 125.874 47.0993 125.874 37.7374C125.874 28.3754 124.054 19.9543 121.112 13.9082C118.431 8.39821 114.914 4.98924 111.199 4.98924C107.484 4.98924 103.968 8.39821 101.286 13.9082C98.3442 19.9543 96.5245 28.3754 96.5245 37.7374C96.5245 47.0993 98.3446 55.5207 101.286 61.5665C103.968 67.0765 107.484 70.4855 111.199 70.4855ZM125.539 63.7489C122.014 70.9932 116.954 75.4747 111.199 75.4747C105.444 75.4747 100.384 70.9932 96.8595 63.7489C93.5952 57.0402 91.5757 47.8391 91.5757 37.7374C91.5757 27.6356 93.5948 18.4346 96.8595 11.7258C100.384 4.48155 105.443 0 111.199 0C116.955 0 122.014 4.48155 125.539 11.7258C128.803 18.4346 130.823 27.6356 130.823 37.7374C130.823 47.8391 128.803 57.0402 125.539 63.7489V63.7489Z" fill="#E6BE80"/>
<path d="M77.4488 9.89682C82.2827 6.74556 88.9197 7.75847 95.74 11.9436C102.053 15.8174 108.663 22.4878 114.072 31.035C119.48 39.5805 122.708 48.4552 123.554 55.8933C124.467 63.9293 122.614 70.4766 117.78 73.6282C112.946 76.7795 106.31 75.7669 99.4889 71.5821C93.1762 67.7086 86.5664 61.0386 81.157 52.4917L81.1127 52.4215C75.7305 43.895 72.5179 35.0492 71.675 27.6317C70.7614 19.5957 72.6142 13.0484 77.4488 9.89682V9.89682ZM93.1963 16.2276C87.9931 13.035 83.219 12.0742 80.1082 14.102C76.9978 16.1298 75.8737 20.9351 76.5704 27.0647C77.3347 33.7922 80.3055 41.8997 85.2997 49.7913L85.325 49.831C90.3134 57.7016 96.3319 63.8 102.033 67.2981C107.235 70.4904 112.01 71.4508 115.12 69.423C118.231 67.3952 119.355 62.5899 118.658 56.4603C117.894 49.7332 114.923 41.6254 109.929 33.7341C104.936 25.8441 98.9063 19.7312 93.1963 16.2276V16.2276Z" fill="#7DC2B2"/>
<path d="M143.298 14.1018C140.187 12.074 135.413 13.0347 130.21 16.227C124.499 19.7307 118.47 25.8436 113.477 33.734C108.483 41.6256 105.512 49.7335 104.747 56.4603C104.05 62.59 105.175 67.3953 108.285 69.4231C111.396 71.4512 116.171 70.4905 121.373 67.2982C127.084 63.7945 133.113 57.6813 138.106 49.7913C143.101 41.8993 146.072 33.7914 146.836 27.0646C147.533 20.9349 146.408 16.1296 143.298 14.1018V14.1018ZM127.666 11.9437C134.486 7.75854 141.123 6.74563 145.957 9.89658C150.792 13.0482 152.644 19.5952 151.731 27.6316C150.885 35.0701 147.658 43.9448 142.25 52.4904C136.841 61.0373 130.23 67.708 123.917 71.5815C117.096 75.7667 110.46 76.7796 105.626 73.6283C100.791 70.4767 98.9387 63.9294 99.8523 55.8933C100.698 48.4548 103.926 39.5801 109.333 31.0348C114.743 22.4876 121.353 15.8172 127.666 11.9437V11.9437Z" fill="#F08365"/>
</svg>
