<svg width="157" height="112" viewBox="0 0 157 112" fill="none" xmlns="http://www.w3.org/2000/svg">
<path d="M10.8364 78.5378C11.6007 79.1301 12.1924 79.8518 12.6115 80.7032C13.0306 81.5546 13.2403 82.4982 13.2403 83.5348V85.0892C13.2403 87.2114 12.6362 88.9078 11.4282 90.1786C10.22 91.4494 8.6296 92.0846 6.6571 92.0846H1.96017C1.39302 92.0846 0.924649 91.8997 0.554835 91.5296C0.184793 91.1595 0 90.6905 0 90.1231V72.5047C0 70.432 0.585634 68.7665 1.75667 67.508C2.92794 66.2495 4.46263 65.6202 6.36121 65.6202C8.28442 65.6202 9.83782 66.2495 11.0212 67.508C12.2048 68.7665 12.7966 70.432 12.7966 72.5047V73.9854C12.8212 74.9231 12.6608 75.7866 12.3156 76.5763C11.9705 77.3658 11.4775 78.0197 10.8364 78.5378V78.5378ZM4.62301 76.7982H6.39817C6.96532 76.7982 7.40289 76.5948 7.71111 76.1875C8.01932 75.7804 8.17355 75.219 8.17355 74.5034V72.0976C8.17355 71.4314 8.00701 70.9008 7.67415 70.506C7.34129 70.1113 6.8914 69.9138 6.32425 69.9138C5.78173 69.9138 5.36264 70.1113 5.06675 70.506C4.77085 70.9008 4.62301 71.4314 4.62301 72.0976V76.7982ZM8.54336 83.3866C8.54336 82.5971 8.3645 81.9863 8.00701 81.5546C7.64951 81.1226 7.16266 80.9068 6.54623 80.9068H4.62301V87.8653H6.54623C7.1873 87.8653 7.68031 87.6555 8.02548 87.236C8.37066 86.8166 8.54336 86.2244 8.54336 85.4593V83.3866V83.3866ZM21.7097 92.3438C19.688 92.3438 18.0483 91.696 16.7908 90.4005C15.5333 89.1051 14.9046 87.3963 14.9046 85.2743V72.6899C14.9046 70.5677 15.5333 68.8589 16.7908 67.5635C18.0483 66.268 19.688 65.6202 21.7097 65.6202C23.7315 65.6202 25.365 66.2618 26.6102 67.545C27.8551 68.8281 28.4777 70.506 28.4777 72.5787V85.3853C28.4777 87.458 27.8551 89.1361 26.6102 90.419C25.365 91.7022 23.7315 92.3438 21.7097 92.3438V92.3438ZM21.7097 88.0132C22.3508 88.0132 22.8623 87.8098 23.2444 87.4025C23.6268 86.9954 23.8177 86.434 23.8177 85.7184V72.2456C23.8177 71.53 23.6268 70.9627 23.2444 70.543C22.8623 70.1236 22.3508 69.9138 21.7097 69.9138C21.0687 69.9138 20.5508 70.1297 20.1563 70.5615C19.7619 70.9935 19.5645 71.5917 19.5645 72.3568V85.6075C19.5645 86.3477 19.7557 86.9338 20.1379 87.3655C20.52 87.7973 21.044 88.0132 21.7097 88.0132V88.0132ZM32.1391 91.9367C31.6954 91.9367 31.4734 91.7145 31.4734 91.2704V72.5787C31.4734 70.506 32.0775 68.8219 33.2855 67.5265C34.4938 66.231 36.0964 65.5833 38.0936 65.5833C40.0907 65.5833 41.6995 66.231 42.9201 67.5265C44.1404 68.8219 44.7507 70.506 44.7507 72.5787V91.2704C44.7507 91.7145 44.5287 91.9367 44.085 91.9367H40.7564C40.3127 91.9367 40.0907 91.7145 40.0907 91.2704V72.2456C40.0907 71.53 39.9118 70.9627 39.5543 70.543C39.1968 70.1236 38.71 69.9138 38.0936 69.9138C37.4771 69.9138 36.9903 70.1236 36.6328 70.543C36.2751 70.9627 36.0964 71.53 36.0964 72.2456V91.2704C36.0964 91.7145 35.8868 91.9367 35.4677 91.9367H32.1391V91.9367ZM48.671 91.9367C48.2273 91.9367 48.0053 91.7145 48.0053 91.2704V72.6159C48.0053 70.5184 48.6156 68.8281 49.8359 67.545C51.0564 66.2618 52.653 65.6202 54.6254 65.6202C56.6226 65.6202 58.2314 66.2618 59.452 67.545C60.6723 68.8281 61.2826 70.5184 61.2826 72.6159V91.2704C61.2826 91.7145 61.0606 91.9367 60.6168 91.9367H57.2883C56.8446 91.9367 56.6226 91.7145 56.6226 91.2704V83.9789H52.6283V91.2704C52.6283 91.7145 52.4187 91.9367 51.9996 91.9367H48.671ZM56.6226 79.7223V72.2828C56.6226 71.567 56.4437 70.9996 56.0862 70.58C55.7287 70.1606 55.2419 69.9507 54.6254 69.9507C54.009 69.9507 53.5222 70.1606 53.1647 70.58C52.807 70.9996 52.6283 71.567 52.6283 72.2828V79.7223H56.6226V79.7223ZM70.9723 92.3807C68.9752 92.3807 67.3602 91.7392 66.1275 90.4562C64.8947 89.1731 64.2783 87.4829 64.2783 85.3853V72.5417C64.2783 70.469 64.8824 68.7911 66.0906 67.508C67.2986 66.2248 68.8889 65.5833 70.8614 65.5833C72.76 65.5833 74.3257 66.2433 75.5584 67.5635C76.7912 68.8836 77.4323 70.6295 77.4816 72.8008C77.4816 73.2449 77.2719 73.4671 76.8528 73.4671H73.5243C73.1052 73.4671 72.8709 73.2573 72.8216 72.8378C72.797 71.8508 72.6058 71.1168 72.2483 70.6357C71.8908 70.1544 71.4286 69.9138 70.8614 69.9138C70.245 69.9138 69.7705 70.1174 69.4376 70.5245C69.1048 70.9316 68.9382 71.493 68.9382 72.2086V85.7184C68.9382 86.434 69.1356 87.0016 69.53 87.421C69.9245 87.8406 70.4423 88.0502 71.0834 88.0502C71.6999 88.0502 72.199 87.8468 72.5812 87.4395C72.9633 87.0324 73.1545 86.4958 73.1545 85.8296V81.647H71.6752C71.2313 81.647 71.0095 81.4249 71.0095 80.9808V78.3159C71.0095 77.8716 71.2313 77.6496 71.6752 77.6496H75.8173C76.4337 77.6496 76.9083 77.8161 77.2411 78.1492C77.574 78.4823 77.7405 78.9698 77.7405 79.6114V85.4965C77.7405 87.5445 77.1179 89.2039 75.8727 90.4747C74.6276 91.7453 72.9943 92.3807 70.9723 92.3807V92.3807ZM81.0321 91.9367C80.5884 91.9367 80.3664 91.7145 80.3664 91.2704V72.6159C80.3664 70.5184 80.9767 68.8281 82.197 67.545C83.4175 66.2618 85.0141 65.6202 86.9866 65.6202C88.9837 65.6202 90.5925 66.2618 91.8131 67.545C93.0334 68.8281 93.6437 70.5184 93.6437 72.6159V91.2704C93.6437 91.7145 93.4217 91.9367 92.9779 91.9367H89.6494C89.2057 91.9367 88.9837 91.7145 88.9837 91.2704V83.9789H84.9894V91.2704C84.9894 91.7145 84.7798 91.9367 84.3607 91.9367H81.0321V91.9367ZM88.9837 79.7223V72.2828C88.9837 71.567 88.8048 70.9996 88.4473 70.58C88.0898 70.1606 87.603 69.9507 86.9866 69.9507C86.3701 69.9507 85.8833 70.1606 85.5258 70.58C85.1681 70.9996 84.9894 71.567 84.9894 72.2828V79.7223H88.9837V79.7223ZM97.564 91.9367C97.1203 91.9367 96.8983 91.7145 96.8983 91.2704V72.6159C96.8983 70.5184 97.5086 68.8219 98.7289 67.5265C99.9494 66.231 101.534 65.5833 103.481 65.5833C105.503 65.5833 107.131 66.231 108.363 67.5265C109.596 68.8219 110.213 70.5184 110.213 72.6159V75.8359C110.213 77.119 109.972 78.2604 109.491 79.2597C109.011 80.2591 108.339 81.0548 107.476 81.647L111.063 91.2704L111.1 91.4184C111.1 91.5912 111.039 91.7207 110.915 91.8072C110.792 91.8935 110.632 91.9367 110.434 91.9367H106.847C106.675 91.9367 106.545 91.8873 106.459 91.7887C106.372 91.6899 106.28 91.5296 106.181 91.3074L103.296 82.8313H101.558V91.2704C101.558 91.7145 101.349 91.9367 100.93 91.9367H97.564V91.9367ZM103.26 78.575C104.024 78.575 104.597 78.3529 104.979 77.9088C105.362 77.4645 105.553 76.8229 105.553 75.9841V72.2828C105.553 71.567 105.374 70.9996 105.016 70.58C104.659 70.1606 104.16 69.9507 103.518 69.9507C102.927 69.9507 102.452 70.1606 102.095 70.58C101.737 70.9996 101.558 71.567 101.558 72.2828V78.575H103.26ZM115.686 92.0846C115.045 92.0846 114.558 91.9182 114.225 91.5851C113.892 91.2519 113.726 90.7768 113.726 90.1601V67.8041C113.726 67.1872 113.892 66.7123 114.225 66.3792C114.558 66.0461 115.045 65.8794 115.686 65.8794H120.235C122.232 65.8794 123.841 66.521 125.062 67.8041C126.282 69.0873 126.892 70.7652 126.892 72.8378V85.1262C126.892 87.1991 126.282 88.877 125.062 90.1601C123.841 91.4433 122.232 92.0846 120.235 92.0846H115.686V92.0846ZM119.976 87.8283C120.716 87.8283 121.277 87.6061 121.659 87.1621C122.041 86.7178 122.232 86.0885 122.232 85.2743V72.6899C122.232 70.9873 121.48 70.1359 119.976 70.1359H118.349V87.8283H119.976V87.8283ZM136.286 92.0846C134.289 92.0846 132.68 91.4433 131.46 90.1601C130.239 88.877 129.629 87.1991 129.629 85.1262V72.8008C129.629 70.7528 130.239 69.0873 131.46 67.8041C132.68 66.521 134.289 65.8794 136.286 65.8794H140.17C140.613 65.8794 140.835 66.0892 140.835 66.5086V69.4697C140.835 69.9138 140.613 70.1359 140.17 70.1359H136.841C136.052 70.1359 135.43 70.3889 134.973 70.8946C134.517 71.4006 134.289 72.0853 134.289 72.949V76.7982H139.245C139.689 76.7982 139.911 77.0204 139.911 77.4645V80.2776C139.911 80.7217 139.689 80.9438 139.245 80.9438H134.289V85.0152C134.289 85.8789 134.517 86.5636 134.973 87.0694C135.43 87.5753 136.052 87.8283 136.841 87.8283H140.17C140.613 87.8283 140.835 88.0379 140.835 88.4573V91.4556C140.835 91.875 140.613 92.0846 140.17 92.0846H136.286ZM143.942 91.9367C143.498 91.9367 143.277 91.7145 143.277 91.2704V72.5787C143.277 70.506 143.881 68.8219 145.089 67.5265C146.297 66.231 147.9 65.5833 149.897 65.5833C151.894 65.5833 153.503 66.231 154.723 67.5265C155.943 68.8219 156.554 70.506 156.554 72.5787V91.2704C156.554 91.7145 156.332 91.9367 155.888 91.9367H152.559C152.116 91.9367 151.894 91.7145 151.894 91.2704V72.2456C151.894 71.53 151.715 70.9627 151.357 70.543C151 70.1236 150.513 69.9138 149.897 69.9138C149.28 69.9138 148.793 70.1236 148.436 70.543C148.078 70.9627 147.9 71.53 147.9 72.2456V91.2704C147.9 91.7145 147.69 91.9367 147.271 91.9367H143.942Z" fill="white"/>
<path d="M21.5897 101.331V100.138H16.2202V108.898H17.5441V101.331H21.5897V101.331ZM27.5107 108.898V104.727C27.5107 103.312 26.6403 102.586 24.9119 102.586C24.3234 102.586 23.8822 102.66 23.5266 102.832C23.2201 102.968 23.0609 103.115 22.7177 103.484L23.5389 104.26C23.7228 104.026 23.8577 103.903 24.0416 103.817C24.2622 103.706 24.5196 103.657 24.8752 103.657C25.8558 103.657 26.2726 104.001 26.2726 104.813V105.269H24.6055C23.2815 105.269 22.4724 105.945 22.4724 107.077C22.4724 108.283 23.2448 108.96 24.6299 108.96C25.3655 108.96 25.77 108.849 26.285 108.332V108.898H27.5107V108.898ZM26.2726 106.647C26.2726 107.557 25.8803 107.926 24.9119 107.926C24.066 107.926 23.686 107.643 23.686 107.04C23.686 106.45 24.066 106.155 24.8016 106.155H26.2726V106.647V106.647ZM34.5106 105.798C34.5106 105.059 34.4738 104.641 34.3758 104.198C34.1305 103.115 33.3705 102.586 32.2672 102.586C31.5195 102.586 31.1639 102.795 30.6614 103.312V102.66H29.4355V111.421H30.6859V108.259C31.1518 108.775 31.5686 108.972 32.2795 108.972C32.9169 108.972 33.4564 108.775 33.8241 108.406C34.3144 107.914 34.5106 107.151 34.5106 105.798V105.798ZM33.2725 105.773C33.2725 107.262 32.9046 107.852 31.9854 107.852C31.0659 107.852 30.6859 107.262 30.6859 105.822C30.6859 105.109 30.7594 104.641 30.9188 104.309C31.115 103.903 31.4583 103.706 31.973 103.706C32.9046 103.706 33.2725 104.284 33.2725 105.773V105.773ZM42.3929 108.898V102.66H41.167L39.3159 106.376L37.4526 102.66H36.2145V108.898H37.4649V104.899L38.9236 107.754H39.7083L41.1425 104.899V108.898H42.3929V108.898ZM49.2702 105.749C49.2702 104.555 49.0619 103.866 48.5469 103.324C48.0812 102.845 47.4315 102.586 46.6835 102.586C45.9358 102.586 45.2984 102.845 44.8325 103.324C44.3054 103.878 44.0971 104.555 44.0971 105.773C44.0971 107.004 44.3054 107.68 44.8325 108.234C45.2984 108.714 45.9358 108.972 46.6835 108.972C47.4315 108.972 48.0812 108.714 48.5469 108.234C49.074 107.68 49.2702 107.004 49.2702 105.749ZM48.0321 105.798C48.0321 106.524 47.9462 107.077 47.6521 107.434C47.4315 107.693 47.1003 107.852 46.6835 107.852C46.2914 107.852 45.9726 107.717 45.752 107.459C45.4699 107.139 45.3475 106.647 45.3475 105.822C45.3475 105.084 45.421 104.506 45.7275 104.124C45.9481 103.866 46.2667 103.706 46.6835 103.706C47.1003 103.706 47.4191 103.866 47.6397 104.112C47.9586 104.469 48.0321 105.023 48.0321 105.798ZM55.9515 108.898V102.66H54.7011V105.146H52.2247V102.66H50.9743V108.898H52.2247V106.241H54.7011V108.898H55.9515ZM63.0984 108.898V102.66H61.848L59.1878 106.893V102.66H57.9375V108.898H59.1878L61.848 104.604V108.898H63.0984ZM69.6692 108.898V102.66H66.7393C65.5503 102.66 64.7167 103.46 64.7167 104.592C64.7167 105.49 65.2315 106.155 66.0283 106.376L64.6309 108.898H66.1019L67.2787 106.61C67.2787 106.61 68.3943 106.61 68.4188 106.61V108.898H69.6692ZM68.4311 105.576H66.9478C66.3225 105.576 65.9548 105.219 65.9548 104.641C65.9548 104.063 66.3225 103.706 66.9478 103.706H68.4311V105.576ZM78.8631 103.755V102.66H73.7389V103.755H75.7126V108.898H76.963V103.755H78.8631ZM84.9314 106.155V105.589C84.9314 103.755 83.9138 102.586 82.308 102.586C80.6776 102.586 79.6723 103.792 79.6723 105.749C79.6723 107.865 80.6285 108.972 82.4919 108.972C83.4849 108.972 84.0855 108.689 84.7844 108L83.9996 107.25C83.5584 107.68 83.166 107.902 82.541 107.902C81.3762 107.902 80.935 107.201 80.9105 106.155H84.9314V106.155ZM83.7055 105.269H80.9105C80.935 104.407 81.3027 103.632 82.308 103.632C83.3255 103.632 83.6443 104.42 83.7055 105.269ZM91.5878 108.898V102.66H87.3096L87.2116 106.13C87.1748 107.545 86.5739 107.803 86.0715 107.803H85.8141V108.898H86.4883C87.6405 108.898 88.4005 108.16 88.4496 106.401L88.5232 103.755H90.3374V108.898H91.5878ZM98.1586 108.898V104.727C98.1586 103.312 97.2882 102.586 95.5598 102.586C94.9713 102.586 94.5301 102.66 94.1745 102.832C93.868 102.968 93.7088 103.115 93.3655 103.484L94.1868 104.26C94.3706 104.026 94.5056 103.903 94.6895 103.817C94.9101 103.706 95.1675 103.657 95.5231 103.657C96.5037 103.657 96.9205 104.001 96.9205 104.813V105.269H95.2533C93.9294 105.269 93.1203 105.945 93.1203 107.077C93.1203 108.283 93.8926 108.96 95.2778 108.96C96.0134 108.96 96.4178 108.849 96.9328 108.332V108.898H98.1586V108.898ZM96.9205 106.647C96.9205 107.557 96.5282 107.926 95.5598 107.926C94.7139 107.926 94.3339 107.643 94.3339 107.04C94.3339 106.45 94.7139 106.155 95.4495 106.155H96.9205V106.647V106.647ZM108.186 108.898V102.66H106.936L104.276 106.893V102.66H103.025V108.898H104.276L106.936 104.604V108.898H108.186ZM118.852 110.621V107.803H117.993V102.66H113.789V103.534C113.789 105.785 113.507 106.72 113.065 107.803H112.354V110.621H113.543V108.898H117.65V110.621H118.852ZM116.743 107.803H114.352C114.683 106.979 114.929 106.167 114.965 104.776C114.965 104.666 114.978 103.89 114.978 103.755H116.743V107.803ZM124.846 102.66H123.51L122.063 107.065L120.58 102.66H119.244L121.426 108.603L121.083 109.587C120.899 110.117 120.703 110.24 120.188 110.24H119.869V111.372H120.372C121.266 111.372 121.794 110.99 122.1 110.141L124.846 102.66V102.66ZM133.881 108.898V102.66H132.63V107.803H130.534V102.66H129.284V107.803H127.175V102.66H125.925V108.898H133.881ZM141.04 108.898V102.66H139.79L137.13 106.893V102.66H135.879V108.898H137.13L139.79 104.604V108.898H141.04Z" fill="white"/>
<path d="M77.9247 49.3933C80.528 49.3933 82.9923 47.0044 84.8713 43.1432C86.9327 38.9065 88.2081 33.0051 88.2081 26.4447C88.2081 19.8842 86.9329 13.983 84.8713 9.7461C82.9923 5.8849 80.5283 3.49602 77.9247 3.49602C75.3211 3.49602 72.8571 5.8849 70.9781 9.7461C68.9165 13.983 67.6413 19.8842 67.6413 26.4447C67.6413 33.0051 68.9167 38.9065 70.9781 43.1432C72.8571 47.0044 75.3213 49.3933 77.9247 49.3933ZM87.9734 44.6726C85.5032 49.749 81.9577 52.8895 77.9247 52.8895C73.8914 52.8895 70.3462 49.749 67.876 44.6726C65.5885 39.9713 64.1733 33.5235 64.1733 26.4447C64.1733 19.3658 65.5883 12.918 67.876 8.21674C70.3462 3.14026 73.8912 -0.000244141 77.9247 -0.000244141C81.9582 -0.000244141 85.5032 3.14026 87.9734 8.21674C90.2611 12.918 91.676 19.3658 91.676 26.4447C91.676 33.5235 90.2609 39.9713 87.9734 44.6726V44.6726Z" fill="#FFDC9E"/>
<path d="M54.2733 6.93541C57.6607 4.72712 62.3116 5.43693 67.091 8.36974C71.5149 11.0843 76.1471 15.7587 79.9375 21.7482C83.7273 27.7366 85.9892 33.9556 86.5817 39.168C87.2219 44.7993 85.9235 49.3874 82.5357 51.5959C79.1482 53.8042 74.4977 53.0946 69.7181 50.162C65.2944 47.4477 60.6625 42.7736 56.8718 36.7843L56.8408 36.7351C53.0691 30.76 50.8179 24.5612 50.2272 19.3633C49.587 13.732 50.8854 9.14392 54.2733 6.93541V6.93541ZM65.3085 11.3718C61.6623 9.1345 58.3168 8.46125 56.1369 9.88224C53.9572 11.3032 53.1695 14.6706 53.6577 18.966C54.1933 23.6803 56.2751 29.3618 59.7749 34.8919L59.7926 34.9197C63.2883 40.4351 67.5058 44.7087 71.5007 47.16C75.1466 49.397 78.4921 50.0701 80.672 48.6491C82.8517 47.2281 83.6394 43.8607 83.1512 39.5653C82.6154 34.8512 80.5336 29.1695 77.034 23.6396C73.5351 18.1107 69.3099 13.827 65.3085 11.3718V11.3718Z" fill="#7DC2B2"/>
<path d="M100.418 9.88209C98.2377 8.46109 94.8922 9.13434 91.2462 11.3714C87.2446 13.8266 83.0195 18.1103 79.5204 23.6396C76.0208 29.1697 73.9387 34.8514 73.4029 39.5653C72.9147 43.8607 73.7027 47.2281 75.8823 48.6491C78.0623 50.0704 81.408 49.3971 85.0538 47.1601C89.0554 44.7048 93.2807 40.4209 96.7799 34.8919C100.28 29.3615 102.362 23.6798 102.897 18.9659C103.385 14.6705 102.598 11.3031 100.418 9.88209V9.88209ZM89.4637 8.3698C94.2431 5.43698 98.8941 4.72717 102.282 6.93524C105.669 9.14376 106.967 13.7317 106.327 19.3632C105.735 24.5759 103.473 30.7949 99.6834 36.7833C95.8929 42.7727 91.2603 47.4473 86.8363 50.1617C82.0569 53.0945 77.4062 53.8043 74.0187 51.596C70.6308 49.3875 69.3326 44.7993 69.9729 39.168C70.5655 33.9554 72.8272 27.7363 76.6168 21.7481C80.4073 15.7585 85.0397 11.0842 89.4637 8.3698V8.3698Z" fill="#F58D6F"/>
</svg>
