<svg width="176" height="125" viewBox="0 0 176 125" fill="none" xmlns="http://www.w3.org/2000/svg">
<path d="M12.157 88.1093C13.0144 88.7737 13.6783 89.5834 14.1485 90.5385C14.6187 91.4937 14.8539 92.5523 14.8539 93.7152V95.459C14.8539 97.8399 14.1762 99.743 12.8209 101.169C11.4655 102.594 9.68129 103.307 7.46841 103.307H2.19906C1.56279 103.307 1.03734 103.1 0.622453 102.684C0.207314 102.269 0 101.743 0 101.106V81.3409C0 79.0156 0.657005 77.1471 1.97076 75.7352C3.28477 74.3233 5.0065 73.6174 7.13645 73.6174C9.29405 73.6174 11.0368 74.3233 12.3643 75.7352C13.6922 77.1471 14.3561 79.0156 14.3561 81.3409V83.002C14.3837 84.054 14.2038 85.0227 13.8166 85.9087C13.4293 86.7945 12.8762 87.5281 12.157 88.1093ZM5.18642 86.1577H7.17792C7.81419 86.1577 8.30509 85.9295 8.65087 85.4725C8.99664 85.0158 9.16966 84.386 9.16966 83.5832V80.8842C9.16966 80.1368 8.98282 79.5415 8.6094 79.0986C8.23598 78.6558 7.73126 78.4342 7.09499 78.4342C6.48636 78.4342 6.01619 78.6558 5.68423 79.0986C5.35227 79.5415 5.18642 80.1368 5.18642 80.8842V86.1577ZM9.58454 93.549C9.58454 92.6632 9.38389 91.9781 8.98282 91.4937C8.58176 91.0091 8.03558 90.767 7.34402 90.767H5.18642V98.5735H7.34402C8.06322 98.5735 8.61631 98.3381 9.00355 97.8676C9.3908 97.397 9.58454 96.7326 9.58454 95.8742V93.549ZM24.3555 103.598C22.0873 103.598 20.2479 102.871 18.8371 101.418C17.4264 99.9644 16.721 98.0474 16.721 95.6668V81.5487C16.721 79.1678 17.4264 77.2508 18.8371 75.7975C20.2479 74.3441 22.0873 73.6174 24.3555 73.6174C26.6237 73.6174 28.4562 74.3372 29.8532 75.7767C31.2498 77.2162 31.9483 79.0986 31.9483 81.4239V95.7913C31.9483 98.1165 31.2498 99.9992 29.8532 101.438C28.4562 102.878 26.6237 103.598 24.3555 103.598ZM24.3555 98.7395C25.0747 98.7395 25.6485 98.5112 26.0772 98.0543C26.5062 97.5976 26.7204 96.9677 26.7204 96.165V81.0502C26.7204 80.2474 26.5062 79.6109 26.0772 79.1401C25.6485 78.6696 25.0747 78.4342 24.3555 78.4342C23.6363 78.4342 23.0553 78.6765 22.6128 79.1609C22.1703 79.6455 21.9489 80.3166 21.9489 81.1749V96.0405C21.9489 96.8709 22.1634 97.5284 22.5921 98.0128C23.0208 98.4972 23.6087 98.7395 24.3555 98.7395ZM36.0559 103.141C35.5581 103.141 35.3091 102.892 35.3091 102.394V81.4239C35.3091 79.0986 35.9868 77.2093 37.342 75.756C38.6975 74.3026 40.4955 73.5759 42.736 73.5759C44.9766 73.5759 46.7815 74.3026 48.1508 75.756C49.5198 77.2093 50.2045 79.0986 50.2045 81.4239V102.394C50.2045 102.892 49.9554 103.141 49.4576 103.141H45.7234C45.2256 103.141 44.9766 102.892 44.9766 102.394V81.0502C44.9766 80.2474 44.7759 79.6109 44.3748 79.1401C43.9738 78.6696 43.4276 78.4342 42.736 78.4342C42.0445 78.4342 41.4983 78.6696 41.0972 79.1401C40.6959 79.6109 40.4955 80.2474 40.4955 81.0502V102.394C40.4955 102.892 40.2603 103.141 39.7901 103.141H36.0559ZM54.6026 103.141C54.1048 103.141 53.8557 102.892 53.8557 102.394V81.4657C53.8557 79.1125 54.5404 77.2162 55.9094 75.7767C57.2787 74.3372 59.0698 73.6174 61.2827 73.6174C63.5232 73.6174 65.3281 74.3372 66.6974 75.7767C68.0664 77.2162 68.7511 79.1125 68.7511 81.4657V102.394C68.7511 102.892 68.5021 103.141 68.0042 103.141H64.27C63.7722 103.141 63.5232 102.892 63.5232 102.394V94.2134H59.0422V102.394C59.0422 102.892 58.8069 103.141 58.3368 103.141H54.6026ZM63.5232 89.4381V81.0919C63.5232 80.2889 63.3225 79.6524 62.9215 79.1816C62.5204 78.7111 61.9742 78.4757 61.2827 78.4757C60.5911 78.4757 60.0449 78.7111 59.6439 79.1816C59.2426 79.6524 59.0422 80.2889 59.0422 81.0919V89.4381H63.5232ZM79.6217 103.639C77.3812 103.639 75.5694 102.919 74.1865 101.48C72.8034 100.041 72.1119 98.1444 72.1119 95.7913V81.3824C72.1119 79.0571 72.7896 77.1747 74.1451 75.7352C75.5003 74.2957 77.2845 73.5759 79.4974 73.5759C81.6273 73.5759 83.3838 74.3164 84.7667 75.7975C86.1498 77.2785 86.869 79.2372 86.9243 81.6731C86.9243 82.1713 86.6891 82.4206 86.2189 82.4206H82.4847C82.0145 82.4206 81.7517 82.1852 81.6964 81.7146C81.6688 80.6073 81.4543 79.7838 81.0532 79.2441C80.6522 78.7042 80.1336 78.4342 79.4974 78.4342C78.8058 78.4342 78.2734 78.6627 77.9 79.1194C77.5266 79.5761 77.3398 80.2059 77.3398 81.0087V96.165C77.3398 96.9677 77.5611 97.6045 78.0037 98.075C78.4462 98.5458 79.0272 98.781 79.7464 98.781C80.4379 98.781 80.9979 98.5527 81.4267 98.0958C81.8554 97.6391 82.0698 97.0371 82.0698 96.2897V91.5974H80.4103C79.9122 91.5974 79.6635 91.3482 79.6635 90.85V87.8603C79.6635 87.3618 79.9122 87.1129 80.4103 87.1129H85.0572C85.7488 87.1129 86.2811 87.2996 86.6545 87.6733C87.028 88.047 87.2148 88.5939 87.2148 89.3136V95.916C87.2148 98.2136 86.5163 100.075 85.1194 101.501C83.7225 102.926 81.8902 103.639 79.6217 103.639ZM90.9075 103.141C90.4097 103.141 90.1607 102.892 90.1607 102.394V81.4657C90.1607 79.1125 90.8453 77.2162 92.2144 75.7767C93.5837 74.3372 95.3748 73.6174 97.5876 73.6174C99.8282 73.6174 101.633 74.3372 103.002 75.7767C104.371 77.2162 105.056 79.1125 105.056 81.4657V102.394C105.056 102.892 104.807 103.141 104.309 103.141H100.575C100.077 103.141 99.8282 102.892 99.8282 102.394V94.2134H95.3471V102.394C95.3471 102.892 95.1119 103.141 94.6417 103.141H90.9075ZM99.8282 89.4381V81.0919C99.8282 80.2889 99.6275 79.6524 99.2264 79.1816C98.8254 78.7111 98.2792 78.4757 97.5876 78.4757C96.8961 78.4757 96.3499 78.7111 95.9488 79.1816C95.5475 79.6524 95.3471 80.2889 95.3471 81.0919V89.4381H99.8282ZM109.454 103.141C108.956 103.141 108.707 102.892 108.707 102.394V81.4657C108.707 79.1125 109.392 77.2093 110.761 75.756C112.13 74.3026 113.908 73.5759 116.093 73.5759C118.361 73.5759 120.187 74.3026 121.57 75.756C122.953 77.2093 123.644 79.1125 123.644 81.4657V85.0781C123.644 86.5176 123.375 87.798 122.835 88.9192C122.296 90.0403 121.542 90.933 120.574 91.5974L124.599 102.394L124.64 102.56C124.64 102.753 124.571 102.899 124.432 102.996C124.294 103.093 124.115 103.141 123.893 103.141H119.868C119.675 103.141 119.53 103.086 119.433 102.975C119.336 102.864 119.232 102.684 119.122 102.435L115.885 92.926H113.935V102.394C113.935 102.892 113.7 103.141 113.23 103.141H109.454ZM115.844 88.151C116.701 88.151 117.344 87.9018 117.773 87.4036C118.202 86.9051 118.416 86.1854 118.416 85.2443V81.0919C118.416 80.2889 118.216 79.6524 117.815 79.1816C117.413 78.7111 116.853 78.4757 116.134 78.4757C115.47 78.4757 114.938 78.7111 114.537 79.1816C114.136 79.6524 113.935 80.2889 113.935 81.0919V88.151H115.844ZM129.785 103.307C129.066 103.307 128.519 103.12 128.146 102.747C127.773 102.373 127.586 101.84 127.586 101.148V76.0674C127.586 75.3753 127.773 74.8426 128.146 74.4688C128.519 74.0951 129.066 73.9081 129.785 73.9081H134.888C137.129 73.9081 138.934 74.6279 140.303 76.0674C141.672 77.507 142.357 79.3894 142.357 81.7146V95.5005C142.357 97.8261 141.672 99.7085 140.303 101.148C138.934 102.588 137.129 103.307 134.888 103.307H129.785ZM134.598 98.532C135.428 98.532 136.057 98.2828 136.486 97.7846C136.915 97.2861 137.129 96.5802 137.129 95.6668V81.5487C137.129 79.6386 136.285 78.6834 134.598 78.6834H132.772V98.532H134.598ZM152.896 103.307C150.655 103.307 148.85 102.588 147.481 101.148C146.112 99.7085 145.427 97.8261 145.427 95.5005V81.6731C145.427 79.3755 146.112 77.507 147.481 76.0674C148.85 74.6279 150.655 73.9081 152.896 73.9081H157.252C157.75 73.9081 157.999 74.1435 157.999 74.6141V77.936C157.999 78.4342 157.75 78.6834 157.252 78.6834H153.518C152.633 78.6834 151.935 78.9672 151.423 79.5346C150.911 80.1022 150.655 80.8704 150.655 81.8394V86.1577H156.215C156.713 86.1577 156.962 86.4069 156.962 86.9051V90.0611C156.962 90.5593 156.713 90.8085 156.215 90.8085H150.655V95.376C150.655 96.345 150.911 97.1132 151.423 97.6806C151.935 98.2482 152.633 98.532 153.518 98.532H157.252C157.75 98.532 157.999 98.7671 157.999 99.2377V102.601C157.999 103.072 157.75 103.307 157.252 103.307H152.896ZM161.485 103.141C160.987 103.141 160.738 102.892 160.738 102.394V81.4239C160.738 79.0986 161.415 77.2093 162.771 75.756C164.126 74.3026 165.924 73.5759 168.165 73.5759C170.405 73.5759 172.21 74.3026 173.579 75.756C174.948 77.2093 175.633 79.0986 175.633 81.4239V102.394C175.633 102.892 175.384 103.141 174.886 103.141H171.152C170.654 103.141 170.405 102.892 170.405 102.394V81.0502C170.405 80.2474 170.204 79.6109 169.803 79.1401C169.402 78.6696 168.856 78.4342 168.165 78.4342C167.473 78.4342 166.927 78.6696 166.526 79.1401C166.125 79.6109 165.924 80.2474 165.924 81.0502V102.394C165.924 102.892 165.689 103.141 165.219 103.141H161.485Z" fill="#333333"/>
<path d="M24.2201 113.681V112.342H18.1963V122.17H19.6816V113.681H24.2201ZM30.8627 122.17V117.491C30.8627 115.903 29.8863 115.089 27.9473 115.089C27.287 115.089 26.792 115.172 26.3931 115.365C26.0493 115.517 25.8707 115.682 25.4856 116.096L26.4069 116.966C26.6132 116.704 26.7646 116.566 26.9709 116.469C27.2184 116.345 27.5071 116.29 27.906 116.29C29.0062 116.29 29.4738 116.676 29.4738 117.587V118.098H27.6034C26.1182 118.098 25.2104 118.857 25.2104 120.127C25.2104 121.48 26.0769 122.239 27.6309 122.239C28.4561 122.239 28.9099 122.115 29.4876 121.535V122.17H30.8627ZM29.4738 119.644C29.4738 120.665 29.0336 121.08 27.9473 121.08C26.9983 121.08 26.5719 120.762 26.5719 120.086C26.5719 119.423 26.9983 119.092 27.8235 119.092H29.4738V119.644ZM38.7157 118.691C38.7157 117.863 38.6745 117.394 38.5645 116.897C38.2894 115.682 37.4367 115.089 36.1989 115.089C35.3601 115.089 34.9611 115.323 34.3975 115.903V115.172H33.0221V125H34.4249V121.452C34.9476 122.032 35.4152 122.253 36.2127 122.253C36.9278 122.253 37.533 122.032 37.9455 121.618C38.4956 121.066 38.7157 120.21 38.7157 118.691ZM37.3268 118.664C37.3268 120.334 36.914 120.997 35.8827 120.997C34.8512 120.997 34.4249 120.334 34.4249 118.719C34.4249 117.918 34.5074 117.394 34.6862 117.021C34.9063 116.566 35.2914 116.345 35.8689 116.345C36.914 116.345 37.3268 116.994 37.3268 118.664ZM47.5587 122.17V115.172H46.1833L44.1067 119.34L42.0163 115.172H40.6273V122.17H42.0301V117.684L43.6665 120.886H44.5469L46.1559 117.684V122.17H47.5587ZM55.2741 118.636C55.2741 117.297 55.0404 116.524 54.4626 115.917C53.9402 115.379 53.2113 115.089 52.3722 115.089C51.5333 115.089 50.8182 115.379 50.2956 115.917C49.7042 116.538 49.4705 117.297 49.4705 118.664C49.4705 120.044 49.7042 120.804 50.2956 121.425C50.8182 121.963 51.5333 122.253 52.3722 122.253C53.2113 122.253 53.9402 121.963 54.4626 121.425C55.054 120.804 55.2741 120.044 55.2741 118.636ZM53.8851 118.691C53.8851 119.506 53.7888 120.127 53.4588 120.527C53.2113 120.817 52.8398 120.997 52.3722 120.997C51.9323 120.997 51.5746 120.845 51.3271 120.555C51.0107 120.196 50.8733 119.644 50.8733 118.719C50.8733 117.891 50.9558 117.242 51.2997 116.814C51.5472 116.524 51.9046 116.345 52.3722 116.345C52.8398 116.345 53.1974 116.524 53.4449 116.801C53.8026 117.201 53.8851 117.822 53.8851 118.691ZM62.7696 122.17V115.172H61.3668V117.96H58.5887V115.172H57.1859V122.17H58.5887V119.189H61.3668V122.17H62.7696ZM70.7876 122.17V115.172H69.3848L66.4004 119.92V115.172H64.9976V122.17H66.4004L69.3848 117.353V122.17H70.7876ZM78.1591 122.17V115.172H74.8721C73.5383 115.172 72.6031 116.069 72.6031 117.339C72.6031 118.346 73.1806 119.092 74.0745 119.34L72.5068 122.17H74.157L75.4773 119.603C75.4773 119.603 76.7289 119.603 76.7563 119.603V122.17H78.1591ZM76.7702 118.443H75.1061C74.4045 118.443 73.992 118.043 73.992 117.394C73.992 116.745 74.4045 116.345 75.1061 116.345H76.7702V118.443ZM88.4735 116.4V115.172H82.7248V116.4H84.939V122.17H86.3418V116.4H88.4735ZM95.2814 119.092V118.457C95.2814 116.4 94.1397 115.089 92.3382 115.089C90.5091 115.089 89.3813 116.442 89.3813 118.636C89.3813 121.011 90.454 122.253 92.5445 122.253C93.6585 122.253 94.3324 121.935 95.1164 121.163L94.236 120.32C93.741 120.804 93.3008 121.052 92.5996 121.052C91.2929 121.052 90.7979 120.265 90.7705 119.092H95.2814ZM93.906 118.098H90.7705C90.7979 117.132 91.2104 116.262 92.3382 116.262C93.4797 116.262 93.8373 117.146 93.906 118.098ZM102.749 122.17V115.172H97.9493L97.8394 119.064C97.7982 120.652 97.1241 120.942 96.5604 120.942H96.2716V122.17H97.028C98.3206 122.17 99.1733 121.342 99.2283 119.368L99.3109 116.4H101.346V122.17H102.749ZM110.121 122.17V117.491C110.121 115.903 109.144 115.089 107.205 115.089C106.545 115.089 106.05 115.172 105.651 115.365C105.307 115.517 105.128 115.682 104.743 116.096L105.665 116.966C105.871 116.704 106.022 116.566 106.229 116.469C106.476 116.345 106.765 116.29 107.164 116.29C108.264 116.29 108.732 116.676 108.732 117.587V118.098H106.861C105.376 118.098 104.468 118.857 104.468 120.127C104.468 121.48 105.335 122.239 106.889 122.239C107.714 122.239 108.168 122.115 108.745 121.535V122.17H110.121ZM108.732 119.644C108.732 120.665 108.291 121.08 107.205 121.08C106.256 121.08 105.83 120.762 105.83 120.086C105.83 119.423 106.256 119.092 107.081 119.092H108.732V119.644ZM121.37 122.17V115.172H119.968L116.983 119.92V115.172H115.58V122.17H116.983L119.968 117.353V122.17H121.37ZM133.335 124.103V120.942H132.372V115.172H127.655V116.152C127.655 118.678 127.339 119.727 126.844 120.942H126.046V124.103H127.38V122.17H131.987V124.103H133.335ZM130.97 120.942H128.288C128.659 120.017 128.934 119.106 128.976 117.546C128.976 117.422 128.989 116.552 128.989 116.4H130.97V120.942ZM140.06 115.172H138.561L136.938 120.113L135.275 115.172H133.775L136.223 121.839L135.838 122.943C135.632 123.537 135.412 123.675 134.834 123.675H134.477V124.945H135.041C136.045 124.945 136.636 124.517 136.98 123.564L140.06 115.172ZM150.196 122.17V115.172H148.793V120.942H146.442V115.172H145.039V120.942H142.674V115.172H141.271V122.17H150.196ZM158.228 122.17V115.172H156.825L153.841 119.92V115.172H152.438V122.17H153.841L156.825 117.353V122.17H158.228Z" fill="#595959"/>
<path d="M87.4209 55.4131C90.3415 55.4131 93.1061 52.7331 95.214 48.4014C97.5267 43.6484 98.9575 37.0278 98.9575 29.6677C98.9575 22.3077 97.5269 15.6874 95.214 10.9341C93.1061 6.60237 90.3418 3.92236 87.4209 3.92236C84.5 3.92236 81.7357 6.60237 79.6277 10.9341C77.3148 15.6874 75.8842 22.3077 75.8842 29.6677C75.8842 37.0278 77.3151 43.6484 79.6277 48.4014C81.7357 52.7331 84.5003 55.4131 87.4209 55.4131ZM98.6942 50.1171C95.923 55.8123 91.9455 59.3355 87.4209 59.3355C82.8961 59.3355 78.9188 55.8123 76.1476 50.1171C73.5813 44.8429 71.9937 37.6093 71.9937 29.6677C71.9937 21.7261 73.581 14.4926 76.1476 9.21839C78.9188 3.52323 82.8958 0 87.4209 0C91.946 0 95.923 3.52323 98.6942 9.21839C101.261 14.4926 102.848 21.7261 102.848 29.6677C102.848 37.6093 101.26 44.8429 98.6942 50.1171Z" fill="#E6BE80"/>
<path d="M60.8872 7.78059C64.6874 5.30318 69.9052 6.09949 75.267 9.38971C80.2301 12.4351 85.4267 17.6791 89.6791 24.3986C93.9308 31.1168 96.4684 38.0938 97.133 43.9414C97.8513 50.259 96.3947 55.4062 92.5939 57.8839C88.7936 60.3613 83.5764 59.5652 78.2143 56.2753C73.2515 53.2301 68.0551 47.9864 63.8024 41.2671L63.7676 41.2119C59.5363 34.5087 57.0107 27.5545 56.3481 21.7231C55.6298 15.4055 57.0864 10.2583 60.8872 7.78059ZM73.2673 12.7576C69.1767 10.2477 65.4235 9.49238 62.9779 11.0865C60.5326 12.6807 59.6489 16.4585 60.1966 21.2774C60.7975 26.5662 63.133 32.9401 67.0593 39.1442L67.0791 39.1754C71.0009 45.363 75.7324 50.1573 80.2141 52.9074C84.3043 55.417 88.0576 56.1721 90.5031 54.5779C92.9485 52.9837 93.8322 49.206 93.2845 44.3871C92.6834 39.0985 90.3478 32.7244 86.4218 26.5206C82.4965 20.3178 77.7563 15.512 73.2673 12.7576Z" fill="#5FA494"/>
<path d="M112.655 11.0864C110.209 9.4922 106.456 10.2475 102.366 12.7572C97.8765 15.5116 93.1366 20.3174 89.211 26.5205C85.2849 32.7246 82.9491 39.0987 82.348 44.3871C81.8003 49.206 82.6843 52.9838 85.1296 54.578C87.5752 56.1724 91.3287 55.4171 95.4188 52.9075C99.9081 50.153 104.648 45.347 108.574 39.1441C112.5 32.9398 114.836 26.5656 115.437 21.2772C115.984 16.4583 115.101 12.6806 112.655 11.0864ZM100.366 9.38979C105.728 6.09954 110.946 5.30323 114.746 7.78039C118.547 10.2581 120.003 15.4051 119.285 21.723C118.62 27.5709 116.083 34.5479 111.831 41.2661C107.579 47.9854 102.382 53.2297 97.4185 56.2748C92.0566 59.5651 86.8391 60.3614 83.0388 57.884C79.238 55.4063 77.7817 50.259 78.4999 43.9414C79.1648 38.0935 81.7022 31.1165 85.9536 24.3985C90.2061 17.679 95.403 12.435 100.366 9.38979Z" fill="#F08365"/>
</svg>
