<svg width="350" height="330" viewBox="0 0 350 330" fill="none" xmlns="http://www.w3.org/2000/svg">
<g clip-path="url(#clip0_403_464)">
<path d="M78.5049 235.708C79.5984 236.569 80.4452 237.62 81.0448 238.859C81.6445 240.098 81.9445 241.471 81.9445 242.98V245.242C81.9445 248.331 81.0801 250.8 79.3517 252.649C77.6229 254.499 75.3474 255.423 72.5251 255.423H65.8047C64.9932 255.423 64.323 255.154 63.7939 254.615C63.2644 254.077 63 253.394 63 252.568V226.927C63 223.911 63.8379 221.487 65.5135 219.655C67.1894 217.824 69.3852 216.908 72.1017 216.908C74.8535 216.908 77.0761 217.824 78.7693 219.655C80.4628 221.487 81.3096 223.911 81.3096 226.927V229.082C81.3448 230.447 81.1153 231.704 80.6215 232.853C80.1276 234.002 79.4222 234.954 78.5049 235.708V235.708ZM69.6147 233.176H72.1546C72.9661 233.176 73.5922 232.88 74.0332 232.287C74.4742 231.695 74.6949 230.877 74.6949 229.836V226.335C74.6949 225.365 74.4566 224.593 73.9803 224.018C73.5041 223.444 72.8603 223.156 72.0489 223.156C71.2726 223.156 70.673 223.444 70.2496 224.018C69.8262 224.593 69.6147 225.365 69.6147 226.335V233.176ZM75.224 242.764C75.224 241.615 74.9681 240.726 74.4566 240.098C73.9451 239.469 73.2485 239.155 72.3665 239.155H69.6147V249.282H72.3665C73.2837 249.282 73.9891 248.977 74.483 248.367C74.9769 247.756 75.224 246.894 75.224 245.781V242.764V242.764ZM94.0627 255.8C91.1699 255.8 88.8239 254.857 87.0246 252.972C85.2254 251.087 84.3257 248.6 84.3257 245.512V227.197C84.3257 224.108 85.2254 221.621 87.0246 219.736C88.8239 217.851 91.1699 216.908 94.0627 216.908C96.9555 216.908 99.2927 217.842 101.074 219.709C102.856 221.576 103.746 224.018 103.746 227.035V245.673C103.746 248.69 102.856 251.132 101.074 252.999C99.2927 254.866 96.9555 255.8 94.0627 255.8V255.8ZM94.0627 249.498C94.9799 249.498 95.7118 249.202 96.2586 248.609C96.8056 248.016 97.0789 247.199 97.0789 246.158V226.55C97.0789 225.509 96.8056 224.683 96.2586 224.072C95.7118 223.462 94.9799 223.156 94.0627 223.156C93.1454 223.156 92.4044 223.471 91.8401 224.099C91.2757 224.728 90.9933 225.598 90.9933 226.712V245.996C90.9933 247.074 91.2669 247.927 91.8136 248.555C92.3604 249.183 93.1102 249.498 94.0627 249.498V249.498ZM108.985 255.208C108.35 255.208 108.033 254.884 108.033 254.238V227.035C108.033 224.018 108.897 221.567 110.626 219.682C112.354 217.797 114.647 216.854 117.505 216.854C120.363 216.854 122.664 217.797 124.411 219.682C126.157 221.567 127.03 224.018 127.03 227.035V254.238C127.03 254.884 126.712 255.208 126.078 255.208H121.315C120.68 255.208 120.363 254.884 120.363 254.238V226.55C120.363 225.509 120.107 224.683 119.595 224.072C119.084 223.462 118.387 223.156 117.505 223.156C116.623 223.156 115.926 223.462 115.415 224.072C114.903 224.683 114.647 225.509 114.647 226.55V254.238C114.647 254.884 114.347 255.208 113.748 255.208H108.985V255.208ZM132.639 255.208C132.004 255.208 131.687 254.884 131.687 254.238V227.089C131.687 224.036 132.56 221.576 134.306 219.709C136.052 217.842 138.337 216.908 141.159 216.908C144.017 216.908 146.319 217.842 148.065 219.709C149.811 221.576 150.684 224.036 150.684 227.089V254.238C150.684 254.884 150.367 255.208 149.732 255.208H144.969C144.334 255.208 144.017 254.884 144.017 254.238V243.626H138.302V254.238C138.302 254.884 138.002 255.208 137.402 255.208H132.639ZM144.017 237.431V226.604C144.017 225.563 143.761 224.737 143.249 224.126C142.738 223.516 142.041 223.21 141.159 223.21C140.277 223.21 139.581 223.516 139.069 224.126C138.557 224.737 138.302 225.563 138.302 226.604V237.431H144.017V237.431ZM164.548 255.854C161.691 255.854 159.38 254.92 157.617 253.053C155.853 251.186 154.971 248.726 154.971 245.673V226.981C154.971 223.965 155.835 221.523 157.564 219.655C159.292 217.788 161.568 216.854 164.39 216.854C167.106 216.854 169.347 217.815 171.11 219.736C172.874 221.657 173.792 224.198 173.862 227.358C173.862 228.005 173.562 228.328 172.962 228.328H168.2C167.6 228.328 167.265 228.022 167.194 227.412C167.159 225.976 166.886 224.907 166.374 224.207C165.863 223.507 165.201 223.156 164.39 223.156C163.508 223.156 162.829 223.453 162.353 224.045C161.876 224.638 161.638 225.455 161.638 226.496V246.158C161.638 247.199 161.92 248.025 162.485 248.636C163.049 249.247 163.79 249.552 164.707 249.552C165.589 249.552 166.304 249.255 166.85 248.663C167.397 248.07 167.671 247.289 167.671 246.32V240.233H165.554C164.919 240.233 164.602 239.909 164.602 239.263V235.385C164.602 234.738 164.919 234.415 165.554 234.415H171.481C172.363 234.415 173.042 234.657 173.518 235.142C173.994 235.627 174.233 236.336 174.233 237.27V245.835C174.233 248.816 173.342 251.231 171.56 253.08C169.778 254.929 167.442 255.854 164.548 255.854V255.854ZM178.942 255.208C178.307 255.208 177.99 254.884 177.99 254.238V227.089C177.99 224.036 178.863 221.576 180.609 219.709C182.355 217.842 184.64 216.908 187.462 216.908C190.319 216.908 192.621 217.842 194.368 219.709C196.114 221.576 196.987 224.036 196.987 227.089V254.238C196.987 254.884 196.669 255.208 196.035 255.208H191.272C190.637 255.208 190.319 254.884 190.319 254.238V243.626H184.604V254.238C184.604 254.884 184.304 255.208 183.705 255.208H178.942V255.208ZM190.319 237.431V226.604C190.319 225.563 190.064 224.737 189.552 224.126C189.041 223.516 188.344 223.21 187.462 223.21C186.58 223.21 185.883 223.516 185.372 224.126C184.86 224.737 184.604 225.563 184.604 226.604V237.431H190.319V237.431ZM202.596 255.208C201.961 255.208 201.644 254.884 201.644 254.238V227.089C201.644 224.036 202.517 221.567 204.263 219.682C206.009 217.797 208.276 216.854 211.063 216.854C213.956 216.854 216.284 217.797 218.048 219.682C219.812 221.567 220.694 224.036 220.694 227.089V231.775C220.694 233.643 220.35 235.304 219.662 236.758C218.974 238.213 218.013 239.371 216.778 240.233L221.911 254.238L221.964 254.453C221.964 254.705 221.876 254.893 221.699 255.019C221.523 255.145 221.294 255.208 221.012 255.208H215.879C215.632 255.208 215.446 255.136 215.323 254.992C215.2 254.849 215.067 254.615 214.926 254.292L210.798 241.956H208.311V254.238C208.311 254.884 208.011 255.208 207.412 255.208H202.596V255.208ZM210.746 235.762C211.839 235.762 212.659 235.438 213.206 234.792C213.753 234.145 214.026 233.212 214.026 231.991V226.604C214.026 225.563 213.771 224.737 213.259 224.126C212.748 223.516 212.033 223.21 211.116 223.21C210.269 223.21 209.59 223.516 209.079 224.126C208.567 224.737 208.311 225.563 208.311 226.604V235.762H210.746ZM228.526 255.423C227.608 255.423 226.912 255.181 226.436 254.696C225.959 254.211 225.721 253.52 225.721 252.622V220.086C225.721 219.188 225.959 218.497 226.436 218.012C226.912 217.528 227.608 217.285 228.526 217.285H235.035C237.892 217.285 240.194 218.219 241.94 220.086C243.687 221.954 244.56 224.396 244.56 227.412V245.296C244.56 248.313 243.687 250.755 241.94 252.622C240.194 254.49 237.892 255.423 235.035 255.423H228.526V255.423ZM234.664 249.229C235.723 249.229 236.525 248.905 237.072 248.259C237.619 247.612 237.892 246.697 237.892 245.512V227.197C237.892 224.719 236.816 223.48 234.664 223.48H232.336V249.229H234.664V249.229ZM258.001 255.423C255.143 255.423 252.841 254.49 251.095 252.622C249.349 250.755 248.476 248.313 248.476 245.296V227.358C248.476 224.378 249.349 221.954 251.095 220.086C252.841 218.219 255.143 217.285 258.001 217.285H263.557C264.192 217.285 264.51 217.59 264.51 218.201V222.51C264.51 223.156 264.192 223.48 263.557 223.48H258.795C257.666 223.48 256.775 223.848 256.122 224.584C255.47 225.32 255.143 226.317 255.143 227.574V233.176H262.234C262.87 233.176 263.187 233.499 263.187 234.145V238.24C263.187 238.886 262.87 239.209 262.234 239.209H255.143V245.134C255.143 246.392 255.47 247.388 256.122 248.124C256.775 248.86 257.666 249.229 258.795 249.229H263.557C264.192 249.229 264.51 249.534 264.51 250.144V254.508C264.51 255.118 264.192 255.423 263.557 255.423H258.001ZM268.955 255.208C268.32 255.208 268.003 254.884 268.003 254.238V227.035C268.003 224.018 268.867 221.567 270.595 219.682C272.324 217.797 274.617 216.854 277.475 216.854C280.332 216.854 282.634 217.797 284.381 219.682C286.127 221.567 287 224.018 287 227.035V254.238C287 254.884 286.682 255.208 286.047 255.208H281.285C280.65 255.208 280.332 254.884 280.332 254.238V226.55C280.332 225.509 280.077 224.683 279.565 224.072C279.053 223.462 278.357 223.156 277.475 223.156C276.593 223.156 275.896 223.462 275.385 224.072C274.873 224.683 274.617 225.509 274.617 226.55V254.238C274.617 254.884 274.317 255.208 273.718 255.208H268.955Z" fill="#333333"/>
<path d="M93.6572 268.547V266.854H86V279.277H87.888V268.547H93.6572V268.547ZM102.101 279.277V273.362C102.101 271.356 100.86 270.326 98.3949 270.326C97.5556 270.326 96.9264 270.431 96.4193 270.675C95.9822 270.867 95.7552 271.077 95.2657 271.6L96.4369 272.699C96.699 272.368 96.8915 272.193 97.1537 272.071C97.4683 271.914 97.8354 271.844 98.3424 271.844C99.7409 271.844 100.335 272.333 100.335 273.484V274.13H97.9578C96.0698 274.13 94.9159 275.09 94.9159 276.695C94.9159 278.405 96.0174 279.364 97.9927 279.364C99.0417 279.364 99.6185 279.207 100.353 278.474V279.277H102.101V279.277ZM100.335 276.084C100.335 277.375 99.7758 277.899 98.3949 277.899C97.1885 277.899 96.6466 277.497 96.6466 276.642C96.6466 275.805 97.1885 275.386 98.2376 275.386H100.335V276.084V276.084ZM112.083 274.88C112.083 273.833 112.031 273.24 111.891 272.612C111.541 271.077 110.457 270.326 108.884 270.326C107.818 270.326 107.31 270.623 106.594 271.356V270.431H104.846V282.854H106.629V278.37C107.293 279.103 107.888 279.382 108.901 279.382C109.81 279.382 110.58 279.103 111.104 278.579C111.803 277.881 112.083 276.799 112.083 274.88V274.88ZM110.318 274.845C110.318 276.956 109.793 277.794 108.482 277.794C107.171 277.794 106.629 276.956 106.629 274.915C106.629 273.903 106.734 273.24 106.961 272.769C107.241 272.193 107.73 271.914 108.464 271.914C109.793 271.914 110.318 272.734 110.318 274.845V274.845ZM123.324 279.277V270.431H121.575L118.936 275.7L116.279 270.431H114.513V279.277H116.296V273.606L118.376 277.654H119.495L121.541 273.606V279.277H123.324V279.277ZM133.131 274.81C133.131 273.118 132.834 272.141 132.1 271.373C131.436 270.693 130.509 270.326 129.442 270.326C128.376 270.326 127.467 270.693 126.803 271.373C126.051 272.158 125.754 273.118 125.754 274.845C125.754 276.59 126.051 277.55 126.803 278.335C127.467 279.015 128.376 279.382 129.442 279.382C130.509 279.382 131.436 279.015 132.1 278.335C132.851 277.55 133.131 276.59 133.131 274.81ZM131.366 274.88C131.366 275.909 131.243 276.695 130.824 277.201C130.509 277.567 130.037 277.794 129.442 277.794C128.883 277.794 128.428 277.602 128.114 277.236C127.712 276.782 127.537 276.084 127.537 274.915C127.537 273.868 127.642 273.048 128.079 272.507C128.394 272.141 128.848 271.914 129.442 271.914C130.037 271.914 130.491 272.141 130.806 272.49C131.261 272.996 131.366 273.781 131.366 274.88ZM142.659 279.277V270.431H140.876V273.956H137.344V270.431H135.561V279.277H137.344V275.508H140.876V279.277H142.659ZM152.851 279.277V270.431H151.068L147.274 276.433V270.431H145.491V279.277H147.274L151.068 273.188V279.277H152.851ZM162.221 279.277V270.431H158.043C156.347 270.431 155.159 271.565 155.159 273.17C155.159 274.444 155.893 275.386 157.029 275.7L155.036 279.277H157.134L158.812 276.032C158.812 276.032 160.403 276.032 160.438 276.032V279.277H162.221ZM160.456 274.566H158.34C157.449 274.566 156.924 274.06 156.924 273.24C156.924 272.42 157.449 271.914 158.34 271.914H160.456V274.566ZM175.332 271.984V270.431H168.025V271.984H170.839V279.277H172.623V271.984H175.332ZM183.986 275.386V274.584C183.986 271.984 182.535 270.326 180.245 270.326C177.92 270.326 176.486 272.036 176.486 274.81C176.486 277.811 177.85 279.382 180.507 279.382C181.923 279.382 182.78 278.98 183.776 278.003L182.657 276.939C182.028 277.55 181.468 277.864 180.577 277.864C178.916 277.864 178.287 276.869 178.252 275.386H183.986V275.386ZM182.238 274.13H178.252C178.287 272.909 178.811 271.809 180.245 271.809C181.696 271.809 182.15 272.926 182.238 274.13ZM193.478 279.277V270.431H187.377L187.238 275.351C187.185 277.358 186.328 277.724 185.612 277.724H185.245V279.277H186.206C187.849 279.277 188.933 278.23 189.003 275.735L189.108 271.984H191.695V279.277H193.478ZM202.849 279.277V273.362C202.849 271.356 201.607 270.326 199.143 270.326C198.303 270.326 197.674 270.431 197.167 270.675C196.73 270.867 196.503 271.077 196.013 271.6L197.185 272.699C197.447 272.368 197.639 272.193 197.901 272.071C198.216 271.914 198.583 271.844 199.09 271.844C200.489 271.844 201.083 272.333 201.083 273.484V274.13H198.706C196.818 274.13 195.664 275.09 195.664 276.695C195.664 278.405 196.765 279.364 198.74 279.364C199.789 279.364 200.366 279.207 201.101 278.474V279.277H202.849V279.277ZM201.083 276.084C201.083 277.375 200.524 277.899 199.143 277.899C197.936 277.899 197.394 277.497 197.394 276.642C197.394 275.805 197.936 275.386 198.985 275.386H201.083V276.084V276.084ZM217.149 279.277V270.431H215.366L211.572 276.433V270.431H209.789V279.277H211.572L215.366 273.188V279.277H217.149ZM232.358 281.72V277.724H231.134V270.431H225.138V271.67C225.138 274.863 224.736 276.189 224.106 277.724H223.092V281.72H224.788V279.277H230.644V281.72H232.358ZM229.351 277.724H225.942C226.414 276.555 226.764 275.404 226.816 273.432C226.816 273.275 226.834 272.176 226.834 271.984H229.351V277.724ZM240.906 270.431H239.001L236.938 276.677L234.823 270.431H232.917L236.029 278.858L235.539 280.254C235.277 281.004 234.997 281.179 234.263 281.179H233.809V282.784H234.526C235.802 282.784 236.554 282.243 236.99 281.039L240.906 270.431V270.431ZM253.79 279.277V270.431H252.007V277.724H249.018V270.431H247.235V277.724H244.228V270.431H242.445V279.277H253.79ZM264 279.277V270.431H262.217L258.423 276.433V270.431H256.64V279.277H258.423L262.217 273.188V279.277H264Z" fill="#595959"/>
<path d="M176 192.764C179.786 192.764 183.37 189.286 186.103 183.665C189.101 177.497 190.956 168.905 190.956 159.354C190.956 149.803 189.102 141.212 186.103 135.043C183.37 129.422 179.787 125.944 176 125.944C172.213 125.944 168.63 129.422 165.897 135.043C162.898 141.212 161.044 149.803 161.044 159.354C161.044 168.905 162.899 177.497 165.897 183.665C168.63 189.286 172.214 192.764 176 192.764ZM190.615 185.891C187.022 193.282 181.866 197.854 176 197.854C170.134 197.854 164.978 193.282 161.385 185.891C158.058 179.047 156 169.66 156 159.354C156 149.048 158.058 139.661 161.385 132.817C164.978 125.426 170.134 120.854 176 120.854C181.866 120.854 187.022 125.426 190.615 132.817C193.942 139.661 196 149.048 196 159.354C196 169.66 193.942 179.047 190.615 185.891V185.891Z" fill="#E6BE80"/>
<path d="M141.076 130.743C145.972 127.519 152.694 128.555 159.602 132.838C165.996 136.802 172.69 143.629 178.169 152.376C183.646 161.121 186.916 170.203 187.772 177.815C188.697 186.039 186.821 192.739 181.924 195.964C177.028 199.189 170.307 198.153 163.399 193.87C157.005 189.906 150.311 183.081 144.832 174.334L144.787 174.262C139.336 165.536 136.082 156.484 135.228 148.893C134.303 140.669 136.179 133.969 141.076 130.743V130.743ZM157.025 137.222C151.756 133.955 146.92 132.972 143.77 135.047C140.619 137.122 139.481 142.04 140.186 148.313C140.96 155.197 143.969 163.494 149.028 171.57L149.053 171.611C154.106 179.666 160.201 185.907 165.975 189.486C171.244 192.753 176.08 193.736 179.23 191.661C182.381 189.586 183.519 184.668 182.814 178.395C182.039 171.511 179.03 163.214 173.972 155.138C168.915 147.063 162.809 140.808 157.025 137.222V137.222Z" fill="#5FA494"/>
<path d="M207.231 135.047C204.08 132.972 199.244 133.955 193.975 137.222C188.191 140.807 182.085 147.063 177.027 155.138C171.969 163.214 168.96 171.511 168.186 178.395C167.48 184.668 168.619 189.586 171.769 191.661C174.92 193.737 179.756 192.753 185.025 189.486C190.809 185.901 196.915 179.645 201.973 171.57C207.031 163.494 210.04 155.197 210.814 148.312C211.52 142.04 210.381 137.122 207.231 135.047V135.047ZM191.399 132.838C198.306 128.555 205.028 127.519 209.924 130.743C214.821 133.968 216.697 140.669 215.772 148.893C214.915 156.505 211.647 165.587 206.169 174.333C200.691 183.079 193.995 189.906 187.601 193.87C180.693 198.153 173.972 199.189 169.076 195.965C164.179 192.739 162.303 186.039 163.228 177.815C164.085 170.203 167.354 161.121 172.831 152.376C178.309 143.629 185.005 136.802 191.399 132.838V132.838Z" fill="#F08365"/>
</g>
<defs>
<clipPath id="clip0_403_464">
<rect width="350" height="330" fill="white"/>
</clipPath>
</defs>
</svg>
