<svg width="119" height="107" viewBox="0 0 119 107" fill="none" xmlns="http://www.w3.org/2000/svg">
<g opacity="0.4">
<path d="M116.288 1.72795C116.333 1.58501 116.485 1.50576 116.627 1.55102C116.769 1.59628 116.848 1.74894 116.804 1.89189C110.887 20.8138 97.4318 39.7244 79.3033 55.4478C61.7393 70.6816 39.7859 82.9278 16.051 89.2967C15.9063 89.3355 15.7574 89.249 15.7185 89.1035C15.6796 88.958 15.7653 88.8086 15.91 88.7698C39.5657 82.4221 61.4452 70.2173 78.9495 55.0353C97.0047 39.3756 110.402 20.5524 116.288 1.72795V1.72795Z" fill="#5FA494"/>
<path fill-rule="evenodd" clip-rule="evenodd" d="M40.7818 74.5609C40.5903 77.4786 36.1343 79.5805 30.8289 79.2557C25.5236 78.9309 21.378 76.3023 21.5695 73.3846C21.761 70.4669 26.2171 68.365 31.5224 68.6898C36.8277 69.0146 40.9733 71.6432 40.7818 74.5609V74.5609Z" fill="#E6BE80"/>
<path fill-rule="evenodd" clip-rule="evenodd" d="M124.652 44.4163C128.405 42.7928 129.062 35.8988 126.119 29.0183C123.176 22.1378 117.748 17.8762 113.995 19.4998C110.242 21.1234 109.585 28.0173 112.528 34.8978C115.471 41.7783 120.899 46.0399 124.652 44.4163Z" fill="#F08365"/>
<path fill-rule="evenodd" clip-rule="evenodd" d="M99.716 22.36C101.353 28.7751 93.246 36.3906 81.6089 39.3697C69.9717 42.3488 59.2109 39.5634 57.574 33.1483C55.9371 26.7332 64.0439 19.1177 75.6812 16.1385C87.3183 13.1594 98.0791 15.9449 99.716 22.36V22.36Z" fill="#5FA494"/>
<path fill-rule="evenodd" clip-rule="evenodd" d="M92.9782 86.3285C86.448 84.9778 83.2125 74.3789 85.7516 62.6551C88.2907 50.9312 95.6429 42.5221 102.173 43.8728C108.703 45.2235 111.939 55.8224 109.4 67.5463C106.861 79.2701 99.5084 87.6792 92.9782 86.3285V86.3285Z" fill="#5FA494"/>
<path fill-rule="evenodd" clip-rule="evenodd" d="M72.3567 52.9533C71.7937 48.8743 65.3461 46.4014 57.9555 47.4298C50.5649 48.4582 45.03 52.5986 45.593 56.6776C46.156 60.7566 52.6037 63.2296 59.9942 62.2011C67.3849 61.1726 72.9197 57.0323 72.3567 52.9533Z" fill="#F08365"/>
<path fill-rule="evenodd" clip-rule="evenodd" d="M60.6014 74.5249C63.2123 75.9043 63.3605 80.8915 60.9325 85.6641C58.5044 90.4367 54.4194 93.1874 51.8085 91.808C49.1976 90.4285 49.0494 85.4413 51.4775 80.6687C53.9056 75.8962 57.9905 73.1455 60.6014 74.5249Z" fill="#E6BE80"/>
</g>
</svg>
