<svg width="303" height="53" viewBox="0 0 303 53" fill="none" xmlns="http://www.w3.org/2000/svg">
<path opacity="0.3" d="M20.9345 25.1426C22.4109 26.292 23.5542 27.6928 24.3638 29.3452C25.1734 30.9976 25.5785 32.829 25.5785 34.8408V37.8576C25.5785 41.9765 24.4114 45.2689 22.0777 47.7354C19.7436 50.2018 16.6712 51.4346 12.8606 51.4346H3.78679C2.69113 51.4346 1.7863 51.0757 1.07187 50.3574C0.356995 49.639 0 48.7289 0 47.6277V13.4334C0 9.41068 1.13137 6.17806 3.39366 3.73555C5.65639 1.29304 8.62121 0.0717809 12.289 0.0717809C16.0044 0.0717809 19.0054 1.29304 21.2915 3.73555C23.578 6.17806 24.7213 9.41068 24.7213 13.4334V16.3071C24.7689 18.127 24.459 19.8029 23.7922 21.3357C23.1254 22.868 22.1729 24.1371 20.9345 25.1426V25.1426ZM8.93105 21.7664H12.3604C13.4561 21.7664 14.3014 21.3716 14.8968 20.581C15.4923 19.7909 15.7902 18.7013 15.7902 17.3125V12.6433C15.7902 11.3502 15.4685 10.3204 14.8254 9.55425C14.1824 8.78808 13.3133 8.40478 12.2176 8.40478C11.1695 8.40478 10.3599 8.78808 9.78828 9.55425C9.21665 10.3204 8.93105 11.3502 8.93105 12.6433V21.7664ZM16.5046 34.5532C16.5046 33.0209 16.1591 31.8356 15.4685 30.9976C14.7778 30.1592 13.8373 29.7404 12.6464 29.7404H8.93105V43.2456H12.6464C13.8849 43.2456 14.8373 42.8384 15.5042 42.0244C16.171 41.2103 16.5046 40.0609 16.5046 38.5759V34.5532V34.5532ZM41.9403 51.9375C38.0345 51.9375 34.867 50.6804 32.4376 48.1661C30.0083 45.6518 28.7936 42.3354 28.7936 38.217V13.7928C28.7936 9.6739 30.0083 6.35754 32.4376 3.84324C34.867 1.32894 38.0345 0.0717809 41.9403 0.0717809C45.8461 0.0717809 49.0018 1.31697 51.4073 3.80734C53.8124 6.29771 55.0152 9.55425 55.0152 13.577V38.4324C55.0152 42.4551 53.8124 45.7121 51.4073 48.202C49.0018 50.6924 45.8461 51.9375 41.9403 51.9375V51.9375ZM41.9403 43.5328C43.1788 43.5328 44.1669 43.1379 44.9051 42.3474C45.6438 41.5573 46.0127 40.4677 46.0127 39.0789V12.9304C46.0127 11.5417 45.6438 10.4405 44.9051 9.62604C44.1669 8.81202 43.1788 8.40478 41.9403 8.40478C40.7019 8.40478 39.7014 8.82397 38.9394 9.66192C38.1773 10.5003 37.7961 11.6613 37.7961 13.1462V38.8635C37.7961 40.3002 38.1654 41.4377 38.9037 42.2756C39.6419 43.1136 40.6543 43.5328 41.9403 43.5328V43.5328ZM62.0885 51.1475C61.2313 51.1475 60.8024 50.7163 60.8024 49.8544V13.577C60.8024 9.55425 61.9695 6.28575 64.3032 3.77145C66.6373 1.25714 69.7335 0 73.5917 0C77.4499 0 80.558 1.25714 82.9159 3.77145C85.2734 6.28575 86.4523 9.55425 86.4523 13.577V49.8544C86.4523 50.7163 86.0235 51.1475 85.1663 51.1475H78.736C77.8787 51.1475 77.4499 50.7163 77.4499 49.8544V12.9304C77.4499 11.5417 77.1044 10.4405 76.4137 9.62604C75.7231 8.81202 74.7826 8.40478 73.5917 8.40478C72.4008 8.40478 71.4603 8.81202 70.7697 9.62604C70.0786 10.4405 69.7335 11.5417 69.7335 12.9304V49.8544C69.7335 50.7163 69.3285 51.1475 68.5188 51.1475H62.0885V51.1475ZM94.0259 51.1475C93.1687 51.1475 92.7399 50.7163 92.7399 49.8544V13.6492C92.7399 9.57818 93.9188 6.29771 96.2763 3.80734C98.6342 1.31697 101.719 0.0717809 105.529 0.0717809C109.387 0.0717809 112.495 1.31697 114.853 3.80734C117.211 6.29771 118.39 9.57818 118.39 13.6492V49.8544C118.39 50.7163 117.961 51.1475 117.104 51.1475H110.673C109.816 51.1475 109.387 50.7163 109.387 49.8544V35.7027H101.671V49.8544C101.671 50.7163 101.266 51.1475 100.456 51.1475H94.0259ZM109.387 27.4415V13.0027C109.387 11.6135 109.042 10.5123 108.351 9.69782C107.66 8.8838 106.72 8.47656 105.529 8.47656C104.338 8.47656 103.398 8.8838 102.707 9.69782C102.016 10.5123 101.671 11.6135 101.671 13.0027V27.4415H109.387V27.4415ZM137.109 52.0093C133.251 52.0093 130.131 50.7641 127.75 48.2742C125.368 45.7838 124.177 42.5034 124.177 38.4324V13.5052C124.177 9.48247 125.344 6.22592 127.678 3.73555C130.012 1.24518 133.084 0 136.895 0C140.563 0 143.587 1.28108 145.969 3.84324C148.35 6.4054 149.589 9.79398 149.684 14.0081C149.684 14.87 149.279 15.3012 148.469 15.3012H142.039C141.23 15.3012 140.777 14.8939 140.682 14.0799C140.634 12.1643 140.265 10.7396 139.574 9.80594C138.883 8.87183 137.991 8.40478 136.895 8.40478C135.704 8.40478 134.787 8.80005 134.144 9.59014C133.501 10.3802 133.179 11.4699 133.179 12.8586V39.0789C133.179 40.4677 133.561 41.5693 134.323 42.3833C135.085 43.1978 136.085 43.6046 137.324 43.6046C138.515 43.6046 139.479 43.2097 140.217 42.4192C140.955 41.6291 141.325 40.5877 141.325 39.2947V31.1771H138.467C137.609 31.1771 137.181 30.7459 137.181 29.884V24.7118C137.181 23.8495 137.609 23.4188 138.467 23.4188H146.469C147.66 23.4188 148.577 23.7418 149.22 24.3884C149.863 25.0349 150.184 25.981 150.184 27.2261V38.6482C150.184 42.623 148.982 45.8437 146.576 48.3101C144.171 50.7761 141.015 52.0093 137.109 52.0093V52.0093ZM156.543 51.1475C155.686 51.1475 155.257 50.7163 155.257 49.8544V13.6492C155.257 9.57818 156.436 6.29771 158.794 3.80734C161.152 1.31697 164.236 0.0717809 168.046 0.0717809C171.905 0.0717809 175.013 1.31697 177.371 3.80734C179.728 6.29771 180.907 9.57818 180.907 13.6492V49.8544C180.907 50.7163 180.478 51.1475 179.621 51.1475H173.191C172.333 51.1475 171.905 50.7163 171.905 49.8544V35.7027H164.188V49.8544C164.188 50.7163 163.783 51.1475 162.974 51.1475H156.543V51.1475ZM171.905 27.4415V13.0027C171.905 11.6135 171.559 10.5123 170.868 9.69782C170.178 8.8838 169.237 8.47656 168.046 8.47656C166.856 8.47656 165.915 8.8838 165.224 9.69782C164.533 10.5123 164.188 11.6135 164.188 13.0027V27.4415H171.905V27.4415ZM188.481 51.1475C187.623 51.1475 187.195 50.7163 187.195 49.8544V13.6492C187.195 9.57818 188.374 6.28575 190.731 3.77145C193.089 1.25714 196.149 0 199.912 0C203.818 0 206.962 1.25714 209.344 3.77145C211.725 6.28575 212.916 9.57818 212.916 13.6492V19.8986C212.916 22.389 212.452 24.6042 211.523 26.5437C210.594 28.4833 209.296 30.0276 207.629 31.1771L214.559 49.8544L214.631 50.1415C214.631 50.477 214.512 50.7282 214.273 50.8962C214.035 51.0637 213.726 51.1475 213.345 51.1475H206.414C206.081 51.1475 205.831 51.0517 205.664 50.8603C205.497 50.6684 205.319 50.3574 205.128 49.9262L199.555 33.4756H196.197V49.8544C196.197 50.7163 195.792 51.1475 194.982 51.1475H188.481V51.1475ZM199.484 25.2148C200.961 25.2148 202.068 24.7836 202.806 23.9217C203.545 23.0594 203.913 21.8142 203.913 20.1862V13.0027C203.913 11.6135 203.568 10.5123 202.878 9.69782C202.187 8.8838 201.222 8.47656 199.984 8.47656C198.841 8.47656 197.924 8.8838 197.233 9.69782C196.543 10.5123 196.197 11.6135 196.197 13.0027V25.2148H199.484ZM223.49 51.4346C222.252 51.4346 221.311 51.1116 220.668 50.465C220.025 49.8185 219.703 48.8964 219.703 47.6995V4.31029C219.703 3.11297 220.025 2.19126 220.668 1.54473C221.311 0.898212 222.252 0.574734 223.49 0.574734H232.278C236.136 0.574734 239.245 1.81992 241.602 4.31029C243.96 6.80067 245.139 10.0572 245.139 14.0799V37.9294C245.139 41.9526 243.96 45.2091 241.602 47.6995C239.245 50.1899 236.136 51.4346 232.278 51.4346H223.49V51.4346ZM231.778 43.1738C233.207 43.1738 234.291 42.7427 235.029 41.8808C235.768 41.0185 236.136 39.7972 236.136 38.217V13.7928C236.136 10.4884 234.684 8.83594 231.778 8.83594H228.634V43.1738H231.778V43.1738ZM263.287 51.4346C259.429 51.4346 256.321 50.1899 253.963 47.6995C251.605 45.2091 250.426 41.9526 250.426 37.9294V14.0081C250.426 10.0333 251.605 6.80067 253.963 4.31029C256.321 1.81992 259.429 0.574734 263.287 0.574734H270.789C271.646 0.574734 272.075 0.98197 272.075 1.79599V7.5429C272.075 8.40478 271.646 8.83594 270.789 8.83594H264.359C262.835 8.83594 261.632 9.32692 260.751 10.3085C259.87 11.2904 259.429 12.6194 259.429 14.2957V21.7664H269.003C269.861 21.7664 270.289 22.1975 270.289 23.0594V28.5192C270.289 29.3811 269.861 29.8122 269.003 29.8122H259.429V37.7141C259.429 39.3904 259.87 40.7193 260.751 41.7009C261.632 42.6828 262.835 43.1738 264.359 43.1738H270.789C271.646 43.1738 272.075 43.5806 272.075 44.3946V50.2138C272.075 51.0278 271.646 51.4346 270.789 51.4346H263.287ZM278.077 51.1475C277.22 51.1475 276.791 50.7163 276.791 49.8544V13.577C276.791 9.55425 277.958 6.28575 280.292 3.77145C282.626 1.25714 285.722 0 289.58 0C293.439 0 296.547 1.25714 298.905 3.77145C301.262 6.28575 302.441 9.55425 302.441 13.577V49.8544C302.441 50.7163 302.012 51.1475 301.155 51.1475H294.725C293.867 51.1475 293.439 50.7163 293.439 49.8544V12.9304C293.439 11.5417 293.093 10.4405 292.402 9.62604C291.712 8.81202 290.771 8.40478 289.58 8.40478C288.39 8.40478 287.449 8.81202 286.758 9.62604C286.067 10.4405 285.722 11.5417 285.722 12.9304V49.8544C285.722 50.7163 285.317 51.1475 284.508 51.1475H278.077Z" fill="#B7D3CC"/>
</svg>
