<svg width="354" height="117" viewBox="0 0 354 117" fill="none" xmlns="http://www.w3.org/2000/svg">
<path d="M2.84752 112.966C0.949172 112.966 0 112.013 0 110.106V30.029C0 21.0256 2.58386 13.7699 7.75157 8.26194C13.0248 2.75398 19.8799 0 28.317 0C36.8595 0 43.7147 2.75398 48.8824 8.26194C54.1556 13.7699 56.7921 21.0256 56.7921 30.029V110.106C56.7921 112.013 55.843 112.966 53.9446 112.966H39.707C37.8087 112.966 36.8595 112.013 36.8595 110.106V78.8062H19.7744V110.106C19.7744 112.013 18.878 112.966 17.0851 112.966H2.84752ZM36.8595 60.5346V28.599C36.8595 25.5273 36.0685 23.0911 34.4866 21.2904C33.0101 19.4897 30.9536 18.5894 28.317 18.5894C25.6804 18.5894 23.5711 19.4897 21.9892 21.2904C20.5127 23.0911 19.7744 25.5273 19.7744 28.599V60.5346H36.8595Z" fill="white"/>
<path d="M92.0913 114.714C83.9706 114.714 77.4318 112.278 72.475 107.405C67.5183 102.533 65.0399 96.1245 65.0399 88.1804C65.0399 81.1895 67.4128 75.4697 72.1587 71.0209C77.01 66.4663 83.2323 64.189 90.8257 64.189H98.7355V57.357C98.7355 54.9207 98.1027 53.0141 96.8371 51.6372C95.5716 50.1542 93.8314 49.4128 91.6167 49.4128C89.4019 49.4128 87.7145 50.0483 86.5544 51.3194C85.3943 52.5905 84.7616 54.2852 84.6561 56.4037C84.5506 57.7806 83.6015 58.4691 81.8086 58.4691H68.8365C67.0437 58.4691 66.1472 57.5158 66.1472 55.6092C66.78 48.4065 69.4166 42.6338 74.057 38.2909C78.6974 33.8422 84.6034 31.6178 91.7749 31.6178C99.4737 31.6178 105.643 34.107 110.284 39.0853C115.03 44.0637 117.403 50.525 117.403 58.4691V88.9748C117.403 96.813 115.135 103.062 110.6 107.723C106.171 112.384 100.001 114.714 92.0913 114.714ZM91.7749 96.919C93.9896 96.919 95.677 96.2305 96.8371 94.8535C98.1027 93.4765 98.7355 91.5699 98.7355 89.1337V80.554H91.9331C89.402 80.554 87.3981 81.2425 85.9217 82.6194C84.5506 83.9964 83.8651 85.8501 83.8651 88.1804C83.8651 90.9343 84.5506 93.1058 85.9217 94.6946C87.2927 96.1775 89.2438 96.919 91.7749 96.919Z" fill="white"/>
<path d="M153.86 23.8293C153.454 23.8293 153.25 23.6285 153.25 23.2269V6.35895C153.25 4.46242 153.792 2.93404 154.876 1.77381C155.982 0.59127 157.427 0 159.211 0C161.062 0 162.552 0.59127 163.681 1.77381C164.81 2.93404 165.375 4.46242 165.375 6.35895V9.53842C165.375 11.3903 164.821 12.8852 163.715 14.0232C162.609 15.1611 161.141 15.73 159.313 15.73H157.484V23.2269C157.484 23.6285 157.292 23.8293 156.908 23.8293H153.86ZM159.042 11.8812C160.419 11.8812 161.107 11.1449 161.107 9.67229V6.05773C161.107 5.41068 160.938 4.89751 160.599 4.5182C160.283 4.13889 159.843 3.94924 159.279 3.94924C158.737 3.94924 158.297 4.13889 157.958 4.5182C157.642 4.89751 157.484 5.41068 157.484 6.05773V11.8812H159.042Z" fill="#F5F5F5"/>
<path d="M175.361 0.970576C175.361 0.59127 175.553 0.401617 175.937 0.401617H178.985C179.368 0.401617 179.56 0.59127 179.56 0.970576V23.2269C179.56 23.6285 179.368 23.8293 178.985 23.8293H175.937C175.553 23.8293 175.361 23.6285 175.361 23.2269V13.9227H171.94V23.2269C171.94 23.6285 171.737 23.8293 171.331 23.8293H168.317C167.91 23.8293 167.707 23.6285 167.707 23.2269V0.970576C167.707 0.59127 167.91 0.401617 168.317 0.401617H171.331C171.737 0.401617 171.94 0.59127 171.94 0.970576V10.0739H175.361V0.970576Z" fill="#F5F5F5"/>
<path d="M188.577 23.9632C186.748 23.9632 185.269 23.3831 184.14 22.2228C183.034 21.0626 182.481 19.5454 182.481 17.6712V6.52629C182.481 4.67438 183.034 3.16832 184.14 2.00809C185.269 0.847859 186.748 0.267744 188.577 0.267744H192.133C192.539 0.267744 192.743 0.457397 192.743 0.836703V3.51415C192.743 3.91577 192.539 4.11658 192.133 4.11658H189.085C188.362 4.11658 187.787 4.35086 187.358 4.81941C186.951 5.26565 186.748 5.87924 186.748 6.66016V10.1408H191.286C191.693 10.1408 191.896 10.3417 191.896 10.7433V13.2869C191.896 13.6885 191.693 13.8893 191.286 13.8893H186.748V17.5708C186.748 18.3517 186.951 18.9764 187.358 19.445C187.787 19.8912 188.362 20.1144 189.085 20.1144H192.133C192.539 20.1144 192.743 20.304 192.743 20.6833V23.3942C192.743 23.7735 192.539 23.9632 192.133 23.9632H188.577Z" fill="#F5F5F5"/>
<path d="M195.598 23.8293C195.191 23.8293 194.988 23.6285 194.988 23.2269V6.32548C194.988 4.45126 195.541 2.93404 196.647 1.77381C197.754 0.59127 199.221 0 201.05 0C202.879 0 204.346 0.59127 205.453 1.77381C206.582 2.93404 207.146 4.45126 207.146 6.32548V23.2269C207.146 23.6285 206.943 23.8293 206.536 23.8293H203.488C203.082 23.8293 202.879 23.6285 202.879 23.2269V6.02427C202.879 5.37721 202.71 4.86404 202.371 4.48473C202.055 4.10543 201.615 3.91577 201.05 3.91577C200.486 3.91577 200.034 4.10543 199.695 4.48473C199.379 4.86404 199.221 5.37721 199.221 6.02427V23.2269C199.221 23.6285 199.029 23.8293 198.646 23.8293H195.598Z" fill="#F5F5F5"/>
<path d="M216.13 24.1975C214.278 24.1975 212.777 23.6174 211.625 22.4571C210.474 21.2746 209.898 19.7239 209.898 17.8051V6.42588C209.898 4.50704 210.474 2.96751 211.625 1.80728C212.777 0.624738 214.278 0.0334677 216.13 0.0334677C217.981 0.0334677 219.471 0.613582 220.6 1.77381C221.751 2.93404 222.327 4.45126 222.327 6.32548V17.9055C222.327 19.7797 221.751 21.2969 220.6 22.4571C219.471 23.6174 217.981 24.1975 216.13 24.1975ZM216.13 20.2817C216.717 20.2817 217.179 20.1032 217.518 19.7462C217.879 19.3669 218.06 18.8537 218.06 18.2067V6.02427C218.06 5.37721 217.879 4.86404 217.518 4.48473C217.179 4.10543 216.717 3.91577 216.13 3.91577C215.543 3.91577 215.068 4.11658 214.707 4.5182C214.346 4.89751 214.165 5.43299 214.165 6.12467V18.1063C214.165 18.7756 214.335 19.3111 214.673 19.7127C215.035 20.092 215.52 20.2817 216.13 20.2817Z" fill="#F5F5F5"/>
<path d="M238.36 0C240.143 0 241.566 0.59127 242.627 1.77381C243.688 2.93404 244.218 4.47357 244.218 6.39241V23.2269C244.218 23.6285 244.015 23.8293 243.609 23.8293H240.595C240.211 23.8293 240.019 23.6285 240.019 23.2269V6.0912C240.019 5.39953 239.872 4.87519 239.579 4.5182C239.308 4.13889 238.901 3.94924 238.36 3.94924C237.84 3.94924 237.434 4.13889 237.14 4.5182C236.869 4.87519 236.734 5.39953 236.734 6.0912V23.2269C236.734 23.6285 236.531 23.8293 236.124 23.8293H233.144C232.76 23.8293 232.568 23.6285 232.568 23.2269V6.0912C232.568 5.42184 232.422 4.89751 232.128 4.5182C231.835 4.13889 231.428 3.94924 230.909 3.94924C230.39 3.94924 229.983 4.13889 229.69 4.5182C229.419 4.87519 229.283 5.39953 229.283 6.0912V23.2269C229.283 23.6285 229.08 23.8293 228.674 23.8293H225.694C225.287 23.8293 225.084 23.6285 225.084 23.2269V6.39241C225.084 4.47357 225.615 2.93404 226.676 1.77381C227.737 0.59127 229.148 0 230.909 0C232.331 0 233.573 0.490866 234.634 1.4726C235.741 0.490866 236.982 0 238.36 0Z" fill="#F5F5F5"/>
<path d="M253.068 23.9632C251.24 23.9632 249.761 23.3831 248.632 22.2228C247.526 21.0626 246.972 19.5454 246.972 17.6712V6.52629C246.972 4.67438 247.526 3.16832 248.632 2.00809C249.761 0.847859 251.24 0.267744 253.068 0.267744H256.624C257.031 0.267744 257.234 0.457397 257.234 0.836703V3.51415C257.234 3.91577 257.031 4.11658 256.624 4.11658H253.576C252.854 4.11658 252.278 4.35086 251.849 4.81941C251.443 5.26565 251.24 5.87924 251.24 6.66016V10.1408H255.778C256.184 10.1408 256.387 10.3417 256.387 10.7433V13.2869C256.387 13.6885 256.184 13.8893 255.778 13.8893H251.24V17.5708C251.24 18.3517 251.443 18.9764 251.849 19.445C252.278 19.8912 252.854 20.1144 253.576 20.1144H256.624C257.031 20.1144 257.234 20.304 257.234 20.6833V23.3942C257.234 23.7735 257.031 23.9632 256.624 23.9632H253.068Z" fill="#F5F5F5"/>
<path d="M260.089 23.8293C259.683 23.8293 259.479 23.6285 259.479 23.2269V6.32548C259.479 4.45126 260.033 2.93404 261.139 1.77381C262.245 0.59127 263.713 0 265.542 0C267.37 0 268.838 0.59127 269.944 1.77381C271.073 2.93404 271.637 4.45126 271.637 6.32548V23.2269C271.637 23.6285 271.434 23.8293 271.028 23.8293H267.98C267.573 23.8293 267.37 23.6285 267.37 23.2269V6.02427C267.37 5.37721 267.201 4.86404 266.862 4.48473C266.546 4.10543 266.106 3.91577 265.542 3.91577C264.977 3.91577 264.526 4.10543 264.187 4.48473C263.871 4.86404 263.713 5.37721 263.713 6.02427V23.2269C263.713 23.6285 263.521 23.8293 263.137 23.8293H260.089Z" fill="#F5F5F5"/>
<path d="M275.236 23.8293C274.83 23.8293 274.627 23.6285 274.627 23.2269V6.35895C274.627 4.46242 275.18 2.93404 276.286 1.77381C277.415 0.613582 278.883 0.0334677 280.689 0.0334677C282.518 0.0334677 283.985 0.613582 285.091 1.77381C286.22 2.93404 286.785 4.46242 286.785 6.35895V23.2269C286.785 23.6285 286.581 23.8293 286.175 23.8293H283.127C282.721 23.8293 282.518 23.6285 282.518 23.2269V16.6337H278.86V23.2269C278.86 23.6285 278.668 23.8293 278.284 23.8293H275.236ZM282.518 12.7848V6.05773C282.518 5.41068 282.348 4.89751 282.01 4.5182C281.693 4.13889 281.253 3.94924 280.689 3.94924C280.124 3.94924 279.673 4.13889 279.334 4.5182C279.018 4.89751 278.86 5.41068 278.86 6.05773V12.7848H282.518Z" fill="#F5F5F5"/>
<path d="M153.531 63.6508C153.344 63.6508 153.25 63.5599 153.25 63.3782V55.7453C153.25 54.8871 153.505 54.1955 154.014 53.6705C154.533 53.1455 155.209 52.883 156.04 52.883C156.881 52.883 157.556 53.1455 158.065 53.6705C158.585 54.1955 158.844 54.8871 158.844 55.7453V63.3782C158.844 63.5599 158.751 63.6508 158.564 63.6508H157.162C156.975 63.6508 156.881 63.5599 156.881 63.3782V60.3947H155.198V63.3782C155.198 63.5599 155.11 63.6508 154.933 63.6508H153.531ZM156.881 58.6531V55.609C156.881 55.3162 156.803 55.084 156.647 54.9124C156.502 54.7407 156.299 54.6549 156.04 54.6549C155.78 54.6549 155.572 54.7407 155.416 54.9124C155.271 55.084 155.198 55.3162 155.198 55.609V58.6531H156.881Z" fill="#F5F5F5"/>
<path d="M164.272 63.7114C164.012 63.7114 163.809 63.6407 163.664 63.4993C163.518 63.358 163.446 63.1611 163.446 62.9087V55.8968C163.446 55.3314 163.57 54.8265 163.82 54.3823C164.069 53.9381 164.422 53.5948 164.879 53.3525C165.336 53.1102 165.861 52.989 166.453 52.989H168.261C168.344 52.989 168.411 53.0142 168.463 53.0647C168.515 53.1152 168.541 53.1758 168.541 53.2465V54.458C168.541 54.5287 168.515 54.5943 168.463 54.6549C168.411 54.7054 168.344 54.7306 168.261 54.7306H166.453C166.131 54.7306 165.871 54.8366 165.674 55.0487C165.487 55.2607 165.394 55.5434 165.394 55.8968V57.2143H166.282C167.165 57.2143 167.835 57.492 168.292 58.0473C168.759 58.6026 168.993 59.3093 168.993 60.1675V60.7733C168.993 61.7224 168.764 62.4493 168.307 62.9541C167.861 63.459 167.185 63.7114 166.282 63.7114H164.272ZM166.141 61.9697C166.422 61.9697 166.64 61.8637 166.796 61.6517C166.952 61.4397 167.03 61.1469 167.03 60.7733V60.1675C167.03 59.794 166.952 59.5012 166.796 59.2891C166.64 59.067 166.422 58.956 166.141 58.956H165.394V61.9697H166.141Z" fill="#F5F5F5"/>
<path d="M177.735 58.1684C178.057 58.4108 178.306 58.7086 178.483 59.062C178.659 59.4053 178.748 59.7889 178.748 60.213V60.849C178.748 61.7173 178.493 62.414 177.984 62.939C177.475 63.4539 176.805 63.7114 175.974 63.7114H173.995C173.756 63.7114 173.559 63.6356 173.403 63.4842C173.247 63.3327 173.169 63.1409 173.169 62.9087V55.6999C173.169 54.8518 173.413 54.1703 173.902 53.6554C174.4 53.1404 175.05 52.883 175.849 52.883C176.66 52.883 177.314 53.1404 177.813 53.6554C178.311 54.1703 178.561 54.8518 178.561 55.6999V56.3057C178.571 56.6893 178.504 57.0427 178.358 57.3658C178.213 57.6889 178.005 57.9564 177.735 58.1684ZM175.117 57.4567H175.865C176.104 57.4567 176.286 57.3759 176.41 57.2143C176.545 57.0427 176.613 56.8105 176.613 56.5177V55.5333C176.613 55.2607 176.54 55.0436 176.395 54.8821C176.26 54.7205 176.073 54.6398 175.834 54.6398C175.605 54.6398 175.429 54.7205 175.304 54.8821C175.179 55.0436 175.117 55.2607 175.117 55.5333V57.4567ZM176.769 60.1524C176.769 59.8293 176.691 59.5819 176.535 59.4103C176.39 59.2286 176.187 59.1377 175.927 59.1377H175.117V61.9849H175.927C176.197 61.9849 176.405 61.8991 176.551 61.7274C176.696 61.5558 176.769 61.3135 176.769 61.0005V60.1524Z" fill="#F5F5F5"/>
<path d="M183.326 63.6508C183.139 63.6508 183.045 63.5599 183.045 63.3782V56.0634C183.045 55.1042 183.315 54.352 183.855 53.8068C184.395 53.2616 185.138 52.989 186.084 52.989H187.642C187.714 52.989 187.777 53.0193 187.829 53.0799C187.881 53.1304 187.907 53.1909 187.907 53.2616V54.4732C187.907 54.5438 187.881 54.6095 187.829 54.6701C187.777 54.7205 187.714 54.7458 187.642 54.7458H186.13C185.382 54.7458 185.008 55.1395 185.008 55.927V63.3782C185.008 63.5599 184.92 63.6508 184.743 63.6508H183.326Z" fill="#F5F5F5"/>
<path d="M191.728 65.4227C191.551 65.4227 191.463 65.3318 191.463 65.1501V62.6815C191.463 62.4695 191.515 62.2878 191.619 62.1363C191.733 61.9849 191.894 61.8435 192.102 61.7123C192.289 61.6012 192.434 61.4498 192.538 61.2579C192.653 61.056 192.736 60.7632 192.788 60.3796C192.84 59.9858 192.866 59.4507 192.866 58.7742V55.7907C192.866 54.9527 193.125 54.2763 193.645 53.7614C194.164 53.2364 194.844 52.9739 195.686 52.9739H197.4C197.691 52.9739 197.909 53.0496 198.054 53.201C198.21 53.3525 198.288 53.5695 198.288 53.8522V61.7729L198.319 61.9092C198.61 61.9092 198.833 62.0051 198.989 62.1969C199.155 62.3786 199.239 62.631 199.239 62.9541V65.1501C199.239 65.3318 199.15 65.4227 198.974 65.4227H197.618C197.535 65.4227 197.467 65.3975 197.415 65.347C197.364 65.2965 197.338 65.2309 197.338 65.1501V63.6508H193.349V65.1501C193.349 65.3318 193.26 65.4227 193.084 65.4227H191.728ZM196.356 61.9092V54.7306H195.733C195.452 54.7306 195.229 54.8265 195.063 55.0184C194.907 55.2102 194.829 55.4626 194.829 55.7756V59.1831C194.829 59.9707 194.772 60.5714 194.657 60.9853C194.554 61.3993 194.361 61.7072 194.081 61.9092H196.356Z" fill="#F5F5F5"/>
<path d="M205.994 63.7114C205.153 63.7114 204.473 63.4489 203.953 62.9238C203.444 62.3988 203.19 61.7123 203.19 60.8642V55.821C203.19 54.983 203.444 54.3015 203.953 53.7765C204.473 53.2515 205.153 52.989 205.994 52.989H207.63C207.817 52.989 207.911 53.0748 207.911 53.2465V54.458C207.911 54.6398 207.817 54.7306 207.63 54.7306H206.228C205.896 54.7306 205.631 54.8366 205.433 55.0487C205.246 55.2506 205.153 55.5282 205.153 55.8816V57.4567H207.241C207.428 57.4567 207.521 57.5475 207.521 57.7293V58.8802C207.521 59.062 207.428 59.1528 207.241 59.1528H205.153V60.8187C205.153 61.1721 205.246 61.4548 205.433 61.6668C205.631 61.8688 205.896 61.9697 206.228 61.9697H207.63C207.817 61.9697 207.911 62.0556 207.911 62.2272V63.4539C207.911 63.6255 207.817 63.7114 207.63 63.7114H205.994Z" fill="#F5F5F5"/>
<path d="M214.866 63.7114C214.024 63.7114 213.344 63.4489 212.825 62.9238C212.316 62.3988 212.061 61.7123 212.061 60.8642V55.821C212.061 54.983 212.316 54.3015 212.825 53.7765C213.344 53.2515 214.024 52.989 214.866 52.989H216.502C216.689 52.989 216.782 53.0748 216.782 53.2465V54.458C216.782 54.6398 216.689 54.7306 216.502 54.7306H215.099C214.767 54.7306 214.502 54.8366 214.305 55.0487C214.118 55.2506 214.024 55.5282 214.024 55.8816V57.4567H216.112C216.299 57.4567 216.393 57.5475 216.393 57.7293V58.8802C216.393 59.062 216.299 59.1528 216.112 59.1528H214.024V60.8187C214.024 61.1721 214.118 61.4548 214.305 61.6668C214.502 61.8688 214.767 61.9697 215.099 61.9697H216.502C216.689 61.9697 216.782 62.0556 216.782 62.2272V63.4539C216.782 63.6255 216.689 63.7114 216.502 63.7114H214.866ZM213.588 51.9743C213.339 51.9743 213.141 51.9036 212.996 51.7623C212.85 51.6108 212.778 51.419 212.778 51.1868C212.778 50.9546 212.85 50.7678 212.996 50.6264C213.141 50.475 213.339 50.3993 213.588 50.3993C213.827 50.3993 214.019 50.475 214.165 50.6264C214.31 50.7678 214.383 50.9546 214.383 51.1868C214.383 51.419 214.31 51.6108 214.165 51.7623C214.019 51.9036 213.827 51.9743 213.588 51.9743ZM215.738 51.9743C215.499 51.9743 215.302 51.9036 215.146 51.7623C215.001 51.6108 214.928 51.419 214.928 51.1868C214.928 50.9546 215.001 50.7678 215.146 50.6264C215.302 50.475 215.499 50.3993 215.738 50.3993C215.977 50.3993 216.175 50.475 216.33 50.6264C216.486 50.7678 216.564 50.9546 216.564 51.1868C216.564 51.419 216.486 51.6108 216.33 51.7623C216.175 51.9036 215.977 51.9743 215.738 51.9743Z" fill="#F5F5F5"/>
<path d="M221.306 63.6508C221.119 63.6508 221.026 63.5599 221.026 63.3782V60.319C221.026 59.8344 221.114 59.3952 221.291 59.0014C221.478 58.5975 221.732 58.2846 222.054 58.0624L220.948 53.3373C220.938 53.3171 220.932 53.2919 220.932 53.2616C220.932 53.201 220.953 53.1505 220.995 53.1102C221.047 53.0698 221.114 53.0496 221.197 53.0496H222.569C222.735 53.0496 222.833 53.1253 222.865 53.2767L223.753 57.5021H224.547V53.307C224.547 53.1354 224.636 53.0496 224.812 53.0496H226.184C226.371 53.0496 226.464 53.1354 226.464 53.307V57.5021H227.243L228.131 53.2767C228.162 53.1253 228.266 53.0496 228.443 53.0496H229.814C229.908 53.0496 229.975 53.0799 230.017 53.1404C230.058 53.1909 230.069 53.2566 230.048 53.3373L228.957 58.0624C229.279 58.2947 229.529 58.6076 229.705 59.0014C229.882 59.3952 229.97 59.8344 229.97 60.319V63.3782C229.97 63.5599 229.877 63.6508 229.69 63.6508H228.287C228.111 63.6508 228.022 63.5599 228.022 63.3782V60.2735C228.022 59.9404 227.939 59.688 227.773 59.5163C227.617 59.3346 227.383 59.2437 227.072 59.2437H226.464V63.3782C226.464 63.5599 226.371 63.6508 226.184 63.6508H224.812C224.636 63.6508 224.547 63.5599 224.547 63.3782V59.2437H223.924C223.301 59.2437 222.989 59.587 222.989 60.2735V63.3782C222.989 63.5599 222.896 63.6508 222.709 63.6508H221.306Z" fill="#F5F5F5"/>
<path d="M237.016 63.7417C236.195 63.7417 235.531 63.5044 235.022 63.0299C234.523 62.5553 234.248 61.9142 234.196 61.1065V61.0762C234.196 60.9147 234.284 60.8339 234.461 60.8339H235.894C236.06 60.8339 236.149 60.9248 236.159 61.1065C236.19 61.3892 236.284 61.6063 236.439 61.7577C236.595 61.9092 236.803 61.9849 237.063 61.9849C237.364 61.9849 237.598 61.894 237.764 61.7123C237.941 61.5305 238.029 61.2882 238.029 60.9853V60.1827C238.029 59.8596 237.941 59.6021 237.764 59.4103C237.598 59.2185 237.359 59.1226 237.047 59.1226H236.034C235.858 59.1226 235.769 59.0317 235.769 58.85V57.699C235.769 57.5172 235.858 57.4264 236.034 57.4264H236.938C237.198 57.4264 237.4 57.3405 237.546 57.1689C237.691 56.9872 237.764 56.755 237.764 56.4723V55.503C237.764 55.2304 237.696 55.0133 237.561 54.8518C237.426 54.6902 237.245 54.6095 237.016 54.6095C236.569 54.6095 236.325 54.9376 236.284 55.5939C236.273 55.7756 236.175 55.8665 235.988 55.8665H234.585C234.409 55.8665 234.32 55.7756 234.32 55.5939C234.372 54.766 234.642 54.1047 235.131 53.6099C235.619 53.1152 236.247 52.8678 237.016 52.8678C237.816 52.8678 238.46 53.1304 238.948 53.6554C239.447 54.1804 239.696 54.8669 239.696 55.715V56.2905C239.696 56.6843 239.623 57.0477 239.478 57.3809C239.343 57.704 239.151 57.9665 238.901 58.1684C239.255 58.3704 239.525 58.6531 239.712 59.0165C239.899 59.38 239.992 59.7788 239.992 60.213V60.8642C239.992 61.7325 239.722 62.4291 239.182 62.9541C238.652 63.4791 237.93 63.7417 237.016 63.7417Z" fill="#F5F5F5"/>
<path d="M247.877 53.307C247.877 53.1354 247.97 53.0496 248.157 53.0496H249.544C249.731 53.0496 249.824 53.1354 249.824 53.307V62.9238C249.824 63.1763 249.752 63.3731 249.606 63.5145C249.471 63.6457 249.269 63.7114 248.999 63.7114H247.144C246.209 63.7114 245.498 63.4388 245.01 62.8936C244.532 62.3383 244.293 61.6164 244.293 60.7279V53.307C244.293 53.1354 244.386 53.0496 244.573 53.0496H245.991C246.168 53.0496 246.256 53.1354 246.256 53.307V60.7885C246.256 61.1418 246.339 61.4296 246.505 61.6517C246.682 61.8637 246.911 61.9697 247.191 61.9697H247.877V53.307Z" fill="#F5F5F5"/>
<path d="M258.087 53.307C258.087 53.1354 258.181 53.0496 258.368 53.0496H259.754C259.941 53.0496 260.035 53.1354 260.035 53.307V62.9238C260.035 63.1763 259.962 63.3731 259.817 63.5145C259.682 63.6457 259.479 63.7114 259.209 63.7114H257.355C256.42 63.7114 255.708 63.4388 255.22 62.8936C254.742 62.3383 254.503 61.6164 254.503 60.7279V53.307C254.503 53.1354 254.597 53.0496 254.784 53.0496H256.202C256.378 53.0496 256.467 53.1354 256.467 53.307V60.7885C256.467 61.1418 256.55 61.4296 256.716 61.6517C256.893 61.8637 257.121 61.9697 257.402 61.9697H258.087V53.307ZM257.261 52.0349C256.742 52.0349 256.311 51.8935 255.968 51.6108C255.636 51.3281 255.438 50.9495 255.376 50.475V50.4447C255.376 50.2731 255.469 50.1873 255.656 50.1873H256.358C256.441 50.1873 256.503 50.2074 256.545 50.2478C256.586 50.2882 256.622 50.3488 256.654 50.4296C256.737 50.682 256.939 50.8082 257.261 50.8082C257.583 50.8082 257.786 50.682 257.869 50.4296C257.9 50.3488 257.937 50.2882 257.978 50.2478C258.02 50.2074 258.077 50.1873 258.15 50.1873H258.866C258.949 50.1873 259.017 50.2125 259.069 50.263C259.121 50.3135 259.147 50.3841 259.147 50.475C259.084 50.9495 258.882 51.3281 258.539 51.6108C258.207 51.8935 257.781 52.0349 257.261 52.0349Z" fill="#F5F5F5"/>
<path d="M265.072 63.6508C264.885 63.6508 264.792 63.5599 264.792 63.3782V53.307C264.792 53.1354 264.885 53.0496 265.072 53.0496H266.459C266.646 53.0496 266.739 53.1354 266.739 53.307V57.5021H267.565L268.454 53.2767C268.485 53.1253 268.589 53.0496 268.765 53.0496H270.152C270.256 53.0496 270.329 53.0799 270.37 53.1404C270.412 53.1909 270.422 53.2566 270.401 53.3373L269.248 58.0624C269.601 58.2745 269.866 58.5824 270.043 58.9863C270.23 59.3901 270.323 59.8495 270.323 60.3644V63.3782C270.323 63.5599 270.23 63.6508 270.043 63.6508H268.625C268.448 63.6508 268.36 63.5599 268.36 63.3782V60.3038C268.36 59.5971 268.038 59.2437 267.394 59.2437H266.739V63.3782C266.739 63.5599 266.646 63.6508 266.459 63.6508H265.072Z" fill="#F5F5F5"/>
<path d="M274.629 63.7114C274.462 63.7114 274.379 63.6255 274.379 63.4539V62.2272C274.379 62.0858 274.468 61.9899 274.644 61.9394C275.278 61.8688 275.595 61.3942 275.595 60.5159V55.7907C275.595 54.9427 275.854 54.2662 276.374 53.7614C276.893 53.2465 277.574 52.989 278.415 52.989H280.129C280.42 52.989 280.643 53.0647 280.799 53.2162C280.955 53.3575 281.033 53.5695 281.033 53.8522V63.3933C281.033 63.5751 280.939 63.6659 280.752 63.6659H279.366C279.282 63.6659 279.215 63.6407 279.163 63.5902C279.111 63.5397 279.085 63.4741 279.085 63.3933V54.7306H278.477C278.187 54.7306 277.958 54.8215 277.792 55.0032C277.636 55.185 277.558 55.4424 277.558 55.7756V60.7279C277.558 61.5962 277.298 62.2979 276.779 62.833C276.27 63.3681 275.564 63.6609 274.66 63.7114H274.629Z" fill="#F5F5F5"/>
<path d="M286.071 63.6508C285.884 63.6508 285.791 63.5599 285.791 63.3782V53.8371C285.791 53.5645 285.858 53.3575 285.994 53.2162C286.139 53.0647 286.347 52.989 286.617 52.989H287.801C288.019 52.989 288.185 53.0496 288.3 53.1707C288.424 53.2818 288.523 53.4585 288.596 53.7008L289.546 56.7146C289.785 57.5324 289.951 58.1684 290.045 58.6228H290.076C290.201 58.0372 290.372 57.4011 290.59 56.7146L291.525 53.7008C291.598 53.4585 291.697 53.2818 291.821 53.1707C291.946 53.0496 292.112 52.989 292.32 52.989H293.52C293.779 52.989 293.977 53.0647 294.112 53.2162C294.257 53.3575 294.33 53.5645 294.33 53.8371V63.3782C294.33 63.5599 294.242 63.6508 294.065 63.6508H292.694C292.517 63.6508 292.429 63.5599 292.429 63.3782V58.4562C292.429 58.1028 292.434 57.6939 292.444 57.2295C292.455 56.765 292.465 56.4117 292.476 56.1694C292.496 55.8665 292.507 55.6343 292.507 55.4727H292.46C292.304 56.2905 292.138 56.9922 291.961 57.5778L291.182 60.213C291.047 60.6774 290.751 60.9096 290.294 60.9096H289.827C289.37 60.9096 289.074 60.6774 288.939 60.213L288.159 57.5778C287.952 56.8004 287.785 56.0987 287.661 55.4727H287.614C287.666 56.553 287.692 57.5475 287.692 58.4562V63.3782C287.692 63.5599 287.604 63.6508 287.427 63.6508H286.071Z" fill="#F5F5F5"/>
<path d="M302.612 53.307C302.612 53.1354 302.7 53.0496 302.877 53.0496H304.279C304.456 53.0496 304.544 53.1354 304.544 53.307V63.3782C304.544 63.5599 304.456 63.6508 304.279 63.6508H302.877C302.7 63.6508 302.612 63.5599 302.612 63.3782V59.168H301.038V63.3782C301.038 63.5599 300.945 63.6508 300.758 63.6508H299.371C299.184 63.6508 299.09 63.5599 299.09 63.3782V53.307C299.09 53.1354 299.184 53.0496 299.371 53.0496H300.758C300.945 53.0496 301.038 53.1354 301.038 53.307V57.4264H302.612V53.307Z" fill="#F5F5F5"/>
<path d="M311.981 63.8174C311.129 63.8174 310.438 63.5549 309.909 63.0299C309.379 62.4947 309.114 61.793 309.114 60.9248V55.7756C309.114 54.9073 309.379 54.2107 309.909 53.6857C310.438 53.1505 311.129 52.883 311.981 52.883C312.833 52.883 313.519 53.1455 314.038 53.6705C314.568 54.1955 314.833 54.8821 314.833 55.7302V60.9702C314.833 61.8183 314.568 62.5048 314.038 63.0299C313.519 63.5549 312.833 63.8174 311.981 63.8174ZM311.981 62.0455C312.251 62.0455 312.464 61.9647 312.62 61.8031C312.786 61.6315 312.869 61.3993 312.869 61.1065V55.5939C312.869 55.3011 312.786 55.0689 312.62 54.8972C312.464 54.7256 312.251 54.6398 311.981 54.6398C311.711 54.6398 311.493 54.7306 311.327 54.9124C311.16 55.084 311.077 55.3263 311.077 55.6393V61.0611C311.077 61.364 311.155 61.6063 311.311 61.788C311.477 61.9596 311.701 62.0455 311.981 62.0455Z" fill="#F5F5F5"/>
<path d="M319.685 63.6508C319.498 63.6508 319.405 63.5599 319.405 63.3782V53.9128C319.405 53.6301 319.483 53.4181 319.639 53.2767C319.794 53.1253 320.018 53.0496 320.309 53.0496H324.064C324.355 53.0496 324.573 53.1253 324.718 53.2767C324.874 53.4181 324.952 53.6301 324.952 53.9128V63.3782C324.952 63.5599 324.864 63.6508 324.687 63.6508H323.238C323.062 63.6508 322.973 63.5599 322.973 63.3782V54.7912H321.399V63.3782C321.399 63.5599 321.306 63.6508 321.119 63.6508H319.685Z" fill="#F5F5F5"/>
<path d="M329.909 63.6508C329.722 63.6508 329.629 63.5599 329.629 63.3782V55.7453C329.629 54.8871 329.878 54.1955 330.377 53.6705C330.886 53.1354 331.551 52.8678 332.371 52.8678C333.223 52.8678 333.909 53.1354 334.428 53.6705C334.948 54.1955 335.207 54.8871 335.207 55.7453V57.1841C335.207 58.022 334.953 58.6985 334.444 59.2134C333.935 59.7283 333.259 59.9858 332.418 59.9858H331.577V63.3782C331.577 63.5599 331.488 63.6508 331.312 63.6508H329.909ZM332.293 58.2442C332.927 58.2442 333.244 57.911 333.244 57.2446V55.609C333.244 55.3162 333.166 55.084 333.01 54.9124C332.865 54.7407 332.662 54.6549 332.402 54.6549C332.153 54.6549 331.951 54.7407 331.795 54.9124C331.649 55.084 331.577 55.3162 331.577 55.609V58.2442H332.293Z" fill="#F5F5F5"/>
<path d="M342.124 63.8325C341.283 63.8325 340.602 63.57 340.083 63.045C339.574 62.52 339.319 61.8334 339.319 60.9853V55.715C339.319 54.8568 339.574 54.1703 340.083 53.6554C340.602 53.1304 341.283 52.8678 342.124 52.8678C342.924 52.8678 343.568 53.1404 344.056 53.6857C344.545 54.2208 344.804 54.9527 344.835 55.8816C344.835 56.0634 344.747 56.1542 344.571 56.1542H343.153C343.069 56.1542 343.002 56.134 342.95 56.0936C342.908 56.0432 342.888 55.9775 342.888 55.8968C342.877 55.4828 342.799 55.1749 342.654 54.9729C342.509 54.7609 342.316 54.6549 342.077 54.6549C341.828 54.6549 341.631 54.7357 341.485 54.8972C341.35 55.0588 341.283 55.2859 341.283 55.5787V61.1216C341.283 61.4144 341.35 61.6416 341.485 61.8031C341.631 61.9647 341.828 62.0455 342.077 62.0455C342.337 62.0455 342.545 61.9294 342.701 61.6971C342.857 61.4548 342.94 61.1115 342.95 60.6673C342.971 60.4957 343.059 60.4098 343.215 60.4098H344.633C344.83 60.4098 344.919 60.5058 344.898 60.6976C344.867 61.6769 344.602 62.4443 344.103 62.9996C343.615 63.5549 342.955 63.8325 342.124 63.8325Z" fill="#F5F5F5"/>
<path d="M353.719 53.0496C353.906 53.0496 354 53.1354 354 53.307V54.5337C354 54.7054 353.906 54.7912 353.719 54.7912H352.239V63.3782C352.239 63.5599 352.151 63.6508 351.974 63.6508H350.572C350.395 63.6508 350.307 63.5599 350.307 63.3782V54.7912H348.811C348.634 54.7912 348.546 54.7054 348.546 54.5337V53.307C348.546 53.1354 348.634 53.0496 348.811 53.0496H353.719Z" fill="#F5F5F5"/>
<path d="M155.907 94.6879C155.11 94.6879 154.468 94.4471 153.981 93.9654C153.494 93.4837 153.25 92.8501 153.25 92.0647C153.25 91.3736 153.484 90.8081 153.95 90.3683C154.426 89.918 155.037 89.6928 155.783 89.6928H156.56V89.0174C156.56 88.7765 156.498 88.588 156.373 88.4519C156.249 88.3053 156.078 88.232 155.861 88.232C155.643 88.232 155.478 88.2948 155.364 88.4205C155.25 88.5461 155.187 88.7137 155.177 88.9231C155.167 89.0593 155.074 89.1273 154.897 89.1273H153.623C153.447 89.1273 153.359 89.0331 153.359 88.8446C153.421 88.1325 153.68 87.5618 154.136 87.1324C154.592 86.6926 155.172 86.4727 155.876 86.4727C156.632 86.4727 157.238 86.7188 157.694 87.211C158.16 87.7031 158.393 88.3419 158.393 89.1273V92.1433C158.393 92.9182 158.171 93.536 157.725 93.9968C157.29 94.4576 156.684 94.6879 155.907 94.6879ZM155.876 92.9287C156.094 92.9287 156.26 92.8606 156.373 92.7245C156.498 92.5883 156.56 92.3998 156.56 92.159V91.3107H155.892C155.643 91.3107 155.446 91.3788 155.301 91.5149C155.167 91.6511 155.099 91.8343 155.099 92.0647C155.099 92.337 155.167 92.5517 155.301 92.7087C155.436 92.8554 155.628 92.9287 155.876 92.9287Z" fill="#F5F5F5"/>
<path d="M159.075 93.0072C159.096 92.8396 159.189 92.7559 159.355 92.7559H160.442C160.525 92.7559 160.587 92.7873 160.629 92.8501C160.681 92.9025 160.701 92.9705 160.691 93.0543L160.116 96.0231C160.085 96.1907 159.987 96.2744 159.821 96.2744H159.199C159.013 96.2744 158.92 96.1802 158.92 95.9917L159.075 93.0072Z" fill="#F5F5F5"/>
<path d="M167.275 94.7037C166.508 94.7037 165.887 94.4837 165.41 94.0439C164.944 93.6041 164.711 93.0281 164.711 92.316V86.834C164.711 86.0486 164.923 85.3993 165.348 84.8862C165.773 84.3626 166.373 83.9961 167.15 83.7866C167.295 83.7447 167.777 83.6295 168.595 83.441L168.984 83.3468H169.046C169.201 83.3468 169.279 83.4306 169.279 83.5981V84.7762C169.279 84.9438 169.201 85.0433 169.046 85.0747L168.626 85.1532C168.088 85.2579 167.725 85.3417 167.539 85.4045C167.187 85.5197 166.933 85.6821 166.777 85.8915C166.622 86.1009 166.539 86.4046 166.529 86.8026V87.1795C166.715 87.0539 166.907 86.9649 167.104 86.9125C167.301 86.8497 167.528 86.8183 167.787 86.8183C168.409 86.8183 168.906 87.0486 169.279 87.5094C169.662 87.9702 169.854 88.588 169.854 89.3629V92.316C169.854 93.0281 169.616 93.6041 169.139 94.0439C168.673 94.4837 168.051 94.7037 167.275 94.7037ZM167.275 92.9444C167.502 92.9444 167.684 92.8658 167.818 92.7087C167.953 92.5517 168.02 92.3422 168.02 92.0804V89.4415C168.02 89.1692 167.953 88.9545 167.818 88.7975C167.684 88.6404 167.502 88.5618 167.275 88.5618C167.047 88.5618 166.865 88.6404 166.731 88.7975C166.596 88.9545 166.529 89.1692 166.529 89.4415V92.0804C166.529 92.3422 166.596 92.5517 166.731 92.7087C166.865 92.8658 167.047 92.9444 167.275 92.9444Z" fill="#F5F5F5"/>
<path d="M170.546 93.0072C170.567 92.8396 170.66 92.7559 170.826 92.7559H171.913C171.996 92.7559 172.058 92.7873 172.1 92.8501C172.152 92.9025 172.172 92.9705 172.162 93.0543L171.587 96.0231C171.556 96.1907 171.458 96.2744 171.292 96.2744H170.67C170.484 96.2744 170.391 96.1802 170.391 95.9917L170.546 93.0072Z" fill="#F5F5F5"/>
<path d="M180.3 90.3054C180.61 90.452 180.859 90.7086 181.045 91.0751C181.242 91.4312 181.341 91.8343 181.341 92.2846C181.341 92.9653 181.139 93.5203 180.735 93.9497C180.331 94.3686 179.802 94.578 179.15 94.578H177.037C176.747 94.578 176.529 94.5047 176.384 94.3581C176.239 94.201 176.167 93.9811 176.167 93.6983V89.0959C176.167 88.3105 176.389 87.677 176.835 87.1953C177.28 86.7135 177.871 86.4727 178.606 86.4727C179.341 86.4727 179.932 86.6874 180.377 87.1167C180.823 87.5356 181.045 88.0854 181.045 88.766C181.045 89.0907 180.978 89.3944 180.843 89.6771C180.709 89.9494 180.527 90.1588 180.3 90.3054ZM177.985 89.6928H178.591C178.818 89.6928 178.994 89.6247 179.119 89.4886C179.243 89.342 179.305 89.1326 179.305 88.8603C179.305 88.3576 179.077 88.1063 178.622 88.1063C178.425 88.1063 178.269 88.1744 178.155 88.3105C178.042 88.4362 177.985 88.6142 177.985 88.8446V89.6928ZM178.746 92.8501C178.984 92.8501 179.171 92.782 179.305 92.6459C179.45 92.5098 179.523 92.316 179.523 92.0647C179.523 91.8029 179.45 91.604 179.305 91.4678C179.171 91.3212 178.984 91.2479 178.746 91.2479H177.985V92.8501H178.746Z" fill="#F5F5F5"/>
<path d="M182.062 93.0072C182.083 92.8396 182.176 92.7559 182.342 92.7559H183.43C183.513 92.7559 183.575 92.7873 183.616 92.8501C183.668 92.9025 183.689 92.9705 183.678 93.0543L183.103 96.0231C183.072 96.1907 182.974 96.2744 182.808 96.2744H182.187C182 96.2744 181.907 96.1802 181.907 95.9917L182.062 93.0072Z" fill="#F5F5F5"/>
<path d="M187.947 94.5152C187.771 94.5152 187.683 94.4209 187.683 94.2324V89.63C187.683 88.6456 187.916 87.9021 188.382 87.3995C188.848 86.8863 189.532 86.6298 190.433 86.6298H191.148C191.334 86.6298 191.428 86.7188 191.428 86.8968V88.1063C191.428 88.2843 191.334 88.3733 191.148 88.3733H190.495C189.832 88.3733 189.501 88.7189 189.501 89.4101V94.2324C189.501 94.4209 189.413 94.5152 189.237 94.5152H187.947Z" fill="#F5F5F5"/>
<path d="M191.182 93.0072C191.202 92.8396 191.295 92.7559 191.461 92.7559H192.549C192.632 92.7559 192.694 92.7873 192.735 92.8501C192.787 92.9025 192.808 92.9705 192.797 93.0543L192.223 96.0231C192.191 96.1907 192.093 96.2744 191.927 96.2744H191.306C191.119 96.2744 191.026 96.1802 191.026 95.9917L191.182 93.0072Z" fill="#F5F5F5"/>
<path d="M196.631 96.3059C196.445 96.3059 196.352 96.2169 196.352 96.0388V93.6041C196.352 93.4051 196.388 93.248 196.46 93.1329C196.543 93.0177 196.657 92.9077 196.802 92.803C197.02 92.6669 197.18 92.5098 197.284 92.3318C197.387 92.1537 197.439 91.9129 197.439 91.6092V89.0488C197.439 88.609 197.538 88.2058 197.734 87.8393C197.942 87.4623 198.226 87.1638 198.589 86.9439C198.952 86.724 199.355 86.6141 199.801 86.6141H201.386C201.676 86.6141 201.904 86.6926 202.069 86.8497C202.235 86.9963 202.318 87.2057 202.318 87.478V92.8187L202.365 92.8658C202.603 92.8658 202.784 92.9391 202.908 93.0857C203.043 93.2323 203.11 93.4418 203.11 93.7141V96.0388C203.11 96.2169 203.022 96.3059 202.846 96.3059H201.681C201.494 96.3059 201.401 96.2169 201.401 96.0388V94.5152H198.076V96.0388C198.076 96.2169 197.988 96.3059 197.812 96.3059H196.631ZM200.516 92.8658V88.2634H200.018C199.78 88.2634 199.589 88.3524 199.444 88.5304C199.309 88.7085 199.242 88.9545 199.242 89.2687V91.2479C199.242 91.5935 199.195 91.8972 199.102 92.159C199.019 92.4103 198.884 92.6459 198.698 92.8658H200.516Z" fill="#F5F5F5"/>
<path d="M203.699 93.0072C203.72 92.8396 203.813 92.7559 203.979 92.7559H205.067C205.15 92.7559 205.212 92.7873 205.253 92.8501C205.305 92.9025 205.326 92.9705 205.315 93.0543L204.74 96.0231C204.709 96.1907 204.611 96.2744 204.445 96.2744H203.824C203.637 96.2744 203.544 96.1802 203.544 95.9917L203.699 93.0072Z" fill="#F5F5F5"/>
<path d="M211.775 94.6879C211.018 94.6879 210.407 94.4471 209.941 93.9654C209.475 93.4732 209.242 92.8292 209.242 92.0333V89.0645C209.263 88.2896 209.511 87.6665 209.988 87.1953C210.464 86.724 211.096 86.4884 211.883 86.4884C212.619 86.4884 213.22 86.7292 213.686 87.211C214.162 87.6822 214.4 88.2948 214.4 89.0488C214.4 89.7714 214.162 90.3578 213.686 90.8081C213.22 91.2584 212.608 91.4835 211.852 91.4835H211.091V92.1433C211.091 92.3946 211.153 92.5936 211.277 92.7402C211.402 92.8763 211.573 92.9444 211.79 92.9444C211.987 92.9444 212.142 92.8868 212.256 92.7716C212.381 92.6564 212.458 92.4941 212.489 92.2846C212.52 92.1066 212.614 92.0176 212.769 92.0176H214.074C214.25 92.0176 214.338 92.1118 214.338 92.3003C214.286 93.0124 214.027 93.5884 213.561 94.0282C213.095 94.468 212.5 94.6879 211.775 94.6879ZM211.852 89.8499C212.08 89.8499 212.256 89.7871 212.381 89.6614C212.505 89.5253 212.567 89.3368 212.567 89.0959C212.567 88.8132 212.5 88.5985 212.365 88.4519C212.241 88.3053 212.059 88.232 211.821 88.232C211.583 88.232 211.402 88.3053 211.277 88.4519C211.153 88.588 211.091 88.7818 211.091 89.0331V89.8499H211.852Z" fill="#F5F5F5"/>
<path d="M215.125 93.0072C215.146 92.8396 215.239 92.7559 215.404 92.7559H216.492C216.575 92.7559 216.637 92.7873 216.679 92.8501C216.73 92.9025 216.751 92.9705 216.741 93.0543L216.166 96.0231C216.135 96.1907 216.036 96.2744 215.871 96.2744H215.249C215.063 96.2744 214.969 96.1802 214.969 95.9917L215.125 93.0072Z" fill="#F5F5F5"/>
<path d="M223.2 94.6879C222.444 94.6879 221.833 94.4471 221.367 93.9654C220.9 93.4732 220.667 92.8292 220.667 92.0333V89.0645C220.688 88.2896 220.937 87.6665 221.413 87.1953C221.89 86.724 222.521 86.4884 223.309 86.4884C224.044 86.4884 224.645 86.7292 225.111 87.211C225.588 87.6822 225.826 88.2948 225.826 89.0488C225.826 89.7714 225.588 90.3578 225.111 90.8081C224.645 91.2584 224.034 91.4835 223.278 91.4835H222.516V92.1433C222.516 92.3946 222.578 92.5936 222.703 92.7402C222.827 92.8763 222.998 92.9444 223.215 92.9444C223.412 92.9444 223.568 92.8868 223.682 92.7716C223.806 92.6564 223.884 92.4941 223.915 92.2846C223.946 92.1066 224.039 92.0176 224.194 92.0176H225.499C225.676 92.0176 225.764 92.1118 225.764 92.3003C225.712 93.0124 225.453 93.5884 224.987 94.0282C224.521 94.468 223.925 94.6879 223.2 94.6879ZM223.278 89.8499C223.506 89.8499 223.682 89.7871 223.806 89.6614C223.93 89.5253 223.992 89.3368 223.992 89.0959C223.992 88.8132 223.925 88.5985 223.79 88.4519C223.666 88.3053 223.485 88.232 223.247 88.232C223.008 88.232 222.827 88.3053 222.703 88.4519C222.578 88.588 222.516 88.7818 222.516 89.0331V89.8499H223.278ZM222.066 85.593C221.817 85.593 221.62 85.5197 221.475 85.3731C221.33 85.216 221.258 85.0171 221.258 84.7762C221.258 84.5354 221.33 84.3416 221.475 84.195C221.62 84.038 221.817 83.9594 222.066 83.9594C222.304 83.9594 222.496 84.038 222.641 84.195C222.786 84.3416 222.858 84.5354 222.858 84.7762C222.858 85.0171 222.786 85.216 222.641 85.3731C222.496 85.5197 222.304 85.593 222.066 85.593ZM224.21 85.593C223.972 85.593 223.775 85.5197 223.619 85.3731C223.474 85.216 223.402 85.0171 223.402 84.7762C223.402 84.5354 223.474 84.3416 223.619 84.195C223.775 84.038 223.972 83.9594 224.21 83.9594C224.448 83.9594 224.645 84.038 224.8 84.195C224.956 84.3416 225.033 84.5354 225.033 84.7762C225.033 85.0171 224.956 85.216 224.8 85.3731C224.645 85.5197 224.448 85.593 224.21 85.593Z" fill="#F5F5F5"/>
<path d="M226.55 93.0072C226.571 92.8396 226.664 92.7559 226.83 92.7559H227.917C228 92.7559 228.062 92.7873 228.104 92.8501C228.156 92.9025 228.176 92.9705 228.166 93.0543L227.591 96.0231C227.56 96.1907 227.462 96.2744 227.296 96.2744H226.674C226.488 96.2744 226.395 96.1802 226.395 95.9917L226.55 93.0072Z" fill="#F5F5F5"/>
<path d="M232.342 94.5152C232.166 94.5152 232.078 94.4209 232.078 94.2324V92.2532C232.078 91.7506 232.171 91.316 232.357 90.9495C232.554 90.5829 232.823 90.2897 233.165 90.0698L231.938 86.9753C231.917 86.9335 231.907 86.8968 231.907 86.8654C231.907 86.8026 231.927 86.7554 231.969 86.724C232.021 86.6821 232.088 86.6612 232.171 86.6612H233.491C233.647 86.6612 233.756 86.7345 233.818 86.8811L234.828 89.63H235.201V86.9282C235.201 86.7397 235.289 86.6455 235.465 86.6455H236.708C236.894 86.6455 236.987 86.7397 236.987 86.9282V89.63H237.345L238.37 86.8811C238.412 86.7345 238.515 86.6612 238.681 86.6612H240.017C240.11 86.6612 240.178 86.6926 240.219 86.7554C240.271 86.8078 240.276 86.8811 240.235 86.9753L239.023 90.0698C239.365 90.2897 239.629 90.5829 239.815 90.9495C240.012 91.316 240.11 91.7506 240.11 92.2532V94.2324C240.11 94.4209 240.017 94.5152 239.831 94.5152H238.572C238.386 94.5152 238.293 94.4209 238.293 94.2324V92.1433C238.293 91.9024 238.225 91.7139 238.091 91.5778C237.966 91.4416 237.79 91.3736 237.562 91.3736H236.987V94.2324C236.987 94.4209 236.894 94.5152 236.708 94.5152H235.465C235.289 94.5152 235.201 94.4209 235.201 94.2324V91.3736H234.626C234.398 91.3736 234.217 91.4469 234.082 91.5935C233.947 91.7296 233.88 91.9129 233.88 92.1433V94.2324C233.88 94.4209 233.792 94.5152 233.616 94.5152H232.342Z" fill="#F5F5F5"/>
<path d="M240.934 93.0072C240.955 92.8396 241.048 92.7559 241.214 92.7559H242.302C242.384 92.7559 242.447 92.7873 242.488 92.8501C242.54 92.9025 242.561 92.9705 242.55 93.0543L241.975 96.0231C241.944 96.1907 241.846 96.2744 241.68 96.2744H241.059C240.872 96.2744 240.779 96.1802 240.779 95.9917L240.934 93.0072Z" fill="#F5F5F5"/>
<path d="M248.761 94.7037C248.026 94.7037 247.42 94.489 246.943 94.0596C246.477 93.6198 246.213 93.0438 246.151 92.3318V92.3003C246.151 92.2166 246.172 92.1537 246.213 92.1118C246.265 92.0595 246.332 92.0333 246.415 92.0333H247.72C247.865 92.0333 247.964 92.1223 248.015 92.3003C248.057 92.4993 248.145 92.6564 248.28 92.7716C248.414 92.8868 248.585 92.9444 248.792 92.9444C249.02 92.9444 249.196 92.8711 249.321 92.7245C249.455 92.5674 249.523 92.3527 249.523 92.0804C249.523 91.8186 249.445 91.6144 249.29 91.4678C249.145 91.3212 248.937 91.2479 248.668 91.2479H248.186C248 91.2479 247.907 91.1589 247.907 90.9809V89.9599C247.907 89.7818 248 89.6928 248.186 89.6928H248.621C248.86 89.6928 249.046 89.6195 249.181 89.4729C249.315 89.3158 249.383 89.1116 249.383 88.8603C249.383 88.6404 249.321 88.4676 249.196 88.3419C249.082 88.2163 248.922 88.1534 248.715 88.1534C248.352 88.1534 248.15 88.3629 248.109 88.7818C248.078 88.9702 247.984 89.0645 247.829 89.0645H246.539C246.363 89.0645 246.28 88.9702 246.291 88.7818C246.343 88.0801 246.586 87.5199 247.021 87.101C247.466 86.6821 248.031 86.4727 248.715 86.4727C249.44 86.4727 250.02 86.6874 250.455 87.1167C250.9 87.5356 251.123 88.0854 251.123 88.766C251.123 89.0907 251.045 89.3944 250.89 89.6771C250.745 89.9494 250.548 90.1588 250.299 90.3054C250.621 90.4311 250.874 90.6562 251.061 90.9809C251.258 91.295 251.356 91.6615 251.356 92.0804C251.356 92.8658 251.118 93.4994 250.641 93.9811C250.165 94.4628 249.538 94.7037 248.761 94.7037Z" fill="#F5F5F5"/>
<path d="M252.071 93.0072C252.092 92.8396 252.185 92.7559 252.351 92.7559H253.439C253.522 92.7559 253.584 92.7873 253.625 92.8501C253.677 92.9025 253.698 92.9705 253.687 93.0543L253.112 96.0231C253.081 96.1907 252.983 96.2744 252.817 96.2744H252.196C252.009 96.2744 251.916 96.1802 251.916 95.9917L252.071 93.0072Z" fill="#F5F5F5"/>
<path d="M260.256 94.5309C259.489 94.5309 258.868 94.29 258.391 93.8083C257.925 93.3161 257.692 92.6773 257.692 91.8919V86.9282C257.692 86.7397 257.78 86.6455 257.956 86.6455H259.246C259.422 86.6455 259.51 86.7397 259.51 86.9282V92.0019C259.51 92.2323 259.577 92.4208 259.712 92.5674C259.847 92.7035 260.028 92.7716 260.256 92.7716H260.877V86.9282C260.877 86.7397 260.97 86.6455 261.157 86.6455H262.446C262.623 86.6455 262.711 86.7397 262.711 86.9282V93.6355C262.711 93.9287 262.633 94.1539 262.478 94.311C262.333 94.4576 262.12 94.5309 261.841 94.5309H260.256Z" fill="#F5F5F5"/>
<path d="M263.724 93.0072C263.745 92.8396 263.838 92.7559 264.004 92.7559H265.092C265.175 92.7559 265.237 92.7873 265.278 92.8501C265.33 92.9025 265.351 92.9705 265.34 93.0543L264.765 96.0231C264.734 96.1907 264.636 96.2744 264.47 96.2744H263.849C263.662 96.2744 263.569 96.1802 263.569 95.9917L263.724 93.0072Z" fill="#F5F5F5"/>
<path d="M271.909 94.5309C271.142 94.5309 270.521 94.29 270.044 93.8083C269.578 93.3161 269.345 92.6773 269.345 91.8919V86.9282C269.345 86.7397 269.433 86.6455 269.609 86.6455H270.899C271.075 86.6455 271.163 86.7397 271.163 86.9282V92.0019C271.163 92.2323 271.23 92.4208 271.365 92.5674C271.5 92.7035 271.681 92.7716 271.909 92.7716H272.53V86.9282C272.53 86.7397 272.623 86.6455 272.81 86.6455H274.099C274.276 86.6455 274.364 86.7397 274.364 86.9282V93.6355C274.364 93.9287 274.286 94.1539 274.131 94.311C273.986 94.4576 273.773 94.5309 273.493 94.5309H271.909ZM271.847 85.7187C271.329 85.7187 270.899 85.5721 270.557 85.2789C270.225 84.9857 270.029 84.593 269.967 84.1008V84.0694C269.967 83.9018 270.055 83.818 270.231 83.818H270.945C271.028 83.818 271.09 83.839 271.132 83.8809C271.173 83.9123 271.21 83.9751 271.241 84.0694C271.323 84.3312 271.525 84.4621 271.847 84.4621C272.147 84.4621 272.349 84.3312 272.452 84.0694C272.484 83.9751 272.52 83.9123 272.561 83.8809C272.603 83.839 272.66 83.818 272.732 83.818H273.447C273.53 83.818 273.597 83.8442 273.649 83.8966C273.701 83.9489 273.721 84.017 273.711 84.1008C273.649 84.6034 273.452 85.0014 273.121 85.2946C272.789 85.5773 272.364 85.7187 271.847 85.7187Z" fill="#F5F5F5"/>
<path d="M275.377 93.0072C275.398 92.8396 275.491 92.7559 275.657 92.7559H276.745C276.828 92.7559 276.89 92.7873 276.931 92.8501C276.983 92.9025 277.004 92.9705 276.993 93.0543L276.418 96.0231C276.387 96.1907 276.289 96.2744 276.123 96.2744H275.502C275.315 96.2744 275.222 96.1802 275.222 95.9917L275.377 93.0072Z" fill="#F5F5F5"/>
<path d="M285.038 90.0698C285.38 90.2897 285.644 90.5882 285.83 90.9652C286.017 91.3317 286.11 91.761 286.11 92.2532V94.2324C286.11 94.4209 286.022 94.5152 285.846 94.5152H284.541C284.364 94.5152 284.276 94.4209 284.276 94.2324V92.1433C284.276 91.9024 284.209 91.7139 284.074 91.5778C283.95 91.4416 283.774 91.3736 283.546 91.3736H282.909V94.2324C282.909 94.4209 282.816 94.5152 282.629 94.5152H281.355C281.169 94.5152 281.076 94.4209 281.076 94.2324V86.9282C281.076 86.7397 281.169 86.6455 281.355 86.6455H282.629C282.816 86.6455 282.909 86.7397 282.909 86.9282V89.63H283.36L284.416 86.8811C284.458 86.7345 284.561 86.6612 284.727 86.6612H286.048C286.151 86.6612 286.224 86.6926 286.265 86.7554C286.317 86.8078 286.322 86.8811 286.281 86.9753L285.038 90.0698Z" fill="#F5F5F5"/>
<path d="M286.985 93.0072C287.006 92.8396 287.099 92.7559 287.265 92.7559H288.352C288.435 92.7559 288.497 92.7873 288.539 92.8501C288.59 92.9025 288.611 92.9705 288.601 93.0543L288.026 96.0231C287.995 96.1907 287.896 96.2744 287.731 96.2744H287.109C286.923 96.2744 286.829 96.1802 286.829 95.9917L286.985 93.0072Z" fill="#F5F5F5"/>
<path d="M292.435 94.578C292.352 94.578 292.284 94.5518 292.233 94.4994C292.181 94.4471 292.155 94.379 292.155 94.2952V93.1014C292.155 93.0177 292.181 92.9496 292.233 92.8972C292.284 92.8449 292.352 92.8187 292.435 92.8187C292.621 92.8082 292.766 92.7349 292.87 92.5988C292.984 92.4522 293.041 92.2584 293.041 92.0176V89.2216C293.041 88.4362 293.274 87.8026 293.74 87.3209C294.206 86.8392 294.822 86.5983 295.589 86.5983H297.065C297.344 86.5983 297.557 86.6769 297.702 86.834C297.857 86.9806 297.935 87.1953 297.935 87.478V94.2324C297.935 94.3162 297.909 94.3843 297.857 94.4366C297.816 94.489 297.754 94.5152 297.671 94.5152H296.397C296.314 94.5152 296.246 94.489 296.195 94.4366C296.153 94.3843 296.132 94.3162 296.132 94.2324V88.3419H295.589C295.361 88.3419 295.179 88.4152 295.045 88.5618C294.91 88.698 294.843 88.8812 294.843 89.1116V91.9391C294.843 92.7349 294.625 93.3737 294.19 93.8554C293.766 94.3267 293.18 94.5675 292.435 94.578Z" fill="#F5F5F5"/>
<path d="M298.941 93.0072C298.962 92.8396 299.055 92.7559 299.221 92.7559H300.309C300.391 92.7559 300.454 92.7873 300.495 92.8501C300.547 92.9025 300.568 92.9705 300.557 93.0543L299.982 96.0231C299.951 96.1907 299.853 96.2744 299.687 96.2744H299.066C298.879 96.2744 298.786 96.1802 298.786 95.9917L298.941 93.0072Z" fill="#F5F5F5"/>
<path d="M304.919 94.5152C304.733 94.5152 304.64 94.4209 304.64 94.2324V87.478C304.64 87.2057 304.712 87.0015 304.857 86.8654C305.002 86.7188 305.204 86.6455 305.463 86.6455H306.1C306.338 86.6455 306.535 86.6978 306.691 86.8026C306.846 86.9073 306.97 87.0696 307.063 87.2895L307.732 88.9388C307.887 89.3054 308.063 89.8237 308.26 90.4939H308.291C308.467 89.8865 308.643 89.3629 308.819 88.9231L309.503 87.2895C309.669 86.8601 309.984 86.6455 310.451 86.6455H311.103C311.362 86.6455 311.559 86.7188 311.694 86.8654C311.839 87.0015 311.911 87.2057 311.911 87.478V94.2324C311.911 94.4209 311.823 94.5152 311.647 94.5152H310.419C310.223 94.5152 310.129 94.4209 310.14 94.2324V91.7034C310.14 90.8238 310.155 90.0646 310.186 89.4258H310.155C310.01 89.9494 309.855 90.4468 309.689 90.918L309.301 91.8919C309.166 92.3108 308.855 92.5202 308.369 92.5202H308.182C307.695 92.5202 307.385 92.3108 307.25 91.8919L306.861 90.918C306.696 90.4468 306.54 89.9494 306.395 89.4258H306.364C306.395 90.0646 306.411 90.8238 306.411 91.7034V94.2638C306.411 94.4314 306.323 94.5152 306.147 94.5152H304.919Z" fill="#F5F5F5"/>
<path d="M312.916 93.0072C312.936 92.8396 313.03 92.7559 313.195 92.7559H314.283C314.366 92.7559 314.428 92.7873 314.47 92.8501C314.521 92.9025 314.542 92.9705 314.532 93.0543L313.957 96.0231C313.926 96.1907 313.827 96.2744 313.662 96.2744H313.04C312.854 96.2744 312.76 96.1802 312.76 95.9917L312.916 93.0072Z" fill="#F5F5F5"/>
<path d="M321.768 86.9282C321.768 86.7502 321.861 86.6612 322.048 86.6612H323.322C323.498 86.6612 323.586 86.7502 323.586 86.9282V94.2324C323.586 94.4209 323.498 94.5152 323.322 94.5152H322.048C321.861 94.5152 321.768 94.4209 321.768 94.2324V91.3893H320.432V94.2324C320.432 94.4209 320.344 94.5152 320.168 94.5152H318.894C318.707 94.5152 318.614 94.4209 318.614 94.2324V86.9282C318.614 86.7502 318.707 86.6612 318.894 86.6612H320.168C320.344 86.6612 320.432 86.7502 320.432 86.9282V89.6614H321.768V86.9282Z" fill="#F5F5F5"/>
<path d="M324.599 93.0072C324.62 92.8396 324.713 92.7559 324.879 92.7559H325.966C326.049 92.7559 326.111 92.7873 326.153 92.8501C326.205 92.9025 326.225 92.9705 326.215 93.0543L325.64 96.0231C325.609 96.1907 325.511 96.2744 325.345 96.2744H324.723C324.537 96.2744 324.444 96.1802 324.444 95.9917L324.599 93.0072Z" fill="#F5F5F5"/>
<path d="M155.954 113.553C155.177 113.553 154.55 113.307 154.074 112.815C153.597 112.323 153.359 111.679 153.359 110.883V107.977C153.359 107.191 153.597 106.553 154.074 106.061C154.55 105.568 155.177 105.322 155.954 105.322C156.731 105.322 157.358 105.568 157.834 106.061C158.31 106.553 158.549 107.191 158.549 107.977V110.883C158.549 111.679 158.31 112.323 157.834 112.815C157.358 113.307 156.731 113.553 155.954 113.553ZM155.954 111.794C156.182 111.794 156.363 111.721 156.498 111.574C156.632 111.427 156.7 111.234 156.7 110.993V107.883C156.7 107.631 156.632 107.432 156.498 107.286C156.363 107.139 156.182 107.066 155.954 107.066C155.726 107.066 155.545 107.139 155.41 107.286C155.276 107.432 155.208 107.631 155.208 107.883V110.993C155.208 111.234 155.276 111.427 155.41 111.574C155.545 111.721 155.726 111.794 155.954 111.794Z" fill="#F5F5F5"/>
<path d="M159.242 111.857C159.263 111.689 159.356 111.605 159.522 111.605H160.609C160.692 111.605 160.754 111.637 160.796 111.7C160.848 111.752 160.868 111.82 160.858 111.904L160.283 114.873C160.252 115.04 160.154 115.124 159.988 115.124H159.366C159.18 115.124 159.087 115.03 159.087 114.841L159.242 111.857Z" fill="#F5F5F5"/>
<path d="M169.058 105.511C169.348 105.511 169.565 105.589 169.71 105.746C169.866 105.893 169.943 106.108 169.943 106.39V113.082C169.943 113.27 169.85 113.365 169.664 113.365H168.374C168.198 113.365 168.11 113.27 168.11 113.082V107.239H166.774V113.082C166.774 113.27 166.681 113.365 166.494 113.365H165.22C165.034 113.365 164.94 113.27 164.94 113.082V106.39C164.94 106.108 165.013 105.893 165.158 105.746C165.313 105.589 165.531 105.511 165.81 105.511H169.058Z" fill="#F5F5F5"/>
<path d="M170.956 111.857C170.976 111.689 171.07 111.605 171.235 111.605H172.323C172.406 111.605 172.468 111.637 172.509 111.7C172.561 111.752 172.582 111.82 172.572 111.904L171.997 114.873C171.966 115.04 171.867 115.124 171.702 115.124H171.08C170.894 115.124 170.8 115.03 170.8 114.841L170.956 111.857Z" fill="#F5F5F5"/>
<path d="M179.156 105.322C179.932 105.322 180.559 105.568 181.036 106.061C181.512 106.553 181.75 107.191 181.75 107.977V110.883C181.75 111.396 181.647 111.857 181.44 112.265C181.232 112.674 180.953 112.993 180.601 113.223C180.259 113.443 179.881 113.553 179.466 113.553C179.083 113.553 178.731 113.448 178.41 113.239V116.239C178.41 116.417 178.322 116.506 178.146 116.506H176.84C176.664 116.506 176.576 116.417 176.576 116.239V107.977C176.576 107.191 176.815 106.553 177.291 106.061C177.768 105.568 178.389 105.322 179.156 105.322ZM179.901 107.883C179.901 107.642 179.834 107.448 179.699 107.301C179.565 107.155 179.383 107.082 179.156 107.082C178.928 107.082 178.746 107.155 178.612 107.301C178.477 107.448 178.41 107.642 178.41 107.883V110.993C178.41 111.234 178.477 111.427 178.612 111.574C178.746 111.721 178.928 111.794 179.156 111.794C179.383 111.794 179.565 111.721 179.699 111.574C179.834 111.427 179.901 111.234 179.901 110.993V107.883Z" fill="#F5F5F5"/>
<path d="M182.442 111.857C182.463 111.689 182.556 111.605 182.721 111.605H183.809C183.892 111.605 183.954 111.637 183.996 111.7C184.047 111.752 184.068 111.82 184.058 111.904L183.483 114.873C183.452 115.04 183.353 115.124 183.188 115.124H182.566C182.38 115.124 182.286 115.03 182.286 114.841L182.442 111.857Z" fill="#F5F5F5"/>
<path d="M190.564 113.553C189.797 113.553 189.176 113.307 188.699 112.815C188.223 112.323 187.984 111.679 187.984 110.883V107.977C187.984 107.191 188.217 106.553 188.684 106.061C189.16 105.568 189.776 105.322 190.533 105.322C191.258 105.322 191.848 105.547 192.304 105.998C192.77 106.448 193.029 107.055 193.081 107.82V107.851C193.081 108.019 192.993 108.103 192.816 108.103H191.496C191.34 108.103 191.252 108.008 191.232 107.82C191.17 107.328 190.936 107.082 190.533 107.082C190.315 107.082 190.144 107.155 190.02 107.301C189.895 107.448 189.833 107.642 189.833 107.883V110.993C189.833 111.234 189.895 111.427 190.02 111.574C190.144 111.721 190.32 111.794 190.548 111.794C190.973 111.794 191.216 111.522 191.278 110.977C191.299 110.789 191.387 110.694 191.542 110.694H192.863C193.06 110.694 193.148 110.799 193.127 111.009C193.075 111.783 192.816 112.401 192.35 112.862C191.884 113.323 191.289 113.553 190.564 113.553Z" fill="#F5F5F5"/>
<path d="M193.807 111.857C193.827 111.689 193.92 111.605 194.086 111.605H195.174C195.257 111.605 195.319 111.637 195.36 111.7C195.412 111.752 195.433 111.82 195.422 111.904L194.848 114.873C194.816 115.04 194.718 115.124 194.552 115.124H193.931C193.744 115.124 193.651 115.03 193.651 114.841L193.807 111.857Z" fill="#F5F5F5"/>
<path d="M200.872 113.365C200.686 113.365 200.592 113.27 200.592 113.082V107.239H199.256C199.07 107.239 198.977 107.15 198.977 106.972V105.778C198.977 105.6 199.07 105.511 199.256 105.511H203.778C203.954 105.511 204.042 105.6 204.042 105.778V106.972C204.042 107.15 203.954 107.239 203.778 107.239H202.426V113.082C202.426 113.27 202.338 113.365 202.162 113.365H200.872Z" fill="#F5F5F5"/>
</svg>
