<svg width="203" height="156" viewBox="0 0 203 156" fill="none" xmlns="http://www.w3.org/2000/svg">
<path d="M4.37651 55.785C4.10022 54.7943 3.75485 54.0513 3.34041 53.5541C2.92596 53.0588 2.47699 52.7098 1.99155 52.5072C1.50803 52.3045 0.965038 52.2032 0.366398 52.2032H0.15918V51.5259H20.4151V52.2032H18.6172C17.2338 52.2032 16.1977 52.3946 15.507 52.7773C14.8162 53.1601 14.4709 53.9162 14.4709 55.042C14.4709 55.4041 14.5284 55.8525 14.6436 56.3947C14.7587 56.9351 14.8853 57.4548 15.0235 57.9501L18.481 69.6448C18.8494 70.8174 19.2638 72.2246 19.7243 73.8701C20.1848 75.5155 20.6453 77.1272 21.1077 78.7033C21.5682 80.2812 21.9366 81.5889 22.2148 82.6246H22.353C22.4911 82.0842 22.6177 81.6095 22.7329 81.2043C22.848 80.799 22.9631 80.3937 23.0782 79.9885C23.1934 79.5832 23.32 79.1554 23.4581 78.7033L31.1311 51.8655H35.5556L42.3306 71.8081C42.6069 72.6186 42.8832 73.4423 43.1595 74.2753C43.4358 75.1102 43.7121 75.9658 43.9884 76.8439C44.2647 77.722 44.5295 78.5907 44.7827 79.4462C45.036 80.3018 45.2778 81.1367 45.508 81.9473H45.7152C45.8994 81.1818 46.1527 80.2136 46.4751 79.041C46.7974 77.8702 47.1543 76.6187 47.5457 75.2904C47.9371 73.962 48.294 72.733 48.6163 71.6054L52.2811 58.8958C52.4653 58.3104 52.6149 57.6912 52.7301 57.0364C52.8452 56.3835 52.9027 55.8769 52.9027 55.5148C52.9027 54.3421 52.5228 53.4978 51.763 52.98C51.0032 52.4621 49.8616 52.2032 48.34 52.2032H45.9896V51.5259H59.6087V52.2032H58.4325C57.6036 52.2032 56.8879 52.3383 56.2893 52.6085C55.6887 52.8787 55.1592 53.3965 54.6987 54.1639C54.2382 54.9313 53.8007 56.057 53.3843 57.5449L44.6734 87.7617H38.1747L29.2565 60.9915L21.5836 87.7617H14.1178L4.37651 55.785Z" fill="#7C4DC2"/>
<path d="M103.703 90.0261C100.634 90.0261 98.0558 89.3451 95.9731 87.9869C93.8885 86.6287 92.3073 84.5204 91.2316 81.662C90.1541 78.8056 89.6162 75.1415 89.6162 70.6717C89.6162 66.2038 90.1541 62.5627 91.2316 59.7504C92.3073 56.9399 93.8656 54.8547 95.9044 53.4945C97.9433 52.1363 100.428 51.4553 103.36 51.4553C106.108 51.4553 108.376 52.2284 110.163 53.7708C111.95 55.3151 113.094 57.6996 113.598 60.9244H113.735C113.735 59.0828 113.724 57.3639 113.701 55.7755C113.678 54.1851 113.667 52.7809 113.667 51.5589C113.667 50.3388 113.667 49.3585 113.667 48.6219V41.7119C113.667 40.4688 113.392 39.546 112.843 38.9475C112.293 38.349 111.639 37.9576 110.884 37.7715C110.129 37.5874 109.429 37.4953 108.788 37.4953H107.964V36.8047H124.113V84.1521C124.113 85.4431 124.376 86.41 124.902 87.0546C125.429 87.701 126.081 88.1269 126.861 88.3341C127.639 88.5413 128.349 88.6449 128.991 88.6449H129.815V89.3355H113.735V79.8664H113.598C113.14 83.3694 112.017 85.9381 110.232 87.5725C108.445 89.2089 106.268 90.0261 103.703 90.0261ZM106.589 88.2996C108.925 88.2996 110.689 86.7342 111.88 83.5996C113.07 80.4669 113.667 75.8359 113.667 69.7067C113.667 66.0676 113.392 63.025 112.843 60.5829C112.293 58.1408 111.49 56.2973 110.438 55.0523C109.383 53.8092 108.056 53.1857 106.452 53.1857C105.076 53.1857 103.919 53.8072 102.98 55.0523C102.04 56.2973 101.342 58.1408 100.884 60.5829C100.427 63.025 100.198 66.0676 100.198 69.7067C100.198 73.8082 100.438 77.2402 100.919 80.0045C101.399 82.7689 102.122 84.8427 103.083 86.2258C104.046 87.6071 105.216 88.2996 106.589 88.2996Z" fill="#7C4DC2"/>
<path d="M148.899 89.4603C144.855 89.4603 141.843 88.396 139.869 86.2654C137.892 84.1348 136.905 80.7316 136.905 76.0519V57.1561C136.905 55.7215 136.733 54.6553 136.389 53.9592C136.044 53.2651 135.537 52.8023 134.871 52.5709C134.204 52.3396 133.343 52.2239 132.287 52.2239H132.08V51.5278H147.384V78.3445C147.384 80.3363 147.556 82.0042 147.9 83.3461C148.245 84.6901 148.796 85.6966 149.555 86.3676C150.313 87.0405 151.314 87.3741 152.553 87.3741C154.208 87.3741 155.494 86.8187 156.414 85.7062C157.333 84.5937 157.976 83.0434 158.345 81.0517C158.712 79.0599 158.896 76.7692 158.896 74.1739V56.7357C158.896 55.3937 158.632 54.4085 158.104 53.7837C157.576 53.159 156.933 52.7406 156.173 52.5343C155.414 52.3261 154.69 52.2219 154.002 52.2219H153.726V51.5259H169.374V83.8301C169.374 85.0352 169.65 85.9491 170.201 86.5739C170.752 87.1986 171.408 87.6054 172.166 87.7905C172.925 87.9756 173.624 88.0682 174.268 88.0682H174.544V88.7623H158.896V82.2317H158.758C158.345 83.7607 157.792 85.0101 157.103 85.9839C156.414 86.9557 155.632 87.6864 154.759 88.1723C153.887 88.6582 152.944 88.9937 151.934 89.1788C150.921 89.3678 149.909 89.4603 148.899 89.4603Z" fill="#7C4DC2"/>
<path d="M71.9861 104.747C65.8772 104.747 61.2492 103.108 58.1018 99.8271C54.9545 96.5479 53.3799 91.9671 53.3799 86.0848C53.3799 79.7053 54.9056 74.8985 57.961 71.6645C61.0144 68.4305 65.3139 66.8125 70.8594 66.8125C75.9804 66.8125 80.0099 68.1931 82.9459 70.9525C85.882 73.7119 87.351 78.0779 87.351 83.4215C87.351 84.1806 86.7114 84.7965 85.9231 84.7965H65.9418C64.997 84.7965 64.2322 85.5443 64.2478 86.454C64.3163 90.2701 64.6293 93.4156 65.1848 95.8924C65.8186 98.7215 66.8299 100.778 68.2148 102.069C69.5997 103.359 71.3973 104.003 73.6057 104.003C75.2507 104.003 76.7824 103.732 78.0812 102.984C81.4006 101.074 79.4974 97.8004 79.4974 95.7832C79.4974 93.958 80.718 91.8748 83.3645 91.8748C86.0267 91.8748 87.3471 93.6058 87.3471 95.7832C87.3471 100.599 81.7449 102.826 79.7008 103.594C77.6606 104.361 75.0884 104.747 71.9861 104.747ZM74.9378 84.1166C75.8786 84.1166 76.6415 83.3726 76.6298 82.4666C76.5907 79.1176 76.4283 76.3978 76.1466 74.3109C75.818 71.8905 75.2312 70.1482 74.3842 69.0859C73.5392 68.0236 72.3636 67.4906 70.8594 67.4906C69.3551 67.4906 68.1111 68.0236 67.1233 69.0859C66.1354 70.1501 65.4195 71.8924 64.9735 74.3109C64.5882 76.3941 64.3515 79.1063 64.2654 82.4459C64.242 83.3613 65.0068 84.1184 65.9574 84.1184H74.9378V84.1166Z" fill="#7C4DC2"/>
<path d="M187.566 18.2703H180.731C174.729 18.2703 169.864 13.4049 169.864 7.40368V0.569092H169.032V7.40368C169.032 13.4049 164.167 18.2703 158.165 18.2703H151.33V19.1017H158.165C164.167 19.1017 169.032 23.9671 169.032 29.9684V36.805H169.864V29.9684C169.864 23.9671 174.729 19.1017 180.731 19.1017H187.566V18.2703Z" fill="#7C4DC2"/>
<path d="M177.607 109.277L176.809 108.181C192.598 96.2991 200.945 82.0248 200.945 66.8965C200.945 52.457 193.271 38.7022 178.756 27.1198L179.584 26.0474C194.436 37.8973 202.287 52.0221 202.287 66.8965C202.285 82.4735 193.751 97.1275 177.607 109.277Z" fill="#7C4DC2"/>
<path d="M11.126 117.698L13.3688 118.916C13.5948 118.093 13.183 117.433 12.4973 117.06C11.9151 116.744 11.3616 116.719 10.7659 116.804L10.7238 115.617C11.4861 115.361 12.4418 115.575 13.0815 115.921C14.8091 116.858 15.3378 118.485 14.4663 120.107C13.6714 121.582 12.0492 122.228 10.3426 121.303C9.3677 120.774 8.85631 120.133 8.65137 119.41L9.71821 118.883C9.86569 119.283 10.2526 119.801 10.8712 120.135C11.6335 120.549 12.3786 120.459 12.913 119.787L10.6586 118.564L11.126 117.698Z" fill="#7C4DC2"/>
<path d="M15.7328 117.77L21.1069 119.875L20.3924 121.122L18.4667 120.367L16.3864 123.998L14.8789 123.407L16.9593 119.776L15.0205 119.016L15.7328 117.77Z" fill="#7C4DC2"/>
<path d="M24.7901 120.886C26.5314 121.62 27.1702 123.304 26.52 124.923C25.8718 126.54 24.2616 127.278 22.5203 126.544C20.777 125.809 20.1402 124.126 20.7903 122.509C21.4386 120.888 23.0469 120.151 24.7901 120.886ZM23.0335 125.26C23.8643 125.611 24.7178 125.254 25.0923 124.319C25.4573 123.409 25.0886 122.524 24.2692 122.177C23.4746 121.842 22.602 122.175 22.2275 123.111C21.8663 124.011 22.2142 124.915 23.0335 125.26Z" fill="#7C4DC2"/>
<path d="M33.7542 128.176L31.2283 127.372L30.5081 129.52L29.0332 129.051L30.9179 123.431L32.3929 123.9L31.6808 126.023L34.2066 126.827L34.9187 124.704L36.3936 125.172L34.5089 130.792L33.034 130.324L33.7542 128.176Z" fill="#7C4DC2"/>
<path d="M41.7278 133.341C40.9382 133.691 39.958 133.697 39.062 133.458C36.9994 132.911 35.9881 131.256 36.5448 129.309C37.0593 127.515 38.7515 126.417 40.8562 126.974C42.5062 127.412 43.5596 128.916 43.0651 130.642C42.9542 131.027 42.8588 131.251 42.7213 131.465L38.0995 130.237C37.9753 131.206 38.5985 131.918 39.6076 132.185C40.3904 132.392 41.1223 132.292 41.5747 132.104L41.7278 133.341ZM38.3456 129.17L41.4905 130.006C41.7189 129.256 41.3485 128.523 40.4104 128.273C39.4279 128.011 38.7471 128.406 38.3456 129.17Z" fill="#7C4DC2"/>
<path d="M82.7851 137.587C83.5324 137.613 83.982 138.292 83.9529 139.209C83.9133 140.408 83.2222 141.261 82.1169 141.549L81.7131 140.773C82.0628 140.658 82.373 140.484 82.5832 140.053C82.7164 139.788 82.7789 139.55 82.7289 139.408C82.6415 139.518 82.477 139.512 82.3667 139.51C82.0066 139.497 81.6715 139.105 81.6902 138.582C81.7048 137.99 82.0919 137.564 82.7851 137.587Z" fill="#7C4DC2"/>
<path d="M87.2 137.337L90.1218 137.313C89.8935 136.458 89.1164 136.067 88.2252 136.075C87.4656 136.081 86.8992 136.337 86.3482 136.71L85.6523 135.66C86.2736 135.047 87.3515 134.762 88.1834 134.756C90.4336 134.738 91.8604 135.94 91.8802 137.841C91.8978 139.569 90.6267 140.965 88.4074 140.983C87.1385 140.993 86.2714 140.67 85.6677 140.12L86.447 139.11C86.8136 139.398 87.4898 139.67 88.291 139.662C89.2833 139.654 89.9813 139.2 90.146 138.327L87.211 138.35L87.2 137.337Z" fill="#7C4DC2"/>
<path d="M92.4473 134.959L99.1724 134.755L99.2415 136.314L96.8296 136.387L97.0318 140.926L95.1452 140.983L94.943 136.444L92.5139 136.518L92.4473 134.959Z" fill="#7C4DC2"/>
<path d="M102.409 134.201C104.469 134.049 105.895 135.403 106.026 137.339C106.157 139.276 104.927 140.821 102.868 140.972C100.806 141.121 99.3821 139.77 99.2508 137.832C99.1194 135.896 100.349 134.35 102.409 134.201ZM102.765 139.436C103.747 139.365 104.417 138.58 104.341 137.462C104.266 136.372 103.483 135.678 102.515 135.749C101.575 135.816 100.877 136.588 100.952 137.708C101.025 138.785 101.796 139.506 102.765 139.436Z" fill="#7C4DC2"/>
<path d="M108.866 133.916L110.439 133.738L113.123 135.956L114.948 133.228L116.476 133.057L117.359 138.992L115.619 139.187L115.08 135.561L113.398 138.004L113.352 138.01L110.952 136.028L111.491 139.655L109.751 139.851L108.866 133.916Z" fill="#7C4DC2"/>
<path d="M46.7683 128.358L48.1737 128.803L49.4142 131.992L52.2005 130.081L53.5641 130.514L51.5849 136.576L50.0306 136.083L51.2395 132.377L48.703 134.071L48.6613 134.058L47.549 131.208L46.3402 134.913L44.7859 134.419L46.7683 128.358Z" fill="#7C4DC2"/>
<path d="M55.4771 131.44C56.0896 131.243 56.9992 131.156 57.8174 131.339C59.6585 131.753 60.0907 132.835 59.7084 134.479L58.8287 138.259L57.4457 137.949L57.6125 137.232C57.1718 137.626 56.4307 137.808 55.5851 137.619C54.4491 137.364 53.7966 136.477 54.0759 135.277C54.3926 133.912 55.5544 133.489 56.8147 133.771C57.3681 133.896 57.8799 134.2 58.1335 134.489C58.4159 133.462 58.2704 132.835 57.3424 132.628C56.6227 132.467 56.1146 132.585 55.6093 132.689L55.4771 131.44ZM57.7567 136.103L57.9056 135.468C57.6784 135.199 57.3407 135.022 56.8825 134.918C56.3565 134.8 55.8268 134.943 55.7044 135.467C55.5961 135.937 55.9223 136.284 56.421 136.396C57.0857 136.547 57.4975 136.335 57.7567 136.103Z" fill="#7C4DC2"/>
<path d="M62.0577 132.362L66.2947 133.019L66.0475 134.528L63.4229 134.121L62.6421 138.9L61.0281 138.649L62.0577 132.362Z" fill="#7C4DC2"/>
<path d="M66.9086 139.526L67.4665 133.184L69.0947 133.313L68.7418 137.33L72.0671 133.552L73.6936 133.683L73.1358 140.025L71.5093 139.894L71.8622 135.878L68.5369 139.655L66.9086 139.526Z" fill="#7C4DC2"/>
<path d="M80.9059 133.726L80.8816 140.089L79.2464 140.093L79.2536 138.183L78.344 138.185L77.0136 140.098L75.1369 140.103L76.8508 137.836C76.2963 137.639 75.6179 137.048 75.6212 136.001C75.6254 134.771 76.5109 133.736 78.8128 133.729L80.9059 133.726ZM78.4068 136.984L79.2605 136.981L79.2688 135.143L78.5431 135.145C77.7469 135.147 77.3766 135.629 77.3725 136.109C77.37 136.634 77.8946 136.984 78.4068 136.984Z" fill="#7C4DC2"/>
<path d="M119.385 132.836C119.943 132.424 120.839 132.016 121.74 131.91C123.767 131.668 124.594 132.592 124.788 134.357L125.234 138.421L123.71 138.602L123.626 137.829C123.315 138.378 122.622 138.82 121.692 138.93C120.442 139.078 119.46 138.429 119.319 137.138C119.16 135.669 120.194 134.84 121.581 134.675C122.192 134.602 122.821 134.722 123.184 134.921C123.108 133.804 122.736 133.232 121.715 133.354C120.921 133.448 120.445 133.746 119.968 134.026L119.385 132.836ZM123.368 136.658L123.292 135.975C122.962 135.788 122.554 135.732 122.053 135.792C121.474 135.86 120.984 136.191 121.047 136.753C121.102 137.256 121.56 137.489 122.11 137.422C122.841 137.338 123.189 136.98 123.368 136.658Z" fill="#7C4DC2"/>
<path d="M126.275 131.603L127.784 131.31L127.9 131.89C128.187 131.415 128.815 130.957 129.576 130.811C131.202 130.497 132.514 131.587 132.878 133.377C133.251 135.222 132.308 136.886 130.419 137.252C129.894 137.354 129.363 137.357 128.98 137.222L129.555 140.062L128.046 140.355L126.275 131.603ZM128.181 133.278L128.677 135.729C129.138 135.92 129.495 135.934 129.995 135.838C131.044 135.636 131.489 134.737 131.285 133.727C131.088 132.757 130.395 132.165 129.398 132.357C128.888 132.457 128.463 132.79 128.181 133.278Z" fill="#7C4DC2"/>
<path d="M134.012 129.584L135.692 129.1L137.5 135.409L135.82 135.893L134.012 129.584ZM138.569 131.523L142.355 134.017L140.161 134.647L136.646 132.212L138.117 128.405L140.237 127.797L138.569 131.523Z" fill="#7C4DC2"/>
<path d="M148.45 130.455C148.006 131.201 147.191 131.779 146.298 132.108C144.245 132.864 142.394 132.104 141.677 130.19C141.013 128.425 141.754 126.539 143.851 125.767C145.493 125.162 147.287 125.773 147.926 127.472C148.068 127.85 148.125 128.088 148.142 128.344L143.54 130.041C144.025 130.905 144.979 131.123 145.983 130.753C146.761 130.465 147.311 129.956 147.573 129.538L148.45 130.455ZM143.093 129.022L146.221 127.868C145.956 127.121 145.199 126.74 144.267 127.084C143.291 127.446 142.964 128.164 143.093 129.022Z" fill="#7C4DC2"/>
<path d="M147.594 124.693L153.104 122.134L153.838 123.748L151.862 124.665L154.004 129.366L152.458 130.083L150.316 125.381L148.327 126.305L147.594 124.693Z" fill="#7C4DC2"/>
<path d="M157.903 127.153L154.564 121.263L156.095 120.41L158.209 124.141L158.893 118.852L160.425 117.999L163.764 123.889L162.233 124.742L160.119 121.012L159.435 126.3L157.903 127.153Z" fill="#7C4DC2"/>
<path d="M168.26 118.152L165.87 119.827L167.343 122.019L165.948 122.996L162.098 117.265L163.493 116.288L164.947 118.454L167.336 116.779L165.882 114.613L167.277 113.635L171.127 119.366L169.732 120.344L168.26 118.152Z" fill="#7C4DC2"/>
<path d="M169.38 112.495L173.152 109.588L174.201 110.844L171.864 112.644L175.18 116.622L173.745 117.73L169.38 112.495Z" fill="#7C4DC2"/>
</svg>
