<svg width="350" height="330" viewBox="0 0 350 330" fill="none" xmlns="http://www.w3.org/2000/svg">
<g clip-path="url(#clip0_437_443)">
<path d="M88.4605 201.558L88.6242 204.308C89.4363 204.045 89.774 203.289 89.7243 202.449C89.6808 201.735 89.4094 201.215 89.022 200.718L89.9977 200C90.6172 200.55 90.9424 201.549 90.9901 202.332C91.1165 204.449 90.0267 205.866 88.2016 205.992C86.5401 206.108 85.1354 204.99 85.0111 202.9C84.9407 201.704 85.208 200.871 85.7093 200.269L86.7182 200.945C86.4593 201.309 86.2314 201.96 86.2749 202.716C86.3308 203.652 86.8011 204.281 87.6484 204.389L87.4848 201.625L88.4605 201.558Z" fill="#7C4DC2"/>
<path d="M91.3092 206L92 211.78L90.5797 212L90.3319 209.927L86.193 210.572L86 208.951L90.1388 208.307L89.8889 206.22L91.3092 206Z" fill="#7C4DC2"/>
<path d="M92.9117 215.787C93.3108 217.863 92.3214 219.505 90.6552 219.912C88.989 220.321 87.4873 219.287 87.0883 217.213C86.6892 215.139 87.6786 213.495 89.3448 213.088C91.011 212.679 92.5147 213.711 92.9117 215.787ZM88.4089 216.888C88.5981 217.877 89.3675 218.446 90.3302 218.212C91.2682 217.982 91.768 217.088 91.5808 216.112C91.3998 215.165 90.6387 214.563 89.676 214.8C88.7504 215.028 88.2217 215.915 88.4089 216.888Z" fill="#7C4DC2"/>
<path d="M92.7511 227.901L91.8318 225.541L89.5369 226.263L89 224.886L95.0069 223L95.5438 224.377L93.2742 225.091L94.1935 227.45L96.4631 226.737L97 228.114L90.9931 230L90.4562 228.623L92.7511 227.901Z" fill="#7C4DC2"/>
<path d="M94.8599 237C94.1889 236.679 93.6496 236.034 93.3244 235.307C92.5731 233.635 93.1535 232.031 94.7899 231.294C96.2987 230.615 97.9763 231.109 98.742 232.816C99.3431 234.154 98.8882 235.703 97.437 236.353C97.1138 236.498 96.908 236.563 96.6857 236.594L95.0019 232.847C94.2692 233.314 94.123 234.127 94.4915 234.947C94.7755 235.581 95.2448 236.007 95.6215 236.199L94.8599 237ZM95.8706 232.404L97.015 234.951C97.6531 234.677 97.9537 234.016 97.6099 233.256C97.2538 232.46 96.6116 232.235 95.8706 232.404Z" fill="#7C4DC2"/>
<path d="M102.356 239L103.11 240.205L101.981 243.303L105.269 243.657L106 244.826L100.646 248L99.8131 246.667L103.085 244.727L100.122 244.371L100.099 244.335L101.105 241.564L97.8332 243.504L97 242.172L102.356 239Z" fill="#7C4DC2"/>
<path d="M105.837 247C106.35 247.239 106.997 247.74 107.43 248.38C108.403 249.821 108.071 250.87 106.884 251.819L104.155 254L103.423 252.918L103.941 252.504C103.427 252.515 102.837 252.186 102.39 251.525C101.79 250.636 101.866 249.591 102.732 248.899C103.717 248.11 104.721 248.527 105.387 249.512C105.68 249.946 105.843 250.482 105.845 250.848C106.614 250.283 106.876 249.74 106.385 249.015C106.004 248.452 105.603 248.222 105.212 247.983L105.837 247ZM104.678 251.779L105.138 251.413C105.142 251.078 105.021 250.741 104.779 250.382C104.501 249.97 104.072 249.744 103.693 250.047C103.355 250.318 103.371 250.772 103.635 251.161C103.985 251.683 104.376 251.786 104.678 251.779Z" fill="#7C4DC2"/>
<path d="M110.471 251L113 254.055L111.927 254.976L110.36 253.083L106.963 256L106 254.836L110.471 251Z" fill="#7C4DC2"/>
<path d="M109 259.002L113.089 255L114.112 256.045L111.523 258.579L115.979 257.953L117 258.998L112.911 263L111.89 261.955L114.479 259.421L110.023 260.047L109 259.002Z" fill="#7C4DC2"/>
<path d="M123 264.365L119.076 269L117.916 267.975L119.093 266.584L118.448 266.013L116.332 266.575L115 265.399L117.605 264.819C117.334 264.327 117.216 263.468 117.861 262.705C118.62 261.808 119.882 261.609 121.516 263.051L123 264.365ZM119.23 265.175L119.836 265.709L120.971 264.371L120.456 263.916C119.891 263.417 119.332 263.537 119.035 263.885C118.711 264.267 118.867 264.853 119.23 265.175Z" fill="#7C4DC2"/>
<path d="M121.593 269.244C122.142 269.669 122.121 270.415 121.616 271.082C120.954 271.953 119.981 272.211 119 271.827L119.104 271.029C119.428 271.132 119.754 271.172 120.138 270.964C120.378 270.84 120.551 270.697 120.589 270.565C120.466 270.6 120.342 270.506 120.261 270.443C119.996 270.239 119.952 269.765 120.24 269.387C120.568 268.958 121.084 268.851 121.593 269.244Z" fill="#7C4DC2"/>
<path d="M128.887 271.425L131.284 272.965C131.602 272.064 131.194 271.295 130.464 270.826C129.841 270.425 129.227 270.355 128.558 270.401L128.606 269.074C129.473 268.85 130.522 269.165 131.203 269.604C133.05 270.788 133.511 272.645 132.41 274.383C131.41 275.964 129.552 276.554 127.731 275.386C126.688 274.716 126.171 273.961 126 273.14L127.228 272.638C127.36 273.095 127.751 273.704 128.409 274.126C129.225 274.649 130.059 274.609 130.708 273.905L128.298 272.358L128.887 271.425Z" fill="#7C4DC2"/>
<path d="M134.134 272L139 274.62L138.261 275.98L136.516 275.04L134.365 279L133 278.264L135.15 274.304L133.394 273.358L134.134 272Z" fill="#7C4DC2"/>
<path d="M142.859 275.311C144.795 276.065 145.46 277.7 144.682 279.238C143.904 280.775 142.077 281.442 140.141 280.69C138.205 279.937 137.54 278.301 138.318 276.764C139.094 275.224 140.923 274.557 142.859 275.311ZM140.757 279.469C141.678 279.829 142.649 279.51 143.098 278.62C143.536 277.755 143.146 276.894 142.236 276.54C141.354 276.197 140.363 276.493 139.914 277.383C139.483 278.238 139.847 279.116 140.757 279.469Z" fill="#7C4DC2"/>
<path d="M149.682 279L150.989 279.413L152.21 282.528L154.732 280.593L156 280.992L154.322 287L152.876 286.544L153.901 282.873L151.604 284.588L151.566 284.577L150.47 281.791L149.445 285.462L148 285.006L149.682 279Z" fill="#7C4DC2"/>
<path d="M157.17 281.229C157.698 281.021 158.484 280.915 159.197 281.084C160.805 281.46 161.205 282.54 160.911 284.193L160.236 288L159.028 287.716L159.157 286.992C158.783 287.397 158.144 287.593 157.407 287.42C156.416 287.186 155.829 286.31 156.044 285.101C156.289 283.726 157.286 283.28 158.385 283.539C158.87 283.652 159.32 283.945 159.547 284.232C159.768 283.199 159.627 282.572 158.817 282.383C158.188 282.235 157.75 282.364 157.316 282.477L157.17 281.229ZM159.253 285.857L159.366 285.217C159.161 284.951 158.864 284.78 158.466 284.687C158.008 284.579 157.551 284.734 157.459 285.261C157.375 285.732 157.666 286.077 158.102 286.178C158.681 286.317 159.036 286.095 159.253 285.857Z" fill="#7C4DC2"/>
<path d="M164.072 282L165.644 282.187L165.572 282.77C166.005 282.41 166.767 282.169 167.558 282.265C169.251 282.467 170.186 283.901 169.969 285.703C169.742 287.562 168.285 288.843 166.319 288.61C165.771 288.545 165.251 288.385 164.919 288.14L164.572 291L163 290.813L164.072 282ZM165.401 284.168L165.101 286.636C165.491 286.958 165.836 287.081 166.357 287.143C167.449 287.274 168.173 286.562 168.296 285.545C168.415 284.568 167.926 283.796 166.888 283.671C166.357 283.609 165.834 283.794 165.401 284.168Z" fill="#7C4DC2"/>
<path d="M171.217 283L172.76 283.052L172.543 288.845L171 288.792L171.217 283ZM174.509 285.872L177 289L174.986 288.931L172.705 285.927L174.986 283.13L176.932 283.197L174.509 285.872Z" fill="#7C4DC2"/>
<path d="M183.615 288.195C183.037 288.7 182.194 288.963 181.354 288.997C179.423 289.071 178.079 287.927 178.003 286.125C177.932 284.461 179.072 283.079 181.043 283.003C182.588 282.942 183.925 283.945 183.995 285.547C184.01 285.903 183.993 286.119 183.936 286.338L179.608 286.508C179.777 287.366 180.518 287.809 181.463 287.772C182.194 287.743 182.796 287.465 183.13 287.186L183.615 288.195ZM179.512 285.53L182.455 285.414C182.438 284.714 181.908 284.188 181.03 284.223C180.112 284.26 179.641 284.774 179.512 285.53Z" fill="#7C4DC2"/>
<path d="M184 282.596L189.812 282L190 283.436L187.916 283.65L188.467 287.834L186.837 288L186.286 283.816L184.188 284.031L184 282.596Z" fill="#7C4DC2"/>
<path d="M192.184 288L191 282.142L192.52 281.844L193.269 285.553L195.296 281.299L196.816 281L198 286.858L196.48 287.156L195.731 283.447L193.704 287.701L192.184 288Z" fill="#7C4DC2"/>
<path d="M203.927 282.791L201.462 283.496L202.095 285.589L200.656 286L199 280.527L200.439 280.116L201.064 282.184L203.53 281.479L202.905 279.411L204.344 279L206 284.473L204.561 284.884L203.927 282.791Z" fill="#7C4DC2"/>
<path d="M206 278.413L209.524 277L210 278.341L207.817 279.215L209.319 283.461L207.978 284L206 278.413Z" fill="#7C4DC2"/>
<path d="M122.753 139.937C122.441 138.788 122.052 137.927 121.585 137.351C121.118 136.777 120.612 136.372 120.065 136.137C119.52 135.903 118.908 135.785 118.234 135.785H118V135H140.827V135.785H138.801C137.242 135.785 136.074 136.007 135.296 136.451C134.518 136.894 134.128 137.771 134.128 139.075C134.128 139.495 134.193 140.015 134.323 140.643C134.453 141.27 134.595 141.872 134.751 142.446L138.647 156.001C139.063 157.36 139.53 158.991 140.049 160.899C140.568 162.806 141.087 164.674 141.608 166.501C142.127 168.329 142.542 169.845 142.855 171.046H143.011C143.167 170.419 143.309 169.869 143.439 169.399C143.569 168.93 143.699 168.46 143.828 167.99C143.958 167.52 144.101 167.025 144.256 166.501L152.903 135.394H157.889L165.524 158.509C165.836 159.448 166.147 160.403 166.459 161.368C166.77 162.336 167.081 163.328 167.393 164.345C167.704 165.363 168.002 166.37 168.288 167.362C168.573 168.353 168.846 169.321 169.105 170.261H169.339C169.546 169.373 169.832 168.251 170.195 166.892C170.558 165.535 170.96 164.084 171.402 162.545C171.843 161.005 172.245 159.581 172.608 158.274L176.738 143.542C176.946 142.864 177.114 142.146 177.244 141.387C177.374 140.63 177.439 140.043 177.439 139.623C177.439 138.264 177.01 137.286 176.154 136.685C175.298 136.085 174.011 135.785 172.297 135.785H169.652V135H185V135.785H183.675C182.74 135.785 181.934 135.942 181.259 136.255C180.582 136.568 179.986 137.168 179.467 138.058C178.948 138.947 178.455 140.252 177.986 141.976L168.169 177H160.845L150.797 145.969L142.15 176.998H133.737L122.753 139.937Z" fill="#7C4DC2"/>
<path d="M145.12 244C141.608 244 138.657 243.232 136.274 241.701C133.889 240.17 132.079 237.793 130.849 234.571C129.615 231.35 129 227.22 129 222.18C129 217.143 129.615 213.039 130.849 209.868C132.079 206.7 133.863 204.349 136.196 202.816C138.529 201.284 141.372 200.517 144.727 200.517C147.872 200.517 150.467 201.388 152.512 203.127C154.557 204.868 155.866 207.556 156.442 211.192H156.6C156.6 209.116 156.586 207.178 156.56 205.387C156.534 203.594 156.521 202.011 156.521 200.633C156.521 199.258 156.521 198.153 156.521 197.322V189.532C156.521 188.129 156.207 187.091 155.578 186.416C154.95 185.741 154.201 185.3 153.337 185.09C152.473 184.882 151.672 184.779 150.938 184.779H149.995V184H168.474V237.378C168.474 238.833 168.776 239.923 169.378 240.65C169.98 241.379 170.727 241.859 171.619 242.093C172.51 242.326 173.322 242.443 174.057 242.443H175V243.221H156.6V232.546H156.442C155.919 236.495 154.633 239.391 152.59 241.234C150.545 243.079 148.055 244 145.12 244ZM148.422 242.054C151.095 242.054 153.114 240.289 154.476 236.755C155.838 233.223 156.521 228.002 156.521 221.093C156.521 216.99 156.207 213.56 155.578 210.807C154.95 208.054 154.031 205.975 152.826 204.572C151.619 203.168 150.1 202.467 148.265 202.467C146.691 202.467 145.366 203.168 144.293 204.572C143.217 205.975 142.418 208.054 141.894 210.807C141.37 213.56 141.108 216.99 141.108 221.093C141.108 225.716 141.383 229.586 141.933 232.702C142.483 235.818 143.31 238.156 144.41 239.716C145.513 241.273 146.85 242.054 148.422 242.054Z" fill="#7C4DC2"/>
<path d="M195.012 245C190.44 245 187.036 243.794 184.804 241.378C182.57 238.963 181.454 235.106 181.454 229.801V208.382C181.454 206.756 181.26 205.547 180.87 204.758C180.481 203.971 179.908 203.447 179.155 203.185C178.401 202.922 177.427 202.791 176.234 202.791H176V202.002H193.299V232.4C193.299 234.658 193.494 236.548 193.883 238.069C194.272 239.593 194.895 240.734 195.754 241.494C196.61 242.257 197.741 242.635 199.143 242.635C201.013 242.635 202.466 242.006 203.507 240.745C204.545 239.483 205.271 237.726 205.689 235.468C206.104 233.211 206.312 230.614 206.312 227.672V207.906C206.312 206.384 206.013 205.268 205.416 204.559C204.819 203.851 204.093 203.377 203.234 203.143C202.376 202.907 201.558 202.789 200.78 202.789H200.468V202H218.157V238.618C218.157 239.984 218.468 241.02 219.091 241.728C219.714 242.436 220.455 242.897 221.312 243.107C222.168 243.317 222.96 243.422 223.689 243.422H224V244.209H206.312V236.806H206.156C205.689 238.539 205.064 239.956 204.285 241.059C203.507 242.161 202.622 242.989 201.636 243.54C200.65 244.091 199.584 244.471 198.442 244.681C197.298 244.895 196.154 245 195.012 245Z" fill="#7C4DC2"/>
<path d="M197.813 194C190.979 194 185.803 192.099 182.282 188.294C178.761 184.49 177 179.177 177 172.354C177 164.954 178.707 159.379 182.124 155.628C185.54 151.877 190.349 150 196.552 150C202.281 150 206.788 151.601 210.072 154.802C213.357 158.003 215 163.067 215 169.265C215 170.145 214.284 170.86 213.403 170.86H191.052C189.995 170.86 189.139 171.727 189.157 172.782C189.233 177.208 189.584 180.857 190.205 183.73C190.914 187.011 192.045 189.397 193.594 190.893C195.143 192.39 197.154 193.137 199.625 193.137C201.465 193.137 203.178 192.822 204.631 191.955C208.344 189.74 206.215 185.943 206.215 183.603C206.215 181.486 207.58 179.07 210.541 179.07C213.519 179.07 214.996 181.077 214.996 183.603C214.996 189.189 208.729 191.772 206.443 192.663C204.16 193.554 201.283 194 197.813 194ZM201.112 170.073C202.165 170.073 203.018 169.21 203.005 168.159C202.961 164.275 202.78 161.12 202.465 158.7C202.097 155.892 201.441 153.871 200.493 152.639C199.548 151.407 198.233 150.789 196.55 150.789C194.868 150.789 193.476 151.407 192.371 152.639C191.266 153.873 190.465 155.894 189.966 158.7C189.535 161.116 189.271 164.262 189.174 168.135C189.148 169.197 190.004 170.073 191.067 170.073H201.112V170.073Z" fill="#7C4DC2"/>
<path d="M244 122.54H236.455C229.83 122.54 224.459 117.169 224.459 110.545V103H223.541V110.545C223.541 117.169 218.17 122.54 211.545 122.54H204V123.458H211.545C218.17 123.458 223.541 128.829 223.541 135.453V143H224.459V135.453C224.459 128.829 229.83 123.458 236.455 123.458H244V122.54Z" fill="#7C4DC2"/>
<path d="M228.825 268L228 266.874C238.503 259.033 247.209 248.711 253.181 237.023C259.438 224.771 262.611 211.521 262.611 197.639C262.611 172.938 252.074 149.397 233.699 133.052L234.617 132C253.29 148.609 264 172.534 264 197.639C264 211.746 260.776 225.214 254.415 237.665C248.346 249.544 239.498 260.034 228.825 268Z" fill="#7C4DC2"/>
</g>
<defs>
<clipPath id="clip0_437_443">
<rect width="350" height="330" fill="white"/>
</clipPath>
</defs>
</svg>
