<svg width="350" height="349" viewBox="0 0 350 349" fill="none" xmlns="http://www.w3.org/2000/svg">
<circle cx="175.188" cy="174.5" r="172.915" fill="#F2B94B" stroke="#7C4DC2" stroke-width="2.83093"/>
<path d="M78.9048 154.216C78.6285 153.225 78.2832 152.482 77.8687 151.985C77.4543 151.49 77.0053 151.141 76.5199 150.938C76.0364 150.735 75.4934 150.634 74.8947 150.634H74.6875V149.957H94.9434V150.634H93.1455C91.7622 150.634 90.726 150.825 90.0353 151.208C89.3446 151.591 88.9992 152.347 88.9992 153.473C88.9992 153.835 89.0568 154.283 89.1719 154.826C89.287 155.366 89.4136 155.886 89.5518 156.381L93.0093 168.076C93.3777 169.248 93.7921 170.655 94.2526 172.301C94.7131 173.946 95.1736 175.558 95.636 177.134C96.0965 178.712 96.4649 180.02 96.7431 181.056H96.8813C97.0194 180.515 97.1461 180.04 97.2612 179.635C97.3763 179.23 97.4914 178.825 97.6066 178.419C97.7217 178.014 97.8483 177.586 97.9865 177.134L105.659 150.296H110.084L116.859 170.239C117.135 171.05 117.412 171.873 117.688 172.706C117.964 173.541 118.24 174.397 118.517 175.275C118.793 176.153 119.058 177.022 119.311 177.877C119.564 178.733 119.806 179.568 120.036 180.378H120.244C120.428 179.613 120.681 178.645 121.003 177.472C121.326 176.301 121.683 175.05 122.074 173.721C122.465 172.393 122.822 171.164 123.145 170.036L126.809 157.327C126.994 156.741 127.143 156.122 127.258 155.467C127.374 154.814 127.431 154.308 127.431 153.946C127.431 152.773 127.051 151.929 126.291 151.411C125.532 150.893 124.39 150.634 122.868 150.634H120.518V149.957H134.137V150.634H132.961C132.132 150.634 131.416 150.769 130.818 151.039C130.217 151.31 129.687 151.827 129.227 152.595C128.766 153.362 128.329 154.488 127.913 155.976L119.202 186.193H112.703L103.785 159.422L96.1119 186.193H88.6462L78.9048 154.216Z" fill="#7C4DC2"/>
<path d="M178.231 188.457C175.163 188.457 172.584 187.776 170.501 186.418C168.417 185.06 166.836 182.951 165.76 180.093C164.682 177.236 164.145 173.572 164.145 169.103C164.145 164.635 164.682 160.994 165.76 158.181C166.836 155.371 168.394 153.286 170.433 151.925C172.472 150.567 174.957 149.886 177.888 149.886C180.637 149.886 182.904 150.659 184.691 152.202C186.478 153.746 187.623 156.131 188.126 159.355H188.264C188.264 157.514 188.252 155.795 188.229 154.206C188.206 152.616 188.195 151.212 188.195 149.99C188.195 148.77 188.195 147.789 188.195 147.053V140.143C188.195 138.9 187.92 137.977 187.371 137.378C186.822 136.78 186.168 136.389 185.412 136.202C184.657 136.018 183.957 135.926 183.316 135.926H182.492V135.236H198.641V182.583C198.641 183.874 198.904 184.841 199.431 185.485C199.957 186.132 200.609 186.558 201.389 186.765C202.168 186.972 202.877 187.076 203.52 187.076H204.344V187.766H188.264V178.297H188.126C187.669 181.8 186.545 184.369 184.76 186.003C182.973 187.64 180.797 188.457 178.231 188.457ZM181.117 186.73C183.454 186.73 185.218 185.165 186.408 182.03C187.598 178.898 188.195 174.267 188.195 168.138C188.195 164.498 187.92 161.456 187.371 159.014C186.822 156.572 186.019 154.728 184.966 153.483C183.911 152.24 182.584 151.617 180.98 151.617C179.605 151.617 178.447 152.238 177.509 153.483C176.568 154.728 175.87 156.572 175.413 159.014C174.955 161.456 174.726 164.498 174.726 168.138C174.726 172.239 174.966 175.671 175.447 178.435C175.928 181.2 176.65 183.274 177.612 184.657C178.575 186.038 179.744 186.73 181.117 186.73Z" fill="#7C4DC2"/>
<path d="M223.428 187.891C219.383 187.891 216.372 186.827 214.397 184.696C212.421 182.566 211.434 179.162 211.434 174.483V155.587C211.434 154.152 211.261 153.086 210.917 152.39C210.573 151.696 210.066 151.233 209.4 151.002C208.732 150.77 207.871 150.655 206.815 150.655H206.608V149.959H221.912V176.775C221.912 178.767 222.084 180.435 222.429 181.777C222.773 183.121 223.324 184.127 224.084 184.798C224.841 185.471 225.842 185.805 227.082 185.805C228.737 185.805 230.022 185.25 230.943 184.137C231.861 183.025 232.504 181.474 232.873 179.483C233.24 177.491 233.424 175.2 233.424 172.605V155.167C233.424 153.825 233.16 152.839 232.632 152.215C232.104 151.59 231.461 151.172 230.702 150.965C229.942 150.757 229.219 150.653 228.53 150.653H228.255V149.957H243.903V182.261C243.903 183.466 244.178 184.38 244.729 185.005C245.28 185.629 245.937 186.036 246.694 186.221C247.454 186.407 248.152 186.499 248.797 186.499H249.072V187.193H233.424V180.663H233.286C232.873 182.192 232.32 183.441 231.631 184.415C230.943 185.387 230.16 186.117 229.288 186.603C228.415 187.089 227.472 187.425 226.462 187.61C225.45 187.799 224.438 187.891 223.428 187.891Z" fill="#7C4DC2"/>
<path d="M146.514 203.178C140.406 203.178 135.777 201.539 132.63 198.258C129.483 194.979 127.908 190.398 127.908 184.516C127.908 178.136 129.434 173.329 132.489 170.095C135.543 166.861 139.842 165.243 145.388 165.243C150.509 165.243 154.538 166.624 157.474 169.383C160.41 172.143 161.879 176.509 161.879 181.852C161.879 182.611 161.24 183.227 160.451 183.227H140.47C139.525 183.227 138.76 183.975 138.776 184.885C138.845 188.701 139.158 191.846 139.713 194.323C140.347 197.152 141.358 199.209 142.743 200.499C144.128 201.79 145.926 202.434 148.134 202.434C149.779 202.434 151.311 202.163 152.61 201.415C155.929 199.505 154.026 196.231 154.026 194.214C154.026 192.389 155.246 190.306 157.893 190.306C160.555 190.306 161.875 192.037 161.875 194.214C161.875 199.03 156.273 201.257 154.229 202.025C152.189 202.792 149.617 203.178 146.514 203.178ZM149.466 182.547C150.407 182.547 151.17 181.803 151.158 180.897C151.119 177.549 150.957 174.829 150.675 172.742C150.346 170.321 149.76 168.579 148.913 167.517C148.067 166.455 146.892 165.921 145.388 165.921C143.883 165.921 142.639 166.455 141.652 167.517C140.664 168.581 139.948 170.323 139.502 172.742C139.117 174.825 138.88 177.537 138.794 180.877C138.77 181.792 139.535 182.549 140.486 182.549H149.466V182.547Z" fill="#7C4DC2"/>
<path d="M262.094 116.701H255.259C249.258 116.701 244.392 111.836 244.392 105.835V99H243.561V105.835C243.561 111.836 238.695 116.701 232.693 116.701H225.858V117.533H232.693C238.695 117.533 243.561 122.398 243.561 128.399V135.236H244.392V128.399C244.392 122.398 249.258 117.533 255.259 117.533H262.094V116.701Z" fill="#7C4DC2"/>
<path d="M252.136 207.708L251.337 206.611C267.127 194.73 275.473 180.456 275.473 165.327C275.473 150.888 267.8 137.133 253.284 125.551L254.112 124.478C268.964 136.328 276.815 150.453 276.815 165.327C276.813 180.904 268.279 195.558 252.136 207.708Z" fill="#7C4DC2"/>
<path d="M85.6543 216.129L87.8971 217.347C88.1231 216.524 87.7114 215.864 87.0257 215.491C86.4434 215.175 85.8899 215.15 85.2942 215.235L85.2521 214.048C86.0144 213.792 86.9701 214.006 87.6098 214.352C89.3375 215.289 89.8661 216.916 88.9946 218.537C88.1998 220.013 86.5775 220.659 84.8709 219.734C83.896 219.205 83.3846 218.564 83.1797 217.841L84.2465 217.314C84.394 217.714 84.7809 218.232 85.3996 218.566C86.1619 218.98 86.9069 218.889 87.4413 218.218L85.187 216.995L85.6543 216.129Z" fill="#7C4DC2"/>
<path d="M90.2612 216.201L95.6353 218.306L94.9207 219.552L92.995 218.798L90.9147 222.429L89.4072 221.838L91.4876 218.207L89.5488 217.447L90.2612 216.201Z" fill="#7C4DC2"/>
<path d="M99.3184 219.316C101.06 220.051 101.698 221.735 101.048 223.354C100.4 224.971 98.7899 225.709 97.0486 224.975C95.3054 224.24 94.6685 222.557 95.3187 220.94C95.9669 219.318 97.5752 218.582 99.3184 219.316ZM97.5619 223.691C98.3926 224.042 99.2462 223.685 99.6207 222.75C99.9857 221.84 99.6169 220.955 98.7975 220.608C98.0029 220.273 97.1303 220.606 96.7558 221.542C96.3946 222.442 96.7425 223.346 97.5619 223.691Z" fill="#7C4DC2"/>
<path d="M108.282 226.607L105.757 225.803L105.036 227.951L103.562 227.482L105.446 221.862L106.921 222.33L106.209 224.454L108.735 225.258L109.447 223.134L110.922 223.603L109.037 229.223L107.562 228.755L108.282 226.607Z" fill="#7C4DC2"/>
<path d="M116.256 231.771C115.467 232.122 114.486 232.128 113.59 231.889C111.528 231.342 110.516 229.686 111.073 227.74C111.588 225.946 113.28 224.848 115.384 225.405C117.035 225.843 118.088 227.347 117.593 229.073C117.483 229.458 117.387 229.682 117.25 229.896L112.628 228.667C112.504 229.637 113.127 230.349 114.136 230.616C114.919 230.823 115.651 230.723 116.103 230.535L116.256 231.771ZM112.874 227.601L116.019 228.437C116.247 227.687 115.877 226.954 114.939 226.704C113.956 226.441 113.275 226.837 112.874 227.601Z" fill="#7C4DC2"/>
<path d="M157.313 236.018C158.061 236.043 158.51 236.723 158.481 237.639C158.442 238.839 157.751 239.692 156.645 239.98L156.241 239.204C156.591 239.089 156.901 238.915 157.112 238.484C157.245 238.219 157.307 237.981 157.257 237.839C157.17 237.949 157.005 237.943 156.895 237.941C156.535 237.928 156.2 237.535 156.219 237.013C156.233 236.421 156.62 235.995 157.313 236.018Z" fill="#7C4DC2"/>
<path d="M161.728 235.768L164.65 235.744C164.422 234.889 163.645 234.498 162.753 234.506C161.994 234.512 161.428 234.768 160.877 235.141L160.181 234.091C160.802 233.478 161.88 233.192 162.712 233.186C164.962 233.169 166.389 234.371 166.409 236.272C166.426 238 165.155 239.396 162.936 239.414C161.667 239.424 160.8 239.101 160.196 238.551L160.975 237.541C161.342 237.829 162.018 238.101 162.819 238.093C163.812 238.085 164.51 237.631 164.674 236.758L161.739 236.781L161.728 235.768Z" fill="#7C4DC2"/>
<path d="M166.976 233.39L173.701 233.186L173.77 234.745L171.358 234.818L171.56 239.357L169.674 239.414L169.471 234.875L167.042 234.949L166.976 233.39Z" fill="#7C4DC2"/>
<path d="M176.937 232.631C178.997 232.48 180.423 233.834 180.554 235.77C180.686 237.707 179.456 239.251 177.396 239.403C175.334 239.552 173.91 238.2 173.779 236.263C173.648 234.327 174.878 232.781 176.937 232.631ZM177.294 237.867C178.276 237.796 178.945 237.011 178.87 235.893C178.795 234.803 178.011 234.109 177.044 234.18C176.103 234.247 175.405 235.019 175.48 236.139C175.553 237.216 176.324 237.937 177.294 237.867Z" fill="#7C4DC2"/>
<path d="M183.395 232.347L184.967 232.169L187.651 234.387L189.476 231.659L191.005 231.488L191.887 237.423L190.148 237.618L189.609 233.991L187.926 236.435L187.88 236.441L185.48 234.459L186.019 238.086L184.279 238.282L183.395 232.347Z" fill="#7C4DC2"/>
<path d="M121.297 226.788L122.702 227.234L123.942 230.423L126.729 228.512L128.092 228.945L126.113 235.007L124.559 234.514L125.768 230.808L123.231 232.502L123.19 232.489L122.077 229.639L120.869 233.344L119.314 232.85L121.297 226.788Z" fill="#7C4DC2"/>
<path d="M130.005 229.87C130.618 229.674 131.527 229.587 132.346 229.77C134.187 230.184 134.619 231.266 134.237 232.91L133.357 236.69L131.974 236.38L132.141 235.663C131.7 236.057 130.959 236.239 130.113 236.05C128.977 235.794 128.325 234.908 128.604 233.708C128.921 232.343 130.083 231.92 131.343 232.202C131.896 232.327 132.408 232.631 132.662 232.919C132.944 231.893 132.799 231.265 131.871 231.059C131.151 230.898 130.643 231.016 130.138 231.12L130.005 229.87ZM132.285 234.534L132.434 233.899C132.207 233.63 131.869 233.453 131.411 233.349C130.885 233.231 130.355 233.374 130.233 233.898C130.124 234.367 130.451 234.715 130.949 234.827C131.614 234.977 132.026 234.766 132.285 234.534Z" fill="#7C4DC2"/>
<path d="M136.586 230.793L140.823 231.45L140.576 232.959L137.951 232.551L137.17 237.331L135.556 237.08L136.586 230.793Z" fill="#7C4DC2"/>
<path d="M141.437 237.957L141.995 231.615L143.623 231.744L143.27 235.761L146.595 231.983L148.222 232.114L147.664 238.456L146.038 238.325L146.39 234.309L143.065 238.086L141.437 237.957Z" fill="#7C4DC2"/>
<path d="M155.434 232.156L155.41 238.519L153.775 238.524L153.782 236.614L152.872 236.616L151.542 238.529L149.665 238.534L151.379 236.267C150.825 236.07 150.146 235.479 150.15 234.432C150.154 233.202 151.039 232.167 153.341 232.16L155.434 232.156ZM152.935 235.414L153.789 235.412L153.797 233.574L153.071 233.576C152.275 233.578 151.905 234.06 151.901 234.54C151.898 235.065 152.423 235.415 152.935 235.414Z" fill="#7C4DC2"/>
<path d="M193.914 231.266C194.472 230.855 195.368 230.447 196.268 230.341C198.296 230.099 199.123 231.023 199.316 232.788L199.762 236.852L198.238 237.033L198.154 236.26C197.844 236.808 197.151 237.251 196.22 237.361C194.97 237.509 193.989 236.86 193.848 235.569C193.688 234.1 194.723 233.271 196.11 233.106C196.72 233.033 197.35 233.153 197.713 233.352C197.636 232.235 197.265 231.663 196.243 231.785C195.45 231.879 194.973 232.177 194.496 232.457L193.914 231.266ZM197.897 235.089L197.821 234.406C197.491 234.219 197.082 234.163 196.581 234.223C196.002 234.291 195.513 234.621 195.576 235.184C195.63 235.687 196.088 235.919 196.638 235.853C197.369 235.769 197.718 235.411 197.897 235.089Z" fill="#7C4DC2"/>
<path d="M200.803 230.034L202.312 229.741L202.429 230.321C202.715 229.846 203.344 229.387 204.104 229.242C205.731 228.928 207.043 230.018 207.407 231.808C207.78 233.653 206.836 235.317 204.947 235.683C204.422 235.785 203.892 235.788 203.509 235.653L204.084 238.493L202.574 238.786L200.803 230.034ZM202.709 231.709L203.205 234.16C203.666 234.351 204.023 234.365 204.523 234.268C205.572 234.067 206.018 233.168 205.813 232.158C205.617 231.188 204.924 230.596 203.926 230.788C203.416 230.888 202.992 231.221 202.709 231.709Z" fill="#7C4DC2"/>
<path d="M208.54 228.015L210.221 227.531L212.028 233.84L210.348 234.323L208.54 228.015ZM213.098 229.953L216.883 232.448L214.69 233.078L211.174 230.643L212.645 226.836L214.765 226.227L213.098 229.953Z" fill="#7C4DC2"/>
<path d="M222.978 228.885C222.534 229.632 221.719 230.21 220.826 230.539C218.773 231.295 216.922 230.534 216.205 228.621C215.542 226.856 216.283 224.97 218.379 224.198C220.021 223.593 221.815 224.204 222.454 225.903C222.596 226.281 222.653 226.519 222.67 226.775L218.069 228.472C218.553 229.336 219.507 229.554 220.511 229.184C221.289 228.896 221.839 228.387 222.101 227.969L222.978 228.885ZM217.621 227.453L220.749 226.299C220.484 225.551 219.728 225.17 218.795 225.515C217.819 225.877 217.493 226.595 217.621 227.453Z" fill="#7C4DC2"/>
<path d="M222.122 223.124L227.632 220.565L228.366 222.179L226.391 223.096L228.532 227.797L226.986 228.513L224.845 223.812L222.856 224.735L222.122 223.124Z" fill="#7C4DC2"/>
<path d="M232.431 225.584L229.092 219.694L230.624 218.841L232.738 222.571L233.422 217.283L234.953 216.43L238.293 222.32L236.761 223.173L234.647 219.443L233.963 224.731L232.431 225.584Z" fill="#7C4DC2"/>
<path d="M242.788 216.583L240.398 218.258L241.871 220.45L240.476 221.427L236.626 215.696L238.021 214.718L239.475 216.884L241.865 215.209L240.411 213.043L241.805 212.066L245.655 217.797L244.261 218.775L242.788 216.583Z" fill="#7C4DC2"/>
<path d="M243.908 210.926L247.68 208.019L248.729 209.275L246.392 211.075L249.709 215.053L248.273 216.161L243.908 210.926Z" fill="#7C4DC2"/>
</svg>
