<svg width="297" height="296" viewBox="0 0 297 296" fill="none" xmlns="http://www.w3.org/2000/svg">
<g opacity="0.15">
<path d="M279.492 89.4522C280.073 89.0993 280.492 88.7424 280.748 88.3816C281.035 88.0124 281.18 87.6011 281.186 87.1474C281.229 86.7156 281.169 86.1991 281.004 85.598L280.844 85.0119L283.051 84.408L286.893 98.474L284.686 99.078L284.403 98.0411C284.157 97.1394 283.792 96.5125 283.308 96.1602C282.855 95.7998 282.253 95.7223 281.502 95.9277C281.352 95.9688 281.161 96.0373 280.929 96.1331C280.705 96.2589 280.467 96.3889 280.213 96.5229C279.959 96.657 279.72 96.787 279.496 96.9128L268.51 103.651C267.765 104.113 266.974 104.588 266.139 105.075C265.304 105.562 264.476 106.014 263.655 106.433C262.841 106.882 262.102 107.246 261.436 107.525C262.552 107.478 263.669 107.43 264.785 107.383C265.91 107.366 267.073 107.371 268.274 107.397L289.114 107.848L290.001 111.094L273.578 122.032C272.716 122.656 271.842 123.235 270.955 123.768C270.068 124.302 269.248 124.784 268.494 125.217C267.741 125.649 267.077 125.992 266.501 126.247C267.262 126.2 268.103 126.147 269.023 126.089C269.951 126.062 270.91 126.025 271.898 125.981C272.916 125.928 273.939 125.891 274.965 125.868L287.082 125.75C287.467 125.742 287.912 125.717 288.417 125.675C288.96 125.656 289.352 125.613 289.592 125.548C290.373 125.334 290.863 124.942 291.062 124.37C291.261 123.799 291.225 123.017 290.954 122.026L290.67 120.989L292.877 120.385L296.017 131.881L293.81 132.485L293.576 131.628C293.42 131.057 293.195 130.586 292.9 130.215C292.635 129.835 292.206 129.565 291.613 129.404C291.021 129.243 290.192 129.163 289.128 129.163L260.72 129.186L259.428 124.452L280.082 110.756L255.561 110.295L254.182 105.246L279.492 89.4522Z" fill="white"/>
<path d="M262.245 139.964L264.529 140.092L264.448 141.539C264.419 142.068 264.454 142.553 264.554 142.996C264.654 143.438 264.898 143.811 265.286 144.113C265.706 144.418 266.335 144.593 267.174 144.64L289.877 145.911C290.809 145.963 291.501 145.861 291.952 145.606C292.401 145.381 292.7 145.055 292.848 144.626C293.028 144.199 293.133 143.706 293.165 143.146L293.246 141.699L295.53 141.827L294.135 166.793L285.684 166.554L285.849 163.614L288.006 163.501C288.755 163.48 289.402 163.345 289.946 163.095C290.488 162.875 290.928 162.541 291.265 162.092C291.602 161.643 291.791 161.045 291.833 160.298L292.27 152.458L280.336 151.79L279.716 162.897L277.105 162.75L277.726 151.644L264.3 150.893L263.786 160.086C263.745 160.832 263.866 161.448 264.151 161.932C264.465 162.449 264.878 162.862 265.391 163.171C265.935 163.483 266.546 163.704 267.224 163.836L269.351 164.283L269.186 167.222L260.767 166.424L262.245 139.964Z" fill="white"/>
<path d="M258.658 178.145L260.753 179.064L260.172 180.391C259.947 180.905 259.804 181.386 259.743 181.836C259.71 182.298 259.844 182.731 260.143 183.134C260.458 183.579 261.029 183.983 261.855 184.346L282.636 193.468C283.434 193.819 284.075 193.947 284.558 193.853C285.07 193.771 285.47 193.555 285.759 193.206C286.048 192.857 286.299 192.439 286.512 191.954L287.093 190.627L289.188 191.547L283.169 205.287C281.819 208.369 280.098 210.744 278.008 212.412C275.934 214.121 273.528 215.073 270.792 215.266C268.056 215.46 265.063 214.844 261.814 213.417C258.707 212.053 256.228 210.302 254.378 208.163C252.516 206.052 251.404 203.625 251.043 200.88C250.681 198.136 251.22 195.123 252.657 191.842L258.658 178.145ZM255.55 191.989C254.637 194.072 254.394 196.023 254.82 197.844C255.262 199.705 256.317 201.41 257.984 202.958C259.638 204.535 261.848 205.93 264.613 207.144C267.378 208.358 269.829 209.009 271.966 209.096C274.119 209.225 275.958 208.79 277.483 207.792C279.023 206.835 280.244 205.33 281.144 203.275L282.438 200.322L256.825 189.078L255.55 191.989Z" fill="white"/>
<path d="M235.279 219.559C236.949 217.545 238.656 216.047 240.4 215.066C242.143 214.085 243.932 213.709 245.766 213.936C247.599 214.164 249.486 215.084 251.427 216.696L265.259 228.187C265.93 228.745 266.51 229.045 267 229.088C267.515 229.15 267.959 229.054 268.333 228.798C268.707 228.542 269.063 228.21 269.401 227.802L270.325 226.687L272.086 228.15L262.425 239.803L260.664 238.34L261.589 237.225C261.927 236.817 262.185 236.384 262.363 235.925C262.546 235.51 262.559 235.055 262.402 234.56C262.226 234.09 261.779 233.556 261.06 232.959L247.12 221.378C245.754 220.244 244.466 219.578 243.254 219.381C242.066 219.204 240.944 219.386 239.889 219.926C238.858 220.487 237.885 221.319 236.971 222.422C235.977 223.621 235.346 224.797 235.077 225.95C234.788 227.128 234.882 228.259 235.359 229.343C235.815 230.451 236.618 231.482 237.768 232.438L251.96 244.228C252.631 244.785 253.211 245.085 253.701 245.128C254.216 245.191 254.66 245.094 255.034 244.838C255.408 244.582 255.764 244.25 256.102 243.843L257.026 242.728L258.787 244.19L251.094 253.469L249.333 252.007L250.287 250.856C250.606 250.472 250.854 250.051 251.032 249.592C251.235 249.152 251.248 248.698 251.071 248.227C250.895 247.757 250.448 247.223 249.729 246.626L235.609 234.896C234.028 233.582 232.919 232.114 232.282 230.492C231.669 228.889 231.598 227.17 232.069 225.334C232.539 223.498 233.61 221.573 235.279 219.559Z" fill="white"/>
<path d="M202.358 280.51C202.69 281.103 203.032 281.535 203.384 281.804C203.742 282.103 204.148 282.263 204.601 282.283C205.03 282.342 205.548 282.299 206.154 282.155L206.745 282.015L207.272 284.244L193.097 287.605L192.569 285.376L193.614 285.128C194.523 284.913 195.161 284.569 195.53 284.098C195.905 283.657 196.003 283.057 195.824 282.299C195.788 282.147 195.726 281.954 195.638 281.719C195.52 281.49 195.399 281.247 195.274 280.989C195.149 280.73 195.027 280.487 194.909 280.258L188.559 269.036C188.123 268.274 187.676 267.468 187.219 266.616C186.761 265.764 186.338 264.919 185.948 264.083C185.528 263.254 185.19 262.502 184.934 261.826C184.943 262.945 184.951 264.063 184.96 265.182C184.939 266.308 184.894 267.471 184.826 268.672L183.662 289.505L180.391 290.281L170.033 273.476C169.44 272.592 168.892 271.697 168.39 270.792C167.888 269.886 167.434 269.049 167.028 268.281C166.623 267.512 166.303 266.836 166.068 266.251C166.089 267.014 166.112 267.857 166.139 268.78C166.135 269.709 166.138 270.669 166.148 271.659C166.166 272.68 166.168 273.704 166.156 274.732L165.858 286.858C165.853 287.243 165.863 287.689 165.887 288.196C165.887 288.74 165.916 289.134 165.974 289.376C166.16 290.164 166.535 290.668 167.099 290.887C167.662 291.105 168.444 291.096 169.444 290.859L170.489 290.611L171.016 292.84L159.43 295.587L158.903 293.358L159.766 293.153C160.342 293.017 160.82 292.808 161.201 292.525C161.589 292.273 161.874 291.853 162.055 291.266C162.236 290.679 162.344 289.852 162.38 288.787L163.333 260.367L168.103 259.236L181.069 280.37L182.369 255.854L187.458 254.647L202.358 280.51Z" fill="white"/>
<path d="M152.688 261.479L152.485 263.76L151.043 263.631C150.516 263.584 150.03 263.603 149.585 263.688C149.14 263.774 148.76 264.006 148.445 264.384C148.127 264.794 147.931 265.418 147.856 266.256L145.836 288.927C145.753 289.858 145.832 290.553 146.072 291.013C146.281 291.469 146.597 291.779 147.02 291.942C147.441 292.136 147.93 292.258 148.488 292.308L149.929 292.437L149.726 294.718L124.846 292.496L125.364 284.049L128.294 284.311L128.335 286.473C128.331 287.223 128.445 287.875 128.677 288.427C128.878 288.977 129.197 289.428 129.635 289.78C130.072 290.131 130.663 290.341 131.407 290.407L139.22 291.105L140.282 279.187L129.213 278.199L129.446 275.592L140.514 276.58L141.709 263.173L132.547 262.355C131.803 262.288 131.185 262.389 130.692 262.658C130.166 262.955 129.739 263.355 129.413 263.858C129.085 264.392 128.843 264.996 128.689 265.67L128.173 267.783L125.243 267.521L126.32 259.124L152.688 261.479Z" fill="white"/>
<path d="M114.828 256.668L113.841 258.734L112.535 258.109C112.03 257.867 111.554 257.708 111.107 257.632C110.647 257.585 110.21 257.704 109.798 257.99C109.343 258.29 108.922 258.848 108.532 259.664L98.7426 280.156C98.3666 280.943 98.2176 281.58 98.2958 282.066C98.3605 282.581 98.5626 282.988 98.902 283.289C99.2414 283.589 99.6498 283.854 100.127 284.083L101.433 284.708L100.446 286.774L86.9248 280.301C83.8921 278.849 81.5772 277.05 79.9802 274.904C78.3416 272.773 77.4704 270.335 77.3665 267.592C77.2626 264.848 77.9762 261.874 79.5071 258.669C80.9708 255.605 82.8008 253.183 84.9972 251.402C87.1654 249.608 89.6255 248.575 92.3774 248.304C95.1293 248.032 98.1199 248.67 101.349 250.215L114.828 256.668ZM101.108 253.105C99.0577 252.123 97.1171 251.816 95.2857 252.183C93.4129 252.564 91.6762 253.563 90.0757 255.18C88.447 256.784 86.9814 258.949 85.6788 261.676C84.3762 264.402 83.6462 266.833 83.4888 268.968C83.2899 271.118 83.6635 272.972 84.6098 274.53C85.5145 276.103 86.9778 277.373 88.9997 278.341L91.9061 279.733L103.972 254.476L101.108 253.105Z" fill="white"/>
<path d="M74.3639 232.042C76.3187 233.78 77.7564 235.538 78.6772 237.315C79.598 239.093 79.9139 240.895 79.6249 242.722C79.3359 244.549 78.3542 246.406 76.6797 248.293L64.7412 261.745C64.1623 262.397 63.8432 262.968 63.7839 263.457C63.7039 263.969 63.7855 264.417 64.0286 264.8C64.2717 265.183 64.5911 265.55 64.9867 265.902L66.0688 266.864L64.5493 268.576L53.2397 258.519L54.7592 256.807L55.8413 257.769C56.2369 258.121 56.6609 258.394 57.1133 258.588C57.5218 258.784 57.9755 258.813 58.4743 258.673C58.9499 258.512 59.4978 258.083 60.118 257.384L72.1495 243.826C73.3279 242.499 74.0358 241.232 74.2732 240.026C74.49 238.843 74.3462 237.715 73.8418 236.641C73.3168 235.591 72.519 234.59 71.4486 233.638C70.285 232.603 69.1319 231.932 67.9893 231.624C66.8234 231.296 65.6912 231.352 64.5927 231.792C63.471 232.212 62.4139 232.981 61.4216 234.099L49.173 247.901C48.5942 248.553 48.2751 249.124 48.2158 249.613C48.1358 250.125 48.2174 250.573 48.4605 250.956C48.7036 251.339 49.0229 251.706 49.4185 252.058L50.5006 253.02L48.9812 254.732L39.9754 246.724L41.4949 245.012L42.6119 246.005C42.9842 246.336 43.3966 246.598 43.849 246.792C44.2807 247.01 44.7344 247.038 45.21 246.877C45.6856 246.717 46.2335 246.287 46.8536 245.588L59.0402 231.856C60.4046 230.319 61.9075 229.259 63.5488 228.676C65.1694 228.117 66.8884 228.103 68.7057 228.636C70.5231 229.168 72.4092 230.303 74.3639 232.042Z" fill="white"/>
<path d="M14.4089 197.026C13.8049 197.338 13.3626 197.665 13.0821 198.008C12.7712 198.356 12.5976 198.757 12.5614 199.209C12.4885 199.637 12.5134 200.156 12.6361 200.767L12.7557 201.363L10.5128 201.814L7.64208 187.518L9.88506 187.067L10.0967 188.12C10.2807 189.037 10.6018 189.687 11.06 190.072C11.4877 190.463 12.083 190.581 12.8459 190.428C12.9985 190.397 13.1938 190.342 13.4318 190.262C13.6637 190.152 13.9108 190.039 14.1732 189.922C14.4356 189.806 14.6827 189.693 14.9145 189.582L26.3364 183.613C27.1113 183.203 27.932 182.784 28.7984 182.355C29.6648 181.927 30.5221 181.532 31.3703 181.17C32.2124 180.778 32.9751 180.466 33.6586 180.233C32.5414 180.204 31.4243 180.174 30.3071 180.145C29.1838 180.085 28.0239 180 26.8273 179.891L6.06712 178.014L5.40466 174.715L22.5367 164.927C23.4396 164.364 24.3517 163.847 25.2731 163.376C26.1944 162.904 27.0456 162.479 27.8266 162.099C28.6076 161.719 29.2941 161.422 29.886 161.208C29.1229 161.203 28.2805 161.197 27.3587 161.192C26.4308 161.156 25.4724 161.127 24.4834 161.103C23.4639 161.086 22.4414 161.053 21.4158 161.005L9.31902 160.293C8.93442 160.275 8.48878 160.269 7.98212 160.276C7.4388 160.258 7.04507 160.274 6.80094 160.323C6.00751 160.482 5.49202 160.84 5.25448 161.397C5.01694 161.953 4.99938 162.735 5.2018 163.743L5.41342 164.797L3.17044 165.248L0.824219 153.564L3.06719 153.113L3.24201 153.983C3.35855 154.564 3.55131 155.049 3.82029 155.44C4.05874 155.837 4.46803 156.136 5.04816 156.337C5.62828 156.538 6.44947 156.675 7.51172 156.747L35.8538 158.672L36.8199 163.484L15.2766 175.732L39.7089 177.872L40.7394 183.004L14.4089 197.026Z" fill="white"/>
<path d="M35.0264 148.183L32.7555 147.904L32.9317 146.466C32.9961 145.94 32.993 145.453 32.9224 145.005C32.8519 144.557 32.6328 144.169 32.2653 143.841C31.8668 143.51 31.2505 143.293 30.4163 143.191L7.84706 140.421C6.92019 140.307 6.22344 140.363 5.75681 140.588C5.29397 140.782 4.97424 141.088 4.79762 141.506C4.59011 141.92 4.45226 142.406 4.38408 142.962L4.20794 144.4L1.9371 144.122L4.97699 119.303L13.3936 120.1L13.0356 123.023L10.8754 122.993C10.1263 122.964 9.47213 123.056 8.91281 123.27C8.35728 123.453 7.89663 123.758 7.53085 124.184C7.16507 124.61 6.93673 125.194 6.84582 125.936L5.89123 133.73L17.7552 135.186L19.1075 124.145L21.7027 124.463L20.3504 135.504L33.6973 137.142L34.8167 128.003C34.9076 127.261 34.827 126.639 34.5748 126.137C34.2956 125.601 33.9104 125.161 33.4193 124.818C32.8973 124.472 32.3021 124.21 31.6337 124.034L29.5417 123.448L29.8997 120.525L38.2481 121.879L35.0264 148.183Z" fill="white"/>
<path d="M40.8531 110.65L38.8227 109.594L39.4896 108.309C39.7478 107.811 39.9221 107.34 40.0124 106.895C40.0751 106.436 39.9704 105.995 39.6984 105.573C39.4131 105.109 38.8699 104.669 38.0688 104.252L17.93 93.7851C17.1565 93.383 16.5256 93.2131 16.0374 93.2754C15.5216 93.3232 15.108 93.512 14.7967 93.8417C14.4854 94.1714 14.2078 94.5714 13.964 95.0415L13.297 96.3273L11.2665 95.272L18.173 81.9569C19.7221 78.9703 21.5942 76.7134 23.7893 75.186C25.9712 73.6167 28.4335 72.8251 31.1763 72.8112C33.9192 72.7974 36.8653 73.6089 40.0145 75.2457C43.0257 76.8108 45.3842 78.7212 47.0901 80.9771C48.8103 83.2053 49.7607 85.7005 49.9413 88.4626C50.122 91.2248 49.3875 94.1959 47.738 97.3761L40.8531 110.65ZM44.8613 97.0395C45.9084 95.0208 46.2789 93.0893 45.9729 91.245C45.6536 89.3587 44.713 87.5884 43.1511 85.934C41.6036 84.2519 39.49 82.7145 36.8103 81.3218C34.1307 79.929 31.7276 79.1189 29.601 78.8913C27.4611 78.6217 25.5977 78.9346 24.0109 79.8302C22.4108 80.6837 21.0943 82.106 20.0616 84.0971L18.577 86.9592L43.3983 99.8601L44.8613 97.0395Z" fill="white"/>
<path d="M66.7542 70.7722C64.9527 72.6692 63.1491 74.0483 61.3435 74.9095C59.5378 75.7707 57.7279 76.0259 55.9136 75.6751C54.0993 75.3244 52.2785 74.2795 50.4511 72.5406L37.4228 60.1427C36.7911 59.5416 36.2321 59.2032 35.7459 59.1273C35.237 59.03 34.7873 59.0965 34.3968 59.3268C34.0063 59.5571 33.6288 59.8642 33.2642 60.2481L32.267 61.2982L30.6088 59.7203L41.0317 48.745L42.6899 50.3229L41.6926 51.373C41.328 51.7569 41.0413 52.1719 40.8324 52.618C40.6224 53.02 40.5788 53.4729 40.7016 53.9767C40.8459 54.4579 41.2564 55.0206 41.9332 55.6646L55.0631 68.1591C56.349 69.3828 57.5899 70.1338 58.7859 70.412C59.9593 70.6688 61.0905 70.563 62.1795 70.0947C63.246 69.6048 64.2724 68.8405 65.259 67.8017C66.3313 66.6725 67.0403 65.5415 67.3859 64.4088C67.753 63.2534 67.7354 62.1188 67.3329 61.005C66.9519 59.8686 66.22 58.7851 65.1371 57.7546L51.7704 45.0347C51.1387 44.4336 50.5797 44.0951 50.0934 44.0193C49.5845 43.922 49.1349 43.9885 48.7444 44.2188C48.3539 44.4491 47.9764 44.7562 47.6118 45.1401L46.6145 46.1902L44.9564 44.6123L53.2561 35.8727L54.9142 37.4506L53.8848 38.5346C53.5417 38.8959 53.2657 39.2996 53.0568 39.7457C52.8253 40.1703 52.7817 40.6232 52.926 41.1044C53.0702 41.5857 53.4808 42.1483 54.1576 42.7923L67.4566 55.4478C68.9456 56.8647 69.9532 58.404 70.4796 60.0657C70.9835 61.7059 70.9389 63.4261 70.3459 65.2264C69.7529 67.0266 68.5557 68.8752 66.7542 70.7722Z" fill="white"/>
<path d="M90.3159 16.9361C89.9633 16.3542 89.6068 15.9349 89.2463 15.6783C88.8775 15.3916 88.4666 15.2456 88.0134 15.2404C87.582 15.197 87.0661 15.2574 86.4656 15.4218L85.8801 15.582L85.2767 13.3729L99.3285 9.52719L99.9318 11.7363L98.896 12.0198C97.9952 12.2663 97.3689 12.6315 97.017 13.1155C96.657 13.5693 96.5795 14.172 96.7847 14.9234C96.8258 15.0736 96.8942 15.2649 96.9899 15.4971C97.1156 15.7211 97.2454 15.9602 97.3793 16.2142C97.5133 16.4683 97.6431 16.7073 97.7688 16.9314L104.5 27.9294C104.962 28.6752 105.436 29.466 105.922 30.302C106.409 31.1379 106.861 31.967 107.279 32.7893C107.728 33.6034 108.091 34.3438 108.37 35.0104C108.323 33.8927 108.276 32.775 108.229 31.6574C108.212 30.5314 108.216 29.3673 108.243 28.1648L108.692 7.3036L111.935 6.41612L122.863 22.8553C123.486 23.7185 124.064 24.594 124.597 25.4818C125.13 26.3696 125.612 27.1905 126.044 27.9445C126.476 28.6985 126.819 29.3637 127.073 29.9402C127.026 29.1778 126.974 28.3361 126.916 27.4152C126.888 26.486 126.852 25.5268 126.807 24.5376C126.755 23.5183 126.717 22.4949 126.695 21.4673L126.577 9.33783C126.568 8.95251 126.543 8.50707 126.502 8.00153C126.483 7.45771 126.44 7.06558 126.374 6.82513C126.161 6.04368 125.769 5.55339 125.198 5.35425C124.628 5.15512 123.847 5.19114 122.856 5.46232L121.82 5.74581L121.217 3.53671L132.701 0.39357L133.305 2.60266L132.449 2.83686C131.878 2.99299 131.408 3.21874 131.037 3.51412C130.657 3.77944 130.387 4.20866 130.227 4.80178C130.066 5.39491 129.986 6.22437 129.987 7.29016L130.009 35.7264L125.28 37.0207L111.597 16.3446L111.138 40.891L106.094 42.2716L90.3159 16.9361Z" fill="white"/>
<path d="M140.825 34.1162L140.952 31.8295L142.398 31.9104C142.926 31.94 143.411 31.9047 143.853 31.8046C144.295 31.7046 144.667 31.4601 144.97 31.0713C145.274 30.6515 145.449 30.0215 145.496 29.1816L146.765 6.45551C146.818 5.52221 146.716 4.82995 146.461 4.37875C146.236 3.92929 145.91 3.63016 145.482 3.48137C145.056 3.30147 144.563 3.19587 144.003 3.16456L142.558 3.08367L142.686 0.797072L167.626 2.19294L167.388 10.6524L164.451 10.488L164.337 8.32839C164.317 7.57827 164.182 6.93094 163.932 6.38642C163.712 5.84363 163.378 5.40364 162.93 5.06644C162.481 4.72925 161.884 4.53978 161.138 4.49803L153.306 4.0597L152.639 16.006L163.734 16.627L163.588 19.2403L152.493 18.6193L151.742 32.0589L160.926 32.5729C161.672 32.6147 162.286 32.493 162.77 32.208C163.286 31.8936 163.699 31.4798 164.008 30.9666C164.319 30.4223 164.54 29.8105 164.672 29.1313L165.118 27.003L168.055 27.1673L167.257 35.5955L140.825 34.1162Z" fill="white"/>
<path d="M178.76 37.5348L179.679 35.4375L181.004 36.0194C181.517 36.2446 181.999 36.3878 182.448 36.4488C182.909 36.4813 183.342 36.3479 183.745 36.0485C184.189 35.7331 184.592 35.1617 184.955 34.3341L194.068 13.5318C194.418 12.7328 194.546 12.0915 194.452 11.6079C194.37 11.0958 194.155 10.695 193.806 10.4057C193.457 10.1164 193.04 9.86533 192.556 9.65259L191.23 9.07068L192.149 6.97333L205.875 12.9988C208.953 14.3504 211.326 16.0724 212.992 18.1648C214.7 20.2413 215.65 22.649 215.844 25.3878C216.038 28.1266 215.422 31.1226 213.997 34.3756C212.634 37.486 210.884 39.9671 208.747 41.819C206.639 43.6833 204.214 44.7963 201.473 45.1579C198.731 45.5194 195.721 44.9807 192.443 43.5415L178.76 37.5348ZM192.59 40.646C194.671 41.5595 196.621 41.803 198.439 41.3764C200.298 40.9338 202.001 39.8781 203.548 38.2095C205.123 36.5534 206.517 34.3414 207.73 31.5735C208.942 28.8055 209.592 26.352 209.68 24.2129C209.808 22.0577 209.374 20.217 208.377 18.6907C207.422 17.1483 205.918 15.9267 203.865 15.0257L200.915 13.7305L189.682 39.3696L192.59 40.646Z" fill="white"/>
<path d="M220.129 60.7699C218.117 59.0984 216.621 57.3899 215.641 55.6444C214.661 53.899 214.285 52.1085 214.512 50.2729C214.74 48.4372 215.659 46.5484 217.269 44.6062L228.749 30.7596C229.306 30.0882 229.605 29.5071 229.648 29.0163C229.711 28.5016 229.614 28.0569 229.359 27.6824C229.103 27.3079 228.771 26.9515 228.364 26.6133L227.25 25.688L228.711 23.9256L240.352 33.5967L238.891 35.359L237.777 34.4337C237.37 34.0954 236.937 33.8369 236.479 33.6583C236.064 33.4757 235.609 33.4626 235.115 33.6192C234.646 33.7957 234.112 34.2436 233.516 34.9629L221.946 48.9174C220.813 50.2841 220.148 51.5741 219.952 52.7873C219.775 53.9765 219.956 55.0992 220.496 56.1553C221.056 57.1875 221.887 58.1612 222.989 59.0766C224.187 60.0715 225.362 60.7035 226.514 60.9725C227.69 61.2613 228.82 61.1673 229.903 60.6904C231.01 60.2334 232.041 59.4294 232.995 58.2785L244.773 44.0722C245.33 43.4008 245.629 42.8197 245.672 42.329C245.735 41.8142 245.639 41.3695 245.383 40.995C245.127 40.6205 244.795 40.2642 244.388 39.9259L243.274 39.0006L244.736 37.2383L254.005 44.9393L252.544 46.7016L251.394 45.7464C251.011 45.428 250.59 45.1795 250.131 45.0009C249.693 44.7983 249.238 44.7853 248.768 44.9618C248.298 45.1382 247.765 45.5862 247.169 46.3055L235.45 60.4398C234.138 62.0223 232.672 63.1324 231.051 63.77C229.45 64.3836 227.733 64.4548 225.898 63.9838C224.064 63.5127 222.141 62.4414 220.129 60.7699Z" fill="white"/>
<path d="M213.235 145.713H188.985C167.692 145.713 150.429 125.269 150.429 100.052V71.3342H147.479V100.052C147.479 125.269 130.216 145.713 108.923 145.713H84.6732V149.206H108.923C130.216 149.206 147.479 169.65 147.479 194.867V223.593H150.429V194.867C150.429 169.65 167.692 149.206 188.985 149.206H213.235V145.713Z" fill="white"/>
</g>
</svg>
