<svg width="261" height="23" viewBox="0 0 261 23" fill="none" xmlns="http://www.w3.org/2000/svg">
<path d="M19.558 13.512H20.558V12.512H19.558V13.512ZM19.558 22.29V23.29H20.558V22.29H19.558ZM14.784 22.29H13.784V23.29H14.784V22.29ZM14.784 18H15.784V17H14.784V18ZM0.88 18L-0.119151 17.9588L-0.162087 19H0.88V18ZM0.88 2.028V1.028H-0.162087L-0.119151 2.0692L0.88 2.028ZM6.05 2.028H7.05V1.028H6.05V2.028ZM6.05 13.556H5.05V14.556H6.05V13.556ZM13.486 13.556V14.556H14.486V13.556H13.486ZM13.486 2.028V1.028H12.486V2.028H13.486ZM18.656 2.028L19.6552 2.0689L19.6978 1.028H18.656V2.028ZM18.524 13.512L17.5242 13.5312L17.543 14.512H18.524V13.512ZM18.558 13.512V22.29H20.558V13.512H18.558ZM19.558 21.29H14.784V23.29H19.558V21.29ZM15.784 22.29V18H13.784V22.29H15.784ZM14.784 17H0.88V19H14.784V17ZM1.87915 18.0412C1.99697 15.1841 2.056 12.5082 2.056 10.014H0.056C0.056 12.4771 -0.00230233 15.1252 -0.119151 17.9588L1.87915 18.0412ZM2.056 10.014C2.056 7.51976 1.99697 4.84389 1.87915 1.9868L-0.119151 2.0692C-0.00230233 4.90278 0.056 7.55091 0.056 10.014H2.056ZM0.88 3.028H6.05V1.028H0.88V3.028ZM5.05 2.028V13.556H7.05V2.028H5.05ZM6.05 14.556H13.486V12.556H6.05V14.556ZM14.486 13.556V2.028H12.486V13.556H14.486ZM13.486 3.028H18.656V1.028H13.486V3.028ZM17.6568 1.9871C17.5535 4.51038 17.502 7.20079 17.502 10.058H19.502C19.502 7.22454 19.5531 4.56162 19.6552 2.0689L17.6568 1.9871ZM17.502 10.058C17.502 11.5994 17.5093 12.7586 17.5242 13.5312L19.5238 13.4928C19.5093 12.7401 19.502 11.5966 19.502 10.058H17.502ZM18.524 14.512H19.558V12.512H18.524V14.512ZM34.3188 10.058L34.0478 9.09542L34.3188 11.058V10.058ZM38.6528 15.8L39.4876 16.3506L39.4928 16.3425L38.6528 15.8ZM36.2108 17.428L36.5199 18.3791L36.5306 18.3755L36.2108 17.428ZM21.4268 18L20.4276 17.9588L20.3847 19H21.4268V18ZM21.4268 2.028V1.028H20.3847L20.4276 2.0692L21.4268 2.028ZM26.5968 2.028H27.5968V1.028H26.5968V2.028ZM26.5968 2.05H25.5968V3.05H26.5968V2.05ZM35.5728 2.512L35.2892 3.47093L35.2971 3.47329L35.3052 3.47552L35.5728 2.512ZM37.7948 3.81L36.9923 4.4067L36.9972 4.41325L37.0022 4.41971L37.7948 3.81ZM37.5088 8.386L36.764 7.71875L36.7631 7.71967L37.5088 8.386ZM26.5968 6.054V5.054H25.5968V6.054H26.5968ZM26.5968 8.1H25.5968V9.1H26.5968V8.1ZM32.7128 7.858L32.3101 6.94268L32.3031 6.94576L32.2961 6.94893L32.7128 7.858ZM32.6908 6.274L32.3194 7.20248L32.3414 7.21125L32.3637 7.21898L32.6908 6.274ZM32.5588 13.886L32.7053 14.8752L32.72 14.873L32.7346 14.8704L32.5588 13.886ZM33.4388 13.534L34.1145 14.2712L34.1305 14.2565L34.1459 14.2411L33.4388 13.534ZM33.0648 12.016L32.6709 12.9351L32.6903 12.9435L32.7101 12.951L33.0648 12.016ZM26.5968 11.752V10.752H25.5968V11.752H26.5968ZM26.5968 13.974H25.5968V14.974H26.5968V13.974ZM34.3188 11.058C35.917 11.058 36.9445 11.3179 37.5442 11.6993C38.0671 12.0319 38.3348 12.4966 38.3348 13.248H40.3348C40.3348 11.8727 39.7665 10.7424 38.6174 10.0117C37.5451 9.32974 36.0646 9.058 34.3188 9.058V11.058ZM38.3348 13.248C38.3348 14.09 38.1446 14.7437 37.8128 15.2575L39.4928 16.3425C40.0704 15.4483 40.3348 14.4007 40.3348 13.248H38.3348ZM37.818 15.2494C37.5339 15.6801 36.954 16.1218 35.891 16.4805L36.5306 18.3755C37.8143 17.9422 38.8623 17.2985 39.4876 16.3506L37.818 15.2494ZM35.9017 16.477C34.8736 16.8111 33.3662 17 31.3268 17V19C33.4527 19 35.2014 18.8076 36.5199 18.379L35.9017 16.477ZM31.3268 17H21.4268V19H31.3268V17ZM22.4259 18.0412C22.5438 15.1841 22.6028 12.5082 22.6028 10.014H20.6028C20.6028 12.4771 20.5445 15.1252 20.4276 17.9588L22.4259 18.0412ZM22.6028 10.014C22.6028 7.51976 22.5438 4.84389 22.4259 1.9868L20.4276 2.0692C20.5445 4.90278 20.6028 7.55091 20.6028 10.014H22.6028ZM21.4268 3.028H26.5968V1.028H21.4268V3.028ZM25.5968 2.028V2.05H27.5968V2.028H25.5968ZM26.5968 3.05H31.2828V1.05H26.5968V3.05ZM31.2828 3.05C33.0608 3.05 34.3811 3.20236 35.2892 3.47093L35.8564 1.55306C34.6818 1.20564 33.1421 1.05 31.2828 1.05V3.05ZM35.3052 3.47552C36.2558 3.7396 36.754 4.08624 36.9923 4.4067L38.5973 3.2133C37.9849 2.38976 37.0018 1.87107 35.8404 1.54848L35.3052 3.47552ZM37.0022 4.41971C37.2803 4.78124 37.4548 5.27887 37.4548 5.988H39.4548C39.4548 4.93713 39.1893 3.98276 38.5874 3.20029L37.0022 4.41971ZM37.4548 5.988C37.4548 6.62164 37.2405 7.18685 36.764 7.71875L38.2536 9.05325C39.0385 8.17715 39.4548 7.14369 39.4548 5.988H37.4548ZM36.7631 7.71967C36.3345 8.19934 35.4887 8.68973 34.0478 9.09542L34.5898 11.0206C36.1702 10.5756 37.4511 9.95133 38.2545 9.05233L36.7631 7.71967ZM25.5968 6.054V8.1H27.5968V6.054H25.5968ZM26.5968 9.1H30.8208V7.1H26.5968V9.1ZM30.8208 9.1C31.7304 9.1 32.5599 9.0281 33.1295 8.76706L32.2961 6.94893C32.1617 7.01057 31.7298 7.1 30.8208 7.1V9.1ZM33.1155 8.77331C33.4527 8.62495 33.7592 8.38959 33.9733 8.047C34.1849 7.70846 34.2628 7.33503 34.2628 6.978H32.2628C32.2628 7.01291 32.259 7.02681 32.2595 7.02506C32.2602 7.02215 32.2647 7.00722 32.2773 6.987C32.2902 6.96643 32.3049 6.9509 32.3163 6.94151C32.3267 6.93287 32.3275 6.93502 32.3101 6.94268L33.1155 8.77331ZM34.2628 6.978C34.2628 6.60787 34.1529 6.23472 33.8959 5.91841C33.65 5.61573 33.3273 5.43611 33.0179 5.32901L32.3637 7.21898C32.4356 7.24389 32.3989 7.2476 32.3437 7.17959C32.3156 7.14501 32.2928 7.10365 32.2784 7.06048C32.2644 7.01866 32.2628 6.9885 32.2628 6.978H34.2628ZM33.0622 5.34552C32.5028 5.12176 31.7099 5.054 30.8208 5.054V7.054C31.6917 7.054 32.1455 7.13291 32.3194 7.20248L33.0622 5.34552ZM30.8208 5.054H26.5968V7.054H30.8208V5.054ZM30.8208 14.974C31.5971 14.974 32.2352 14.9449 32.7053 14.8752L32.4122 12.8968C32.0904 12.9445 31.5699 12.974 30.8208 12.974V14.974ZM32.7346 14.8704C33.2097 14.7856 33.7291 14.6245 34.1145 14.2712L32.7631 12.7968C32.7878 12.7742 32.7841 12.787 32.7154 12.8145C32.6482 12.8414 32.5413 12.8733 32.383 12.9016L32.7346 14.8704ZM34.1459 14.2411C34.5426 13.8444 34.7028 13.3376 34.7028 12.83H32.7028C32.7028 12.8768 32.6959 12.8872 32.7005 12.8749C32.7027 12.8689 32.7068 12.8601 32.7131 12.8502C32.7195 12.8403 32.7262 12.8324 32.7317 12.8269L34.1459 14.2411ZM34.7028 12.83C34.7028 12.4408 34.5894 12.0541 34.3304 11.7236C34.0811 11.4056 33.7495 11.2062 33.4195 11.081L32.7101 12.951C32.8054 12.9871 32.7928 13.0041 32.7562 12.9574C32.7376 12.9336 32.7219 12.9045 32.7121 12.8744C32.7027 12.8455 32.7028 12.8283 32.7028 12.83H34.7028ZM33.4587 11.0969C32.8391 10.8313 31.9014 10.752 30.8208 10.752V12.752C31.9108 12.752 32.4691 12.8487 32.6709 12.9351L33.4587 11.0969ZM30.8208 10.752H26.5968V12.752H30.8208V10.752ZM25.5968 11.752V13.974H27.5968V11.752H25.5968ZM26.5968 14.974H30.8208V12.974H26.5968V14.974ZM46.607 13.974H45.607V14.9793L46.6123 14.974L46.607 13.974ZM58.729 13.732L59.7147 13.9003L59.9252 12.6677L58.6764 12.7334L58.729 13.732ZM58.531 15.602L57.532 15.5566L57.5315 15.5677L57.5313 15.5788L58.531 15.602ZM58.509 18V19H59.509V18H58.509ZM41.415 18L40.4158 17.9588L40.3729 19H41.415V18ZM41.415 2.028V1.028H40.3729L40.4158 2.0692L41.415 2.028ZM58.509 2.028H59.509V1.028H58.509V2.028ZM58.509 6.01V7.01H59.509V6.01H58.509ZM46.607 6.01V5.01H45.607V6.01H46.607ZM46.607 8.122H45.607V9.10138L46.5862 9.12178L46.607 8.122ZM56.969 8.012H57.969V6.97608L56.9337 7.01262L56.969 8.012ZM56.969 11.796L56.9337 12.7954L57.969 12.8319V11.796H56.969ZM46.607 11.686L46.5862 10.6862L45.607 10.7066V11.686H46.607ZM46.6123 14.974C52.1872 14.9446 56.2481 14.864 58.7816 14.7306L58.6764 12.7334C56.1939 12.864 52.1735 12.9447 46.6017 12.974L46.6123 14.974ZM57.7433 13.5637C57.6333 14.208 57.5631 14.8725 57.532 15.5566L59.53 15.6474C59.5575 15.0409 59.6194 14.4587 59.7147 13.9003L57.7433 13.5637ZM57.5313 15.5788C57.5164 16.2201 57.509 17.0279 57.509 18H59.509C59.509 17.0361 59.5163 16.2452 59.5307 15.6252L57.5313 15.5788ZM58.509 17H41.415V19H58.509V17ZM42.4142 18.0412C42.532 15.1841 42.591 12.5082 42.591 10.014H40.591C40.591 12.4771 40.5327 15.1252 40.4158 17.9588L42.4142 18.0412ZM42.591 10.014C42.591 7.51976 42.532 4.84389 42.4142 1.9868L40.4158 2.0692C40.5327 4.90278 40.591 7.55091 40.591 10.014H42.591ZM41.415 3.028H58.509V1.028H41.415V3.028ZM57.509 2.028V6.01H59.509V2.028H57.509ZM58.509 5.01H46.607V7.01H58.509V5.01ZM45.607 6.01V8.122H47.607V6.01H45.607ZM46.5862 9.12178C47.3009 9.13667 48.3506 9.144 49.731 9.144V7.144C48.3541 7.144 47.3211 7.13666 46.6278 7.12222L46.5862 9.12178ZM49.731 9.144C52.0755 9.144 54.5 9.09976 57.0043 9.01138L56.9337 7.01262C54.4513 7.10024 52.0505 7.144 49.731 7.144V9.144ZM55.969 8.012V11.796H57.969V8.012H55.969ZM57.0043 10.7966C54.5 10.7082 52.0755 10.664 49.731 10.664V12.664C52.0505 12.664 54.4513 12.7078 56.9337 12.7954L57.0043 10.7966ZM49.731 10.664C48.3506 10.664 47.3009 10.6713 46.5862 10.6862L46.6278 12.6858C47.3211 12.6713 48.3541 12.664 49.731 12.664V10.664ZM45.607 11.686V13.974H47.607V11.686H45.607ZM79.7211 6.648L79.6893 7.64749L80.7211 7.68035V6.648H79.7211ZM73.0111 6.516L73.0179 5.51602L72.0111 5.50922V6.516H73.0111ZM73.0111 18V19H74.0111V18H73.0111ZM67.5111 18H66.5111V19H67.5111V18ZM67.5111 6.516H68.5111V5.50927L67.5044 5.51602L67.5111 6.516ZM60.8231 6.648H59.8231V7.68078L60.8554 7.64748L60.8231 6.648ZM60.8231 2.028V1.028H59.8231V2.028H60.8231ZM79.7211 2.028H80.7211V1.028H79.7211V2.028ZM79.753 5.64851C77.4424 5.57492 75.1974 5.53075 73.0179 5.51602L73.0044 7.51598C75.1662 7.53058 77.3945 7.57441 79.6893 7.64749L79.753 5.64851ZM72.0111 6.516V18H74.0111V6.516H72.0111ZM73.0111 17H67.5111V19H73.0111V17ZM68.5111 18V6.516H66.5111V18H68.5111ZM67.5044 5.51602C65.3102 5.53075 63.0724 5.57492 60.7909 5.64852L60.8554 7.64748C63.1205 7.57441 65.3414 7.53058 67.5178 7.51598L67.5044 5.51602ZM61.8231 6.648V2.028H59.8231V6.648H61.8231ZM60.8231 3.028H79.7211V1.028H60.8231V3.028ZM78.7211 2.028V6.648H80.7211V2.028H78.7211ZM95.7031 18L94.7544 18.3162L94.9823 19H95.7031V18ZM94.5811 14.854L95.5183 14.5053L95.276 13.854H94.5811V14.854ZM87.5631 14.854V13.854H86.8534L86.6191 14.5239L87.5631 14.854ZM86.4631 18V19H87.1728L87.4071 18.3301L86.4631 18ZM80.9411 18L80.0081 17.6402L79.4836 19H80.9411V18ZM87.1011 2.028V1.028H86.415L86.1681 1.66816L87.1011 2.028ZM95.1971 2.028L96.1292 1.66593L95.8815 1.028H95.1971V2.028ZM101.401 18V19H102.862L102.333 17.6379L101.401 18ZM93.3271 11.422V12.422H94.7525L94.2674 11.0817L93.3271 11.422ZM91.6111 6.802L90.6729 7.14839L90.6766 7.158L91.6111 6.802ZM91.0831 5.372L92.0212 5.02563L91.1022 2.53667L90.1497 5.01302L91.0831 5.372ZM88.8171 11.422L87.8791 11.0753L87.3814 12.422H88.8171V11.422ZM96.6518 17.6838C96.3681 16.8328 95.9898 15.7724 95.5183 14.5053L93.6439 15.2027C94.111 16.4583 94.4807 17.4952 94.7544 18.3162L96.6518 17.6838ZM94.5811 13.854H87.5631V15.854H94.5811V13.854ZM86.6191 14.5239L85.5191 17.6699L87.4071 18.3301L88.5071 15.1841L86.6191 14.5239ZM86.4631 17H80.9411V19H86.4631V17ZM81.8741 18.3598L88.0341 2.38784L86.1681 1.66816L80.0081 17.6402L81.8741 18.3598ZM87.1011 3.028H95.1971V1.028H87.1011V3.028ZM94.2649 2.39007L100.469 18.3621L102.333 17.6379L96.1292 1.66593L94.2649 2.39007ZM101.401 17H95.7031V19H101.401V17ZM94.2674 11.0817C93.7082 9.53642 93.1342 7.99119 92.5456 6.446L90.6766 7.158C91.2613 8.69281 91.8314 10.2276 92.3868 11.7623L94.2674 11.0817ZM92.5492 6.45563L92.0212 5.02563L90.145 5.71837L90.673 7.14837L92.5492 6.45563ZM90.1497 5.01302C89.634 6.35408 88.8768 8.3758 87.8791 11.0753L89.7551 11.7686C90.7521 9.07087 91.5056 7.05925 92.0164 5.73098L90.1497 5.01302ZM88.8171 12.422H93.3271V10.422H88.8171V12.422ZM113.029 2.05L114.029 2.08029L114.06 1.05H113.029V2.05ZM112.655 14.392L111.656 14.3617L113.573 14.7895L112.655 14.392ZM118.001 2.05V1.05H117.345L117.084 1.65253L118.001 2.05ZM126.097 2.05L127.096 2.09138L127.14 1.05H126.097V2.05ZM126.097 18V19H127.14L127.096 17.9586L126.097 18ZM120.443 18L119.444 17.9671L119.41 19H120.443V18ZM120.839 5.988L121.839 6.02095L119.925 5.58279L120.839 5.988ZM115.515 18V19H116.166L116.43 18.4052L115.515 18ZM107.639 18L106.64 17.9588L106.597 19H107.639V18ZM107.639 2.05V1.05H106.597L106.64 2.0912L107.639 2.05ZM112.03 2.01971L111.656 14.3617L113.655 14.4223L114.029 2.08029L112.03 2.01971ZM113.573 14.7895L118.919 2.44747L117.084 1.65253L111.738 13.9945L113.573 14.7895ZM118.001 3.05H126.097V1.05H118.001V3.05ZM125.098 2.00861C124.995 4.50283 124.943 7.17141 124.943 10.014H126.943C126.943 7.19525 126.994 4.55451 127.096 2.09138L125.098 2.00861ZM124.943 10.014C124.943 12.8712 124.995 15.5471 125.098 18.0414L127.096 17.9586C126.994 15.4956 126.943 12.8475 126.943 10.014H124.943ZM126.097 17H120.443V19H126.097V17ZM121.443 18.0329L121.839 6.02095L119.84 5.95505L119.444 17.9671L121.443 18.0329ZM119.925 5.58279L114.601 17.5948L116.43 18.4052L121.754 6.39321L119.925 5.58279ZM115.515 17H107.639V19H115.515V17ZM108.638 18.0412C108.756 15.1841 108.815 12.5082 108.815 10.014H106.815C106.815 12.4771 106.757 15.1252 106.64 17.9588L108.638 18.0412ZM108.815 10.014C108.815 7.53435 108.756 4.8658 108.638 2.0088L106.64 2.0912C106.757 4.92486 106.815 7.56565 106.815 10.014H108.815ZM107.639 3.05H113.029V1.05H107.639V3.05ZM152.896 2.028L153.896 2.06938L153.939 1.028H152.896V2.028ZM152.896 18V19H153.939L153.896 17.9586L152.896 18ZM132.92 18L131.921 17.9588L131.878 19H132.92V18ZM132.92 2.028V1.028H131.878L131.921 2.0692L132.92 2.028ZM138.09 2.028H139.09V1.028H138.09V2.028ZM138.09 13.556H137.09V14.556H138.09V13.556ZM140.642 13.556V14.556H141.642V13.556H140.642ZM140.642 2.028V1.028H139.642V2.028H140.642ZM145.416 2.028H146.416V1.028H145.416V2.028ZM145.416 13.556H144.416V14.556H145.416V13.556ZM147.726 13.556V14.556H148.726V13.556H147.726ZM147.726 2.028V1.028H146.726V2.028H147.726ZM151.897 1.98661C151.794 4.48089 151.742 7.15682 151.742 10.014H153.742C153.742 7.18051 153.794 4.53244 153.896 2.06938L151.897 1.98661ZM151.742 10.014C151.742 12.8712 151.794 15.5471 151.897 18.0414L153.896 17.9586C153.794 15.4956 153.742 12.8475 153.742 10.014H151.742ZM152.896 17H132.92V19H152.896V17ZM133.92 18.0412C134.037 15.1841 134.096 12.5082 134.096 10.014H132.096C132.096 12.4771 132.038 15.1252 131.921 17.9588L133.92 18.0412ZM134.096 10.014C134.096 7.51976 134.037 4.84389 133.92 1.9868L131.921 2.0692C132.038 4.90278 132.096 7.55091 132.096 10.014H134.096ZM132.92 3.028H138.09V1.028H132.92V3.028ZM137.09 2.028V13.556H139.09V2.028H137.09ZM138.09 14.556H140.642V12.556H138.09V14.556ZM141.642 13.556V2.028H139.642V13.556H141.642ZM140.642 3.028H145.416V1.028H140.642V3.028ZM144.416 2.028V13.556H146.416V2.028H144.416ZM145.416 14.556H147.726V12.556H145.416V14.556ZM148.726 13.556V2.028H146.726V13.556H148.726ZM147.726 3.028H152.896V1.028H147.726V3.028ZM171.075 3.612L170.401 4.35153L170.407 4.35624L171.075 3.612ZM172.109 11.268L173 11.7211L173.003 11.7152L172.109 11.268ZM169.711 13.38L170.11 14.2967L170.12 14.2924L169.711 13.38ZM160.405 14.128V13.128H159.405V14.128H160.405ZM160.405 18V19H161.405V18H160.405ZM154.993 18L153.993 17.9588L153.95 19H154.993V18ZM154.993 2.028V1.028H153.95L153.993 2.0692L154.993 2.028ZM160.405 2.028H161.405V1.028H160.405V2.028ZM160.405 2.05H159.405V3.05H160.405V2.05ZM166.169 9.75L166.313 10.7395L166.323 10.738L166.333 10.7364L166.169 9.75ZM167.445 9.222L166.737 8.51489L166.727 8.5256L166.716 8.53664L167.445 9.222ZM167.467 7.044L166.717 7.70562L166.737 7.72903L166.759 7.75111L167.467 7.044ZM166.213 6.538L166.068 7.52747L166.071 7.52795L166.213 6.538ZM160.405 6.406V5.406H159.405V6.406H160.405ZM160.405 9.882H159.405V10.882H160.405V9.882ZM164.981 3.05C167.845 3.05 169.547 3.57399 170.401 4.35151L171.748 2.87249C170.314 1.56734 167.954 1.05 164.981 1.05V3.05ZM170.407 4.35624C171.293 5.15208 171.791 6.30657 171.791 7.968H173.791C173.791 5.87476 173.144 4.12525 171.742 2.86776L170.407 4.35624ZM171.791 7.968C171.791 9.14409 171.583 10.0826 171.214 10.8208L173.003 11.7152C173.543 10.6347 173.791 9.37324 173.791 7.968H171.791ZM171.217 10.815C170.89 11.4594 170.29 12.0239 169.301 12.4676L170.12 14.2924C171.419 13.7094 172.418 12.866 173 11.721L171.217 10.815ZM169.311 12.4633C168.347 12.8836 166.926 13.128 164.981 13.128V15.128C167.053 15.128 168.786 14.8737 170.11 14.2967L169.311 12.4633ZM164.981 13.128H160.405V15.128H164.981V13.128ZM159.405 14.128V18H161.405V14.128H159.405ZM160.405 17H154.993V19H160.405V17ZM155.992 18.0412C156.11 15.1841 156.169 12.5082 156.169 10.014H154.169C154.169 12.4771 154.11 15.1252 153.993 17.9588L155.992 18.0412ZM156.169 10.014C156.169 7.51976 156.11 4.84389 155.992 1.9868L153.993 2.0692C154.11 4.90278 154.169 7.55091 154.169 10.014H156.169ZM154.993 3.028H160.405V1.028H154.993V3.028ZM159.405 2.028V2.05H161.405V2.028H159.405ZM160.405 3.05H164.981V1.05H160.405V3.05ZM163.441 10.882C164.668 10.882 165.637 10.8384 166.313 10.7395L166.024 8.76054C165.497 8.8376 164.647 8.882 163.441 8.882V10.882ZM166.333 10.7364C167.009 10.6237 167.707 10.4017 168.173 9.90736L166.716 8.53664C166.723 8.52912 166.692 8.56548 166.567 8.61698C166.444 8.66781 166.262 8.72064 166.004 8.76361L166.333 10.7364ZM168.152 9.92911C168.65 9.43119 168.819 8.77018 168.819 8.122H166.819C166.819 8.44182 166.738 8.51414 166.737 8.51489L168.152 9.92911ZM168.819 8.122C168.819 7.49427 168.667 6.83037 168.174 6.33689L166.759 7.75111C166.735 7.72697 166.819 7.78173 166.819 8.122H168.819ZM168.216 6.38238C167.75 5.85428 167.025 5.64397 166.354 5.54805L166.071 7.52795C166.327 7.56452 166.502 7.61266 166.614 7.65785C166.727 7.70367 166.739 7.7314 166.717 7.70562L168.216 6.38238ZM166.357 5.54854C165.681 5.4495 164.696 5.406 163.441 5.406V7.406C164.678 7.406 165.542 7.45049 166.068 7.52746L166.357 5.54854ZM163.441 5.406H160.405V7.406H163.441V5.406ZM159.405 6.406V9.882H161.405V6.406H159.405ZM160.405 10.882H163.441V8.882H160.405V10.882ZM180.263 2.05L181.263 2.08029L181.294 1.05H180.263V2.05ZM179.889 14.392L178.89 14.3617L180.807 14.7895L179.889 14.392ZM185.235 2.05V1.05H184.579L184.318 1.65253L185.235 2.05ZM193.331 2.05L194.331 2.09138L194.374 1.05H193.331V2.05ZM193.331 18V19H194.374L194.331 17.9586L193.331 18ZM187.677 18L186.678 17.9671L186.644 19H187.677V18ZM188.073 5.988L189.073 6.02095L187.159 5.58279L188.073 5.988ZM182.749 18V19H183.4L183.664 18.4052L182.749 18ZM174.873 18L173.874 17.9588L173.831 19H174.873V18ZM174.873 2.05V1.05H173.831L173.874 2.0912L174.873 2.05ZM179.264 2.01971L178.89 14.3617L180.889 14.4223L181.263 2.08029L179.264 2.01971ZM180.807 14.7895L186.153 2.44747L184.318 1.65253L178.972 13.9945L180.807 14.7895ZM185.235 3.05H193.331V1.05H185.235V3.05ZM192.332 2.00861C192.229 4.50283 192.177 7.17141 192.177 10.014H194.177C194.177 7.19525 194.228 4.55451 194.331 2.09138L192.332 2.00861ZM192.177 10.014C192.177 12.8712 192.229 15.5471 192.332 18.0414L194.331 17.9586C194.228 15.4956 194.177 12.8475 194.177 10.014H192.177ZM193.331 17H187.677V19H193.331V17ZM188.677 18.0329L189.073 6.02095L187.074 5.95505L186.678 17.9671L188.677 18.0329ZM187.159 5.58279L181.835 17.5948L183.664 18.4052L188.988 6.39321L187.159 5.58279ZM182.749 17H174.873V19H182.749V17ZM175.873 18.0412C175.99 15.1841 176.049 12.5082 176.049 10.014H174.049C174.049 12.4771 173.991 15.1252 173.874 17.9588L175.873 18.0412ZM176.049 10.014C176.049 7.53435 175.99 4.8658 175.873 2.0088L173.874 2.0912C173.991 4.92486 174.049 7.56565 174.049 10.014H176.049ZM174.873 3.05H180.263V1.05H174.873V3.05ZM207.74 16.042L207.626 15.0485L206.72 15.1526L206.74 16.0645L207.74 16.042ZM207.784 18V19H208.807L208.784 17.9775L207.784 18ZM202.592 18L201.592 17.9889L201.581 19H202.592V18ZM202.614 16.02L203.614 16.0311L203.624 15.1332L202.732 15.027L202.614 16.02ZM197.158 13.886L196.46 14.6021L196.465 14.6065L197.158 13.886ZM197.158 5.02L197.856 5.73613L197.861 5.7316L197.158 5.02ZM202.614 2.864L202.732 3.85707L203.624 3.75149L203.614 2.85313L202.614 2.864ZM202.592 0.839999V-0.160001H201.581L201.592 0.850868L202.592 0.839999ZM207.784 0.839999L208.784 0.874463L208.819 -0.160001H207.784V0.839999ZM207.762 2.864H206.762V3.75325L207.645 3.85715L207.762 2.864ZM213.262 5.02L212.564 5.73601L212.569 5.74049L213.262 5.02ZM207.74 11.664H206.74V12.9384L207.978 12.6353L207.74 11.664ZM209.302 10.85L208.566 10.1729L208.559 10.1811L208.551 10.1894L209.302 10.85ZM207.784 7.264L208.027 6.29386L206.799 5.98683L206.784 7.25264L207.784 7.264ZM207.762 9.2L208.762 9.22702L208.762 9.21919L208.762 9.21136L207.762 9.2ZM201.118 10.828L201.869 10.1674L201.869 10.1674L201.118 10.828ZM202.658 11.642L202.416 12.6121L203.658 12.9228V11.642H202.658ZM202.658 7.264H203.658V5.98322L202.416 6.29386L202.658 7.264ZM214.022 9.442C214.022 11.1345 213.498 12.3558 212.53 13.233C211.531 14.139 209.943 14.7826 207.626 15.0485L207.854 17.0355C210.392 16.7441 212.445 16.009 213.873 14.715C215.333 13.3922 216.022 11.5921 216.022 9.442H214.022ZM206.74 16.0645L206.784 18.0225L208.784 17.9775L208.74 16.0195L206.74 16.0645ZM207.784 17H202.592V19H207.784V17ZM203.592 18.0111L203.614 16.0311L201.614 16.0089L201.592 17.9889L203.592 18.0111ZM202.732 15.027C200.378 14.7467 198.805 14.083 197.852 13.1655L196.465 14.6065C197.858 15.9476 199.923 16.7067 202.496 17.013L202.732 15.027ZM197.856 13.1699C196.917 12.2545 196.42 11.0449 196.42 9.442H194.42C194.42 11.5057 195.082 13.2588 196.46 14.6021L197.856 13.1699ZM196.42 9.442C196.42 7.85633 196.915 6.65309 197.856 5.73611L196.46 4.30389C195.084 5.64558 194.42 7.39034 194.42 9.442H196.42ZM197.861 5.7316C198.796 4.80772 200.363 4.13745 202.732 3.85707L202.497 1.87093C199.908 2.17722 197.837 2.94428 196.456 4.3084L197.861 5.7316ZM203.614 2.85313L203.592 0.829131L201.592 0.850868L201.614 2.87487L203.614 2.85313ZM202.592 1.84H207.784V-0.160001H202.592V1.84ZM206.785 0.805535C206.769 1.24927 206.762 1.93856 206.762 2.864H208.762C208.762 1.94143 208.77 1.2814 208.784 0.874463L206.785 0.805535ZM207.645 3.85715C210.03 4.13768 211.613 4.80867 212.564 5.736L213.96 4.304C212.565 2.94333 210.481 2.17699 207.879 1.87085L207.645 3.85715ZM212.569 5.74049C213.522 6.65838 214.022 7.86025 214.022 9.442H216.022C216.022 7.38642 215.349 5.64028 213.956 4.29951L212.569 5.74049ZM207.978 12.6353C208.799 12.4342 209.542 12.0913 210.053 11.5106L208.551 10.1894C208.417 10.342 208.118 10.5418 207.502 10.6927L207.978 12.6353ZM210.038 11.5271C210.57 10.9485 210.808 10.225 210.808 9.442H208.808C208.808 9.80297 208.709 10.0182 208.566 10.1729L210.038 11.5271ZM210.808 9.442C210.808 8.66611 210.566 7.95224 210.035 7.38076C209.522 6.82944 208.817 6.49131 208.027 6.29386L207.542 8.23414C208.101 8.37402 208.407 8.56756 208.57 8.74223C208.713 8.89676 208.808 9.10322 208.808 9.442H210.808ZM206.784 7.25264L206.762 9.18864L208.762 9.21136L208.784 7.27536L206.784 7.25264ZM206.763 9.17298C206.747 9.72973 206.74 10.5621 206.74 11.664H208.74C208.74 10.5659 208.748 9.75561 208.762 9.22702L206.763 9.17298ZM199.634 9.442C199.634 10.2059 199.861 10.9137 200.367 11.4886L201.869 10.1674C201.73 10.009 201.634 9.79273 201.634 9.442H199.634ZM200.367 11.4886C200.875 12.0651 201.605 12.4095 202.416 12.6121L202.901 10.6719C202.303 10.5225 202.007 10.3242 201.869 10.1674L200.367 11.4886ZM203.658 11.642V9.2H201.658V11.642H203.658ZM203.658 9.2V7.264H201.658V9.2H203.658ZM202.416 6.29386C201.626 6.49131 200.92 6.82944 200.408 7.38076C199.877 7.95224 199.634 8.66611 199.634 9.442H201.634C201.634 9.10322 201.729 8.89676 201.873 8.74223C202.035 8.56756 202.341 8.37402 202.901 8.23414L202.416 6.29386ZM234.908 6.648L234.876 7.64749L235.908 7.68035V6.648H234.908ZM228.198 6.516L228.205 5.51602L227.198 5.50922V6.516H228.198ZM228.198 18V19H229.198V18H228.198ZM222.698 18H221.698V19H222.698V18ZM222.698 6.516H223.698V5.50927L222.691 5.51602L222.698 6.516ZM216.01 6.648H215.01V7.68078L216.042 7.64748L216.01 6.648ZM216.01 2.028V1.028H215.01V2.028H216.01ZM234.908 2.028H235.908V1.028H234.908V2.028ZM234.94 5.64851C232.629 5.57492 230.384 5.53075 228.205 5.51602L228.191 7.51598C230.353 7.53058 232.581 7.57441 234.876 7.64749L234.94 5.64851ZM227.198 6.516V18H229.198V6.516H227.198ZM228.198 17H222.698V19H228.198V17ZM223.698 18V6.516H221.698V18H223.698ZM222.691 5.51602C220.497 5.53075 218.259 5.57492 215.978 5.64852L216.042 7.64748C218.307 7.57441 220.528 7.53058 222.705 7.51598L222.691 5.51602ZM217.01 6.648V2.028H215.01V6.648H217.01ZM216.01 3.028H234.908V1.028H216.01V3.028ZM233.908 2.028V6.648H235.908V2.028H233.908ZM260.438 9.2L261.438 9.21666L261.438 9.20833V9.2H260.438ZM260.46 18V19H261.49L261.459 17.9702L260.46 18ZM255.268 18L254.268 17.9912L254.259 19H255.268V18ZM255.29 15.514L254.29 15.5032L254.29 15.5052L255.29 15.514ZM255.29 3.216L254.29 3.22526L254.29 3.22736L255.29 3.216ZM255.268 0.839999V-0.160001H254.259L254.268 0.849258L255.268 0.839999ZM260.46 0.839999L261.459 0.871236L261.492 -0.160001H260.46V0.839999ZM251.066 6.67L250.656 7.58241L250.666 7.58669L251.066 6.67ZM253.464 8.782L252.569 9.22922L252.572 9.23505L253.464 8.782ZM252.43 16.438L253.098 17.1823L253.103 17.1775L252.43 16.438ZM242.42 17.978V16.978H241.42V17.978H242.42ZM242.42 18V19H243.42V18H242.42ZM237.008 18L236.009 17.9588L235.966 19H237.008V18ZM237.008 2.028V1.028H235.966L236.009 2.0692L237.008 2.028ZM242.42 2.028H243.42V1.028H242.42V2.028ZM242.42 5.9H241.42V6.9H242.42V5.9ZM247.766 13.49L247.935 14.4756L247.946 14.4737L247.957 14.4716L247.766 13.49ZM248.866 12.984L249.618 13.6425L249.618 13.6425L248.866 12.984ZM248.844 10.806L248.094 11.4676L248.094 11.4676L248.844 10.806ZM247.722 10.3L247.526 11.2806L247.542 11.2837L247.557 11.2864L247.722 10.3ZM242.42 10.146V9.146H241.42V10.146H242.42ZM242.42 13.622H241.42V14.622H242.42V13.622ZM259.438 9.18334C259.423 10.0721 259.416 11.4283 259.416 13.248H261.416C261.416 11.4304 261.423 10.0879 261.438 9.21666L259.438 9.18334ZM259.416 13.248C259.416 15.4343 259.431 17.0311 259.46 18.0298L261.459 17.9702C261.431 17.0036 261.416 15.4324 261.416 13.248H259.416ZM260.46 17H255.268V19H260.46V17ZM256.268 18.0088L256.29 15.5228L254.29 15.5052L254.268 17.9912L256.268 18.0088ZM256.29 15.5248C256.319 12.7956 256.334 10.6867 256.334 9.2H254.334C254.334 10.6759 254.319 12.7764 254.29 15.5032L256.29 15.5248ZM256.334 9.2C256.334 7.78631 256.319 5.7872 256.29 3.20464L254.29 3.22736C254.319 5.80746 254.334 7.79769 254.334 9.2H256.334ZM256.29 3.20674L256.268 0.830741L254.268 0.849258L254.29 3.22526L256.29 3.20674ZM255.268 1.84H260.46V-0.160001H255.268V1.84ZM259.46 0.808763C259.445 1.29465 259.438 2.0411 259.438 3.04H261.438C261.438 2.04424 261.445 1.32402 261.459 0.871236L259.46 0.808763ZM259.438 3.04V7.154H261.438V3.04H259.438ZM259.438 7.154V9.2H261.438V7.154H259.438ZM246.336 6.9C248.279 6.9 249.696 7.15123 250.656 7.58236L251.475 5.75764C250.148 5.1621 248.411 4.9 246.336 4.9V6.9ZM250.666 7.58669C251.646 8.01376 252.242 8.57411 252.569 9.22921L254.358 8.33479C253.777 7.17122 252.774 6.32357 251.465 5.7533L250.666 7.58669ZM252.572 9.23505C252.938 9.95502 253.146 10.8831 253.146 12.06H255.146C255.146 10.6555 254.899 9.39831 254.355 8.32895L252.572 9.23505ZM253.146 12.06C253.146 13.7209 252.649 14.8865 251.757 15.6985L253.103 17.1775C254.499 15.9069 255.146 14.1538 255.146 12.06H253.146ZM251.762 15.6938C250.907 16.4607 249.202 16.978 246.336 16.978V18.978C249.307 18.978 251.664 18.4686 253.098 17.1822L251.762 15.6938ZM246.336 16.978H242.42V18.978H246.336V16.978ZM241.42 17.978V18H243.42V17.978H241.42ZM242.42 17H237.008V19H242.42V17ZM238.007 18.0412C238.125 15.1841 238.184 12.5082 238.184 10.014H236.184C236.184 12.4771 236.126 15.1252 236.009 17.9588L238.007 18.0412ZM238.184 10.014C238.184 7.51976 238.125 4.84389 238.007 1.9868L236.009 2.0692C236.126 4.90278 236.184 7.55091 236.184 10.014H238.184ZM237.008 3.028H242.42V1.028H237.008V3.028ZM241.42 2.028V5.9H243.42V2.028H241.42ZM242.42 6.9H246.336V4.9H242.42V6.9ZM245.456 14.622C246.496 14.622 247.335 14.5784 247.935 14.4756L247.597 12.5044C247.17 12.5776 246.469 12.622 245.456 12.622V14.622ZM247.957 14.4716C248.56 14.3542 249.194 14.1277 249.618 13.6425L248.113 12.3255C248.126 12.3106 248.111 12.3359 248.019 12.378C247.928 12.4201 247.785 12.4676 247.575 12.5084L247.957 14.4716ZM249.618 13.6425C250.051 13.1481 250.174 12.5043 250.174 11.906H248.174C248.174 12.2757 248.091 12.3506 248.113 12.3255L249.618 13.6425ZM250.174 11.906C250.174 11.2873 250.035 10.6443 249.594 10.1444L248.094 11.4676C248.095 11.4688 248.114 11.4895 248.134 11.5553C248.154 11.6246 248.174 11.7369 248.174 11.906H250.174ZM249.594 10.1444C249.153 9.64521 248.512 9.4179 247.886 9.31361L247.557 11.2864C247.761 11.3203 247.899 11.3641 247.987 11.4041C248.074 11.4434 248.097 11.4712 248.094 11.4676L249.594 10.1444ZM247.918 9.31942C247.306 9.197 246.471 9.146 245.456 9.146V11.146C246.435 11.146 247.111 11.1977 247.526 11.2806L247.918 9.31942ZM245.456 9.146H242.42V11.146H245.456V9.146ZM241.42 10.146V13.622H243.42V10.146H241.42ZM242.42 14.622H245.456V12.622H242.42V14.622Z" fill="#F0F0F0"/>
</svg>
