<svg width="271" height="396" viewBox="0 0 271 396" fill="none" xmlns="http://www.w3.org/2000/svg">
<path d="M160.599 183.452C157.567 173.879 153.498 161.87 148.392 147.426H72.042L60.0749 183.452H0L67.0158 0.550049H155.094L222.588 183.452H160.599ZM134.75 108.125C128.686 90.4894 122.463 72.8543 116.081 55.2191L110.337 38.8436C104.752 54.1274 96.5347 77.2211 85.6845 108.125H134.75Z" fill="#F2B94B"/>
<path d="M5.59059 212.301C7.53694 212.301 9.07435 212.539 10.2028 213.015C11.3313 213.481 12.1181 214.133 12.5633 214.972C13.0188 215.8 13.2466 216.82 13.2466 218.031C13.2466 219.18 12.9878 220.185 12.4701 221.044C11.9525 221.903 11.176 222.571 10.1407 223.047C9.10541 223.513 7.832 223.746 6.32047 223.746C5.39906 223.746 4.46212 223.746 3.50965 223.746C2.55718 223.746 1.59435 223.741 0.621177 223.731C0.704 221.691 0.745412 219.791 0.745412 218.031C0.745412 216.251 0.704 214.392 0.621177 212.456C1.85318 212.353 3.50965 212.301 5.59059 212.301ZM6.75529 220.656C7.71812 220.656 8.36 220.423 8.68094 219.957C9.00188 219.491 9.16235 218.849 9.16235 218.031C9.16235 217.244 8.99153 216.608 8.64988 216.121C8.31859 215.635 7.68706 215.391 6.75529 215.391C5.75106 215.391 5.00047 215.422 4.50353 215.484V220.656H6.75529ZM22.6974 219.864H17.6349C17.7177 220.319 17.9196 220.692 18.2405 220.982C18.5718 221.261 19.0377 221.401 19.6382 221.401C20.073 221.401 20.4819 221.318 20.865 221.153C21.248 220.977 21.5534 220.733 21.7812 220.423C22.4749 220.764 23.3963 221.132 24.5454 221.525C24.2245 222.25 23.6396 222.83 22.7906 223.265C21.952 223.689 20.8546 223.901 19.4984 223.901C17.7384 223.901 16.4339 223.498 15.585 222.69C14.7464 221.872 14.3271 220.801 14.3271 219.476C14.3271 218.181 14.7464 217.131 15.585 216.323C16.4236 215.516 17.728 215.112 19.4984 215.112C20.5544 215.112 21.4706 215.288 22.2471 215.64C23.0236 215.992 23.6189 216.484 24.033 217.115C24.4471 217.736 24.6542 218.451 24.6542 219.258C24.6542 219.527 24.6438 219.729 24.6231 219.864H22.6974ZM19.7158 217.457C19.1982 217.457 18.7737 217.555 18.4424 217.752C18.1111 217.948 17.8782 218.218 17.7436 218.559H21.4085C21.2843 218.228 21.0824 217.964 20.8029 217.767C20.5233 217.56 20.161 217.457 19.7158 217.457ZM29.3846 217.534C29.3742 218.156 29.369 219.108 29.369 220.392C29.369 221.934 29.3794 223.052 29.4001 223.746H25.7351L25.7507 221.991C25.7714 220.066 25.7817 218.58 25.7817 217.534C25.7817 216.54 25.7714 215.132 25.7507 213.31L25.7351 211.633H29.4001C29.3794 213.103 29.369 214.304 29.369 215.236C29.369 216.271 29.3742 217.037 29.3846 217.534ZM40.6031 221.168C40.6031 221.52 40.6445 221.769 40.7273 221.914C40.8102 222.059 40.9758 222.162 41.2243 222.224L41.1622 223.684C40.8309 223.736 40.541 223.772 40.2925 223.793C40.0544 223.813 39.7335 223.824 39.3297 223.824C38.4393 223.824 37.8492 223.627 37.5593 223.234C37.2695 222.83 37.1245 222.317 37.1245 221.696V221.308C36.8243 222.157 36.3843 222.788 35.8045 223.203C35.2351 223.617 34.5052 223.824 33.6149 223.824C32.5796 223.824 31.7979 223.617 31.2699 223.203C30.7523 222.788 30.4935 222.172 30.4935 221.355C30.4935 220.682 30.716 220.154 31.1612 219.771C31.6064 219.388 32.2949 219.124 33.2266 218.979C32.4398 218.42 31.653 217.933 30.8662 217.519C31.4873 216.732 32.1965 216.137 32.9937 215.733C33.7909 215.319 34.7589 215.112 35.8977 215.112C37.492 215.112 38.6723 215.459 39.4384 216.152C40.2149 216.836 40.6031 217.892 40.6031 219.32V221.168ZM36.2238 217.845C35.6958 217.845 35.2299 217.933 34.8262 218.109C34.4224 218.285 34.06 218.549 33.7391 218.901C34.3603 218.828 35.1368 218.792 36.0685 218.792C36.4516 218.792 36.7208 218.746 36.876 218.652C37.0313 218.559 37.109 218.44 37.109 218.295C37.109 218.171 37.0313 218.068 36.876 217.985C36.7208 217.892 36.5033 217.845 36.2238 217.845ZM34.5932 221.292C35.173 221.292 35.6958 221.184 36.1617 220.966C36.6276 220.739 36.9485 220.444 37.1245 220.081V219.677C36.876 219.802 36.6017 219.9 36.3015 219.972C36.0012 220.035 35.6389 220.097 35.2144 220.159L34.6553 220.252C34.0756 220.366 33.7857 220.563 33.7857 220.842C33.7857 221.142 34.0549 221.292 34.5932 221.292ZM51.6664 217.317H58.2974V223.746H55.5642L55.2381 220.997C54.9275 221.981 54.3736 222.711 53.5765 223.187C52.7793 223.663 51.8061 223.901 50.6569 223.901C49.6113 223.901 48.6795 223.668 47.8616 223.203C47.0541 222.737 46.4174 222.069 45.9515 221.199C45.496 220.33 45.2682 219.315 45.2682 218.156C45.2682 216.302 45.8221 214.837 46.9299 213.761C48.0376 212.684 49.7614 212.146 52.1012 212.146C53.4367 212.146 54.6118 212.363 55.6264 212.798C56.6513 213.233 57.5209 213.906 58.2353 214.817C57.7694 215.055 56.8584 215.531 55.5021 216.245L55.1139 216.463C54.7101 216.059 54.2391 215.759 53.7007 215.562C53.1624 215.355 52.5929 215.252 51.9925 215.252C50.9986 215.252 50.2584 215.516 49.7718 216.044C49.2852 216.561 49.0419 217.203 49.0419 217.969C49.0419 218.797 49.3007 219.465 49.8184 219.972C50.3464 220.48 51.1487 220.733 52.2254 220.733C52.6913 220.733 53.1416 220.666 53.5765 220.532C54.0216 220.397 54.3944 220.164 54.6946 219.833H51.6664V217.317ZM64.5394 223.901C62.769 223.901 61.4646 223.498 60.626 222.69C59.7977 221.872 59.3836 220.801 59.3836 219.476C59.3836 218.181 59.7977 217.131 60.626 216.323C61.4646 215.516 62.769 215.112 64.5394 215.112C65.73 215.112 66.7239 215.308 67.521 215.702C68.3286 216.085 68.9239 216.608 69.3069 217.27C69.69 217.923 69.8815 218.658 69.8815 219.476C69.8815 220.811 69.4363 221.883 68.546 222.69C67.666 223.498 66.3304 223.901 64.5394 223.901ZM64.6015 221.261C65.2744 221.261 65.7766 221.101 66.1079 220.78C66.4392 220.459 66.6048 220.029 66.6048 219.491C66.6048 218.984 66.4392 218.57 66.1079 218.249C65.7766 217.917 65.2744 217.752 64.6015 217.752C63.9286 217.752 63.4368 217.912 63.1262 218.233C62.8156 218.554 62.6603 218.973 62.6603 219.491C62.6603 220.029 62.8156 220.459 63.1262 220.78C63.4368 221.101 63.9286 221.261 64.6015 221.261ZM78.0085 218.047C77.056 217.985 76.1864 217.938 75.3995 217.907L75.384 219.553C75.384 220.112 75.5031 220.552 75.7412 220.873C75.9897 221.184 76.4245 221.339 77.0457 221.339C77.2838 221.339 77.5115 221.318 77.729 221.277C77.6875 221.66 77.6668 222.048 77.6668 222.442C77.6668 222.628 77.6772 223.052 77.6979 223.715C77.2424 223.798 76.8593 223.85 76.5487 223.87C76.2381 223.891 75.8344 223.901 75.3374 223.901C74.1261 223.901 73.2668 223.612 72.7595 223.032C72.2626 222.442 72.0141 221.624 72.0141 220.578L72.0297 217.954C71.5431 217.974 71.0358 218.005 70.5078 218.047V215.298C71.0461 215.298 71.5017 215.127 71.8744 214.786C72.2471 214.444 72.4697 214.035 72.5421 213.559H76.7661C76.2381 214.284 75.6532 214.863 75.0113 215.298H78.0085V218.047ZM84.992 223.746C85.0541 222.224 85.0852 220.821 85.0852 219.538C85.0852 219.082 84.9713 218.72 84.7435 218.451C84.5261 218.181 84.2466 218.047 83.9049 218.047C83.5426 218.047 83.232 218.223 82.9732 218.575C82.7247 218.927 82.6005 219.408 82.6005 220.019L82.5849 219.988C82.5849 221.676 82.6056 222.928 82.647 223.746H78.9355C79.0183 222.255 79.0598 220.236 79.0598 217.69C79.0598 215.143 79.0183 213.124 78.9355 211.633H82.6315L82.647 216.416L82.6315 217.239C82.88 216.515 83.2475 215.981 83.7341 215.64C84.231 215.288 84.7901 215.112 85.4113 215.112C86.0325 215.112 86.5708 215.252 87.0263 215.531C87.4819 215.8 87.8235 216.168 88.0513 216.634C88.2894 217.1 88.4085 217.622 88.4085 218.202V220.438C88.4085 221.815 88.4343 222.918 88.4861 223.746H84.992ZM91.8143 214.351C91.162 214.351 90.6754 214.19 90.3545 213.869C90.0439 213.548 89.8886 213.129 89.8886 212.612C89.8886 212.104 90.0439 211.685 90.3545 211.354C90.6754 211.022 91.162 210.857 91.8143 210.857C92.4354 210.857 92.9117 211.028 93.243 211.369C93.5743 211.7 93.7399 212.115 93.7399 212.612C93.7399 213.129 93.5794 213.548 93.2585 213.869C92.9375 214.19 92.4561 214.351 91.8143 214.351ZM90.0128 223.746C90.0853 222.079 90.1215 220.702 90.1215 219.615C90.1215 218.321 90.0801 216.872 89.9973 215.267H93.7244C93.6415 216.81 93.6001 218.259 93.6001 219.615C93.6001 220.754 93.6364 222.131 93.7088 223.746H90.0128ZM98.2847 219.507C98.3054 220.035 98.471 220.459 98.7816 220.78C99.1026 221.101 99.5736 221.261 100.195 221.261C100.536 221.261 100.842 221.199 101.111 221.075C101.38 220.94 101.629 220.744 101.856 220.485C102.736 220.827 103.767 221.122 104.947 221.37C104.605 222.167 104.025 222.788 103.208 223.234C102.4 223.679 101.349 223.901 100.055 223.901C98.3261 223.901 97.0475 223.498 96.2193 222.69C95.391 221.883 94.9769 220.821 94.9769 219.507C94.9769 218.192 95.391 217.131 96.2193 216.323C97.0475 215.516 98.3261 215.112 100.055 215.112C101.349 215.112 102.4 215.334 103.208 215.78C104.025 216.225 104.605 216.846 104.947 217.643C104.025 217.84 102.995 218.135 101.856 218.528C101.629 218.269 101.38 218.078 101.111 217.954C100.842 217.819 100.536 217.752 100.195 217.752C99.5736 217.752 99.1026 217.912 98.7816 218.233C98.471 218.554 98.3054 218.979 98.2847 219.507ZM116.131 223.901C113.761 223.901 112.016 223.389 110.898 222.364C109.78 221.329 109.221 219.879 109.221 218.016C109.221 216.173 109.775 214.734 110.883 213.699C112.001 212.663 113.75 212.146 116.131 212.146C118.523 212.146 120.273 212.663 121.38 213.699C122.499 214.734 123.058 216.173 123.058 218.016C123.058 219.89 122.504 221.339 121.396 222.364C120.288 223.389 118.533 223.901 116.131 223.901ZM116.131 220.733C117.281 220.733 118.109 220.516 118.616 220.081C119.123 219.636 119.377 218.948 119.377 218.016C119.377 217.105 119.123 216.427 118.616 215.981C118.109 215.536 117.281 215.314 116.131 215.314C114.993 215.314 114.17 215.536 113.662 215.981C113.155 216.427 112.901 217.105 112.901 218.016C112.901 218.937 113.155 219.62 113.662 220.066C114.17 220.511 114.993 220.733 116.131 220.733ZM130.352 223.746C130.414 222.224 130.445 220.821 130.445 219.538C130.445 219.082 130.331 218.72 130.103 218.451C129.886 218.181 129.606 218.047 129.265 218.047C128.923 218.047 128.633 218.202 128.395 218.513C128.157 218.813 128.017 219.227 127.976 219.755C127.955 220.542 127.945 221.101 127.945 221.432C127.945 222.136 127.965 222.908 128.007 223.746H124.295C124.378 222.255 124.42 220.847 124.42 219.522C124.42 218.197 124.378 216.779 124.295 215.267C124.979 215.298 125.501 215.314 125.864 215.314C126.247 215.314 126.77 215.298 127.432 215.267L127.883 217.55C128.121 216.722 128.493 216.111 129.001 215.717C129.508 215.314 130.098 215.112 130.771 215.112C131.392 215.112 131.931 215.252 132.386 215.531C132.842 215.8 133.183 216.168 133.411 216.634C133.649 217.1 133.768 217.622 133.768 218.202V220.438C133.768 221.815 133.794 222.918 133.846 223.746H130.352ZM143.308 219.864H138.246C138.328 220.319 138.53 220.692 138.851 220.982C139.183 221.261 139.648 221.401 140.249 221.401C140.684 221.401 141.093 221.318 141.476 221.153C141.859 220.977 142.164 220.733 142.392 220.423C143.086 220.764 144.007 221.132 145.156 221.525C144.835 222.25 144.25 222.83 143.401 223.265C142.563 223.689 141.465 223.901 140.109 223.901C138.349 223.901 137.045 223.498 136.196 222.69C135.357 221.872 134.938 220.801 134.938 219.476C134.938 218.181 135.357 217.131 136.196 216.323C137.034 215.516 138.339 215.112 140.109 215.112C141.165 215.112 142.081 215.288 142.858 215.64C143.634 215.992 144.23 216.484 144.644 217.115C145.058 217.736 145.265 218.451 145.265 219.258C145.265 219.527 145.255 219.729 145.234 219.864H143.308ZM140.327 217.457C139.809 217.457 139.384 217.555 139.053 217.752C138.722 217.948 138.489 218.218 138.354 218.559H142.019C141.895 218.228 141.693 217.964 141.414 217.767C141.134 217.56 140.772 217.457 140.327 217.457Z" fill="#F5F5F5"/>
<path d="M7.19012 240.773C9.52988 240.773 11.2536 241.311 12.3614 242.388C13.4692 243.465 14.0231 244.93 14.0231 246.783C14.0231 248.626 13.4692 250.044 12.3614 251.038C11.2536 252.032 9.52988 252.529 7.19012 252.529C5.76141 252.529 4.44141 252.28 3.23012 251.783C2.01882 251.286 1.15435 250.412 0.636706 249.159C1.96188 248.59 3.04894 248.077 3.89788 247.622C4.136 248.243 4.50871 248.698 5.016 248.988C5.52329 249.268 6.20659 249.407 7.06588 249.407C7.88377 249.407 8.56706 249.283 9.11577 249.035C9.67482 248.776 10.0734 248.403 10.3115 247.917H4.84518V245.308H10.2184C9.98024 244.862 9.61271 244.516 9.11577 244.267C8.62918 244.008 8.02353 243.879 7.29882 243.879C6.62588 243.879 5.96329 244.019 5.31106 244.298C4.66918 244.578 4.19812 245.007 3.89788 245.587C2.64518 244.945 1.55294 244.464 0.621177 244.143C1.72894 241.896 3.91859 240.773 7.19012 240.773ZM24.6973 246.814C23.1444 246.773 22.0159 246.747 21.3119 246.736V252.374H18.0197V246.736C17.3261 246.747 16.2028 246.773 14.6498 246.814V243.894H24.6973V246.814ZM30.3262 252.529C28.5558 252.529 27.2513 252.125 26.4127 251.318C25.5845 250.5 25.1704 249.428 25.1704 248.103C25.1704 246.809 25.5845 245.758 26.4127 244.95C27.2513 244.143 28.5558 243.739 30.3262 243.739C31.5167 243.739 32.5106 243.936 33.3078 244.329C34.1153 244.712 34.7106 245.235 35.0937 245.898C35.4767 246.55 35.6683 247.285 35.6683 248.103C35.6683 249.438 35.2231 250.51 34.3327 251.318C33.4527 252.125 32.1172 252.529 30.3262 252.529ZM30.3883 249.889C31.0612 249.889 31.5633 249.728 31.8946 249.407C32.2259 249.086 32.3916 248.657 32.3916 248.118C32.3916 247.611 32.2259 247.197 31.8946 246.876C31.5633 246.545 31.0612 246.379 30.3883 246.379C29.7153 246.379 29.2236 246.54 28.913 246.861C28.6024 247.182 28.4471 247.601 28.4471 248.118C28.4471 248.657 28.6024 249.086 28.913 249.407C29.2236 249.728 29.7153 249.889 30.3883 249.889ZM49.6529 243.894C49.6011 245.468 49.5752 246.881 49.5752 248.134C49.5752 249.387 49.6011 250.8 49.6529 252.374H46.283V249.547H43.2392V252.374H39.8693C39.9211 251.193 39.947 249.78 39.947 248.134C39.947 246.488 39.9211 245.075 39.8693 243.894H43.2392V246.721H46.283V243.894H49.6529ZM59.1097 248.491H54.0471C54.1299 248.947 54.3318 249.319 54.6527 249.609C54.984 249.889 55.4499 250.029 56.0504 250.029C56.4852 250.029 56.8941 249.946 57.2772 249.78C57.6603 249.604 57.9657 249.361 58.1934 249.05C58.8871 249.392 59.8085 249.759 60.9577 250.153C60.6367 250.878 60.0518 251.457 59.2029 251.892C58.3643 252.317 57.2668 252.529 55.9106 252.529C54.1506 252.529 52.8461 252.125 51.9972 251.318C51.1586 250.5 50.7393 249.428 50.7393 248.103C50.7393 246.809 51.1586 245.758 51.9972 244.95C52.8358 244.143 54.1403 243.739 55.9106 243.739C56.9666 243.739 57.8828 243.915 58.6593 244.267C59.4358 244.619 60.0311 245.111 60.4452 245.742C60.8593 246.364 61.0664 247.078 61.0664 247.886C61.0664 248.155 61.056 248.357 61.0353 248.491H59.1097ZM56.128 246.084C55.6104 246.084 55.1859 246.182 54.8546 246.379C54.5233 246.576 54.2904 246.845 54.1558 247.187H57.8207C57.6965 246.855 57.4946 246.591 57.2151 246.395C56.9356 246.188 56.5732 246.084 56.128 246.084ZM77.1052 243.894L77.6953 252.374H74.6826L74.4963 246.302L73.3161 252.374H69.6356L68.4398 246.379L68.269 252.374H65.2563L65.8464 243.894H70.4431L71.4525 249.438L72.3532 243.894H77.1052ZM88.8899 249.796C88.8899 250.148 88.9313 250.396 89.0141 250.541C89.0969 250.686 89.2626 250.79 89.511 250.852L89.4489 252.311C89.1176 252.363 88.8278 252.399 88.5793 252.42C88.3412 252.441 88.0202 252.451 87.6165 252.451C86.7261 252.451 86.136 252.254 85.8461 251.861C85.5562 251.457 85.4113 250.945 85.4113 250.324V249.935C85.111 250.784 84.671 251.416 84.0913 251.83C83.5219 252.244 82.792 252.451 81.9016 252.451C80.8663 252.451 80.0847 252.244 79.5567 251.83C79.039 251.416 78.7802 250.8 78.7802 249.982C78.7802 249.309 79.0028 248.781 79.448 248.398C79.8932 248.015 80.5816 247.751 81.5134 247.606C80.7266 247.047 79.9398 246.56 79.1529 246.146C79.7741 245.359 80.4833 244.764 81.2805 244.36C82.0776 243.946 83.0456 243.739 84.1845 243.739C85.7788 243.739 86.959 244.086 87.7252 244.78C88.5016 245.463 88.8899 246.519 88.8899 247.948V249.796ZM84.5106 246.472C83.9826 246.472 83.5167 246.56 83.1129 246.736C82.7092 246.912 82.3468 247.176 82.0259 247.528C82.647 247.456 83.4235 247.42 84.3553 247.42C84.7383 247.42 85.0075 247.373 85.1628 247.28C85.3181 247.187 85.3958 247.068 85.3958 246.923C85.3958 246.798 85.3181 246.695 85.1628 246.612C85.0075 246.519 84.7901 246.472 84.5106 246.472ZM82.88 249.92C83.4598 249.92 83.9826 249.811 84.4485 249.594C84.9143 249.366 85.2353 249.071 85.4113 248.709V248.305C85.1628 248.429 84.8885 248.527 84.5882 248.6C84.288 248.662 83.9256 248.724 83.5012 248.786L82.9421 248.879C82.3623 248.993 82.0725 249.19 82.0725 249.47C82.0725 249.77 82.3416 249.92 82.88 249.92ZM93.7539 252.374H90.4461C90.4979 251.183 90.5237 249.77 90.5237 248.134C90.5237 246.488 90.4979 245.075 90.4461 243.894H99.1736C99.1633 244.257 99.1581 244.982 99.1581 246.069V246.907H93.7539V252.374ZM109.509 243.894C109.458 245.396 109.432 246.752 109.432 247.963C109.432 249.154 109.458 250.51 109.509 252.032H106.326L106.497 246.659L104.121 252.032H99.788C99.8501 250.665 99.8812 249.309 99.8812 247.963C99.8812 246.597 99.8501 245.24 99.788 243.894H102.847L102.692 249.407L105.068 243.894H109.509ZM120.272 243.894C120.22 245.468 120.194 246.881 120.194 248.134C120.194 249.387 120.22 250.8 120.272 252.374H117.213V249.671H115.955C115.241 250.8 114.702 251.701 114.34 252.374H110.69C111.519 251.245 112.218 250.272 112.787 249.454C111.99 249.247 111.426 248.91 111.094 248.445C110.763 247.979 110.597 247.404 110.597 246.721C110.597 245.862 110.908 245.178 111.529 244.671C112.15 244.164 113.248 243.91 114.821 243.91H117.213V243.894H120.272ZM117.213 247.482V246.146H115.815C115.059 246.146 114.547 246.193 114.278 246.286C114.019 246.379 113.89 246.55 113.89 246.798C113.89 247.057 114.024 247.238 114.293 247.342C114.573 247.435 115.08 247.482 115.815 247.482H117.213ZM123.011 249.221C123.477 249.221 123.865 249.402 124.176 249.765C124.497 250.117 124.657 250.608 124.657 251.24C124.657 251.758 124.564 252.301 124.377 252.87C124.201 253.44 123.953 253.901 123.632 254.253H122.312C122.747 253.662 123.021 253.083 123.135 252.513C122.597 252.513 122.167 252.353 121.846 252.032C121.525 251.711 121.365 251.323 121.365 250.867C121.365 250.412 121.525 250.023 121.846 249.702C122.167 249.382 122.555 249.221 123.011 249.221ZM133.612 243.755C135.372 243.755 136.687 244.164 137.557 244.982C138.437 245.789 138.877 246.876 138.877 248.243C138.877 249.609 138.437 250.665 137.557 251.411C136.687 252.156 135.372 252.529 133.612 252.529C132.546 252.529 131.557 252.348 130.646 251.985C129.745 251.613 129.103 250.955 128.72 250.013C129.818 249.537 130.63 249.154 131.158 248.864C131.345 249.257 131.624 249.552 131.997 249.749C132.38 249.946 132.893 250.044 133.534 250.044C134.766 250.044 135.564 249.728 135.926 249.097H131.873V247.14H135.848C135.476 246.54 134.756 246.239 133.69 246.239C133.203 246.239 132.711 246.333 132.214 246.519C131.728 246.705 131.376 246.985 131.158 247.358C130.206 246.871 129.388 246.509 128.705 246.27C129.533 244.593 131.169 243.755 133.612 243.755ZM149.388 246.814C147.835 246.773 146.706 246.747 146.002 246.736V252.374H142.71V246.736C142.016 246.747 140.893 246.773 139.34 246.814V243.894H149.388V246.814ZM155.016 252.529C153.246 252.529 151.942 252.125 151.103 251.318C150.275 250.5 149.861 249.428 149.861 248.103C149.861 246.809 150.275 245.758 151.103 244.95C151.942 244.143 153.246 243.739 155.016 243.739C156.207 243.739 157.201 243.936 157.998 244.329C158.806 244.712 159.401 245.235 159.784 245.898C160.167 246.55 160.359 247.285 160.359 248.103C160.359 249.438 159.913 250.51 159.023 251.318C158.143 252.125 156.807 252.529 155.016 252.529ZM155.079 249.889C155.751 249.889 156.254 249.728 156.585 249.407C156.916 249.086 157.082 248.657 157.082 248.118C157.082 247.611 156.916 247.197 156.585 246.876C156.254 246.545 155.751 246.379 155.079 246.379C154.406 246.379 153.914 246.54 153.603 246.861C153.293 247.182 153.137 247.601 153.137 248.118C153.137 248.657 153.293 249.086 153.603 249.407C153.914 249.728 154.406 249.889 155.079 249.889ZM176.409 243.894L176.999 252.374H173.986L173.8 246.302L172.619 252.374H168.939L167.743 246.379L167.572 252.374H164.56L165.15 243.894H169.746L170.756 249.438L171.657 243.894H176.409ZM188.193 249.796C188.193 250.148 188.235 250.396 188.317 250.541C188.4 250.686 188.566 250.79 188.814 250.852L188.752 252.311C188.421 252.363 188.131 252.399 187.883 252.42C187.644 252.441 187.324 252.451 186.92 252.451C186.029 252.451 185.439 252.254 185.149 251.861C184.86 251.457 184.715 250.945 184.715 250.324V249.935C184.414 250.784 183.974 251.416 183.395 251.83C182.825 252.244 182.095 252.451 181.205 252.451C180.17 252.451 179.388 252.244 178.86 251.83C178.342 251.416 178.084 250.8 178.084 249.982C178.084 249.309 178.306 248.781 178.751 248.398C179.196 248.015 179.885 247.751 180.817 247.606C180.03 247.047 179.243 246.56 178.456 246.146C179.077 245.359 179.787 244.764 180.584 244.36C181.381 243.946 182.349 243.739 183.488 243.739C185.082 243.739 186.262 244.086 187.028 244.78C187.805 245.463 188.193 246.519 188.193 247.948V249.796ZM183.814 246.472C183.286 246.472 182.82 246.56 182.416 246.736C182.012 246.912 181.65 247.176 181.329 247.528C181.95 247.456 182.727 247.42 183.659 247.42C184.042 247.42 184.311 247.373 184.466 247.28C184.621 247.187 184.699 247.068 184.699 246.923C184.699 246.798 184.621 246.695 184.466 246.612C184.311 246.519 184.093 246.472 183.814 246.472ZM182.183 249.92C182.763 249.92 183.286 249.811 183.752 249.594C184.218 249.366 184.539 249.071 184.715 248.709V248.305C184.466 248.429 184.192 248.527 183.892 248.6C183.591 248.662 183.229 248.724 182.804 248.786L182.245 248.879C181.666 248.993 181.376 249.19 181.376 249.47C181.376 249.77 181.645 249.92 182.183 249.92ZM196.536 243.739C197.209 243.739 197.814 243.931 198.353 244.314C198.891 244.697 199.31 245.22 199.611 245.882C199.911 246.534 200.061 247.254 200.061 248.041C200.061 248.817 199.911 249.552 199.611 250.246C199.31 250.929 198.886 251.483 198.337 251.908C197.799 252.322 197.183 252.529 196.489 252.529C195.682 252.529 194.988 252.363 194.408 252.032C193.839 251.69 193.414 251.167 193.135 250.463C193.135 251.054 193.156 252.001 193.197 253.305C193.238 254.568 193.259 255.459 193.259 255.976H189.749C189.812 254.051 189.843 252.037 189.843 249.935C189.843 247.834 189.812 245.82 189.749 243.894H192.731L193.181 245.836C193.471 245.111 193.906 244.583 194.486 244.252C195.066 243.91 195.749 243.739 196.536 243.739ZM194.874 249.734C195.34 249.734 195.728 249.589 196.039 249.299C196.36 248.998 196.52 248.61 196.52 248.134C196.52 247.606 196.375 247.176 196.085 246.845C195.796 246.514 195.402 246.348 194.905 246.348C194.336 246.348 193.906 246.488 193.616 246.767C193.326 247.037 193.181 247.492 193.181 248.134C193.181 248.496 193.275 248.802 193.461 249.05C193.647 249.288 193.87 249.464 194.129 249.578C194.388 249.682 194.636 249.734 194.874 249.734ZM209.089 248.32C209.555 248.693 209.912 249.112 210.161 249.578C210.409 250.044 210.642 250.603 210.86 251.255C211.077 251.825 211.232 252.198 211.326 252.374H207.583C207.552 252.301 207.49 252.073 207.397 251.69C207.314 251.307 207.231 251.002 207.148 250.774C207.065 250.536 206.941 250.329 206.775 250.153C206.517 249.873 206.227 249.692 205.906 249.609C205.585 249.526 205.109 249.485 204.477 249.485V252.374H201.154C201.206 251.193 201.231 249.78 201.231 248.134C201.231 246.488 201.206 245.075 201.154 243.894H204.477V246.938H204.539C205.771 245.706 206.667 244.692 207.226 243.894H211.326L207.692 247.513C208.23 247.741 208.696 248.01 209.089 248.32ZM219.863 248.491H214.801C214.884 248.947 215.085 249.319 215.406 249.609C215.738 249.889 216.204 250.029 216.804 250.029C217.239 250.029 217.648 249.946 218.031 249.78C218.414 249.604 218.719 249.361 218.947 249.05C219.641 249.392 220.562 249.759 221.711 250.153C221.39 250.878 220.805 251.457 219.957 251.892C219.118 252.317 218.021 252.529 216.664 252.529C214.904 252.529 213.6 252.125 212.751 251.318C211.912 250.5 211.493 249.428 211.493 248.103C211.493 246.809 211.912 245.758 212.751 244.95C213.589 244.143 214.894 243.739 216.664 243.739C217.72 243.739 218.637 243.915 219.413 244.267C220.189 244.619 220.785 245.111 221.199 245.742C221.613 246.364 221.82 247.078 221.82 247.886C221.82 248.155 221.81 248.357 221.789 248.491H219.863ZM216.882 246.084C216.364 246.084 215.94 246.182 215.608 246.379C215.277 246.576 215.044 246.845 214.909 247.187H218.574C218.45 246.855 218.248 246.591 217.969 246.395C217.689 246.188 217.327 246.084 216.882 246.084ZM232.327 246.814C230.774 246.773 229.646 246.747 228.942 246.736V252.374H225.65V246.736C224.956 246.747 223.833 246.773 222.28 246.814V243.894H232.327V246.814ZM242.677 243.894C242.625 245.396 242.6 246.752 242.6 247.963C242.6 249.154 242.625 250.51 242.677 252.032H239.494L239.664 246.659L237.288 252.032H232.956C233.018 250.665 233.049 249.309 233.049 247.963C233.049 246.597 233.018 245.24 232.956 243.894H236.015L235.86 249.407L238.236 243.894H242.677ZM253.704 243.894C253.652 245.468 253.626 246.881 253.626 248.134C253.626 249.387 253.652 250.8 253.704 252.374H250.334V249.547H247.29V252.374H243.92C243.972 251.193 243.998 249.78 243.998 248.134C243.998 246.488 243.972 245.075 243.92 243.894H247.29V246.721H250.334V243.894H253.704ZM258.253 252.374H254.946C254.997 251.183 255.023 249.77 255.023 248.134C255.023 246.488 254.997 245.075 254.946 243.894H263.673C263.663 244.257 263.658 244.982 263.658 246.069V246.907H258.253V252.374Z" fill="#F5F5F5"/>
<path d="M0.504 294.942V294.762H1.62C1.788 294.762 1.938 294.738 2.07 294.69C2.214 294.63 2.328 294.516 2.412 294.348C2.496 294.18 2.538 293.928 2.538 293.592V283.368C2.538 283.044 2.496 282.804 2.412 282.648C2.328 282.492 2.214 282.39 2.07 282.342C1.938 282.294 1.788 282.27 1.62 282.27H0.504V282.09H5.076L11.448 291.792V283.368C11.448 283.044 11.406 282.804 11.322 282.648C11.238 282.492 11.124 282.39 10.98 282.342C10.848 282.294 10.698 282.27 10.53 282.27H9.18V282.09H13.878V282.27H12.546C12.378 282.27 12.222 282.3 12.078 282.36C11.946 282.408 11.838 282.516 11.754 282.684C11.67 282.84 11.628 283.092 11.628 283.44V294.942H10.548L2.718 283.026V293.592C2.718 293.928 2.76 294.18 2.844 294.348C2.928 294.516 3.036 294.63 3.168 294.69C3.312 294.738 3.468 294.762 3.636 294.762H5.202V294.942H0.504ZM19.6755 295.122C18.2355 295.122 17.1015 294.708 16.2735 293.88C15.4455 293.04 15.0315 291.774 15.0315 290.082C15.0315 288.39 15.4275 287.13 16.2195 286.302C17.0115 285.474 18.1815 285.06 19.7295 285.06C21.1695 285.06 22.3035 285.474 23.1315 286.302C23.9595 287.13 24.3735 288.39 24.3735 290.082C24.3735 291.774 23.9715 293.04 23.1675 293.88C22.3755 294.708 21.2115 295.122 19.6755 295.122ZM19.7115 294.942C20.1795 294.942 20.5455 294.786 20.8095 294.474C21.0855 294.162 21.2835 293.652 21.4035 292.944C21.5235 292.236 21.5835 291.282 21.5835 290.082C21.5835 288.882 21.5235 287.934 21.4035 287.238C21.2835 286.53 21.0855 286.02 20.8095 285.708C20.5335 285.396 20.1615 285.24 19.6935 285.24C19.2375 285.24 18.8715 285.396 18.5955 285.708C18.3195 286.02 18.1215 286.53 18.0015 287.238C17.8815 287.934 17.8215 288.882 17.8215 290.082C17.8215 291.282 17.8815 292.236 18.0015 292.944C18.1215 293.652 18.3195 294.162 18.5955 294.474C18.8715 294.786 19.2435 294.942 19.7115 294.942ZM29.5986 295.122C28.7946 295.122 28.1526 294.912 27.6726 294.492C27.1926 294.072 26.9526 293.334 26.9526 292.278V285.474H25.6026V285.294C26.1906 285.294 26.7066 285.234 27.1506 285.114C27.5946 284.994 27.9786 284.802 28.3026 284.538C28.6026 284.298 28.8486 283.998 29.0406 283.638C29.2446 283.266 29.4006 282.834 29.5086 282.342H29.6886V285.294H31.9926V285.474H29.6886V293.088C29.6886 293.652 29.7966 294.066 30.0126 294.33C30.2286 294.594 30.5466 294.726 30.9666 294.726C31.1346 294.726 31.3146 294.708 31.5066 294.672C31.7106 294.636 31.9266 294.576 32.1546 294.492V294.672C31.9626 294.756 31.6446 294.852 31.2006 294.96C30.7686 295.068 30.2346 295.122 29.5986 295.122ZM38.0095 295.122C36.5695 295.122 35.4355 294.708 34.6075 293.88C33.7795 293.04 33.3655 291.774 33.3655 290.082C33.3655 288.39 33.7615 287.13 34.5535 286.302C35.3455 285.474 36.5155 285.06 38.0635 285.06C39.5035 285.06 40.6375 285.474 41.4655 286.302C42.2935 287.13 42.7075 288.39 42.7075 290.082C42.7075 291.774 42.3055 293.04 41.5015 293.88C40.7095 294.708 39.5455 295.122 38.0095 295.122ZM38.0455 294.942C38.5135 294.942 38.8795 294.786 39.1435 294.474C39.4195 294.162 39.6175 293.652 39.7375 292.944C39.8575 292.236 39.9175 291.282 39.9175 290.082C39.9175 288.882 39.8575 287.934 39.7375 287.238C39.6175 286.53 39.4195 286.02 39.1435 285.708C38.8675 285.396 38.4955 285.24 38.0275 285.24C37.5715 285.24 37.2055 285.396 36.9295 285.708C36.6535 286.02 36.4555 286.53 36.3355 287.238C36.2155 287.934 36.1555 288.882 36.1555 290.082C36.1555 291.282 36.2155 292.236 36.3355 292.944C36.4555 293.652 36.6535 294.162 36.9295 294.474C37.2055 294.786 37.5775 294.942 38.0455 294.942ZM52.1916 295.122C51.4476 295.122 50.8176 295.05 50.3016 294.906C49.7856 294.75 49.3656 294.546 49.0416 294.294C48.7296 294.042 48.5016 293.766 48.3576 293.466C48.2136 293.154 48.1416 292.848 48.1416 292.548C48.1416 292.152 48.2376 291.84 48.4296 291.612C48.6216 291.372 48.8736 291.198 49.1856 291.09C49.4976 290.982 49.8276 290.928 50.1756 290.928C50.1756 292.032 50.2776 292.872 50.4816 293.448C50.6976 294.024 50.9856 294.42 51.3456 294.636C51.7056 294.84 52.1196 294.942 52.5876 294.942C53.3076 294.942 53.8956 294.75 54.3516 294.366C54.8196 293.982 55.0536 293.406 55.0536 292.638C55.0536 292.074 54.9276 291.612 54.6756 291.252C54.4236 290.88 54.0576 290.556 53.5776 290.28C53.1096 290.004 52.5396 289.728 51.8676 289.452C51.2436 289.2 50.7156 288.936 50.2836 288.66C49.8516 288.384 49.5036 288.09 49.2396 287.778C48.9756 287.454 48.7836 287.112 48.6636 286.752C48.5556 286.38 48.5016 285.972 48.5016 285.528C48.5016 284.796 48.6876 284.16 49.0596 283.62C49.4316 283.08 49.9656 282.66 50.6616 282.36C51.3576 282.06 52.1856 281.91 53.1456 281.91C53.9136 281.91 54.5616 282.006 55.0896 282.198C55.6296 282.378 56.0376 282.624 56.3136 282.936C56.6016 283.248 56.7456 283.596 56.7456 283.98C56.7456 284.412 56.5596 284.772 56.1876 285.06C55.8276 285.348 55.2756 285.492 54.5316 285.492C54.5316 284.328 54.3816 283.476 54.0816 282.936C53.7936 282.396 53.2956 282.126 52.5876 282.126C52.2756 282.126 51.9636 282.186 51.6516 282.306C51.3396 282.426 51.0816 282.636 50.8776 282.936C50.6736 283.236 50.5716 283.662 50.5716 284.214C50.5716 284.67 50.6736 285.078 50.8776 285.438C51.0816 285.786 51.4176 286.116 51.8856 286.428C52.3536 286.728 52.9896 287.04 53.7936 287.364C54.6216 287.7 55.2876 288.048 55.7916 288.408C56.3076 288.768 56.6796 289.176 56.9076 289.632C57.1356 290.076 57.2496 290.592 57.2496 291.18C57.2496 291.948 57.0516 292.632 56.6556 293.232C56.2716 293.82 55.7016 294.282 54.9456 294.618C54.1896 294.954 53.2716 295.122 52.1916 295.122ZM63.7464 295.122C62.1864 295.122 61.0044 294.69 60.2004 293.826C59.3964 292.95 58.9944 291.732 58.9944 290.172C58.9944 288.48 59.3844 287.208 60.1644 286.356C60.9444 285.492 62.0424 285.06 63.4584 285.06C64.7664 285.06 65.7924 285.426 66.5364 286.158C67.2924 286.89 67.6704 287.97 67.6704 289.398V289.83H61.7664C61.7664 291.042 61.8444 292.026 62.0004 292.782C62.1684 293.526 62.4264 294.072 62.7744 294.42C63.1344 294.756 63.5964 294.924 64.1604 294.924C64.5804 294.924 64.9584 294.834 65.2944 294.654C65.6424 294.474 65.9304 294.186 66.1584 293.79C66.3984 293.394 66.5544 292.866 66.6264 292.206C66.8664 292.254 67.0344 292.356 67.1304 292.512C67.2384 292.668 67.2924 292.848 67.2924 293.052C67.2924 293.388 67.1604 293.718 66.8964 294.042C66.6324 294.354 66.2364 294.612 65.7084 294.816C65.1924 295.02 64.5384 295.122 63.7464 295.122ZM64.9344 289.65C64.9344 288.558 64.8924 287.694 64.8084 287.058C64.7244 286.41 64.5744 285.948 64.3584 285.672C64.1424 285.384 63.8424 285.24 63.4584 285.24C63.0744 285.24 62.7564 285.384 62.5044 285.672C62.2524 285.948 62.0664 286.41 61.9464 287.058C61.8384 287.694 61.7784 288.558 61.7664 289.65H64.9344ZM68.7916 294.942V294.762H68.9536C69.1336 294.762 69.3196 294.738 69.5116 294.69C69.7156 294.63 69.8836 294.516 70.0156 294.348C70.1596 294.18 70.2316 293.928 70.2316 293.592V286.572C70.2316 286.248 70.1596 286.008 70.0156 285.852C69.8716 285.696 69.6976 285.594 69.4936 285.546C69.3016 285.498 69.1216 285.474 68.9536 285.474H68.8816V285.294H72.9676V286.842H73.0036C73.1356 286.446 73.3096 286.122 73.5256 285.87C73.7416 285.606 74.0116 285.408 74.3356 285.276C74.6716 285.144 75.0616 285.078 75.5056 285.078C76.1776 285.078 76.6876 285.216 77.0356 285.492C77.3956 285.768 77.5756 286.152 77.5756 286.644C77.5756 287.16 77.3716 287.562 76.9636 287.85C76.5556 288.138 75.9976 288.282 75.2896 288.282C75.2896 287.37 75.1996 286.746 75.0196 286.41C74.8396 286.062 74.5816 285.888 74.2456 285.888C74.0656 285.888 73.8976 285.936 73.7416 286.032C73.5856 286.128 73.4476 286.29 73.3276 286.518C73.2196 286.734 73.1296 287.028 73.0576 287.4C72.9976 287.76 72.9676 288.216 72.9676 288.768V293.592C72.9676 293.928 73.0336 294.18 73.1656 294.348C73.3096 294.516 73.4836 294.63 73.6876 294.69C73.8916 294.738 74.0776 294.762 74.2456 294.762H74.8036V294.942H68.7916ZM78.1595 294.942V294.762H78.3755C78.5555 294.762 78.7415 294.738 78.9335 294.69C79.1375 294.63 79.3055 294.516 79.4375 294.348C79.5815 294.18 79.6535 293.928 79.6535 293.592V286.572C79.6535 286.248 79.5815 286.008 79.4375 285.852C79.2935 285.696 79.1195 285.594 78.9155 285.546C78.7235 285.498 78.5435 285.474 78.3755 285.474H78.1595V285.294H82.3895V293.592C82.3895 293.928 82.4555 294.18 82.5875 294.348C82.7315 294.516 82.9055 294.63 83.1095 294.69C83.3135 294.738 83.4995 294.762 83.6675 294.762H83.8835V294.942H78.1595ZM80.9315 283.674C80.5835 283.674 80.2835 283.572 80.0315 283.368C79.7915 283.152 79.6715 282.822 79.6715 282.378C79.6715 281.922 79.7915 281.592 80.0315 281.388C80.2835 281.184 80.5835 281.082 80.9315 281.082C81.2795 281.082 81.5795 281.184 81.8315 281.388C82.0835 281.592 82.2095 281.922 82.2095 282.378C82.2095 282.822 82.0835 283.152 81.8315 283.368C81.5795 283.572 81.2795 283.674 80.9315 283.674ZM84.5236 294.942V294.762H84.9196C85.0996 294.762 85.2856 294.738 85.4776 294.69C85.6816 294.63 85.8496 294.516 85.9816 294.348C86.1256 294.18 86.1976 293.928 86.1976 293.592V285.474H84.5956V285.294H86.1976V284.628C86.1976 283.512 86.4916 282.648 87.0796 282.036C87.6796 281.412 88.7056 281.1 90.1576 281.1C90.8176 281.1 91.3456 281.16 91.7416 281.28C92.1376 281.4 92.4256 281.562 92.6056 281.766C92.7856 281.958 92.8756 282.186 92.8756 282.45C92.8756 282.702 92.7916 282.912 92.6236 283.08C92.4676 283.248 92.2216 283.374 91.8856 283.458C91.5616 283.542 91.1536 283.584 90.6616 283.584C90.6616 282.708 90.5956 282.108 90.4636 281.784C90.3436 281.448 90.1216 281.28 89.7976 281.28C89.4736 281.28 89.2456 281.436 89.1136 281.748C88.9936 282.06 88.9336 282.63 88.9336 283.458V285.294H91.4176V285.474H88.9336V293.592C88.9336 293.928 88.9996 294.18 89.1316 294.348C89.2756 294.516 89.4496 294.63 89.6536 294.69C89.8576 294.738 90.0436 294.762 90.2116 294.762H91.0576V294.942H84.5236ZM96.0587 294.942V294.762H96.8147C96.9947 294.762 97.1507 294.738 97.2827 294.69C97.4267 294.63 97.5347 294.516 97.6067 294.348C97.6907 294.18 97.7327 293.928 97.7327 293.592V283.368C97.7327 283.044 97.6907 282.804 97.6067 282.648C97.5227 282.492 97.4087 282.39 97.2647 282.342C97.1327 282.294 96.9827 282.27 96.8147 282.27H96.0587V282.09H101.999C103.331 282.09 104.471 282.324 105.419 282.792C106.367 283.248 107.093 283.938 107.597 284.862C108.113 285.774 108.371 286.914 108.371 288.282C108.371 289.59 108.131 290.748 107.651 291.756C107.171 292.752 106.457 293.532 105.509 294.096C104.573 294.66 103.403 294.942 101.999 294.942H96.0587ZM101.585 294.762C102.485 294.762 103.211 294.546 103.763 294.114C104.315 293.682 104.711 292.992 104.951 292.044C105.203 291.084 105.329 289.83 105.329 288.282C105.329 286.842 105.203 285.684 104.951 284.808C104.711 283.92 104.315 283.278 103.763 282.882C103.223 282.474 102.503 282.27 101.603 282.27H100.577V294.762H101.585ZM109.66 294.942V294.762H109.876C110.056 294.762 110.242 294.738 110.434 294.69C110.638 294.63 110.806 294.516 110.938 294.348C111.082 294.18 111.154 293.928 111.154 293.592V286.572C111.154 286.248 111.082 286.008 110.938 285.852C110.794 285.696 110.62 285.594 110.416 285.546C110.224 285.498 110.044 285.474 109.876 285.474H109.66V285.294H113.89V293.592C113.89 293.928 113.956 294.18 114.088 294.348C114.232 294.516 114.406 294.63 114.61 294.69C114.814 294.738 115 294.762 115.168 294.762H115.384V294.942H109.66ZM112.432 283.674C112.084 283.674 111.784 283.572 111.532 283.368C111.292 283.152 111.172 282.822 111.172 282.378C111.172 281.922 111.292 281.592 111.532 281.388C111.784 281.184 112.084 281.082 112.432 281.082C112.78 281.082 113.08 281.184 113.332 281.388C113.584 281.592 113.71 281.922 113.71 282.378C113.71 282.822 113.584 283.152 113.332 283.368C113.08 283.572 112.78 283.674 112.432 283.674ZM119.66 295.122C118.88 295.122 118.232 295.032 117.716 294.852C117.212 294.66 116.834 294.408 116.582 294.096C116.342 293.772 116.222 293.412 116.222 293.016C116.222 292.62 116.318 292.326 116.51 292.134C116.702 291.942 116.93 291.816 117.194 291.756C117.458 291.684 117.692 291.648 117.896 291.648C117.896 292.464 117.962 293.118 118.094 293.61C118.238 294.09 118.454 294.432 118.742 294.636C119.042 294.84 119.42 294.942 119.876 294.942C120.452 294.942 120.914 294.798 121.262 294.51C121.622 294.222 121.802 293.772 121.802 293.16C121.802 292.752 121.718 292.434 121.55 292.206C121.382 291.978 121.118 291.78 120.758 291.612C120.41 291.432 119.96 291.24 119.408 291.036C118.868 290.832 118.37 290.61 117.914 290.37C117.458 290.13 117.092 289.824 116.816 289.452C116.54 289.068 116.402 288.57 116.402 287.958C116.402 286.986 116.75 286.266 117.446 285.798C118.154 285.318 119.102 285.078 120.29 285.078C121.046 285.078 121.652 285.162 122.108 285.33C122.564 285.486 122.894 285.696 123.098 285.96C123.314 286.224 123.422 286.512 123.422 286.824C123.422 287.172 123.278 287.454 122.99 287.67C122.714 287.886 122.246 287.994 121.586 287.994C121.586 286.974 121.454 286.266 121.19 285.87C120.926 285.462 120.53 285.258 120.002 285.258C119.75 285.258 119.498 285.306 119.246 285.402C118.994 285.498 118.784 285.666 118.616 285.906C118.448 286.134 118.364 286.464 118.364 286.896C118.364 287.28 118.448 287.586 118.616 287.814C118.796 288.042 119.078 288.246 119.462 288.426C119.846 288.606 120.362 288.816 121.01 289.056C121.562 289.26 122.042 289.488 122.45 289.74C122.858 289.98 123.176 290.286 123.404 290.658C123.632 291.018 123.746 291.48 123.746 292.044C123.746 292.992 123.398 293.742 122.702 294.294C122.018 294.846 121.004 295.122 119.66 295.122ZM125.011 299.262V299.082H125.227C125.407 299.082 125.593 299.052 125.785 298.992C125.989 298.944 126.157 298.836 126.289 298.668C126.433 298.5 126.505 298.248 126.505 297.912V286.572C126.505 286.248 126.433 286.008 126.289 285.852C126.145 285.696 125.971 285.594 125.767 285.546C125.575 285.498 125.395 285.474 125.227 285.474H125.173V285.294H129.223V287.544H129.259C129.391 286.704 129.691 286.086 130.159 285.69C130.627 285.282 131.221 285.078 131.941 285.078C133.093 285.078 133.981 285.48 134.605 286.284C135.229 287.076 135.541 288.342 135.541 290.082C135.541 291.822 135.229 293.1 134.605 293.916C133.981 294.72 133.063 295.122 131.851 295.122C131.179 295.122 130.609 294.912 130.141 294.492C129.685 294.06 129.391 293.388 129.259 292.476H129.223C129.235 292.848 129.241 293.25 129.241 293.682C129.241 294.102 129.241 294.522 129.241 294.942V297.912C129.241 298.248 129.307 298.5 129.439 298.668C129.583 298.836 129.757 298.944 129.961 298.992C130.165 299.052 130.351 299.082 130.519 299.082H130.915V299.262H125.011ZM131.095 294.672C131.467 294.672 131.773 294.492 132.013 294.132C132.265 293.772 132.451 293.232 132.571 292.512C132.703 291.792 132.769 290.898 132.769 289.83C132.769 288.882 132.703 288.09 132.571 287.454C132.451 286.818 132.271 286.338 132.031 286.014C131.791 285.69 131.491 285.528 131.131 285.528C130.723 285.528 130.375 285.69 130.087 286.014C129.811 286.338 129.601 286.818 129.457 287.454C129.313 288.09 129.241 288.882 129.241 289.83C129.241 290.898 129.307 291.792 129.439 292.512C129.583 293.232 129.793 293.772 130.069 294.132C130.345 294.492 130.687 294.672 131.095 294.672ZM136.378 294.942V294.762H136.594C136.774 294.762 136.96 294.738 137.152 294.69C137.356 294.63 137.524 294.516 137.656 294.348C137.8 294.18 137.872 293.928 137.872 293.592V282.54C137.872 282.216 137.8 281.976 137.656 281.82C137.512 281.664 137.338 281.562 137.134 281.514C136.942 281.466 136.762 281.442 136.594 281.442H136.378V281.262H140.608V293.592C140.608 293.928 140.674 294.18 140.806 294.348C140.95 294.516 141.124 294.63 141.328 294.69C141.532 294.738 141.718 294.762 141.886 294.762H142.102V294.942H136.378ZM146.09 295.122C145.19 295.122 144.482 294.87 143.966 294.366C143.462 293.85 143.21 293.166 143.21 292.314C143.21 291.39 143.546 290.724 144.218 290.316C144.89 289.908 145.898 289.68 147.242 289.632L148.718 289.578V287.292C148.718 286.764 148.682 286.356 148.61 286.068C148.538 285.768 148.424 285.558 148.268 285.438C148.112 285.306 147.896 285.24 147.62 285.24C147.14 285.24 146.816 285.444 146.648 285.852C146.48 286.26 146.396 287.01 146.396 288.102C145.592 288.102 144.986 288.012 144.578 287.832C144.17 287.64 143.966 287.322 143.966 286.878C143.966 286.446 144.134 286.098 144.47 285.834C144.806 285.558 145.256 285.36 145.82 285.24C146.384 285.12 147.002 285.06 147.674 285.06C148.934 285.06 149.876 285.288 150.5 285.744C151.136 286.2 151.454 286.992 151.454 288.12V293.484C151.454 293.808 151.484 294.066 151.544 294.258C151.616 294.438 151.73 294.57 151.886 294.654C152.054 294.726 152.27 294.762 152.534 294.762H152.606V294.942H148.754V293.124H148.718C148.562 293.64 148.352 294.042 148.088 294.33C147.824 294.618 147.518 294.822 147.17 294.942C146.834 295.062 146.474 295.122 146.09 295.122ZM147.008 294.618C147.356 294.618 147.656 294.486 147.908 294.222C148.172 293.958 148.37 293.616 148.502 293.196C148.646 292.776 148.718 292.332 148.718 291.864V289.758L147.908 289.794C147.188 289.83 146.69 290.04 146.414 290.424C146.138 290.796 146 291.408 146 292.26C146 292.836 146.036 293.298 146.108 293.646C146.18 293.994 146.288 294.246 146.432 294.402C146.588 294.546 146.78 294.618 147.008 294.618ZM153.382 299.082C154.198 299.082 154.864 299.01 155.38 298.866C155.908 298.734 156.334 298.524 156.658 298.236C156.982 297.96 157.258 297.6 157.486 297.156C157.714 296.724 157.954 296.208 158.206 295.608L153.832 286.338C153.736 286.122 153.64 285.954 153.544 285.834C153.46 285.702 153.37 285.612 153.274 285.564C153.178 285.504 153.064 285.474 152.932 285.474H152.824V285.294H157.99L158.008 285.474H157.648C157.3 285.474 157.042 285.516 156.874 285.6C156.706 285.684 156.622 285.828 156.622 286.032C156.622 286.14 156.64 286.26 156.676 286.392C156.712 286.524 156.766 286.674 156.838 286.842L158.602 290.892C158.71 291.12 158.8 291.318 158.872 291.486C158.944 291.654 159.004 291.798 159.052 291.918C159.1 292.026 159.142 292.134 159.178 292.242C159.226 292.338 159.274 292.44 159.322 292.548C159.418 292.296 159.508 292.062 159.592 291.846C159.676 291.618 159.748 291.414 159.808 291.234L161.338 287.094C161.41 286.902 161.464 286.734 161.5 286.59C161.536 286.434 161.554 286.296 161.554 286.176C161.554 285.912 161.458 285.732 161.266 285.636C161.086 285.528 160.786 285.474 160.366 285.474H159.61V285.294H163.246V285.474H163.21C162.946 285.474 162.718 285.516 162.526 285.6C162.334 285.684 162.166 285.828 162.022 286.032C161.878 286.236 161.74 286.518 161.608 286.878L158.62 295.014C158.308 295.878 158.008 296.586 157.72 297.138C157.432 297.69 157.108 298.122 156.748 298.434C156.388 298.746 155.944 298.962 155.416 299.082C154.888 299.202 154.228 299.262 153.436 299.262H153.382V299.082Z" fill="#F5F5F5"/>
<path d="M5.274 323.593C4.434 323.593 3.72 323.521 3.132 323.377C2.544 323.221 2.064 323.011 1.692 322.747C1.332 322.483 1.068 322.189 0.9 321.865C0.744 321.529 0.666 321.181 0.666 320.821C0.666 320.353 0.828 319.987 1.152 319.723C1.488 319.447 1.938 319.309 2.502 319.309C2.526 320.293 2.646 321.085 2.862 321.685C3.078 322.285 3.39 322.723 3.798 322.999C4.206 323.275 4.704 323.413 5.292 323.413C6 323.413 6.57 323.203 7.002 322.783C7.434 322.351 7.752 321.667 7.956 320.731C8.16 319.795 8.262 318.571 8.262 317.059H3.672V316.879H8.262C8.262 315.343 8.166 314.113 7.974 313.189C7.794 312.265 7.5 311.599 7.092 311.191C6.696 310.771 6.168 310.561 5.508 310.561C4.692 310.561 4.11 310.837 3.762 311.389C3.414 311.929 3.24 312.841 3.24 314.125C2.568 314.125 2.022 313.993 1.602 313.729C1.182 313.465 0.972 313.087 0.972 312.595C0.972 312.211 1.122 311.851 1.422 311.515C1.734 311.179 2.202 310.909 2.826 310.705C3.462 310.489 4.266 310.381 5.238 310.381C6.618 310.381 7.752 310.657 8.64 311.209C9.54 311.761 10.206 312.517 10.638 313.477C11.07 314.437 11.286 315.529 11.286 316.753C11.286 318.157 11.046 319.369 10.566 320.389C10.098 321.409 9.414 322.201 8.514 322.765C7.626 323.317 6.546 323.593 5.274 323.593ZM14.5195 323.413V323.233H14.7175C14.9575 323.233 15.1735 323.203 15.3655 323.143C15.5575 323.071 15.7135 322.945 15.8335 322.765C15.9535 322.585 16.0135 322.339 16.0135 322.027V313.945H15.3835C14.7955 313.945 14.3275 314.017 13.9795 314.161C13.6435 314.305 13.3855 314.545 13.2055 314.881C13.0375 315.217 12.9235 315.685 12.8635 316.285L12.8095 316.843H12.6295L12.7375 313.765H22.0075L22.1155 316.843H21.9355L21.8815 316.285C21.8215 315.685 21.7015 315.217 21.5215 314.881C21.3535 314.545 21.0955 314.305 20.7475 314.161C20.4115 314.017 19.9555 313.945 19.3795 313.945H18.7495V322.027C18.7495 322.339 18.8035 322.585 18.9115 322.765C19.0315 322.945 19.1815 323.071 19.3615 323.143C19.5415 323.203 19.7395 323.233 19.9555 323.233H20.1535V323.413H14.5195ZM27.9724 323.593C26.5324 323.593 25.3984 323.179 24.5704 322.351C23.7424 321.511 23.3284 320.245 23.3284 318.553C23.3284 316.861 23.7244 315.601 24.5164 314.773C25.3084 313.945 26.4784 313.531 28.0264 313.531C29.4664 313.531 30.6004 313.945 31.4284 314.773C32.2564 315.601 32.6704 316.861 32.6704 318.553C32.6704 320.245 32.2684 321.511 31.4644 322.351C30.6724 323.179 29.5084 323.593 27.9724 323.593ZM28.0084 323.413C28.4764 323.413 28.8424 323.257 29.1064 322.945C29.3824 322.633 29.5804 322.123 29.7004 321.415C29.8204 320.707 29.8804 319.753 29.8804 318.553C29.8804 317.353 29.8204 316.405 29.7004 315.709C29.5804 315.001 29.3824 314.491 29.1064 314.179C28.8304 313.867 28.4584 313.711 27.9904 313.711C27.5344 313.711 27.1684 313.867 26.8924 314.179C26.6164 314.491 26.4184 315.001 26.2984 315.709C26.1784 316.405 26.1184 317.353 26.1184 318.553C26.1184 319.753 26.1784 320.707 26.2984 321.415C26.4184 322.123 26.6164 322.633 26.8924 322.945C27.1684 323.257 27.5404 323.413 28.0084 323.413ZM37.8705 323.413V323.233H38.0865C38.2665 323.233 38.4525 323.209 38.6445 323.161C38.8485 323.101 39.0165 322.987 39.1485 322.819C39.2925 322.651 39.3645 322.399 39.3645 322.063V315.115C39.3645 314.767 39.2925 314.515 39.1485 314.359C39.0165 314.191 38.8485 314.083 38.6445 314.035C38.4525 313.975 38.2665 313.945 38.0865 313.945H37.8705V313.765H43.3245V313.945H43.2885C43.1325 313.945 42.9585 313.975 42.7665 314.035C42.5865 314.083 42.4305 314.191 42.2985 314.359C42.1665 314.515 42.1005 314.767 42.1005 315.115V318.355H45.4665V315.115C45.4665 314.767 45.4005 314.515 45.2685 314.359C45.1365 314.191 44.9805 314.083 44.8005 314.035C44.6205 313.975 44.4465 313.945 44.2785 313.945H44.2425V313.765H49.6965V313.945H49.4805C49.3125 313.945 49.1265 313.975 48.9225 314.035C48.7185 314.083 48.5445 314.191 48.4005 314.359C48.2685 314.515 48.2025 314.767 48.2025 315.115V322.063C48.2025 322.399 48.2685 322.651 48.4005 322.819C48.5445 322.987 48.7185 323.101 48.9225 323.161C49.1265 323.209 49.3125 323.233 49.4805 323.233H49.6965V323.413H44.2425V323.233H44.2785C44.4465 323.233 44.6205 323.209 44.8005 323.161C44.9805 323.101 45.1365 322.987 45.2685 322.819C45.4005 322.651 45.4665 322.399 45.4665 322.063V318.535H42.1005V322.063C42.1005 322.399 42.1665 322.651 42.2985 322.819C42.4305 322.987 42.5865 323.101 42.7665 323.161C42.9585 323.209 43.1325 323.233 43.2885 323.233H43.3245V323.413H37.8705ZM55.6078 323.593C54.0478 323.593 52.8658 323.161 52.0618 322.297C51.2578 321.421 50.8558 320.203 50.8558 318.643C50.8558 316.951 51.2458 315.679 52.0258 314.827C52.8058 313.963 53.9038 313.531 55.3198 313.531C56.6278 313.531 57.6538 313.897 58.3978 314.629C59.1538 315.361 59.5318 316.441 59.5318 317.869V318.301H53.6278C53.6278 319.513 53.7058 320.497 53.8618 321.253C54.0298 321.997 54.2878 322.543 54.6358 322.891C54.9958 323.227 55.4578 323.395 56.0218 323.395C56.4418 323.395 56.8198 323.305 57.1558 323.125C57.5038 322.945 57.7918 322.657 58.0198 322.261C58.2598 321.865 58.4158 321.337 58.4878 320.677C58.7278 320.725 58.8958 320.827 58.9918 320.983C59.0998 321.139 59.1538 321.319 59.1538 321.523C59.1538 321.859 59.0218 322.189 58.7578 322.513C58.4938 322.825 58.0978 323.083 57.5698 323.287C57.0538 323.491 56.3998 323.593 55.6078 323.593ZM56.7958 318.121C56.7958 317.029 56.7538 316.165 56.6698 315.529C56.5858 314.881 56.4358 314.419 56.2198 314.143C56.0038 313.855 55.7038 313.711 55.3198 313.711C54.9358 313.711 54.6178 313.855 54.3658 314.143C54.1138 314.419 53.9278 314.881 53.8078 315.529C53.6998 316.165 53.6398 317.029 53.6278 318.121H56.7958ZM64.6419 323.413V323.233H65.8119C65.9799 323.233 66.1239 323.215 66.2439 323.179C66.3639 323.143 66.4539 323.071 66.5139 322.963C66.5739 322.855 66.6039 322.687 66.6039 322.459V314.737C66.6039 314.509 66.5739 314.341 66.5139 314.233C66.4539 314.113 66.3639 314.035 66.2439 313.999C66.1239 313.963 65.9799 313.945 65.8119 313.945H64.6419V313.765H69.2499L72.0579 321.145L75.2619 313.765H79.5639V313.945H78.6459C78.4779 313.945 78.3339 313.963 78.2139 313.999C78.0939 314.035 78.0039 314.113 77.9439 314.233C77.8839 314.353 77.8539 314.533 77.8539 314.773V322.405C77.8539 322.645 77.8839 322.825 77.9439 322.945C78.0039 323.065 78.0939 323.143 78.2139 323.179C78.3339 323.215 78.4779 323.233 78.6459 323.233H79.5639V323.413H73.7319V323.233H74.3979C74.5899 323.233 74.7459 323.215 74.8659 323.179C74.9979 323.131 75.0939 323.053 75.1539 322.945C75.2259 322.825 75.2619 322.663 75.2619 322.459V314.287H75.2259L71.2839 323.413H70.1679L66.8199 314.539H66.7839V322.405C66.7839 322.645 66.8139 322.825 66.8739 322.945C66.9459 323.065 67.0539 323.143 67.1979 323.179C67.3419 323.215 67.5339 323.233 67.7739 323.233H68.8179V323.413H64.6419ZM83.565 323.593C82.665 323.593 81.957 323.341 81.441 322.837C80.937 322.321 80.685 321.637 80.685 320.785C80.685 319.861 81.021 319.195 81.693 318.787C82.365 318.379 83.373 318.151 84.717 318.103L86.193 318.049V315.763C86.193 315.235 86.157 314.827 86.085 314.539C86.013 314.239 85.899 314.029 85.743 313.909C85.587 313.777 85.371 313.711 85.095 313.711C84.615 313.711 84.291 313.915 84.123 314.323C83.955 314.731 83.871 315.481 83.871 316.573C83.067 316.573 82.461 316.483 82.053 316.303C81.645 316.111 81.441 315.793 81.441 315.349C81.441 314.917 81.609 314.569 81.945 314.305C82.281 314.029 82.731 313.831 83.295 313.711C83.859 313.591 84.477 313.531 85.149 313.531C86.409 313.531 87.351 313.759 87.975 314.215C88.611 314.671 88.929 315.463 88.929 316.591V321.955C88.929 322.279 88.959 322.537 89.019 322.729C89.091 322.909 89.205 323.041 89.361 323.125C89.529 323.197 89.745 323.233 90.009 323.233H90.081V323.413H86.229V321.595H86.193C86.037 322.111 85.827 322.513 85.563 322.801C85.299 323.089 84.993 323.293 84.645 323.413C84.309 323.533 83.949 323.593 83.565 323.593ZM84.483 323.089C84.831 323.089 85.131 322.957 85.383 322.693C85.647 322.429 85.845 322.087 85.977 321.667C86.121 321.247 86.193 320.803 86.193 320.335V318.229L85.383 318.265C84.663 318.301 84.165 318.511 83.889 318.895C83.613 319.267 83.475 319.879 83.475 320.731C83.475 321.307 83.511 321.769 83.583 322.117C83.655 322.465 83.763 322.717 83.907 322.873C84.063 323.017 84.255 323.089 84.483 323.089ZM90.9564 323.413V323.233H91.1724C91.3524 323.233 91.5384 323.209 91.7304 323.161C91.9344 323.101 92.1024 322.987 92.2344 322.819C92.3784 322.651 92.4504 322.399 92.4504 322.063V315.115C92.4504 314.767 92.3784 314.515 92.2344 314.359C92.1024 314.191 91.9344 314.083 91.7304 314.035C91.5384 313.975 91.3524 313.945 91.1724 313.945H90.9564V313.765H99.4344V316.825H99.2544L99.2364 316.465C99.2124 315.805 99.1224 315.295 98.9664 314.935C98.8104 314.563 98.5524 314.305 98.1924 314.161C97.8444 314.017 97.3524 313.945 96.7164 313.945H95.1864V322.063C95.1864 322.399 95.2524 322.651 95.3844 322.819C95.5164 322.987 95.6724 323.101 95.8524 323.161C96.0444 323.209 96.2184 323.233 96.3744 323.233H96.7704V323.413H90.9564ZM100.097 323.413V323.233H100.313C100.493 323.233 100.679 323.209 100.871 323.161C101.075 323.101 101.243 322.987 101.375 322.819C101.519 322.651 101.591 322.399 101.591 322.063V315.115C101.591 314.767 101.519 314.515 101.375 314.359C101.243 314.191 101.075 314.083 100.871 314.035C100.679 313.975 100.493 313.945 100.313 313.945H100.097V313.765H105.551V313.945H105.515C105.359 313.945 105.185 313.975 104.993 314.035C104.813 314.083 104.657 314.191 104.525 314.359C104.393 314.515 104.327 314.767 104.327 315.115V320.263L107.693 316.573V315.115C107.693 314.767 107.627 314.515 107.495 314.359C107.363 314.191 107.207 314.083 107.027 314.035C106.847 313.975 106.673 313.945 106.505 313.945H106.469V313.765H111.923V313.945H111.707C111.539 313.945 111.353 313.975 111.149 314.035C110.945 314.083 110.771 314.191 110.627 314.359C110.495 314.515 110.429 314.767 110.429 315.115V322.063C110.429 322.399 110.495 322.651 110.627 322.819C110.771 322.987 110.945 323.101 111.149 323.161C111.353 323.209 111.539 323.233 111.707 323.233H111.923V323.413H106.469V323.233H106.505C106.673 323.233 106.847 323.209 107.027 323.161C107.207 323.101 107.363 322.987 107.495 322.819C107.627 322.651 107.693 322.399 107.693 322.063V316.825L104.327 320.515V322.063C104.327 322.399 104.393 322.651 104.525 322.819C104.657 322.987 104.813 323.101 104.993 323.161C105.185 323.209 105.359 323.233 105.515 323.233H105.551V323.413H100.097ZM112.236 323.413V323.233H112.272C112.38 323.233 112.5 323.173 112.632 323.053C112.764 322.921 112.92 322.717 113.1 322.441C113.292 322.165 113.52 321.811 113.784 321.379L115.476 318.607C115.116 318.547 114.768 318.421 114.432 318.229C114.096 318.037 113.82 317.785 113.604 317.473C113.4 317.149 113.298 316.765 113.298 316.321C113.298 315.781 113.43 315.325 113.694 314.953C113.958 314.569 114.378 314.275 114.954 314.071C115.53 313.867 116.292 313.765 117.24 313.765H122.964V313.945H122.91C122.562 313.945 122.28 313.987 122.064 314.071C121.86 314.143 121.71 314.263 121.614 314.431C121.518 314.587 121.47 314.791 121.47 315.043V322.027C121.47 322.243 121.506 322.441 121.578 322.621C121.65 322.801 121.776 322.951 121.956 323.071C122.148 323.179 122.406 323.233 122.73 323.233H122.964V323.413H117.186V323.233H117.258C117.522 323.233 117.762 323.209 117.978 323.161C118.206 323.101 118.386 322.987 118.518 322.819C118.662 322.639 118.734 322.375 118.734 322.027V318.715H118.014L116.376 321.757C116.136 322.201 115.83 322.543 115.458 322.783C115.098 323.023 114.654 323.191 114.126 323.287C113.598 323.371 112.968 323.413 112.236 323.413ZM117.726 318.535H118.734V313.945H117.726C117.366 313.945 117.066 314.035 116.826 314.215C116.586 314.395 116.406 314.665 116.286 315.025C116.178 315.385 116.124 315.841 116.124 316.393C116.124 316.873 116.178 317.275 116.286 317.599C116.406 317.911 116.586 318.145 116.826 318.301C117.066 318.457 117.366 318.535 117.726 318.535ZM124.085 326.005C124.433 325.873 124.751 325.729 125.039 325.573C125.339 325.429 125.579 325.243 125.759 325.015C125.939 324.799 126.029 324.517 126.029 324.169C126.029 323.893 125.969 323.683 125.849 323.539C125.741 323.407 125.603 323.299 125.435 323.215C125.279 323.131 125.117 323.047 124.949 322.963C124.781 322.867 124.637 322.741 124.517 322.585C124.409 322.417 124.355 322.183 124.355 321.883C124.355 321.463 124.487 321.157 124.751 320.965C125.015 320.773 125.315 320.677 125.651 320.677C126.179 320.677 126.587 320.857 126.875 321.217C127.163 321.565 127.307 322.045 127.307 322.657C127.307 323.425 127.061 324.127 126.569 324.763C126.089 325.399 125.261 325.873 124.085 326.185V326.005ZM136.731 323.575C135.819 323.575 135.105 323.485 134.589 323.305C134.085 323.113 133.731 322.861 133.527 322.549C133.323 322.237 133.221 321.895 133.221 321.523C133.221 321.079 133.371 320.737 133.671 320.497C133.971 320.257 134.415 320.137 135.003 320.137C135.003 320.941 135.057 321.583 135.165 322.063C135.285 322.531 135.471 322.873 135.723 323.089C135.975 323.293 136.293 323.395 136.677 323.395C137.109 323.395 137.439 323.239 137.667 322.927C137.907 322.615 138.075 322.099 138.171 321.379C138.279 320.659 138.333 319.693 138.333 318.481H134.841V318.301H138.333C138.333 317.461 138.303 316.753 138.243 316.177C138.195 315.589 138.105 315.115 137.973 314.755C137.853 314.395 137.691 314.137 137.487 313.981C137.295 313.813 137.055 313.729 136.767 313.729C136.215 313.729 135.831 313.957 135.615 314.413C135.399 314.857 135.291 315.637 135.291 316.753C134.679 316.753 134.229 316.639 133.941 316.411C133.665 316.171 133.527 315.865 133.527 315.493C133.527 315.169 133.635 314.863 133.851 314.575C134.079 314.275 134.445 314.029 134.949 313.837C135.453 313.645 136.113 313.549 136.929 313.549C137.817 313.549 138.567 313.711 139.179 314.035C139.803 314.359 140.277 314.875 140.601 315.583C140.937 316.279 141.105 317.203 141.105 318.355C141.105 319.651 140.919 320.683 140.547 321.451C140.187 322.207 139.677 322.753 139.017 323.089C138.357 323.413 137.595 323.575 136.731 323.575ZM144.193 323.413V323.233H144.391C144.631 323.233 144.847 323.203 145.039 323.143C145.231 323.071 145.387 322.945 145.507 322.765C145.627 322.585 145.687 322.339 145.687 322.027V313.945H145.057C144.469 313.945 144.001 314.017 143.653 314.161C143.317 314.305 143.059 314.545 142.879 314.881C142.711 315.217 142.597 315.685 142.537 316.285L142.483 316.843H142.303L142.411 313.765H151.681L151.789 316.843H151.609L151.555 316.285C151.495 315.685 151.375 315.217 151.195 314.881C151.027 314.545 150.769 314.305 150.421 314.161C150.085 314.017 149.629 313.945 149.053 313.945H148.423V322.027C148.423 322.339 148.477 322.585 148.585 322.765C148.705 322.945 148.855 323.071 149.035 323.143C149.215 323.203 149.413 323.233 149.629 323.233H149.827V323.413H144.193ZM157.646 323.593C156.206 323.593 155.072 323.179 154.244 322.351C153.416 321.511 153.002 320.245 153.002 318.553C153.002 316.861 153.398 315.601 154.19 314.773C154.982 313.945 156.152 313.531 157.7 313.531C159.14 313.531 160.274 313.945 161.102 314.773C161.93 315.601 162.344 316.861 162.344 318.553C162.344 320.245 161.942 321.511 161.138 322.351C160.346 323.179 159.182 323.593 157.646 323.593ZM157.682 323.413C158.15 323.413 158.516 323.257 158.78 322.945C159.056 322.633 159.254 322.123 159.374 321.415C159.494 320.707 159.554 319.753 159.554 318.553C159.554 317.353 159.494 316.405 159.374 315.709C159.254 315.001 159.056 314.491 158.78 314.179C158.504 313.867 158.132 313.711 157.664 313.711C157.208 313.711 156.842 313.867 156.566 314.179C156.29 314.491 156.092 315.001 155.972 315.709C155.852 316.405 155.792 317.353 155.792 318.553C155.792 319.753 155.852 320.707 155.972 321.415C156.092 322.123 156.29 322.633 156.566 322.945C156.842 323.257 157.214 323.413 157.682 323.413ZM167.544 323.413V323.233H168.714C168.882 323.233 169.026 323.215 169.146 323.179C169.266 323.143 169.356 323.071 169.416 322.963C169.476 322.855 169.506 322.687 169.506 322.459V314.737C169.506 314.509 169.476 314.341 169.416 314.233C169.356 314.113 169.266 314.035 169.146 313.999C169.026 313.963 168.882 313.945 168.714 313.945H167.544V313.765H172.152L174.96 321.145L178.164 313.765H182.466V313.945H181.548C181.38 313.945 181.236 313.963 181.116 313.999C180.996 314.035 180.906 314.113 180.846 314.233C180.786 314.353 180.756 314.533 180.756 314.773V322.405C180.756 322.645 180.786 322.825 180.846 322.945C180.906 323.065 180.996 323.143 181.116 323.179C181.236 323.215 181.38 323.233 181.548 323.233H182.466V323.413H176.634V323.233H177.3C177.492 323.233 177.648 323.215 177.768 323.179C177.9 323.131 177.996 323.053 178.056 322.945C178.128 322.825 178.164 322.663 178.164 322.459V314.287H178.128L174.186 323.413H173.07L169.722 314.539H169.686V322.405C169.686 322.645 169.716 322.825 169.776 322.945C169.848 323.065 169.956 323.143 170.1 323.179C170.244 323.215 170.436 323.233 170.676 323.233H171.72V323.413H167.544ZM186.467 323.593C185.567 323.593 184.859 323.341 184.343 322.837C183.839 322.321 183.587 321.637 183.587 320.785C183.587 319.861 183.923 319.195 184.595 318.787C185.267 318.379 186.275 318.151 187.619 318.103L189.095 318.049V315.763C189.095 315.235 189.059 314.827 188.987 314.539C188.915 314.239 188.801 314.029 188.645 313.909C188.489 313.777 188.273 313.711 187.997 313.711C187.517 313.711 187.193 313.915 187.025 314.323C186.857 314.731 186.773 315.481 186.773 316.573C185.969 316.573 185.363 316.483 184.955 316.303C184.547 316.111 184.343 315.793 184.343 315.349C184.343 314.917 184.511 314.569 184.847 314.305C185.183 314.029 185.633 313.831 186.197 313.711C186.761 313.591 187.379 313.531 188.051 313.531C189.311 313.531 190.253 313.759 190.877 314.215C191.513 314.671 191.831 315.463 191.831 316.591V321.955C191.831 322.279 191.861 322.537 191.921 322.729C191.993 322.909 192.107 323.041 192.263 323.125C192.431 323.197 192.647 323.233 192.911 323.233H192.983V323.413H189.131V321.595H189.095C188.939 322.111 188.729 322.513 188.465 322.801C188.201 323.089 187.895 323.293 187.547 323.413C187.211 323.533 186.851 323.593 186.467 323.593ZM187.385 323.089C187.733 323.089 188.033 322.957 188.285 322.693C188.549 322.429 188.747 322.087 188.879 321.667C189.023 321.247 189.095 320.803 189.095 320.335V318.229L188.285 318.265C187.565 318.301 187.067 318.511 186.791 318.895C186.515 319.267 186.377 319.879 186.377 320.731C186.377 321.307 186.413 321.769 186.485 322.117C186.557 322.465 186.665 322.717 186.809 322.873C186.965 323.017 187.157 323.089 187.385 323.089ZM194.093 327.733V327.553H194.309C194.489 327.553 194.675 327.523 194.867 327.463C195.071 327.415 195.239 327.307 195.371 327.139C195.515 326.971 195.587 326.719 195.587 326.383V315.043C195.587 314.719 195.515 314.479 195.371 314.323C195.227 314.167 195.053 314.065 194.849 314.017C194.657 313.969 194.477 313.945 194.309 313.945H194.255V313.765H198.305V316.015H198.341C198.473 315.175 198.773 314.557 199.241 314.161C199.709 313.753 200.303 313.549 201.023 313.549C202.175 313.549 203.063 313.951 203.687 314.755C204.311 315.547 204.623 316.813 204.623 318.553C204.623 320.293 204.311 321.571 203.687 322.387C203.063 323.191 202.145 323.593 200.933 323.593C200.261 323.593 199.691 323.383 199.223 322.963C198.767 322.531 198.473 321.859 198.341 320.947H198.305C198.317 321.319 198.323 321.721 198.323 322.153C198.323 322.573 198.323 322.993 198.323 323.413V326.383C198.323 326.719 198.389 326.971 198.521 327.139C198.665 327.307 198.839 327.415 199.043 327.463C199.247 327.523 199.433 327.553 199.601 327.553H199.997V327.733H194.093ZM200.177 323.143C200.549 323.143 200.855 322.963 201.095 322.603C201.347 322.243 201.533 321.703 201.653 320.983C201.785 320.263 201.851 319.369 201.851 318.301C201.851 317.353 201.785 316.561 201.653 315.925C201.533 315.289 201.353 314.809 201.113 314.485C200.873 314.161 200.573 313.999 200.213 313.999C199.805 313.999 199.457 314.161 199.169 314.485C198.893 314.809 198.683 315.289 198.539 315.925C198.395 316.561 198.323 317.353 198.323 318.301C198.323 319.369 198.389 320.263 198.521 320.983C198.665 321.703 198.875 322.243 199.151 322.603C199.427 322.963 199.769 323.143 200.177 323.143ZM205.46 323.413V323.233H205.676C205.856 323.233 206.042 323.209 206.234 323.161C206.438 323.101 206.606 322.987 206.738 322.819C206.882 322.651 206.954 322.399 206.954 322.063V315.115C206.954 314.767 206.882 314.515 206.738 314.359C206.606 314.191 206.438 314.083 206.234 314.035C206.042 313.975 205.856 313.945 205.676 313.945H205.46V313.765H210.914V313.945H210.878C210.722 313.945 210.548 313.975 210.356 314.035C210.176 314.083 210.02 314.191 209.888 314.359C209.756 314.515 209.69 314.767 209.69 315.115V318.265C209.954 318.253 210.17 318.229 210.338 318.193C210.518 318.157 210.686 318.085 210.842 317.977C211.01 317.857 211.202 317.689 211.418 317.473C211.562 317.329 211.724 317.113 211.904 316.825C212.096 316.537 212.342 316.159 212.642 315.691C212.966 315.175 213.254 314.773 213.506 314.485C213.758 314.185 214.004 313.975 214.244 313.855C214.496 313.723 214.772 313.657 215.072 313.657C215.576 313.657 215.93 313.771 216.134 313.999C216.338 314.227 216.44 314.479 216.44 314.755C216.44 315.091 216.332 315.361 216.116 315.565C215.912 315.757 215.666 315.865 215.378 315.889C215.33 315.613 215.222 315.391 215.054 315.223C214.898 315.055 214.646 314.971 214.298 314.971C213.974 314.971 213.668 315.073 213.38 315.277C213.104 315.481 212.804 315.835 212.48 316.339C212.288 316.639 212.114 316.897 211.958 317.113C211.802 317.329 211.652 317.515 211.508 317.671C211.364 317.815 211.202 317.959 211.022 318.103C211.526 318.103 211.952 318.151 212.3 318.247C212.648 318.331 212.948 318.481 213.2 318.697C213.452 318.913 213.68 319.201 213.884 319.561L214.874 321.253C215.186 321.769 215.42 322.171 215.576 322.459C215.732 322.747 215.882 322.951 216.026 323.071C216.182 323.179 216.392 323.233 216.656 323.233H216.71V323.413H215.954C215.294 323.413 214.718 323.377 214.226 323.305C213.746 323.221 213.326 323.059 212.966 322.819C212.618 322.579 212.306 322.207 212.03 321.703L211.112 319.993C210.884 319.561 210.698 319.237 210.554 319.021C210.422 318.805 210.296 318.661 210.176 318.589C210.056 318.505 209.894 318.457 209.69 318.445V322.063C209.69 322.399 209.756 322.651 209.888 322.819C210.02 322.987 210.176 323.101 210.356 323.161C210.548 323.209 210.722 323.233 210.878 323.233H210.914V323.413H205.46ZM221.95 323.593C220.39 323.593 219.208 323.161 218.404 322.297C217.6 321.421 217.198 320.203 217.198 318.643C217.198 316.951 217.588 315.679 218.368 314.827C219.148 313.963 220.246 313.531 221.662 313.531C222.97 313.531 223.996 313.897 224.74 314.629C225.496 315.361 225.874 316.441 225.874 317.869V318.301H219.97C219.97 319.513 220.048 320.497 220.204 321.253C220.372 321.997 220.63 322.543 220.978 322.891C221.338 323.227 221.8 323.395 222.364 323.395C222.784 323.395 223.162 323.305 223.498 323.125C223.846 322.945 224.134 322.657 224.362 322.261C224.602 321.865 224.758 321.337 224.83 320.677C225.07 320.725 225.238 320.827 225.334 320.983C225.442 321.139 225.496 321.319 225.496 321.523C225.496 321.859 225.364 322.189 225.1 322.513C224.836 322.825 224.44 323.083 223.912 323.287C223.396 323.491 222.742 323.593 221.95 323.593ZM223.138 318.121C223.138 317.029 223.096 316.165 223.012 315.529C222.928 314.881 222.778 314.419 222.562 314.143C222.346 313.855 222.046 313.711 221.662 313.711C221.278 313.711 220.96 313.855 220.708 314.143C220.456 314.419 220.27 314.881 220.15 315.529C220.042 316.165 219.982 317.029 219.97 318.121H223.138ZM228.885 323.413V323.233H229.083C229.323 323.233 229.539 323.203 229.731 323.143C229.923 323.071 230.079 322.945 230.199 322.765C230.319 322.585 230.379 322.339 230.379 322.027V313.945H229.749C229.161 313.945 228.693 314.017 228.345 314.161C228.009 314.305 227.751 314.545 227.571 314.881C227.403 315.217 227.289 315.685 227.229 316.285L227.175 316.843H226.995L227.103 313.765H236.373L236.481 316.843H236.301L236.247 316.285C236.187 315.685 236.067 315.217 235.887 314.881C235.719 314.545 235.461 314.305 235.113 314.161C234.777 314.017 234.321 313.945 233.745 313.945H233.115V322.027C233.115 322.339 233.169 322.585 233.277 322.765C233.397 322.945 233.547 323.071 233.727 323.143C233.907 323.203 234.105 323.233 234.321 323.233H234.519V323.413H228.885ZM237.154 323.413V323.233H237.37C237.55 323.233 237.736 323.209 237.928 323.161C238.132 323.101 238.3 322.987 238.432 322.819C238.576 322.651 238.648 322.399 238.648 322.063V315.115C238.648 314.767 238.576 314.515 238.432 314.359C238.3 314.191 238.132 314.083 237.928 314.035C237.736 313.975 237.55 313.945 237.37 313.945H237.154V313.765H242.608V313.945H242.572C242.416 313.945 242.242 313.975 242.05 314.035C241.87 314.083 241.714 314.191 241.582 314.359C241.45 314.515 241.384 314.767 241.384 315.115V320.263L244.75 316.573V315.115C244.75 314.767 244.684 314.515 244.552 314.359C244.42 314.191 244.264 314.083 244.084 314.035C243.904 313.975 243.73 313.945 243.562 313.945H243.526V313.765H248.98V313.945H248.764C248.596 313.945 248.41 313.975 248.206 314.035C248.002 314.083 247.828 314.191 247.684 314.359C247.552 314.515 247.486 314.767 247.486 315.115V322.063C247.486 322.399 247.552 322.651 247.684 322.819C247.828 322.987 248.002 323.101 248.206 323.161C248.41 323.209 248.596 323.233 248.764 323.233H248.98V323.413H243.526V323.233H243.562C243.73 323.233 243.904 323.209 244.084 323.161C244.264 323.101 244.42 322.987 244.552 322.819C244.684 322.651 244.75 322.399 244.75 322.063V316.825L241.384 320.515V322.063C241.384 322.399 241.45 322.651 241.582 322.819C241.714 322.987 241.87 323.101 242.05 323.161C242.242 323.209 242.416 323.233 242.572 323.233H242.608V323.413H237.154ZM249.599 323.413V323.233H249.815C249.995 323.233 250.181 323.209 250.373 323.161C250.577 323.101 250.745 322.987 250.877 322.819C251.021 322.651 251.093 322.399 251.093 322.063V315.115C251.093 314.767 251.021 314.515 250.877 314.359C250.745 314.191 250.577 314.083 250.373 314.035C250.181 313.975 249.995 313.945 249.815 313.945H249.599V313.765H255.053V313.945H255.017C254.861 313.945 254.687 313.975 254.495 314.035C254.315 314.083 254.159 314.191 254.027 314.359C253.895 314.515 253.829 314.767 253.829 315.115V318.355H257.195V315.115C257.195 314.767 257.129 314.515 256.997 314.359C256.865 314.191 256.709 314.083 256.529 314.035C256.349 313.975 256.175 313.945 256.007 313.945H255.971V313.765H261.425V313.945H261.209C261.041 313.945 260.855 313.975 260.651 314.035C260.447 314.083 260.273 314.191 260.129 314.359C259.997 314.515 259.931 314.767 259.931 315.115V322.063C259.931 322.399 259.997 322.651 260.129 322.819C260.273 322.987 260.447 323.101 260.651 323.161C260.855 323.209 261.041 323.233 261.209 323.233H261.425V323.413H255.971V323.233H256.007C256.175 323.233 256.349 323.209 256.529 323.161C256.709 323.101 256.865 322.987 256.997 322.819C257.129 322.651 257.195 322.399 257.195 322.063V318.535H253.829V322.063C253.829 322.399 253.895 322.651 254.027 322.819C254.159 322.987 254.315 323.101 254.495 323.161C254.687 323.209 254.861 323.233 255.017 323.233H255.053V323.413H249.599ZM262.044 323.413V323.233H262.26C262.44 323.233 262.626 323.209 262.818 323.161C263.022 323.101 263.19 322.987 263.322 322.819C263.466 322.651 263.538 322.399 263.538 322.063V315.115C263.538 314.767 263.466 314.515 263.322 314.359C263.19 314.191 263.022 314.083 262.818 314.035C262.626 313.975 262.44 313.945 262.26 313.945H262.044V313.765H270.522V316.825H270.342L270.324 316.465C270.3 315.805 270.21 315.295 270.054 314.935C269.898 314.563 269.64 314.305 269.28 314.161C268.932 314.017 268.44 313.945 267.804 313.945H266.274V322.063C266.274 322.399 266.34 322.651 266.472 322.819C266.604 322.987 266.76 323.101 266.94 323.161C267.132 323.209 267.306 323.233 267.462 323.233H267.858V323.413H262.044Z" fill="#F5F5F5"/>
<path d="M9.19341 358.775L9.72141 359.768C9.35906 360.141 8.86729 360.436 8.24612 360.654C7.62494 360.871 6.97271 360.98 6.28941 360.98C4.664 360.98 3.33365 360.472 2.29835 359.458C1.28376 358.423 0.776471 357.066 0.776471 355.389C0.776471 353.774 1.26306 352.444 2.23624 351.398C3.20941 350.332 4.52941 349.799 6.19624 349.799C7.57318 349.799 8.67577 350.151 9.504 350.855L8.89835 351.848C8.17365 351.31 7.27812 351.041 6.21177 351.041C5.03153 351.041 4.06353 351.445 3.30777 352.252C2.552 353.049 2.17412 354.095 2.17412 355.389C2.17412 356.683 2.56235 357.734 3.33882 358.542C4.136 359.339 5.16094 359.737 6.41365 359.737C7.46965 359.737 8.39624 359.416 9.19341 358.775ZM12.8933 360.824H11.6509V353.836H12.8933V360.824ZM11.4956 351.212C11.4956 350.994 11.5733 350.818 11.7286 350.684C11.8839 350.539 12.0754 350.466 12.3032 350.466C12.5206 350.466 12.7018 350.539 12.8467 350.684C12.9916 350.818 13.0641 350.994 13.0641 351.212C13.0641 351.45 12.9916 351.647 12.8467 351.802C12.7018 351.947 12.5206 352.019 12.3032 352.019C12.0754 352.019 11.8839 351.947 11.7286 351.802C11.5733 351.647 11.4956 351.45 11.4956 351.212ZM16.707 360.824H15.4646V353.836H16.707V354.659C17.1211 354.028 17.706 353.712 18.4618 353.712C18.9484 353.712 19.3107 353.8 19.5489 353.976L19.114 355.141C18.8138 354.965 18.498 354.877 18.1667 354.877C17.5352 354.877 17.0486 355.208 16.707 355.871V360.824ZM26.1154 358.914L26.7055 359.815C26.105 360.592 25.2095 360.98 24.0189 360.98C22.9008 360.98 21.9949 360.648 21.3013 359.986C20.618 359.323 20.2763 358.438 20.2763 357.33C20.2763 356.305 20.6128 355.441 21.2857 354.737C21.9587 354.033 22.8024 353.681 23.817 353.681C25.0387 353.681 25.9549 353.986 26.5657 354.597L25.9911 355.576C25.4528 355.089 24.785 354.846 23.9878 354.846C23.3356 354.846 22.7714 355.084 22.2951 355.56C21.8293 356.026 21.5963 356.616 21.5963 357.33C21.5963 358.086 21.8344 358.687 22.3107 359.132C22.7973 359.587 23.3977 359.815 24.1121 359.815C24.9196 359.815 25.5874 359.515 26.1154 358.914ZM33.4587 359.085L33.847 360.064C33.174 360.674 32.2992 360.98 31.2225 360.98C30.0837 360.98 29.1778 360.648 28.5048 359.986C27.8215 359.323 27.4799 358.438 27.4799 357.33C27.4799 356.285 27.8008 355.415 28.4427 354.721C29.0743 354.028 29.9543 353.681 31.0827 353.681C32.0145 353.681 32.7858 353.981 33.3966 354.582C34.0178 355.172 34.3284 355.938 34.3284 356.88C34.3284 357.18 34.3025 357.46 34.2507 357.719H28.8775C28.9293 358.371 29.1726 358.883 29.6074 359.256C30.0526 359.629 30.622 359.815 31.3157 359.815C32.2267 359.815 32.9411 359.572 33.4587 359.085ZM31.0206 354.846C30.4098 354.846 29.9025 355.016 29.4987 355.358C29.1053 355.7 28.8724 356.15 28.7999 356.709H33.0394C33.0084 356.129 32.8117 355.674 32.4493 355.343C32.0973 355.011 31.6211 354.846 31.0206 354.846ZM42.8157 360.824H36.5263V349.954H42.6604V351.196H37.8463V354.706H42.1945V355.948H37.8463V359.582H42.8157V360.824ZM49.7138 353.836H51.158L48.6578 357.206L51.3133 360.824H49.7914L47.7415 357.998L45.6606 360.824H44.2164L46.8564 357.268L44.3717 353.836H45.8935L47.7881 356.476L49.7138 353.836ZM52.6618 358.169V351.895H53.9042V353.836H56.4665V355.001H53.9042V358.045C53.9042 359.204 54.3183 359.784 55.1465 359.784C55.5503 359.784 55.9178 359.655 56.2491 359.396L56.6373 360.359C56.1508 360.752 55.5555 360.949 54.8515 360.949C54.0957 360.949 53.5418 360.721 53.1898 360.265C52.8378 359.81 52.6618 359.111 52.6618 358.169ZM59.5342 360.824H58.2918V353.836H59.5342V354.659C59.9483 354.028 60.5332 353.712 61.289 353.712C61.7756 353.712 62.1379 353.8 62.3761 353.976L61.9412 355.141C61.641 354.965 61.3252 354.877 60.9939 354.877C60.3624 354.877 59.8758 355.208 59.5342 355.871V360.824ZM63.9421 355.312L63.616 354.318C64.3096 353.893 65.0861 353.681 65.9454 353.681C66.8875 353.681 67.5708 353.914 67.9953 354.38C68.4198 354.846 68.632 355.565 68.632 356.538V360.824H67.4518V359.924C66.9031 360.597 66.1576 360.933 65.2155 360.933C64.5736 360.933 64.056 360.742 63.6626 360.359C63.2692 359.965 63.0725 359.437 63.0725 358.775C63.0725 358.091 63.3158 357.553 63.8023 357.16C64.2889 356.756 64.9256 356.554 65.7125 356.554C66.4475 356.554 67.0273 356.704 67.4518 357.004C67.4518 356.217 67.3431 355.653 67.1256 355.312C66.9082 354.97 66.4889 354.799 65.8678 354.799C65.2362 354.799 64.5943 354.97 63.9421 355.312ZM65.6503 359.815C66.344 359.815 66.9445 359.515 67.4518 358.914V358.029C67.0169 357.719 66.4941 357.563 65.8833 357.563C65.4588 357.563 65.1016 357.667 64.8118 357.874C64.5322 358.071 64.3925 358.35 64.3925 358.712C64.3925 359.054 64.5012 359.323 64.7186 359.52C64.9463 359.717 65.2569 359.815 65.6503 359.815ZM77.9024 360.824H71.2248V349.954H72.5448V359.582H77.9024V360.824ZM80.607 360.824H79.3646V353.836H80.607V360.824ZM79.2093 351.212C79.2093 350.994 79.287 350.818 79.4423 350.684C79.5976 350.539 79.7891 350.466 80.0169 350.466C80.2343 350.466 80.4155 350.539 80.5604 350.684C80.7053 350.818 80.7778 350.994 80.7778 351.212C80.7778 351.45 80.7053 351.647 80.5604 351.802C80.4155 351.947 80.2343 352.019 80.0169 352.019C79.7891 352.019 79.5976 351.947 79.4423 351.802C79.287 351.647 79.2093 351.45 79.2093 351.212ZM82.2155 361.834C82.2155 361.296 82.4122 360.845 82.8056 360.483C83.199 360.12 83.7477 359.862 84.4517 359.706C84.3379 359.561 84.2809 359.37 84.2809 359.132C84.2809 358.894 84.343 358.697 84.4673 358.542C83.9703 358.345 83.5821 358.045 83.3026 357.641C83.0334 357.237 82.8988 356.771 82.8988 356.243C82.8988 355.519 83.1576 354.913 83.6753 354.426C84.2033 353.929 84.8969 353.681 85.7562 353.681C86.4188 353.681 87.0089 353.852 87.5266 354.193L89.5764 353.696L89.6075 354.706L88.2875 355.032C88.5049 355.394 88.6136 355.798 88.6136 356.243C88.6136 356.958 88.3496 357.558 87.8216 358.045C87.304 358.521 86.6155 358.759 85.7562 358.759C85.5181 358.759 85.3628 358.754 85.2903 358.744C85.2386 358.868 85.2127 358.997 85.2127 359.132C85.2127 359.318 85.2593 359.473 85.3524 359.598C85.3731 359.598 85.4353 359.598 85.5388 359.598C85.6527 359.587 85.7303 359.582 85.7717 359.582C86.8588 359.582 87.7233 359.779 88.3651 360.172C89.007 360.555 89.328 361.109 89.328 361.834C89.328 362.538 89.007 363.081 88.3651 363.464C87.7233 363.858 86.8588 364.055 85.7717 364.055C84.6743 364.055 83.8047 363.863 83.1628 363.48C82.5313 363.107 82.2155 362.559 82.2155 361.834ZM88.1633 361.834C88.1633 361.451 87.951 361.145 87.5266 360.918C87.1021 360.7 86.5171 360.592 85.7717 360.592C85.0263 360.592 84.4414 360.7 84.0169 360.918C83.5924 361.145 83.3802 361.451 83.3802 361.834C83.3802 362.217 83.5924 362.512 84.0169 362.719C84.4414 362.936 85.0263 363.045 85.7717 363.045C86.5171 363.045 87.1021 362.942 87.5266 362.735C87.951 362.528 88.1633 362.227 88.1633 361.834ZM84.0635 356.243C84.0635 356.678 84.2188 357.04 84.5294 357.33C84.8503 357.61 85.2593 357.75 85.7562 357.75C86.2531 357.75 86.6569 357.61 86.9675 357.33C87.2884 357.051 87.4489 356.688 87.4489 356.243C87.4489 355.798 87.2936 355.431 86.983 355.141C86.6621 354.84 86.2531 354.69 85.7562 354.69C85.2593 354.69 84.8503 354.84 84.5294 355.141C84.2188 355.431 84.0635 355.798 84.0635 356.243ZM92.0944 360.824H90.852V349.954H92.0944V354.644C92.7156 354.023 93.4765 353.712 94.3772 353.712C96.3132 353.712 97.2812 354.747 97.2812 356.818V360.824H96.0389V356.989C96.0389 355.581 95.3866 354.877 94.0822 354.877C93.7198 354.877 93.3523 354.96 92.9796 355.125C92.6172 355.291 92.3222 355.503 92.0944 355.762V360.824ZM99.2197 358.169V351.895H100.462V353.836H103.024V355.001H100.462V358.045C100.462 359.204 100.876 359.784 101.704 359.784C102.108 359.784 102.476 359.655 102.807 359.396L103.195 360.359C102.709 360.752 102.113 360.949 101.409 360.949C100.654 360.949 100.1 360.721 99.7477 360.265C99.3957 359.81 99.2197 359.111 99.2197 358.169ZM107.732 364.055L106.754 363.697L111.925 349.799L112.888 350.156L107.732 364.055ZM118.86 356.476V360.824H117.54V349.954C118.037 349.954 118.56 349.949 119.109 349.938C119.657 349.928 120.108 349.923 120.46 349.923C123.037 349.923 124.326 351 124.326 353.153C124.326 353.96 124.093 354.633 123.628 355.172C123.193 355.7 122.639 356.052 121.966 356.228L125.584 360.824H123.969L120.63 356.476H118.86ZM120.382 351.165C120.278 351.165 119.771 351.176 118.86 351.196V355.234H120.46C121.133 355.234 121.707 355.048 122.183 354.675C122.68 354.281 122.929 353.779 122.929 353.168C122.929 351.833 122.08 351.165 120.382 351.165ZM131.852 359.085L132.24 360.064C131.567 360.674 130.693 360.98 129.616 360.98C128.477 360.98 127.571 360.648 126.898 359.986C126.215 359.323 125.873 358.438 125.873 357.33C125.873 356.285 126.194 355.415 126.836 354.721C127.468 354.028 128.348 353.681 129.476 353.681C130.408 353.681 131.179 353.981 131.79 354.582C132.411 355.172 132.722 355.938 132.722 356.88C132.722 357.18 132.696 357.46 132.644 357.719H127.271C127.323 358.371 127.566 358.883 128.001 359.256C128.446 359.629 129.015 359.815 129.709 359.815C130.62 359.815 131.334 359.572 131.852 359.085ZM129.414 354.846C128.803 354.846 128.296 355.016 127.892 355.358C127.499 355.7 127.266 356.15 127.193 356.709H131.433C131.402 356.129 131.205 355.674 130.843 355.343C130.491 355.011 130.014 354.846 129.414 354.846ZM133.353 361.834C133.353 361.296 133.55 360.845 133.943 360.483C134.337 360.12 134.886 359.862 135.59 359.706C135.476 359.561 135.419 359.37 135.419 359.132C135.419 358.894 135.481 358.697 135.605 358.542C135.108 358.345 134.72 358.045 134.44 357.641C134.171 357.237 134.037 356.771 134.037 356.243C134.037 355.519 134.295 354.913 134.813 354.426C135.341 353.929 136.035 353.681 136.894 353.681C137.557 353.681 138.147 353.852 138.664 354.193L140.714 353.696L140.745 354.706L139.425 355.032C139.643 355.394 139.751 355.798 139.751 356.243C139.751 356.958 139.487 357.558 138.959 358.045C138.442 358.521 137.753 358.759 136.894 358.759C136.656 358.759 136.501 358.754 136.428 358.744C136.376 358.868 136.351 358.997 136.351 359.132C136.351 359.318 136.397 359.473 136.49 359.598C136.511 359.598 136.573 359.598 136.677 359.598C136.791 359.587 136.868 359.582 136.91 359.582C137.997 359.582 138.861 359.779 139.503 360.172C140.145 360.555 140.466 361.109 140.466 361.834C140.466 362.538 140.145 363.081 139.503 363.464C138.861 363.858 137.997 364.055 136.91 364.055C135.812 364.055 134.943 363.863 134.301 363.48C133.669 363.107 133.353 362.559 133.353 361.834ZM139.301 361.834C139.301 361.451 139.089 361.145 138.664 360.918C138.24 360.7 137.655 360.592 136.91 360.592C136.164 360.592 135.579 360.7 135.155 360.918C134.73 361.145 134.518 361.451 134.518 361.834C134.518 362.217 134.73 362.512 135.155 362.719C135.579 362.936 136.164 363.045 136.91 363.045C137.655 363.045 138.24 362.942 138.664 362.735C139.089 362.528 139.301 362.227 139.301 361.834ZM135.201 356.243C135.201 356.678 135.357 357.04 135.667 357.33C135.988 357.61 136.397 357.75 136.894 357.75C137.391 357.75 137.795 357.61 138.105 357.33C138.426 357.051 138.587 356.688 138.587 356.243C138.587 355.798 138.431 355.431 138.121 355.141C137.8 354.84 137.391 354.69 136.894 354.69C136.397 354.69 135.988 354.84 135.667 355.141C135.357 355.431 135.201 355.798 135.201 356.243ZM146.882 353.836H148.124V360.824H146.882V359.831C146.229 360.597 145.406 360.98 144.413 360.98C143.595 360.98 142.958 360.731 142.502 360.234C142.057 359.727 141.835 358.982 141.835 357.998V353.836H143.077V357.719C143.077 359.116 143.677 359.815 144.878 359.815C145.251 359.815 145.619 359.722 145.981 359.536C146.354 359.339 146.654 359.085 146.882 358.775V353.836ZM150.376 358.961V349.954H151.619V358.402C151.619 359.323 151.893 359.784 152.442 359.784C152.711 359.784 153.006 359.68 153.327 359.473L153.607 360.421C153.161 360.773 152.613 360.949 151.96 360.949C150.904 360.949 150.376 360.286 150.376 358.961ZM155.253 355.312L154.927 354.318C155.621 353.893 156.397 353.681 157.257 353.681C158.199 353.681 158.882 353.914 159.306 354.38C159.731 354.846 159.943 355.565 159.943 356.538V360.824H158.763V359.924C158.214 360.597 157.469 360.933 156.527 360.933C155.885 360.933 155.367 360.742 154.974 360.359C154.58 359.965 154.384 359.437 154.384 358.775C154.384 358.091 154.627 357.553 155.113 357.16C155.6 356.756 156.237 356.554 157.024 356.554C157.759 356.554 158.338 356.704 158.763 357.004C158.763 356.217 158.654 355.653 158.437 355.312C158.219 354.97 157.8 354.799 157.179 354.799C156.547 354.799 155.905 354.97 155.253 355.312ZM156.961 359.815C157.655 359.815 158.256 359.515 158.763 358.914V358.029C158.328 357.719 157.805 357.563 157.194 357.563C156.77 357.563 156.413 357.667 156.123 357.874C155.843 358.071 155.704 358.35 155.704 358.712C155.704 359.054 155.812 359.323 156.03 359.52C156.257 359.717 156.568 359.815 156.961 359.815ZM163.266 360.824H162.023V353.836H163.266V354.659C163.68 354.028 164.265 353.712 165.021 353.712C165.507 353.712 165.87 353.8 166.108 353.976L165.673 355.141C165.373 354.965 165.057 354.877 164.726 354.877C164.094 354.877 163.607 355.208 163.266 355.871V360.824ZM170.183 364.055L169.205 363.697L174.376 349.799L175.339 350.156L170.183 364.055ZM186.281 360.824H179.991V349.954H186.125V351.196H181.311V354.706H185.66V355.948H181.311V359.582H186.281V360.824ZM193.179 353.836H194.623L192.123 357.206L194.778 360.824H193.256L191.207 357.998L189.126 360.824H187.681L190.321 357.268L187.837 353.836H189.359L191.253 356.476L193.179 353.836ZM196.127 358.169V351.895H197.369V353.836H199.932V355.001H197.369V358.045C197.369 359.204 197.783 359.784 198.612 359.784C199.015 359.784 199.383 359.655 199.714 359.396L200.102 360.359C199.616 360.752 199.021 360.949 198.317 360.949C197.561 360.949 197.007 360.721 196.655 360.265C196.303 359.81 196.127 359.111 196.127 358.169ZM202.999 360.824H201.757V353.836H202.999V354.659C203.413 354.028 203.998 353.712 204.754 353.712C205.241 353.712 205.603 353.8 205.841 353.976L205.406 355.141C205.106 354.965 204.79 354.877 204.459 354.877C203.827 354.877 203.341 355.208 202.999 355.871V360.824ZM207.407 355.312L207.081 354.318C207.775 353.893 208.551 353.681 209.41 353.681C210.353 353.681 211.036 353.914 211.46 354.38C211.885 354.846 212.097 355.565 212.097 356.538V360.824H210.917V359.924C210.368 360.597 209.623 360.933 208.681 360.933C208.039 360.933 207.521 360.742 207.128 360.359C206.734 359.965 206.538 359.437 206.538 358.775C206.538 358.091 206.781 357.553 207.267 357.16C207.754 356.756 208.391 356.554 209.178 356.554C209.913 356.554 210.492 356.704 210.917 357.004C210.917 356.217 210.808 355.653 210.591 355.312C210.373 354.97 209.954 354.799 209.333 354.799C208.701 354.799 208.059 354.97 207.407 355.312ZM209.115 359.815C209.809 359.815 210.41 359.515 210.917 358.914V358.029C210.482 357.719 209.959 357.563 209.348 357.563C208.924 357.563 208.567 357.667 208.277 357.874C207.997 358.071 207.858 358.35 207.858 358.712C207.858 359.054 207.966 359.323 208.184 359.52C208.411 359.717 208.722 359.815 209.115 359.815ZM214.69 360.809V349.969C216.129 349.928 217.123 349.907 217.672 349.907C218.852 349.907 219.727 350.145 220.296 350.622C220.876 351.088 221.166 351.745 221.166 352.594C221.166 353.225 221 353.753 220.669 354.178C220.337 354.602 219.882 354.913 219.302 355.11V355.141C220.006 355.255 220.555 355.534 220.948 355.979C221.352 356.424 221.554 357.004 221.554 357.719C221.554 358.754 221.202 359.541 220.498 360.079C219.794 360.607 218.831 360.871 217.609 360.871C216.419 360.871 215.446 360.85 214.69 360.809ZM217.765 355.871H216.01V359.567C216.434 359.608 216.993 359.629 217.687 359.629C218.505 359.629 219.131 359.463 219.566 359.132C220.011 358.79 220.234 358.293 220.234 357.641C220.234 357.072 220.016 356.637 219.582 356.336C219.157 356.026 218.552 355.871 217.765 355.871ZM217.64 351.15C217.33 351.15 216.786 351.165 216.01 351.196V354.706H217.749C218.36 354.706 218.862 354.545 219.256 354.224C219.649 353.893 219.846 353.448 219.846 352.889C219.846 351.729 219.111 351.15 217.64 351.15ZM224.321 359.955C223.638 359.251 223.296 358.376 223.296 357.33C223.296 356.274 223.638 355.405 224.321 354.721C225.015 354.028 225.915 353.681 227.023 353.681C228.131 353.681 229.026 354.028 229.71 354.721C230.403 355.405 230.75 356.274 230.75 357.33C230.75 358.386 230.403 359.261 229.71 359.955C229.026 360.638 228.131 360.98 227.023 360.98C225.926 360.98 225.025 360.638 224.321 359.955ZM225.299 355.544C224.844 356 224.616 356.595 224.616 357.33C224.616 358.065 224.839 358.661 225.284 359.116C225.739 359.582 226.319 359.815 227.023 359.815C227.727 359.815 228.302 359.587 228.747 359.132C229.202 358.666 229.43 358.065 229.43 357.33C229.43 356.616 229.202 356.021 228.747 355.544C228.302 355.079 227.727 354.846 227.023 354.846C226.319 354.846 225.745 355.079 225.299 355.544ZM232.543 358.961V349.954H233.785V358.402C233.785 359.323 234.059 359.784 234.608 359.784C234.877 359.784 235.172 359.68 235.493 359.473L235.773 360.421C235.328 360.773 234.779 360.949 234.127 360.949C233.071 360.949 232.543 360.286 232.543 358.961ZM243.414 360.824H242.172V359.939C241.55 360.612 240.81 360.949 239.951 360.949C238.926 360.949 238.108 360.623 237.497 359.97C236.886 359.308 236.581 358.443 236.581 357.377C236.581 356.29 236.938 355.405 237.653 354.721C238.377 354.028 239.293 353.681 240.401 353.681C241.105 353.681 241.695 353.847 242.172 354.178V349.954H243.414V360.824ZM240.184 359.784C240.95 359.784 241.613 359.473 242.172 358.852V355.389C241.592 355.027 241.017 354.846 240.448 354.846C239.733 354.846 239.128 355.079 238.631 355.544C238.144 356 237.901 356.6 237.901 357.346C237.901 358.091 238.108 358.687 238.522 359.132C238.947 359.567 239.501 359.784 240.184 359.784Z" fill="#F5F5F5"/>
<path d="M8.38588 384.529H2.99718V383.287H8.37035C8.23577 382.169 7.77506 381.289 6.98824 380.647C6.20141 379.994 5.19718 379.668 3.97553 379.668C2.89882 379.668 1.98259 379.963 1.22682 380.554L0.714353 379.56C1.56329 378.804 2.75388 378.426 4.28612 378.426C5.90118 378.426 7.216 378.933 8.23059 379.948C9.23482 380.952 9.73694 382.298 9.73694 383.986C9.73694 385.652 9.22965 387.009 8.21506 388.054C7.21082 389.09 5.85977 389.607 4.16188 389.607C2.69176 389.607 1.48565 389.229 0.543529 388.474L1.11812 387.371C1.99812 388.034 3.00235 388.365 4.13082 388.365C5.29035 388.365 6.25835 388.023 7.03482 387.34C7.832 386.636 8.28235 385.699 8.38588 384.529ZM13.3049 383.706H10.7426V382.464H17.1097V383.706H14.5473V389.452H13.3049V383.706ZM18.799 388.582C18.1157 387.878 17.774 387.003 17.774 385.958C17.774 384.902 18.1157 384.032 18.799 383.349C19.4926 382.655 20.3933 382.308 21.5011 382.308C22.6088 382.308 23.5044 382.655 24.1877 383.349C24.8813 384.032 25.2281 384.902 25.2281 385.958C25.2281 387.014 24.8813 387.889 24.1877 388.582C23.5044 389.266 22.6088 389.607 21.5011 389.607C20.4037 389.607 19.503 389.266 18.799 388.582ZM19.7773 384.172C19.3218 384.627 19.094 385.223 19.094 385.958C19.094 386.693 19.3166 387.288 19.7618 387.744C20.2173 388.21 20.7971 388.442 21.5011 388.442C22.2051 388.442 22.7797 388.215 23.2248 387.759C23.6804 387.293 23.9081 386.693 23.9081 385.958C23.9081 385.243 23.6804 384.648 23.2248 384.172C22.7797 383.706 22.2051 383.473 21.5011 383.473C20.7971 383.473 20.2225 383.706 19.7773 384.172ZM36.8758 389.452H35.6334V386.501H31.7511V389.452H30.5087V382.464H31.7511V385.337H35.6334V382.464H36.8758V389.452ZM44.6357 387.713L45.0239 388.691C44.351 389.302 43.4761 389.607 42.3994 389.607C41.2606 389.607 40.3547 389.276 39.6818 388.613C38.9985 387.951 38.6568 387.066 38.6568 385.958C38.6568 384.912 38.9778 384.042 39.6197 383.349C40.2512 382.655 41.1312 382.308 42.2597 382.308C43.1914 382.308 43.9627 382.609 44.5735 383.209C45.1947 383.799 45.5053 384.565 45.5053 385.507C45.5053 385.808 45.4794 386.087 45.4277 386.346H40.0545C40.1062 386.998 40.3495 387.511 40.7844 387.883C41.2295 388.256 41.7989 388.442 42.4926 388.442C43.4037 388.442 44.118 388.199 44.6357 387.713ZM42.1975 383.473C41.5867 383.473 41.0794 383.644 40.6757 383.986C40.2822 384.327 40.0493 384.778 39.9768 385.337H44.2164C44.1853 384.757 43.9886 384.301 43.6262 383.97C43.2742 383.639 42.798 383.473 42.1975 383.473ZM51.9211 389.452H50.6788V382.464H51.8124L54.499 385.927L57.0458 382.464H58.1484V389.452H56.9061V384.358L54.4835 387.604H54.4369L51.9211 384.358V389.452ZM60.7725 383.939L60.4464 382.945C61.1401 382.521 61.9165 382.308 62.7758 382.308C63.7179 382.308 64.4012 382.541 64.8257 383.007C65.2502 383.473 65.4624 384.193 65.4624 385.166V389.452H64.2822V388.551C63.7335 389.224 62.9881 389.561 62.0459 389.561C61.4041 389.561 60.8864 389.369 60.493 388.986C60.0996 388.593 59.9029 388.065 59.9029 387.402C59.9029 386.719 60.1462 386.18 60.6328 385.787C61.1194 385.383 61.7561 385.181 62.5429 385.181C63.2779 385.181 63.8577 385.331 64.2822 385.632C64.2822 384.845 64.1735 384.281 63.9561 383.939C63.7387 383.597 63.3194 383.426 62.6982 383.426C62.0667 383.426 61.4248 383.597 60.7725 383.939ZM62.4808 388.442C63.1744 388.442 63.7749 388.142 64.2822 387.542V386.657C63.8474 386.346 63.3245 386.191 62.7137 386.191C62.2892 386.191 61.9321 386.294 61.6422 386.501C61.3627 386.698 61.2229 386.978 61.2229 387.34C61.2229 387.682 61.3316 387.951 61.549 388.147C61.7768 388.344 62.0874 388.442 62.4808 388.442ZM68.7851 389.452H67.5428V382.464H71.9686V383.628H68.7851V389.452ZM78.4491 384.25L74.4115 389.452H73.1691V382.464H74.4115V387.666L78.4491 382.464H79.6915V389.452H78.4491V384.25ZM85.0092 382.464H87.1833V389.452H85.941V387.122H84.5899L82.8817 389.452H81.3753L83.3942 386.812C82.9697 386.719 82.6125 386.491 82.3226 386.129C82.0327 385.756 81.8878 385.311 81.8878 384.793C81.8878 384.079 82.1466 383.514 82.6643 383.1C83.1819 382.676 83.9636 382.464 85.0092 382.464ZM83.2078 384.824C83.2078 385.155 83.3372 385.43 83.596 385.647C83.8549 385.854 84.1603 385.958 84.5123 385.958H85.941V383.628H84.8073C84.2793 383.628 83.8807 383.737 83.6116 383.954C83.3424 384.172 83.2078 384.462 83.2078 384.824ZM89.1621 388.738C89.1621 388.489 89.2398 388.292 89.3951 388.147C89.5504 387.992 89.7678 387.914 90.0473 387.914C90.3786 387.914 90.6478 388.054 90.8548 388.334C91.0619 388.603 91.1654 388.965 91.1654 389.421C91.1654 389.98 91.0101 390.461 90.6995 390.865C90.3993 391.279 89.9852 391.564 89.4572 391.719L89.1155 391.129C89.6539 390.963 89.9852 390.617 90.1094 390.089C90.1819 389.737 90.1767 389.478 90.0939 389.312C90.0318 389.405 89.9179 389.452 89.7522 389.452C89.5969 389.452 89.4572 389.385 89.3329 389.25C89.2191 389.105 89.1621 388.934 89.1621 388.738ZM100.224 386.408H96.7769V385.399H100.209C100.116 384.778 99.8517 384.301 99.4169 383.97C98.9924 383.639 98.4489 383.473 97.7863 383.473C96.927 383.473 96.2126 383.727 95.6432 384.234L95.1152 383.302C95.4155 383.002 95.814 382.764 96.311 382.588C96.8079 382.402 97.2945 382.308 97.7708 382.308C98.8889 382.308 99.7844 382.64 100.457 383.302C101.151 383.965 101.498 384.85 101.498 385.958C101.498 386.983 101.161 387.847 100.488 388.551C99.8155 389.255 98.9717 389.607 97.9571 389.607C96.694 389.607 95.7571 389.312 95.1463 388.722L95.7364 387.806C96.2126 388.23 96.927 388.442 97.8795 388.442C98.5317 388.442 99.0649 388.266 99.479 387.914C99.8931 387.552 100.142 387.05 100.224 386.408ZM104.692 383.706H102.13V382.464H108.497V383.706H105.934V389.452H104.692V383.706ZM110.186 388.582C109.503 387.878 109.161 387.003 109.161 385.958C109.161 384.902 109.503 384.032 110.186 383.349C110.88 382.655 111.78 382.308 112.888 382.308C113.996 382.308 114.891 382.655 115.575 383.349C116.268 384.032 116.615 384.902 116.615 385.958C116.615 387.014 116.268 387.889 115.575 388.582C114.891 389.266 113.996 389.607 112.888 389.607C111.791 389.607 110.89 389.266 110.186 388.582ZM111.164 384.172C110.709 384.627 110.481 385.223 110.481 385.958C110.481 386.693 110.704 387.288 111.149 387.744C111.604 388.21 112.184 388.442 112.888 388.442C113.592 388.442 114.167 388.215 114.612 387.759C115.067 387.293 115.295 386.693 115.295 385.958C115.295 385.243 115.067 384.648 114.612 384.172C114.167 383.706 113.592 383.473 112.888 383.473C112.184 383.473 111.609 383.706 111.164 384.172ZM123.138 389.452H121.896V382.464H123.029L125.716 385.927L128.263 382.464H129.365V389.452H128.123V384.358L125.7 387.604H125.654L123.138 384.358V389.452ZM131.989 383.939L131.663 382.945C132.357 382.521 133.133 382.308 133.993 382.308C134.935 382.308 135.618 382.541 136.043 383.007C136.467 383.473 136.679 384.193 136.679 385.166V389.452H135.499V388.551C134.95 389.224 134.205 389.561 133.263 389.561C132.621 389.561 132.103 389.369 131.71 388.986C131.317 388.593 131.12 388.065 131.12 387.402C131.12 386.719 131.363 386.18 131.85 385.787C132.336 385.383 132.973 385.181 133.76 385.181C134.495 385.181 135.075 385.331 135.499 385.632C135.499 384.845 135.39 384.281 135.173 383.939C134.956 383.597 134.536 383.426 133.915 383.426C133.284 383.426 132.642 383.597 131.989 383.939ZM133.698 388.442C134.391 388.442 134.992 388.142 135.499 387.542V386.657C135.064 386.346 134.541 386.191 133.931 386.191C133.506 386.191 133.149 386.294 132.859 386.501C132.58 386.698 132.44 386.978 132.44 387.34C132.44 387.682 132.549 387.951 132.766 388.147C132.994 388.344 133.304 388.442 133.698 388.442ZM140.002 392.558H138.76V382.464H140.002V383.287C140.25 382.997 140.592 382.764 141.027 382.588C141.462 382.402 141.912 382.308 142.378 382.308C143.372 382.308 144.154 382.64 144.723 383.302C145.313 383.954 145.608 384.803 145.608 385.849C145.608 386.915 145.272 387.811 144.599 388.536C143.936 389.25 143.061 389.607 141.974 389.607C141.136 389.607 140.478 389.447 140.002 389.126V392.558ZM142.021 383.473C141.193 383.473 140.52 383.794 140.002 384.436V387.899C140.551 388.261 141.172 388.442 141.866 388.442C142.601 388.442 143.186 388.21 143.62 387.744C144.066 387.267 144.288 386.651 144.288 385.896C144.288 385.161 144.086 384.576 143.682 384.141C143.279 383.696 142.725 383.473 142.021 383.473ZM151.877 382.464H153.507L150.448 385.802L153.802 389.452H152.079L148.926 385.88L151.877 382.464ZM148.631 389.452H147.389V382.464H148.631V389.452ZM160.257 387.713L160.645 388.691C159.972 389.302 159.097 389.607 158.021 389.607C156.882 389.607 155.976 389.276 155.303 388.613C154.62 387.951 154.278 387.066 154.278 385.958C154.278 384.912 154.599 384.042 155.241 383.349C155.873 382.655 156.753 382.308 157.881 382.308C158.813 382.308 159.584 382.609 160.195 383.209C160.816 383.799 161.127 384.565 161.127 385.507C161.127 385.808 161.101 386.087 161.049 386.346H155.676C155.728 386.998 155.971 387.511 156.406 387.883C156.851 388.256 157.42 388.442 158.114 388.442C159.025 388.442 159.739 388.199 160.257 387.713ZM157.819 383.473C157.208 383.473 156.701 383.644 156.297 383.986C155.904 384.327 155.671 384.778 155.598 385.337H159.838C159.807 384.757 159.61 384.301 159.248 383.97C158.896 383.639 158.419 383.473 157.819 383.473ZM164.353 383.706H161.79V382.464H168.157V383.706H165.595V389.452H164.353V383.706ZM174.795 384.25L170.758 389.452H169.515V382.464H170.758V387.666L174.795 382.464H176.038V389.452H174.795V384.25ZM184.663 389.452H183.421V386.501H179.538V389.452H178.296V382.464H179.538V385.337H183.421V382.464H184.663V389.452ZM188.152 389.452H186.91V382.464H191.336V383.628H188.152V389.452Z" fill="#F5F5F5"/>
</svg>
