<svg width="320" height="150" viewBox="0 0 320 150" fill="none" xmlns="http://www.w3.org/2000/svg">
<g clip-path="url(#clip0_346_2374)">
<rect width="145.484" height="98.8542" transform="translate(228.805 20.5446) rotate(15)" fill="#F08F3B"/>
<rect width="164.135" height="90.461" transform="translate(47.2585 59.4813) rotate(-15)" fill="#32808D"/>
<path d="M245.132 59.5293L257.319 62.7495C262.411 64.095 265.741 66.7557 267.309 70.7316C268.915 74.7174 268.87 79.8302 267.174 86.07C265.469 92.3467 262.91 96.8151 259.499 99.4753C256.135 102.108 251.907 102.752 246.816 101.407L234.629 98.1865L245.132 59.5293ZM247.89 95.4579C250.586 96.1703 252.806 95.8269 254.55 94.428C256.332 93.0389 257.675 90.6829 258.578 87.3599L260.398 80.6586C261.291 77.3726 261.318 74.6888 260.479 72.6072C259.678 70.5355 257.929 69.1435 255.234 68.4312L250.797 67.2588L243.454 94.2856L247.89 95.4579Z" fill="#D95B4F"/>
<path d="M266.618 106.639L277.122 67.9822L301.888 74.5265L300.263 80.5078L282.853 75.9075L280.115 85.9872L296.906 90.4243L295.281 96.4056L278.489 91.9685L275.6 102.602L293.01 107.202L291.384 113.184L266.618 106.639Z" fill="#D95B4F"/>
<path d="M305.066 116.799L304.842 75.3072L312.929 77.4441L312.503 98.2853L312.057 111.226L312.45 111.33L318.681 99.9177L328.935 81.6735L336.629 83.7065L315.399 119.529L305.066 116.799Z" fill="#D95B4F"/>
<path d="M100.49 96.0234L98.7363 89.3917L116.202 72.802L117.955 79.4337L105.868 90.8028L105.97 91.1872L122.046 94.9077L123.799 101.539L100.49 96.0234Z" fill="#4AC6D7"/>
<path d="M133.102 106.43L136.913 59.1425L143.219 57.4299L139.408 104.717L133.102 106.43Z" fill="#4AC6D7"/>
<path d="M158.517 85.0028L170.605 73.6337L170.503 73.2493L154.427 69.5289L152.673 62.8972L175.983 68.4131L177.736 75.0448L160.271 91.6345L158.517 85.0028Z" fill="#4AC6D7"/>
<rect x="12.5098" y="30" width="135.761" height="88.4023" transform="rotate(45 12.5098 30)" fill="#D95B4F"/>
</g>
<defs>
<clipPath id="clip0_346_2374">
<rect width="320" height="150" fill="white"/>
</clipPath>
</defs>
</svg>
