<svg width="350" height="120" viewBox="0 0 350 120" fill="none" xmlns="http://www.w3.org/2000/svg">
<g clip-path="url(#clip0_346_2375)">
<rect x="320.298" y="10" width="79.2515" height="51.3334" transform="rotate(45 320.298 10)" fill="#D95B4F"/>
<rect x="128.298" y="79" width="80.1521" height="51.3334" transform="rotate(45 128.298 79)" fill="#4AC6D7"/>
<rect width="194" height="51" transform="translate(139 60)" fill="#F2B94B"/>
<path fill-rule="evenodd" clip-rule="evenodd" d="M217.866 84.4045C216.543 84.4045 215.469 85.4746 215.469 86.793C215.469 88.1144 216.543 89.1835 217.866 89.1835C219.19 89.1835 220.263 88.1144 220.263 86.793C220.263 85.4746 219.19 84.4045 217.866 84.4045ZM315.4 82.6506C316.972 82.6506 318.122 83.5278 318.875 84.4045V80.169C317.64 79.3342 316.153 79 314.859 79C310.886 79 307.434 81.837 307.434 86.7178C307.434 91.3912 310.571 94.4375 314.921 94.4375C316.176 94.4375 317.556 94.248 318.875 93.3525V89.1984C318.122 89.9719 316.931 90.7865 315.4 90.7865C313.059 90.7865 311.657 89.0557 311.657 86.8432C311.657 84.444 313.142 82.6506 315.4 82.6506ZM307.883 79.4181H303.072L298.657 85.5498V79.4181H294.558L294.559 94.0199H298.657V87.7397L302.902 94.0199H308.03L302.318 86.4887L307.883 79.4181ZM282.452 88.1795V79.4181H278.498V94.0199H282.515L288.184 85.258V94.0199H292.137V79.4181H288.12L282.452 88.1795ZM270.572 85.9877H269.403V82.6308H270.572C272.329 82.6308 272.579 83.5683 272.579 84.2989C272.579 84.9243 272.392 85.9877 270.572 85.9877ZM271.47 79.4181H265.301V94.0199H269.403V89.1984H271.47C275.613 89.1984 276.806 86.3233 276.806 84.2989C276.806 82.2956 275.634 79.4181 271.47 79.4181ZM253.086 82.9211H256.305V94.0199H260.407V82.9211H263.627V79.4181H253.086V82.9211ZM241.726 88.1795V79.4181H237.774V94.0199H241.791L247.457 85.258V94.0199H251.411V79.4181H247.396L241.726 88.1795ZM229.511 91.0975H227.755V88.0324H229.511C230.809 88.0324 231.562 88.4085 231.562 89.5567C231.562 90.7238 230.788 91.0975 229.511 91.0975ZM229.91 85.1119H227.755V82.9211H234.469V79.4181H223.655L223.655 94.0199L229.91 94.0199C230.975 94.0199 235.661 94.0604 235.661 89.4936C235.661 85.0912 231.018 85.1119 229.91 85.1119ZM200.709 86.7178C200.709 91.3912 203.846 94.4375 208.197 94.4375C209.453 94.4375 210.833 94.248 212.152 93.3525V89.1984C211.396 89.9719 210.204 90.7865 208.678 90.7865C206.334 90.7865 204.934 89.0557 204.934 86.8432C204.934 84.444 206.419 82.6506 208.678 82.6506C210.246 82.6506 211.396 83.5278 212.152 84.4045V80.169C210.914 79.3342 209.431 79 208.134 79C204.159 79 200.709 81.837 200.709 86.7178ZM192.125 82.7759H194.365V94.0199H198.151V79.4181H192.125V82.7759Z" fill="#231F20"/>
<path fill-rule="evenodd" clip-rule="evenodd" d="M168.969 69.25C167.788 69.25 166.64 69.3862 165.534 69.6381V85.5112C165.534 87.4564 167.08 89.0428 168.978 89.0428C170.874 89.0428 172.42 87.4564 172.42 85.5122C172.42 83.6437 170.996 82.11 169.206 81.988V79.1613C172.513 79.2843 175.174 82.09 175.174 85.5122C175.174 89.012 172.391 91.8685 168.978 91.8685C165.563 91.8685 162.78 89.012 162.78 85.5112V70.5362C162.389 70.7065 162.006 70.8955 161.632 71.0985V85.5112C161.632 89.6598 164.933 93.0429 168.978 93.0429C173.023 93.0429 176.322 89.6598 176.322 85.5122C176.322 81.4418 173.147 78.1084 169.206 77.983V75.1572C174.664 75.2837 179.075 79.8866 179.075 85.5122C179.075 91.2173 174.539 95.8686 168.978 95.8686C163.415 95.8686 158.877 91.2173 158.877 85.5112V72.9729C155.365 75.9519 153.125 80.4567 153.125 85.499C153.125 94.4731 160.218 101.75 168.969 101.75C177.721 101.75 184.813 94.4731 184.813 85.499C184.813 76.5249 177.721 69.25 168.969 69.25Z" fill="#D91935"/>
</g>
<defs>
<clipPath id="clip0_346_2375">
<rect width="350" height="120" fill="white"/>
</clipPath>
</defs>
</svg>
