<svg width="307" height="178" viewBox="0 0 307 178" fill="none" xmlns="http://www.w3.org/2000/svg">
<rect width="305.401" height="177.368" transform="translate(0.749939 0.499756)" fill="white"/>
<path d="M96.9385 108.852C97.5866 109.359 98.0884 109.978 98.4438 110.707C98.7991 111.437 98.9769 112.246 98.9769 113.134V114.466C98.9769 116.284 98.4647 117.738 97.4403 118.827C96.4158 119.916 95.0673 120.46 93.3948 120.46H89.412C88.9311 120.46 88.534 120.301 88.2204 119.984C87.9066 119.667 87.7499 119.265 87.7499 118.779V103.682C87.7499 101.906 88.2465 100.479 89.2395 99.4009C90.2327 98.3226 91.534 97.7834 93.1439 97.7834C94.7746 97.7834 96.0918 98.3226 97.0952 99.4009C98.0988 100.479 98.6006 101.906 98.6006 103.682V104.951C98.6215 105.755 98.4855 106.495 98.1929 107.171C97.9002 107.848 97.4821 108.408 96.9385 108.852V108.852ZM91.67 107.361H93.1752C93.6561 107.361 94.0271 107.187 94.2885 106.838C94.5498 106.489 94.6806 106.008 94.6806 105.395V103.334C94.6806 102.763 94.5394 102.308 94.2572 101.97C93.9749 101.632 93.5934 101.462 93.1125 101.462C92.6525 101.462 92.2971 101.632 92.0462 101.97C91.7953 102.308 91.67 102.763 91.67 103.334V107.361ZM94.9942 113.007C94.9942 112.33 94.8425 111.807 94.5394 111.437C94.2363 111.067 93.8234 110.882 93.3007 110.882H91.67V116.844H93.3007C93.8443 116.844 94.2624 116.665 94.5551 116.305C94.8478 115.946 94.9942 115.438 94.9942 114.783V113.007V113.007ZM106.158 120.682C104.444 120.682 103.054 120.127 101.988 119.017C100.921 117.907 100.388 116.443 100.388 114.624V103.841C100.388 102.023 100.921 100.559 101.988 99.4485C103.054 98.3384 104.444 97.7834 106.158 97.7834C107.873 97.7834 109.258 98.3331 110.314 99.4326C111.369 100.532 111.897 101.97 111.897 103.746V114.719C111.897 116.495 111.369 117.933 110.314 119.033C109.258 120.132 107.873 120.682 106.158 120.682V120.682ZM106.158 116.971C106.702 116.971 107.136 116.797 107.46 116.448C107.784 116.099 107.946 115.618 107.946 115.005V103.46C107.946 102.847 107.784 102.361 107.46 102.002C107.136 101.642 106.702 101.462 106.158 101.462C105.615 101.462 105.176 101.647 104.841 102.017C104.507 102.388 104.339 102.9 104.339 103.556V114.91C104.339 115.544 104.502 116.046 104.826 116.416C105.15 116.786 105.594 116.971 106.158 116.971V116.971ZM115.002 120.333C114.626 120.333 114.437 120.143 114.437 119.762V103.746C114.437 101.97 114.95 100.527 115.974 99.4168C116.999 98.3067 118.358 97.7517 120.051 97.7517C121.744 97.7517 123.109 98.3067 124.144 99.4168C125.178 100.527 125.696 101.97 125.696 103.746V119.762C125.696 120.143 125.508 120.333 125.131 120.333H122.309C121.933 120.333 121.744 120.143 121.744 119.762V103.46C121.744 102.847 121.593 102.361 121.29 102.002C120.986 101.642 120.574 101.462 120.051 101.462C119.528 101.462 119.115 101.642 118.812 102.002C118.509 102.361 118.358 102.847 118.358 103.46V119.762C118.358 120.143 118.18 120.333 117.824 120.333H115.002V120.333ZM129.02 120.333C128.644 120.333 128.456 120.143 128.456 119.762V103.778C128.456 101.98 128.973 100.532 130.008 99.4326C131.043 98.3331 132.396 97.7834 134.069 97.7834C135.762 97.7834 137.127 98.3331 138.162 99.4326C139.196 100.532 139.714 101.98 139.714 103.778V119.762C139.714 120.143 139.526 120.333 139.149 120.333H136.327C135.951 120.333 135.762 120.143 135.762 119.762V113.514H132.376V119.762C132.376 120.143 132.198 120.333 131.842 120.333H129.02ZM135.762 109.867V103.492C135.762 102.879 135.611 102.393 135.308 102.033C135.005 101.674 134.592 101.494 134.069 101.494C133.546 101.494 133.133 101.674 132.83 102.033C132.527 102.393 132.376 102.879 132.376 103.492V109.867H135.762V109.867ZM147.93 120.714C146.237 120.714 144.867 120.164 143.822 119.065C142.777 117.965 142.254 116.517 142.254 114.719V103.714C142.254 101.938 142.766 100.5 143.791 99.4009C144.815 98.3014 146.164 97.7517 147.836 97.7517C149.446 97.7517 150.774 98.3173 151.819 99.4485C152.864 100.58 153.408 102.076 153.45 103.936C153.45 104.317 153.272 104.507 152.916 104.507H150.094C149.739 104.507 149.54 104.327 149.498 103.968C149.477 103.122 149.315 102.493 149.012 102.081C148.709 101.669 148.317 101.462 147.836 101.462C147.313 101.462 146.911 101.637 146.629 101.986C146.347 102.335 146.205 102.816 146.205 103.429V115.005C146.205 115.618 146.373 116.104 146.707 116.464C147.042 116.823 147.481 117.003 148.024 117.003C148.547 117.003 148.97 116.829 149.294 116.48C149.618 116.131 149.78 115.671 149.78 115.1V111.516H148.526C148.15 111.516 147.962 111.326 147.962 110.945V108.662C147.962 108.281 148.15 108.091 148.526 108.091H152.038C152.561 108.091 152.963 108.234 153.246 108.519C153.528 108.804 153.669 109.222 153.669 109.772V114.815C153.669 116.57 153.141 117.991 152.085 119.08C151.03 120.169 149.645 120.714 147.93 120.714V120.714ZM156.46 120.333C156.084 120.333 155.896 120.143 155.896 119.762V103.778C155.896 101.98 156.413 100.532 157.448 99.4326C158.483 98.3331 159.837 97.7834 161.509 97.7834C163.203 97.7834 164.567 98.3331 165.602 99.4326C166.637 100.532 167.154 101.98 167.154 103.778V119.762C167.154 120.143 166.966 120.333 166.59 120.333H163.767C163.391 120.333 163.203 120.143 163.203 119.762V113.514H159.816V119.762C159.816 120.143 159.638 120.333 159.283 120.333H156.46V120.333ZM163.203 109.867V103.492C163.203 102.879 163.051 102.393 162.748 102.033C162.445 101.674 162.032 101.494 161.509 101.494C160.987 101.494 160.574 101.674 160.271 102.033C159.967 102.393 159.816 102.879 159.816 103.492V109.867H163.203V109.867ZM170.478 120.333C170.102 120.333 169.914 120.143 169.914 119.762V103.778C169.914 101.98 170.431 100.527 171.466 99.4168C172.501 98.3067 173.844 97.7517 175.496 97.7517C177.21 97.7517 178.59 98.3067 179.636 99.4168C180.681 100.527 181.203 101.98 181.203 103.778V106.537C181.203 107.636 181 108.614 180.592 109.471C180.184 110.327 179.615 111.009 178.883 111.516L181.925 119.762L181.956 119.889C181.956 120.037 181.904 120.148 181.799 120.222C181.695 120.296 181.559 120.333 181.392 120.333H178.35C178.203 120.333 178.094 120.291 178.02 120.206C177.947 120.122 177.869 119.984 177.785 119.794L175.339 112.531H173.865V119.762C173.865 120.143 173.687 120.333 173.332 120.333H170.478V120.333ZM175.308 108.884C175.956 108.884 176.442 108.694 176.766 108.313C177.09 107.932 177.252 107.383 177.252 106.664V103.492C177.252 102.879 177.101 102.393 176.797 102.033C176.494 101.674 176.071 101.494 175.527 101.494C175.025 101.494 174.623 101.674 174.32 102.033C174.017 102.393 173.865 102.879 173.865 103.492V108.884H175.308ZM185.845 120.46C185.301 120.46 184.888 120.317 184.606 120.032C184.324 119.746 184.183 119.339 184.183 118.811V99.6547C184.183 99.1261 184.324 98.7191 184.606 98.4337C184.888 98.1483 185.301 98.0055 185.845 98.0055H189.702C191.395 98.0055 192.76 98.5552 193.795 99.6547C194.83 100.754 195.347 102.192 195.347 103.968V114.497C195.347 116.274 194.83 117.711 193.795 118.811C192.76 119.91 191.395 120.46 189.702 120.46H185.845V120.46ZM189.482 116.813C190.11 116.813 190.585 116.622 190.91 116.242C191.234 115.861 191.395 115.322 191.395 114.624V103.841C191.395 102.382 190.758 101.653 189.482 101.653H188.103V116.813H189.482V116.813ZM203.312 120.46C201.619 120.46 200.255 119.91 199.22 118.811C198.185 117.711 197.668 116.274 197.668 114.497V103.936C197.668 102.181 198.185 100.754 199.22 99.6547C200.255 98.5552 201.619 98.0055 203.312 98.0055H206.605C206.982 98.0055 207.17 98.1852 207.17 98.5446V101.082C207.17 101.462 206.982 101.653 206.605 101.653H203.783C203.114 101.653 202.586 101.869 202.199 102.303C201.812 102.736 201.619 103.323 201.619 104.063V107.361H205.821C206.198 107.361 206.386 107.552 206.386 107.932V110.343C206.386 110.723 206.198 110.914 205.821 110.914H201.619V114.402C201.619 115.142 201.812 115.729 202.199 116.162C202.586 116.596 203.114 116.813 203.783 116.813H206.605C206.982 116.813 207.17 116.992 207.17 117.352V119.921C207.17 120.28 206.982 120.46 206.605 120.46H203.312ZM209.804 120.333C209.428 120.333 209.24 120.143 209.24 119.762V103.746C209.24 101.97 209.752 100.527 210.776 99.4168C211.801 98.3067 213.16 97.7517 214.853 97.7517C216.547 97.7517 217.911 98.3067 218.946 99.4168C219.981 100.527 220.498 101.97 220.498 103.746V119.762C220.498 120.143 220.31 120.333 219.934 120.333H217.111C216.735 120.333 216.547 120.143 216.547 119.762V103.46C216.547 102.847 216.395 102.361 216.092 102.002C215.789 101.642 215.376 101.462 214.853 101.462C214.331 101.462 213.918 101.642 213.615 102.002C213.311 102.361 213.16 102.847 213.16 103.46V119.762C213.16 120.143 212.982 120.333 212.627 120.333H209.804Z" fill="#333333"/>
<path d="M105.921 128.158V127.171H101.384V134.414H102.502V128.158H105.921V128.158ZM110.925 134.414V130.966C110.925 129.796 110.189 129.196 108.729 129.196C108.231 129.196 107.858 129.257 107.558 129.399C107.299 129.511 107.164 129.633 106.874 129.938L107.568 130.579C107.724 130.386 107.838 130.284 107.993 130.213C108.18 130.121 108.397 130.081 108.698 130.081C109.526 130.081 109.878 130.366 109.878 131.037V131.413H108.47C107.351 131.413 106.667 131.973 106.667 132.909C106.667 133.906 107.32 134.465 108.49 134.465C109.112 134.465 109.454 134.373 109.889 133.946V134.414H110.925V134.414ZM109.878 132.553C109.878 133.305 109.547 133.611 108.729 133.611C108.014 133.611 107.693 133.377 107.693 132.878C107.693 132.39 108.014 132.146 108.635 132.146H109.878V132.553V132.553ZM116.84 131.851C116.84 131.24 116.809 130.895 116.726 130.528C116.519 129.633 115.877 129.196 114.944 129.196C114.312 129.196 114.012 129.369 113.587 129.796V129.257H112.551V136.5H113.608V133.885C114.002 134.312 114.354 134.475 114.955 134.475C115.493 134.475 115.949 134.312 116.26 134.007C116.674 133.6 116.84 132.97 116.84 131.851V131.851ZM115.794 131.83C115.794 133.061 115.483 133.549 114.706 133.549C113.929 133.549 113.608 133.061 113.608 131.871C113.608 131.281 113.67 130.895 113.805 130.62C113.971 130.284 114.261 130.121 114.696 130.121C115.483 130.121 115.794 130.599 115.794 131.83V131.83ZM123.501 134.414V129.257H122.465L120.901 132.329L119.326 129.257H118.28V134.414H119.337V131.108L120.569 133.468H121.233L122.445 131.108V134.414H123.501V134.414ZM129.313 131.81C129.313 130.823 129.137 130.254 128.702 129.806C128.308 129.409 127.759 129.196 127.127 129.196C126.495 129.196 125.956 129.409 125.563 129.806C125.117 130.264 124.941 130.823 124.941 131.83C124.941 132.848 125.117 133.407 125.563 133.865C125.956 134.262 126.495 134.475 127.127 134.475C127.759 134.475 128.308 134.262 128.702 133.865C129.147 133.407 129.313 132.848 129.313 131.81ZM128.267 131.851C128.267 132.451 128.194 132.909 127.946 133.204C127.759 133.417 127.479 133.549 127.127 133.549C126.796 133.549 126.526 133.438 126.34 133.224C126.101 132.96 125.998 132.553 125.998 131.871C125.998 131.261 126.06 130.783 126.319 130.467C126.506 130.254 126.775 130.121 127.127 130.121C127.479 130.121 127.749 130.254 127.935 130.457C128.205 130.752 128.267 131.21 128.267 131.851ZM134.959 134.414V129.257H133.902V131.312H131.81V129.257H130.753V134.414H131.81V132.217H133.902V134.414H134.959ZM140.999 134.414V129.257H139.942L137.694 132.756V129.257H136.637V134.414H137.694L139.942 130.864V134.414H140.999ZM146.551 134.414V129.257H144.075C143.071 129.257 142.366 129.918 142.366 130.854C142.366 131.596 142.801 132.146 143.475 132.329L142.294 134.414H143.537L144.531 132.522C144.531 132.522 145.474 132.522 145.495 132.522V134.414H146.551ZM145.505 131.668H144.252C143.723 131.668 143.412 131.373 143.412 130.895C143.412 130.416 143.723 130.121 144.252 130.121H145.505V131.668ZM154.321 130.162V129.257H149.991V130.162H151.658V134.414H152.715V130.162H154.321ZM159.449 132.146V131.678C159.449 130.162 158.589 129.196 157.232 129.196C155.854 129.196 155.005 130.193 155.005 131.81C155.005 133.56 155.813 134.475 157.387 134.475C158.227 134.475 158.734 134.241 159.325 133.672L158.662 133.051C158.289 133.407 157.957 133.59 157.429 133.59C156.445 133.59 156.072 133.01 156.051 132.146H159.449V132.146ZM158.413 131.413H156.051C156.072 130.701 156.382 130.06 157.232 130.06C158.092 130.06 158.361 130.712 158.413 131.413ZM165.074 134.414V129.257H161.459L161.376 132.125C161.345 133.295 160.837 133.509 160.412 133.509H160.195V134.414H160.765C161.738 134.414 162.381 133.804 162.422 132.349L162.484 130.162H164.017V134.414H165.074ZM170.627 134.414V130.966C170.627 129.796 169.891 129.196 168.431 129.196C167.933 129.196 167.56 129.257 167.26 129.399C167.001 129.511 166.866 129.633 166.576 129.938L167.27 130.579C167.426 130.386 167.54 130.284 167.695 130.213C167.882 130.121 168.099 130.081 168.4 130.081C169.228 130.081 169.581 130.366 169.581 131.037V131.413H168.172C167.053 131.413 166.369 131.973 166.369 132.909C166.369 133.906 167.022 134.465 168.192 134.465C168.814 134.465 169.156 134.373 169.591 133.946V134.414H170.627V134.414ZM169.581 132.553C169.581 133.305 169.249 133.611 168.431 133.611C167.716 133.611 167.395 133.377 167.395 132.878C167.395 132.39 167.716 132.146 168.337 132.146H169.581V132.553V132.553ZM179.101 134.414V129.257H178.044L175.796 132.756V129.257H174.74V134.414H175.796L178.044 130.864V134.414H179.101ZM188.114 135.838V133.509H187.388V129.257H183.835V129.979C183.835 131.841 183.597 132.614 183.224 133.509H182.623V135.838H183.628V134.414H187.098V135.838H188.114ZM186.332 133.509H184.312C184.591 132.827 184.799 132.156 184.83 131.006C184.83 130.915 184.84 130.274 184.84 130.162H186.332V133.509ZM193.179 129.257H192.05L190.828 132.898L189.574 129.257H188.445L190.289 134.17L189.999 134.984C189.844 135.421 189.678 135.523 189.243 135.523H188.973V136.459H189.398C190.154 136.459 190.6 136.144 190.859 135.442L193.179 129.257V129.257ZM200.814 134.414V129.257H199.758V133.509H197.986V129.257H196.93V133.509H195.148V129.257H194.091V134.414H200.814ZM206.864 134.414V129.257H205.808L203.56 132.756V129.257H202.503V134.414H203.56L205.808 130.864V134.414H206.864Z" fill="#595959"/>
<path d="M154.124 84.0474C156.365 84.0474 158.487 82.038 160.105 78.7901C161.88 75.2264 162.978 70.2624 162.978 64.744C162.978 59.2256 161.88 54.2618 160.105 50.6979C158.487 47.4501 156.366 45.4407 154.124 45.4407C151.882 45.4407 149.761 47.4501 148.143 50.6979C146.368 54.2618 145.27 59.2256 145.27 64.744C145.27 70.2624 146.368 75.2264 148.143 78.7901C149.761 82.038 151.883 84.0474 154.124 84.0474ZM162.776 80.0765C160.649 84.3467 157.596 86.9883 154.124 86.9883C150.651 86.9883 147.599 84.3467 145.472 80.0765C143.503 76.1221 142.284 70.6985 142.284 64.744C142.284 58.7896 143.503 53.366 145.472 49.4115C147.599 45.1414 150.651 42.4998 154.124 42.4998C157.597 42.4998 160.649 45.1414 162.776 49.4115C164.745 53.366 165.964 58.7896 165.964 64.744C165.964 70.6985 164.745 76.1221 162.776 80.0765V80.0765Z" fill="#E6BE80"/>
<path d="M133.705 48.6034C136.622 46.7589 140.626 47.3517 144.741 49.8015C148.55 52.0689 152.538 55.9733 155.802 60.9763C159.065 65.9783 161.012 71.1729 161.522 75.5267C162.074 80.2305 160.956 84.0628 158.039 85.9076C155.122 87.7521 151.118 87.1594 147.003 84.7099C143.194 82.4426 139.206 78.5384 135.943 73.5357L135.916 73.4946C132.669 68.5037 130.73 63.3259 130.222 58.9842C129.671 54.2805 130.788 50.4481 133.705 48.6034V48.6034ZM143.206 52.309C140.067 50.4403 137.187 49.8779 135.31 51.0648C133.433 52.2518 132.755 55.0645 133.175 58.6524C133.636 62.5902 135.429 67.3358 138.442 71.955L138.457 71.9782C141.467 76.5852 145.098 80.1548 148.538 82.2024C151.677 84.0709 154.557 84.6331 156.434 83.4461C158.311 82.2592 158.989 79.4465 158.569 75.8586C158.107 71.921 156.315 67.1752 153.302 62.5562C150.289 57.9379 146.652 54.3598 143.206 52.309V52.309Z" fill="#5FA494"/>
<path d="M172.938 51.0647C171.061 49.8778 168.181 50.4401 165.042 52.3087C161.596 54.3595 157.959 57.9376 154.946 62.5561C151.933 67.1754 150.14 71.9212 149.679 75.8586C149.259 79.4465 149.937 82.2593 151.814 83.4462C153.69 84.6333 156.571 84.071 159.71 82.2024C163.155 80.1516 166.793 76.5733 169.806 71.955C172.82 67.3355 174.612 62.5897 175.073 58.6523C175.493 55.0644 174.815 52.2516 172.938 51.0647V51.0647ZM163.507 49.8015C167.622 47.3518 171.626 46.7589 174.543 48.6033C177.46 50.448 178.577 54.2802 178.026 58.9842C177.516 63.3382 175.569 68.5329 172.306 73.5349C169.042 78.5377 165.054 82.4423 161.245 84.7096C157.13 87.1593 153.126 87.7522 150.209 85.9077C147.292 84.0629 146.174 80.2305 146.726 75.5268C147.236 71.1727 149.183 65.9781 152.446 60.9762C155.71 55.9732 159.698 52.0688 163.507 49.8015V49.8015Z" fill="#F08365"/>
</svg>
