<svg width="307" height="178" viewBox="0 0 307 178" fill="none" xmlns="http://www.w3.org/2000/svg">
<rect width="305.401" height="177.368" transform="translate(0.749878 0.606445)" fill="white"/>
<path d="M96.9385 108.959C97.5865 109.466 98.0883 110.085 98.4437 110.814C98.7991 111.544 98.9768 112.352 98.9768 113.24V114.572C98.9768 116.391 98.4646 117.844 97.4403 118.933C96.4158 120.022 95.0673 120.566 93.3947 120.566H89.412C88.9311 120.566 88.5339 120.408 88.2203 120.091C87.9066 119.774 87.7499 119.372 87.7499 118.886V103.789C87.7499 102.013 88.2465 100.586 89.2394 99.5076C90.2326 98.4293 91.5339 97.8901 93.1438 97.8901C94.7746 97.8901 96.0918 98.4293 97.0952 99.5076C98.0988 100.586 98.6006 102.013 98.6006 103.789V105.058C98.6215 105.861 98.4855 106.601 98.1928 107.278C97.9001 107.954 97.4821 108.515 96.9385 108.959V108.959ZM91.6699 107.468H93.1751C93.656 107.468 94.0271 107.294 94.2884 106.945C94.5498 106.596 94.6805 106.115 94.6805 105.502V103.44C94.6805 102.869 94.5393 102.415 94.2571 102.077C93.9749 101.738 93.5934 101.569 93.1125 101.569C92.6524 101.569 92.2971 101.738 92.0462 102.077C91.7953 102.415 91.6699 102.869 91.6699 103.44V107.468ZM94.9941 113.113C94.9941 112.437 94.8425 111.914 94.5393 111.544C94.2362 111.174 93.8234 110.989 93.3007 110.989H91.6699V116.951H93.3007C93.8443 116.951 94.2623 116.771 94.555 116.412C94.8477 116.053 94.9941 115.545 94.9941 114.889V113.113V113.113ZM106.158 120.789C104.444 120.789 103.054 120.234 101.987 119.123C100.921 118.013 100.388 116.549 100.388 114.731V103.948C100.388 102.129 100.921 100.665 101.987 99.5552C103.054 98.4451 104.444 97.8901 106.158 97.8901C107.873 97.8901 109.258 98.4398 110.314 99.5393C111.369 100.639 111.897 102.077 111.897 103.853V114.826C111.897 116.602 111.369 118.04 110.314 119.139C109.258 120.239 107.873 120.789 106.158 120.789V120.789ZM106.158 117.078C106.702 117.078 107.136 116.904 107.46 116.555C107.784 116.206 107.946 115.725 107.946 115.112V103.567C107.946 102.954 107.784 102.468 107.46 102.108C107.136 101.749 106.702 101.569 106.158 101.569C105.615 101.569 105.176 101.754 104.841 102.124C104.507 102.494 104.339 103.007 104.339 103.662V115.016C104.339 115.651 104.502 116.153 104.826 116.523C105.15 116.893 105.594 117.078 106.158 117.078V117.078ZM115.002 120.44C114.626 120.44 114.437 120.249 114.437 119.869V103.853C114.437 102.077 114.95 100.634 115.974 99.5235C116.998 98.4134 118.357 97.8584 120.051 97.8584C121.744 97.8584 123.109 98.4134 124.143 99.5235C125.178 100.634 125.696 102.077 125.696 103.853V119.869C125.696 120.249 125.508 120.44 125.131 120.44H122.309C121.933 120.44 121.744 120.249 121.744 119.869V103.567C121.744 102.954 121.593 102.468 121.29 102.108C120.986 101.749 120.574 101.569 120.051 101.569C119.528 101.569 119.115 101.749 118.812 102.108C118.509 102.468 118.357 102.954 118.357 103.567V119.869C118.357 120.249 118.18 120.44 117.824 120.44H115.002V120.44ZM129.02 120.44C128.644 120.44 128.455 120.249 128.455 119.869V103.884C128.455 102.087 128.973 100.639 130.008 99.5393C131.043 98.4398 132.396 97.8901 134.069 97.8901C135.762 97.8901 137.127 98.4398 138.162 99.5393C139.196 100.639 139.714 102.087 139.714 103.884V119.869C139.714 120.249 139.526 120.44 139.149 120.44H136.327C135.951 120.44 135.762 120.249 135.762 119.869V113.621H132.375V119.869C132.375 120.249 132.198 120.44 131.842 120.44H129.02ZM135.762 109.974V103.599C135.762 102.986 135.611 102.5 135.308 102.14C135.004 101.781 134.592 101.601 134.069 101.601C133.546 101.601 133.133 101.781 132.83 102.14C132.527 102.5 132.375 102.986 132.375 103.599V109.974H135.762V109.974ZM147.93 120.82C146.237 120.82 144.867 120.27 143.822 119.171C142.777 118.072 142.254 116.623 142.254 114.826V103.821C142.254 102.045 142.766 100.607 143.791 99.5076C144.815 98.4081 146.164 97.8584 147.836 97.8584C149.446 97.8584 150.774 98.424 151.819 99.5552C152.864 100.686 153.408 102.182 153.45 104.043C153.45 104.423 153.272 104.614 152.916 104.614H150.094C149.739 104.614 149.54 104.434 149.498 104.075C149.477 103.229 149.315 102.6 149.012 102.188C148.709 101.775 148.317 101.569 147.836 101.569C147.313 101.569 146.911 101.744 146.629 102.092C146.347 102.441 146.205 102.922 146.205 103.535V115.112C146.205 115.725 146.373 116.211 146.707 116.57C147.042 116.93 147.481 117.11 148.024 117.11C148.547 117.11 148.97 116.935 149.294 116.586C149.618 116.237 149.78 115.778 149.78 115.207V111.623H148.526C148.15 111.623 147.962 111.433 147.962 111.052V108.769C147.962 108.388 148.15 108.198 148.526 108.198H152.038C152.561 108.198 152.963 108.34 153.246 108.626C153.528 108.911 153.669 109.329 153.669 109.879V114.921C153.669 116.676 153.141 118.098 152.085 119.187C151.03 120.276 149.645 120.82 147.93 120.82V120.82ZM156.46 120.44C156.084 120.44 155.896 120.249 155.896 119.869V103.884C155.896 102.087 156.413 100.639 157.448 99.5393C158.483 98.4398 159.837 97.8901 161.509 97.8901C163.203 97.8901 164.567 98.4398 165.602 99.5393C166.637 100.639 167.154 102.087 167.154 103.884V119.869C167.154 120.249 166.966 120.44 166.59 120.44H163.767C163.391 120.44 163.203 120.249 163.203 119.869V113.621H159.816V119.869C159.816 120.249 159.638 120.44 159.283 120.44H156.46V120.44ZM163.203 109.974V103.599C163.203 102.986 163.051 102.5 162.748 102.14C162.445 101.781 162.032 101.601 161.509 101.601C160.987 101.601 160.574 101.781 160.271 102.14C159.967 102.5 159.816 102.986 159.816 103.599V109.974H163.203V109.974ZM170.478 120.44C170.102 120.44 169.914 120.249 169.914 119.869V103.884C169.914 102.087 170.431 100.634 171.466 99.5235C172.501 98.4134 173.844 97.8584 175.496 97.8584C177.21 97.8584 178.59 98.4134 179.635 99.5235C180.681 100.634 181.203 102.087 181.203 103.884V106.644C181.203 107.743 181 108.721 180.592 109.577C180.184 110.434 179.615 111.115 178.883 111.623L181.925 119.869L181.956 119.996C181.956 120.144 181.904 120.255 181.799 120.329C181.695 120.403 181.559 120.44 181.392 120.44H178.35C178.203 120.44 178.094 120.397 178.02 120.313C177.947 120.228 177.869 120.091 177.785 119.901L175.339 112.638H173.865V119.869C173.865 120.249 173.687 120.44 173.332 120.44H170.478V120.44ZM175.308 108.991C175.956 108.991 176.442 108.8 176.766 108.42C177.09 108.039 177.252 107.489 177.252 106.77V103.599C177.252 102.986 177.101 102.5 176.797 102.14C176.494 101.781 176.071 101.601 175.527 101.601C175.025 101.601 174.623 101.781 174.32 102.14C174.017 102.5 173.865 102.986 173.865 103.599V108.991H175.308ZM185.845 120.566C185.301 120.566 184.888 120.424 184.606 120.138C184.324 119.853 184.182 119.446 184.182 118.917V99.7614C184.182 99.2328 184.324 98.8258 184.606 98.5404C184.888 98.255 185.301 98.1121 185.845 98.1121H189.702C191.395 98.1121 192.76 98.6619 193.795 99.7614C194.83 100.861 195.347 102.299 195.347 104.075V114.604C195.347 116.38 194.83 117.818 193.795 118.917C192.76 120.017 191.395 120.566 189.702 120.566H185.845V120.566ZM189.482 116.919C190.11 116.919 190.585 116.729 190.909 116.349C191.233 115.968 191.395 115.429 191.395 114.731V103.948C191.395 102.489 190.758 101.759 189.482 101.759H188.103V116.919H189.482V116.919ZM203.312 120.566C201.619 120.566 200.255 120.017 199.22 118.917C198.185 117.818 197.668 116.38 197.668 114.604V104.043C197.668 102.288 198.185 100.861 199.22 99.7614C200.255 98.6619 201.619 98.1121 203.312 98.1121H206.605C206.982 98.1121 207.17 98.2919 207.17 98.6513V101.189C207.17 101.569 206.982 101.759 206.605 101.759H203.783C203.114 101.759 202.586 101.976 202.199 102.41C201.812 102.843 201.619 103.43 201.619 104.17V107.468H205.821C206.198 107.468 206.386 107.658 206.386 108.039V110.449C206.386 110.83 206.198 111.02 205.821 111.02H201.619V114.509C201.619 115.249 201.812 115.836 202.199 116.269C202.586 116.703 203.114 116.919 203.783 116.919H206.605C206.982 116.919 207.17 117.099 207.17 117.458V120.028C207.17 120.387 206.982 120.566 206.605 120.566H203.312ZM209.804 120.44C209.428 120.44 209.24 120.249 209.24 119.869V103.853C209.24 102.077 209.752 100.634 210.776 99.5235C211.801 98.4134 213.16 97.8584 214.853 97.8584C216.547 97.8584 217.911 98.4134 218.946 99.5235C219.98 100.634 220.498 102.077 220.498 103.853V119.869C220.498 120.249 220.31 120.44 219.933 120.44H217.111C216.735 120.44 216.547 120.249 216.547 119.869V103.567C216.547 102.954 216.395 102.468 216.092 102.108C215.789 101.749 215.376 101.569 214.853 101.569C214.33 101.569 213.918 101.749 213.614 102.108C213.311 102.468 213.16 102.954 213.16 103.567V119.869C213.16 120.249 212.982 120.44 212.627 120.44H209.804Z" fill="#333333"/>
<path d="M105.921 128.265V127.278H101.383V134.521H102.502V128.265H105.921V128.265ZM110.925 134.521V131.073C110.925 129.903 110.189 129.303 108.729 129.303C108.231 129.303 107.858 129.364 107.558 129.506C107.299 129.618 107.164 129.74 106.874 130.045L107.568 130.686C107.724 130.493 107.838 130.391 107.993 130.32C108.179 130.228 108.397 130.188 108.697 130.188C109.526 130.188 109.878 130.473 109.878 131.144V131.52H108.47C107.351 131.52 106.667 132.08 106.667 133.016C106.667 134.012 107.32 134.572 108.49 134.572C109.112 134.572 109.454 134.48 109.889 134.053V134.521H110.925V134.521ZM109.878 132.66C109.878 133.412 109.547 133.718 108.729 133.718C108.014 133.718 107.693 133.484 107.693 132.985C107.693 132.497 108.014 132.253 108.635 132.253H109.878V132.66V132.66ZM116.84 131.958C116.84 131.347 116.809 131.002 116.726 130.635C116.519 129.74 115.877 129.303 114.944 129.303C114.312 129.303 114.012 129.476 113.587 129.903V129.364H112.551V136.607H113.608V133.992C114.002 134.419 114.354 134.582 114.955 134.582C115.493 134.582 115.949 134.419 116.26 134.114C116.674 133.707 116.84 133.077 116.84 131.958V131.958ZM115.794 131.937C115.794 133.168 115.483 133.656 114.706 133.656C113.929 133.656 113.608 133.168 113.608 131.978C113.608 131.388 113.67 131.002 113.805 130.727C113.971 130.391 114.261 130.228 114.696 130.228C115.483 130.228 115.794 130.706 115.794 131.937V131.937ZM123.501 134.521V129.364H122.465L120.901 132.436L119.326 129.364H118.28V134.521H119.337V131.215L120.569 133.575H121.232L122.444 131.215V134.521H123.501V134.521ZM129.313 131.917C129.313 130.93 129.137 130.361 128.702 129.913C128.308 129.516 127.759 129.303 127.127 129.303C126.495 129.303 125.956 129.516 125.563 129.913C125.117 130.371 124.941 130.93 124.941 131.937C124.941 132.955 125.117 133.514 125.563 133.972C125.956 134.369 126.495 134.582 127.127 134.582C127.759 134.582 128.308 134.369 128.702 133.972C129.147 133.514 129.313 132.955 129.313 131.917ZM128.267 131.958C128.267 132.558 128.194 133.016 127.945 133.311C127.759 133.524 127.479 133.656 127.127 133.656C126.796 133.656 126.526 133.545 126.34 133.331C126.101 133.066 125.998 132.66 125.998 131.978C125.998 131.368 126.06 130.889 126.319 130.574C126.506 130.361 126.775 130.228 127.127 130.228C127.479 130.228 127.749 130.361 127.935 130.564C128.204 130.859 128.267 131.317 128.267 131.958ZM134.959 134.521V129.364H133.902V131.419H131.81V129.364H130.753V134.521H131.81V132.324H133.902V134.521H134.959ZM140.999 134.521V129.364H139.942L137.694 132.863V129.364H136.637V134.521H137.694L139.942 130.971V134.521H140.999ZM146.551 134.521V129.364H144.075C143.071 129.364 142.366 130.025 142.366 130.961C142.366 131.703 142.801 132.253 143.475 132.436L142.294 134.521H143.537L144.531 132.629C144.531 132.629 145.474 132.629 145.495 132.629V134.521H146.551ZM145.505 131.775H144.252C143.723 131.775 143.412 131.48 143.412 131.002C143.412 130.523 143.723 130.228 144.252 130.228H145.505V131.775ZM154.321 130.269V129.364H149.991V130.269H151.658V134.521H152.715V130.269H154.321ZM159.449 132.253V131.785C159.449 130.269 158.589 129.303 157.232 129.303C155.854 129.303 155.005 130.3 155.005 131.917C155.005 133.667 155.813 134.582 157.387 134.582C158.226 134.582 158.734 134.348 159.325 133.779L158.661 133.158C158.289 133.514 157.957 133.697 157.429 133.697C156.445 133.697 156.072 133.117 156.051 132.253H159.449V132.253ZM158.413 131.52H156.051C156.072 130.808 156.382 130.167 157.232 130.167C158.092 130.167 158.361 130.818 158.413 131.52ZM165.074 134.521V129.364H161.459L161.376 132.232C161.345 133.402 160.837 133.616 160.412 133.616H160.195V134.521H160.765C161.738 134.521 162.381 133.911 162.422 132.456L162.484 130.269H164.017V134.521H165.074ZM170.627 134.521V131.073C170.627 129.903 169.891 129.303 168.431 129.303C167.933 129.303 167.56 129.364 167.26 129.506C167.001 129.618 166.866 129.74 166.576 130.045L167.27 130.686C167.426 130.493 167.54 130.391 167.695 130.32C167.882 130.228 168.099 130.188 168.4 130.188C169.228 130.188 169.58 130.473 169.58 131.144V131.52H168.172C167.053 131.52 166.369 132.08 166.369 133.016C166.369 134.012 167.022 134.572 168.192 134.572C168.814 134.572 169.156 134.48 169.591 134.053V134.521H170.627V134.521ZM169.58 132.66C169.58 133.412 169.249 133.718 168.431 133.718C167.716 133.718 167.395 133.484 167.395 132.985C167.395 132.497 167.716 132.253 168.337 132.253H169.58V132.66V132.66ZM179.101 134.521V129.364H178.044L175.796 132.863V129.364H174.739V134.521H175.796L178.044 130.971V134.521H179.101ZM188.114 135.945V133.616H187.388V129.364H183.835V130.086C183.835 131.948 183.597 132.721 183.224 133.616H182.623V135.945H183.628V134.521H187.098V135.945H188.114ZM186.332 133.616H184.312C184.591 132.934 184.798 132.263 184.83 131.113C184.83 131.022 184.84 130.381 184.84 130.269H186.332V133.616ZM193.179 129.364H192.05L190.828 133.005L189.574 129.364H188.445L190.289 134.277L189.999 135.091C189.844 135.528 189.678 135.63 189.243 135.63H188.973V136.566H189.398C190.154 136.566 190.6 136.25 190.859 135.549L193.179 129.364V129.364ZM200.814 134.521V129.364H199.758V133.616H197.986V129.364H196.929V133.616H195.148V129.364H194.091V134.521H200.814ZM206.864 134.521V129.364H205.808L203.56 132.863V129.364H202.503V134.521H203.56L205.808 130.971V134.521H206.864Z" fill="#595959"/>
<path d="M154.124 84.1541C156.365 84.1541 158.487 82.1447 160.105 78.8968C161.88 75.3331 162.978 70.3691 162.978 64.8507C162.978 59.3323 161.88 54.3685 160.105 50.8046C158.487 47.5568 156.366 45.5473 154.124 45.5473C151.882 45.5473 149.761 47.5568 148.143 50.8046C146.368 54.3685 145.27 59.3323 145.27 64.8507C145.27 70.3691 146.368 75.3331 148.143 78.8968C149.761 82.1447 151.882 84.1541 154.124 84.1541ZM162.776 80.1832C160.649 84.4533 157.596 87.095 154.124 87.095C150.651 87.095 147.599 84.4533 145.472 80.1832C143.503 76.2288 142.284 70.8052 142.284 64.8507C142.284 58.8963 143.502 53.4727 145.472 49.5182C147.599 45.2481 150.651 42.6064 154.124 42.6064C157.597 42.6064 160.649 45.2481 162.776 49.5182C164.745 53.4727 165.964 58.8963 165.964 64.8507C165.964 70.8052 164.745 76.2288 162.776 80.1832V80.1832Z" fill="#E6BE80"/>
<path d="M133.705 48.7101C136.622 46.8655 140.626 47.4584 144.741 49.9082C148.55 52.1756 152.538 56.08 155.802 61.083C159.065 66.085 161.012 71.2796 161.522 75.6334C162.074 80.3372 160.956 84.1695 158.039 86.0143C155.122 87.8588 151.118 87.2661 147.003 84.8166C143.194 82.5493 139.206 78.6451 135.943 73.6423L135.916 73.6012C132.669 68.6104 130.73 63.4326 130.222 59.0909C129.67 54.3872 130.788 50.5548 133.705 48.7101V48.7101ZM143.206 52.4157C140.067 50.547 137.187 49.9846 135.31 51.1715C133.433 52.3585 132.755 55.1712 133.175 58.759C133.636 62.6969 135.429 67.4425 138.442 72.0617L138.457 72.0849C141.467 76.6919 145.098 80.2615 148.538 82.309C151.677 84.1776 154.557 84.7398 156.434 83.5528C158.311 82.3659 158.989 79.5532 158.569 75.9653C158.107 72.0277 156.315 67.2819 153.302 62.6629C150.289 58.0446 146.652 54.4665 143.206 52.4157V52.4157Z" fill="#5FA494"/>
<path d="M172.938 51.1714C171.061 49.9845 168.181 50.5468 165.042 52.4154C161.596 54.4662 157.959 58.0443 154.946 62.6628C151.933 67.2821 150.14 72.0279 149.679 75.9653C149.258 79.5532 149.937 82.3659 151.814 83.5529C153.69 84.74 156.571 84.1777 159.71 82.3091C163.155 80.2583 166.793 76.68 169.806 72.0617C172.819 67.4422 174.612 62.6964 175.073 58.759C175.493 55.1711 174.815 52.3583 172.938 51.1714V51.1714ZM163.507 49.9082C167.622 47.4585 171.626 46.8656 174.543 48.7099C177.46 50.5547 178.577 54.3869 178.026 59.0908C177.516 63.4449 175.569 68.6395 172.306 73.6416C169.042 78.6444 165.054 82.549 161.245 84.8163C157.13 87.266 153.126 87.8589 150.209 86.0143C147.292 84.1696 146.174 80.3372 146.726 75.6334C147.236 71.2794 149.183 66.0847 152.446 61.0829C155.709 56.0799 159.698 52.1755 163.507 49.9082V49.9082Z" fill="#F08365"/>
</svg>
