<svg width="306" height="178" viewBox="0 0 306 178" fill="none" xmlns="http://www.w3.org/2000/svg">
<rect width="305.401" height="177.368" fill="#262626"/>
<path fill-rule="evenodd" clip-rule="evenodd" d="M152.927 44.4733C151.97 44.4726 151.021 44.4719 150.089 44.4482C151.931 45.4208 153.522 46.6712 154.967 48.0397C155.135 48.0588 155.304 48.0774 155.475 48.0962L155.476 48.0962C157.477 48.3157 159.646 48.5536 161.119 49.8528C163.57 52.1174 163.335 56.07 160.721 58.1749C158.587 60.0574 155.494 60.6826 152.605 61.2383C155.908 66.1635 159.325 71.1165 163.911 75.2637C165.826 76.9378 167.921 78.6814 170.664 79.2719C172.185 79.4347 173.713 79.3328 175.242 79.2309C176.127 79.1719 177.012 79.1128 177.896 79.1052C170.115 75.1933 164.814 68.6802 159.749 62.4578L159.749 62.4577L159.536 62.197C162.345 61.6413 165.128 60.6409 167.068 58.7375C170.761 55.3545 170.055 49.297 165.551 46.692C161.84 44.4796 157.309 44.4764 152.927 44.4733ZM135.681 44.5507C132.986 44.6247 130.289 44.6988 127.606 44.4691V44.747C129.619 45.5875 130.431 47.5118 130.358 49.3249C130.39 57.6609 130.382 66.0038 130.358 74.3398C130.487 76.2015 129.587 78.0424 127.606 78.9594V79.3345C130.526 78.9712 133.477 79.0397 136.417 79.108C137.188 79.1259 137.957 79.1438 138.726 79.1539C137.524 77.9868 136.21 76.7017 136.307 75.0275C136.22 69.4529 136.236 63.8755 136.252 58.2971C136.261 54.9848 136.27 51.672 136.258 48.3593C139.667 48.0536 143.677 47.7063 146.412 49.8528C148.863 52.0966 148.595 56.0145 146.063 58.1541C144.031 59.9322 141.138 60.5638 138.402 61.161C138.242 61.1961 138.082 61.2311 137.922 61.2662C138.064 61.475 138.205 61.6843 138.347 61.8938C142.288 67.7116 146.371 73.7398 152.662 77.9104C154.967 79.5909 157.92 79.4185 160.776 79.2518H160.776C161.58 79.2049 162.376 79.1584 163.148 79.1539C155.34 75.0831 149.943 68.5394 144.845 62.2109C147.784 61.551 150.827 60.5437 152.686 58.3625C155.559 55.3754 155.429 50.5683 152.256 47.7827C150.308 45.9766 147.467 45.1152 144.699 44.7262C141.705 44.3852 138.694 44.468 135.681 44.5507ZM248.86 124.771L250.674 127.206L248.283 129.997C248.138 130.169 248.008 130.315 247.894 130.438C247.779 130.561 247.657 130.683 247.526 130.805H249.718C249.599 130.771 249.493 130.705 249.413 130.616C249.339 130.534 249.299 130.43 249.3 130.323C249.304 130.249 249.325 130.177 249.362 130.111C249.423 129.999 249.496 129.893 249.579 129.794L251.17 127.85L252.872 130.237C252.951 130.36 253.038 130.479 253.132 130.592C253.199 130.668 253.272 130.739 253.35 130.805H255.076C254.877 130.719 254.695 130.605 254.534 130.468C254.352 130.309 254.192 130.132 254.056 129.939L251.918 127.062L254.463 124.069H252.479C252.59 124.1 252.691 124.156 252.775 124.232C252.844 124.295 252.882 124.382 252.883 124.472C252.88 124.548 252.859 124.622 252.82 124.689C252.777 124.774 252.726 124.857 252.668 124.935L251.463 126.426L250.054 124.53C249.942 124.364 249.808 124.212 249.654 124.079C249.588 124.039 249.344 124.026 248.921 124.039L248.039 124.069C248.188 124.135 248.327 124.221 248.449 124.324C248.604 124.458 248.741 124.608 248.86 124.771ZM245.104 124.069H243.091C243.243 124.169 243.367 124.303 243.449 124.458C243.528 124.638 243.569 124.83 243.568 125.024V129.835C243.57 130.034 243.53 130.232 243.449 130.417C243.368 130.571 243.244 130.702 243.091 130.797H245.104C244.946 130.703 244.817 130.572 244.73 130.417C244.647 130.233 244.612 130.034 244.626 129.835V125.024C244.619 124.83 244.657 124.637 244.736 124.458C244.82 124.301 244.947 124.167 245.104 124.069ZM238.533 129.987V127.359L238.997 127.321C239.153 127.302 239.294 127.302 239.419 127.302C240.107 127.301 240.603 127.416 240.909 127.648C241.06 127.762 241.18 127.909 241.26 128.074C241.339 128.24 241.376 128.42 241.367 128.601C241.381 128.999 241.224 129.387 240.932 129.678C240.648 129.949 240.208 130.081 239.613 130.073C239.446 130.073 239.271 130.067 239.083 130.053C238.898 130.041 238.715 130.019 238.533 129.987ZM239.011 124.069H236.996C237.148 124.169 237.271 124.303 237.353 124.458C237.433 124.637 237.474 124.83 237.472 125.024V129.835C237.476 130.035 237.435 130.232 237.353 130.417C237.271 130.571 237.148 130.702 236.994 130.797H239.518C240.543 130.797 241.306 130.599 241.808 130.206C242.057 130.009 242.254 129.763 242.384 129.485C242.515 129.207 242.575 128.905 242.561 128.603C242.56 127.955 242.326 127.453 241.86 127.097C241.394 126.741 240.738 126.564 239.894 126.564C239.729 126.564 239.521 126.572 239.271 126.588C239.02 126.603 238.774 126.622 238.533 126.64V125.024C238.526 124.83 238.563 124.638 238.642 124.458C238.726 124.301 238.854 124.167 239.011 124.069ZM232.148 126.725H228.151V125.031C228.141 124.832 228.178 124.633 228.26 124.448C228.347 124.295 228.474 124.165 228.629 124.069H226.614C226.765 124.168 226.889 124.298 226.977 124.448C227.063 124.632 227.102 124.831 227.092 125.031V129.842C227.103 130.045 227.064 130.247 226.977 130.434C226.891 130.583 226.766 130.71 226.614 130.805H228.629C228.473 130.713 228.345 130.585 228.26 130.434C228.178 130.246 228.141 130.044 228.151 129.842V127.495H232.148V129.838C232.16 130.041 232.12 130.243 232.034 130.43C231.947 130.579 231.823 130.706 231.67 130.8H233.684C233.528 130.709 233.401 130.581 233.316 130.43C233.233 130.242 233.195 130.04 233.206 129.838V125.027C233.196 124.827 233.234 124.628 233.316 124.444C233.403 124.291 233.529 124.161 233.684 124.065H231.67C231.821 124.164 231.946 124.293 232.034 124.444C232.12 124.627 232.159 124.827 232.148 125.027V126.725ZM221.767 126.725H217.769V125.031C217.76 124.832 217.796 124.633 217.878 124.448C217.965 124.295 218.092 124.165 218.247 124.069H216.232C216.383 124.168 216.507 124.298 216.595 124.448C216.681 124.632 216.721 124.831 216.71 125.031V129.842C216.721 130.045 216.682 130.247 216.595 130.434C216.509 130.583 216.384 130.71 216.232 130.805H218.247C218.091 130.713 217.963 130.585 217.878 130.434C217.796 130.246 217.759 130.044 217.769 129.842V127.495H221.767V129.838C221.778 130.041 221.739 130.243 221.652 130.43C221.565 130.579 221.441 130.706 221.289 130.8H223.302C223.146 130.709 223.02 130.581 222.934 130.43C222.851 130.242 222.814 130.04 222.825 129.838V125.027C222.814 124.827 222.852 124.628 222.934 124.444C223.021 124.291 223.148 124.161 223.302 124.065H221.289C221.439 124.164 221.564 124.293 221.652 124.444C221.738 124.627 221.777 124.827 221.767 125.027V126.725ZM208.647 127.599L209.775 124.945L210.913 127.599H208.647ZM210.505 124.069H208.797C208.857 124.093 208.912 124.128 208.958 124.172C209.003 124.216 209.039 124.268 209.062 124.325C209.106 124.455 209.097 124.595 209.036 124.718L206.954 129.588C206.844 129.864 206.699 130.127 206.522 130.372C206.386 130.547 206.214 130.696 206.017 130.81H207.969C207.806 130.713 207.683 130.567 207.623 130.396C207.579 130.18 207.613 129.957 207.72 129.762L208.372 128.25H211.191L211.975 130.059C212.049 130.204 212.059 130.369 212.006 130.522C211.936 130.653 211.813 130.755 211.664 130.805H213.887C213.697 130.717 213.526 130.596 213.386 130.448C213.221 130.257 213.091 130.043 213.001 129.813L210.505 124.069ZM198.749 130.805H200.929C200.721 130.723 200.548 130.579 200.439 130.394C200.323 130.175 200.27 129.931 200.287 129.687V124.875C200.424 124.85 200.569 124.829 200.717 124.813C200.74 124.811 200.763 124.808 200.786 124.806C200.91 124.792 201.03 124.779 201.158 124.779C201.643 124.779 202.022 124.891 202.294 125.116C202.433 125.234 202.543 125.378 202.615 125.539C202.688 125.7 202.721 125.874 202.714 126.049C202.722 126.271 202.674 126.493 202.573 126.695C202.472 126.897 202.321 127.075 202.133 127.213C201.712 127.502 201.202 127.656 200.679 127.655C200.828 127.699 200.982 127.732 201.137 127.751C201.278 127.77 201.42 127.78 201.563 127.781C202.269 127.786 202.837 127.605 203.265 127.237C203.474 127.063 203.639 126.85 203.75 126.612C203.861 126.373 203.916 126.116 203.91 125.856C203.922 125.61 203.872 125.364 203.764 125.138C203.656 124.913 203.493 124.714 203.287 124.557C202.87 124.242 202.217 124.082 201.325 124.076H198.749C198.902 124.176 199.025 124.31 199.108 124.465C199.187 124.645 199.228 124.837 199.227 125.031V129.842C199.238 130.045 199.199 130.247 199.113 130.434C199.026 130.583 198.901 130.71 198.749 130.805ZM191.7 130.005V127.427L192.224 127.393C192.366 127.379 192.485 127.379 192.583 127.379C193.264 127.378 193.757 127.49 194.062 127.715C194.213 127.824 194.335 127.965 194.417 128.125C194.499 128.286 194.539 128.462 194.534 128.64C194.528 129.12 194.369 129.482 194.058 129.726C193.746 129.971 193.32 130.093 192.78 130.093C192.607 130.093 192.429 130.086 192.245 130.073C192.062 130.06 191.88 130.038 191.7 130.005ZM194.592 124.069H190.164C190.317 124.17 190.44 124.305 190.522 124.461C190.602 124.64 190.643 124.833 190.641 125.027V129.838C190.644 130.037 190.604 130.235 190.522 130.42C190.441 130.573 190.317 130.705 190.164 130.8H192.687C193.713 130.8 194.476 130.608 194.977 130.223C195.224 130.033 195.421 129.793 195.552 129.52C195.682 129.248 195.743 128.951 195.729 128.654C195.724 128.028 195.489 127.541 195.022 127.192C194.556 126.843 193.901 126.668 193.056 126.668C192.931 126.668 192.751 126.674 192.516 126.687L191.696 126.735V124.84H193.876C194.103 124.832 194.329 124.86 194.546 124.922C194.706 124.975 194.85 125.062 194.966 125.177V124.045C194.905 124.058 194.843 124.066 194.78 124.069H194.592ZM182.105 124.079L181.952 125.29C182.291 125.098 182.657 124.951 183.039 124.851C183.397 124.758 183.768 124.711 184.14 124.71C184.495 124.69 184.847 124.78 185.141 124.966C185.259 125.05 185.354 125.158 185.416 125.283C185.479 125.408 185.507 125.545 185.5 125.682C185.501 125.834 185.463 125.984 185.39 126.12C185.317 126.256 185.21 126.375 185.079 126.466C184.809 126.661 184.383 126.756 183.801 126.749C183.682 126.75 183.562 126.745 183.444 126.735C183.349 126.725 183.21 126.704 183.044 126.673V127.672C183.184 127.611 183.332 127.567 183.485 127.541C183.678 127.51 183.875 127.496 184.071 127.498C184.531 127.476 184.986 127.596 185.364 127.84C185.521 127.95 185.647 128.094 185.731 128.259C185.815 128.424 185.855 128.606 185.847 128.788C185.852 128.988 185.802 129.185 185.702 129.362C185.602 129.538 185.455 129.689 185.276 129.798C184.901 130.035 184.389 130.154 183.738 130.154C183.324 130.157 182.913 130.085 182.529 129.943C182.123 129.78 181.758 129.539 181.46 129.235L181.741 130.544C182.04 130.692 182.36 130.799 182.691 130.863C183.052 130.923 183.419 130.952 183.786 130.949C184.811 130.948 185.609 130.751 186.18 130.357C186.458 130.169 186.682 129.919 186.831 129.631C186.98 129.343 187.051 129.025 187.036 128.706C187.051 128.268 186.877 127.843 186.554 127.523C186.389 127.366 186.191 127.242 185.972 127.159C185.753 127.076 185.518 127.036 185.282 127.042V127.014C185.672 126.956 186.03 126.781 186.303 126.517C186.561 126.253 186.698 125.906 186.683 125.55C186.693 125.319 186.639 125.088 186.529 124.88C186.418 124.672 186.254 124.492 186.05 124.358C185.628 124.069 184.985 123.925 184.118 123.925C183.776 123.922 183.434 123.944 183.096 123.991C182.768 124.039 182.437 124.068 182.105 124.079ZM176.761 124.444L173.065 129.551V125.028C173.055 124.829 173.092 124.63 173.173 124.445C173.261 124.292 173.387 124.162 173.543 124.066H171.529C171.679 124.165 171.804 124.295 171.892 124.445C171.977 124.629 172.016 124.829 172.005 125.028V129.839C172.016 130.042 171.978 130.244 171.892 130.431C171.805 130.58 171.681 130.707 171.529 130.802H173.002C173.063 130.759 173.12 130.711 173.173 130.66C173.243 130.588 173.307 130.51 173.366 130.43L177.062 125.323V129.842C177.073 130.045 177.034 130.247 176.947 130.434C176.861 130.583 176.736 130.71 176.584 130.805H178.598C178.442 130.713 178.315 130.585 178.23 130.434C178.147 130.246 178.11 130.044 178.121 129.842V125.031C178.111 124.832 178.148 124.633 178.23 124.448C178.317 124.296 178.443 124.165 178.598 124.069H177.124C177.059 124.116 176.999 124.167 176.943 124.223C176.876 124.292 176.815 124.366 176.761 124.444ZM161.836 124.8V129.842C161.836 130.036 161.795 130.228 161.715 130.407C161.633 130.561 161.51 130.692 161.356 130.788H163.371C163.213 130.693 163.084 130.562 162.997 130.407C162.913 130.224 162.878 130.024 162.894 129.825V125.014C162.887 124.821 162.924 124.628 163.002 124.448C163.087 124.291 163.214 124.157 163.371 124.059C163.197 124.059 163.044 124.059 162.913 124.06C162.702 124.06 162.55 124.061 162.455 124.059C162.39 124.058 162.325 124.055 162.259 124.052C162.172 124.049 162.085 124.045 161.997 124.045C161.627 124.041 161.382 124.035 161.265 124.032C161.223 124.031 161.197 124.031 161.188 124.031H161.094C160.222 124.029 159.567 124.192 159.127 124.52C158.687 124.849 158.468 125.317 158.468 125.925C158.463 126.121 158.502 126.315 158.58 126.496C158.659 126.677 158.777 126.842 158.926 126.98C159.28 127.304 159.74 127.512 160.234 127.571C159.7 128.321 159.1 129.027 158.439 129.684C157.857 130.242 157.338 130.616 156.881 130.805L157.645 130.847C157.803 130.863 157.929 130.863 158.019 130.863C158.439 130.854 158.957 130.534 159.573 129.903C160.189 129.272 160.843 128.376 161.535 127.215C161.069 127.266 160.6 127.16 160.211 126.917C160.04 126.814 159.901 126.673 159.805 126.506C159.71 126.339 159.662 126.152 159.666 125.964C159.656 125.797 159.685 125.631 159.75 125.476C159.815 125.321 159.916 125.181 160.045 125.065C160.298 124.85 160.664 124.742 161.141 124.742C161.272 124.742 161.394 124.747 161.504 124.757C161.614 124.767 161.726 124.781 161.836 124.8ZM154.355 129.842V125.031H154.367C154.349 124.83 154.384 124.628 154.469 124.442C154.562 124.289 154.694 124.158 154.854 124.063H149.57C149.698 124.106 149.815 124.173 149.913 124.26C150.011 124.347 150.089 124.452 150.141 124.568C150.258 124.815 150.327 125.29 150.327 125.998C150.325 127.223 150.223 128.201 150.022 128.932C149.82 129.664 149.519 130.029 149.118 130.029C149.003 130.03 148.89 130.007 148.787 129.961C148.672 129.908 148.569 129.837 148.481 129.75L148.616 130.857C148.697 130.882 148.78 130.903 148.864 130.919C148.95 130.935 149.037 130.943 149.124 130.943C149.816 130.943 150.339 130.571 150.692 129.827C151.045 129.082 151.222 127.771 151.222 125.891V124.833H153.306V129.842C153.308 130.042 153.267 130.239 153.185 130.424C153.105 130.578 152.981 130.709 152.828 130.805H154.832C154.674 130.71 154.545 130.579 154.458 130.424C154.375 130.24 154.34 130.041 154.355 129.842ZM142.106 124.833H144.266L144.263 130.035H140.919C141.339 129.305 141.642 128.524 141.82 127.714C142.022 126.765 142.118 125.8 142.106 124.833ZM145.805 124.063H140.518V124.069C140.733 124.178 140.907 124.346 141.016 124.55C141.143 124.83 141.203 125.131 141.193 125.434C141.2 126.27 141.092 127.102 140.87 127.912C140.661 128.662 140.328 129.378 139.884 130.035H139.034V132.331L139.657 132.552C139.615 132.124 139.679 131.693 139.843 131.291C139.996 130.959 140.246 130.792 140.599 130.792H144.748C145.093 130.792 145.341 130.959 145.493 131.291C145.657 131.693 145.725 132.124 145.69 132.552L146.313 132.331V130.022H145.327V125.018C145.32 124.825 145.357 124.632 145.437 124.452C145.521 124.295 145.648 124.161 145.805 124.063ZM131.263 124.063H127.235L127.24 124.069C127.394 124.171 127.517 124.308 127.597 124.468C127.677 124.647 127.718 124.84 127.718 125.034V129.845C127.726 130.043 127.687 130.24 127.603 130.422C127.52 130.578 127.395 130.71 127.24 130.807H131.76L132.289 129.45C132.028 129.671 131.714 129.831 131.373 129.917C130.963 130.01 130.542 130.051 130.121 130.038C129.91 130.038 129.684 130.033 129.452 130.023C129.22 130.014 128.992 129.995 128.771 129.97V127.554H129.85C130.006 127.551 130.16 127.571 130.309 127.612C130.434 127.651 130.547 127.717 130.64 127.805V126.752C130.579 126.765 130.516 126.773 130.454 126.776H130.266H128.771V124.851L130.173 124.823C130.39 124.818 130.608 124.844 130.817 124.9C130.989 124.951 131.143 125.044 131.263 125.17V124.063ZM117.995 125.439C118.513 124.958 119.192 124.715 120.03 124.707L120.035 124.713C120.41 124.705 120.782 124.774 121.125 124.915C121.468 125.056 121.773 125.266 122.018 125.529C122.537 126.071 122.797 126.759 122.797 127.594C122.809 127.934 122.745 128.272 122.611 128.589C122.476 128.905 122.273 129.192 122.014 129.433C121.491 129.914 120.814 130.155 119.983 130.155C119.606 130.166 119.23 130.099 118.884 129.959C118.538 129.819 118.229 129.61 117.98 129.347C117.464 128.808 117.21 128.119 117.217 127.278C117.204 126.939 117.267 126.6 117.401 126.284C117.535 125.967 117.737 125.68 117.995 125.439ZM122.86 124.891C122.101 124.243 121.151 123.919 120.009 123.919L120.014 123.925C118.769 123.925 117.79 124.269 117.076 124.955C116.384 125.617 116.004 126.506 116.018 127.428C116.019 128.481 116.396 129.33 117.149 129.975C117.903 130.621 118.854 130.943 120.005 130.943C121.24 130.942 122.214 130.597 122.927 129.909C123.273 129.582 123.546 129.195 123.729 128.769C123.912 128.344 124.003 127.889 123.995 127.431C123.996 126.386 123.618 125.539 122.86 124.891ZM111.252 126.725H107.255V125.031C107.245 124.832 107.282 124.633 107.363 124.448C107.45 124.295 107.577 124.165 107.733 124.069H105.717C105.868 124.168 105.992 124.298 106.081 124.448C106.167 124.632 106.206 124.831 106.195 125.031V129.842C106.206 130.045 106.167 130.247 106.081 130.434C105.994 130.583 105.869 130.71 105.717 130.805H107.733C107.576 130.713 107.449 130.585 107.363 130.434C107.281 130.246 107.244 130.044 107.255 129.842V127.495H111.252V129.838C111.263 130.041 111.224 130.243 111.137 130.43C111.051 130.579 110.926 130.706 110.774 130.8H112.788C112.632 130.709 112.505 130.581 112.42 130.43C112.336 130.242 112.299 130.04 112.31 129.838V125.027C112.299 124.827 112.337 124.628 112.42 124.444C112.506 124.291 112.633 124.161 112.788 124.065H110.774C110.925 124.164 111.049 124.293 111.137 124.444C111.223 124.627 111.262 124.827 111.252 125.027V126.725ZM100.87 126.725H96.8728V125.031C96.8629 124.832 96.8998 124.633 96.9812 124.448C97.0684 124.295 97.1954 124.165 97.3506 124.069H95.3353C95.4862 124.168 95.6105 124.298 95.6987 124.448C95.7847 124.632 95.8238 124.831 95.8132 125.031V129.842C95.8245 130.045 95.7853 130.247 95.6987 130.434C95.6121 130.583 95.4874 130.71 95.3353 130.805H97.3506C97.1943 130.713 97.0669 130.585 96.9812 130.434C96.8992 130.246 96.8622 130.044 96.8728 129.842V127.495H100.87V129.838C100.881 130.041 100.842 130.243 100.755 130.43C100.669 130.579 100.544 130.706 100.392 130.8H102.406C102.25 130.709 102.123 130.581 102.038 130.43C101.954 130.242 101.917 130.04 101.928 129.838V125.027C101.918 124.827 101.955 124.628 102.038 124.444C102.124 124.291 102.251 124.161 102.406 124.065H100.392C100.543 124.164 100.667 124.293 100.755 124.444C100.841 124.627 100.88 124.827 100.87 125.027V126.725ZM87.7505 127.599L88.8787 124.945L90.0162 127.599H87.7505ZM89.6085 124.069H87.9001C87.9606 124.093 88.0152 124.128 88.0609 124.172C88.1065 124.216 88.1421 124.268 88.1657 124.325C88.2096 124.455 88.2004 124.595 88.1398 124.718L86.0573 129.588C85.9469 129.864 85.8019 130.127 85.6252 130.372C85.4894 130.547 85.3177 130.696 85.1199 130.81H87.0802C86.9166 130.713 86.7942 130.567 86.7337 130.396C86.6896 130.18 86.724 129.957 86.8314 129.762L87.4833 128.25H90.294L91.0788 130.059C91.1519 130.204 91.1628 130.369 91.1093 130.522C91.0393 130.653 90.9167 130.755 90.7673 130.805H92.9903C92.7999 130.717 92.6298 130.596 92.4895 130.448C92.3239 130.258 92.1939 130.043 92.1047 129.813L89.6085 124.069ZM77.8526 130.805H80.0328C79.8248 130.726 79.6516 130.584 79.5411 130.403C79.4246 130.183 79.372 129.939 79.3885 129.695V124.884C79.5259 124.858 79.6709 124.837 79.819 124.822C79.8391 124.82 79.8591 124.817 79.8791 124.815C80.0071 124.801 80.1348 124.788 80.2602 124.788C80.7447 124.788 81.1234 124.9 81.3961 125.125C81.534 125.241 81.643 125.384 81.7157 125.544C81.7885 125.703 81.8232 125.875 81.8175 126.049C81.8257 126.271 81.7773 126.493 81.6763 126.695C81.5753 126.897 81.4244 127.075 81.2358 127.213C80.8153 127.502 80.3055 127.656 79.7824 127.655C79.9316 127.699 80.0849 127.732 80.2404 127.751C80.3815 127.77 80.5238 127.78 80.6664 127.781C81.3717 127.786 81.9392 127.605 82.3687 127.237C82.5768 127.063 82.7421 126.85 82.8533 126.612C82.9645 126.373 83.0189 126.116 83.013 125.856C83.0254 125.61 82.9756 125.364 82.8675 125.138C82.7593 124.913 82.5958 124.714 82.39 124.557C81.9738 124.242 81.3198 124.082 80.4282 124.076H77.8526C78.0052 124.176 78.1285 124.31 78.2113 124.465C78.2904 124.645 78.3308 124.837 78.3304 125.031V129.842C78.3417 130.045 78.3025 130.247 78.2159 130.434C78.1293 130.583 78.0046 130.71 77.8526 130.805ZM70.8036 130.005V127.427L71.3273 127.393C71.4692 127.379 71.5883 127.379 71.686 127.379C72.367 127.378 72.8601 127.49 73.1655 127.715C73.3168 127.824 73.4383 127.965 73.5203 128.125C73.6022 128.286 73.6423 128.462 73.6372 128.64C73.6311 129.12 73.4723 129.482 73.1609 129.726C72.8494 129.971 72.4234 130.093 71.883 130.093C71.7105 130.093 71.5318 130.086 71.3486 130.073C71.1657 130.06 70.9837 130.038 70.8036 130.005ZM73.6952 124.069H69.2677C69.4203 124.17 69.5431 124.305 69.6249 124.461C69.7054 124.64 69.7459 124.833 69.744 125.027V129.838C69.7474 130.037 69.7069 130.235 69.6249 130.42C69.5439 130.573 69.4207 130.705 69.2677 130.8H71.7883C72.8143 130.8 73.5777 130.608 74.0784 130.223C74.3262 130.033 74.523 129.793 74.6536 129.52C74.7842 129.248 74.845 128.951 74.8311 128.654C74.8311 128.023 74.5975 127.534 74.1304 127.185C73.6632 126.836 73.0077 126.661 72.1639 126.661C72.0387 126.661 71.8586 126.667 71.6234 126.68L70.8036 126.728V124.833H72.9792C73.2064 124.828 73.433 124.858 73.6494 124.922C73.8094 124.975 73.9534 125.062 74.0693 125.177V124.045C74.0082 124.058 73.9458 124.066 73.883 124.069H73.6952ZM61.208 124.079L61.0553 125.29C61.3919 125.099 61.755 124.951 62.1347 124.851C62.493 124.758 62.8633 124.711 63.2355 124.71C63.5907 124.69 63.9429 124.78 64.2371 124.966C64.3549 125.05 64.4492 125.158 64.5117 125.283C64.5742 125.408 64.6031 125.545 64.5958 125.682C64.5971 125.834 64.5603 125.983 64.4882 126.12C64.4161 126.256 64.3108 126.374 64.1805 126.466C63.9108 126.661 63.4849 126.756 62.9027 126.749C62.7834 126.75 62.6641 126.745 62.5454 126.735C62.4507 126.725 62.3118 126.704 62.1454 126.673V127.679C62.2857 127.618 62.4341 127.574 62.5866 127.549C62.7802 127.517 62.9764 127.503 63.1729 127.505C63.633 127.483 64.0879 127.603 64.4661 127.847C64.623 127.957 64.7488 128.101 64.8328 128.266C64.9168 128.431 64.9565 128.613 64.9485 128.795C64.9517 128.992 64.9015 129.187 64.8025 129.361C64.7035 129.535 64.559 129.684 64.3821 129.793C64.0075 130.03 63.495 130.148 62.8446 130.148C62.4306 130.151 62.0198 130.08 61.6355 129.937C61.229 129.774 60.8646 129.533 60.5667 129.23L60.8477 130.539C61.1461 130.686 61.4659 130.793 61.7973 130.857C62.1584 130.918 62.5249 130.947 62.892 130.943C63.9169 130.942 64.7149 130.745 65.2859 130.352C65.5628 130.163 65.7854 129.915 65.9342 129.628C66.083 129.341 66.1535 129.024 66.1394 128.706C66.1538 128.268 65.9803 127.843 65.6569 127.523C65.4923 127.366 65.2943 127.242 65.0754 127.159C64.8565 127.076 64.6215 127.036 64.3851 127.042V127.014C64.7749 126.956 65.1336 126.781 65.4065 126.517C65.6645 126.253 65.8009 125.906 65.7867 125.55C65.7958 125.319 65.7427 125.088 65.6321 124.88C65.5215 124.672 65.357 124.492 65.1531 124.358C64.7307 124.069 64.0869 123.925 63.2218 123.925C62.8794 123.922 62.5374 123.944 62.1988 123.991C61.8708 124.039 61.5399 124.068 61.208 124.079ZM55.8644 124.444L52.1681 129.551V125.028C52.1582 124.829 52.1952 124.63 52.2765 124.445C52.3638 124.292 52.4908 124.162 52.646 124.066H50.6322C50.7827 124.165 50.9069 124.295 50.9956 124.445C51.0802 124.629 51.1188 124.829 51.1085 125.028V129.839C51.1195 130.042 51.0808 130.244 50.9956 130.431C50.9085 130.58 50.7839 130.707 50.6322 130.802H52.1055C52.1663 130.759 52.2234 130.711 52.2765 130.66C52.3463 130.588 52.4106 130.51 52.4689 130.43L56.1651 125.323V129.842C56.1764 130.045 56.1372 130.247 56.0506 130.434C55.9641 130.583 55.8393 130.71 55.6873 130.805H57.701C57.5455 130.713 57.4186 130.585 57.3331 130.434C57.2504 130.246 57.2134 130.044 57.2247 129.842V125.031C57.214 124.832 57.251 124.633 57.3331 124.448C57.4203 124.296 57.5466 124.165 57.701 124.069H56.2277C56.1627 124.116 56.1019 124.167 56.0461 124.223C55.979 124.292 55.9182 124.366 55.8644 124.444ZM242.718 99.686C242.509 99.6092 242.285 99.5735 242.06 99.5813L239.107 99.6294C239.814 99.9403 240.407 100.438 240.81 101.06L245.489 107.748V112.245C245.489 112.833 245.489 113.675 244.443 114.349H248.849C247.805 113.675 247.805 112.833 247.805 112.245V107.762L253.663 99.6167H249.735C250.12 99.8063 250.507 100.205 250.507 100.689C250.486 100.994 250.376 101.288 250.188 101.538L247.056 106.042L242.718 99.686ZM233.91 114.356C232.866 113.682 232.866 112.84 232.866 112.252V101.308L235.409 101.286C235.976 101.286 236.793 101.286 237.225 102.002L238.02 99.5389C237.561 99.5904 237.098 99.6187 236.635 99.6238H227.847C227.361 99.6392 226.874 99.6107 226.394 99.5389L225.486 102.171C225.792 101.88 226.16 101.651 226.567 101.499C226.973 101.347 227.409 101.275 227.847 101.286L230.55 101.308V112.252C230.55 112.84 230.55 113.682 229.504 114.356H233.91ZM219.174 101.728C219.174 101.202 219.218 100.276 220.333 99.6238H215.806C216.849 100.297 216.849 101.139 216.849 101.728V112.257C216.849 112.846 216.849 113.688 215.806 114.362H225.577L226.849 111.304C225.418 112.419 223.261 112.672 221.785 112.672C220.912 112.65 220.04 112.587 219.174 112.482V101.728ZM207.844 107.347H202.917L205.369 101.545L207.844 107.347ZM212.43 112.189L206.959 99.6238L203.232 99.6125C204.162 100.017 203.844 100.818 203.754 101.028L199.212 111.677C198.781 112.688 198.326 113.636 197.145 114.35H201.436C200.371 113.655 200.575 112.794 200.891 112.056L202.322 108.752H208.429L210.156 112.714C210.36 113.198 210.543 113.914 209.475 114.356H214.36C213.247 113.81 212.794 113.009 212.43 112.189ZM194.287 102.051V99.6238H185.477C186.522 100.297 186.522 101.18 186.522 101.728V112.246C186.522 112.794 186.522 113.677 185.477 114.35H195.378L196.537 111.379C195.537 112.199 194.287 112.664 191.79 112.664C191.337 112.664 190.224 112.648 188.839 112.522V107.25H191.2C191.995 107.25 192.494 107.397 192.926 107.797V105.503C192.656 105.546 192.382 105.567 192.108 105.566H188.839V101.357L191.903 101.294C193.244 101.272 193.858 101.588 194.287 102.051ZM172.68 99.5812L172.676 99.5813L172.671 99.5814C171.673 99.6026 170.675 99.6238 169.677 99.6238C170.721 100.297 170.721 101.139 170.721 101.728V112.249C170.721 112.838 170.721 113.68 169.677 114.353H174.076C173.033 113.68 173.033 112.838 173.033 112.249V101.241C173.532 101.129 174.046 101.082 174.56 101.1C177.353 101.1 177.74 102.615 177.74 103.562C177.74 105.665 175.332 106.533 173.698 106.675C175.127 109.158 178.671 114.482 181.282 114.482C181.532 114.482 182.146 114.461 183.735 114.356C181.486 113.494 178.193 109.683 176.422 107.095C178.876 106.716 180.352 105.096 180.352 103.369C180.352 102.212 179.828 99.5389 174.651 99.5389C173.995 99.5389 173.338 99.56 172.68 99.5812ZM155.851 100.865C156.782 100.865 158.144 101.013 159.735 102.233L159.747 99.7709C158.556 99.4534 157.322 99.2976 156.083 99.3082C151.35 99.3082 150.129 101.434 150.129 103.243C150.129 105.559 152.06 106.485 154.648 107.579C154.802 107.644 154.955 107.707 155.106 107.77C156.924 108.522 158.486 109.169 158.486 110.736C158.486 112.147 157.032 112.988 154.784 112.988C152.104 112.988 150.492 111.936 149.652 111.263L150.31 114.04C151.707 114.477 153.174 114.69 154.648 114.671C157.964 114.671 161.029 113.32 161.029 110.143C161.029 107.869 159.416 107.091 156.736 105.976C153.99 104.84 152.741 104.25 152.741 102.987C152.741 102.192 153.286 100.865 155.851 100.865ZM142.161 100.865C143.092 100.865 144.454 101.013 146.045 102.233L146.057 99.7709C144.866 99.4536 143.632 99.2977 142.393 99.3082C137.66 99.3082 136.438 101.434 136.438 103.243C136.438 105.559 138.362 106.485 140.957 107.579C141.112 107.644 141.265 107.708 141.417 107.77C143.233 108.523 144.794 109.169 144.794 110.736C144.794 112.147 143.341 112.988 141.093 112.988C138.414 112.988 136.802 111.936 135.962 111.263L136.62 114.04C138.017 114.477 139.484 114.69 140.957 114.671C144.272 114.671 147.338 113.32 147.338 110.143C147.338 107.869 145.725 107.091 143.046 105.976C140.299 104.84 139.049 104.25 139.049 102.987C139.049 102.192 139.594 100.865 142.161 100.865ZM132.33 102.051V99.6238H123.514C124.559 100.297 124.559 101.18 124.559 101.728V112.246C124.559 112.794 124.559 113.677 123.514 114.35H133.414L134.571 111.379C133.573 112.199 132.324 112.664 129.826 112.664C129.371 112.664 128.258 112.648 126.873 112.522V107.25H129.243C130.037 107.25 130.536 107.397 130.967 107.797V105.503C130.697 105.546 130.423 105.567 130.15 105.566H126.879V101.357L129.945 101.294C131.286 101.272 131.898 101.588 132.33 102.051ZM109.826 100.171C109.689 100.002 109.575 99.8182 109.485 99.6238H106.1C107.145 100.297 107.145 101.139 107.145 101.728V112.253C107.145 112.842 107.145 113.684 106.1 114.357H109.962C108.917 113.684 108.917 112.842 108.917 112.253V102.677L117.342 112.441C117.368 112.472 117.394 112.503 117.421 112.533C118.195 113.438 119.084 114.477 120.884 114.945V101.728C120.884 101.139 120.884 100.297 121.93 99.6238H118.069C119.113 100.297 119.113 101.139 119.113 101.728V110.905L109.826 100.171ZM99.714 101.728V105.426L90.978 105.433V101.728C90.978 101.039 91.0009 100.297 92.0238 99.6238H87.6176C88.639 100.297 88.6619 101.033 88.6619 101.728V112.252C88.6619 112.942 88.639 113.682 87.6176 114.357H92.0238C91.0009 113.682 90.978 112.947 90.978 112.252V107.116H99.7202V112.252C99.7202 112.942 99.6988 113.682 98.6774 114.357H103.076C102.053 113.682 102.032 112.947 102.032 112.252V101.728C102.032 101.039 102.055 100.297 103.076 99.6238H98.6713C99.6927 100.297 99.714 101.033 99.714 101.728ZM80.2099 101.09C81.8211 101.107 83.3889 101.577 84.7061 102.437L84.7107 99.8757C84.2826 99.8232 83.8583 99.7461 83.4405 99.645C82.4727 99.4209 81.4791 99.3068 80.4816 99.3054C74.7365 99.3054 71.6494 103.047 71.6494 107.088C71.6494 110.35 73.7609 114.664 80.5732 114.664C82.0664 114.664 83.2023 114.538 84.5428 114.138L86.0863 111.319C85.4054 111.844 83.8832 112.876 80.7503 112.876C76.164 112.876 74.2555 109.593 74.2555 106.521C74.2555 102.921 77.2342 101.09 80.2099 101.09ZM69.1104 101.728C69.1104 101.139 69.1104 100.297 70.1547 99.6238H65.75C66.7928 100.297 66.7928 101.139 66.7928 101.728V112.252C66.7928 112.84 66.7928 113.682 65.75 114.356H70.1547C69.1104 113.682 69.1104 112.84 69.1104 112.252V101.728ZM53.4261 99.5812L53.4216 99.5813C52.4231 99.6025 51.4231 99.6238 50.4246 99.6238C51.4689 100.297 51.4689 101.139 51.4689 101.728V112.249C51.4689 112.838 51.4689 113.68 50.4246 114.353H54.8246C53.7804 113.68 53.7803 112.838 53.7803 112.249V101.241C54.2799 101.129 54.7936 101.082 55.3071 101.1C58.0995 101.1 58.4858 102.615 58.4858 103.562C58.4858 105.665 56.0781 106.533 54.4445 106.675C55.875 109.158 59.4171 114.482 62.0278 114.482C62.2782 114.482 62.8905 114.461 64.4813 114.356C62.2324 113.494 58.9408 109.683 57.1682 107.095C59.6217 106.716 61.0965 105.096 61.0965 103.369C61.0965 102.212 60.5759 99.5389 55.3972 99.5389C54.7407 99.5389 54.0842 99.56 53.4261 99.5812Z" fill="url(#paint0_linear_306_519)"/>
<defs>
<linearGradient id="paint0_linear_306_519" x1="-30.725" y1="8.00019" x2="374.858" y2="205.345" gradientUnits="userSpaceOnUse">
<stop stop-color="#DABE83"/>
<stop offset="1" stop-color="#C9792F"/>
</linearGradient>
</defs>
</svg>
