<svg width="200" height="108" viewBox="0 0 200 108" fill="none" xmlns="http://www.w3.org/2000/svg">
<g clip-path="url(#clip0_337_521)">
<rect width="200" height="108" fill="#595959"/>
<g clip-path="url(#clip1_337_521)">
<path fill-rule="evenodd" clip-rule="evenodd" d="M89.8955 15.7762L85.3267 14V19.3261H110.914V14L106.346 15.7762L98.1213 14L89.8955 15.7762ZM112.742 70.8125V46.8449H115.238L110.914 35.3045H99.9485V37.9676L103.604 38.9194V49.3868L94.4655 40.5095V31.7546H110.914V22.8773H85.3267V44.1806L112.742 70.8125ZM74.9772 92.4723V94.856H71.7146C69.6694 94.856 69.2261 94.5293 69.2261 92.5524V84.2168H67.3751V81.8857L72.5731 78.3163V81.8857H74.9785V84.2168H72.5731V91.5784C72.5731 92.3909 72.6574 92.4723 73.4852 92.4723H74.9772ZM80.8612 84.6863V94.8573H77.5986V81.8869H80.8612V82.8009C81.9381 81.9333 82.8515 81.7442 83.9296 81.7442C85.0359 81.7442 86.031 81.9871 86.7783 82.8547C87.5244 82.0146 88.6856 81.7442 89.7369 81.7442C91.008 81.7442 92.8054 82.4491 92.8054 83.5871V94.8585H89.5428V84.8215C89.5428 84.4172 89.4866 84.3608 89.0727 84.3608H87.136C86.9431 84.3608 86.832 84.496 86.832 84.6863V94.8585H83.5426V84.8215C83.5426 84.4172 83.4876 84.3608 83.1006 84.3608H81.1371C80.971 84.3608 80.8612 84.496 80.8612 84.6863ZM98.9435 91.6598C98.9435 92.4723 99.001 92.4723 99.8275 92.4723V92.4735H101.653V88.4109H99.8007C98.9716 88.4109 98.9435 88.4372 98.9435 89.2497V91.6598ZM104.942 84.1906V94.8573H98.1707C96.1523 94.8573 95.6822 94.5305 95.6822 92.5537V88.3834C95.6822 86.4879 96.0424 86.0798 98.0046 86.0798H101.653V84.9217C101.653 84.2231 101.653 84.2181 100.934 84.2181H95.8789L99.2744 81.8869H102.454C104.469 81.8869 104.942 82.2124 104.942 84.1906ZM111.202 84.6863V94.8585H107.938V81.8882H111.201V82.8021C112.279 81.9345 113.109 81.7455 114.187 81.7455C115.46 81.7455 117.173 82.4228 117.173 83.5608V94.8585H113.883V84.8215C113.883 84.4159 113.828 84.3608 113.441 84.3608H111.478C111.312 84.3608 111.202 84.496 111.202 84.6863ZM125.202 78.1523C124.76 78.1523 124.622 78.26 124.622 78.7207L124.632 80.963L130.195 87.3618L131.447 86.5029V88.8028L135.255 93.1821L132.606 95L131.299 93.4964C131.008 94.4679 130.292 94.8573 128.851 94.8573C127.909 94.8573 126.969 94.8579 126.029 94.8585C125.089 94.8592 124.148 94.8598 123.206 94.8598C121.243 94.8598 120.589 94.2088 120.58 92.2582L120.55 85.7542C120.545 84.6713 121.694 83.8312 122.771 83.8037C121.694 83.7761 121.196 82.8284 121.196 81.7442C121.196 81.0419 121.195 80.3392 121.195 79.6365C121.195 78.9339 121.194 78.2312 121.194 77.5288C121.194 76.1517 121.807 75.8763 123.101 75.8763H127.933C129.227 75.8763 129.868 76.1467 129.868 77.5288V81.2322L126.827 83.3192V78.7207C126.827 78.2663 126.689 78.1523 126.245 78.1523H125.202ZM124.005 91.4732C124.007 92.2044 124.144 92.2857 124.806 92.2857C125.27 92.2857 125.735 92.2851 126.2 92.2845C126.667 92.2839 127.133 92.2832 127.601 92.2832C128.264 92.2832 128.418 92.2019 128.402 91.4707L128.372 90.1349L123.941 85.0356L124.005 91.4732ZM144.74 92.3646V94.8573H138.656C137.357 94.8573 136.749 94.5856 136.749 93.231V83.5408C136.749 82.1586 137.358 81.8869 138.656 81.8869H143.55C144.849 81.8869 145.485 82.1586 145.485 83.5408V85.8819L142.445 87.969V84.7865C142.445 84.3283 142.307 84.2181 141.863 84.2181H140.564C140.122 84.2181 139.984 84.3258 139.984 84.7865V91.7962C139.984 92.2282 140.18 92.3646 140.592 92.3646H144.74ZM59.5034 87.3856V85.0143C59.5085 84.2932 59.6107 84.2181 60.3887 84.2181H61.357C62.1337 84.2181 62.2346 84.2945 62.241 85.0143V87.3856C62.2359 88.1054 62.1337 88.1818 61.357 88.1818H60.3887C59.6107 88.1818 59.5098 88.1054 59.5034 87.3856ZM59.5034 91.6598V90.513H63.0433C65.0706 90.513 65.5036 90.1762 65.5036 88.2094V84.1918C65.5036 82.225 65.0706 81.8882 63.0433 81.8882H58.7025C56.6751 81.8882 56.2421 82.225 56.2421 84.1918V92.5549C56.2421 94.5305 56.6879 94.8585 58.7025 94.8585H65.0284V92.5274H60.3887C59.5865 92.5274 59.5034 92.446 59.5034 91.6598ZM152.851 84.2181C153.629 84.2181 153.731 84.2945 153.736 85.0143V91.7311C153.73 92.451 153.629 92.5274 152.851 92.5274H151.884C151.106 92.5274 151.005 92.451 150.999 91.7311V85.0143C151.005 84.2945 151.106 84.2181 151.884 84.2181H152.851ZM150.198 81.8869C148.169 81.8869 147.736 82.2237 147.736 84.1906V92.5537C147.736 94.5205 148.169 94.8573 150.198 94.8573H154.538C156.567 94.8573 157 94.5205 157 92.5537V84.1906C157 82.2237 156.567 81.8869 154.538 81.8869H150.198ZM53.2426 81.2322V94.8573H53.2028C50.9993 94.8573 48.6586 94.8573 46.4555 94.856C44.4103 94.856 43 94.339 43 92.3358V78.4215C43 76.4196 44.22 75.875 46.2626 75.875H52.7917V78.4215H47.6998C46.5948 78.4215 46.4006 78.6105 46.4006 79.4231V91.4419C46.4006 92.2544 46.5705 92.282 47.6448 92.282H49.8701V86.7358H48.6463V84.3896L53.2426 81.2322Z" fill="#FF7B31"/>
</g>
</g>
<defs>
<clipPath id="clip0_337_521">
<rect width="200" height="108" fill="white"/>
</clipPath>
<clipPath id="clip1_337_521">
<rect width="114" height="81" fill="white" transform="translate(43 14)"/>
</clipPath>
</defs>
</svg>
