<svg width="202" height="110" viewBox="0 0 202 110" fill="none" xmlns="http://www.w3.org/2000/svg">
<g clip-path="url(#clip0_337_510)">
<rect x="1" y="1" width="200" height="108" fill="white"/>
<path d="M49.3088 72.9994C49.8948 73.4583 50.3486 74.0175 50.6699 74.6772C50.9913 75.3369 51.152 76.068 51.152 76.8712V78.0756C51.152 79.7199 50.6888 81.0343 49.7626 82.019C48.8362 83.0037 47.6168 83.4958 46.1044 83.4958H42.503C42.0681 83.4958 41.709 83.3525 41.4254 83.0658C41.1417 82.779 41 82.4156 41 81.976V68.3248C41 66.7189 41.449 65.4283 42.3469 64.4532C43.245 63.4781 44.4217 62.9906 45.8775 62.9906C47.3521 62.9906 48.5432 63.4781 49.4505 64.4532C50.3581 65.4283 50.8118 66.7189 50.8118 68.3248V69.4721C50.8307 70.1986 50.7077 70.8677 50.4431 71.4796C50.1784 72.0914 49.8004 72.598 49.3088 72.9994V72.9994ZM44.5447 71.6516H45.9058C46.3407 71.6516 46.6762 71.4939 46.9125 71.1783C47.1488 70.8629 47.2671 70.4279 47.2671 69.8735V68.0094C47.2671 67.4932 47.1394 67.0821 46.8842 66.7762C46.629 66.4703 46.284 66.3173 45.8491 66.3173C45.4332 66.3173 45.1118 66.4703 44.8849 66.7762C44.6581 67.0821 44.5447 67.4932 44.5447 68.0094V71.6516ZM47.5507 76.7564C47.5507 76.1446 47.4135 75.6714 47.1394 75.3369C46.8653 75.0022 46.492 74.835 46.0193 74.835H44.5447V80.2266H46.0193C46.5109 80.2266 46.8889 80.064 47.1536 79.739C47.4182 79.4141 47.5507 78.9552 47.5507 78.3623V76.7564V76.7564ZM57.646 83.6966C56.0958 83.6966 54.8386 83.1947 53.8744 82.191C52.9102 81.1872 52.4281 79.8632 52.4281 78.2191V68.4683C52.4281 66.824 52.9102 65.5 53.8744 64.4962C54.8386 63.4925 56.0958 62.9906 57.646 62.9906C59.1962 62.9906 60.4487 63.4877 61.4034 64.4819C62.358 65.4761 62.8354 66.7762 62.8354 68.3822V78.305C62.8354 79.911 62.358 81.2113 61.4034 82.2053C60.4487 83.1995 59.1962 83.6966 57.646 83.6966V83.6966ZM57.646 80.3412C58.1376 80.3412 58.5297 80.1836 58.8228 79.868C59.1159 79.5526 59.2623 79.1176 59.2623 78.5631V68.124C59.2623 67.5696 59.1159 67.13 58.8228 66.8049C58.5297 66.4799 58.1376 66.3173 57.646 66.3173C57.1545 66.3173 56.7574 66.4847 56.4549 66.8192C56.1525 67.1539 56.0012 67.6174 56.0012 68.2102V78.4772C56.0012 79.0507 56.1478 79.5048 56.4408 79.8393C56.7338 80.1739 57.1356 80.3412 57.646 80.3412V80.3412ZM65.6428 83.3812C65.3026 83.3812 65.1324 83.2091 65.1324 82.865V68.3822C65.1324 66.7762 65.5956 65.4713 66.5218 64.4676C67.4482 63.4638 68.6771 62.9619 70.2084 62.9619C71.7397 62.9619 72.9733 63.4638 73.9091 64.4676C74.8448 65.4713 75.3127 66.7762 75.3127 68.3822V82.865C75.3127 83.2091 75.1425 83.3812 74.8023 83.3812H72.2501C71.9099 83.3812 71.7397 83.2091 71.7397 82.865V68.124C71.7397 67.5696 71.6025 67.13 71.3284 66.8049C71.0543 66.4799 70.681 66.3173 70.2084 66.3173C69.7357 66.3173 69.3624 66.4799 69.0883 66.8049C68.814 67.13 68.6771 67.5696 68.6771 68.124V82.865C68.6771 83.2091 68.5163 83.3812 68.195 83.3812H65.6428V83.3812ZM78.3187 83.3812C77.9784 83.3812 77.8082 83.2091 77.8082 82.865V68.411C77.8082 66.7858 78.2762 65.4761 79.2119 64.4819C80.1477 63.4877 81.3718 62.9906 82.8843 62.9906C84.4156 62.9906 85.6492 63.4877 86.585 64.4819C87.5207 65.4761 87.9886 66.7858 87.9886 68.411V82.865C87.9886 83.2091 87.8184 83.3812 87.4782 83.3812H84.926C84.5858 83.3812 84.4156 83.2091 84.4156 82.865V77.2153H81.353V82.865C81.353 83.2091 81.1922 83.3812 80.8709 83.3812H78.3187ZM84.4156 73.9172V68.1529C84.4156 67.5983 84.2784 67.1587 84.0043 66.8335C83.7302 66.5085 83.3569 66.346 82.8843 66.346C82.4116 66.346 82.0383 66.5085 81.7642 66.8335C81.4899 67.1587 81.353 67.5983 81.353 68.1529V73.9172H84.4156V73.9172ZM95.4183 83.7253C93.887 83.7253 92.6487 83.2282 91.7035 82.2341C90.7582 81.2399 90.2856 79.9303 90.2856 78.305V68.3535C90.2856 66.7475 90.7488 65.4474 91.6752 64.4532C92.6014 63.459 93.8209 62.9619 95.3333 62.9619C96.789 62.9619 97.9895 63.4734 98.9347 64.4962C99.88 65.5191 100.372 66.8719 100.409 68.5543C100.409 68.8984 100.249 69.0705 99.9272 69.0705H97.375C97.0537 69.0705 96.874 68.9079 96.8362 68.5829C96.8173 67.8182 96.6708 67.2494 96.3966 66.8767C96.1225 66.5038 95.7681 66.3173 95.3333 66.3173C94.8606 66.3173 94.4968 66.4751 94.2415 66.7905C93.9863 67.106 93.8586 67.541 93.8586 68.0954V78.5631C93.8586 79.1176 94.0099 79.5574 94.3124 79.8823C94.6148 80.2075 95.0119 80.3699 95.5035 80.3699C95.9761 80.3699 96.3589 80.2123 96.6519 79.8967C96.9449 79.5812 97.0915 79.1655 97.0915 78.6493V75.4085H95.9572C95.6168 75.4085 95.4468 75.2364 95.4468 74.8923V72.8275C95.4468 72.4832 95.6168 72.3113 95.9572 72.3113H99.1332C99.6059 72.3113 99.9697 72.4402 100.225 72.6983C100.48 72.9564 100.608 73.3341 100.608 73.8312V78.3912C100.608 79.978 100.13 81.2638 99.1757 82.2485C98.221 83.2329 96.9687 83.7253 95.4183 83.7253V83.7253ZM103.132 83.3812C102.791 83.3812 102.621 83.2091 102.621 82.865V68.411C102.621 66.7858 103.089 65.4761 104.025 64.4819C104.961 63.4877 106.185 62.9906 107.697 62.9906C109.229 62.9906 110.462 63.4877 111.398 64.4819C112.334 65.4761 112.802 66.7858 112.802 68.411V82.865C112.802 83.2091 112.631 83.3812 112.291 83.3812H109.739C109.399 83.3812 109.229 83.2091 109.229 82.865V77.2153H106.166V82.865C106.166 83.2091 106.005 83.3812 105.684 83.3812H103.132V83.3812ZM109.229 73.9172V68.1529C109.229 67.5983 109.091 67.1587 108.817 66.8335C108.543 66.5085 108.17 66.346 107.697 66.346C107.225 66.346 106.851 66.5085 106.577 66.8335C106.303 67.1587 106.166 67.5983 106.166 68.1529V73.9172H109.229V73.9172ZM115.808 83.3812C115.467 83.3812 115.297 83.2091 115.297 82.865V68.411C115.297 66.7858 115.765 65.4713 116.701 64.4676C117.637 63.4638 118.851 62.9619 120.345 62.9619C121.895 62.9619 123.143 63.4638 124.088 64.4676C125.033 65.4713 125.506 66.7858 125.506 68.411V70.9059C125.506 71.9001 125.322 72.7845 124.953 73.5588C124.584 74.3331 124.069 74.9496 123.407 75.4085L126.158 82.865L126.186 82.9796C126.186 83.1135 126.139 83.2138 126.045 83.2809C125.95 83.3478 125.827 83.3812 125.676 83.3812H122.925C122.793 83.3812 122.694 83.343 122.628 83.2666C122.561 83.19 122.49 83.0658 122.415 82.8936L120.203 76.3262H118.87V82.865C118.87 83.2091 118.709 83.3812 118.388 83.3812H115.808V83.3812ZM120.175 73.0283C120.761 73.0283 121.2 72.8561 121.493 72.512C121.786 72.1678 121.933 71.6707 121.933 71.0207V68.1529C121.933 67.5983 121.796 67.1587 121.522 66.8335C121.247 66.5085 120.865 66.346 120.373 66.346C119.919 66.346 119.556 66.5085 119.281 66.8335C119.007 67.1587 118.87 67.5983 118.87 68.1529V73.0283H120.175ZM129.703 83.4958C129.211 83.4958 128.838 83.3669 128.583 83.1088C128.327 82.8506 128.2 82.4825 128.2 82.0047V64.6827C128.2 64.2047 128.327 63.8367 128.583 63.5786C128.838 63.3205 129.211 63.1914 129.703 63.1914H133.191C134.722 63.1914 135.956 63.6885 136.891 64.6827C137.827 65.6769 138.295 66.977 138.295 68.5829V78.1042C138.295 79.7104 137.827 81.0105 136.891 82.0047C135.956 82.9989 134.722 83.4958 133.191 83.4958H129.703V83.4958ZM132.992 80.1979C133.559 80.1979 133.989 80.0258 134.283 79.6817C134.576 79.3375 134.722 78.8499 134.722 78.2191V68.4683C134.722 67.1491 134.145 66.4894 132.992 66.4894H131.744V80.1979H132.992V80.1979ZM145.498 83.4958C143.967 83.4958 142.733 82.9989 141.797 82.0047C140.862 81.0105 140.394 79.7104 140.394 78.1042V68.5543C140.394 66.9674 140.862 65.6769 141.797 64.6827C142.733 63.6885 143.967 63.1914 145.498 63.1914H148.476C148.816 63.1914 148.986 63.3539 148.986 63.6789V65.9732C148.986 66.3173 148.816 66.4894 148.476 66.4894H145.923C145.319 66.4894 144.841 66.6854 144.491 67.0773C144.142 67.4693 143.967 67.9999 143.967 68.6691V71.6516H147.767C148.107 71.6516 148.277 71.8237 148.277 72.1678V74.3474C148.277 74.6915 148.107 74.8637 147.767 74.8637H143.967V78.0183C143.967 78.6875 144.142 79.218 144.491 79.6099C144.841 80.0019 145.319 80.1979 145.923 80.1979H148.476C148.816 80.1979 148.986 80.3603 148.986 80.6853V83.0084C148.986 83.3334 148.816 83.4958 148.476 83.4958H145.498ZM151.368 83.3812C151.028 83.3812 150.858 83.2091 150.858 82.865V68.3822C150.858 66.7762 151.321 65.4713 152.247 64.4676C153.174 63.4638 154.402 62.9619 155.934 62.9619C157.465 62.9619 158.699 63.4638 159.635 64.4676C160.57 65.4713 161.038 66.7762 161.038 68.3822V82.865C161.038 83.2091 160.868 83.3812 160.528 83.3812H157.976C157.635 83.3812 157.465 83.2091 157.465 82.865V68.124C157.465 67.5696 157.328 67.13 157.054 66.8049C156.78 66.4799 156.406 66.3173 155.934 66.3173C155.461 66.3173 155.088 66.4799 154.814 66.8049C154.539 67.13 154.402 67.5696 154.402 68.124V82.865C154.402 83.2091 154.242 83.3812 153.92 83.3812H151.368Z" fill="#333333"/>
<path d="M57.4314 90.4573V89.5649H53.3282V96.1143H54.3399V90.4573H57.4314V90.4573ZM61.9559 96.1143V92.9959C61.9559 91.9382 61.2908 91.3955 59.9701 91.3955C59.5203 91.3955 59.1832 91.4507 58.9114 91.5794C58.6772 91.6807 58.5556 91.791 58.2933 92.0669L58.9209 92.6465C59.0614 92.4717 59.1645 92.3797 59.305 92.3152C59.4736 92.2325 59.6702 92.1958 59.942 92.1958C60.6914 92.1958 61.0099 92.4534 61.0099 93.0603V93.4007H59.7359C58.7242 93.4007 58.1059 93.9067 58.1059 94.753C58.1059 95.6544 58.6961 96.1602 59.7545 96.1602C60.3167 96.1602 60.6257 96.0775 61.0193 95.6912V96.1143H61.9559V96.1143ZM61.0099 94.431C61.0099 95.1116 60.71 95.3877 59.9701 95.3877C59.3237 95.3877 59.0333 95.1761 59.0333 94.7254C59.0333 94.2838 59.3237 94.063 59.8858 94.063H61.0099V94.431V94.431ZM67.3049 93.7962C67.3049 93.2444 67.2768 92.9317 67.2019 92.6004C67.0145 91.791 66.4337 91.3955 65.5906 91.3955C65.0192 91.3955 64.7475 91.5518 64.3636 91.9382V91.4507H63.4268V98.0001H64.3822V95.636C64.7383 96.0223 65.0568 96.1695 65.6 96.1695C66.0871 96.1695 66.4993 96.0223 66.7803 95.7464C67.155 95.3785 67.3049 94.8081 67.3049 93.7962V93.7962ZM66.3588 93.7779C66.3588 94.8909 66.0777 95.3324 65.3753 95.3324C64.6726 95.3324 64.3822 94.8909 64.3822 93.8147C64.3822 93.2811 64.4384 92.9317 64.5603 92.6832C64.7102 92.3797 64.9725 92.2325 65.3658 92.2325C66.0777 92.2325 66.3588 92.6648 66.3588 93.7779V93.7779ZM73.3282 96.1143V91.4507H72.3914L70.977 94.2286L69.5531 91.4507H68.607V96.1143H69.5625V93.1248L70.6771 95.2588H71.2768L72.3727 93.1248V96.1143H73.3282V96.1143ZM78.5835 93.7595C78.5835 92.8672 78.4244 92.3521 78.0308 91.9473C77.675 91.5886 77.1785 91.3955 76.6069 91.3955C76.0355 91.3955 75.5485 91.5886 75.1924 91.9473C74.7897 92.3613 74.6305 92.8672 74.6305 93.7779C74.6305 94.6978 74.7897 95.2037 75.1924 95.6175C75.5485 95.9764 76.0355 96.1695 76.6069 96.1695C77.1785 96.1695 77.675 95.9764 78.0308 95.6175C78.4336 95.2037 78.5835 94.6978 78.5835 93.7595ZM77.6374 93.7962C77.6374 94.3389 77.5718 94.753 77.347 95.0196C77.1785 95.2129 76.9254 95.3324 76.6069 95.3324C76.3073 95.3324 76.0636 95.2313 75.8951 95.0381C75.6795 94.7989 75.586 94.431 75.586 93.8147C75.586 93.2627 75.6422 92.8304 75.8764 92.5452C76.045 92.3521 76.2884 92.2325 76.6069 92.2325C76.9254 92.2325 77.169 92.3521 77.3376 92.5361C77.5813 92.8028 77.6374 93.2168 77.6374 93.7962ZM83.6891 96.1143V91.4507H82.7336V93.3088H80.8413V91.4507H79.8858V96.1143H80.8413V94.1275H82.7336V96.1143H83.6891ZM89.1504 96.1143V91.4507H88.1949L86.1622 94.615V91.4507H85.2067V96.1143H86.1622L88.1949 92.9041V96.1143H89.1504ZM94.1715 96.1143V91.4507H91.9326C91.0241 91.4507 90.3871 92.0486 90.3871 92.8948C90.3871 93.5662 90.7804 94.063 91.3893 94.2286L90.3215 96.1143H91.4455L92.3448 94.4034C92.3448 94.4034 93.1973 94.4034 93.216 94.4034V96.1143H94.1715ZM93.2254 93.6307H92.0919C91.6141 93.6307 91.3331 93.364 91.3331 92.9317C91.3331 92.4993 91.6141 92.2325 92.0919 92.2325H93.2254V93.6307ZM101.197 92.2693V91.4507H97.2814V92.2693H98.7896V96.1143H99.7451V92.2693H101.197ZM105.834 94.063V93.6399C105.834 92.2693 105.057 91.3955 103.83 91.3955C102.584 91.3955 101.815 92.2969 101.815 93.7595C101.815 95.3416 102.546 96.1695 103.97 96.1695C104.729 96.1695 105.188 95.9579 105.722 95.4429L105.122 94.8817C104.785 95.2037 104.485 95.3692 104.008 95.3692C103.117 95.3692 102.78 94.845 102.762 94.063H105.834V94.063ZM104.897 93.4007H102.762C102.78 92.7569 103.061 92.1773 103.83 92.1773C104.607 92.1773 104.851 92.7661 104.897 93.4007ZM110.921 96.1143V91.4507H107.651L107.577 94.0447C107.549 95.1025 107.089 95.2957 106.705 95.2957H106.509V96.1143H107.024C107.904 96.1143 108.485 95.5623 108.523 94.2471L108.579 92.2693H109.965V96.1143H110.921ZM115.942 96.1143V92.9959C115.942 91.9382 115.277 91.3955 113.956 91.3955C113.506 91.3955 113.169 91.4507 112.897 91.5794C112.663 91.6807 112.541 91.791 112.279 92.0669L112.907 92.6465C113.047 92.4717 113.15 92.3797 113.291 92.3152C113.459 92.2325 113.656 92.1958 113.928 92.1958C114.677 92.1958 114.996 92.4534 114.996 93.0603V93.4007H113.722C112.71 93.4007 112.092 93.9067 112.092 94.753C112.092 95.6544 112.682 96.1602 113.74 96.1602C114.303 96.1602 114.612 96.0775 115.005 95.6912V96.1143H115.942V96.1143ZM114.996 94.431C114.996 95.1116 114.696 95.3877 113.956 95.3877C113.31 95.3877 113.019 95.1761 113.019 94.7254C113.019 94.2838 113.31 94.063 113.872 94.063H114.996V94.431V94.431ZM123.605 96.1143V91.4507H122.649L120.616 94.615V91.4507H119.661V96.1143H120.616L122.649 92.9041V96.1143H123.605ZM131.754 97.4022V95.2957H131.099V91.4507H127.886V92.1038C127.886 93.7871 127.67 94.4861 127.333 95.2957H126.79V97.4022H127.698V96.1143H130.836V97.4022H131.754ZM130.143 95.2957H128.316C128.569 94.6793 128.757 94.0723 128.785 93.0328C128.785 92.95 128.794 92.3704 128.794 92.2693H130.143V95.2957ZM136.335 91.4507H135.314L134.209 94.7437L133.075 91.4507H132.054L133.722 95.8936L133.459 96.6294C133.319 97.025 133.169 97.117 132.776 97.117H132.532V97.9632H132.916C133.6 97.9632 134.003 97.6781 134.237 97.0433L136.335 91.4507V91.4507ZM143.239 96.1143V91.4507H142.284V95.2957H140.682V91.4507H139.726V95.2957H138.115V91.4507H137.16V96.1143H143.239ZM148.71 96.1143V91.4507H147.754L145.722 94.615V91.4507H144.766V96.1143H145.722L147.754 92.9041V96.1143H148.71Z" fill="#595959"/>
<path d="M101.019 50.5697C103.046 50.5697 104.964 48.7527 106.427 45.8158C108.032 42.5933 109.025 38.1045 109.025 33.1145C109.025 28.1245 108.032 23.6359 106.427 20.4133C104.964 17.4764 103.046 15.6593 101.019 15.6593C98.992 15.6593 97.0736 17.4764 95.6108 20.4133C94.0057 23.6359 93.0129 28.1245 93.0129 33.1145C93.0129 38.1045 94.0059 42.5933 95.6108 45.8158C97.0736 48.7527 98.9922 50.5697 101.019 50.5697ZM108.842 46.979C106.919 50.8403 104.159 53.229 101.019 53.229C97.8789 53.229 95.1188 50.8403 93.1956 46.979C91.4147 43.4032 90.3129 38.4989 90.3129 33.1145C90.3129 27.7302 91.4145 22.8259 93.1956 19.25C95.1188 15.3887 97.8787 13 101.019 13C104.159 13 106.919 15.3887 108.842 19.25C110.624 22.8259 111.725 27.7302 111.725 33.1145C111.725 38.4989 110.623 43.4032 108.842 46.979V46.979Z" fill="#E6BE80"/>
<path d="M82.5554 18.5192C85.1927 16.8513 88.8136 17.3874 92.5346 19.6026C95.9789 21.6529 99.5852 25.1835 102.536 29.7075C105.487 34.2306 107.248 38.9278 107.709 42.8648C108.208 47.1182 107.197 50.5836 104.559 52.2517C101.922 53.9197 98.3011 53.3837 94.58 51.1687C91.1359 49.1185 87.5298 45.5881 84.5785 41.0643L84.5543 41.0272C81.6179 36.5142 79.8652 31.8322 79.4054 27.9061C78.9069 23.6528 79.9177 20.1873 82.5554 18.5192V18.5192ZM91.1469 21.87C88.3081 20.1802 85.7035 19.6717 84.0063 20.745C82.3093 21.8183 81.696 24.3617 82.0762 27.606C82.4931 31.1668 84.1139 35.4581 86.8387 39.635L86.8524 39.656C89.574 43.8219 92.8576 47.0497 95.9678 48.9012C98.8063 50.5909 101.411 51.0992 103.108 50.0259C104.805 48.9527 105.418 46.4092 105.038 43.1649C104.621 39.6043 103 35.3129 100.276 31.1361C97.5517 26.96 94.2621 23.7245 91.1469 21.87V21.87Z" fill="#5FA494"/>
<path d="M118.032 20.7449C116.335 19.6716 113.73 20.1801 110.891 21.8697C107.776 23.7242 104.486 26.9597 101.762 31.136C99.0376 35.313 97.4166 39.6045 96.9995 43.1649C96.6194 46.4093 97.2328 48.9527 98.9298 50.026C100.627 51.0995 103.232 50.591 106.07 48.9013C109.186 47.0468 112.475 43.8111 115.2 39.635C117.925 35.4579 119.545 31.1664 119.962 27.606C120.342 24.3616 119.729 21.8182 118.032 20.7449V20.7449ZM109.504 19.6026C113.225 17.3874 116.846 16.8513 119.483 18.5191C122.12 20.1872 123.131 23.6525 122.633 27.9061C122.171 31.8432 120.411 36.5405 117.46 41.0636C114.509 45.5875 110.902 49.1182 107.458 51.1684C103.737 53.3836 100.116 53.9197 97.4789 52.2518C94.8412 50.5837 93.8305 47.1182 94.329 42.8648C94.7904 38.9277 96.5513 34.2303 99.5017 29.7074C102.453 25.1834 106.059 21.6528 109.504 19.6026V19.6026Z" fill="#F08365"/>
</g>
<rect x="0.5" y="0.5" width="201" height="109" stroke="#F0F0F0"/>
<defs>
<clipPath id="clip0_337_510">
<rect x="1" y="1" width="200" height="108" fill="white"/>
</clipPath>
</defs>
</svg>
