<svg width="200" height="108" viewBox="0 0 200 108" fill="none" xmlns="http://www.w3.org/2000/svg">
<g clip-path="url(#clip0_337_505)">
<rect width="200" height="108" fill="#262626"/>
<path fill-rule="evenodd" clip-rule="evenodd" d="M100.109 27.171C99.5201 27.1706 98.9359 27.1702 98.3622 27.1558C99.496 27.7484 100.475 28.5104 101.364 29.3443C101.467 29.3559 101.572 29.3673 101.677 29.3787L101.677 29.3787C102.909 29.5125 104.244 29.6575 105.15 30.4491C106.658 31.8291 106.514 34.2378 104.905 35.5204C103.592 36.6676 101.689 37.0486 99.9106 37.3872C101.943 40.3885 104.046 43.4067 106.868 45.9339C108.047 46.9541 109.336 48.0166 111.024 48.3764C111.96 48.4756 112.9 48.4135 113.841 48.3514C114.386 48.3155 114.93 48.2795 115.474 48.2748C110.686 45.891 107.424 41.9221 104.307 38.1303L104.307 38.1303L104.176 37.9714C105.904 37.6328 107.617 37.0232 108.811 35.8633C111.084 33.8018 110.649 30.1105 107.877 28.5231C105.594 27.1749 102.805 27.1729 100.109 27.171ZM89.4962 27.2182C87.8372 27.2633 86.1781 27.3084 84.5268 27.1685V27.3378C85.7655 27.85 86.265 29.0226 86.22 30.1274C86.24 35.2072 86.235 40.2912 86.22 45.3709C86.2999 46.5054 85.7455 47.6272 84.5268 48.186V48.4146C86.3237 48.1932 88.1394 48.2349 89.9491 48.2766C90.4232 48.2875 90.8968 48.2983 91.3696 48.3045C90.6304 47.5933 89.8212 46.8102 89.8812 45.79C89.8279 42.393 89.8375 38.9943 89.8472 35.5949C89.8529 33.5764 89.8586 31.5577 89.8512 29.539C91.949 29.3528 94.4164 29.1411 96.0996 30.4492C97.608 31.8165 97.4432 34.2039 95.8848 35.5078C94.6347 36.5913 92.8543 36.9762 91.1707 37.3401C91.0718 37.3615 90.9732 37.3828 90.8751 37.4042C90.9623 37.5315 91.0495 37.659 91.1368 37.7866C93.5617 41.3319 96.0742 45.0053 99.9456 47.5468C101.364 48.5708 103.181 48.4658 104.939 48.3642H104.939C105.434 48.3356 105.924 48.3073 106.399 48.3045C101.594 45.8239 98.2723 41.8363 95.1356 37.9799C96.9437 37.5778 98.8168 36.9639 99.9606 35.6347C101.729 33.8145 101.649 30.8852 99.6958 29.1877C98.4971 28.0871 96.7489 27.5622 95.0457 27.3251C93.2033 27.1174 91.3498 27.1678 89.4962 27.2182ZM159.145 76.1023L160.261 77.5863L158.79 79.2868C158.7 79.392 158.62 79.4808 158.55 79.5558C158.479 79.6308 158.404 79.705 158.324 79.7791H159.673C159.599 79.7586 159.534 79.7187 159.485 79.6644C159.439 79.6143 159.415 79.5511 159.415 79.4859C159.418 79.4408 159.431 79.3966 159.454 79.3566C159.491 79.2883 159.536 79.2236 159.587 79.1634L160.566 77.9786L161.614 79.4333C161.662 79.5083 161.716 79.5806 161.773 79.6498C161.815 79.6959 161.86 79.7391 161.908 79.7791H162.97C162.848 79.7267 162.735 79.6575 162.636 79.5739C162.524 79.4774 162.426 79.3692 162.342 79.2514L161.027 77.4983L162.593 75.6746H161.371C161.44 75.6938 161.502 75.7278 161.554 75.7737C161.596 75.8127 161.62 75.8653 161.62 75.9203C161.618 75.9664 161.605 76.0115 161.582 76.0523C161.555 76.1046 161.524 76.1547 161.488 76.2023L160.747 77.1112L159.879 75.9557C159.811 75.8546 159.728 75.7621 159.633 75.6806C159.593 75.6565 159.442 75.6487 159.182 75.6565L158.639 75.6746C158.731 75.7147 158.816 75.767 158.892 75.8298C158.987 75.9118 159.072 76.0032 159.145 76.1023ZM156.833 75.6746H155.594C155.688 75.7355 155.764 75.817 155.815 75.9117C155.864 76.0212 155.888 76.1384 155.888 76.2566V79.1885C155.889 79.3099 155.864 79.4303 155.815 79.5429C155.765 79.6366 155.689 79.7166 155.594 79.7748H156.833C156.736 79.7173 156.657 79.6373 156.603 79.5429C156.552 79.4309 156.53 79.3095 156.539 79.1885V76.2566C156.535 76.1385 156.558 76.0209 156.607 75.9117C156.659 75.8159 156.737 75.7342 156.833 75.6746ZM152.79 79.2807V77.6794L153.075 77.6561C153.171 77.6449 153.258 77.6449 153.335 77.6449C153.758 77.6444 154.064 77.7145 154.252 77.8553C154.345 77.9254 154.419 78.0144 154.468 78.1153C154.516 78.2162 154.539 78.3262 154.533 78.4365C154.542 78.6791 154.446 78.915 154.266 79.0927C154.091 79.2577 153.82 79.3379 153.454 79.3333C153.351 79.3333 153.243 79.3299 153.128 79.3212C153.014 79.3139 152.901 79.3004 152.79 79.2807ZM153.084 75.6746H151.844C151.937 75.7356 152.013 75.8171 152.063 75.9117C152.113 76.021 152.138 76.1383 152.137 76.2566V79.1885C152.139 79.3099 152.114 79.4305 152.063 79.5429C152.013 79.6366 151.937 79.7166 151.843 79.7748H153.396C154.026 79.7742 154.496 79.6541 154.805 79.4144C154.958 79.2946 155.079 79.1443 155.16 78.975C155.24 78.8057 155.277 78.6218 155.268 78.4374C155.268 78.0425 155.124 77.7366 154.837 77.5199C154.55 77.3032 154.147 77.1948 153.627 77.1948C153.525 77.1948 153.398 77.2 153.243 77.2095C153.089 77.219 152.938 77.2302 152.79 77.2414V76.2566C152.785 76.1386 152.808 76.0211 152.856 75.9117C152.908 75.8159 152.987 75.7342 153.084 75.6746ZM148.861 77.2931H146.401V76.2609C146.395 76.1395 146.417 76.0183 146.467 75.9057C146.521 75.8125 146.599 75.7331 146.695 75.6746H145.455C145.548 75.7349 145.624 75.8139 145.678 75.9057C145.731 76.0176 145.755 76.1391 145.749 76.2609V79.1928C145.756 79.3163 145.732 79.4396 145.678 79.5532C145.625 79.6442 145.548 79.7217 145.455 79.7791H146.695C146.599 79.7236 146.52 79.6456 146.467 79.5532C146.417 79.4389 146.394 79.3159 146.401 79.1928V77.7622H148.861V79.1902C148.867 79.3137 148.843 79.437 148.79 79.5506C148.737 79.6416 148.66 79.7192 148.566 79.7765H149.806C149.71 79.721 149.632 79.643 149.579 79.5506C149.528 79.4365 149.505 79.3134 149.512 79.1902V76.2584C149.505 76.1368 149.528 76.0155 149.579 75.9031C149.633 75.8099 149.71 75.7305 149.806 75.672H148.566C148.659 75.7323 148.736 75.8114 148.79 75.9031C148.843 76.015 148.867 76.1365 148.861 76.2584V77.2931ZM142.472 77.2931H140.012V76.2609C140.006 76.1395 140.029 76.0183 140.079 75.9057C140.132 75.8125 140.211 75.7331 140.306 75.6746H139.066C139.159 75.7349 139.235 75.8139 139.289 75.9057C139.342 76.0176 139.366 76.1391 139.36 76.2609V79.1928C139.367 79.3163 139.343 79.4396 139.289 79.5532C139.236 79.6442 139.159 79.7217 139.066 79.7791H140.306C140.21 79.7236 140.131 79.6456 140.079 79.5532C140.028 79.4389 140.005 79.3159 140.012 79.1928V77.7622H142.472V79.1902C142.479 79.3137 142.454 79.437 142.401 79.5506C142.348 79.6416 142.271 79.7192 142.178 79.7765H143.417C143.321 79.721 143.243 79.643 143.19 79.5506C143.139 79.4365 143.116 79.3134 143.123 79.1902V76.2584C143.116 76.1368 143.14 76.0155 143.19 75.9031C143.244 75.8099 143.322 75.7305 143.417 75.672H142.178C142.27 75.7323 142.347 75.8114 142.401 75.9031C142.454 76.015 142.478 76.1365 142.472 76.2584V77.2931ZM134.398 77.826L135.093 76.2083L135.792 77.826H134.398ZM135.542 75.6746H134.49C134.527 75.6893 134.561 75.7106 134.589 75.7374C134.617 75.7643 134.639 75.7959 134.654 75.8307C134.681 75.9096 134.675 75.995 134.638 76.0704L133.356 79.0376C133.288 79.2058 133.199 79.3662 133.09 79.5153C133.007 79.6222 132.901 79.713 132.779 79.7826H133.981C133.88 79.7234 133.805 79.6342 133.768 79.5299C133.741 79.3986 133.762 79.2627 133.828 79.1436L134.229 78.2227H135.963L136.446 79.3247C136.491 79.4131 136.498 79.5139 136.465 79.6067C136.422 79.6871 136.347 79.7489 136.255 79.7791H137.623C137.506 79.7258 137.401 79.652 137.315 79.5618C137.213 79.4456 137.133 79.3148 137.078 79.1747L135.542 75.6746ZM128.307 79.7791H129.649C129.52 79.7296 129.414 79.6414 129.347 79.5291C129.276 79.3953 129.243 79.2467 129.253 79.0979V76.1661C129.338 76.1506 129.427 76.1376 129.518 76.1282C129.533 76.1267 129.547 76.1251 129.561 76.1236C129.637 76.1154 129.711 76.1075 129.79 76.1075C130.088 76.1075 130.321 76.1759 130.489 76.3127C130.574 76.3845 130.642 76.4726 130.686 76.5707C130.731 76.6688 130.752 76.7747 130.747 76.8809C130.752 77.0167 130.722 77.1516 130.66 77.2749C130.598 77.3982 130.505 77.5063 130.389 77.5906C130.13 77.7664 129.817 77.8608 129.495 77.8597C129.587 77.887 129.681 77.9066 129.777 77.9183C129.863 77.9299 129.951 77.9359 130.039 77.9364C130.473 77.9398 130.823 77.8295 131.086 77.6053C131.214 77.4994 131.316 77.3694 131.385 77.2241C131.453 77.0789 131.487 76.9219 131.483 76.7637C131.491 76.6134 131.46 76.4636 131.393 76.3262C131.327 76.1888 131.226 76.0675 131.099 75.9721C130.843 75.7801 130.441 75.6823 129.892 75.6789H128.307C128.401 75.7399 128.477 75.8214 128.528 75.916C128.577 76.0255 128.602 76.1427 128.601 76.2609V79.1928C128.608 79.3163 128.584 79.4396 128.531 79.5532C128.478 79.6442 128.401 79.7217 128.307 79.7791ZM123.969 79.2919V77.7208L124.292 77.7001C124.379 77.6915 124.452 77.6915 124.512 77.6915C124.931 77.6909 125.235 77.7593 125.423 77.8967C125.516 77.9631 125.591 78.0487 125.641 78.1465C125.692 78.2443 125.716 78.3516 125.713 78.4598C125.709 78.7524 125.612 78.9732 125.42 79.1221C125.228 79.271 124.966 79.3454 124.634 79.3454C124.527 79.3454 124.418 79.3411 124.305 79.3333C124.192 79.3256 124.08 79.3118 123.969 79.2919ZM125.749 75.6746H123.024C123.118 75.736 123.194 75.8182 123.244 75.9134C123.294 76.0227 123.318 76.14 123.317 76.2584V79.1902C123.319 79.3117 123.295 79.4323 123.244 79.5446C123.194 79.6383 123.118 79.7183 123.024 79.7765H124.576C125.208 79.7765 125.677 79.6593 125.986 79.4247C126.138 79.309 126.259 79.1624 126.34 78.9965C126.42 78.8306 126.457 78.6498 126.449 78.4684C126.446 78.0873 126.301 77.7904 126.014 77.5777C125.727 77.365 125.324 77.2586 124.804 77.2586C124.727 77.2586 124.616 77.2621 124.471 77.2698L123.967 77.2992V76.1445H125.308C125.448 76.1398 125.587 76.1567 125.721 76.1946C125.819 76.2265 125.908 76.2798 125.979 76.3498V75.6599C125.941 75.6681 125.903 75.673 125.864 75.6746H125.749ZM118.064 75.6806L117.97 76.4187C118.179 76.302 118.404 76.212 118.639 76.1514C118.86 76.0946 119.088 76.0656 119.317 76.0652C119.535 76.0533 119.752 76.1082 119.933 76.2213C120.006 76.2722 120.064 76.3385 120.102 76.4145C120.141 76.4905 120.158 76.5739 120.154 76.6576C120.154 76.7503 120.131 76.8417 120.086 76.9247C120.041 77.0076 119.975 77.0798 119.895 77.1353C119.729 77.2543 119.466 77.3118 119.108 77.3078C119.035 77.3084 118.961 77.3055 118.888 77.2992C118.83 77.2931 118.745 77.2802 118.642 77.2612V77.87C118.729 77.8328 118.82 77.8061 118.914 77.7907C119.033 77.7716 119.154 77.7627 119.275 77.7639C119.558 77.7506 119.838 77.824 120.07 77.9726C120.167 78.0398 120.244 78.1274 120.296 78.228C120.348 78.3286 120.372 78.4392 120.367 78.5504C120.37 78.6719 120.34 78.7922 120.278 78.8999C120.217 79.0075 120.126 79.0991 120.016 79.166C119.785 79.3103 119.47 79.3825 119.07 79.3825C118.815 79.3846 118.562 79.341 118.326 79.254C118.075 79.1548 117.851 79.0078 117.668 78.8228L117.841 79.6205C118.024 79.7105 118.221 79.7758 118.425 79.8145C118.647 79.8516 118.873 79.8692 119.099 79.8671C119.73 79.8665 120.221 79.7464 120.572 79.5066C120.743 79.3916 120.881 79.2396 120.973 79.0641C121.065 78.8886 121.108 78.6949 121.099 78.5003C121.108 78.2335 121.001 77.9742 120.802 77.7795C120.701 77.6836 120.579 77.608 120.444 77.5576C120.31 77.5071 120.165 77.4828 120.02 77.4863V77.469C120.259 77.4338 120.48 77.3275 120.648 77.1664C120.807 77.0056 120.891 76.7942 120.882 76.5774C120.888 76.4361 120.855 76.2957 120.787 76.1688C120.719 76.042 120.618 75.9326 120.492 75.8505C120.233 75.6746 119.837 75.5866 119.304 75.5866C119.093 75.5852 118.883 75.5988 118.674 75.6272C118.472 75.6564 118.269 75.6742 118.064 75.6806ZM114.776 75.9031L112.501 79.0151V76.2592C112.495 76.1378 112.518 76.0165 112.568 75.904C112.622 75.8108 112.7 75.7314 112.795 75.6729H111.556C111.649 75.7334 111.725 75.8124 111.78 75.904C111.832 76.016 111.856 76.1375 111.849 76.2592V79.191C111.856 79.3145 111.832 79.4377 111.78 79.5515C111.726 79.6423 111.65 79.7198 111.556 79.7774H112.463C112.5 79.7511 112.535 79.7223 112.568 79.6912C112.611 79.6469 112.651 79.5999 112.686 79.5506L114.961 76.4386V79.1928C114.968 79.3163 114.944 79.4396 114.891 79.5532C114.837 79.6442 114.761 79.7217 114.667 79.7791H115.906C115.811 79.7233 115.732 79.6454 115.68 79.5532C115.629 79.439 115.606 79.316 115.613 79.1928V76.2609C115.607 76.1395 115.629 76.0181 115.68 75.9057C115.733 75.8127 115.811 75.7334 115.906 75.6746H115C114.96 75.703 114.922 75.7345 114.888 75.7686C114.847 75.8105 114.809 75.8555 114.776 75.9031ZM105.591 76.1204V79.1928C105.591 79.3108 105.566 79.4278 105.517 79.5368C105.467 79.6305 105.391 79.7105 105.296 79.7688H106.536C106.439 79.7114 106.359 79.6314 106.306 79.5368C106.254 79.4251 106.232 79.3035 106.242 79.1824V76.2506C106.238 76.1326 106.261 76.0151 106.309 75.9057C106.361 75.8099 106.439 75.7281 106.536 75.6685C106.429 75.6685 106.335 75.6688 106.254 75.669C106.125 75.6694 106.031 75.6696 105.973 75.6685C105.932 75.6678 105.892 75.6661 105.852 75.6644C105.798 75.6622 105.744 75.6599 105.691 75.6599C105.463 75.6574 105.312 75.6539 105.24 75.6523C105.214 75.6517 105.198 75.6513 105.193 75.6513H105.134C104.598 75.6502 104.195 75.7496 103.924 75.9497C103.654 76.1497 103.518 76.4351 103.518 76.8059C103.516 76.9249 103.539 77.0432 103.588 77.1535C103.636 77.2639 103.709 77.3642 103.8 77.4483C104.018 77.6462 104.301 77.7728 104.606 77.8088C104.277 78.2654 103.907 78.6961 103.501 79.0962C103.143 79.4365 102.824 79.6642 102.542 79.7791L103.012 79.805C103.11 79.8145 103.187 79.8145 103.242 79.8145C103.501 79.8093 103.82 79.6144 104.199 79.2298C104.578 78.8453 104.98 78.2991 105.406 77.5915C105.12 77.6227 104.831 77.5584 104.591 77.4104C104.486 77.3477 104.4 77.2614 104.342 77.1597C104.283 77.058 104.253 76.9443 104.256 76.8292C104.25 76.7279 104.267 76.6266 104.308 76.5321C104.348 76.4377 104.41 76.3522 104.489 76.2816C104.645 76.1506 104.87 76.085 105.164 76.085C105.244 76.085 105.32 76.0876 105.387 76.0937C105.455 76.0997 105.523 76.1083 105.591 76.1204ZM100.987 79.1928V76.2609H100.995C100.984 76.1385 101.005 76.0153 101.058 75.9022C101.115 75.8084 101.196 75.729 101.295 75.6711H98.0429C98.1216 75.6971 98.1935 75.7379 98.2541 75.7909C98.3146 75.8439 98.3623 75.908 98.3943 75.979C98.4666 76.129 98.5089 76.4187 98.5089 76.8499C98.5076 77.5966 98.445 78.1928 98.321 78.6383C98.197 79.0838 98.0116 79.3066 97.7648 79.3066C97.6943 79.307 97.6246 79.2929 97.5609 79.2652C97.4906 79.2328 97.4269 79.1893 97.373 79.1367L97.4557 79.811C97.5058 79.8265 97.557 79.8392 97.6088 79.849C97.6614 79.8587 97.7149 79.8636 97.7685 79.8636C98.1945 79.8636 98.5161 79.6368 98.7334 79.1833C98.9508 78.7297 99.0595 77.9304 99.0595 76.7852V76.1402H100.342V79.1928C100.343 79.3143 100.318 79.4348 100.268 79.5472C100.218 79.641 100.142 79.7211 100.048 79.7791H101.281C101.184 79.7216 101.105 79.6416 101.051 79.5472C101 79.4353 100.978 79.3139 100.987 79.1928ZM93.4495 76.1402H94.779L94.7771 79.31H92.7195C92.9776 78.8656 93.1643 78.3893 93.2739 77.8959C93.3982 77.3178 93.4571 76.7294 93.4495 76.1402ZM95.726 75.6711H92.4724V75.6746C92.605 75.741 92.7119 75.8434 92.7787 75.9678C92.857 76.1381 92.8941 76.3219 92.8877 76.5067C92.8925 77.0157 92.8259 77.5232 92.6895 78.0166C92.5606 78.4737 92.3559 78.91 92.0825 79.31H91.5592V80.7096L91.9425 80.8441C91.9172 80.5833 91.9564 80.3207 92.0572 80.0758C92.1511 79.8731 92.3052 79.7714 92.5222 79.7714H95.0759C95.2882 79.7714 95.4404 79.8731 95.5344 80.0758C95.6353 80.3207 95.6767 80.5829 95.6556 80.8441L96.0389 80.7096V79.3023H95.432V76.2532C95.4274 76.1351 95.4505 76.0175 95.4996 75.9083C95.5513 75.8125 95.6294 75.7307 95.726 75.6711ZM86.777 75.6711H84.2985L84.3013 75.6746C84.3965 75.7367 84.4722 75.8205 84.5212 75.9177C84.5705 76.0271 84.5957 76.1443 84.5954 76.2627V79.1945C84.6006 79.3151 84.5765 79.4353 84.525 79.5463C84.4737 79.6409 84.3967 79.7217 84.3013 79.7809H87.0833L87.4084 78.9539C87.2478 79.0885 87.0545 79.186 86.8447 79.2385C86.5927 79.295 86.3335 79.3197 86.0743 79.3118C85.9446 79.3118 85.8055 79.3092 85.6627 79.3031C85.5199 79.2971 85.3799 79.2859 85.2437 79.2704V77.7984H85.908C86.0033 77.7965 86.0985 77.8085 86.1898 77.8338C86.2668 77.8577 86.3367 77.8979 86.3937 77.9511V77.3095C86.356 77.3173 86.3177 77.3222 86.2791 77.3242H86.1635H85.2437V76.1514L86.1062 76.1342C86.2402 76.1313 86.3738 76.147 86.5027 76.1807C86.6086 76.212 86.7034 76.2689 86.777 76.3455V75.6711ZM78.6124 76.5093C78.9313 76.2167 79.3487 76.0681 79.8648 76.0635L79.8677 76.0669C80.0985 76.0622 80.3276 76.1043 80.5386 76.1903C80.7496 76.2763 80.9372 76.4041 81.0881 76.5645C81.4076 76.8944 81.5673 77.3138 81.5673 77.8226C81.5745 78.0297 81.5355 78.236 81.4526 78.4288C81.3697 78.6216 81.2447 78.7968 81.0853 78.9436C80.7634 79.2367 80.3468 79.3833 79.8357 79.3833C79.6034 79.3898 79.3724 79.349 79.1593 79.2639C78.9462 79.1787 78.7562 79.0514 78.6031 78.891C78.2855 78.5627 78.1289 78.1425 78.1333 77.6303C78.1256 77.4233 78.1641 77.2171 78.2466 77.0243C78.329 76.8315 78.4535 76.6562 78.6124 76.5093ZM81.6058 76.1756C81.1392 75.7806 80.5545 75.5832 79.8517 75.5832L79.8545 75.5866C79.0885 75.5872 78.4859 75.7965 78.0469 76.2144C77.6209 76.6179 77.3867 77.1599 77.3958 77.7217C77.3964 78.3632 77.6284 78.8806 78.0919 79.2738C78.5554 79.667 79.1411 79.8636 79.8489 79.8636C80.6093 79.8631 81.2087 79.6529 81.6472 79.2333C81.8602 79.0341 82.028 78.798 82.1409 78.5389C82.2538 78.2797 82.3095 78.0025 82.3048 77.7234C82.3055 77.0865 82.0725 76.5705 81.6058 76.1756ZM74.4625 77.2931H72.0028V76.2609C71.9967 76.1395 72.0195 76.0183 72.0695 75.9057C72.1232 75.8125 72.2014 75.7331 72.2969 75.6746H71.0567C71.1495 75.7349 71.226 75.8139 71.2803 75.9057C71.3332 76.0176 71.3573 76.1391 71.3508 76.2609V79.1928C71.3577 79.3163 71.3336 79.4396 71.2803 79.5532C71.227 79.6442 71.1503 79.7217 71.0567 79.7791H72.2969C72.2007 79.7236 72.1222 79.6456 72.0695 79.5532C72.0191 79.4389 71.9963 79.3159 72.0028 79.1928V77.7622H74.4625V79.1902C74.4695 79.3137 74.4454 79.437 74.3921 79.5506C74.3388 79.6416 74.262 79.7192 74.1684 79.7765H75.4077C75.3118 79.721 75.2336 79.643 75.1813 79.5506C75.13 79.4365 75.1069 79.3134 75.1136 79.1902V76.2584C75.1073 76.1368 75.1304 76.0155 75.1813 75.9031C75.2346 75.8099 75.3124 75.7305 75.4077 75.672H74.1684C74.2613 75.7323 74.3378 75.8114 74.3921 75.9031C74.445 76.015 74.4691 76.1365 74.4625 76.2584V77.2931ZM68.0737 77.2931H65.614V76.2609C65.6079 76.1395 65.6306 76.0183 65.6807 75.9057C65.7344 75.8125 65.8125 75.7331 65.908 75.6746H64.6679C64.7607 75.7349 64.8372 75.8139 64.8915 75.9057C64.9444 76.0176 64.9685 76.1391 64.9619 76.2609V79.1928C64.9689 79.3163 64.9448 79.4396 64.8915 79.5532C64.8382 79.6442 64.7614 79.7217 64.6679 79.7791H65.908C65.8119 79.7236 65.7334 79.6456 65.6807 79.5532C65.6302 79.4389 65.6075 79.3159 65.614 79.1928V77.7622H68.0737V79.1902C68.0806 79.3137 68.0565 79.437 68.0032 79.5506C67.9499 79.6416 67.8732 79.7192 67.7796 79.7765H69.0189C68.9229 79.721 68.8448 79.643 68.7924 79.5506C68.7412 79.4365 68.718 79.3134 68.7248 79.1902V76.2584C68.7184 76.1368 68.7416 76.0155 68.7924 75.9031C68.8457 75.8099 68.9236 75.7305 69.0189 75.672H67.7796C67.8724 75.7323 67.949 75.8114 68.0032 75.9031C68.0561 76.015 68.0802 76.1365 68.0737 76.2584V77.2931ZM60.0002 77.826L60.6946 76.2083L61.3945 77.826H60.0002ZM61.1437 75.6746H60.0923C60.1295 75.6893 60.1632 75.7106 60.1913 75.7374C60.2193 75.7643 60.2413 75.7959 60.2558 75.8307C60.2828 75.9096 60.2771 75.995 60.2398 76.0704L58.9583 79.0376C58.8904 79.2058 58.8011 79.3662 58.6924 79.5153C58.6088 79.6222 58.5032 79.713 58.3814 79.7826H59.5878C59.4871 79.7234 59.4118 79.6342 59.3745 79.5299C59.3474 79.3986 59.3685 79.2627 59.4346 79.1436L59.8358 78.2227H61.5655L62.0484 79.3247C62.0934 79.4131 62.1002 79.5139 62.0672 79.6067C62.0241 79.6871 61.9487 79.7489 61.8568 79.7791H63.2247C63.1076 79.7258 63.0029 79.652 62.9166 79.5618C62.8147 79.4458 62.7347 79.3149 62.6798 79.1747L61.1437 75.6746ZM53.9092 79.7791H55.2509C55.1229 79.7311 55.0163 79.6448 54.9484 79.5342C54.8766 79.4005 54.8443 79.2519 54.8544 79.1031V76.1713C54.939 76.1557 55.0282 76.1428 55.1194 76.1333C55.1317 76.132 55.144 76.1307 55.1563 76.1294C55.2351 76.121 55.3137 76.1126 55.3909 76.1126C55.689 76.1126 55.922 76.181 56.0899 76.3179C56.1747 76.3891 56.2418 76.4762 56.2866 76.5734C56.3313 76.6706 56.3527 76.7755 56.3492 76.8809C56.3542 77.0167 56.3245 77.1516 56.2623 77.2749C56.2001 77.3982 56.1073 77.5063 55.9912 77.5906C55.7325 77.7664 55.4187 77.8608 55.0968 77.8597C55.1886 77.887 55.283 77.9066 55.3787 77.9183C55.4655 77.9299 55.5531 77.9359 55.6408 77.9364C56.0749 77.9398 56.4241 77.8295 56.6884 77.6053C56.8165 77.4994 56.9182 77.3694 56.9866 77.2241C57.055 77.0789 57.0885 76.9219 57.0849 76.7637C57.0925 76.6134 57.0619 76.4636 56.9953 76.3262C56.9288 76.1888 56.8282 76.0675 56.7015 75.9721C56.4453 75.7801 56.0429 75.6823 55.4942 75.6789H53.9092C54.0032 75.7399 54.0791 75.8214 54.13 75.916C54.1787 76.0255 54.2036 76.1427 54.2033 76.2609V79.1928C54.2102 79.3163 54.1861 79.4396 54.1328 79.5532C54.0796 79.6442 54.0028 79.7217 53.9092 79.7791ZM49.5714 79.2919V77.7208L49.8937 77.7001C49.981 77.6915 50.0543 77.6915 50.1144 77.6915C50.5335 77.6909 50.837 77.7593 51.0249 77.8967C51.118 77.9631 51.1928 78.0487 51.2432 78.1465C51.2936 78.2443 51.3183 78.3516 51.3152 78.4598C51.3114 78.7524 51.2137 78.9732 51.022 79.1221C50.8304 79.271 50.5682 79.3454 50.2356 79.3454C50.1295 79.3454 50.0196 79.3411 49.9068 79.3333C49.7942 79.3256 49.6822 79.3118 49.5714 79.2919ZM51.3509 75.6746H48.6262C48.7201 75.736 48.7957 75.8182 48.8461 75.9134C48.8956 76.0227 48.9205 76.14 48.9194 76.2584V79.1902C48.9215 79.3117 48.8965 79.4323 48.8461 79.5446C48.7962 79.6383 48.7204 79.7183 48.6262 79.7765H50.1774C50.8088 79.7765 51.2785 79.6593 51.5867 79.4247C51.7391 79.309 51.8603 79.1624 51.9407 78.9965C52.021 78.8306 52.0584 78.6498 52.0499 78.4684C52.0499 78.0844 51.9061 77.7861 51.6186 77.5734C51.3311 77.3607 50.9278 77.2543 50.4085 77.2543C50.3315 77.2543 50.2206 77.2578 50.0759 77.2655L49.5714 77.2948V76.1402H50.9102C51.0501 76.1369 51.1895 76.1553 51.3227 76.1946C51.4211 76.2265 51.5097 76.2798 51.5811 76.3498V75.6599C51.5434 75.6681 51.5051 75.673 51.4664 75.6746H51.3509ZM43.6664 75.6806L43.5725 76.4187C43.7796 76.3023 44.0031 76.2124 44.2367 76.1514C44.4572 76.0946 44.6851 76.0656 44.9141 76.0652C45.1327 76.0533 45.3494 76.1082 45.5305 76.2213C45.603 76.2722 45.661 76.3385 45.6995 76.4145C45.7379 76.4905 45.7557 76.5739 45.7512 76.6576C45.752 76.75 45.7294 76.8413 45.685 76.9242C45.6406 77.0071 45.5758 77.0794 45.4957 77.1353C45.3297 77.2543 45.0676 77.3118 44.7093 77.3078C44.6359 77.3084 44.5625 77.3055 44.4894 77.2992C44.4312 77.2931 44.3457 77.2802 44.2433 77.2612V77.8743C44.3296 77.8371 44.4209 77.8105 44.5148 77.795C44.6339 77.7759 44.7547 77.767 44.8756 77.7682C45.1587 77.7549 45.4387 77.8283 45.6714 77.9769C45.7679 78.0441 45.8454 78.1318 45.8971 78.2324C45.9488 78.333 45.9732 78.4435 45.9683 78.5547C45.9702 78.6747 45.9393 78.7932 45.8784 78.8994C45.8175 79.0056 45.7286 79.0961 45.6197 79.1626C45.3892 79.3069 45.0738 79.379 44.6736 79.379C44.4188 79.3811 44.166 79.3375 43.9295 79.2505C43.6793 79.1514 43.4551 79.0044 43.2718 78.8194L43.4447 79.617C43.6283 79.707 43.8252 79.7724 44.0291 79.811C44.2513 79.8481 44.4768 79.8658 44.7027 79.8636C45.3334 79.8631 45.8245 79.7429 46.1759 79.5032C46.3463 79.3883 46.4833 79.2368 46.5749 79.0619C46.6664 78.8871 46.7098 78.6942 46.7011 78.5003C46.71 78.2335 46.6032 77.9742 46.4042 77.7795C46.3029 77.6836 46.1811 77.608 46.0464 77.5576C45.9117 77.5071 45.767 77.4828 45.6216 77.4863V77.469C45.8615 77.4338 46.0822 77.3275 46.2501 77.1664C46.4089 77.0056 46.4928 76.7942 46.4841 76.5774C46.4897 76.4361 46.457 76.2957 46.389 76.1688C46.3209 76.042 46.2196 75.9326 46.0942 75.8505C45.8342 75.6746 45.4381 75.5866 44.9057 75.5866C44.695 75.5852 44.4845 75.5988 44.2762 75.6272C44.0743 75.6564 43.8707 75.6742 43.6664 75.6806ZM40.378 75.9031L38.1034 79.0151V76.2592C38.0973 76.1378 38.1201 76.0165 38.1701 75.904C38.2238 75.8108 38.302 75.7314 38.3975 75.6729H37.1582C37.2509 75.7334 37.3273 75.8124 37.3818 75.904C37.4339 76.016 37.4577 76.1375 37.4514 76.2592V79.191C37.4581 79.3145 37.4343 79.4377 37.3818 79.5515C37.3283 79.6423 37.2516 79.7198 37.1582 79.7774H38.0649C38.1023 79.7511 38.1374 79.7223 38.1701 79.6912C38.2131 79.6469 38.2526 79.5999 38.2885 79.5506L40.5631 76.4386V79.1928C40.5701 79.3163 40.546 79.4396 40.4927 79.5532C40.4394 79.6442 40.3626 79.7217 40.269 79.7791H41.5083C41.4126 79.7233 41.3345 79.6454 41.2819 79.5532C41.231 79.439 41.2082 79.316 41.2151 79.1928V76.2609C41.2086 76.1395 41.2313 76.0181 41.2819 75.9057C41.3355 75.8127 41.4133 75.7334 41.5083 75.6746H40.6016C40.5616 75.703 40.5242 75.7345 40.4898 75.7686C40.4486 75.8105 40.4112 75.8555 40.378 75.9031ZM155.365 60.8163C155.236 60.7695 155.098 60.7477 154.96 60.7525L153.143 60.7818C153.578 60.9712 153.943 61.2746 154.19 61.6536L157.07 65.7288V68.4692C157.07 68.8279 157.07 69.341 156.427 69.7514H159.138C158.495 69.341 158.495 68.8279 158.495 68.4692V65.7374L162.1 60.774H159.683C159.92 60.8896 160.158 61.1328 160.158 61.4277C160.145 61.6133 160.078 61.7922 159.962 61.945L158.034 64.6897L155.365 60.8163ZM149.945 69.7558C149.302 69.3453 149.302 68.8322 149.302 68.4735V61.8045L150.867 61.7915C151.216 61.7915 151.719 61.7915 151.984 62.2279L152.474 60.7266C152.191 60.758 151.907 60.7753 151.622 60.7783H146.214C145.915 60.7877 145.615 60.7704 145.319 60.7266L144.76 62.3305C144.949 62.1533 145.175 62.0139 145.426 61.9212C145.676 61.8284 145.944 61.7843 146.214 61.7915L147.877 61.8045V68.4735C147.877 68.8322 147.877 69.3453 147.233 69.7558H149.945ZM140.876 62.0606C140.876 61.7398 140.904 61.1759 141.589 60.7783H138.804C139.445 61.1888 139.445 61.7019 139.445 62.0606V68.477C139.445 68.8357 139.445 69.3487 138.804 69.7592H144.817L145.599 67.8958C144.719 68.5753 143.391 68.7296 142.483 68.7296C141.946 68.7164 141.409 68.6778 140.876 68.6141V62.0606ZM133.904 65.4848H130.872L132.381 61.9494L133.904 65.4848ZM136.726 68.4356L133.359 60.7783L131.066 60.7715C131.638 61.0181 131.442 61.5061 131.387 61.6338L128.592 68.1234C128.327 68.7391 128.047 69.3168 127.32 69.7523H129.961C129.305 69.3289 129.431 68.8038 129.625 68.3545L130.506 66.341H134.264L135.326 68.7555C135.452 69.0504 135.565 69.4867 134.907 69.7558H137.914C137.229 69.4229 136.95 68.9348 136.726 68.4356ZM125.561 62.2572V60.7783H120.14C120.782 61.1888 120.782 61.7269 120.782 62.0606V68.4701C120.782 68.8038 120.782 69.3418 120.14 69.7523H126.233L126.946 67.9415C126.33 68.4416 125.561 68.7244 124.025 68.7244C123.746 68.7244 123.061 68.715 122.209 68.6382V65.4253H123.661C124.151 65.4253 124.458 65.515 124.724 65.759V64.3612C124.557 64.3873 124.389 64.4 124.22 64.3991H122.209V61.8347L124.094 61.7959C124.919 61.7829 125.297 61.9752 125.561 62.2572ZM112.265 60.7524L112.262 60.7525L112.259 60.7525C111.645 60.7655 111.031 60.7783 110.417 60.7783C111.059 61.1888 111.059 61.7019 111.059 62.0606V68.4718C111.059 68.8305 111.059 69.3436 110.417 69.754H113.123C112.482 69.3436 112.482 68.8305 112.482 68.4718V61.764C112.789 61.6958 113.105 61.6668 113.421 61.6777C115.141 61.6777 115.378 62.6012 115.378 63.1781C115.378 64.4595 113.897 64.989 112.891 65.0752C113.771 66.5885 115.951 69.8325 117.558 69.8325C117.712 69.8325 118.09 69.8196 119.068 69.7558C117.684 69.2306 115.657 66.9084 114.567 65.3313C116.077 65.1002 116.986 64.1129 116.986 63.0609C116.986 62.3555 116.664 60.7266 113.478 60.7266C113.074 60.7266 112.67 60.7395 112.265 60.7524ZM101.908 61.5346C102.481 61.5346 103.319 61.6251 104.298 62.3684L104.306 60.868C103.573 60.6746 102.813 60.5796 102.051 60.5861C99.1384 60.5861 98.3867 61.8812 98.3867 62.9841C98.3867 64.3948 99.5753 64.9596 101.168 65.6262C101.263 65.6656 101.357 65.7042 101.45 65.7423C102.569 66.2009 103.53 66.5947 103.53 67.55C103.53 68.4097 102.635 68.9219 101.251 68.9219C99.6025 68.9219 98.6104 68.2812 98.0936 67.8708L98.4986 69.5635C99.3582 69.8293 100.261 69.9593 101.168 69.948C103.208 69.948 105.095 69.1246 105.095 67.1887C105.095 65.803 104.102 65.3287 102.453 64.6492C100.763 63.9568 99.9943 63.5972 99.9943 62.828C99.9943 62.3434 100.33 61.5346 101.908 61.5346ZM93.4834 61.5346C94.0565 61.5346 94.8945 61.6251 95.8735 62.3684L95.8811 60.868C95.1482 60.6746 94.3887 60.5797 93.6262 60.5861C90.7136 60.5861 89.962 61.8812 89.962 62.9841C89.962 64.3948 91.1458 64.9596 92.743 65.6262C92.838 65.6657 92.9324 65.7044 93.0257 65.7427C94.1436 66.2011 95.1041 66.5949 95.1041 67.55C95.1041 68.4097 94.2097 68.9219 92.8267 68.9219C91.1778 68.9219 90.1856 68.2812 89.6689 67.8708L90.0738 69.5635C90.9334 69.8294 91.836 69.9594 92.743 69.948C94.7828 69.948 96.6693 69.1246 96.6693 67.1887C96.6693 65.803 95.6772 65.3287 94.0283 64.6492C92.3381 63.9568 91.5686 63.5972 91.5686 62.828C91.5686 62.3434 91.904 61.5346 93.4834 61.5346ZM87.4337 62.2572V60.7783H82.0089C82.6515 61.1888 82.6515 61.7269 82.6515 62.0606V68.4701C82.6515 68.8038 82.6515 69.3418 82.0089 69.7523H88.1008L88.813 67.9415C88.1985 68.4416 87.43 68.7244 85.8929 68.7244C85.6129 68.7244 84.928 68.715 84.0759 68.6382V65.4253H85.534C86.0226 65.4253 86.3298 65.515 86.5948 65.759V64.3612C86.4287 64.3874 86.2605 64.4001 86.0921 64.3991H84.0796V61.8347L85.9662 61.7959C86.7911 61.7829 87.1678 61.9752 87.4337 62.2572ZM73.585 61.1121C73.501 61.0088 73.4307 60.8968 73.3755 60.7783H71.2925C71.9352 61.1888 71.9352 61.7019 71.9352 62.0606V68.4744C71.9352 68.8331 71.9352 69.3462 71.2925 69.7566H73.6686C73.026 69.3462 73.026 68.8331 73.026 68.4744V62.6392L78.2103 68.5891C78.2264 68.6077 78.2426 68.6264 78.2589 68.6451C78.7355 69.1965 79.2825 69.8293 80.3901 70.1145V62.0606C80.3901 61.7019 80.3901 61.1888 81.0336 60.7783H78.6575C79.3002 61.1888 79.3002 61.7019 79.3002 62.0606V67.6526L73.585 61.1121ZM67.3624 62.0606V64.3138L61.9864 64.3181V62.0606C61.9864 61.6406 62.0005 61.1888 62.63 60.7783H59.9185C60.5471 61.1888 60.5611 61.6372 60.5611 62.0606V68.4735C60.5611 68.8943 60.5471 69.3453 59.9185 69.7566H62.63C62.0005 69.3453 61.9864 68.8969 61.9864 68.4735V65.3442H67.3662V68.4735C67.3662 68.8943 67.3531 69.3453 66.7245 69.7566H69.4313C68.8018 69.3453 68.7887 68.8969 68.7887 68.4735V62.0606C68.7887 61.6406 68.8028 61.1888 69.4313 60.7783H66.7208C67.3493 61.1888 67.3624 61.6372 67.3624 62.0606ZM55.3599 61.6717C56.3514 61.6821 57.3162 61.9683 58.1268 62.4926L58.1296 60.9318C57.8661 60.8999 57.6051 60.8529 57.3479 60.7913C56.7524 60.6547 56.141 60.5852 55.5271 60.5843C51.9916 60.5843 50.0919 62.8642 50.0919 65.327C50.0919 67.3146 51.3913 69.9437 55.5835 69.9437C56.5023 69.9437 57.2014 69.867 58.0263 69.623L58.9762 67.9053C58.5571 68.2252 57.6204 68.8538 55.6925 68.8538C52.8701 68.8538 51.6957 66.8533 51.6957 64.9812C51.6957 62.7875 53.5287 61.6717 55.3599 61.6717ZM48.5294 62.0606C48.5294 61.7019 48.5294 61.1888 49.1721 60.7783H46.4615C47.1032 61.1888 47.1032 61.7019 47.1032 62.0606V68.4735C47.1032 68.8322 47.1032 69.3453 46.4615 69.7558H49.1721C48.5294 69.3453 48.5294 68.8322 48.5294 68.4735V62.0606ZM38.8776 60.7524L38.8748 60.7525C38.2603 60.7654 37.6449 60.7783 37.0305 60.7783C37.6731 61.1888 37.6731 61.7019 37.6731 62.0606V68.4718C37.6731 68.8305 37.6731 69.3436 37.0305 69.754H39.7382C39.0956 69.3436 39.0956 68.8305 39.0956 68.4718V61.764C39.4029 61.6958 39.7191 61.6668 40.0351 61.6777C41.7535 61.6777 41.9912 62.6012 41.9912 63.1781C41.9912 64.4595 40.5096 64.989 39.5043 65.0752C40.3846 66.5885 42.5643 69.8325 44.1709 69.8325C44.325 69.8325 44.7018 69.8196 45.6808 69.7558C44.2968 69.2306 42.2712 66.9084 41.1804 65.3313C42.6902 65.1002 43.5978 64.1129 43.5978 63.0609C43.5978 62.3555 43.2774 60.7266 40.0905 60.7266C39.6865 60.7266 39.2825 60.7395 38.8776 60.7524Z" fill="url(#paint0_linear_337_505)"/>
</g>
<defs>
<linearGradient id="paint0_linear_337_505" x1="-12.9078" y1="4.94523" x2="235.739" y2="127.122" gradientUnits="userSpaceOnUse">
<stop stop-color="#DABE83"/>
<stop offset="1" stop-color="#C9792F"/>
</linearGradient>
<clipPath id="clip0_337_505">
<rect width="200" height="108" fill="white"/>
</clipPath>
</defs>
</svg>
